
    <svg
      width="31"
      height="32"
      viewBox="0 0 31 32"
      class= "bg-neutral-300"
      xmlns="http://www.w3.org/2000/svg"
    >
      <path        
        fill="currentColor"
        d="M15.5 2.72C8.39581 2.72 2.58331 8.70667 2.58331 16.08C2.58331 22.7467 7.31081 28.28 13.485 29.28V19.9467H10.2041V16.08H13.485V13.1333C13.485 9.78667 15.4096 7.94667 18.3675 7.94667C19.7754 7.94667 21.2479 8.2 21.2479 8.2V11.4933H19.6204C18.0187 11.4933 17.515 12.52 17.515 13.5733V16.08H21.1058L20.5246 19.9467H17.515V29.28C20.5587 28.7838 23.3303 27.1807 25.3295 24.7601C27.3286 22.3395 28.4236 19.2609 28.4166 16.08C28.4166 8.70667 22.6041 2.72 15.5 2.72V2.72Z"
      />
    </svg>


