<svg width="32" height="32" viewBox="0 0 32 32" fill="none" xmlns="http://www.w3.org/2000/svg">
<path d="M24.7273 7.47967C23.7741 6.86211 22.9906 6.01721 22.4477 5.02155C21.9049 4.02588 21.62 2.91094 21.6187 1.77777H16.7109L16.7023 21.3759C16.6714 22.1812 16.4035 22.9597 15.9319 23.6143C15.4604 24.269 14.8061 24.771 14.0504 25.0578C13.2948 25.3446 12.4712 25.4035 11.6822 25.2272C10.8932 25.051 10.1736 24.6473 9.61313 24.0664C9.05261 23.4856 8.67589 22.7532 8.52987 21.9605C8.38385 21.1679 8.47497 20.3499 8.7919 19.6085C9.10883 18.867 9.63756 18.2349 10.3123 17.7907C10.987 17.3466 11.7778 17.1101 12.5864 17.1106C12.9994 17.1119 13.4098 17.176 13.8034 17.3006V12.3082C13.4002 12.2515 12.9936 12.2221 12.5864 12.2203C7.60665 12.2203 3.55554 16.2572 3.55554 21.221C3.5592 23.6075 4.5121 25.8952 6.20534 27.5825C7.89858 29.2698 10.194 30.2191 12.5883 30.2222C17.5676 30.2222 21.6187 26.1854 21.6187 21.221V11.2833C23.607 12.7092 25.995 13.4752 28.4444 13.4727V8.58101C27.1243 8.5821 25.8325 8.19936 24.7273 7.47967Z" fill="currentColor"/>
</svg>
