<svg width="64" height="64" viewBox="0 0 64 64" fill="none" xmlns="http://www.w3.org/2000/svg">
<path fill-rule="evenodd" clip-rule="evenodd" d="M22 50H12.0177L12.0123 50C11.2901 49.9981 10.5857 49.7982 9.9709 49.4267C9.35676 49.0556 8.85689 48.5287 8.5143 47.9062C8.17194 47.2842 7.9963 46.5849 8.00006 45.878C8.00381 45.1726 8.18611 44.4767 8.53377 43.8593C10.0043 41.2325 11.8434 36.1286 11.8434 26.9999L11.8434 24.9012C11.8399 22.1574 12.3594 19.4383 13.3737 16.9C14.3883 14.3612 15.8788 12.0511 17.7628 10.1048C19.6471 8.15836 21.8879 6.61409 24.3582 5.56487C26.8288 4.51557 29.4777 3.98317 32.1516 4.00041L32.1541 4.00042C43.3703 4.08698 52.1586 13.7262 52.1586 25.1372V26.9999C52.1586 36.1288 53.9968 41.2329 55.4665 43.8598C55.8141 44.4773 55.9963 45.1733 55.9999 45.8787C56.0036 46.5856 55.8279 47.2848 55.4855 47.9067C55.1428 48.529 54.643 49.0559 54.0289 49.4269C53.4141 49.7983 52.7098 49.9981 51.9876 50L51.9823 50H42C42 52.6522 40.9464 55.1957 39.0711 57.0711C37.1957 58.9464 34.6522 60 32 60C29.3478 60 26.8043 58.9464 24.9289 57.0711C23.0536 55.1957 22 52.6522 22 50ZM25.922 9.24655C27.8924 8.40964 30.0002 7.98679 32.1246 8.00031C40.9314 8.06905 48.1586 15.7058 48.1586 25.1372V26.9999C48.1586 36.6716 50.1093 42.4784 51.9774 45.8158L51.9808 45.8219C51.9914 45.8407 51.9998 45.8677 52 45.8993C52.0002 45.931 51.992 45.9582 51.9814 45.9775C51.9748 45.9895 51.9685 45.9964 51.9645 46H12.0355C12.0316 45.9964 12.0252 45.9895 12.0186 45.9775C12.008 45.9582 11.9998 45.931 12 45.8993C12.0002 45.8676 12.0086 45.8407 12.0192 45.8218L12.0226 45.8158C13.8917 42.4782 15.8434 36.6712 15.8434 26.9999L15.8434 24.8999L15.8434 24.8972C15.8404 22.6604 16.264 20.4466 17.0881 18.3843C17.9122 16.3221 19.1195 14.4544 20.6368 12.8869C22.154 11.3196 23.9509 10.0837 25.922 9.24655ZM38 50C38 51.5913 37.3679 53.1174 36.2426 54.2426C35.1174 55.3679 33.5913 56 32 56C30.4087 56 28.8826 55.3679 27.7574 54.2426C26.6321 53.1174 26 51.5913 26 50H38Z" fill="#172126"/>
</svg>
