<svg width="64" height="64" viewBox="0 0 64 64" fill="none" xmlns="http://www.w3.org/2000/svg">
<path d="M22 27.9999C22 26.8954 22.8954 25.9999 24 25.9999H40C41.1046 25.9999 42 26.8954 42 27.9999C42 29.1045 41.1046 29.9999 40 29.9999H24C22.8954 29.9999 22 29.1045 22 27.9999Z" fill="#172126"/>
<path d="M24 33.9999C22.8954 33.9999 22 34.8954 22 35.9999C22 37.1045 22.8954 37.9999 24 37.9999H40C41.1046 37.9999 42 37.1045 42 35.9999C42 34.8954 41.1046 33.9999 40 33.9999H24Z" fill="#172126"/>
<path fill-rule="evenodd" clip-rule="evenodd" d="M19.4907 54.7969C24.7699 57.6929 30.9009 58.6702 36.8345 57.5444C43.0554 56.3642 48.6314 52.9536 52.5155 47.9531C56.3996 42.9526 58.3247 36.7061 57.9292 30.3867C57.5337 24.0672 54.8449 18.1095 50.3676 13.6323C45.8904 9.15504 39.9326 6.46624 33.6132 6.07079C27.2938 5.67533 21.0473 7.60043 16.0468 11.4846C11.0463 15.3687 7.63576 20.9448 6.45554 27.1656C5.32982 33.0992 6.3071 39.2301 9.20306 44.5093L7.066 51.989C6.87003 52.6749 6.86104 53.4007 7.03998 54.0913C7.21891 54.7818 7.57925 55.4119 8.08367 55.9163C8.58808 56.4207 9.21821 56.7811 9.90874 56.96C10.5993 57.1389 11.3251 57.13 12.011 56.934L19.4907 54.7969ZM33.3634 10.063C28.0166 9.72839 22.7315 11.3572 18.5006 14.6436C14.2697 17.9299 11.384 22.6478 10.3854 27.9112C9.38899 33.1634 10.34 38.5983 13.0599 43.1996C13.3476 43.6667 13.4387 44.2447 13.2804 44.7987L10.9121 53.0879L19.2013 50.7196C19.747 50.5636 20.3263 50.6483 20.7991 50.9394C25.4007 53.6598 30.8362 54.6111 36.0889 53.6145C41.3523 52.6159 46.0702 49.7303 49.3565 45.4993C52.6428 41.2684 54.2716 35.9833 53.937 30.6365C53.6024 25.2897 51.3274 20.2489 47.5392 16.4607C43.751 12.6725 38.7102 10.3976 33.3634 10.063Z" fill="#172126"/>
</svg>
