<svg width="64" height="64" viewBox="0 0 64 64" fill="none" xmlns="http://www.w3.org/2000/svg">
<path fill-rule="evenodd" clip-rule="evenodd" d="M21.9998 32.0002C21.9998 29.2388 19.7612 27.0002 16.9998 27.0002C14.2383 27.0002 11.9998 29.2388 11.9998 32.0002C11.9998 34.7617 14.2383 37.0002 16.9998 37.0002C19.7612 37.0002 21.9998 34.7617 21.9998 32.0002ZM16.9998 23.0002C21.9703 23.0002 25.9998 27.0297 25.9998 32.0002C25.9998 36.9708 21.9703 41.0002 16.9998 41.0002C12.0292 41.0002 7.99976 36.9708 7.99976 32.0002C7.99976 27.0297 12.0292 23.0002 16.9998 23.0002Z" fill="#172126"/>
<path fill-rule="evenodd" clip-rule="evenodd" d="M52.0002 47.0004C52.0002 44.2389 49.7617 42.0004 47.0002 42.0004C44.2388 42.0004 42.0002 44.2389 42.0002 47.0004C42.0002 49.7618 44.2388 52.0004 47.0002 52.0004C49.7617 52.0004 52.0002 49.7618 52.0002 47.0004ZM47.0002 38.0004C51.9708 38.0004 56.0002 42.0298 56.0002 47.0004C56.0002 51.9709 51.9708 56.0004 47.0002 56.0004C42.0297 56.0004 38.0002 51.9709 38.0002 47.0004C38.0002 42.0298 42.0297 38.0004 47.0002 38.0004Z" fill="#172126"/>
<path fill-rule="evenodd" clip-rule="evenodd" d="M52.0004 17.0004C52.0004 14.2389 49.7618 12.0004 47.0004 12.0004C44.2389 12.0004 42.0004 14.2389 42.0004 17.0004C42.0004 19.7618 44.2389 22.0004 47.0004 22.0004C49.7618 22.0004 52.0004 19.7618 52.0004 17.0004ZM47.0004 8.00037C51.9709 8.00037 56.0004 12.0298 56.0004 17.0004C56.0004 21.9709 51.9709 26.0004 47.0004 26.0004C42.0298 26.0004 38.0004 21.9709 38.0004 17.0004C38.0004 12.0298 42.0298 8.00037 47.0004 8.00037Z" fill="#172126"/>
<path fill-rule="evenodd" clip-rule="evenodd" d="M40.9358 20.7676L23.9358 29.7676L22.0642 26.2324L39.0642 17.2324L40.9358 20.7676ZM39.1484 46.8096L22.1484 38.8096L23.8516 35.1904L40.8516 43.1904L39.1484 46.8096Z" fill="#172126"/>
</svg>
