<svg width="64" height="64" viewBox="0 0 64 64" fill="none" xmlns="http://www.w3.org/2000/svg">
<path fill-rule="evenodd" clip-rule="evenodd" d="M30.7748 12C30.04 12 29.3644 12.4029 29.0151 13.0494L21.1846 27.5455H11.76C10.8306 27.5455 9.90043 27.8735 9.18253 28.5153C8.45728 29.1636 8 30.0942 8 31.1189V48.4266C8 49.4512 8.45728 50.3818 9.18253 51.0302C9.90043 51.672 10.8306 52 11.76 52H48.0814C49.3505 52 50.5974 51.5722 51.5851 50.7651C52.5764 49.9552 53.246 48.8092 53.4193 47.5255L55.9558 28.7429C56.0565 27.9979 55.9842 27.2428 55.7467 26.5308C55.5094 25.8193 55.1152 25.1744 54.6007 24.6349C54.0865 24.0958 53.4639 23.6737 52.7793 23.3879C52.095 23.1021 51.3587 22.9565 50.6179 22.9565H39.5389V20.2609C39.5389 19.1536 39.303 18.0614 38.8495 17.048C38.3963 16.0351 37.7366 15.1253 36.9163 14.366C36.0963 13.607 35.1311 13.0124 34.0793 12.6091C33.0276 12.2059 31.9052 12 30.7748 12ZM24.3201 48H48.0814C48.461 48 48.8059 47.8705 49.0542 47.6677C49.2989 47.4677 49.4242 47.2207 49.4553 46.9902L51.9918 28.2076C52.0102 28.0717 51.9976 27.9325 51.9522 27.7963C51.9066 27.6596 51.8262 27.5216 51.7061 27.3956C51.5855 27.2691 51.4277 27.1582 51.238 27.079C51.0481 26.9997 50.8363 26.9565 50.6179 26.9565H37.5389C36.4343 26.9565 35.5389 26.0611 35.5389 24.9565V20.2609C35.5389 19.7237 35.4248 19.1877 35.1984 18.6819C34.9719 18.1756 34.6351 17.705 34.1992 17.3015C33.7629 16.8977 33.2368 16.57 32.6473 16.344C32.4059 16.2515 32.1566 16.177 31.902 16.1214L24.3201 30.1571V48ZM20.3201 31.5455H12V48H20.3201V31.5455Z" fill="#172126"/>
</svg>
