<svg width="64" height="64" viewBox="0 0 64 64" fill="none" xmlns="http://www.w3.org/2000/svg">
<path fill-rule="evenodd" clip-rule="evenodd" d="M4.00832 13.8164C4.0495 13.364 4.24139 12.955 4.53336 12.6403C4.71237 12.4469 4.92169 12.2965 5.14777 12.1902C5.42025 12.0621 5.71709 11.998 6.0146 12H57.9855C58.0122 11.9999 58.0389 12.0002 58.0656 12.0011C58.607 12.019 59.1392 12.2555 59.5188 12.6987L59.5268 12.7082C59.5714 12.7609 59.6128 12.8152 59.651 12.8709C59.7621 13.0329 59.8463 13.2067 59.9042 13.3865C59.9259 13.4542 59.944 13.5227 59.9583 13.5918C59.9875 13.7324 60.0013 13.8752 60 14.0177V48C60 49.1149 59.5188 50.1484 58.722 50.8839C57.9305 51.6144 56.889 52 55.8333 52H8.16667C7.11096 52 6.06947 51.6144 5.27804 50.8839C4.48124 50.1484 4 49.1149 4 48V14C3.99999 13.939 4.00275 13.8773 4.00832 13.8164ZM8 18.3122V45.5252L24.0439 31.8879L8 18.3122ZM52.7355 48H11.2646L27.139 34.5068L30.7082 37.5268C31.4538 38.1578 32.5462 38.1578 33.2919 37.5268L36.861 34.5068L52.7355 48ZM56 45.5251V18.3123L39.9562 31.8879L56 45.5251ZM11.4599 16L32 33.3801L52.5402 16H11.4599Z" fill="#172126"/>
</svg>
