<svg width="64" height="64" viewBox="0 0 64 64" fill="none" xmlns="http://www.w3.org/2000/svg">
<path fill-rule="evenodd" clip-rule="evenodd" d="M37.3335 17.2093H19.0256V17.2227C12.8868 17.517 8 22.5873 8 28.799V44.8139C8 46.4708 9.34314 47.8139 11 47.8139H32.8203V54C32.8203 55.1046 33.7157 56 34.8203 56C35.9249 56 36.8203 55.1046 36.8203 54V47.8139H53C54.6568 47.8139 56 46.4708 56 44.8139V28.2093C56 22.1341 51.0751 17.2093 45 17.2093H41.3335V12H48.3591C49.4637 12 50.3591 11.1046 50.3591 10C50.3591 8.89543 49.4637 8 48.3591 8L39.3335 8C38.2289 8 37.3335 8.89543 37.3335 10L37.3335 17.2093ZM37.3335 26.3721C37.3335 27.4767 38.2289 28.3721 39.3335 28.3721C40.4381 28.3721 41.3335 27.4767 41.3335 26.3721V21.2093H45C48.866 21.2093 52 24.3433 52 28.2093V43.8139H31.1795V28.799C31.1795 25.8962 30.1123 23.2426 28.3489 21.2093H37.3335L37.3335 26.3721ZM19.5897 21.2093C15.398 21.2093 12 24.6073 12 28.799V43.8139H27.1795V28.799C27.1795 24.6073 23.7814 21.2093 19.5897 21.2093Z" fill="#172126"/>
</svg>
