<svg width="64" height="64" viewBox="0 0 64 64" fill="none" xmlns="http://www.w3.org/2000/svg">
<path d="M8 47.8824C8 48.8757 8.33053 49.8825 8.9965 50.6706C9.67104 51.4689 10.6653 52 11.7895 52H25.2105C26.3347 52 27.329 51.4689 28.0035 50.6706C28.6695 49.8825 29 48.8758 29 47.8824L29 30.9412C29 29.9478 28.6695 28.941 28.0035 28.1529C27.329 27.3546 26.3347 26.8235 25.2105 26.8235L12 26.8235V24.5882C12 22.2118 12.8007 19.9868 14.1482 18.3921C15.4873 16.8075 17.2239 16 18.9474 16C20.0519 16 20.9474 15.1046 20.9474 14C20.9474 12.8954 20.0519 12 18.9474 12C15.9248 12 13.1099 13.4236 11.093 15.8103C9.08467 18.187 8 21.3483 8 24.5882L8 47.8824Z" fill="#172126"/>
<path d="M35 47.8824C35 48.8758 35.3305 49.8825 35.9965 50.6706C36.671 51.4689 37.6653 52 38.7895 52H52.2105C53.3347 52 54.329 51.4689 55.0035 50.6706C55.6695 49.8825 56 48.8758 56 47.8824V30.9412C56 29.9478 55.6695 28.941 55.0035 28.1529C54.329 27.3546 53.3347 26.8235 52.2105 26.8235L39 26.8235V24.5882C39 22.2118 39.8007 19.9868 41.1482 18.3921C42.4873 16.8075 44.2239 16 45.9474 16C47.0519 16 47.9474 15.1046 47.9474 14C47.9474 12.8954 47.0519 12 45.9474 12C42.9248 12 40.1099 13.4236 38.093 15.8103C36.0847 18.187 35 21.3483 35 24.5882L35 47.8824Z" fill="#172126"/>
</svg>
