<svg width="64" height="64" viewBox="0 0 64 64" fill="none" xmlns="http://www.w3.org/2000/svg">
<path fill-rule="evenodd" clip-rule="evenodd" d="M12.0204 16C12.0098 16.0276 12 16.067 12 16.1176V33.0588C12 33.1095 12.0098 33.1489 12.0204 33.1765H26V16.1176C26 16.067 25.9902 16.0276 25.9796 16H12.0204ZM30 16.1176C30 15.0929 29.6378 14.0716 28.9355 13.2867C28.2267 12.4944 27.2145 12 26.1053 12H11.8947C10.7855 12 9.77329 12.4944 9.06447 13.2867C8.36219 14.0716 8 15.0929 8 16.1176V33.0588C8 34.0835 8.36218 35.1049 9.06447 35.8898C9.77329 36.682 10.7855 37.1765 11.8947 37.1765H26V39.4118C26 41.7569 25.1644 43.9673 23.7347 45.5652C22.3116 47.1558 20.4321 48 18.5263 48C17.4217 48 16.5263 48.8954 16.5263 50C16.5263 51.1046 17.4217 52 18.5263 52C21.6457 52 24.5856 50.6131 26.7157 48.2324C28.8393 45.8589 30 42.683 30 39.4118V16.1176Z" fill="#172126"/>
<path fill-rule="evenodd" clip-rule="evenodd" d="M38.0204 16C38.0098 16.0276 38 16.067 38 16.1176V33.0588C38 33.1095 38.0098 33.1489 38.0204 33.1765H52V16.1176C52 16.067 51.9902 16.0276 51.9796 16H38.0204ZM56 16.1176C56 15.093 55.6378 14.0716 54.9355 13.2867C54.2267 12.4944 53.2145 12 52.1053 12H37.8947C36.7855 12 35.7733 12.4944 35.0645 13.2867C34.3622 14.0716 34 15.093 34 16.1176V33.0588C34 34.0835 34.3622 35.1049 35.0645 35.8898C35.7733 36.682 36.7855 37.1765 37.8947 37.1765H52V39.4118C52 41.7569 51.1644 43.9673 49.7347 45.5652C48.3116 47.1558 46.4321 48 44.5263 48C43.4217 48 42.5263 48.8954 42.5263 50C42.5263 51.1046 43.4217 52 44.5263 52C47.6457 52 50.5856 50.6131 52.7157 48.2324C54.8393 45.8589 56 42.683 56 39.4118V16.1176Z" fill="#172126"/>
</svg>
