<svg width="64" height="64" viewBox="0 0 64 64" fill="none" xmlns="http://www.w3.org/2000/svg">
<path fill-rule="evenodd" clip-rule="evenodd" d="M8.9965 50.6706C8.33053 49.8825 8 48.8757 8 47.8824L8 24.5882C8 21.3483 9.08467 18.187 11.093 15.8103C13.1099 13.4236 15.9248 12 18.9474 12C20.0519 12 20.9474 12.8954 20.9474 14C20.9474 15.1046 20.0519 16 18.9474 16C17.2239 16 15.4873 16.8075 14.1482 18.3921C12.8007 19.9868 12 22.2118 12 24.5882V26.8235L25.2105 26.8235C26.3347 26.8235 27.329 27.3546 28.0035 28.1529C28.6695 28.941 29 29.9478 29 30.9412L29 47.8824C29 48.8758 28.6695 49.8825 28.0035 50.6706C27.329 51.4689 26.3347 52 25.2105 52H11.7895C10.6653 52 9.67104 51.4689 8.9965 50.6706ZM25 47.8824C25 47.9262 24.9944 47.9661 24.9857 48H12.0143C12.0056 47.9661 12 47.9262 12 47.8824L12 30.8235L24.9857 30.8235C24.9944 30.8574 25 30.8973 25 30.9412L25 47.8824Z" fill="#172126"/>
<path fill-rule="evenodd" clip-rule="evenodd" d="M35.9965 50.6706C35.3305 49.8825 35 48.8758 35 47.8824L35 24.5882C35 21.3483 36.0847 18.187 38.093 15.8103C40.1099 13.4236 42.9248 12 45.9474 12C47.0519 12 47.9474 12.8954 47.9474 14C47.9474 15.1046 47.0519 16 45.9474 16C44.2239 16 42.4873 16.8075 41.1482 18.3921C39.8007 19.9868 39 22.2118 39 24.5882V26.8235L52.2105 26.8235C53.3347 26.8235 54.329 27.3546 55.0035 28.1529C55.6695 28.941 56 29.9478 56 30.9412V47.8824C56 48.8758 55.6695 49.8825 55.0035 50.6706C54.329 51.4689 53.3347 52 52.2105 52H38.7895C37.6653 52 36.671 51.4689 35.9965 50.6706ZM52 47.8824C52 47.9262 51.9944 47.9661 51.9857 48H39.0143C39.0056 47.9661 39 47.9262 39 47.8824L39 30.8235L51.9857 30.8235C51.9944 30.8574 52 30.8973 52 30.9412V47.8824Z" fill="#172126"/>
</svg>
