<svg width="64" height="64" viewBox="0 0 64 64" fill="none" xmlns="http://www.w3.org/2000/svg">
<path fill-rule="evenodd" clip-rule="evenodd" d="M52 28.2093V30V33H53C56.866 33 60 36.134 60 40V44C60 45.1046 59.1046 46 58 46C56.8954 46 56 45.1046 56 44L56 40C56 38.3431 54.6569 37 53 37H52V44.8139C52 46.4708 50.6568 47.8139 49 47.8139H32.8203V54C32.8203 55.1046 31.9249 56 30.8203 56C29.7157 56 28.8203 55.1046 28.8203 54V47.8139L7 47.8139C5.34314 47.8139 4 46.4708 4 44.8139V28.799C4 22.5873 8.8868 17.5169 15.0256 17.2227V17.2093H15.5629L15.5897 17.2092L15.6166 17.2093H33.3335L33.3335 10C33.3335 8.89543 34.2289 8 35.3335 8H44.3591C45.4637 8 46.3591 8.89543 46.3591 10C46.3591 11.1046 45.4637 12 44.3591 12L37.3335 12V17.2093H41C47.0751 17.2093 52 22.1341 52 28.2093ZM33.3335 26.3721C33.3335 27.4767 34.2289 28.3721 35.3335 28.3721C36.4381 28.3721 37.3335 27.4767 37.3335 26.3721V21.2093H41C44.866 21.2093 48 24.3433 48 28.2093V33L42.8284 33L43.4142 32.4142C44.1953 31.6332 44.1953 30.3668 43.4142 29.5858C42.6332 28.8047 41.3668 28.8047 40.5858 29.5858L36.5858 33.5858C36.2107 33.9609 36 34.4696 36 35C36 35.5304 36.2107 36.0391 36.5858 36.4142L40.5858 40.4142C41.3668 41.1953 42.6332 41.1953 43.4142 40.4142C44.1953 39.6332 44.1953 38.3668 43.4142 37.5858L42.8284 37L48 37V43.8139H27.1795V28.799C27.1795 25.8962 26.1123 23.2426 24.3489 21.2093H33.3335L33.3335 26.3721ZM15.568 21.2093C11.3863 21.221 8 24.6145 8 28.799V43.8139H23.1795V28.799C23.1795 24.6145 19.7932 21.221 15.6115 21.2093H15.568Z" fill="#172126"/>
</svg>
