<svg width="64" height="64" viewBox="0 0 64 64" fill="none" xmlns="http://www.w3.org/2000/svg">
<path d="M49 8C45.134 8 42 11.134 42 15V49C42 52.866 45.134 56 49 56C52.866 56 56 52.866 56 49V15C56 11.134 52.866 8 49 8Z" fill="#172126"/>
<path fill-rule="evenodd" clip-rule="evenodd" d="M32 22C28.134 22 25 25.134 25 29V49C25 52.866 28.134 56 32 56C35.866 56 39 52.866 39 49V29C39 25.134 35.866 22 32 22ZM29 29C29 27.3431 30.3431 26 32 26C33.6569 26 35 27.3431 35 29V49C35 50.6569 33.6569 52 32 52C30.3431 52 29 50.6569 29 49V29Z" fill="#172126"/>
<path fill-rule="evenodd" clip-rule="evenodd" d="M15 32C11.134 32 8 35.134 8 39V49C8 52.866 11.134 56 15 56C18.866 56 22 52.866 22 49V39C22 35.134 18.866 32 15 32ZM12 39C12 37.3431 13.3431 36 15 36C16.6569 36 18 37.3431 18 39V49C18 50.6569 16.6569 52 15 52C13.3431 52 12 50.6569 12 49V39Z" fill="#172126"/>
</svg>
