<svg width="64" height="64" viewBox="0 0 64 64" fill="none" xmlns="http://www.w3.org/2000/svg">
<path fill-rule="evenodd" clip-rule="evenodd" d="M49 8C45.134 8 42 11.134 42 15V49C42 52.866 45.134 56 49 56C52.866 56 56 52.866 56 49V15C56 11.134 52.866 8 49 8ZM46 15C46 13.3431 47.3431 12 49 12C50.6569 12 52 13.3431 52 15V49C52 50.6569 50.6569 52 49 52C47.3431 52 46 50.6569 46 49V15Z" fill="#172126"/>
<path fill-rule="evenodd" clip-rule="evenodd" d="M25 29C25 25.134 28.134 22 32 22C35.866 22 39 25.134 39 29V49C39 52.866 35.866 56 32 56C28.134 56 25 52.866 25 49V29ZM32 26C30.3431 26 29 27.3431 29 29V49C29 50.6569 30.3431 52 32 52C33.6569 52 35 50.6569 35 49V29C35 27.3431 33.6569 26 32 26Z" fill="#172126"/>
<path d="M15 32C11.134 32 8 35.134 8 39V49C8 52.866 11.134 56 15 56C18.866 56 22 52.866 22 49V39C22 35.134 18.866 32 15 32Z" fill="#172126"/>
</svg>
