<svg width="64" height="64" viewBox="0 0 64 64" fill="none" xmlns="http://www.w3.org/2000/svg">
<path fill-rule="evenodd" clip-rule="evenodd" d="M12.3436 8.34315C13.8439 6.84285 15.8788 6 18.0005 6H52.0005C53.1051 6 54.0005 6.89543 54.0005 8V48C54.0005 49.1046 53.1051 50 52.0005 50H18.0005C16.9396 50 15.9222 50.4214 15.1721 51.1716C14.4219 51.9217 14.0005 52.9391 14.0005 54H48.0005C49.1051 54 50.0005 54.8954 50.0005 56C50.0005 57.1046 49.1051 58 48.0005 58H12.0005C10.8959 58 10.0005 57.1046 10.0005 56V14C10.0005 11.8783 10.8433 9.84344 12.3436 8.34315ZM18.0005 10H26.0005V32C26.0005 32.7576 26.4285 33.4501 27.1062 33.7889C27.7838 34.1277 28.5946 34.0545 29.2007 33.5999L35.999 28.5L42.8007 33.6001C43.4067 34.0546 44.2175 34.1276 44.895 33.7888C45.5725 33.45 46.0005 32.7575 46.0005 32V10H50.0005V46H18.0005C16.584 46 15.2063 46.3756 14.0005 47.0718V14C14.0005 12.9391 14.4219 11.9217 15.1721 11.1716C15.9222 10.4214 16.9396 10 18.0005 10ZM42.0005 28.0005V10H30.0005V27.9995L34.7986 24.4001C35.5096 23.8667 36.4874 23.8666 37.1986 24.3999L42.0005 28.0005Z" fill="#172126"/>
</svg>
