<svg width="64" height="64" viewBox="0 0 64 64" fill="none" xmlns="http://www.w3.org/2000/svg">
<path fill-rule="evenodd" clip-rule="evenodd" d="M23 14C21.8954 14 21 14.8954 21 16V26C21 27.1046 21.8954 28 23 28H43C44.1046 28 45 27.1046 45 26V16C45 14.8954 44.1046 14 43 14H23ZM25 24V18H41V24H25Z" fill="#172126"/>
<path fill-rule="evenodd" clip-rule="evenodd" d="M12.3436 8.34315C13.8439 6.84285 15.8788 6 18.0005 6H52.0005C53.1051 6 54.0005 6.89543 54.0005 8V48C54.0005 49.1046 53.1051 50 52.0005 50H18.0005C16.9396 50 15.9222 50.4214 15.1721 51.1716C14.4219 51.9217 14.0005 52.9391 14.0005 54H48.0005C49.1051 54 50.0005 54.8954 50.0005 56C50.0005 57.1046 49.1051 58 48.0005 58H12.0005C10.8959 58 10.0005 57.1046 10.0005 56V14C10.0005 11.8783 10.8433 9.84344 12.3436 8.34315ZM14.0005 47.0718C15.2063 46.3756 16.584 46 18.0005 46H50.0005V10H18.0005C16.9396 10 15.9222 10.4214 15.1721 11.1716C14.4219 11.9217 14.0005 12.9391 14.0005 14V47.0718Z" fill="#172126"/>
</svg>
