<svg width="64" height="64" viewBox="0 0 64 64" fill="none" xmlns="http://www.w3.org/2000/svg">
<path d="M41 20C39.8954 20 39 20.8954 39 22C39 23.1046 39.8954 24 41 24H51C52.1046 24 53 23.1046 53 22C53 20.8954 52.1046 20 51 20H41Z" fill="#172126"/>
<path d="M41 28C39.8954 28 39 28.8954 39 30C39 31.1046 39.8954 32 41 32H51C52.1046 32 53 31.1046 53 30C53 28.8954 52.1046 28 51 28H41Z" fill="#172126"/>
<path d="M41 36C39.8954 36 39 36.8954 39 38C39 39.1046 39.8954 40 41 40H51C52.1046 40 53 39.1046 53 38C53 36.8954 52.1046 36 51 36H41Z" fill="#172126"/>
<path d="M11 22C11 20.8954 11.8954 20 13 20H23C24.1046 20 25 20.8954 25 22C25 23.1046 24.1046 24 23 24H13C11.8954 24 11 23.1046 11 22Z" fill="#172126"/>
<path d="M11 30C11 28.8954 11.8954 28 13 28H23C24.1046 28 25 28.8954 25 30C25 31.1046 24.1046 32 23 32H13C11.8954 32 11 31.1046 11 30Z" fill="#172126"/>
<path d="M11 38C11 36.8954 11.8954 36 13 36H23C24.1046 36 25 36.8954 25 38C25 39.1046 24.1046 40 23 40H13C11.8954 40 11 39.1046 11 38Z" fill="#172126"/>
<path fill-rule="evenodd" clip-rule="evenodd" d="M8 12C6.93913 12 5.92172 12.4214 5.17157 13.1716C4.42143 13.9217 4 14.9391 4 16V48C4 49.0609 4.42143 50.0783 5.17157 50.8284C5.92172 51.5786 6.93914 52 8 52H24C25.5913 52 27.1174 52.6321 28.2426 53.7574C29.3679 54.8826 30 56.4087 30 58C30 59.1046 30.8954 60 32 60C33.1046 60 34 59.1046 34 58C34 56.4087 34.6321 54.8826 35.7574 53.7574C36.8826 52.6321 38.4087 52 40 52H56C57.0609 52 58.0783 51.5786 58.8284 50.8284C59.5786 50.0783 60 49.0609 60 48V16C60 14.9391 59.5786 13.9217 58.8284 13.1716C58.0783 12.4214 57.0609 12 56 12H40C37.3478 12 34.8043 13.0536 32.9289 14.9289C32.5924 15.2655 32.2823 15.6236 32 15.9999C31.7177 15.6236 31.4076 15.2655 31.0711 14.9289C29.1957 13.0536 26.6522 12 24 12H8ZM34 22V50C35.7208 48.7093 37.8238 48 40 48H56V16L40 16C38.4087 16 36.8826 16.6321 35.7574 17.7574C34.6321 18.8826 34 20.4087 34 22ZM30 22C30 20.4087 29.3679 18.8826 28.2426 17.7574C27.1174 16.6321 25.5913 16 24 16L8 16V48H24C26.1762 48 28.2792 48.7093 30 50V22Z" fill="#172126"/>
</svg>
