<svg width="64" height="64" viewBox="0 0 64 64" fill="none" xmlns="http://www.w3.org/2000/svg">
<path d="M43.8182 43.2727C42.7136 43.2727 41.8182 44.1682 41.8182 45.2727C41.8182 46.3773 42.7136 47.2727 43.8182 47.2727H46.1818C47.2864 47.2727 48.1818 46.3773 48.1818 45.2727C48.1818 44.1682 47.2864 43.2727 46.1818 43.2727H43.8182Z" fill="#172126"/>
<path d="M15.8182 19.2727C15.8182 18.1682 16.7136 17.2727 17.8182 17.2727H23.7273C24.8318 17.2727 25.7273 18.1682 25.7273 19.2727C25.7273 20.3773 24.8318 21.2727 23.7273 21.2727H17.8182C16.7136 21.2727 15.8182 20.3773 15.8182 19.2727Z" fill="#172126"/>
<path d="M20.1818 32.6364C19.0773 32.6364 18.1818 33.5318 18.1818 34.6364C18.1818 35.7409 19.0773 36.6364 20.1818 36.6364H28.4546C29.5591 36.6364 30.4546 35.7409 30.4546 34.6364C30.4546 33.5318 29.5591 32.6364 28.4546 32.6364H20.1818Z" fill="#172126"/>
<path d="M15.8182 45.2727C15.8182 44.1682 16.7136 43.2727 17.8182 43.2727H23.7273C24.8318 43.2727 25.7273 44.1682 25.7273 45.2727C25.7273 46.3773 24.8318 47.2727 23.7273 47.2727H17.8182C16.7136 47.2727 15.8182 46.3773 15.8182 45.2727Z" fill="#172126"/>
<path fill-rule="evenodd" clip-rule="evenodd" d="M9.10892 9.16723C9.82739 8.42712 10.8147 8 11.8571 8H34.1429C35.1853 8 36.1726 8.42712 36.8911 9.16723C37.6076 9.90531 38 10.8941 38 11.913V23H52.2C53.2558 23 54.2368 23.4518 54.9366 24.2034C55.6319 24.9502 56 25.9344 56 26.9333V52H58C59.1046 52 60 52.8954 60 54C60 55.1046 59.1046 56 58 56H6C4.89543 56 4 55.1046 4 54C4 52.8954 4.89543 52 6 52H8V11.913C8 10.8941 8.3924 9.90531 9.10892 9.16723ZM52 52V27H38V52H52ZM34 12H12V52H34V12Z" fill="#172126"/>
</svg>
