<svg width="64" height="64" viewBox="0 0 64 64" fill="none" xmlns="http://www.w3.org/2000/svg">
<path d="M12 12V52H23.3333C24.4379 52 25.3333 52.8954 25.3333 54C25.3333 55.1046 24.4379 56 23.3333 56H11.8182C10.7407 56 9.75075 55.5275 9.05265 54.7596C8.36032 53.998 8 53.0026 8 52V12C8 10.9974 8.36032 10.002 9.05265 9.24044C9.75075 8.47254 10.7407 8 11.8182 8H48.1818C49.2593 8 50.2493 8.47253 50.9473 9.24044C51.6397 10.002 52 10.9974 52 12V28C52 29.1046 51.1046 30 50 30C48.8954 30 48 29.1046 48 28V12H12Z" fill="#172126"/>
<path d="M17 18C17 16.8954 17.8954 16 19 16H40C41.1046 16 42 16.8954 42 18C42 19.1046 41.1046 20 40 20H19C17.8954 20 17 19.1046 17 18Z" fill="#172126"/>
<path d="M19 24C17.8954 24 17 24.8954 17 26C17 27.1046 17.8954 28 19 28H40C41.1046 28 42 27.1046 42 26C42 24.8954 41.1046 24 40 24H19Z" fill="#172126"/>
<path d="M19 32C17.8954 32 17 32.8954 17 34C17 35.1046 17.8954 36 19 36H25C26.1046 36 27 35.1046 27 34C27 32.8954 26.1046 32 25 32H19Z" fill="#172126"/>
<path d="M48.8809 43.4467C49.6799 42.684 49.7094 41.4181 48.9467 40.6191C48.184 39.8201 46.9181 39.7906 46.1191 40.5533L40.1666 46.2351L37.881 44.0533C37.082 43.2906 35.816 43.32 35.0533 44.119C34.2906 44.918 34.32 46.184 35.119 46.9467L38.7857 50.4467C39.5585 51.1844 40.7747 51.1844 41.5476 50.4467L48.8809 43.4467Z" fill="#172126"/>
<path fill-rule="evenodd" clip-rule="evenodd" d="M27 45.5C27 37.4919 33.4919 31 41.5 31C49.5081 31 56 37.4919 56 45.5C56 53.5081 49.5081 60 41.5 60C33.4919 60 27 53.5081 27 45.5ZM41.5 35C35.701 35 31 39.701 31 45.5C31 51.299 35.701 56 41.5 56C47.299 56 52 51.299 52 45.5C52 39.701 47.299 35 41.5 35Z" fill="#172126"/>
</svg>
