<svg width="64" height="64" viewBox="0 0 64 64" fill="none" xmlns="http://www.w3.org/2000/svg">
<path d="M47.024 27.2133C47.8267 26.4544 47.8621 25.1886 47.1033 24.386C46.3444 23.5834 45.0786 23.5479 44.276 24.3067L37.95 30.2876L35.4741 27.9467C34.6715 27.1879 33.4057 27.2233 32.6468 28.026C31.888 28.8286 31.9234 30.0944 32.7261 30.8533L36.576 34.4933C37.347 35.2222 38.553 35.2222 39.324 34.4933L47.024 27.2133Z" fill="#172126"/>
<path d="M47.024 41.7734C47.8267 41.0145 47.8621 39.7487 47.1033 38.946C46.3444 38.1434 45.0786 38.1079 44.276 38.8668L37.95 44.8477L35.4741 42.5068C34.6715 41.7479 33.4057 41.7834 32.6468 42.586C31.888 43.3887 31.9234 44.6545 32.7261 45.4133L36.576 49.0533C37.347 49.7823 38.553 49.7823 39.324 49.0534L47.024 41.7734Z" fill="#172126"/>
<path d="M16.3501 44.48C16.3501 43.3754 17.2455 42.48 18.3501 42.48H26.75C27.8546 42.48 28.75 43.3754 28.75 44.48C28.75 45.5845 27.8546 46.48 26.75 46.48H18.3501C17.2455 46.48 16.3501 45.5845 16.3501 44.48Z" fill="#172126"/>
<path d="M18.3501 27.9199C17.2455 27.9199 16.3501 28.8154 16.3501 29.9199C16.3501 31.0245 17.2455 31.9199 18.3501 31.9199H26.75C27.8546 31.9199 28.75 31.0245 28.75 29.9199C28.75 28.8154 27.8546 27.9199 26.75 27.9199H18.3501Z" fill="#172126"/>
<path fill-rule="evenodd" clip-rule="evenodd" d="M32.0001 4C28.6911 4 25.5138 5.30183 23.1682 7.62513C22.9928 7.79885 22.8231 7.97722 22.6593 8.15995H13.1C12.0187 8.15995 10.978 8.58521 10.2076 9.34822C9.43665 10.1119 9 11.1517 9 12.24V55.92C9 57.0082 9.43665 58.048 10.2076 58.8117C10.978 59.5747 12.0187 60 13.1 60H50.8996C51.9809 60 53.0216 59.5747 53.792 58.8117C54.563 58.048 54.9996 57.0082 54.9996 55.92V12.24C54.9996 11.1517 54.563 10.1119 53.792 9.34822C53.0216 8.58521 51.9809 8.15995 50.8996 8.15995H41.341C41.1772 7.97722 41.0075 7.79885 40.8321 7.62513C38.4865 5.30183 35.3092 4 32.0001 4ZM25.983 10.467C27.5756 8.8896 29.7397 8 32.0001 8C34.2606 8 36.4247 8.8896 38.0173 10.467C39.6092 12.0439 40.5 14.1784 40.5 16.4V16.48H23.5002V16.4C23.5002 14.1784 24.3911 12.0439 25.983 10.467ZM43.7466 12.16C44.2403 13.5057 44.5 14.9392 44.5 16.4V18.48C44.5 19.5846 43.6046 20.48 42.5 20.48H21.5002C20.3957 20.48 19.5002 19.5846 19.5002 18.48V16.4C19.5002 14.9392 19.76 13.5057 20.2537 12.16H13.1C13.0673 12.16 13.0398 12.173 13.0225 12.1901C13.0058 12.2066 13 12.2249 13 12.24V55.92C13 55.935 13.0058 55.9533 13.0225 55.9698C13.0398 55.9869 13.0673 56 13.1 56H50.8996C50.9323 56 50.9598 55.9869 50.9771 55.9698C50.9938 55.9533 50.9996 55.935 50.9996 55.92V12.24C50.9996 12.2249 50.9938 12.2066 50.9771 12.1901C50.9598 12.173 50.9323 12.16 50.8996 12.16H43.7466Z" fill="#172126"/>
</svg>
