<svg width="64" height="64" viewBox="0 0 64 64" fill="none" xmlns="http://www.w3.org/2000/svg">
<path d="M18 15C16.8954 15 16 15.8954 16 17C16 18.1046 16.8954 19 18 19H26C27.1046 19 28 18.1046 28 17C28 15.8954 27.1046 15 26 15H18Z" fill="#172126"/>
<path fill-rule="evenodd" clip-rule="evenodd" d="M44 25C40.6863 25 38 27.6863 38 31C38 34.3137 40.6863 37 44 37C47.3137 37 50 34.3137 50 31C50 27.6863 47.3137 25 44 25ZM42 31C42 29.8954 42.8954 29 44 29C45.1046 29 46 29.8954 46 31C46 32.1046 45.1046 33 44 33C42.8954 33 42 32.1046 42 31Z" fill="#172126"/>
<path fill-rule="evenodd" clip-rule="evenodd" d="M8 10.75C8 8.62619 9.7548 7 11.8 7H44.2C46.2452 7 48 8.6262 48 10.75V18.627C53.2225 20.3141 57 25.2159 57 31C57 34.6867 55.4653 38.015 53 40.3809V56C53 56.6954 52.6388 57.3409 52.0461 57.7046C51.4534 58.0683 50.7144 58.0981 50.0944 57.7832L43.9991 54.6877L37.9058 57.7831C37.2858 58.0981 36.5467 58.0684 35.954 57.7047C35.3612 57.3409 35 56.6954 35 56V53H11.8C9.75648 53 8.003 51.3766 8 49.2553L8 10.75ZM44 44C45.7718 44 47.4608 43.6455 49 43.0037V52.7411L44.9046 50.6612C44.3354 50.3721 43.6623 50.3722 43.0931 50.6613L39 52.7407V43.0037C40.5392 43.6455 42.2282 44 44 44ZM35 40.3809V49H12L12 11L44 11V18C40.3133 18 36.985 19.5347 34.6191 22H18C16.8954 22 16 22.8954 16 24C16 25.1046 16.8954 26 18 26H31.9963C31.6008 26.9483 31.3145 27.9536 31.1529 29H18C16.8954 29 16 29.8954 16 31C16 32.1046 16.8954 33 18 33H31.1529C31.5979 35.882 32.9895 38.4515 35 40.3809ZM35 31C35 26.0294 39.0294 22 44 22C48.9706 22 53 26.0294 53 31C53 35.9706 48.9706 40 44 40C39.0294 40 35 35.9706 35 31Z" fill="#172126"/>
</svg>
