<svg width="64" height="64" viewBox="0 0 64 64" fill="none" xmlns="http://www.w3.org/2000/svg">
<path fill-rule="evenodd" clip-rule="evenodd" d="M15.9535 41.1538C20.5773 41.1538 24.3256 37.2794 24.3256 32.5C24.3256 27.7206 20.5773 23.8462 15.9535 23.8462C11.3297 23.8462 7.5814 27.7206 7.5814 32.5C7.5814 37.2794 11.3297 41.1538 15.9535 41.1538ZM15.9535 45C22.6323 45 28.0465 39.4036 28.0465 32.5C28.0465 25.5964 22.6323 20 15.9535 20C9.2747 20 3.86047 25.5964 3.86047 32.5C3.86047 39.4036 9.2747 45 15.9535 45Z" fill="#172126"/>
<path fill-rule="evenodd" clip-rule="evenodd" d="M47.5814 41.1538C52.2052 41.1538 55.9535 37.2794 55.9535 32.5C55.9535 27.7206 52.2052 23.8462 47.5814 23.8462C42.9576 23.8462 39.2093 27.7206 39.2093 32.5C39.2093 37.2794 42.9576 41.1538 47.5814 41.1538ZM47.5814 45C54.2602 45 59.6744 39.4036 59.6744 32.5C59.6744 25.5964 54.2602 20 47.5814 20C40.9026 20 35.4884 25.5964 35.4884 32.5C35.4884 39.4036 40.9026 45 47.5814 45Z" fill="#172126"/>
<path fill-rule="evenodd" clip-rule="evenodd" d="M31.3023 26.25C28.6194 26.25 26.7216 27.8204 26.2199 28.4427L23.3615 25.9804C24.4102 24.6796 27.2876 22.4038 31.3023 22.4038C35.2508 22.4038 38.6731 24.6157 39.955 25.7514L37.5334 28.6716C36.6447 27.8843 34.0515 26.25 31.3023 26.25Z" fill="#172126"/>
<path fill-rule="evenodd" clip-rule="evenodd" d="M54.093 25.2885C54.093 24.2264 54.926 23.3654 55.9535 23.3654H60.1395C61.167 23.3654 62 24.2264 62 25.2885C62 26.3505 61.167 27.2115 60.1395 27.2115H55.9535C54.926 27.2115 54.093 26.3505 54.093 25.2885Z" fill="#172126"/>
<path fill-rule="evenodd" clip-rule="evenodd" d="M9.90698 25.2885C9.90698 24.2264 9.07402 23.3654 8.04651 23.3654H3.86047C2.83296 23.3654 2 24.2264 2 25.2885C2 26.3505 2.83296 27.2115 3.86047 27.2115H8.04651C9.07402 27.2115 9.90698 26.3505 9.90698 25.2885Z" fill="#172126"/>
</svg>
