<svg width="64" height="64" viewBox="0 0 64 64" fill="none" xmlns="http://www.w3.org/2000/svg">
<path d="M58.8984 21.549L32.8984 8.21902C32.6166 8.07506 32.3048 8 31.9884 8C31.672 8 31.3601 8.07506 31.0784 8.21902L5.07838 21.549C4.75335 21.7178 4.48089 21.9726 4.29073 22.2856C4.10056 22.5986 4 22.9578 4 23.324C4 23.6903 4.10056 24.0495 4.29073 24.3625C4.48089 24.6755 4.75335 24.9303 5.07838 25.099L10.0784 27.769V38.379C10.074 39.1864 10.3339 39.9731 10.8184 40.619C12.5584 42.929 19.2184 50.469 32.0084 50.469C35.7813 50.4985 39.5217 49.7708 43.0084 48.329V53.999C43.0084 54.5294 43.2191 55.0382 43.5942 55.4132C43.9692 55.7883 44.478 55.999 45.0084 55.999C45.5388 55.999 46.0475 55.7883 46.4226 55.4132C46.7977 55.0382 47.0084 54.5294 47.0084 53.999V46.239C49.3816 44.7383 51.4761 42.8367 53.1984 40.619C53.6802 39.9717 53.9398 39.186 53.9384 38.379V27.769L58.9384 25.099C59.2634 24.9303 59.5359 24.6755 59.726 24.3625C59.9162 24.0495 60.0168 23.6903 60.0168 23.324C60.0168 22.9578 59.9162 22.5986 59.726 22.2856C59.5359 21.9726 59.2634 21.7178 58.9384 21.549H58.8984ZM42.9884 43.929C39.5786 45.646 35.8057 46.5172 31.9884 46.469C21.1784 46.469 15.5884 40.309 14.0584 38.289V29.899L31.0584 38.959C31.3477 39.1131 31.6706 39.1937 31.9984 39.1937C32.3262 39.1937 32.649 39.1131 32.9384 38.959L42.9884 33.599V43.929ZM49.9184 38.289C49.0543 39.3931 48.0718 40.3991 46.9884 41.289V31.469L49.9184 29.899V38.289ZM44.9884 27.999L32.9284 21.569C32.4613 21.3304 31.9192 21.2849 31.4188 21.4422C30.9185 21.5995 30.4999 21.9471 30.2534 22.41C30.0068 22.8729 29.952 23.4142 30.1007 23.9172C30.2494 24.4201 30.5897 24.8446 31.0484 25.099L40.7384 30.269L31.9884 34.929L10.2984 23.369L31.9884 12.249L53.6684 23.369L44.9884 27.999Z" fill="#172126"/>
</svg>
