<svg width="64" height="64" viewBox="0 0 64 64" fill="none" xmlns="http://www.w3.org/2000/svg">
<path d="M41 30C41 28.8954 41.8954 28 43 28H45C46.1046 28 47 28.8954 47 30V39C48.1046 39 49 39.8954 49 41C49 42.1046 48.1046 43 47 43H45C43.8954 43 43 42.1046 43 41V32C41.8954 32 41 31.1046 41 30Z" fill="#172126"/>
<path d="M48 23C48 24.6569 46.6569 26 45 26C43.3431 26 42 24.6569 42 23C42 21.3431 43.3431 20 45 20C46.6569 20 48 21.3431 48 23Z" fill="#172126"/>
<path fill-rule="evenodd" clip-rule="evenodd" d="M8 12C6.93913 12 5.92172 12.4214 5.17157 13.1716C4.42143 13.9217 4 14.9391 4 16V48C4 49.0609 4.42143 50.0783 5.17157 50.8284C5.92172 51.5786 6.93914 52 8 52H24C25.5913 52 27.1174 52.6321 28.2426 53.7574C29.3679 54.8826 30 56.4087 30 58C30 59.1046 30.8954 60 32 60C33.1046 60 34 59.1046 34 58C34 56.4087 34.6321 54.8826 35.7574 53.7574C36.8826 52.6321 38.4087 52 40 52H56C57.0609 52 58.0783 51.5786 58.8284 50.8284C59.5786 50.0783 60 49.0609 60 48V16C60 14.9391 59.5786 13.9217 58.8284 13.1716C58.0783 12.4214 57.0609 12 56 12H40C37.3478 12 34.8043 13.0536 32.9289 14.9289C32.5924 15.2655 32.2823 15.6236 32 15.9999C31.7177 15.6236 31.4076 15.2655 31.0711 14.9289C29.1957 13.0536 26.6522 12 24 12H8ZM34 22V50C35.7208 48.7093 37.8238 48 40 48H56V16L40 16C38.4087 16 36.8826 16.6321 35.7574 17.7574C34.6321 18.8826 34 20.4087 34 22ZM30 22C30 20.4087 29.3679 18.8826 28.2426 17.7574C27.1174 16.6321 25.5913 16 24 16L8 16V48H24C26.1762 48 28.2792 48.7093 30 50V22Z" fill="#172126"/>
</svg>
