<svg width="64" height="64" viewBox="0 0 64 64" fill="none" xmlns="http://www.w3.org/2000/svg">
<path fill-rule="evenodd" clip-rule="evenodd" d="M46 10C46 8.89543 45.1046 8 44 8H20C18.8954 8 18 8.89543 18 10V54C18 55.1046 18.8954 56 20 56H44C45.1046 56 46 55.1046 46 54V10ZM44 4C47.3137 4 50 6.68629 50 10V54C50 57.3137 47.3137 60 44 60H20C16.6863 60 14 57.3137 14 54V10C14 6.68629 16.6863 4 20 4H44Z" fill="#172126"/>
<path fill-rule="evenodd" clip-rule="evenodd" d="M56.2 14C57.3045 14 58.2 14.8955 58.2 16V48C58.2 49.1046 57.3045 50 56.2 50C55.0954 50 54.2 49.1046 54.2 48V16C54.2 14.8955 55.0954 14 56.2 14Z" fill="#172126"/>
<path fill-rule="evenodd" clip-rule="evenodd" d="M8.2002 14C9.30476 14 10.2002 14.8954 10.2002 16V48C10.2002 49.1046 9.30476 50 8.2002 50C7.09563 50 6.2002 49.1046 6.2002 48V16C6.2002 14.8954 7.09563 14 8.2002 14Z" fill="#172126"/>
</svg>
