<svg width="64" height="64" viewBox="0 0 64 64" fill="none" xmlns="http://www.w3.org/2000/svg">
<path fill-rule="evenodd" clip-rule="evenodd" d="M28 14C28 16.7614 25.7614 19 23 19C20.2386 19 18 16.7614 18 14C18 11.2386 20.2386 9 23 9C25.7614 9 28 11.2386 28 14ZM28 50C28 52.7614 25.7614 55 23 55C20.2386 55 18 52.7614 18 50C18 47.2386 20.2386 45 23 45C25.7614 45 28 47.2386 28 50ZM23 37C25.7614 37 28 34.7614 28 32C28 29.2386 25.7614 27 23 27C20.2386 27 18 29.2386 18 32C18 34.7614 20.2386 37 23 37Z" fill="#172126"/>
<path fill-rule="evenodd" clip-rule="evenodd" d="M46 14C46 16.7614 43.7614 19 41 19C38.2386 19 36 16.7614 36 14C36 11.2386 38.2386 9 41 9C43.7614 9 46 11.2386 46 14ZM46 50C46 52.7614 43.7614 55 41 55C38.2386 55 36 52.7614 36 50C36 47.2386 38.2386 45 41 45C43.7614 45 46 47.2386 46 50ZM41 37C43.7614 37 46 34.7614 46 32C46 29.2386 43.7614 27 41 27C38.2386 27 36 29.2386 36 32C36 34.7614 38.2386 37 41 37Z" fill="#172126"/>
</svg>
