<svg width="64" height="64" viewBox="0 0 64 64" fill="none" xmlns="http://www.w3.org/2000/svg">
<path fill-rule="evenodd" clip-rule="evenodd" d="M17 42.0006C14.2386 42.0006 12 44.2392 12 47.0006C12 49.762 14.2386 52.0006 17 52.0006C19.7614 52.0006 22 49.762 22 47.0006C22 44.2392 19.7614 42.0006 17 42.0006ZM8 47.0006C8 42.03 12.0294 38.0006 17 38.0006C21.9706 38.0006 26 42.03 26 47.0006C26 51.9712 21.9706 56.0006 17 56.0006C12.0294 56.0006 8 51.9712 8 47.0006Z" fill="#172126"/>
<path fill-rule="evenodd" clip-rule="evenodd" d="M47 12C44.2386 12 42 14.2386 42 17C42 19.7614 44.2386 22 47 22C49.7614 22 52 19.7614 52 17C52 14.2386 49.7614 12 47 12ZM38 17C38 12.0294 42.0294 8 47 8C51.9706 8 56 12.0294 56 17C56 21.9706 51.9706 26 47 26C42.0294 26 38 21.9706 38 17Z" fill="#172126"/>
<path fill-rule="evenodd" clip-rule="evenodd" d="M17 12C14.2386 12 12 14.2386 12 17C12 19.7614 14.2386 22 17 22C19.7614 22 22 19.7614 22 17C22 14.2386 19.7614 12 17 12ZM8 17C8 12.0294 12.0294 8 17 8C21.9706 8 26 12.0294 26 17C26 21.9706 21.9706 26 17 26C12.0294 26 8 21.9706 8 17Z" fill="#172126"/>
<path fill-rule="evenodd" clip-rule="evenodd" d="M47 22C48.1046 22 49 22.896 49 24.0006V26.0007C49 28.1224 48.1571 30.1571 46.6568 31.6574C45.1566 33.1576 43.1218 34.0004 41.0002 34.0004C41.0002 34.0004 41.0002 34.0004 41.0002 34.0004L22.9999 34.0008C21.9391 34.0008 20.9217 34.4222 20.1716 35.1723C19.4215 35.9224 19 36.9398 19 38.0006C19 38.0006 19 38.0006 19 38.0006V40.0006C19 41.1052 18.1046 42.0006 17 42.0006C15.8954 42.0006 15 41.1052 15 40.0006V38.0006C15 35.8789 15.8429 33.8441 17.3432 32.3439C18.8434 30.8436 20.8782 30.0008 22.9998 30.0008C22.9999 30.0008 22.9998 30.0008 22.9998 30.0008L41.0001 30.0004C42.0609 30.0004 43.0783 29.579 43.8284 28.8289C44.5786 28.0788 45 27.0614 45 26.0007V24.0006C45 22.896 45.8954 22 47 22Z" fill="#172126"/>
<path fill-rule="evenodd" clip-rule="evenodd" d="M17 22C18.1046 22 19 22.896 19 24.0006V40.0006C19 41.1052 18.1046 42.0006 17 42.0006C15.8954 42.0006 15 41.1052 15 40.0006V24.0006C15 22.896 15.8954 22 17 22Z" fill="#172126"/>
</svg>
