<svg width="64" height="64" viewBox="0 0 64 64" fill="none" xmlns="http://www.w3.org/2000/svg">
<path fill-rule="evenodd" clip-rule="evenodd" d="M29.9808 13.8048C30.533 13.3027 31.2525 13.0244 31.9989 13.0244C32.7452 13.0244 33.4648 13.3026 34.017 13.8046L49.0181 27.4425C49.3273 27.7236 49.5745 28.0664 49.7436 28.4486C49.9127 28.8309 50 29.2443 50 29.6622V48.4987C50 49.3271 49.3284 49.9987 48.5 49.9987C47.6716 49.9987 47 49.3271 47 48.4987V29.6622L31.999 16.0244L17 29.6622V48.4987C17 49.3271 16.3284 49.9987 15.5 49.9987C14.6716 49.9987 14 49.3271 14 48.4987V29.6622C14 29.2442 14.0873 28.8309 14.2564 28.4486C14.4255 28.0664 14.6726 27.7237 14.9818 27.4425L29.9808 13.8048Z" fill="#172126"/>
<path fill-rule="evenodd" clip-rule="evenodd" d="M9.5 48.4987C9.5 47.6703 10.1716 46.9987 11 46.9987H53C53.8284 46.9987 54.5 47.6703 54.5 48.4987C54.5 49.3271 53.8284 49.9987 53 49.9987H11C10.1716 49.9987 9.5 49.3271 9.5 48.4987Z" fill="#172126"/>
<path fill-rule="evenodd" clip-rule="evenodd" d="M26.8776 35.8758C27.4402 35.3132 28.2032 34.9971 28.9989 34.9971H34.9989C35.7946 34.9971 36.5576 35.3132 37.1202 35.8758C37.6828 36.4384 37.9989 37.2014 37.9989 37.9971V48.4971C37.9989 49.3255 37.3273 49.9971 36.4989 49.9971C35.6705 49.9971 34.9989 49.3255 34.9989 48.4971V37.9971H28.9989V48.4971C28.9989 49.3255 28.3273 49.9971 27.4989 49.9971C26.6705 49.9971 25.9989 49.3255 25.9989 48.4971V37.9971C25.9989 37.2014 26.315 36.4384 26.8776 35.8758Z" fill="#172126"/>
</svg>
