<svg width="64" height="64" viewBox="0 0 64 64" fill="none" xmlns="http://www.w3.org/2000/svg">
<path d="M9.35887 52C8.92561 52 8.59081 51.8857 8.35449 51.6571C8.11816 51.3905 8 51.0667 8 50.6857V13.3143C8 12.9333 8.11816 12.6286 8.35449 12.4C8.59081 12.1333 8.92561 12 9.35887 12H12.4902C12.9235 12 13.2583 12.1333 13.4946 12.4C13.7309 12.6286 13.8491 12.9333 13.8491 13.3143V50.6857C13.8491 51.0667 13.7309 51.3905 13.4946 51.6571C13.2583 51.8857 12.9235 52 12.4902 52H9.35887Z" fill="#172126"/>
<path d="M25.514 52C25.0807 52 24.7459 51.8857 24.5096 51.6571C24.2733 51.3905 24.1551 51.0667 24.1551 50.6857V13.3714C24.1551 12.9524 24.2733 12.6286 24.5096 12.4C24.7459 12.1333 25.0807 12 25.514 12H38.9255C42.9824 12 46.2516 12.5905 48.733 13.7714C51.2144 14.9524 53.0262 16.7048 54.1685 19.0286C55.3107 21.3143 55.9015 24.1333 55.9409 27.4857C55.9803 29.2 56 30.7048 56 32C56 33.2952 55.9803 34.781 55.9409 36.4571C55.8621 39.9619 55.2516 42.8762 54.1094 45.2C53.0065 47.4857 51.2341 49.2 48.7921 50.3429C46.3894 51.4476 43.199 52 39.2209 52H25.514ZM29.9451 47.1429H38.9255C41.6432 47.1429 43.8095 46.781 45.4244 46.0571C47.0393 45.3333 48.2012 44.1714 48.9102 42.5714C49.6586 40.9714 50.0525 38.8571 50.0919 36.2286C50.1706 35.0857 50.21 34.0952 50.21 33.2571C50.21 32.381 50.21 31.5238 50.21 30.6857C50.21 29.8095 50.1706 28.819 50.0919 27.7143C50.0131 24.019 49.1072 21.2952 47.3741 19.5429C45.641 17.7524 42.7264 16.8571 38.63 16.8571H29.9451V47.1429Z" fill="#172126"/>
</svg>
