<svg width="64" height="64" viewBox="0 0 64 64" fill="none" xmlns="http://www.w3.org/2000/svg">
<path fill-rule="evenodd" clip-rule="evenodd" d="M37 17C37 19.7614 34.7614 22 32 22C29.2386 22 27 19.7614 27 17C27 14.2386 29.2386 12 32 12C34.7614 12 37 14.2386 37 17ZM37 47C37 49.7614 34.7614 52 32 52C29.2386 52 27 49.7614 27 47C27 44.2386 29.2386 42 32 42C34.7614 42 37 44.2386 37 47ZM32 37C34.7614 37 37 34.7614 37 32C37 29.2386 34.7614 27 32 27C29.2386 27 27 29.2386 27 32C27 34.7614 29.2386 37 32 37Z" fill="#172126"/>
</svg>
