<svg width="64" height="64" viewBox="0 0 64 64" fill="none" xmlns="http://www.w3.org/2000/svg">
<path d="M28 19C26.8954 19 26 19.8954 26 21C26 22.1046 26.8954 23 28 23H36C37.1046 23 38 22.1046 38 21C38 19.8954 37.1046 19 36 19H28Z" fill="#172126"/>
<path fill-rule="evenodd" clip-rule="evenodd" d="M8 18.2667V44H6C4.89543 44 4 44.8954 4 46V50C4 51.5913 4.63214 53.1174 5.75736 54.2426C6.88258 55.3679 8.4087 56 10 56H54C55.5913 56 57.1174 55.3679 58.2426 54.2426C59.3679 53.1174 60 51.5913 60 50V46C60 44.8954 59.1046 44 58 44H56V18.2667C56 16.6448 55.3972 15.0655 54.2875 13.8818C53.1737 12.6938 51.6345 12 50 12H14C12.3655 12 10.8263 12.6938 9.7125 13.8818C8.60281 15.0655 8 16.6448 8 18.2667ZM14 16C13.5127 16 13.0172 16.2053 12.6306 16.6176C12.24 17.0342 12 17.6254 12 18.2667V44H52V18.2667C52 17.6254 51.76 17.0342 51.3694 16.6176C50.9828 16.2053 50.4873 16 50 16H14ZM56 48V50C56 50.5304 55.7893 51.0391 55.4142 51.4142C55.0391 51.7893 54.5304 52 54 52H10C9.46957 52 8.96086 51.7893 8.58579 51.4142C8.21071 51.0391 8 50.5304 8 50V48H56Z" fill="#172126"/>
</svg>
