<svg width="64" height="64" viewBox="0 0 64 64" fill="none" xmlns="http://www.w3.org/2000/svg">
<path d="M17 27C19.7614 27 22 29.2386 22 32C22 34.7614 19.7614 37 17 37C14.2386 37 12 34.7614 12 32C12 29.2386 14.2386 27 17 27Z" fill="#172126"/>
<path d="M47 27C49.7614 27 52 29.2386 52 32C52 34.7614 49.7614 37 47 37C44.2386 37 42 34.7614 42 32C42 29.2386 44.2386 27 47 27Z" fill="#172126"/>
<path d="M37 32C37 29.2386 34.7614 27 32 27C29.2386 27 27 29.2386 27 32C27 34.7614 29.2386 37 32 37C34.7614 37 37 34.7614 37 32Z" fill="#172126"/>
</svg>
