<svg width="64" height="64" viewBox="0 0 64 64" fill="none" xmlns="http://www.w3.org/2000/svg">
<path d="M16.9999 27C19.7613 27 21.9999 29.2386 21.9999 32C21.9999 34.7614 19.7613 37 16.9999 37C14.2385 37 11.9999 34.7614 11.9999 32C11.9999 29.2386 14.2385 27 16.9999 27Z" fill="#172126"/>
<path d="M46.9999 27C49.7613 27 51.9999 29.2386 51.9999 32C51.9999 34.7614 49.7613 37 46.9999 37C44.2385 37 41.9999 34.7614 41.9999 32C41.9999 29.2386 44.2385 27 46.9999 27Z" fill="#172126"/>
<path d="M36.9999 32C36.9999 29.2386 34.7613 27 31.9999 27C29.2385 27 26.9999 29.2386 26.9999 32C26.9999 34.7614 29.2385 37 31.9999 37C34.7613 37 36.9999 34.7614 36.9999 32Z" fill="#172126"/>
</svg>
