<svg width="64" height="64" viewBox="0 0 64 64" fill="none" xmlns="http://www.w3.org/2000/svg">
<path d="M50 32C50 41.9411 41.9411 50 32 50C22.0589 50 14 41.9411 14 32C14 22.0589 22.0589 14 32 14C41.9411 14 50 22.0589 50 32Z" fill="#172126"/>
<path fill-rule="evenodd" clip-rule="evenodd" d="M32 6C17.6406 6 6 17.6406 6 32C6 46.3594 17.6406 58 32 58C46.3594 58 58 46.3594 58 32C58 17.6406 46.3594 6 32 6ZM10 32C10 19.8497 19.8497 10 32 10C44.1503 10 54 19.8497 54 32C54 44.1503 44.1503 54 32 54C19.8497 54 10 44.1503 10 32Z" fill="#172126"/>
</svg>
