<svg width="64" height="64" viewBox="0 0 64 64" fill="none" xmlns="http://www.w3.org/2000/svg">
<path fill-rule="evenodd" clip-rule="evenodd" d="M23.0015 39.0022C23.0015 34.0316 27.0309 30.0022 32.0015 30.0022C36.972 30.0022 41.0015 34.0316 41.0015 39.0022C41.0015 43.9728 36.972 48.0022 32.0015 48.0022C27.0309 48.0022 23.0015 43.9728 23.0015 39.0022ZM32.0015 34.0022C29.24 34.0022 27.0015 36.2408 27.0015 39.0022C27.0015 41.7636 29.24 44.0022 32.0015 44.0022C34.7629 44.0022 37.0015 41.7636 37.0015 39.0022C37.0015 36.2408 34.7629 34.0022 32.0015 34.0022Z" fill="#172126"/>
<path fill-rule="evenodd" clip-rule="evenodd" d="M9.17157 9.17157C9.92172 8.42143 10.9391 8 12 8H41.1716C41.6969 8 42.217 8.10346 42.7023 8.30448C43.1876 8.5055 43.6286 8.80014 44 9.17158L54.8284 20C55.1999 20.3714 55.4945 20.8124 55.6955 21.2977C55.8965 21.783 56 22.3031 56 22.8284V52C56 53.0609 55.5786 54.0783 54.8284 54.8284C54.0783 55.5786 53.0609 56 52 56H12C10.9391 56 9.92172 55.5786 9.17157 54.8284C8.42143 54.0783 8 53.0609 8 52V12C8 10.9391 8.42143 9.92172 9.17157 9.17157ZM22 12H12L12 52H52L52 22.8284L41.1716 12L26 12V22.0022H40C41.1046 22.0022 42 22.8976 42 24.0022C42 25.1068 41.1046 26.0022 40 26.0022H24C22.8954 26.0022 22 25.1068 22 24.0022V12Z" fill="#172126"/>
</svg>
