<svg width="64" height="64" viewBox="0 0 64 64" fill="none" xmlns="http://www.w3.org/2000/svg">
<path fill-rule="evenodd" clip-rule="evenodd" d="M29.5 8C17.6259 8 8 17.6259 8 29.5C8 41.3741 17.6259 51 29.5 51C34.3552 51 38.8345 49.3906 42.4336 46.6763L50.8787 55.1213C52.0503 56.2929 53.9497 56.2929 55.1213 55.1213C56.2929 53.9497 56.2929 52.0503 55.1213 50.8787L46.6763 42.4336C49.3906 38.8345 51 34.3552 51 29.5C51 17.6259 41.3741 8 29.5 8ZM14 29.5C14 20.9396 20.9396 14 29.5 14C38.0604 14 45 20.9396 45 29.5C45 38.0604 38.0604 45 29.5 45C20.9396 45 14 38.0604 14 29.5Z" fill="#172126"/>
</svg>
