<svg width="64" height="64" viewBox="0 0 64 64" fill="none" xmlns="http://www.w3.org/2000/svg">
<path fill-rule="evenodd" clip-rule="evenodd" d="M23.5693 58.6193C23.9546 58.7389 24.3558 58.7996 24.7593 58.7993C25.6247 58.7993 26.4669 58.5185 27.1593 57.9993L31.2993 54.8993H32.6193L36.7993 57.9993C37.3058 58.3794 37.8954 58.6339 38.5196 58.7417C39.1437 58.8495 39.7845 58.8075 40.3893 58.6193C41.9647 58.1234 43.4938 57.491 44.9593 56.7293C45.4999 56.4367 45.9681 56.0267 46.3293 55.5293C46.6936 55.012 46.9301 54.4157 47.0193 53.7893L47.7493 48.6593C47.8293 48.5843 47.9068 48.5068 47.9843 48.4293C48.0618 48.3518 48.1393 48.2743 48.2193 48.1993C48.3793 48.0493 48.5293 47.8893 48.6793 47.7293L53.8093 46.9993C54.4351 46.9079 55.0309 46.6716 55.5493 46.3093C56.0659 45.9412 56.4903 45.4586 56.7893 44.8993C57.5524 43.4206 58.1848 41.8781 58.6793 40.2893C58.8668 39.6842 58.9079 39.0433 58.7993 38.4193C58.6963 37.7942 58.4423 37.2038 58.0593 36.6993L54.9593 32.5593V31.8993V31.2393L58.0593 27.0593C58.4394 26.5527 58.6939 25.9631 58.8017 25.3389C58.9095 24.7148 58.8675 24.074 58.6793 23.4693C58.1834 21.8938 57.551 20.3647 56.7893 18.8993C56.5027 18.3545 56.0915 17.8851 55.5893 17.5293C55.0709 17.1669 54.4751 16.9306 53.8493 16.8393L48.7193 16.1093C48.6443 16.0293 48.5668 15.9518 48.4893 15.8743C48.4118 15.7968 48.3343 15.7193 48.2593 15.6393C48.1093 15.4793 47.9493 15.3293 47.7893 15.1793L47.0593 10.0493C46.9679 9.42343 46.7316 8.8276 46.3693 8.30926C46.0012 7.79266 45.5186 7.36825 44.9593 7.06926C43.4818 6.30352 41.939 5.67102 40.3493 5.17926C39.7442 4.99176 39.1033 4.95063 38.4793 5.05926C37.8555 5.16637 37.266 5.41999 36.7593 5.79926L32.6093 8.89926H31.3093L27.1193 5.79926C26.6125 5.41999 26.0231 5.16637 25.3993 5.05926C24.7752 4.95063 24.1343 4.99176 23.5293 5.17926C21.9532 5.67324 20.4239 6.3057 18.9593 7.06926C18.4218 7.35841 17.9594 7.76938 17.6093 8.26926C17.2485 8.78847 17.0124 9.38391 16.9193 10.0093L16.1893 15.1393C16.1093 15.2143 16.0318 15.2918 15.9543 15.3693C15.8768 15.4468 15.7993 15.5243 15.7193 15.5993C15.5593 15.7493 15.4093 15.9093 15.2593 16.0693L10.1293 16.7993C9.49813 16.8852 8.89664 17.1205 8.37483 17.4858C7.85302 17.8511 7.42599 18.3357 7.12926 18.8993C6.36186 20.3759 5.72929 21.9189 5.23926 23.5093C5.05176 24.1143 5.01063 24.7552 5.11926 25.3793C5.22637 26.0031 5.47999 26.5925 5.85926 27.0993L8.95926 31.2493V31.8993V32.5493L5.85926 36.6993C5.4614 37.1944 5.18717 37.7771 5.05926 38.3993C4.95063 39.0233 4.99176 39.6642 5.17926 40.2693C5.67324 41.8454 6.3057 43.3746 7.06926 44.8393C7.36599 45.4029 7.79303 45.8875 8.31483 46.2527C8.83664 46.618 9.43813 46.8534 10.0693 46.9393L15.1993 47.6693C15.2743 47.7493 15.3518 47.8268 15.4293 47.9043C15.5068 47.9818 15.5843 48.0593 15.6593 48.1393C15.8092 48.2992 15.9692 48.4492 16.1291 48.5991L16.1293 48.5993L16.8593 53.7293C16.9452 54.3604 17.1805 54.9619 17.5458 55.4837C17.9111 56.0055 18.3957 56.4325 18.9593 56.7293C20.4379 57.4924 21.9805 58.1248 23.5693 58.6193ZM20.8593 10.6193C22.1066 9.96034 23.4122 9.41803 24.7593 8.99926L29.4793 12.5393C29.8593 12.8213 30.327 12.9595 30.7993 12.9293C31.5721 12.8893 32.3464 12.8893 33.1193 12.9293C33.5915 12.9595 34.0593 12.8213 34.4393 12.5393L39.1593 8.99926C40.5064 9.41803 41.8119 9.96034 43.0593 10.6193L43.8993 16.4493C43.964 16.9203 44.1945 17.3528 44.5493 17.6693C44.8393 17.9193 45.1093 18.1793 45.3893 18.4593C45.6693 18.7393 45.9393 19.0193 46.1893 19.3093C46.5023 19.6684 46.9366 19.8997 47.4093 19.9593L53.2393 20.7893C53.8947 22.0417 54.4369 23.3502 54.8593 24.6993L51.3193 29.4193C51.0397 29.801 50.8986 30.2666 50.9193 30.7393V31.8993V33.0593C50.8986 33.5319 51.0397 33.9976 51.3193 34.3793L54.8593 39.0993C54.4361 40.4448 53.894 41.7499 53.2393 42.9993L47.4093 43.8393C46.9383 43.904 46.5057 44.1345 46.1893 44.4893C45.9393 44.7793 45.6593 45.0693 45.3893 45.3393C45.1193 45.6093 44.8393 45.8793 44.5493 46.1293C44.1901 46.4423 43.9588 46.8766 43.8993 47.3493L43.0693 53.1793C41.8168 53.8347 40.5083 54.3769 39.1593 54.7993L34.4393 51.2593C34.0606 50.9736 33.5928 50.8319 33.1193 50.8593C32.3467 50.9091 31.5718 50.9091 30.7993 50.8593C30.3257 50.8319 29.8579 50.9736 29.4793 51.2593L24.7593 54.7993C23.4131 54.3779 22.1078 53.8357 20.8593 53.1793L20.0193 47.3493C19.9545 46.8783 19.724 46.4457 19.3693 46.1293C19.0793 45.8793 18.7893 45.5993 18.5193 45.3293C18.2493 45.0593 17.9793 44.7793 17.7293 44.4893C17.4128 44.1345 16.9803 43.904 16.5093 43.8393L10.6793 42.9993C10.0203 41.7519 9.47803 40.4464 9.05926 39.0993L12.5693 34.3793C12.8513 33.9993 12.9895 33.5315 12.9593 33.0593V31.8993V30.7393C12.9982 30.2706 12.8707 29.8033 12.5993 29.4193L9.05926 24.6993C9.47803 23.3522 10.0203 22.0466 10.6793 20.7993L16.5093 19.9593C16.9803 19.8945 17.4128 19.664 17.7293 19.3093C17.9793 19.0193 18.2393 18.7493 18.5193 18.4693C18.7993 18.1893 19.0793 17.9193 19.3693 17.6693C19.724 17.3528 19.9545 16.9203 20.0193 16.4493L20.8593 10.6193ZM24.181 43.5399C26.4833 45.0782 29.1901 45.8993 31.959 45.8993C35.672 45.8993 39.233 44.4243 41.8585 41.7988C44.484 39.1733 45.959 35.6123 45.959 31.8993C45.959 29.1304 45.1379 26.4236 43.5996 24.1213C42.0612 21.819 39.8747 20.0246 37.3166 18.965C34.7584 17.9054 31.9435 17.6281 29.2277 18.1683C26.512 18.7085 24.0174 20.0419 22.0595 21.9998C20.1016 23.9577 18.7682 26.4523 18.228 29.168C17.6878 31.8838 17.9651 34.6987 19.0247 37.2569C20.0843 39.815 21.8787 42.0015 24.181 43.5399ZM26.4033 23.5846C28.0478 22.4858 29.9812 21.8993 31.959 21.8993C34.6112 21.8993 37.1547 22.9529 39.0301 24.8282C40.9054 26.7036 41.959 29.2471 41.959 31.8993C41.959 33.8771 41.3725 35.8105 40.2737 37.455C39.1749 39.0995 37.6131 40.3812 35.7858 41.1381C33.9586 41.895 31.9479 42.093 30.0081 41.7072C28.0683 41.3213 26.2864 40.3689 24.8879 38.9704C23.4894 37.5718 22.537 35.79 22.1511 33.8502C21.7653 31.9104 21.9633 29.8997 22.7202 28.0725C23.4771 26.2452 24.7588 24.6834 26.4033 23.5846Z" fill="#172126"/>
</svg>
