<svg width="64" height="64" viewBox="0 0 64 64" fill="none" xmlns="http://www.w3.org/2000/svg">
<path fill-rule="evenodd" clip-rule="evenodd" d="M32 4C33.1046 3.99997 34 4.89538 34 5.99996L34.0003 16.1238C41.8928 17.1081 48 23.8409 48 32C48 40.1592 41.8927 46.892 34.0001 47.8762L34.0004 57.9999C34.0004 59.1045 33.105 60 32.0004 60C30.8959 60 30.0004 59.1046 30.0004 58.0001L30.0001 47.8762C22.1074 46.8921 16 40.1593 16 32C16 23.8407 22.1075 17.1078 30.0003 16.1238L30 6.00005C30 4.89548 30.8954 4.00003 32 4ZM32 44C38.6274 44 44 38.6274 44 32C44 25.3726 38.6274 20 32 20C25.3726 20 20 25.3726 20 32C20 38.6274 25.3726 44 32 44Z" fill="#172126"/>
</svg>
