<svg width="100" height="100" viewBox="0 0 100 100" xmlns="http://www.w3.org/2000/svg">
<path d="M6.3291 37.9726C6.3291 35.5819 8.26716 33.6439 10.6579 33.6439H95.0688C97.4596 33.6439 99.3976 35.5819 99.3976 37.9726V71.5206C99.3976 73.9113 97.4595 75.8493 95.0688 75.8493H10.6579C8.26715 75.8493 6.3291 73.9113 6.3291 71.5206V37.9726Z" fill="currentColor"/>
<path fill-rule="evenodd" clip-rule="evenodd" d="M10.6579 33.6439C8.26716 33.6439 6.3291 35.5819 6.3291 37.9726V71.5206C6.3291 73.9113 8.26715 75.8493 10.6579 75.8493H95.0688C97.4595 75.8493 99.3976 73.9113 99.3976 71.5206V37.9726C99.3976 35.5819 97.4596 33.6439 95.0688 33.6439H10.6579Z" fill="currentColor"/>
<path d="M84.0004 17.0001C83.4069 17.0001 82.9348 17.4785 82.9348 18.0604V19.9386H81.0662C80.472 19.9386 80.0001 20.42 80.0001 20.9995C80.0001 21.5794 80.4706 22.0604 81.0662 22.0604H82.9348V23.9386C82.9348 24.5164 83.405 25.0001 84.0004 25.0001C84.5939 25.0001 85.0659 24.5199 85.0659 23.9386V22.0622H86.934C87.5255 22.0622 88.0001 21.5823 88.0001 21C87.9991 20.4206 87.5295 19.9392 86.934 19.9392H85.0659V18.0604C85.0659 17.4798 84.5935 17.0001 84.0004 17.0001Z"/>
<path d="M10.3019 19.7782C9.26307 19.7782 8.42094 20.6204 8.42094 21.6592C8.42094 22.698 9.26307 23.5401 10.3019 23.5401H68.3795C69.4184 23.5401 70.2605 22.698 70.2605 21.6592C70.2605 20.6204 69.4184 19.7782 68.3795 19.7782H10.3019Z"/>
<path d="M10.3021 37.3333C9.26332 37.3333 8.42119 38.1755 8.42119 39.2143C8.42119 40.2531 9.26332 41.0952 10.3021 41.0952H68.3798C69.4186 41.0952 70.2607 40.2531 70.2607 39.2143C70.2607 38.1755 69.4186 37.3333 68.3798 37.3333H10.3021Z"/>
<path d="M9.67516 49.8731C8.98261 49.8731 8.42119 50.4346 8.42119 51.1271C8.42119 51.8197 8.98261 52.3811 9.67516 52.3811H87.5586C88.2512 52.3811 88.8126 51.8197 88.8126 51.1271C88.8126 50.4346 88.2512 49.8731 87.5586 49.8731H9.67516Z"/>
<path d="M9.67516 56.143C8.98261 56.143 8.42119 56.7045 8.42119 57.397C8.42119 58.0896 8.98261 58.651 9.67516 58.651H87.5586C88.2512 58.651 88.8126 58.0896 88.8126 57.397C88.8126 56.7045 88.2512 56.143 87.5586 56.143H9.67516Z"/>
<path d="M9.67516 62.4129C8.98261 62.4129 8.42119 62.9744 8.42119 63.6669C8.42119 64.3595 8.98261 64.9209 9.67515 64.9209H49.2181C49.9107 64.9209 50.4721 64.3595 50.4721 63.6669C50.4721 62.9744 49.9107 62.4129 49.2181 62.4129H9.67516Z"/>
<path d="M80.0001 38.9993C80.0001 38.4534 80.472 38.0001 81.0662 38.0001L86.934 38.0006C87.5295 38.0006 87.9991 38.4541 88.0001 38.9998C88.0001 39.5481 87.5255 40.0001 86.934 40.0001H84.6526L83.3481 39.9985H81.0662C80.4706 39.9985 80.0001 39.5454 80.0001 38.9993Z"/>
<path d="M8.42094 80.6592C8.42094 79.6204 9.26307 78.7782 10.3019 78.7782H68.3795C69.4184 78.7782 70.2605 79.6204 70.2605 80.6592C70.2605 81.698 69.4184 82.5401 68.3795 82.5401H10.3019C9.26307 82.5401 8.42094 81.698 8.42094 80.6592Z"/>
<path d="M84.0004 76.0001C83.4069 76.0001 82.9348 76.4785 82.9348 77.0604V78.9386H81.0662C80.472 78.9386 80.0001 79.42 80.0001 79.9995C80.0001 80.5794 80.4706 81.0604 81.0662 81.0604H82.9348V82.9386C82.9348 83.5164 83.405 84.0001 84.0004 84.0001C84.5939 84.0001 85.0659 83.5199 85.0659 82.9386V81.0622H86.934C87.5255 81.0622 88.0001 80.5823 88.0001 80C87.9991 79.4206 87.5295 78.9392 86.934 78.9392H85.0659V77.0604C85.0659 76.4798 84.5935 76.0001 84.0004 76.0001Z"/>
<path fill-rule="evenodd" clip-rule="evenodd" d="M1.60541 29.8098C0.914907 28.9746 0.5 27.9032 0.5 26.7349V15.3289C0.5 12.6621 2.66191 10.5002 5.32877 10.5002H91.9041C94.571 10.5002 96.7329 12.6621 96.7329 15.3289V26.7349C96.7329 27.903 96.3181 28.9743 95.6277 29.8095C96.3182 30.6446 96.7331 31.716 96.7331 32.8843V68.1157C96.7331 69.2989 96.3076 70.3827 95.6011 71.2225C96.3074 72.0621 96.7329 73.1458 96.7329 74.3289V85.7349C96.7329 88.4017 94.571 90.5636 91.9041 90.5636H5.32876C2.66191 90.5636 0.5 88.4017 0.5 85.7349V74.3289C0.5 73.1457 0.925571 72.0619 1.632 71.2222C0.925716 70.3825 0.500244 69.2988 0.500244 68.1157V32.8843C0.500244 31.7162 0.915054 30.6449 1.60541 29.8098ZM5.32877 14.0081H91.9041C92.6336 14.0081 93.225 14.5994 93.225 15.3289V26.7349C93.225 27.4586 92.6428 28.0464 91.9212 28.0556L91.9044 28.0556H5.32901L5.31176 28.0556C4.59013 28.0465 4.00794 27.4587 4.00794 26.7349V15.3289C4.00794 14.5994 4.5993 14.0081 5.32877 14.0081ZM5.3119 31.5636C4.59031 31.5728 4.00818 32.1606 4.00818 32.8843V68.1157C4.00818 68.8452 4.59954 69.4365 5.32901 69.4365H91.9044C92.6338 69.4365 93.2252 68.8452 93.2252 68.1157V32.8843C93.2252 32.1605 92.643 31.5727 91.9213 31.5636L91.9041 31.5636H5.32876L5.3119 31.5636ZM91.9041 73.0081H5.32877C4.5993 73.0081 4.00794 73.5994 4.00794 74.3289V85.7349C4.00794 86.4644 4.59929 87.0557 5.32876 87.0557H91.9041C92.6336 87.0557 93.225 86.4644 93.225 85.7349V74.3289C93.225 73.5994 92.6336 73.0081 91.9041 73.0081Z"/>
</svg>
