<svg width="100" height="100" viewBox="0 0 100 100" xmlns="http://www.w3.org/2000/svg">
<path d="M64.7571 67.7983H35.7468C36.7375 68.5684 37.3746 69.7608 37.3746 71.0968V90.7011H30.2619V75.2977C30.2619 74.5233 29.6261 73.8974 28.8394 73.8974H16.321V92.6927C16.321 93.7926 17.2127 94.6843 18.3126 94.6843H82.0422C83.1421 94.6843 84.0337 93.7926 84.0337 92.6927V73.8974H71.8948C71.0819 73.8974 70.4248 74.5233 70.4248 75.2977V90.7011H63.075V71.0968C63.075 69.7608 63.7333 68.5684 64.7571 67.7983Z" fill="currentColor"/>
<path d="M87.5676 43.9026C90.2542 41.8558 92 38.6316 92 35C92 28.8246 86.9754 23.8 80.8 23.8C74.6246 23.8 69.6 28.8246 69.6 35C69.6 38.346 71.0826 41.3462 73.4164 43.4H65.9796L56.5898 34.0102C56.0424 33.4628 55.1576 33.4628 54.6102 34.0102L49.0102 39.6102C48.4628 40.1576 48.4628 41.0424 49.0102 41.5898L61.6102 54.1898C61.872 54.453 62.2276 54.6 62.6 54.6H73.8V64.4H66.8H49.8152L56.7648 53.977L54.4352 52.4244L46.451 64.4H43V57.4C43 56.6259 42.3742 56 41.6 56H30.4V50.4C30.4 47.4488 28.5576 44.9302 25.9676 43.9026C28.6542 41.8558 30.4 38.6316 30.4 35C30.4 28.8246 25.3754 23.8 19.2 23.8C13.0246 23.8 8 28.8246 8 35C8 38.6316 9.7458 41.8558 12.4324 43.9026C9.8424 44.9302 8 47.4488 8 50.4V70C8 73.8598 11.1402 77 15 77V93.8H17.8V77H27.6V92.4C27.6 93.1742 28.2258 93.8 29 93.8H38.8C39.5742 93.8 40.2 93.1742 40.2 92.4V71.4C40.2 69.825 39.6778 68.3704 38.7972 67.2H40.2H41.6H48.6V91H43V93.8H57V91H51.4V67.2H61.2364C60.3474 68.3732 59.8 69.818 59.8 71.4V92.4C59.8 93.1742 60.4258 93.8 61.2 93.8H71C71.7742 93.8 72.4 93.1742 72.4 92.4V77H82.2V93.8H85V77C88.8598 77 92 73.8598 92 70V50.4C92 47.4488 90.1576 44.9302 87.5676 43.9026ZM10.8 35C10.8 30.3674 14.5674 26.6 19.2 26.6C23.8326 26.6 27.6 30.3674 27.6 35C27.6 39.6326 23.8326 43.4 19.2 43.4C14.5674 43.4 10.8 39.6326 10.8 35ZM40.2 64.4H22V53.2H19.2V65.8C19.2 66.5742 19.8258 67.2 20.6 67.2H33.2C35.5156 67.2 37.4 69.0844 37.4 71.4V91H30.4V75.6C30.4 74.8258 29.7742 74.2 29 74.2H15C12.6844 74.2 10.8 72.3156 10.8 70V50.4C10.8 48.0844 12.6844 46.2 15 46.2H23.4C25.7156 46.2 27.6 48.0844 27.6 50.4V57.4C27.6 58.1742 28.2258 58.8 29 58.8H40.2V64.4ZM72.4 35C72.4 30.3674 76.1674 26.6 80.8 26.6C85.4326 26.6 89.2 30.3674 89.2 35C89.2 39.6326 85.4326 43.4 80.8 43.4C76.1674 43.4 72.4 39.6326 72.4 35ZM89.2 70C89.2 72.3156 87.3156 74.2 85 74.2H71C70.2258 74.2 69.6 74.8258 69.6 75.6V91H62.6V71.4C62.6 69.0844 64.4844 67.2 66.8 67.2H75.2C75.9742 67.2 76.6 66.5742 76.6 65.8V53.2C76.6 52.4258 75.9742 51.8 75.2 51.8H63.1796L51.9796 40.6L55.6 36.9796L64.4102 45.7899C64.672 46.053 65.0276 46.2 65.4 46.2H85C87.3156 46.2 89.2 48.0844 89.2 50.4V70Z"/>
<path d="M21.6076 16.0036H13.0133C12.2219 16.0036 11.5786 15.3601 11.5786 14.5682C11.5786 13.7763 12.2219 13.1328 13.0133 13.1328H21.6076C22.3991 13.1328 23.0423 13.7763 23.0423 14.5682C23.0423 15.3601 22.3991 16.0036 21.6076 16.0036Z" fill="currentColor"/>
<path d="M17.3095 20.3016C16.5181 20.3016 15.8748 19.658 15.8748 18.8661V10.2675C15.8748 9.4756 16.5181 8.83203 17.3095 8.83203C18.101 8.83203 18.7443 9.4756 18.7443 10.2675V18.8661C18.7443 19.658 18.101 20.3016 17.3095 20.3016Z" fill="currentColor"/>
<path d="M70.0929 24.2642C70.0929 25.0753 69.4035 25.7337 68.554 25.7337H51.6258C51.2165 25.7337 50.8256 25.888 50.5378 26.1642L42.3923 33.942V27.2031C42.3923 26.3905 41.7044 25.7337 40.8533 25.7337H37.7755C36.926 25.7337 36.2366 25.0753 36.2366 24.2642V12.5086C36.2366 11.6975 36.926 11.0392 37.7755 11.0392H68.554C69.4035 11.0392 70.0929 11.6975 70.0929 12.5086V24.2642Z" fill="currentColor"/>
<path d="M64.2954 5.37891H34.8217C32.3842 5.37891 30.4006 7.36248 30.4006 9.79996V21.5894C30.4006 24.0269 32.3842 26.0105 34.8217 26.0105H36.2954V34.8526C36.2954 35.448 36.6535 35.9873 37.2046 36.2143C37.3874 36.2909 37.5789 36.3263 37.7691 36.3263C38.1522 36.3263 38.5295 36.176 38.811 35.8945L48.6949 26.0105H64.2954C66.7328 26.0105 68.7164 24.0269 68.7164 21.5894V9.79996C68.7164 7.36248 66.7328 5.37891 64.2954 5.37891ZM65.7691 21.5894C65.7691 22.4029 65.1088 23.0631 64.2954 23.0631H48.0848C47.6928 23.0631 47.3185 23.2179 47.0429 23.4949L39.2427 31.2951V24.5368C39.2427 23.7219 38.584 23.0631 37.7691 23.0631H34.8217C34.0082 23.0631 33.348 22.4029 33.348 21.5894V9.79996C33.348 8.98648 34.0082 8.32627 34.8217 8.32627H64.2954C65.1088 8.32627 65.7691 8.98648 65.7691 9.79996V21.5894Z"/>
<path d="M45.137 11.2737H36.2949V14.2211H45.137V11.2737Z"/>
<path d="M62.8212 17.1685H36.2949V20.1158H62.8212V17.1685Z"/>
<path d="M62.8211 11.2737H48.0842V14.2211H62.8211V11.2737Z"/>
</svg>
