<svg width="100" height="100" viewBox="0 0 100 100" xmlns="http://www.w3.org/2000/svg">
<rect x="16.3213" y="67.7983" width="67.7127" height="26.8859" rx="1.99155" fill="currentColor"/>
<path d="M21.727 64.0953H40.2199V58.494H28.8396C28.053 58.494 27.4171 57.8681 27.4171 57.0937V50.0922C27.4171 47.7761 25.5024 45.8913 23.1495 45.8913H14.6143C12.2614 45.8913 10.3467 47.7761 10.3467 50.0922V69.6965C10.3467 72.0126 12.2614 73.8974 14.6143 73.8974H28.8396C29.6263 73.8974 30.2622 74.5233 30.2622 75.2977V90.7011H37.3748V71.0968C37.3748 68.7807 35.4601 66.8959 33.1072 66.8959H20.3044C19.5178 66.8959 18.8819 66.2699 18.8819 65.4956V52.8928H21.727V64.0953Z" fill="white"/>
<path d="M79.2448 64.0953H60.1354V58.494H71.895C72.7079 58.494 73.365 57.8681 73.365 57.0937V50.0922C73.365 47.7761 75.3435 45.8913 77.7748 45.8913H86.5945C89.0258 45.8913 91.0044 47.7761 91.0044 50.0922V69.6965C91.0044 72.0126 89.0258 73.8974 86.5945 73.8974H71.895C71.0821 73.8974 70.4251 74.5233 70.4251 75.2977V90.7011H63.0753V71.0968C63.0753 68.7807 65.0538 66.8959 67.4851 66.8959H80.7147C81.5276 66.8959 82.1847 66.2699 82.1847 65.4956V52.8928H79.2448V64.0953Z" fill="white"/>
<path d="M87.5676 43.9026C90.2542 41.8558 92 38.6316 92 35C92 28.8246 86.9754 23.8 80.8 23.8C74.6246 23.8 69.6 28.8246 69.6 35C69.6 38.346 71.0826 41.3462 73.4164 43.4H65.9796L56.5898 34.0102C56.0424 33.4628 55.1576 33.4628 54.6102 34.0102L49.0102 39.6102C48.4628 40.1576 48.4628 41.0424 49.0102 41.5898L61.6102 54.1898C61.872 54.453 62.2276 54.6 62.6 54.6H73.8V64.4H66.8H49.8152L56.7648 53.977L54.4352 52.4244L46.451 64.4H43V57.4C43 56.6258 42.3742 56 41.6 56H30.4V50.4C30.4 47.4488 28.5576 44.9302 25.9676 43.9026C28.6542 41.8558 30.4 38.6316 30.4 35C30.4 28.8246 25.3754 23.8 19.2 23.8C13.0246 23.8 8 28.8246 8 35C8 38.6316 9.7458 41.8558 12.4324 43.9026C9.8424 44.9302 8 47.4488 8 50.4V70C8 73.8598 11.1402 77 15 77V93.8H17.8V77H27.6V92.4C27.6 93.1742 28.2258 93.8 29 93.8H38.8C39.5742 93.8 40.2 93.1742 40.2 92.4V71.4C40.2 69.825 39.6778 68.3704 38.7972 67.2H40.2H41.6H48.6V91H43V93.8H57V91H51.4V67.2H61.2364C60.3474 68.3732 59.8 69.818 59.8 71.4V92.4C59.8 93.1742 60.4258 93.8 61.2 93.8H71C71.7742 93.8 72.4 93.1742 72.4 92.4V77H82.2V93.8H85V77C88.8598 77 92 73.8598 92 70V50.4C92 47.4488 90.1576 44.9302 87.5676 43.9026ZM10.8 35C10.8 30.3674 14.5674 26.6 19.2 26.6C23.8326 26.6 27.6 30.3674 27.6 35C27.6 39.6326 23.8326 43.4 19.2 43.4C14.5674 43.4 10.8 39.6326 10.8 35ZM40.2 64.4H22V53.2H19.2V65.8C19.2 66.5742 19.8258 67.2 20.6 67.2H33.2C35.5156 67.2 37.4 69.0844 37.4 71.4V91H30.4V75.6C30.4 74.8258 29.7742 74.2 29 74.2H15C12.6844 74.2 10.8 72.3156 10.8 70V50.4C10.8 48.0844 12.6844 46.2 15 46.2H23.4C25.7156 46.2 27.6 48.0844 27.6 50.4V57.4C27.6 58.1742 28.2258 58.8 29 58.8H40.2V64.4ZM72.4 35C72.4 30.3674 76.1674 26.6 80.8 26.6C85.4326 26.6 89.2 30.3674 89.2 35C89.2 39.6326 85.4326 43.4 80.8 43.4C76.1674 43.4 72.4 39.6326 72.4 35ZM89.2 70C89.2 72.3156 87.3156 74.2 85 74.2H71C70.2258 74.2 69.6 74.8258 69.6 75.6V91H62.6V71.4C62.6 69.0844 64.4844 67.2 66.8 67.2H75.2C75.9742 67.2 76.6 66.5742 76.6 65.8V53.2C76.6 52.4258 75.9742 51.8 75.2 51.8H63.1796L51.9796 40.6L55.6 36.9796L64.4102 45.7898C64.672 46.053 65.0276 46.2 65.4 46.2H85C87.3156 46.2 89.2 48.0844 89.2 50.4V70Z"/>
<path d="M70.0932 24.2642C70.0932 25.0753 69.4037 25.7336 68.5542 25.7336H51.6261C51.2167 25.7336 50.8258 25.8879 50.538 26.1642L42.3925 33.942V27.2031C42.3925 26.3905 41.7046 25.7336 40.8536 25.7336H37.7757C36.9263 25.7336 36.2368 25.0753 36.2368 24.2642V12.5086C36.2368 11.6975 36.9263 11.0391 37.7757 11.0391H68.5542C69.4037 11.0391 70.0932 11.6975 70.0932 12.5086V24.2642Z" fill="currentColor"/>
<path d="M64.2951 5.37895H34.8214C32.384 5.37895 30.4004 7.36253 30.4004 9.8V21.5895C30.4004 24.027 32.384 26.0105 34.8214 26.0105H36.2951V34.8526C36.2951 35.448 36.6532 35.9874 37.2044 36.2143C37.3871 36.2909 37.5787 36.3263 37.7688 36.3263C38.152 36.3263 38.5292 36.176 38.8107 35.8945L48.6947 26.0105H64.2951C66.7326 26.0105 68.7162 24.027 68.7162 21.5895V9.8C68.7162 7.36253 66.7326 5.37895 64.2951 5.37895ZM65.7688 21.5895C65.7688 22.403 65.1086 23.0632 64.2951 23.0632H48.0846C47.6926 23.0632 47.3183 23.2179 47.0427 23.495L39.2425 31.2952V24.5368C39.2425 23.7219 38.5838 23.0632 37.7688 23.0632H34.8214C34.008 23.0632 33.3478 22.403 33.3478 21.5895V9.8C33.3478 8.98653 34.008 8.32632 34.8214 8.32632H64.2951C65.1086 8.32632 65.7688 8.98653 65.7688 9.8V21.5895Z"/>
<path d="M21.6076 16.0036H13.0133C12.2219 16.0036 11.5786 15.36 11.5786 14.5682C11.5786 13.7763 12.2219 13.1327 13.0133 13.1327H21.6076C22.3991 13.1327 23.0423 13.7763 23.0423 14.5682C23.0423 15.36 22.3991 16.0036 21.6076 16.0036Z" fill="currentColor"/>
<path d="M17.3097 20.3016C16.5182 20.3016 15.875 19.658 15.875 18.8661V10.2674C15.875 9.47557 16.5182 8.832 17.3097 8.832C18.1012 8.832 18.7444 9.47557 18.7444 10.2674V18.8661C18.7444 19.658 18.1012 20.3016 17.3097 20.3016Z" fill="currentColor"/>
<path d="M45.137 11.2736H36.2949V14.221H45.137V11.2736Z"/>
<path d="M62.8212 17.1684H36.2949V20.1158H62.8212V17.1684Z"/>
<path d="M62.8213 11.2736H48.0845V14.221H62.8213V11.2736Z"/>
</svg>
