<svg width="100" height="100" viewBox="0 0 100 100" xmlns="http://www.w3.org/2000/svg">
<path fill-rule="evenodd" clip-rule="evenodd" d="M11.9249 80.9887L64.8057 80.9887C65.8488 80.9887 66.6943 81.8342 66.6943 82.8773C66.6943 83.9203 65.8488 84.7659 64.8057 84.7659L11.9249 84.7659C8.1004 84.7659 5.00003 81.6655 5.00003 77.841L5.00003 60.2141C5.00003 59.171 5.84559 58.3255 6.88863 58.3255L63.5466 58.3255C64.5897 58.3255 65.4352 59.171 65.4352 60.2141C65.4352 61.2571 64.5897 62.1027 63.5466 62.1027L8.77723 62.1027L8.77723 77.841C8.77723 79.5794 10.1865 80.9887 11.9249 80.9887Z"/>
<path fill-rule="evenodd" clip-rule="evenodd" d="M61.6582 71.5457C61.6582 72.5888 60.8126 73.4343 59.7696 73.4343H35.8473C34.8043 73.4343 33.9587 72.5888 33.9587 71.5457C33.9587 70.5027 34.8043 69.6571 35.8473 69.6571H59.7696C60.8126 69.6571 61.6582 70.5027 61.6582 71.5457Z"/>
<path fill-rule="evenodd" clip-rule="evenodd" d="M8.77741 58.3258L62.2878 58.3258C63.3308 58.3258 64.1764 59.1714 64.1764 60.2144C64.1764 61.2575 63.3308 62.103 62.2878 62.103L6.8888 62.103C6.38792 62.103 5.90754 61.904 5.55336 61.5499C5.19918 61.1957 5.0002 60.7153 5.0002 60.2144L5.0002 37.5512C5.0002 36.5082 5.84576 35.6626 6.8888 35.6626L77.3966 35.6626C78.4396 35.6626 79.2852 36.5082 79.2852 37.5512L79.2852 54.5486C79.2852 55.5917 78.4396 56.4372 77.3966 56.4372C76.3535 56.4372 75.508 55.5917 75.508 54.5486L75.508 39.4398L8.77741 39.4398L8.77741 58.3258Z"/>
<path fill-rule="evenodd" clip-rule="evenodd" d="M67.3238 50.7712L35.8471 50.7712C34.8041 50.7712 33.9585 49.9257 33.9585 48.8826C33.9585 47.8396 34.8041 46.994 35.8471 46.994L67.3238 46.994C68.3668 46.994 69.2124 47.8396 69.2124 48.8826C69.2124 49.9257 68.3668 50.7712 67.3238 50.7712Z"/>
<ellipse cx="26.404" cy="46.9948" rx="5.6658" ry="5.6658" transform="rotate(-180 26.404 46.9948)" fill="currentColor"/>
<ellipse cx="26.404" cy="69.6577" rx="5.6658" ry="5.6658" transform="rotate(-180 26.404 69.6577)" fill="currentColor"/>
<ellipse cx="26.404" cy="24.331" rx="5.6658" ry="5.6658" transform="rotate(-180 26.404 24.331)" fill="currentColor"/>
<path fill-rule="evenodd" clip-rule="evenodd" d="M79.2849 37.5518C79.2849 38.5949 78.4394 39.4404 77.3963 39.4404L6.88856 39.4404C5.84551 39.4404 4.99995 38.5949 4.99995 37.5518L4.99996 19.9249C4.99996 16.1004 8.10033 13 11.9248 13L72.36 13C76.1845 13 79.2849 16.1004 79.2849 19.9249L79.2849 37.5518ZM75.5077 35.6632L75.5077 19.9249C75.5077 18.1865 74.0985 16.7772 72.36 16.7772L11.9248 16.7772C10.1864 16.7772 8.77716 18.1865 8.77716 19.9249L8.77716 35.6632L75.5077 35.6632Z"/>
<path fill-rule="evenodd" clip-rule="evenodd" d="M22.6268 29.3678C24.0175 29.3678 25.1449 28.2404 25.1449 26.8497C25.1449 25.459 24.0175 24.3316 22.6268 24.3316C21.2361 24.3315 20.1087 25.459 20.1087 26.8497C20.1087 28.2404 21.2361 29.3678 22.6268 29.3678ZM28.9221 26.8497C28.9221 30.3265 26.1036 33.145 22.6268 33.145C19.15 33.145 16.3314 30.3265 16.3314 26.8497C16.3314 23.3729 19.15 20.5543 22.6268 20.5543C26.1036 20.5543 28.9221 23.3729 28.9221 26.8497Z"/>
<path fill-rule="evenodd" clip-rule="evenodd" d="M67.3236 28.1086L35.8469 28.1086C34.8038 28.1086 33.9583 27.2631 33.9583 26.22C33.9583 25.177 34.8038 24.3314 35.8469 24.3314L67.3236 24.3314C68.3666 24.3314 69.2122 25.177 69.2122 26.22C69.2122 27.2631 68.3666 28.1086 67.3236 28.1086Z"/>
<path fill-rule="evenodd" clip-rule="evenodd" d="M22.627 52.0304C24.0178 52.0304 25.1452 50.903 25.1452 49.5123C25.1452 48.1216 24.0178 46.9941 22.627 46.9941C21.2363 46.9941 20.1089 48.1216 20.1089 49.5123C20.1089 50.903 21.2363 52.0304 22.627 52.0304ZM28.9224 49.5123C28.9224 52.9891 26.1038 55.8076 22.627 55.8076C19.1502 55.8076 16.3317 52.9891 16.3317 49.5123C16.3317 46.0355 19.1502 43.2169 22.627 43.2169C26.1038 43.2169 28.9224 46.0355 28.9224 49.5123Z"/>
<path fill-rule="evenodd" clip-rule="evenodd" d="M22.627 74.6935C24.0178 74.6935 25.1452 73.5661 25.1452 72.1754C25.1452 70.7846 24.0178 69.6572 22.627 69.6572C21.2363 69.6572 20.1089 70.7846 20.1089 72.1754C20.1089 73.5661 21.2363 74.6935 22.627 74.6935ZM28.9224 72.1754C28.9224 75.6522 26.1038 78.4707 22.627 78.4707C19.1502 78.4707 16.3317 75.6522 16.3317 72.1754C16.3317 68.6985 19.1502 65.88 22.627 65.88C26.1038 65.88 28.9224 68.6986 28.9224 72.1754Z"/>
<circle cx="80.8331" cy="75.0453" r="12.4091" fill="currentColor"/>
<path fill-rule="evenodd" clip-rule="evenodd" d="M83.5697 66.7633C84.2062 67.3679 84.2111 68.3528 83.5807 68.9632L76.3507 75.9632C76.0461 76.2581 75.6312 76.4241 75.1983 76.4241C74.7654 76.4241 74.3504 76.2581 74.0458 75.9632L70.7321 72.7549C70.1016 72.1445 70.1066 71.1596 70.7431 70.555C71.3795 69.9504 72.4066 69.9552 73.037 70.5655L75.1983 72.658L81.2757 66.7739C81.9062 66.1635 82.9332 66.1588 83.5697 66.7633Z"/>
<path fill-rule="evenodd" clip-rule="evenodd" d="M89.2727 49.4094C89.2727 50.0872 89.8221 50.6367 90.4999 50.6367C91.1777 50.6367 91.7272 50.0872 91.7272 49.4094V47.3639H93.7727C94.4505 47.3639 95 46.8144 95 46.1366C95 45.4588 94.4505 44.9093 93.7727 44.9093H91.7272V42.864C91.7272 42.1862 91.1777 41.6367 90.4999 41.6367C89.8221 41.6367 89.2727 42.1862 89.2727 42.864L89.2727 44.9093H87.2273C86.5495 44.9093 86 45.4588 86 46.1366C86 46.8144 86.5495 47.3639 87.2273 47.3639H89.2727L89.2727 49.4094Z"/>
<path fill-rule="evenodd" clip-rule="evenodd" d="M77.1564 81.4657C82.7329 81.4657 87.2535 76.945 87.2535 71.3685C87.2535 65.792 82.7329 61.2714 77.1564 61.2714C71.5799 61.2714 67.0592 65.792 67.0592 71.3685C67.0592 76.945 71.5799 81.4657 77.1564 81.4657ZM77.1564 84.6968C84.5174 84.6968 90.4846 78.7295 90.4846 71.3685C90.4846 64.0075 84.5174 58.0403 77.1564 58.0403C69.7954 58.0403 63.8281 64.0075 63.8281 71.3685C63.8281 78.7295 69.7954 84.6968 77.1564 84.6968Z"/>
</svg>
