<svg width="100" height="100" viewBox="0 0 100 100" xmlns="http://www.w3.org/2000/svg">
<path d="M84.4981 20.3697C83.4125 20.3697 82.5303 19.487 82.5303 18.4009V14.4748H78.6061C77.5206 14.4748 76.6383 13.5921 76.6383 12.5059C76.6383 11.4198 77.5206 10.5371 78.6061 10.5371H82.5303V6.60713C82.5303 5.52102 83.4125 4.63831 84.4981 4.63831C85.5836 4.63831 86.4659 5.52102 86.4659 6.60713V10.5371H90.3939C91.4794 10.5371 92.3617 11.4198 92.3617 12.5059C92.3617 13.5921 91.4794 14.4748 90.3939 14.4748H86.4659V18.4009C86.4659 19.487 85.5836 20.3697 84.4981 20.3697Z" fill="currentColor"/>
<path d="M28 57C23.5817 57 20 60.5817 20 65V90C20 94.4183 23.5817 98 28 98H29C33.4183 98 37 94.4183 37 90V65C37 60.5817 33.4183 57 29 57H28Z" fill="currentColor"/>
<path d="M80 57C84.4183 57 88 60.5817 88 65V90C88 94.4183 84.4183 98 80 98H79C74.5817 98 71 94.4183 71 90V65C71 60.5817 74.5817 57 79 57H80Z" fill="currentColor"/>
<path fill-rule="evenodd" clip-rule="evenodd" d="M84.4981 24.008L84.462 24.0079C89.1466 30.6907 91.9065 38.7847 91.9065 47.4991V57.4978H85.9169V48.9533C85.9169 29.2362 69.9472 11.9896 50.0632 11.9896C30.1792 11.9896 14.2095 29.2362 14.2095 48.9533V57.4979H8.21991V47.4991C8.21991 24.5915 26.9846 6 49.9157 6C58.4054 6 66.3606 8.54681 73.0147 12.915C73.005 12.7799 73 12.6435 73 12.5059C73 11.1639 73.4722 9.93108 74.2597 8.96526C67.167 4.55168 58.8052 2 49.9157 2C24.799 2 4.21991 22.3589 4.21991 47.4991V58.8381C2.86548 59.9382 2 61.617 2 63.4979V84.4973C2 87.811 4.68629 90.4973 8 90.4973H14.8268C16.2365 94.3114 19.9055 97.0306 24.2095 97.0306H25.1258C30.6487 97.0306 35.1258 92.5534 35.1258 87.0306V61.9481C35.1258 56.4253 30.6487 51.9481 25.1258 51.9481H24.2095C21.9583 51.9481 19.8809 52.692 18.2095 53.9474V48.9533C18.2095 31.2765 32.5535 15.9896 50.0632 15.9896C67.573 15.9896 81.9169 31.2765 81.9169 48.9533V53.8318C80.2733 52.6465 78.2552 51.9481 76.0739 51.9481H75.1576C69.6348 51.9481 65.1576 56.4253 65.1576 61.9481V87.0306C65.1576 92.5534 69.6348 97.0306 75.1576 97.0306H76.0739C80.378 97.0306 84.047 94.3114 85.4567 90.4973H92C95.3137 90.4973 98 87.811 98 84.4973V63.4979C98 61.6762 97.1882 60.0441 95.9065 58.9437V47.4991C95.9065 38.2706 93.0953 29.6902 88.2964 22.5241C87.2976 23.4451 85.9636 24.008 84.4981 24.008ZM81.9169 88.4C81.2974 91.0539 78.9165 93.0306 76.0739 93.0306H75.1576C71.8439 93.0306 69.1576 90.3443 69.1576 87.0306V61.9481C69.1576 58.6344 71.8439 55.9481 75.1576 55.9481H76.0739C78.9165 55.9481 81.2973 57.9248 81.9169 60.5786L81.9169 88.4ZM14.0831 61.5821V86.4973H8C6.89543 86.4973 6 85.6019 6 84.4973V63.4979C6 62.5936 6.60011 61.8296 7.42378 61.5821H14.0831ZM92 61.4979H86.064C86.0706 61.6471 86.0739 61.7972 86.0739 61.9481V86.4973H92C93.1046 86.4973 94 85.6019 94 84.4973V63.4979C94 62.3933 93.1046 61.4979 92 61.4979ZM24.2095 55.9481C20.8958 55.9481 18.2095 58.6344 18.2095 61.9481V87.0306C18.2095 90.3443 20.8958 93.0306 24.2095 93.0306H25.1258C28.4396 93.0306 31.1258 90.3443 31.1258 87.0306V61.9481C31.1258 58.6344 28.4396 55.9481 25.1258 55.9481H24.2095Z"/>
</svg>
