<svg width="99" height="100" viewBox="0 0 99 100" xmlns="http://www.w3.org/2000/svg">
<path d="M26.7579 41.286C31.7857 41.286 35.8615 37.2102 35.8615 32.1824C35.8615 27.1546 31.7857 23.0787 26.7579 23.0787C21.7301 23.0787 17.6543 27.1546 17.6543 32.1824C17.6543 37.2102 21.7301 41.286 26.7579 41.286Z" fill="currentColor"/>
<path d="M36.8736 51.5248C36.5147 51.5241 36.1703 51.6662 35.9163 51.9198C35.6623 52.1733 35.5195 52.5175 35.5195 52.8764V80.381H77.8035V69.732H61.9067V51.5248H36.8736Z" fill="currentColor"/>
<path d="M74.3002 78.1939H32.0163C31.3032 78.1939 30.7251 77.6158 30.7251 76.9027V50.2135C30.7251 48.2674 32.3027 46.6898 34.2488 46.6898H61.907C62.6201 46.6898 63.1981 47.2679 63.1981 47.981C63.1981 48.6941 62.6201 49.2722 61.907 49.2722H34.2437C33.7276 49.2735 33.31 49.6923 33.31 50.2084V75.6291H73.009V69.732C73.009 69.0189 73.5871 68.4409 74.3002 68.4409C75.0133 68.4409 75.5914 69.0189 75.5914 69.732V76.8926C75.594 77.2368 75.4592 77.5678 75.2168 77.8121C74.9743 78.0565 74.6444 78.1939 74.3002 78.1939Z"/>
<path fill-rule="evenodd" clip-rule="evenodd" d="M30.6542 91.5459H75.664H75.6665C76.7955 91.5424 77.8544 90.9981 78.5143 90.0821C79.1743 89.1661 79.3554 87.9894 79.0014 86.9174L75.5281 76.4949C75.3517 75.9676 74.8583 75.612 74.3023 75.6115H32.0184C31.4624 75.612 30.969 75.9676 30.7927 76.4949L27.3194 86.9174C26.9653 87.9894 27.1464 89.1661 27.8064 90.0821C28.4664 90.9981 29.5253 91.5424 30.6542 91.5459ZM29.7681 87.7353L32.9494 78.1938L73.3683 78.2038L76.5497 87.7454C76.6443 88.0301 76.5964 88.3429 76.4209 88.5862C76.2454 88.8294 75.9637 88.9736 75.6637 88.9737H30.654C30.3516 88.9747 30.0673 88.8292 29.8914 88.5832C29.7154 88.3372 29.6694 88.0213 29.7681 87.7353Z"/>
<path d="M56.4973 87.0961H49.82C49.1069 87.0961 48.5288 86.5181 48.5288 85.805C48.5288 85.0919 49.1069 84.5138 49.82 84.5138H56.4973C57.2104 84.5138 57.7885 85.0919 57.7885 85.805C57.7885 86.5181 57.2104 87.0961 56.4973 87.0961V87.0961Z"/>
<path fill-rule="evenodd" clip-rule="evenodd" d="M61.9064 71.0232H86.7558C87.4689 71.0232 88.0469 70.4451 88.0469 69.732V39.6425C88.0469 38.9294 87.4689 38.3513 86.7558 38.3513H61.9064C61.5638 38.3507 61.235 38.4865 60.9927 38.7288C60.7504 38.971 60.6146 39.2998 60.6152 39.6425V69.732C60.6152 70.4451 61.1933 71.0232 61.9064 71.0232ZM85.4596 68.4409H63.1977V40.9337H85.4596V68.4409Z"/>
<path d="M68.2316 49.7277C67.9131 49.7275 67.6057 49.6102 67.3683 49.3979L65.8254 48.0086C65.2951 47.5318 65.2517 46.7154 65.7285 46.1851C66.2053 45.6548 67.0217 45.6114 67.552 46.0882L68.2592 46.725L71.4028 44.0571C71.7546 43.7567 72.2402 43.6675 72.6758 43.8231C73.1114 43.9788 73.4304 44.3556 73.5121 44.8109C73.5939 45.2661 73.4258 45.7304 73.0716 46.0278L69.0596 49.4231C68.8279 49.6187 68.5348 49.7265 68.2316 49.7277V49.7277Z"/>
<path d="M82.1195 48.3409H75.1779C74.4648 48.3409 73.8867 47.7628 73.8867 47.0497C73.8867 46.3366 74.4648 45.7585 75.1779 45.7585H82.122C82.8351 45.7585 83.4132 46.3366 83.4132 47.0497C83.4132 47.7628 82.8351 48.3409 82.122 48.3409H82.1195Z"/>
<path d="M68.2318 57.598C67.9147 57.5949 67.61 57.4748 67.3761 57.2607L65.8332 55.8739C65.3029 55.3972 65.2595 54.5807 65.7363 54.0504C66.2131 53.5201 67.0295 53.4768 67.5598 53.9535L68.2671 54.5878L71.4031 51.9274C71.7549 51.6271 72.2405 51.5378 72.676 51.6935C73.1116 51.8492 73.4307 52.2259 73.5124 52.6812C73.5941 53.1365 73.4261 53.6007 73.0718 53.8982L69.0599 57.2935C68.8282 57.4891 68.535 57.5969 68.2318 57.598V57.598Z"/>
<path d="M82.1195 56.2087H75.1779C74.4648 56.2087 73.8867 55.6306 73.8867 54.9175C73.8867 54.2044 74.4648 53.6263 75.1779 53.6263H82.122C82.8351 53.6263 83.4132 54.2044 83.4132 54.9175C83.4132 55.6306 82.8351 56.2087 82.122 56.2087H82.1195Z"/>
<path d="M68.2313 65.4684C67.9123 65.4685 67.6046 65.3501 67.368 65.1361L65.8252 63.7468C65.4624 63.4438 65.2943 62.9667 65.3868 62.5032C65.4794 62.0397 65.8178 61.6638 66.2691 61.5232C66.7204 61.3827 67.2124 61.4999 67.5518 61.8289L68.259 62.4632L71.4026 59.7978C71.7544 59.4974 72.24 59.4082 72.6755 59.5639C73.1111 59.7195 73.4302 60.0963 73.5119 60.5516C73.5936 61.0069 73.4256 61.4711 73.0713 61.7685L69.0669 65.1638C68.8333 65.3611 68.5371 65.469 68.2313 65.4684V65.4684Z"/>
<path d="M82.1195 64.079H75.1779C74.4648 64.079 73.8867 63.501 73.8867 62.7879C73.8867 62.0748 74.4648 61.4967 75.1779 61.4967H82.122C82.8351 61.4967 83.4132 62.0748 83.4132 62.7879C83.4132 63.501 82.8351 64.079 82.122 64.079H82.1195Z"/>
<path d="M32.0183 59.9135H7.6774C6.96431 59.9135 6.38623 59.3355 6.38623 58.6224V49.9189C6.39178 44.4695 10.8081 40.0532 16.2575 40.0477H30.1256C34.7234 40.0332 38.7151 43.2122 39.7301 47.6965C39.8907 48.3915 39.4574 49.0851 38.7624 49.2457C38.0673 49.4062 37.3738 48.9729 37.2132 48.2779C36.463 44.9689 33.5186 42.6226 30.1256 42.63H16.2827C12.2515 42.63 8.98367 45.8979 8.98367 49.929V57.3413H32.0334C32.7465 57.3413 33.3246 57.9194 33.3246 58.6324C33.3246 59.3455 32.7465 59.9236 32.0334 59.9236L32.0183 59.9135Z"/>
<path fill-rule="evenodd" clip-rule="evenodd" d="M13.6545 32.6639C15.2645 36.5494 19.0567 39.0822 23.2624 39.0812C29.0005 39.0743 33.6503 34.4244 33.6572 28.6864C33.6583 24.4806 31.1254 20.6884 27.24 19.0785C23.3545 17.4685 18.8818 18.3579 15.9079 21.3319C12.934 24.3058 12.0446 28.7785 13.6545 32.6639ZM15.46 28.6696C15.4623 24.3621 18.9549 20.8714 23.2624 20.8714C27.5718 20.8825 31.0606 24.3769 31.0648 28.6864C31.0578 32.9939 27.5615 36.4808 23.254 36.4762C18.9465 36.4716 15.4577 32.9771 15.46 28.6696Z"/>
<path d="M53.0948 49.2645C52.6039 49.2611 52.1576 48.979 51.9438 48.537C51.7301 48.0951 51.786 47.5701 52.088 47.183L53.5529 45.2954C54.1142 44.6173 54.2619 43.6875 53.9383 42.8689C53.6147 42.0503 52.8712 41.4728 51.998 41.3618C51.1248 41.2508 50.2604 41.6239 49.7423 42.3355L44.7488 48.7662C44.4824 49.1709 44.0119 49.3926 43.5303 49.3401C43.0486 49.2876 42.6369 48.9699 42.464 48.5173C42.291 48.0647 42.3861 47.5534 42.7101 47.1931L47.7036 40.7624C48.7979 39.3529 50.5611 38.6343 52.3289 38.8773C54.0967 39.1203 55.6006 40.2879 56.2741 41.9404C56.9476 43.5928 56.6884 45.4791 55.5941 46.8886L54.1267 48.7762C53.8778 49.0911 53.4961 49.2717 53.0948 49.2645V49.2645Z"/>
<path d="M28.5753 42.63C27.8623 42.63 27.2842 42.0519 27.2842 41.3388V36.0785C27.2842 35.3654 27.8623 34.7874 28.5753 34.7874C29.2884 34.7874 29.8665 35.3654 29.8665 36.0785V41.3388C29.8665 42.0519 29.2884 42.63 28.5753 42.63V42.63Z"/>
<path d="M92.4668 53.2765H86.756C86.0429 53.2765 85.4648 52.6985 85.4648 51.9854C85.4648 51.2723 86.0429 50.6942 86.756 50.6942H91.1807V14.3904H29.7205V21.1861C29.7205 21.8992 29.1424 22.4772 28.4294 22.4772C27.7163 22.4772 27.1382 21.8992 27.1382 21.1861V13.0993C27.1382 12.3862 27.7163 11.8081 28.4294 11.8081H92.4668C93.1799 11.8081 93.758 12.3862 93.758 13.0993V51.9753C93.7607 52.3195 93.6258 52.6505 93.3834 52.8948C93.141 53.1391 92.811 53.2766 92.4668 53.2765V53.2765Z"/>
<path d="M52.2741 41.4596C52.2143 41.4591 52.1546 41.4549 52.0954 41.447C51.3893 41.3483 50.8969 40.6959 50.9955 39.9898L52.9108 26.2575C52.9681 25.795 53.2703 25.3992 53.7014 25.2221C54.1325 25.0449 54.6256 25.1138 54.9916 25.4024C55.3576 25.691 55.5397 26.1544 55.468 26.6149L53.5577 40.3472C53.4673 40.9863 52.9196 41.461 52.2741 41.4596V41.4596Z"/>
<path d="M14.1584 59.9135C13.4453 59.9135 12.8672 59.3355 12.8672 58.6224V51.0968C12.8672 50.3837 13.4453 49.8057 14.1584 49.8057C14.8715 49.8057 15.4495 50.3837 15.4495 51.0968V58.6224C15.4495 58.9648 15.3135 59.2932 15.0714 59.5354C14.8292 59.7775 14.5008 59.9135 14.1584 59.9135V59.9135Z"/>
<path d="M21.8425 78.1938H14.1584C13.8142 78.1938 13.4843 78.0564 13.2418 77.8121C12.9994 77.5678 12.8645 77.2367 12.8672 76.8926V69.2185C12.8672 68.5054 13.4453 67.9274 14.1584 67.9274C14.8715 67.9274 15.4496 68.5054 15.4496 69.2185V75.6115H21.8425C22.5556 75.6115 23.1337 76.1895 23.1337 76.9026C23.1337 77.6157 22.5556 78.1938 21.8425 78.1938Z"/>
<path d="M15.8548 70.3109H12.4595C12.0142 70.3114 11.6001 70.0818 11.3645 69.7039C11.1289 69.3259 11.1052 68.853 11.3018 68.4534L13.0107 64.9851C13.2286 64.5433 13.6784 64.2635 14.171 64.2635C14.6636 64.2635 15.1135 64.5433 15.3313 64.9851L17.0277 68.4534C17.223 68.8535 17.1983 69.3261 16.9624 69.7037C16.7265 70.0814 16.3127 70.3108 15.8674 70.3109H15.8548Z"/>
<path d="M22.0036 79.8927C21.2911 79.8913 20.7138 79.3141 20.7124 78.6015V75.2062C20.713 74.7601 20.9434 74.3457 21.322 74.1098C21.7007 73.8739 22.1742 73.8498 22.5749 74.0459L26.0407 75.7449C26.4844 75.9605 26.7661 76.4105 26.7661 76.9039C26.7661 77.3972 26.4844 77.8473 26.0407 78.0629L22.5749 79.7618C22.3965 79.8473 22.2014 79.892 22.0036 79.8927V79.8927Z"/>
<path d="M17.969 14.3904H10.3478C9.63472 14.3904 9.05664 13.8124 9.05664 13.0993C9.05664 12.3862 9.63472 11.8081 10.3478 11.8081H17.969C18.6821 11.8081 19.2602 12.3862 19.2602 13.0993C19.2602 13.8124 18.6821 14.3904 17.969 14.3904V14.3904Z" fill="currentColor"/>
<path d="M14.1584 18.201C13.4453 18.201 12.8672 17.6229 12.8672 16.9098V9.29117C12.8672 8.57808 13.4453 8 14.1584 8C14.8715 8 15.4495 8.57808 15.4495 9.29117V16.9098C15.4495 17.2523 15.3135 17.5807 15.0714 17.8228C14.8292 18.065 14.5008 18.201 14.1584 18.201V18.201Z" fill="currentColor"/>
<path d="M92.3583 81.6747H80.8561C80.143 81.6747 79.5649 81.0967 79.5649 80.3836C79.5649 79.6705 80.143 79.0924 80.8561 79.0924H92.3583C93.0714 79.0924 93.6495 79.6705 93.6495 80.3836C93.6495 81.0967 93.0714 81.6747 92.3583 81.6747V81.6747Z"/>
<path d="M86.6071 87.4233C85.894 87.4233 85.3159 86.8452 85.3159 86.1321V74.6274C85.3159 73.9143 85.894 73.3362 86.6071 73.3362C87.3202 73.3362 87.8983 73.9143 87.8983 74.6274V86.1321C87.8983 86.8452 87.3202 87.4233 86.6071 87.4233V87.4233Z"/>
</svg>
