<svg width="100" height="100" viewBox="0 0 100 100" xmlns="http://www.w3.org/2000/svg">
<path d="M84.5451 32.3192H19.7856V48.5084H84.5451V32.3192Z" fill="currentColor"/>
<path d="M98.4819 52.1021H95.5217V49.142C95.5217 48.7392 95.3617 48.353 95.0769 48.0682C94.7921 47.7834 94.4059 47.6234 94.0031 47.6234C93.6004 47.6234 93.2141 47.7834 92.9294 48.0682C92.6446 48.353 92.4846 48.7392 92.4846 49.142V52.1021H89.5244C89.1217 52.1021 88.7354 52.2621 88.4506 52.5469C88.1658 52.8317 88.0059 53.2179 88.0059 53.6207C88.0059 54.0234 88.1658 54.4097 88.4506 54.6945C88.7354 54.9793 89.1217 55.1393 89.5244 55.1393H92.4846V58.0994C92.4846 58.5022 92.6446 58.8884 92.9294 59.1732C93.2141 59.458 93.6004 59.618 94.0031 59.618C94.4059 59.618 94.7921 59.458 95.0769 59.1732C95.3617 58.8884 95.5217 58.5022 95.5217 58.0994V55.1393H98.4819C98.8846 55.1393 99.2709 54.9793 99.5556 54.6945C99.8404 54.4097 100 54.0234 100 53.6207C100 53.2179 99.8404 52.8317 99.5556 52.5469C99.2709 52.2621 98.8846 52.1021 98.4819 52.1021Z" fill="currentColor"/>
<path d="M81.3249 57.1196V30.8186C81.3233 29.5577 80.8215 28.3489 79.9297 27.4576C79.0378 26.5664 77.8288 26.0653 76.5679 26.0645H68.3742V21.1063C68.3742 20.9069 68.3349 20.7094 68.2586 20.5251C68.1823 20.3409 68.0704 20.1735 67.9294 20.0325C67.7884 19.8915 67.621 19.7796 67.4367 19.7033C67.2525 19.627 67.055 19.5877 66.8556 19.5877C66.6562 19.5877 66.4587 19.627 66.2745 19.7033C66.0902 19.7796 65.9228 19.8915 65.7818 20.0325C65.6408 20.1735 65.529 20.3409 65.4526 20.5251C65.3763 20.7094 65.3371 20.9069 65.3371 21.1063V26.0645H29.5191V21.1063C29.5191 20.7035 29.3591 20.3173 29.0743 20.0325C28.7895 19.7477 28.4033 19.5877 28.0005 19.5877C27.5978 19.5877 27.2115 19.7477 26.9268 20.0325C26.642 20.3173 26.482 20.7035 26.482 21.1063V26.0645H18.2853C17.0244 26.0653 15.8154 26.5664 14.9235 27.4576C14.0317 28.3489 13.5299 29.5577 13.5283 30.8186V79.3889C13.5299 80.65 14.0316 81.8591 14.9233 82.7508C15.8151 83.6426 17.0242 84.1443 18.2853 84.1459H59.6506C61.3219 86.1819 63.4265 87.8194 65.811 88.9387C68.1955 90.0581 70.7997 90.6312 73.4339 90.6162C76.068 90.6012 78.6655 89.9985 81.0371 88.8521C83.4088 87.7057 85.4946 86.0444 87.1426 83.9895C88.7906 81.9345 89.9593 79.5377 90.5633 76.9737C91.1673 74.4097 91.1915 71.7433 90.634 69.1688C90.0766 66.5943 88.9517 64.1766 87.3412 62.0921C85.7307 60.0076 83.6753 58.3088 81.3249 57.1196ZM18.2735 29.1017H26.4672V30.8186C26.4672 31.2213 26.6272 31.6076 26.912 31.8923C27.1967 32.1771 27.583 32.3371 27.9857 32.3371C28.3885 32.3371 28.7747 32.1771 29.0595 31.8923C29.3443 31.6076 29.5043 31.2213 29.5043 30.8186V29.1017H65.3223V30.8186C65.3223 31.2213 65.4822 31.6076 65.767 31.8923C66.0518 32.1771 66.4381 32.3371 66.8408 32.3371C67.2436 32.3371 67.6298 32.1771 67.9146 31.8923C68.1994 31.6076 68.3594 31.2213 68.3594 30.8186V29.1017H76.5531C77.0087 29.1017 77.4457 29.2825 77.7682 29.6044C78.0906 29.9262 78.2722 30.3629 78.273 30.8186V42.2537H16.5654V30.8186C16.5662 30.3629 16.7478 29.9262 17.0702 29.6044C17.3927 29.2825 17.8297 29.1017 18.2853 29.1017H18.2735ZM18.2735 81.1087C17.8176 81.108 17.3806 80.9265 17.0582 80.6041C16.7358 80.2818 16.5544 79.8448 16.5536 79.3889V45.2908H78.2878V55.9178C76.6775 55.4445 75.0078 55.2043 73.3295 55.2044C73.2318 55.2044 73.1371 55.2044 73.0335 55.2044V50.0833C73.0335 49.7426 72.8981 49.4158 72.6572 49.1749C72.4163 48.9339 72.0895 48.7986 71.7488 48.7986H61.9506C61.6099 48.7986 61.2831 48.9339 61.0422 49.1749C60.8013 49.4158 60.6659 49.7426 60.6659 50.0833V59.8814C60.6664 60.0677 60.7078 60.2517 60.7873 60.4202C58.1257 63.0825 56.3844 66.5257 55.8172 70.2473C55.2501 73.969 55.8869 77.7745 57.6347 81.1087H18.2735ZM63.2294 58.3717V51.368H70.4581V55.4412C67.8638 55.8666 65.3977 56.868 63.2413 58.3717H63.2294ZM73.3176 87.5856C70.4155 87.5856 67.5785 86.725 65.1655 85.1126C62.7524 83.5003 60.8717 81.2086 59.7611 78.5274C58.6505 75.8461 58.3599 72.8958 58.9261 70.0494C59.4923 67.203 60.8898 64.5884 62.9419 62.5363C64.994 60.4842 67.6086 59.0867 70.455 58.5205C73.3014 57.9543 76.2517 58.2449 78.933 59.3555C81.6142 60.4661 83.9059 62.3468 85.5182 64.7599C87.1306 67.1729 87.9912 70.0099 87.9912 72.9121C87.9865 76.8002 86.4406 80.528 83.6924 83.2784C80.9442 86.0289 77.2177 87.5777 73.3295 87.5856H73.3176Z"/>
<path d="M74.8477 72.2845V63.1997C74.8477 62.797 74.6877 62.4107 74.4029 62.126C74.1181 61.8412 73.7319 61.6812 73.3291 61.6812C72.9264 61.6812 72.5401 61.8412 72.2553 62.126C71.9705 62.4107 71.8105 62.797 71.8105 63.1997V72.912C71.8112 73.0116 71.8221 73.1108 71.8431 73.208C71.8532 73.2522 71.8661 73.2957 71.8816 73.3383C71.8947 73.3904 71.9105 73.4418 71.929 73.4922C71.9517 73.5421 71.9774 73.5905 72.0059 73.6373C72.0237 73.6773 72.0445 73.7159 72.0681 73.7527C72.1238 73.8355 72.1872 73.9128 72.2575 73.9836L78.7314 80.4604C79.0164 80.7454 79.4029 80.9055 79.8059 80.9055C80.209 80.9055 80.5955 80.7454 80.8805 80.4604C81.1655 80.1755 81.3256 79.7889 81.3256 79.3859C81.3256 78.9829 81.1655 78.5963 80.8805 78.3114L74.8477 72.2845Z"/>
<path d="M15.0465 19.5995C15.4492 19.5995 15.8355 19.4395 16.1203 19.1547C16.4051 18.8699 16.5651 18.4837 16.5651 18.0809C16.5651 17.6782 16.4051 17.2919 16.1203 17.0071C15.8355 16.7224 15.4492 16.5624 15.0465 16.5624H9.80109V11.317C9.80109 10.9142 9.6411 10.528 9.35632 10.2432C9.07153 9.95839 8.68528 9.7984 8.28253 9.7984C7.87978 9.7984 7.49353 9.95839 7.20875 10.2432C6.92396 10.528 6.76397 10.9142 6.76397 11.317V16.5624H1.51856C1.11582 16.5624 0.729562 16.7224 0.444776 17.0071C0.15999 17.2919 0 17.6782 0 18.0809C0 18.4837 0.15999 18.8699 0.444776 19.1547C0.729562 19.4395 1.11582 19.5995 1.51856 19.5995H6.76397V24.8449C6.76397 25.2476 6.92396 25.6339 7.20875 25.9187C7.49353 26.2035 7.87978 26.3635 8.28253 26.3635C8.68528 26.3635 9.07153 26.2035 9.35632 25.9187C9.6411 25.6339 9.80109 25.2476 9.80109 24.8449V19.5995H15.0465Z"/>
<path d="M32.8963 48.7986H23.0982C22.7575 48.7986 22.4307 48.9339 22.1898 49.1749C21.9488 49.4158 21.8135 49.7426 21.8135 50.0833V59.8814C21.8143 60.2219 21.9499 60.5482 22.1906 60.789C22.4314 61.0298 22.7577 61.1654 23.0982 61.1661H32.8963C33.2373 61.1661 33.5644 61.0309 33.8058 60.79C34.0472 60.5492 34.1832 60.2224 34.184 59.8814V50.0833C34.184 49.9143 34.1507 49.747 34.0859 49.591C34.0212 49.4349 33.9263 49.2932 33.8067 49.1738C33.687 49.0545 33.5451 48.9599 33.3889 48.8955C33.2327 48.8311 33.0653 48.7982 32.8963 48.7986ZM31.6116 58.5967H24.3859V51.368H31.6116V58.5967Z"/>
<path d="M52.327 48.7986H42.5289C42.3599 48.7982 42.1925 48.8311 42.0363 48.8955C41.8801 48.9599 41.7381 49.0545 41.6185 49.1738C41.4989 49.2932 41.404 49.4349 41.3393 49.591C41.2745 49.747 41.2412 49.9143 41.2412 50.0833V59.8814C41.242 60.2224 41.378 60.5492 41.6194 60.79C41.8608 61.0309 42.1879 61.1661 42.5289 61.1661H52.327C52.6675 61.1654 52.9938 61.0298 53.2346 60.789C53.4753 60.5482 53.6109 60.2219 53.6117 59.8814V50.0833C53.6117 49.7426 53.4764 49.4158 53.2354 49.1749C52.9945 48.9339 52.6677 48.7986 52.327 48.7986ZM51.0423 58.5967H43.8136V51.368H51.0423V58.5967Z"/>
<path d="M32.8963 65.0675H23.0982C22.7577 65.0683 22.4314 65.2039 22.1906 65.4446C21.9499 65.6854 21.8143 66.0117 21.8135 66.3522V76.1503C21.8135 76.4911 21.9488 76.8178 22.1898 77.0588C22.4307 77.2997 22.7575 77.435 23.0982 77.435H32.8963C33.0653 77.4354 33.2327 77.4025 33.3889 77.3381C33.5451 77.2737 33.687 77.1791 33.8067 77.0598C33.9263 76.9405 34.0212 76.7987 34.0859 76.6427C34.1507 76.4866 34.184 76.3193 34.184 76.1503V66.3522C34.1832 66.0112 34.0472 65.6844 33.8058 65.4436C33.5644 65.2027 33.2373 65.0675 32.8963 65.0675ZM31.6116 74.8656H24.3859V67.6369H31.6116V74.8656Z"/>
<path d="M52.327 65.0675H42.5289C42.1879 65.0675 41.8608 65.2027 41.6194 65.4436C41.378 65.6844 41.242 66.0112 41.2412 66.3522V76.1503C41.2412 76.3193 41.2745 76.4866 41.3393 76.6427C41.404 76.7987 41.4989 76.9405 41.6185 77.0598C41.7381 77.1791 41.8801 77.2737 42.0363 77.3381C42.1925 77.4025 42.3599 77.4354 42.5289 77.435H52.327C52.6677 77.435 52.9945 77.2997 53.2354 77.0588C53.4764 76.8178 53.6117 76.4911 53.6117 76.1503V66.3522C53.6109 66.0117 53.4753 65.6854 53.2346 65.4446C52.9938 65.2039 52.6675 65.0683 52.327 65.0675ZM51.0423 74.8656H43.8136V67.6369H51.0423V74.8656Z"/>
</svg>
