<svg width="100" height="100" viewBox="0 0 100 100" xmlns="http://www.w3.org/2000/svg">
<path d="M11.2319 39.7963C10.1389 37.087 11.4492 34.0047 14.1585 32.9118L43.5919 21.0382C46.3012 19.9453 49.3835 21.2556 50.4764 23.9649L67.2973 65.6622C68.3903 68.3715 67.08 71.4537 64.3707 72.5467L34.9373 84.4203C32.228 85.5132 29.1457 84.2029 28.0528 81.4936L11.2319 39.7963Z" fill="currentColor"/>
<path fill-rule="evenodd" clip-rule="evenodd" d="M37.7383 20.8039L6.89734 33.2453C6.10723 33.5641 5.72511 34.463 6.04384 35.2531L23.6692 78.9444C23.9879 79.7345 24.8868 80.1167 25.6769 79.7979L56.5178 67.3565C57.308 67.0378 57.6901 66.1389 57.3713 65.3488L39.746 21.6574C39.4273 20.8673 38.5284 20.4852 37.7383 20.8039ZM5.4009 29.5358C2.56207 30.681 1.18911 33.9107 2.33431 36.7495L19.9596 80.4409C21.1048 83.2797 24.3345 84.6527 27.1733 83.5075L58.0143 71.0661C60.8531 69.9209 62.2261 66.6912 61.0809 63.8523L43.4556 20.161C42.3104 17.3222 39.0807 15.9492 36.2418 17.0944L5.4009 29.5358Z"/>
<path d="M30.9266 17.1375C30.9407 14.0765 33.4336 11.6064 36.4947 11.6205L69.7502 11.7737C72.8113 11.7878 75.2814 14.2807 75.2673 17.3418L75.0503 64.4537C75.0362 67.5148 72.5433 69.9849 69.4822 69.9708L36.2267 69.8176C33.1656 69.8035 30.6956 67.3106 30.7096 64.2495L30.9266 17.1375Z" fill="white"/>
<path d="M38.0098 23.3249C38.0233 20.4035 40.4024 18.0462 43.3238 18.0596L75.0616 18.2058C77.983 18.2193 80.3403 20.5984 80.3268 23.5198L80.1198 68.4816C80.1063 71.403 77.7272 73.7603 74.8058 73.7469L43.068 73.6007C40.1466 73.5873 37.7893 71.2081 37.8027 68.2867L38.0098 23.3249Z" fill="currentColor"/>
<path fill-rule="evenodd" clip-rule="evenodd" d="M69.7318 15.7736L36.4763 15.6205C35.6243 15.6165 34.9305 16.304 34.9266 17.156L34.7096 64.2679C34.7057 65.1199 35.3932 65.8137 36.2451 65.8177L69.5006 65.9708C70.3526 65.9747 71.0464 65.2873 71.0504 64.4353L71.2673 17.3233C71.2713 16.4714 70.5838 15.7775 69.7318 15.7736ZM36.4947 11.6205C33.4336 11.6064 30.9407 14.0765 30.9266 17.1375L30.7096 64.2495C30.6956 67.3106 33.1656 69.8035 36.2267 69.8176L69.4822 69.9708C72.5433 69.9849 75.0362 67.5148 75.0503 64.4537L75.2673 17.3418C75.2814 14.2807 72.8113 11.7878 69.7502 11.7737L36.4947 11.6205Z"/>
<path d="M49.441 28.7696C50.0102 25.7619 52.9099 23.7851 55.9177 24.3543L88.5935 30.5382C91.6012 31.1074 93.578 34.0071 93.0088 37.0149L84.2482 83.3056C83.679 86.3134 80.7793 88.2902 77.7716 87.7209L45.0957 81.537C42.088 80.9678 40.1112 78.0681 40.6804 75.0604L49.441 28.7696Z" fill="white"/>
<path fill-rule="evenodd" clip-rule="evenodd" d="M87.8497 34.4685L55.1738 28.2845C54.3367 28.1261 53.5297 28.6763 53.3713 29.5134L44.6106 75.8042C44.4522 76.6413 45.0024 77.4483 45.8395 77.6067L78.5154 83.7907C79.3525 83.9491 80.1595 83.3989 80.318 82.5618L89.0786 36.2711C89.237 35.4339 88.6868 34.6269 87.8497 34.4685ZM55.9177 24.3543C52.9099 23.7851 50.0102 25.7619 49.441 28.7696L40.6804 75.0604C40.1112 78.0681 42.088 80.9678 45.0957 81.537L77.7716 87.7209C80.7793 88.2902 83.679 86.3134 84.2482 83.3056L93.0088 37.0149C93.578 34.0071 91.6012 31.1074 88.5935 30.5382L55.9177 24.3543Z"/>
</svg>
