<svg width="100" height="100" viewBox="0 0 100 100"  xmlns="http://www.w3.org/2000/svg">
<path d="M55.2851 36.1395C55.8283 33.2691 58.5956 31.3825 61.4661 31.9257L92.6507 37.8275C95.5211 38.3707 97.4077 41.1381 96.8645 44.0085L88.5037 88.1866C87.9604 91.0571 85.1931 92.9437 82.3226 92.4004L51.1381 86.4987C48.2676 85.9555 46.381 83.1881 46.9243 80.3177L55.2851 36.1395Z" fill="currentColor"/>
<path fill-rule="evenodd" clip-rule="evenodd" d="M75.2182 28.0068L75.2674 17.3417C75.2815 14.2806 72.8114 11.7877 69.7503 11.7736L36.4948 11.6204C33.4337 11.6063 30.9408 14.0764 30.9267 17.1375L30.917 19.2425L5.40121 29.5357C2.56238 30.6809 1.18942 33.9106 2.33462 36.7495L19.9599 80.4408C21.1051 83.2796 24.3348 84.6526 27.1737 83.5074L40.9103 77.9659C41.5537 79.7508 43.0974 81.1587 45.0965 81.537L77.7724 87.721C80.7801 88.2902 83.6798 86.3134 84.249 83.3057L93.0096 37.0149C93.5788 34.0072 91.602 31.1075 88.5943 30.5383L75.2182 28.0068ZM69.7319 15.7735L36.4764 15.6204C35.6244 15.6165 34.9306 16.3039 34.9266 17.1559L34.9248 17.5517L34.9219 17.5547L34.8008 44.0898L34.8026 44.0898L34.7097 64.2679C34.7057 65.1198 35.3932 65.8137 36.2452 65.8176L42.425 65.846L47.262 40.2879L47.261 40.2855L48.6374 33.0054L48.6393 33.0101L49.4418 28.7696C50.011 25.7619 52.9107 23.7851 55.9185 24.3543L71.2217 27.2505L71.2674 17.3233C71.2713 16.4713 70.5838 15.7775 69.7319 15.7735ZM55.1746 28.2846L57.9623 28.8121C58.0164 28.8203 58.0705 28.8295 58.1247 28.8397L84.9016 33.9073C84.9558 33.9175 85.0095 33.9288 85.0628 33.9409L87.8505 34.4685C88.6876 34.6269 89.2378 35.434 89.0794 36.2711L80.3188 82.5619C80.1603 83.399 79.3533 83.9492 78.5162 83.7907L75.7277 83.263C75.6739 83.2549 75.62 83.2458 75.5661 83.2356L48.7892 78.168C48.6882 78.1489 48.5808 78.129 48.4689 78.1083C48.1691 78.0528 47.8357 77.9911 47.4997 77.9208L45.8403 77.6068C45.3368 77.5115 44.9371 77.1816 44.733 76.7516C44.6985 76.6955 44.6729 76.6293 44.655 76.5531C44.6459 76.5241 44.6377 76.4949 44.6302 76.4653L44.638 76.4622C44.5745 76.0236 44.7133 75.3157 44.8968 74.3799C44.9982 73.8624 45.1133 73.2753 45.2155 72.6255L45.3609 71.8574L45.3582 71.8584L45.7361 69.8613L45.7386 69.8613L46.495 65.8648L46.4925 65.8648L50.033 47.1569L50.0347 47.1611L51.412 39.8833L51.4103 39.8792L53.3721 29.5134C53.5305 28.6763 54.3375 28.1261 55.1746 28.2846ZM41.6687 69.8426L36.2268 69.8175C33.1657 69.8034 30.6956 67.3105 30.7097 64.2494L30.8971 23.5638L6.89766 33.2453C6.10754 33.564 5.72542 34.4629 6.04415 35.253L23.6695 78.9443C23.9882 79.7345 24.8871 80.1166 25.6772 79.7979L40.9507 73.6364L41.6687 69.8426Z"/>
</svg>
