<svg width="100" height="100" viewBox="0 0 100 100" xmlns="http://www.w3.org/2000/svg">
<rect x="72.105" y="12.5312" width="19.8947" height="13.2751" rx="1.8" fill="currentColor"/>
<path fill-rule="evenodd" clip-rule="evenodd" d="M20.8651 84.6213C18.0713 79.1257 16.3398 75.2663 16.3398 73.0081C16.3398 68.1334 20.3024 64.1674 25.1729 64.1674C30.0432 64.1674 34.0056 68.1334 34.0056 73.0081C34.0056 75.2679 32.2743 79.1269 29.4807 84.6212C29.4807 84.6212 28.4816 86.5951 28.4316 86.7001C28.0285 87.5461 27.2782 89.1207 25.1727 89.1207C23.0672 89.1207 22.3168 87.5463 21.9136 86.7003C21.864 86.5953 20.8651 84.6213 20.8651 84.6213Z" fill="currentColor"/>
<path fill-rule="evenodd" clip-rule="evenodd" d="M87.3937 21.4214V8.76565C87.3937 7.79042 86.604 7 85.6297 7H67.961C66.9866 7 66.1969 7.79042 66.1969 8.76565C66.1969 8.77821 66.1971 8.79057 66.1973 8.80312V21.384C66.1969 21.3963 66.1969 21.4089 66.1969 21.4214C66.1969 21.434 66.1971 21.4464 66.1973 21.4589V31.3254H64.8004C63.826 31.3254 63.0363 32.1158 63.0363 33.091C63.0363 34.0662 63.826 34.8567 64.8004 34.8567H71.1226C72.0969 34.8567 72.8867 34.0662 72.8867 33.091C72.8867 32.1158 72.0969 31.3254 71.1226 31.3254H69.7254V23.1871H85.6297C86.604 23.1871 87.3937 22.3967 87.3937 21.4214ZM54.105 36.9875C54.105 34.4652 55.7131 32.2271 58.1059 31.4178C59.0289 31.1061 60.0301 31.6015 60.3418 32.5255C60.6536 33.4493 60.1581 34.4512 59.2351 34.7634C58.277 35.0873 57.6332 35.9813 57.6332 36.9875C57.6332 38.2807 58.6843 39.3329 59.9764 39.3329H75.9484C77.2405 39.3329 78.2917 38.2807 78.2917 36.9875C78.2917 35.9813 77.6482 35.0874 76.6901 34.7635C75.7671 34.4514 75.2716 33.4495 75.5835 32.5257C75.8953 31.6019 76.8967 31.1059 77.8193 31.418C80.2122 32.2273 81.8198 34.4655 81.8198 36.9875C81.8198 40.2278 79.1859 42.8642 75.9484 42.8642H59.9764C56.739 42.8642 54.105 40.228 54.105 36.9875ZM21.6466 66.8177C20.6722 66.8177 19.8825 67.6081 19.8825 68.5833C19.8825 69.5585 20.6722 70.349 21.6466 70.349H22.0674C23.0417 70.349 23.8314 69.5585 23.8314 68.5833C23.8314 67.6081 23.0417 66.8177 22.0674 66.8177H21.6466ZM31.7139 83.054C30.7907 82.7411 29.7899 83.2379 29.4781 84.1617C29.1662 85.0855 29.6617 86.0872 30.5847 86.3993C31.5428 86.7232 32.1865 87.6169 32.1865 88.6231C32.1865 89.9165 31.1355 90.9687 29.8434 90.9687H13.8712C12.5791 90.9687 11.5279 89.9165 11.5279 88.6231C11.5279 87.6171 12.1718 86.7232 13.1301 86.3991C14.0531 86.087 14.5486 85.0851 14.2367 84.1613C13.9249 83.2375 12.9241 82.7421 12.0009 83.0536C9.60785 83.8629 8 86.1012 8 88.6231C8 91.8636 10.6339 94.5 13.8714 94.5H29.8436C33.0811 94.5 35.7148 91.8636 35.7148 88.6231C35.7146 86.1012 34.1068 83.8631 31.7139 83.054ZM11.9192 68.5831C11.9192 71.1239 13.8673 75.4662 17.0107 81.6495C17.0107 81.6495 18.1346 83.8705 18.1904 83.9886C18.644 84.9405 19.4884 86.7118 21.8573 86.7118C24.2263 86.7118 25.0705 84.9403 25.524 83.9884C25.5803 83.8703 26.7044 81.6493 26.7044 81.6493C29.8475 75.4676 31.7955 71.1257 31.7955 68.5831C31.7955 63.0984 27.3373 58.6362 21.8575 58.6362C16.3775 58.6362 11.9192 63.0984 11.9192 68.5831ZM15.447 68.5831C15.447 70.7871 18.7449 77.2745 20.154 80.0463L20.1547 80.0477C20.1547 80.0477 21.6542 83.0544 21.7551 83.1744C21.8176 83.2643 21.9127 83.2154 21.9591 83.1746C22.0598 83.0549 22.2255 82.7071 22.3383 82.4702L22.3394 82.468C22.4068 82.3265 23.5599 80.0475 23.5599 80.0475C24.9686 77.2772 28.2672 70.7894 28.2672 68.5829C28.2672 65.0453 25.3918 62.1673 21.8574 62.1673C18.3226 62.1675 15.447 65.0455 15.447 68.5831ZM83.8664 10.5313H69.7262V19.6558H83.8664V10.5313ZM22.4083 48.9845H72.9865C80.9313 48.9845 87.3946 55.4541 87.3946 63.406C87.3946 71.3579 80.9313 77.8274 72.9865 77.8274H37.4183C36.444 77.8274 35.6542 77.037 35.6542 76.0618C35.6542 75.0865 36.444 74.2961 37.4183 74.2961H72.9865C78.9857 74.2961 83.8665 69.4109 83.8665 63.406C83.8665 57.401 78.9857 52.5158 72.9865 52.5158H22.4083C14.4635 52.5158 8 46.0463 8 38.0942C8 30.1423 14.4635 23.6728 22.4083 23.6728H57.9763C58.9507 23.6728 59.7404 24.4632 59.7404 25.4384C59.7404 26.4136 58.9507 27.2041 57.9763 27.2041H22.4083C16.4089 27.2041 11.5281 32.0892 11.5281 38.0942C11.5281 44.0992 16.4089 48.9845 22.4083 48.9845Z"/>
</svg>
