<svg width="100" height="100" viewBox="0 0 100 100" xmlns="http://www.w3.org/2000/svg">
<path d="M56.5292 41.6272C56.4204 40.9936 56.6304 40.3471 57.0905 39.8982L61.1388 35.95L55.5425 35.1383C54.9063 35.0461 54.3563 34.6467 54.0716 34.0703L51.5674 28.9999L49.0663 34.0715C48.7819 34.6478 48.2321 35.0476 47.5959 35.1402L42 35.9549L46.0504 39.901C46.5108 40.3496 46.7211 40.9961 46.6125 41.6297L45.658 47.2036L50.6627 44.5707C51.2317 44.2715 51.9116 44.2713 52.4805 44.5703L57.4866 47.2004L56.5292 41.6272Z" fill="currentColor"/>
<path d="M65.6238 31.4119C65.3939 30.7048 64.7824 30.1898 64.0468 30.083L55.5501 28.8505L51.7483 21.1524C51.419 20.486 50.7403 20.0641 49.9971 20.0641C49.2536 20.0643 48.5744 20.4866 48.2455 21.1534L44.4481 28.8535L35.9519 30.0904C35.2162 30.1974 34.6052 30.713 34.3757 31.4201C34.1462 32.1271 34.338 32.9033 34.8705 33.422L41.0201 39.4133L39.5711 47.8756C39.4455 48.6085 39.7471 49.3489 40.3486 49.7858C40.6889 50.0329 41.0916 50.1585 41.4963 50.1585C41.8072 50.1585 42.1195 50.0842 42.4055 49.9339L50.0037 45.9366L57.6042 49.9298C58.2622 50.2757 59.0597 50.2178 59.661 49.7805C60.2624 49.3434 60.5634 48.6028 60.4376 47.8702L58.9841 39.4086L65.1306 33.4142C65.6624 32.8951 65.8536 32.1189 65.6238 31.4119ZM55.5214 37.3291C55.0612 37.7779 54.8512 38.4244 54.96 39.058L55.9175 44.6313L50.9114 42.0012C50.3424 41.7022 49.6625 41.7024 49.0936 42.0016L44.0889 44.6344L45.0434 39.0605C45.152 38.4269 44.9416 37.7805 44.4813 37.3318L40.4308 33.3857L46.0268 32.5711C46.6629 32.4785 47.2127 32.0787 47.4971 31.5023L49.9983 26.4308L52.5024 31.5011C52.7872 32.0775 53.3372 32.4769 53.9733 32.5691L59.5696 33.3808L55.5214 37.3291Z"/>
<path d="M28.6079 89.2802L32.1274 97.8392L47 71.5C41.5 71.5 33.9626 69.3901 29.5305 65L16 88.5345L25.2442 87.2933L27.5 87L28.6079 89.2802Z" fill="currentColor"/>
<path d="M83.3921 86.2802L79.8726 94.8392L65 68.5C70.5 68.5 78 63.5 80 58.5L96 85.5345L86.7558 84.2933L84.5 84L83.3921 86.2802Z" fill="currentColor"/>
<path d="M93.8946 85.8144L77.7508 57.7341C82.626 51.6485 85.5469 43.9331 85.5469 35.5471C85.5469 15.9464 69.6005 0 49.9998 0C30.3991 0 14.4528 15.9464 14.4528 35.5471C14.4528 43.9331 17.3735 51.6485 22.2489 57.7341L6.10506 85.8144C5.73436 86.4593 5.76209 87.2589 6.17674 87.8767C6.59139 88.4943 7.32167 88.8228 8.0582 88.7238L20.6585 87.0318L25.4933 98.7898C25.7765 99.4783 26.4265 99.9461 27.1694 99.9957C27.2132 99.9986 27.2567 100 27.3001 100C27.9944 100 28.6407 99.6303 28.9911 99.0234L45.2887 70.7953C45.2912 70.791 45.293 70.7866 45.2955 70.7821C46.8354 70.9865 48.4053 71.094 50.0002 71.094C51.5952 71.094 53.1651 70.9865 54.705 70.7821C54.7075 70.7864 54.7092 70.7908 54.7118 70.7953L71.0093 99.0234C71.3597 99.6303 72.0062 100 72.7004 100C72.7437 100 72.7873 99.9986 72.831 99.9957C73.574 99.9461 74.224 99.4783 74.5072 98.7898L79.3422 87.0318L91.9425 88.7238C92.6806 88.8228 93.4093 88.4943 93.8239 87.8767C94.2374 87.2589 94.2653 86.4593 93.8946 85.8144ZM27.5946 93.6293L24.0751 85.0702L27.2335 79.9161C27.7972 78.9964 27.5085 77.7938 26.5888 77.2303C25.669 76.6669 24.4665 76.9553 23.903 77.8751L20.7114 83.0833L11.4672 84.3245L24.9977 60.79C29.4298 65.1801 35.0072 68.415 41.2369 70.0002L27.5946 93.6293ZM49.9996 67.1879C32.5529 67.1879 18.3588 52.9939 18.3588 35.5471C18.3588 18.1003 32.5529 3.90627 49.9996 3.90627C67.4464 3.90627 81.6405 18.1003 81.6405 35.5471C81.6405 52.9939 67.4464 67.1879 49.9996 67.1879ZM79.2881 83.0833L76.0965 77.8751C75.533 76.9553 74.3305 76.6665 73.4107 77.2303C72.491 77.794 72.2023 78.9964 72.766 79.9161L75.9244 85.0702L72.4049 93.6293L58.7626 70.0002C64.9923 68.415 70.5699 65.1801 75.0017 60.79L88.5323 84.3245L79.2881 83.0833Z"/>
<path d="M50 10.1563C45.6414 10.1563 41.3412 11.2798 37.564 13.4055C36.6239 13.9345 36.2907 15.1255 36.8196 16.0655C37.3486 17.0056 38.5396 17.3392 39.4796 16.8099C42.6732 15.0126 46.3111 14.0626 50 14.0626C61.8465 14.0626 71.4845 23.7005 71.4845 35.5471C71.4845 38.7842 70.7831 41.8946 69.3999 44.7917C68.9353 45.7651 69.3476 46.9309 70.321 47.3958C70.5927 47.5255 70.879 47.5868 71.1613 47.5868C71.8902 47.5868 72.59 47.1765 72.9251 46.4747C74.5611 43.0479 75.3908 39.3713 75.3908 35.5471C75.3908 21.5466 64.0007 10.1563 50 10.1563Z"/>
<path d="M68.1742 50.4733C67.4002 49.7222 66.1637 49.7407 65.4125 50.5147L65.3692 50.5593C64.6156 51.331 64.6303 52.5677 65.402 53.3212C65.7819 53.6921 66.2742 53.8769 66.7662 53.8769C67.2739 53.8769 67.7813 53.6802 68.1639 53.2882L68.2155 53.2353C68.9668 52.4612 68.9483 51.2247 68.1742 50.4733Z"/>
<path d="M63.0051 55.1459C62.4846 54.2011 61.2967 53.8572 60.352 54.3779C57.2014 56.114 53.6215 57.0316 49.9994 57.0316C38.1528 57.0316 28.5149 47.3937 28.5149 35.5471C28.5149 32.4438 29.1616 29.4508 30.4368 26.6514C30.884 25.6697 30.4506 24.5115 29.469 24.0642C28.4873 23.6172 27.3291 24.0504 26.8818 25.032C25.3732 28.3434 24.6084 31.8811 24.6084 35.5471C24.6084 49.5476 35.9987 60.9379 49.9992 60.9379C54.2787 60.9379 58.5105 59.8525 62.2371 57.799C63.1819 57.2783 63.5258 56.0906 63.0051 55.1459Z"/>
<path d="M34.1796 18.1444C33.3904 17.4091 32.1544 17.4532 31.4193 18.2423L31.3759 18.289C30.6435 19.0808 30.6913 20.3165 31.4831 21.0489C31.8587 21.3966 32.3343 21.5685 32.8089 21.5685C33.3343 21.5685 33.8581 21.3577 34.2431 20.9417L34.2775 20.9048C35.0126 20.1155 34.9689 18.8796 34.1796 18.1444Z"/>
</svg>
