<svg width="100" height="100" viewBox="0 0 100 100" xmlns="http://www.w3.org/2000/svg">
<path fill-rule="evenodd" clip-rule="evenodd" d="M33.1203 45.7961C33.8066 46.6615 33.6615 47.9195 32.796 48.6058L20.6942 58.2039L32.796 67.802C33.6615 68.4883 33.8066 69.7463 33.1203 70.6117C32.4339 71.4772 31.1759 71.6223 30.3105 70.9359L16.2328 59.7709C15.7544 59.3915 15.4756 58.8144 15.4756 58.2039C15.4756 57.5934 15.7544 57.0163 16.2328 56.6369L30.3105 45.4719C31.1759 44.7855 32.4339 44.9306 33.1203 45.7961Z"/>
<path fill-rule="evenodd" clip-rule="evenodd" d="M64.4523 45.7961C63.7659 46.6615 63.9111 47.9195 64.7765 48.6058L76.8784 58.2039L64.7765 67.802C63.9111 68.4883 63.7659 69.7463 64.4523 70.6117C65.1387 71.4772 66.3966 71.6223 67.2621 70.9359L81.3397 59.7709C81.8181 59.3915 82.097 58.8144 82.097 58.2039C82.097 57.5934 81.8181 57.0163 81.3397 56.6369L67.2621 45.4719C66.3966 44.7855 65.1387 44.9306 64.4523 45.7961Z"/>
<path fill-rule="evenodd" clip-rule="evenodd" d="M55.2722 43.2146C56.2813 43.6639 56.7351 44.8461 56.2858 45.8552L44.2733 72.8357C43.8241 73.8447 42.6418 74.2985 41.6328 73.8493C40.6237 73.4 40.1699 72.2178 40.6191 71.2087L52.6316 44.2282C53.0809 43.2191 54.2631 42.7653 55.2722 43.2146Z"/>
<path d="M100 36.875H6.25V27.25C6.25 23.9363 8.93629 21.25 12.25 21.25H94C97.3137 21.25 100 23.9363 100 27.25V36.875Z" fill="currentColor"/>
<path d="M76.5426 88.9286C75.6101 88.9286 74.8524 88.1705 74.8524 87.2376V83.8653H71.4818C70.5494 83.8653 69.7917 83.1072 69.7917 82.1743C69.7917 81.2414 70.5494 80.4832 71.4818 80.4832H74.8524V77.1077C74.8524 76.1748 75.6101 75.4166 76.5426 75.4166C77.475 75.4166 78.2327 76.1748 78.2327 77.1077V80.4832H81.6066C82.539 80.4832 83.2967 81.2414 83.2967 82.1743C83.2967 83.1072 82.539 83.8653 81.6066 83.8653H78.2327V87.2376C78.2327 88.1705 77.475 88.9286 76.5426 88.9286Z" fill="currentColor"/>
<path d="M10.6796 27.6214C12.2882 27.6214 13.5923 26.3174 13.5923 24.7088C13.5923 23.1002 12.2882 21.7961 10.6796 21.7961C9.07104 21.7961 7.76701 23.1002 7.76701 24.7088C7.76701 26.3174 9.07104 27.6214 10.6796 27.6214Z"/>
<path d="M25.2427 24.7088C25.2427 26.3174 23.9387 27.6214 22.3301 27.6214C20.7215 27.6214 19.4175 26.3174 19.4175 24.7088C19.4175 23.1002 20.7215 21.7961 22.3301 21.7961C23.9387 21.7961 25.2427 23.1002 25.2427 24.7088Z"/>
<path d="M33.9806 27.6214C35.5892 27.6214 36.8932 26.3174 36.8932 24.7088C36.8932 23.1002 35.5892 21.7961 33.9806 21.7961C32.372 21.7961 31.068 23.1002 31.068 24.7088C31.068 26.3174 32.372 27.6214 33.9806 27.6214Z"/>
<path fill-rule="evenodd" clip-rule="evenodd" d="M8 15C3.58172 15 0 18.5817 0 23V75.932C0 80.3503 3.58172 83.932 8 83.932H66.9978C66.784 83.3873 66.6667 82.7944 66.6667 82.1743C66.6667 81.365 66.8666 80.602 67.2198 79.932H8C5.79086 79.932 4 78.1412 4 75.932V34.4175L93.0874 34.4175V75.932C93.0874 78.1412 91.2965 79.932 89.0874 79.932H85.8686C86.2218 80.602 86.4218 81.365 86.4218 82.1743C86.4218 82.7944 86.3044 83.3873 86.0906 83.932H89.0874C93.5057 83.932 97.0874 80.3503 97.0874 75.932V23C97.0874 18.5817 93.5057 15 89.0874 15H8ZM89.0874 19H8C5.79086 19 4 20.7909 4 23V30.4175L93.0874 30.4175V23C93.0874 20.7909 91.2965 19 89.0874 19Z"/>
</svg>
