<svg width="100" height="100" viewBox="0 0 100 100" xmlns="http://www.w3.org/2000/svg">
<path d="M36 24C36 21.7909 37.7909 20 40 20H68.7187C70.9279 20 72.7188 21.7909 72.7188 24V92.4147C72.7188 94.6239 70.9279 96.4147 68.7188 96.4147H40C37.7909 96.4147 36 94.6239 36 92.4147V24Z" fill="currentColor"/>
<path fill-rule="evenodd" clip-rule="evenodd" d="M96 18H80.1824V89.3919L96 89.3919V18ZM80.1824 14C77.9733 14 76.1824 15.7909 76.1824 18V89.3919C76.1824 91.6011 77.9733 93.3919 80.1824 93.3919H96C98.2091 93.3919 100 91.6011 100 89.3919V18C100 15.7909 98.2091 14 96 14H80.1824Z"/>
<path fill-rule="evenodd" clip-rule="evenodd" d="M65.848 18H34.152V89.3919L65.848 89.3919L65.848 18ZM34.152 14C31.9429 14 30.152 15.7909 30.152 18V89.3919C30.152 91.6011 31.9429 93.3919 34.152 93.3919H65.848C68.0571 93.3919 69.848 91.6011 69.848 89.3919V18C69.848 15.7909 68.0571 14 65.848 14H34.152Z"/>
<path fill-rule="evenodd" clip-rule="evenodd" d="M19.8176 18H4V89.3919L19.8176 89.3919L19.8176 18ZM4 14C1.79086 14 0 15.7909 0 18V89.3919C0 91.6011 1.79086 93.3919 4 93.3919H19.8176C22.0267 93.3919 23.8176 91.6011 23.8176 89.3919V18C23.8176 15.7909 22.0267 14 19.8176 14H4Z"/>
<path d="M47.7683 59.6587C47.7683 60.6791 48.5977 61.5085 49.6181 61.5085C50.6386 61.5085 51.4679 60.6791 51.4679 59.6587V55.9699H55.1603C56.1808 55.9699 57.0101 55.1405 57.0101 54.1201C57.0101 53.0996 56.1808 52.2703 55.1603 52.2703H51.4679V48.5779C51.4679 47.5574 50.6386 46.7281 49.6181 46.7281C48.5977 46.7281 47.7683 47.5574 47.7683 48.5779V52.2703H44.0795C43.0591 52.2703 42.2297 53.0996 42.2297 54.1201C42.2297 55.1405 43.0591 55.9699 44.0795 55.9699H47.7683V59.6587Z"/>
</svg>
