<svg width="100" height="100" viewBox="0 0 100 100" xmlns="http://www.w3.org/2000/svg">
<path d="M50.0751 61.3366C54.369 61.3366 57.8498 57.8734 57.8498 53.6012C57.8498 49.3291 54.369 45.8658 50.0751 45.8658C45.7812 45.8658 42.3003 49.3291 42.3003 53.6012C42.3003 57.8734 45.7812 61.3366 50.0751 61.3366Z" fill="currentColor"/>
<path d="M53.7865 28.4469C58.0804 28.4469 61.5613 24.9836 61.5613 20.7115C61.5613 16.4393 58.0804 12.976 53.7865 12.976C49.4926 12.976 46.0117 16.4393 46.0117 20.7115C46.0117 24.9836 49.4926 28.4469 53.7865 28.4469Z" fill="currentColor"/>
<path d="M83.3485 85.7321C87.6424 85.7321 91.1233 82.2688 91.1233 77.9967C91.1233 73.7245 87.6424 70.2612 83.3485 70.2612C79.0546 70.2612 75.5737 73.7245 75.5737 77.9967C75.5737 82.2688 79.0546 85.7321 83.3485 85.7321Z" fill="currentColor"/>
<path d="M24.225 85.7321C28.5189 85.7321 31.9997 82.2688 31.9997 77.9967C31.9997 73.7245 28.5189 70.2612 24.225 70.2612C19.9311 70.2612 16.4502 73.7245 16.4502 77.9967C16.4502 82.2688 19.9311 85.7321 24.225 85.7321Z" fill="currentColor"/>
<path d="M25.0569 39.926H15.9668C15.117 39.926 14.4263 39.2388 14.4263 38.3933C14.4263 37.5477 15.117 36.8605 15.9668 36.8605H25.0569C25.9067 36.8605 26.5974 37.5477 26.5974 38.3933C26.5974 39.2388 25.9098 39.926 25.0569 39.926Z" fill="currentColor"/>
<path d="M20.5132 44.4496C19.6633 44.4496 18.9727 43.7624 18.9727 42.9168V33.8727C18.9727 33.0272 19.6633 32.34 20.5132 32.34C21.363 32.34 22.0537 33.0272 22.0537 33.8727V42.9168C22.0537 43.7624 21.363 44.4496 20.5132 44.4496Z" fill="currentColor"/>
<path d="M86.4986 48.6086H72.7749C71.9251 48.6086 71.2344 47.9214 71.2344 47.0759C71.2344 46.2303 71.9251 45.5431 72.7749 45.5431H86.4986C87.3485 45.5431 88.0392 46.2303 88.0392 47.0759C88.0392 47.9214 87.3485 48.6086 86.4986 48.6086Z"/>
<path d="M79.6367 55.4357C78.7869 55.4357 78.0962 54.7485 78.0962 53.903V40.2487C78.0962 39.4032 78.7869 38.716 79.6367 38.716C80.4866 38.716 81.1773 39.4032 81.1773 40.2487V53.903C81.1773 54.7515 80.4866 55.4357 79.6367 55.4357Z"/>
<path fill-rule="evenodd" clip-rule="evenodd" d="M40.7598 17.0185C40.7598 22.1277 44.9399 26.2867 50.0751 26.2867C55.2102 26.2867 59.3904 22.1277 59.3904 17.0185C59.3904 11.9094 55.2102 7.75037 50.0751 7.75037C44.9399 7.75037 40.7598 11.9094 40.7598 17.0185ZM43.8408 17.0185C43.8408 13.5975 46.6366 10.8159 50.0751 10.8159C53.5135 10.8159 56.3093 13.5975 56.3093 17.0185C56.3093 20.4396 53.5135 23.2212 50.0751 23.2212C46.6366 23.2212 43.8408 20.4396 43.8408 17.0185Z"/>
<path d="M50.0749 40.5266C45.9247 40.5266 41.9307 39.2896 38.5253 36.9502C37.8256 36.4692 37.6484 35.5131 38.1319 34.8169C38.6154 34.1207 39.5764 33.9445 40.2761 34.4255C43.162 36.4094 46.5524 37.4581 50.0749 37.4581C53.6004 37.4581 56.9878 36.4094 59.8707 34.4255C60.5704 33.9445 61.5313 34.1178 62.0148 34.8139C62.4983 35.5101 62.3241 36.4662 61.6244 36.9472C58.222 39.2896 54.228 40.5266 50.0749 40.5266Z"/>
<path d="M39.4024 37.2251C38.5525 37.2251 37.8618 36.5379 37.8618 35.6923V34.8976C37.8618 30.6907 41.3033 27.2667 45.5315 27.2667H54.6216C58.8498 27.2667 62.2912 30.6907 62.2912 34.8976V35.6893C62.2912 36.5349 61.6006 37.2221 60.7507 37.2221C59.9009 37.2221 59.2102 36.5349 59.2102 35.6893V34.8976C59.2102 32.3818 57.1531 30.3322 54.6216 30.3322H45.5315C43.003 30.3322 40.9429 32.3789 40.9429 34.8976V35.6923C40.9429 36.5379 40.2522 37.2251 39.4024 37.2251Z"/>
<path fill-rule="evenodd" clip-rule="evenodd" d="M38.5254 36.9502C41.9308 39.2896 45.9248 40.5266 50.075 40.5266C54.2281 40.5266 58.2221 39.2896 61.6185 36.9472C67.129 33.1646 70.4203 26.9351 70.4203 20.2782C70.4203 9.11579 61.2912 0.0328674 50.072 0.0328674C38.8528 0.0328674 29.7236 9.11579 29.7236 20.2782C29.7236 26.9351 33.0149 33.1676 38.5254 36.9502ZM32.8077 20.2812C32.8077 10.8069 40.5525 3.10134 50.075 3.10134C59.5975 3.10134 67.3423 10.8099 67.3453 20.2812C67.3453 25.9282 64.5525 31.2166 59.8738 34.4285C56.9909 36.4124 53.6035 37.4611 50.078 37.4611C46.5555 37.4611 43.1651 36.4124 40.2792 34.4285C35.6005 31.2166 32.8077 25.9282 32.8077 20.2812Z"/>
<path fill-rule="evenodd" clip-rule="evenodd" d="M35.6846 34.5988C39.5344 38.4291 44.7266 40.5266 50.078 40.5266C51.3002 40.5266 52.5314 40.419 53.7537 40.192C57.8227 39.451 61.5254 37.5149 64.4594 34.5958C67.3963 31.6737 69.3423 27.9898 70.084 23.9443C71.2912 17.392 69.1891 10.6695 64.4594 5.96366C60.6185 2.14226 55.5074 0.0358582 50.072 0.0358582C44.6365 0.0358582 39.5284 2.14226 35.6846 5.96665C31.8407 9.79104 29.7236 14.8763 29.7236 20.2842C29.7236 25.6921 31.8407 30.7744 35.6846 34.5988ZM37.8648 8.1358C41.2311 4.78348 45.6516 3.11031 50.075 3.11031C54.4984 3.11031 58.9188 4.78348 62.2882 8.13281C66.3032 12.1275 68.087 17.8312 67.06 23.3945C66.4293 26.8275 64.7807 29.9527 62.2882 32.4326C59.7957 34.9095 56.6546 36.5528 53.2041 37.1802C47.6125 38.2021 41.8768 36.4243 37.8648 32.4326C34.6035 29.1879 32.8077 24.8735 32.8077 20.2842C32.8077 15.6949 34.6035 11.3806 37.8648 8.1358Z"/>
<path fill-rule="evenodd" clip-rule="evenodd" d="M70.3213 74.3037C70.3213 79.4129 74.5015 83.5719 79.6366 83.5719C84.7717 83.5719 88.9519 79.4129 88.9519 74.3037C88.9519 69.1946 84.7717 65.0356 79.6366 65.0356C74.5015 65.0356 70.3213 69.1946 70.3213 74.3037ZM73.4024 74.3037C73.4024 70.8827 76.1982 68.101 79.6366 68.101C83.075 68.101 85.8708 70.8827 85.8708 74.3037C85.8708 77.7248 83.075 80.5064 79.6366 80.5064C76.1982 80.5064 73.4024 77.7248 73.4024 74.3037Z"/>
<path d="M79.6364 97.8148C75.4862 97.8148 71.4923 96.5778 68.0868 94.2384C67.3871 93.7573 67.21 92.8012 67.6935 92.1051C68.1769 91.4089 69.1379 91.2326 69.8376 91.7137C72.7235 93.6976 76.1139 94.7463 79.6364 94.7463C83.1619 94.7463 86.5493 93.6976 89.4322 91.7137C90.1319 91.2326 91.0929 91.4059 91.5763 92.1021C92.0598 92.7983 91.8856 93.7543 91.1859 94.2354C87.7835 96.5778 83.7895 97.8148 79.6364 97.8148Z"/>
<path d="M68.9639 94.5102C68.114 94.5102 67.4233 93.823 67.4233 92.9775V92.1827C67.4233 87.9759 70.8648 84.5519 75.093 84.5519H84.1831C88.4113 84.5519 91.8528 87.9759 91.8528 92.1827V92.9745C91.8528 93.8201 91.1621 94.5072 90.3122 94.5072C89.4624 94.5072 88.7717 93.8201 88.7717 92.9745V92.1827C88.7717 89.667 86.7146 87.6174 84.1831 87.6174H75.093C72.5645 87.6174 70.5044 89.664 70.5044 92.1827V92.9775C70.5044 93.823 69.8137 94.5102 68.9639 94.5102Z"/>
<path fill-rule="evenodd" clip-rule="evenodd" d="M68.087 94.2384C71.4924 96.5778 75.4864 97.8148 79.6365 97.8148C83.7897 97.8148 87.7837 96.5778 91.1801 94.2354C96.6906 90.4528 99.9819 84.2232 99.9819 77.5664C99.9819 66.404 90.8527 57.321 79.6335 57.321C68.4143 57.321 59.2852 66.404 59.2852 77.5664C59.2852 84.2232 62.5764 90.4528 68.087 94.2384ZM62.3692 77.5694C62.3692 68.0951 70.114 60.3895 79.6365 60.3895C89.159 60.3895 96.9038 68.0951 96.9068 77.5694C96.9068 83.2164 94.114 88.5048 89.4353 91.7167C86.5524 93.7006 83.165 94.7493 79.6395 94.7493C76.117 94.7493 72.7266 93.7006 69.8407 91.7167C65.162 88.5048 62.3692 83.2164 62.3692 77.5694Z"/>
<path fill-rule="evenodd" clip-rule="evenodd" d="M65.2463 91.8869C69.0962 95.7173 74.2884 97.8147 79.6397 97.8147C80.862 97.8147 82.0932 97.7042 83.3184 97.4831C87.3875 96.7421 91.0902 94.806 94.0241 91.8869C96.9611 88.9649 98.907 85.2809 99.6488 81.2354C100.856 74.6832 98.7539 67.9606 94.0241 63.2548C86.0902 55.361 73.1803 55.361 65.2463 63.2548C57.3124 71.1486 57.3124 83.9932 65.2463 91.8869ZM67.4265 65.421C70.7929 62.0686 75.2133 60.3955 79.6367 60.3955C84.0602 60.3955 88.4806 62.0716 91.85 65.418C95.865 69.4127 97.6488 75.1164 96.6217 80.6797C95.9911 84.1127 94.3424 87.2379 91.85 89.7178C89.3575 92.1947 86.2163 93.838 82.7659 94.4654C77.1743 95.4872 71.4385 93.7095 67.4265 89.7178C60.6938 83.0191 60.6938 72.1196 67.4265 65.421Z"/>
<path fill-rule="evenodd" clip-rule="evenodd" d="M11.1982 74.3037C11.1982 79.4129 15.3784 83.5719 20.5136 83.5719C25.6487 83.5719 29.8289 79.4129 29.8289 74.3037C29.8289 69.1946 25.6487 65.0356 20.5136 65.0356C15.3784 65.0356 11.1982 69.1946 11.1982 74.3037ZM14.2793 74.3037C14.2793 70.8827 17.0751 68.101 20.5136 68.101C23.952 68.101 26.7478 70.8827 26.7478 74.3037C26.7478 77.7248 23.952 80.5064 20.5136 80.5064C17.0751 80.5064 14.2793 77.7248 14.2793 74.3037Z"/>
<path d="M20.5133 97.8148C16.3632 97.8148 12.3692 96.5778 8.9638 94.2384C8.2641 93.7573 8.08692 92.8012 8.57041 92.1051C9.05389 91.4089 10.0149 91.2326 10.7146 91.7137C13.6004 93.6976 16.9908 94.7463 20.5133 94.7463C24.0389 94.7463 27.4263 93.6976 30.3091 91.7137C31.0088 91.2326 31.9698 91.4059 32.4533 92.1021C32.9368 92.7983 32.7626 93.7543 32.0629 94.2354C28.6605 96.5778 24.6665 97.8148 20.5133 97.8148Z"/>
<path d="M9.84083 94.5102C8.99098 94.5102 8.30029 93.823 8.30029 92.9775V92.1827C8.30029 87.9759 11.7417 84.5519 15.97 84.5519H25.0601C29.2883 84.5519 32.7297 87.9759 32.7297 92.1827V92.9745C32.7297 93.8201 32.039 94.5072 31.1892 94.5072C30.3393 94.5072 29.6486 93.8201 29.6486 92.9745V92.1827C29.6486 89.667 27.5916 87.6174 25.0601 87.6174H15.967C13.4384 87.6174 11.3784 89.664 11.3784 92.1827V92.9775C11.3814 93.823 10.6907 94.5102 9.84083 94.5102Z"/>
<path fill-rule="evenodd" clip-rule="evenodd" d="M8.96391 94.2384C12.3693 96.5778 16.3633 97.8148 20.5135 97.8148C24.6666 97.8148 28.6606 96.5778 32.057 94.2354C37.5675 90.4528 40.8588 84.2232 40.8588 77.5664C40.8588 66.404 31.7297 57.321 20.5105 57.321C9.29124 57.321 0.162109 66.404 0.162109 77.5664C0.162109 84.2232 3.4534 90.4528 8.96391 94.2384ZM3.24619 77.5694C3.24619 68.0951 10.9909 60.3895 20.5135 60.3895C30.036 60.3895 37.7807 68.0951 37.7837 77.5694C37.7837 83.2164 34.9909 88.5048 30.3123 91.7167C27.4294 93.7006 24.042 94.7493 20.5165 94.7493C16.9939 94.7493 13.6036 93.7006 10.7177 91.7167C6.03899 88.5048 3.24619 83.2164 3.24619 77.5694Z"/>
<path fill-rule="evenodd" clip-rule="evenodd" d="M6.12307 91.8869C9.97292 95.7173 15.1651 97.8147 20.5165 97.8147C21.7387 97.8147 22.9699 97.7042 24.1951 97.4831C28.2642 96.7421 31.9669 94.806 34.9008 91.8869C37.8378 88.9649 39.7837 85.2809 40.5255 81.2354C41.7327 74.6832 39.6306 67.9606 34.9008 63.2548C26.9669 55.361 14.057 55.361 6.12307 63.2548C2.27923 67.0792 0.162109 72.1644 0.162109 77.5724C0.162109 82.9803 2.27923 88.0626 6.12307 91.8869ZM8.30325 65.421C11.6696 62.0686 16.09 60.3955 20.5135 60.3955C24.9339 60.3955 29.3573 62.0716 32.7267 65.418C36.7417 69.4127 38.5255 75.1164 37.4984 80.6797C36.8678 84.1127 35.2192 87.2379 32.7267 89.7178C30.2342 92.1947 27.093 93.838 23.6426 94.4654C18.048 95.4872 12.3153 93.7095 8.30325 89.7178C5.04199 86.473 3.24619 82.1586 3.24619 77.5694C3.24619 72.9801 5.04199 68.6657 8.30325 65.421Z"/>
<path d="M33.8136 65.8691C33.3151 65.8691 32.8256 65.6271 32.5283 65.1849C32.0568 64.4798 32.252 63.5297 32.9607 63.0606L48.5343 52.7796V38.9968C48.5343 38.1513 49.225 37.4641 50.0748 37.4641C50.9247 37.4641 51.6154 38.1513 51.6154 38.9968V53.6012C51.6154 54.1151 51.3571 54.5932 50.9277 54.877L34.6664 65.6122C34.4022 65.7855 34.1049 65.8691 33.8136 65.8691Z"/>
<path d="M66.3361 65.8691C66.0448 65.8691 65.7475 65.7855 65.4863 65.6122L49.225 54.877C48.5163 54.4079 48.3241 53.4578 48.7926 52.7527C49.2641 52.0475 50.219 51.8563 50.9277 52.3224L67.189 63.0576C67.8977 63.5267 68.0899 64.4768 67.6214 65.1819C67.3241 65.6271 66.8346 65.8691 66.3361 65.8691Z"/>
</svg>
