<svg width="100" height="100" viewBox="0 0 100 100" xmlns="http://www.w3.org/2000/svg">
<path d="M36.2599 42.4164L58.7184 69.4904L14.5693 86.9686L13.2599 93.0499L4.51953 82.515L10.7516 82.3718L36.2599 42.4164Z" fill="currentColor"/>
<path d="M48.8756 10.9302L47.7872 16.1329L42.8701 18.1876L47.4944 20.8289L47.9364 26.1252L51.8839 22.5558L57.0745 23.7759L54.8895 18.9285L57.6546 14.384L52.3563 14.9597L48.8756 10.9302Z" fill="currentColor"/>
<path d="M93.1025 30.0472L88.1219 34.6826L81.4699 33.2201L84.3512 39.373L80.9009 45.2312L87.6633 44.3995L92.1826 49.481L93.481 42.813L99.7241 40.0974L93.7655 36.8061L93.1025 30.0472Z" fill="currentColor"/>
<path fill-rule="evenodd" clip-rule="evenodd" d="M9.15213 90.9595C9.42474 91.2868 9.83035 91.4749 10.2571 91.4717C10.3707 91.4718 10.4839 91.458 10.5941 91.4304C11.1222 91.3036 11.5303 90.8859 11.6438 90.3563L12.7958 85.0104L56.2405 67.8103C56.6592 67.6435 56.973 67.2877 57.0854 66.8525C57.1978 66.4172 57.0954 65.9546 56.8096 65.6069L34.351 38.533C34.0623 38.1847 33.6239 37.995 33.1715 38.0228C32.7191 38.0506 32.3074 38.2924 32.0637 38.6735L6.96152 77.9844L1.48638 78.111C0.943053 78.1228 0.454349 78.4434 0.228401 78.9362C0.00245326 79.429 0.079065 80.0072 0.425608 80.4246L9.15213 90.9595ZM9.48638 86.9108L4.47257 80.868L7.78472 80.7909C8.25745 80.7808 8.69385 80.5359 8.94771 80.1382L33.4118 41.8215L53.3869 65.9016L11.0499 82.6638C10.6084 82.8365 10.2829 83.2179 10.1825 83.6801L9.48638 86.9108Z"/>
<path d="M47.0884 71.3274C47.0153 71.3274 46.9424 71.3219 46.8702 71.3109C46.4987 71.2533 46.1654 71.0508 45.9436 70.7481C45.7219 70.4454 45.6299 70.0673 45.6879 69.6969L47.5138 58.0659C47.6886 57.3521 48.3829 56.8911 49.1109 57.0053C49.8388 57.1196 50.3575 57.771 50.3039 58.5038L48.4862 70.1349C48.3786 70.8215 47.7854 71.3276 47.0884 71.3274Z"/>
<path d="M31.2435 77.6015C31.1695 77.6015 31.0957 77.596 31.0225 77.585C30.651 77.5274 30.3177 77.3249 30.096 77.0222C29.8742 76.7195 29.7822 76.3414 29.8402 75.971L34.9921 42.9866C35.1127 42.2154 35.8374 41.6876 36.6109 41.8078C37.3844 41.9279 37.9138 42.6505 37.7932 43.4217L32.6413 76.4062C32.5328 77.0927 31.9406 77.5992 31.2435 77.6015Z"/>
<path d="M15.4007 83.8729C15.3268 83.8728 15.2529 83.8673 15.1797 83.8563C14.8083 83.7987 14.475 83.5963 14.2532 83.2936C14.0315 82.9909 13.9395 82.6127 13.9974 82.2424L17.1107 62.3101C17.2312 61.5389 17.956 61.0111 18.7295 61.1313C19.503 61.2515 20.0323 61.9741 19.9118 62.7453L16.7985 82.6775C16.69 83.364 16.0978 83.8705 15.4007 83.8729Z"/>
<path fill-rule="evenodd" clip-rule="evenodd" d="M44.2573 23.9825C44.3189 24.7146 44.932 25.278 45.6689 25.2797C46.0226 25.2764 46.3623 25.1419 46.6219 24.9024L50.0335 21.8425L54.4949 22.8918C55.0203 23.016 55.5709 22.8316 55.9147 22.4164C56.2584 22.0011 56.3356 21.4272 56.1136 20.9363L54.2324 16.7664L56.6136 12.8582C56.8926 12.3981 56.886 11.8201 56.5967 11.3664C56.3073 10.9127 55.7852 10.6616 55.249 10.7182L50.6772 11.2139L47.6827 7.74363C47.3307 7.3359 46.777 7.16287 46.2545 7.29733C45.732 7.4318 45.3315 7.85043 45.2214 8.3771L44.2849 12.8582L40.0556 14.6264C39.5585 14.8343 39.2227 15.3054 39.1893 15.8418C39.1558 16.3783 39.4306 16.8872 39.8982 17.1548L43.8788 19.427L44.2573 23.9825ZM45.9341 17.3448L43.7987 16.1247L46.0777 15.1745C46.5042 14.9929 46.814 14.614 46.9065 14.1609L47.4092 11.751L49.0142 13.6101C49.3192 13.9611 49.7777 14.1403 50.2407 14.0893L52.6882 13.8139L51.412 15.9099C51.169 16.3064 51.138 16.797 51.3291 17.2209L52.3374 19.4601L49.9424 18.9092C49.4883 18.8033 49.0111 18.9269 48.6661 19.2397L46.8457 20.8922L46.6413 18.4465C46.6009 17.9859 46.3367 17.5742 45.9341 17.3448Z"/>
<path fill-rule="evenodd" clip-rule="evenodd" d="M88.8567 48.159C89.1251 48.4624 89.5116 48.636 89.9174 48.6354L89.9285 48.6327C90.6039 48.6278 91.182 48.1482 91.3097 47.4869L92.4754 41.5461L98.039 39.1251C98.5332 38.9099 98.8621 38.4336 98.8873 37.8964C98.9125 37.3592 98.6297 36.8543 98.1578 36.594L92.8484 33.6663L92.26 27.6428C92.2089 27.1072 91.8567 26.6472 91.3519 26.457C90.8472 26.2669 90.2778 26.3796 89.8843 26.7477L85.4478 30.879L79.5224 29.5763C78.9953 29.4595 78.4475 29.6515 78.1097 30.0714C77.7718 30.4913 77.7026 31.0661 77.9312 31.5538L80.5003 37.0374L77.4257 42.2539C77.157 42.7156 77.1716 43.2887 77.4634 43.7362C77.7552 44.1837 78.2747 44.4295 78.8069 44.3719L84.829 43.631L88.8567 48.159ZM86.4561 41.2018C86.1865 40.9002 85.8005 40.7279 85.3953 40.7281L85.2185 40.7363L81.3042 41.2183L83.3014 37.8307C83.5382 37.4299 83.562 36.9385 83.3649 36.5169L81.7075 32.9557L85.5555 33.8012C86.0114 33.9003 86.4871 33.7707 86.829 33.4542L89.7102 30.7716L90.0915 34.6853C90.1373 35.1493 90.4089 35.5612 90.818 35.787L94.2655 37.6902L90.6522 39.2601C90.2229 39.4452 89.9128 39.8296 89.8235 40.2874L89.0721 44.1433L86.4561 41.2018Z"/>
<path d="M53.1989 53.9043C52.5809 53.9036 52.0346 53.5037 51.8488 52.916C51.6631 52.3283 51.8807 51.6884 52.3867 51.3346C52.7099 51.1087 60.4613 45.8262 74.348 44.9999C74.8581 44.9611 75.3496 45.1995 75.6339 45.6235C75.9182 46.0475 75.9512 46.5914 75.7203 47.0465C75.4894 47.5016 75.0304 47.7973 74.5193 47.8202C61.4834 48.6024 54.0773 53.6041 54.0055 53.6619C53.7679 53.8231 53.4863 53.9077 53.1989 53.9043Z"/>
<path d="M48.8951 48.7263C48.3177 48.7259 47.7982 48.3762 47.5821 47.8423C47.3659 47.3084 47.4963 46.6971 47.9117 46.2971C48.2957 45.9253 57.5609 37.1697 74.3344 36.1065C74.8517 36.0518 75.3575 36.2841 75.652 36.7117C75.9465 37.1393 75.9824 37.6934 75.7454 38.1551C75.5085 38.6169 75.0368 38.9121 74.5167 38.9241C58.8343 39.9321 49.9669 48.2581 49.8785 48.3435C49.6123 48.5924 49.2601 48.7295 48.8951 48.7263Z"/>
<path d="M44.5994 44.0855C44.025 44.0876 43.5063 43.7432 43.2869 43.2139C43.0676 42.6846 43.1911 42.0755 43.5994 41.6728C44.5261 40.6376 45.311 39.4846 45.9337 38.2438C47.0552 36.1285 48.4917 32.5618 48.9724 27.5684C49.0594 26.8012 49.748 26.2457 50.5187 26.321C51.2894 26.3962 51.8568 27.0744 51.7928 27.8439C50.7459 38.4779 45.7956 43.4685 45.5856 43.6751C45.3234 43.9352 44.9694 44.0825 44.5994 44.0855Z"/>
<path d="M68.8344 17.163H65.2791C64.947 17.1814 64.6319 17.0152 64.4603 16.7311C64.2886 16.447 64.2886 16.0916 64.4603 15.8075C64.6319 15.5233 64.947 15.3571 65.2791 15.3755H68.8344C69.1665 15.3571 69.4816 15.5233 69.6532 15.8075C69.8248 16.0916 69.8248 16.447 69.6532 16.7311C69.4816 17.0152 69.1665 17.1814 68.8344 17.163Z"/>
<path d="M78.8982 17.163H75.3402C74.8644 17.1367 74.4922 16.7443 74.4922 16.2693C74.4922 15.7942 74.8644 15.4019 75.3402 15.3755H78.8982C79.2303 15.3571 79.5454 15.5233 79.7171 15.8075C79.8887 16.0916 79.8887 16.447 79.7171 16.7311C79.5454 17.0152 79.2303 17.1814 78.8982 17.163Z"/>
<path d="M72.0995 23.9522C71.6036 23.9522 71.2017 23.5514 71.2017 23.057V19.5124C71.2017 19.018 71.6036 18.6172 72.0995 18.6172C72.5953 18.6172 72.9972 19.018 72.9972 19.5124V23.057C72.9972 23.5514 72.5953 23.9522 72.0995 23.9522Z"/>
<path d="M72.0995 13.9213C71.6042 13.9198 71.2032 13.52 71.2017 13.0262V9.4788C71.2017 8.98444 71.6036 8.58368 72.0995 8.58368C72.5953 8.58368 72.9972 8.98444 72.9972 9.4788V13.0262C72.9957 13.52 72.5947 13.9198 72.0995 13.9213Z"/>
<path d="M75.3097 13.9516C74.9475 13.9509 74.6211 13.7333 74.4822 13.3997C74.3433 13.0662 74.4191 12.6821 74.6743 12.4258L75.4727 11.6298C75.6979 11.3953 76.0328 11.3008 76.3478 11.3828C76.6629 11.4648 76.9088 11.7104 76.9903 12.0247C77.0718 12.339 76.9763 12.6727 76.7406 12.8968L75.945 13.69C75.7761 13.8573 75.5478 13.9513 75.3097 13.9516Z"/>
<path d="M68.0802 21.1594C67.718 21.1587 67.3916 20.941 67.2527 20.6075C67.1138 20.2739 67.1896 19.8898 67.4448 19.6335L68.2321 18.8431C68.4543 18.5973 68.7944 18.4937 69.1164 18.5738C69.4384 18.6539 69.6898 18.9046 69.7701 19.2256C69.8505 19.5467 69.7466 19.8857 69.5001 20.1073L68.7045 20.9032C68.5374 21.0659 68.3137 21.1577 68.0802 21.1594Z"/>
<path d="M68.8758 13.9516C68.6384 13.9518 68.4107 13.8576 68.2432 13.69L67.4448 12.8968C67.0939 12.5469 67.0939 11.9797 67.4448 11.6298C67.7957 11.28 68.3646 11.28 68.7155 11.6298L69.5111 12.4258C69.6796 12.5932 69.7744 12.8207 69.7744 13.0579C69.7744 13.2951 69.6796 13.5225 69.5111 13.69C69.3422 13.8573 69.1138 13.9513 68.8758 13.9516Z"/>
<path d="M76.1052 21.1594C75.8658 21.156 75.6379 21.0567 75.4726 20.884L74.6743 20.088C74.3376 19.736 74.3446 19.1803 74.6899 18.8367C75.0353 18.4932 75.5926 18.4874 75.945 18.8239L76.7406 19.6198C76.9958 19.8761 77.0716 20.2602 76.9327 20.5938C76.7938 20.9273 76.4674 21.145 76.1052 21.1457V21.1594Z"/>
<path d="M75.6436 67.3779H72.0994C71.7673 67.3962 71.4522 67.23 71.2806 66.9459C71.109 66.6618 71.109 66.3064 71.2806 66.0223C71.4522 65.7382 71.7673 65.572 72.0994 65.5904H75.6547C75.9868 65.572 76.3019 65.7382 76.4735 66.0223C76.6452 66.3064 76.6452 66.6618 76.4735 66.9459C76.3019 67.23 75.9868 67.3962 75.6547 67.3779H75.6436Z"/>
<path d="M85.7073 67.3779H82.1493C81.6735 67.3515 81.3013 66.9592 81.3013 66.4841C81.3013 66.009 81.6735 65.6167 82.1493 65.5904H85.7073C86.0394 65.572 86.3545 65.7382 86.5261 66.0223C86.6978 66.3064 86.6978 66.6618 86.5261 66.9459C86.3545 67.23 86.0394 67.3962 85.7073 67.3779Z"/>
<path d="M78.8978 74.167C78.403 74.167 78.0015 73.7679 78 73.2746V69.7272C78 69.2329 78.402 68.8321 78.8978 68.8321C79.3936 68.8321 79.7956 69.2329 79.7956 69.7272V73.2746C79.7941 73.7679 79.3925 74.167 78.8978 74.167Z"/>
<path d="M78.8978 64.1362C78.402 64.1362 78 63.7354 78 63.2411V59.6964C78 59.202 78.402 58.8013 78.8978 58.8013C79.3936 58.8013 79.7956 59.202 79.7956 59.6964V63.2411C79.7956 63.7354 79.3936 64.1362 78.8978 64.1362Z"/>
<path d="M82.119 64.1664C81.7558 64.1646 81.4295 63.9449 81.2922 63.6097C81.1549 63.2744 81.2338 62.8898 81.4919 62.6351L82.2902 61.8419C82.6451 61.523 83.1883 61.5371 83.5261 61.8739C83.8639 62.2107 83.878 62.7522 83.5582 63.1061L82.7626 63.8993C82.5933 64.0717 82.361 64.1681 82.119 64.1664Z"/>
<path d="M74.8898 71.3742C74.5275 71.3736 74.2012 71.1559 74.0623 70.8223C73.9234 70.4888 73.9992 70.1047 74.2544 69.8484L75.0527 69.0552C75.4076 68.7363 75.9508 68.7504 76.2886 69.0872C76.6264 69.424 76.6405 69.9656 76.3207 70.3194L75.5251 71.1126C75.3562 71.2799 75.1279 71.3739 74.8898 71.3742Z"/>
<path d="M75.6907 64.1665C75.453 64.1679 75.2249 64.0735 75.0581 63.9048L74.2597 63.1116C73.9231 62.7595 73.93 62.2039 74.2754 61.8603C74.6207 61.5167 75.1781 61.511 75.5304 61.8474L76.326 62.6406C76.5813 62.8969 76.657 63.281 76.5181 63.6146C76.3792 63.9481 76.0529 64.1658 75.6907 64.1665Z"/>
<path d="M82.9148 71.3742C82.6754 71.3708 82.4475 71.2715 82.2822 71.0988L81.4921 70.3194C81.1555 69.9673 81.1624 69.4116 81.5078 69.0681C81.8531 68.7245 82.4105 68.7188 82.7629 69.0552L83.5584 69.8484C83.727 70.0158 83.8217 70.2433 83.8217 70.4805C83.8217 70.7177 83.727 70.9451 83.5584 71.1126C83.3875 71.2819 83.1558 71.3761 82.9148 71.3742Z"/>
<path d="M18.9558 26.1142H15.3978C15.0656 26.1326 14.7505 25.9664 14.5789 25.6823C14.4073 25.3982 14.4073 25.0428 14.5789 24.7587C14.7505 24.4746 15.0656 24.3084 15.3978 24.3268H18.9558C19.4315 24.3531 19.8038 24.7454 19.8038 25.2205C19.8038 25.6956 19.4315 26.0879 18.9558 26.1142Z"/>
<path d="M29.0058 26.1142H25.4588C24.9831 26.0879 24.6108 25.6956 24.6108 25.2205C24.6108 24.7454 24.9831 24.3531 25.4588 24.3268H29.0058C29.3379 24.3084 29.653 24.4746 29.8247 24.7587C29.9963 25.0428 29.9963 25.3982 29.8247 25.6823C29.653 25.9664 29.3379 26.1326 29.0058 26.1142Z"/>
<path d="M22.2074 32.9034C21.7115 32.9034 21.3096 32.5026 21.3096 32.0083V28.4636C21.3096 27.9692 21.7115 27.5685 22.2074 27.5685C22.7032 27.5685 23.1052 27.9692 23.1052 28.4636V32.0083C23.1052 32.5026 22.7032 32.9034 22.2074 32.9034Z"/>
<path d="M22.2074 22.8725C21.7122 22.871 21.3111 22.4711 21.3096 21.9774V18.43C21.3096 17.9356 21.7115 17.5349 22.2074 17.5349C22.7032 17.5349 23.1052 17.9356 23.1052 18.43V21.9774C23.1036 22.4711 22.7026 22.871 22.2074 22.8725Z"/>
<path d="M25.4283 22.9028C25.0661 22.9021 24.7398 22.6845 24.6009 22.3509C24.462 22.0173 24.5377 21.6332 24.793 21.377L25.5913 20.581C25.9444 20.2453 26.5018 20.2523 26.8464 20.5966C27.191 20.9409 27.1967 21.4966 26.8593 21.8479L26.0637 22.6411C25.8948 22.8084 25.6664 22.9025 25.4283 22.9028Z"/>
<path d="M18.1993 30.1106C17.8364 30.1099 17.5096 29.8914 17.3711 29.5569C17.2327 29.2224 17.3099 28.8377 17.5667 28.582L18.3623 27.7888C18.7172 27.4699 19.2604 27.484 19.5982 27.8208C19.936 28.1576 19.9501 28.6991 19.6303 29.053L18.8347 29.8599C18.664 30.0232 18.4359 30.1132 18.1993 30.1106Z"/>
<path d="M18.9949 22.9028C18.7575 22.903 18.5299 22.8088 18.3623 22.6411L17.5667 21.8479C17.2293 21.4966 17.235 20.9409 17.5796 20.5966C17.9243 20.2523 18.4816 20.2453 18.8347 20.581L19.6303 21.377C19.8855 21.6332 19.9613 22.0173 19.8224 22.3509C19.6835 22.6845 19.3571 22.9021 18.9949 22.9028Z"/>
<path d="M26.2239 30.1106C25.9845 30.1071 25.7565 30.0079 25.5913 29.8352L24.7929 29.0392C24.4563 28.6872 24.4632 28.1315 24.8086 27.7879C25.1539 27.4443 25.7113 27.4386 26.0636 27.775L26.8592 28.5682C27.1164 28.8243 27.1934 29.2096 27.0543 29.5444C26.9152 29.8792 26.5873 30.0973 26.2239 30.0968V30.1106Z"/>
<path d="M14.6409 47.688H2.00551C1.22285 47.688 0.588379 47.0554 0.588379 46.2751C0.588379 45.4948 1.22285 44.8622 2.00551 44.8622H14.6409C15.4235 44.8622 16.058 45.4948 16.058 46.2751C16.058 47.0554 15.4235 47.688 14.6409 47.688Z"/>
<path d="M8.31785 53.9841C7.53735 53.9811 6.90624 53.3494 6.90625 52.5712V39.9817C6.90625 39.2014 7.54072 38.5688 8.32338 38.5688C9.10603 38.5688 9.7405 39.2014 9.7405 39.9817V52.5712C9.74051 52.9469 9.59044 53.3071 9.32349 53.5722C9.05653 53.8374 8.69465 53.9856 8.31785 53.9841Z"/>
<path d="M56.7321 85.4951H48.3703C47.5876 85.4951 46.9531 84.8625 46.9531 84.0822C46.9531 83.3018 47.5876 82.6693 48.3703 82.6693H56.7321C57.5148 82.6693 58.1493 83.3018 58.1493 84.0822C58.1493 84.8625 57.5148 85.4951 56.7321 85.4951Z" fill="currentColor"/>
<path d="M52.5499 89.6622C51.7673 89.6622 51.1328 89.0296 51.1328 88.2493V79.9123C51.1328 79.132 51.7673 78.4994 52.5499 78.4994C53.3326 78.4994 53.9671 79.132 53.9671 79.9123V88.2493C53.9671 88.624 53.8178 88.9834 53.552 89.2484C53.2862 89.5134 52.9258 89.6622 52.5499 89.6622Z" fill="currentColor"/>
</svg>
