<svg width="100" height="100" viewBox="0 0 100 100" xmlns="http://www.w3.org/2000/svg">
<path d="M26.6725 17.5223H31.757V12.4437C31.757 11.6317 32.4149 10.9734 33.2265 10.9734C34.0381 10.9734 34.696 11.6317 34.696 12.4437V17.5223H39.772C40.5835 17.5223 41.2415 18.1806 41.2415 18.9926C41.2415 19.8046 40.5835 20.4629 39.772 20.4629H34.6932V25.5416C34.6932 26.3536 34.0352 27.0119 33.2236 27.0119C32.4121 27.0119 31.7541 26.3536 31.7541 25.5416V20.4629H26.6725C25.8609 20.4629 25.203 19.8046 25.203 18.9926C25.203 18.1806 25.8609 17.5223 26.6725 17.5223Z"/>
<path d="M35.8083 7.34274H38.0177V5.1334C38.0177 4.50744 38.5251 4 39.1511 4C39.777 4 40.2845 4.50744 40.2845 5.1334V7.34274H42.4938C43.1198 7.34274 43.6272 7.85018 43.6272 8.47614C43.6272 9.10209 43.1198 9.60953 42.4938 9.60953H40.2845V11.8189C40.2845 12.4448 39.777 12.9523 39.1511 12.9523C38.5251 12.9523 38.0177 12.4448 38.0177 11.8189V9.60953H35.8083C35.1824 9.60953 34.6749 9.10209 34.6749 8.47614C34.6749 7.85018 35.1824 7.34274 35.8083 7.34274Z" fill="currentColor"/>
<circle cx="60.4183" cy="60.1348" r="26.1497" fill="currentColor"/>
<path fill-rule="evenodd" clip-rule="evenodd" d="M53.7935 80.0085C67.4654 80.0085 78.5486 68.9253 78.5486 55.2535C78.5486 41.5817 67.4654 30.4985 53.7935 30.4985C40.1217 30.4985 29.0385 41.5817 29.0385 55.2535C29.0385 68.9253 40.1217 80.0085 53.7935 80.0085ZM53.7935 84.8898C70.1612 84.8898 83.4299 71.6212 83.4299 55.2535C83.4299 38.8858 70.1612 25.6172 53.7935 25.6172C37.4259 25.6172 24.1572 38.8858 24.1572 55.2535C24.1572 71.6212 37.4259 84.8898 53.7935 84.8898Z"/>
<path fill-rule="evenodd" clip-rule="evenodd" d="M36.1985 73.1974C36.8793 73.8782 36.8793 74.982 36.1985 75.6628L15.976 95.8852C15.2952 96.566 14.1914 96.566 13.5106 95.8852C12.8298 95.2044 12.8298 94.1006 13.5106 93.4198L33.733 73.1974C34.4138 72.5166 35.5176 72.5166 36.1985 73.1974Z"/>
<path fill-rule="evenodd" clip-rule="evenodd" d="M59.1049 42.3544C60.0049 42.3894 60.7814 42.9965 61.0326 43.8615L63.7325 53.1613H74.7133C75.8687 53.1613 76.8053 54.0979 76.8053 55.2533C76.8053 56.4087 75.8687 57.3453 74.7133 57.3453H62.1615C61.2308 57.3453 60.412 56.7304 60.1525 55.8366L58.766 51.061L51.9159 69.2401C51.6077 70.0582 50.8232 70.5983 49.949 70.5944C49.0748 70.5905 48.2952 70.0435 47.9942 69.2227L41.9918 52.8524L40.3236 56.1889C39.9692 56.8976 39.2448 57.3453 38.4524 57.3453H31.4792C30.3238 57.3453 29.3872 56.4087 29.3872 55.2533C29.3872 54.0979 30.3238 53.1613 31.4792 53.1613H37.1595L40.4166 46.6472C40.79 45.9005 41.5715 45.4472 42.405 45.494C43.2385 45.5409 43.9644 46.0788 44.2518 46.8626L49.9851 62.4986L57.0659 43.7071C57.3835 42.8643 58.2049 42.3193 59.1049 42.3544Z"/>
</svg>
