<svg width="100" height="100" viewBox="0 0 100 100" xmlns="http://www.w3.org/2000/svg">
<path d="M100 80.8571V71H8V80.8571C8 88.1157 14.0278 94 21.4634 94H86.5366C93.9722 94 100 88.1157 100 80.8571Z" fill="currentColor"/>
<path d="M87.8583 17.3481C87.8583 18.2437 88.5858 18.9715 89.4809 18.9715C90.376 18.9715 91.1035 18.2437 91.1035 17.3481V14.1108H94.3423C95.2374 14.1108 95.9649 13.3829 95.9649 12.4873C95.9649 11.5918 95.2374 10.8639 94.3423 10.8639H91.1035V7.62342C91.1035 6.72785 90.376 6 89.4809 6C88.5858 6 87.8583 6.72785 87.8583 7.62342V10.8639H84.6226C83.7275 10.8639 83 11.5918 83 12.4873C83 13.3829 83.7275 14.1108 84.6226 14.1108H87.8583V17.3481Z" fill="currentColor"/>
<path fill-rule="evenodd" clip-rule="evenodd" d="M4 66.2195C5.10457 66.2195 6 67.1149 6 68.2195V77.5365C6 83.0594 10.4772 87.5365 16 87.5365H84C89.5229 87.5365 94 83.0594 94 77.5365V68.2195C94 67.1149 94.8954 66.2195 96 66.2195C97.1046 66.2195 98 67.1149 98 68.2195V77.5365C98 85.2685 91.732 91.5365 84 91.5365H16C8.26802 91.5365 2 85.2685 2 77.5365V68.2195C2 67.1149 2.89543 66.2195 4 66.2195Z"/>
<path fill-rule="evenodd" clip-rule="evenodd" d="M16.5854 78.878C16.5854 77.7734 17.4808 76.878 18.5854 76.878H81.4147C82.5192 76.878 83.4147 77.7734 83.4147 78.878C83.4147 79.9826 82.5192 80.878 81.4147 80.878H18.5854C17.4808 80.878 16.5854 79.9826 16.5854 78.878Z"/>
<path fill-rule="evenodd" clip-rule="evenodd" d="M50 9C51.1046 9 52 9.89543 52 11V57.7813L68.7809 41.0004C69.562 40.2194 70.8283 40.2194 71.6093 41.0004C72.3904 41.7815 72.3904 43.0478 71.6093 43.8288L51.4142 64.024C50.6332 64.805 49.3668 64.805 48.5858 64.024L28.3907 43.8288C27.6096 43.0478 27.6096 41.7815 28.3907 41.0004C29.1717 40.2194 30.438 40.2194 31.2191 41.0004L48 57.7813V11C48 9.89543 48.8954 9 50 9Z"/>
</svg>
