<svg width="100" height="100" viewBox="0 0 100 100" xmlns="http://www.w3.org/2000/svg">
<path fill-rule="evenodd" clip-rule="evenodd" d="M3.69195 14.4539C3.45605 14.5538 3.25739 14.7459 3.15186 15.0063C3.05369 15.2485 3 15.5133 3 15.7884V19.3628C3 19.9269 3.44685 20.3841 3.99806 20.3841C4.54927 20.3841 4.99612 19.9269 4.99612 19.3628L4.99639 15.788L9.18797 15.7884C9.73919 15.7884 10.186 15.3312 10.186 14.7671C10.186 14.2031 9.73919 13.7458 9.18797 13.7458H4.99612C4.7273 13.7458 4.46851 13.8008 4.23176 13.9012C3.97728 14.0092 3.78963 14.2125 3.69195 14.4539Z"/>
<path d="M16.5736 14.7671C16.5736 14.2031 17.0205 13.7458 17.5717 13.7458H25.9554C26.5066 13.7458 26.9534 14.2031 26.9534 14.7671C26.9534 15.3312 26.5066 15.7884 25.9554 15.7884H17.5717C17.0205 15.7884 16.5736 15.3312 16.5736 14.7671Z"/>
<path d="M33.341 14.7671C33.341 14.2031 33.7879 13.7458 34.3391 13.7458H42.7228C43.274 13.7458 43.7209 14.2031 43.7209 14.7671C43.7209 15.3312 43.274 15.7884 42.7228 15.7884H34.3391C33.7879 15.7884 33.341 15.3312 33.341 14.7671Z"/>
<path d="M50.1085 14.7671C50.1085 14.2031 50.5553 13.7458 51.1065 13.7458H59.4902C60.0414 13.7458 60.4883 14.2031 60.4883 14.7671C60.4883 15.3312 60.0414 15.7884 59.4902 15.7884H51.1065C50.5553 15.7884 50.1085 15.3312 50.1085 14.7671Z"/>
<path d="M66.8759 14.7671C66.8759 14.2031 67.3227 13.7458 67.8739 13.7458H76.2576C76.8089 13.7458 77.2557 14.2031 77.2557 14.7671C77.2557 15.3312 76.8089 15.7884 76.2576 15.7884H67.8739C67.3227 15.7884 66.8759 15.3312 66.8759 14.7671Z"/>
<path d="M83.6433 14.7671C83.6433 14.2031 84.0901 13.7458 84.6413 13.7458H88.8332C89.102 13.7458 89.3608 13.8008 89.5976 13.9012C89.852 14.0092 90.0397 14.2125 90.1374 14.4539C90.3733 14.5538 90.5719 14.7459 90.6775 15.0063C90.7756 15.2485 90.8293 15.5133 90.8293 15.7884V19.3628C90.8293 19.9269 90.3825 20.3841 89.8313 20.3841C89.2801 20.3841 88.8332 19.9269 88.8332 19.3628V15.7884H84.6413C84.0901 15.7884 83.6433 15.3312 83.6433 14.7671Z"/>
<path d="M3.99806 25.4905C4.54927 25.4905 4.99612 25.9477 4.99612 26.5117V30.0862H9.18797C9.73918 30.0862 10.186 30.5434 10.186 31.1075C10.186 31.6715 9.73918 32.1287 9.18797 32.1287H4.99612C4.7273 32.1287 4.46851 32.0738 4.23177 31.9733C3.97728 31.8654 3.78963 31.6621 3.69195 31.4207C3.45605 31.3207 3.25739 31.1287 3.15186 30.8683C3.05369 30.6261 3 30.3613 3 30.0862V26.5117C3 25.9477 3.44685 25.4905 3.99806 25.4905Z"/>
<path d="M89.8313 25.4905C90.3825 25.4905 90.8293 25.9477 90.8293 26.5117V30.0862C90.8293 30.3613 90.7756 30.6261 90.6775 30.8683C90.5719 31.1287 90.3733 31.3207 90.1374 31.4207C90.0397 31.6621 89.852 31.8654 89.5976 31.9733C89.3608 32.0738 89.102 32.1287 88.8332 32.1287H84.6413C84.0901 32.1287 83.6433 31.6715 83.6433 31.1075C83.6433 30.5434 84.0901 30.0862 84.6413 30.0862H88.8332V26.5117C88.8332 25.9477 89.2801 25.4905 89.8313 25.4905Z"/>
<path d="M16.5736 31.1075C16.5736 30.5434 17.0205 30.0862 17.5717 30.0862H25.9554C26.5066 30.0862 26.9535 30.5434 26.9535 31.1075C26.9535 31.6715 26.5066 32.1287 25.9554 32.1287H17.5717C17.0205 32.1287 16.5736 31.6715 16.5736 31.1075Z"/>
<path d="M33.341 31.1075C33.341 30.5434 33.7879 30.0862 34.3391 30.0862H42.7228C43.274 30.0862 43.7209 30.5434 43.7209 31.1075C43.7209 31.6715 43.274 32.1287 42.7228 32.1287H34.3391C33.7879 32.1287 33.341 31.6715 33.341 31.1075Z"/>
<path d="M50.1085 31.1075C50.1085 30.5434 50.5553 30.0862 51.1065 30.0862H59.4902C60.0414 30.0862 60.4883 30.5434 60.4883 31.1075C60.4883 31.6715 60.0414 32.1287 59.4902 32.1287H51.1065C50.5553 32.1287 50.1085 31.6715 50.1085 31.1075Z"/>
<path d="M66.8759 31.1075C66.8759 30.5434 67.3227 30.0862 67.8739 30.0862H76.2576C76.8089 30.0862 77.2557 30.5434 77.2557 31.1075C77.2557 31.6715 76.8089 32.1287 76.2576 32.1287H67.8739C67.3227 32.1287 66.8759 31.6715 66.8759 31.1075Z"/>
<path d="M3.69195 41.0069C3.45605 41.1068 3.25739 41.2988 3.15186 41.5592C3.05369 41.8015 3 42.0663 3 42.3414V45.9158C3 46.4799 3.44685 46.9371 3.99806 46.9371C4.54927 46.9371 4.99612 46.4799 4.99612 45.9158L4.99639 42.341L9.18797 42.3414C9.73919 42.3414 10.186 41.8841 10.186 41.3201C10.186 40.7561 9.73919 40.2988 9.18797 40.2988H4.99612C4.7273 40.2988 4.46851 40.3538 4.23176 40.4542C3.97728 40.5622 3.78963 40.7655 3.69195 41.0069Z"/>
<path d="M16.5736 41.3201C16.5736 40.7561 17.0205 40.2988 17.5717 40.2988H25.9554C26.5066 40.2988 26.9534 40.7561 26.9534 41.3201C26.9534 41.8841 26.5066 42.3414 25.9554 42.3414H17.5717C17.0205 42.3414 16.5736 41.8841 16.5736 41.3201Z"/>
<path d="M33.341 41.3201C33.341 40.7561 33.7879 40.2988 34.3391 40.2988H42.7228C43.274 40.2988 43.7209 40.7561 43.7209 41.3201C43.7209 41.8841 43.274 42.3414 42.7228 42.3414H34.3391C33.7879 42.3414 33.341 41.8841 33.341 41.3201Z"/>
<path d="M50.1085 41.3201C50.1085 40.7561 50.5553 40.2988 51.1065 40.2988H59.4902C60.0414 40.2988 60.4883 40.7561 60.4883 41.3201C60.4883 41.8841 60.0414 42.3414 59.4902 42.3414H51.1065C50.5553 42.3414 50.1085 41.8841 50.1085 41.3201Z"/>
<path d="M66.8759 41.3201C66.8759 40.7561 67.3227 40.2988 67.8739 40.2988H76.2576C76.8089 40.2988 77.2557 40.7561 77.2557 41.3201C77.2557 41.8841 76.8089 42.3414 76.2576 42.3414H67.8739C67.3227 42.3414 66.8759 41.8841 66.8759 41.3201Z"/>
<path d="M83.6433 41.3201C83.6433 40.7561 84.0901 40.2988 84.6413 40.2988H88.8332C89.102 40.2988 89.3608 40.3538 89.5976 40.4542C89.852 40.5622 90.0397 40.7655 90.1374 41.0069C90.3733 41.1068 90.5719 41.2988 90.6775 41.5592C90.7756 41.8015 90.8293 42.0663 90.8293 42.3414V45.9158C90.8293 46.4799 90.3825 46.9371 89.8313 46.9371C89.28 46.9371 88.8332 46.4799 88.8332 45.9158V42.3414H84.6413C84.0901 42.3414 83.6433 41.8841 83.6433 41.3201Z"/>
<path d="M3.99806 52.0434C4.54927 52.0434 4.99612 52.5007 4.99612 53.0647V56.6392H9.18797C9.73919 56.6392 10.186 57.0964 10.186 57.6604C10.186 58.2245 9.73919 58.6817 9.18797 58.6817H4.99612C4.7273 58.6817 4.46851 58.6268 4.23177 58.5263C3.97728 58.4183 3.78963 58.2151 3.69195 57.9737C3.45605 57.8737 3.25739 57.6817 3.15186 57.4213C3.05369 57.1791 3 56.9142 3 56.6392V53.0647C3 52.5007 3.44685 52.0434 3.99806 52.0434Z"/>
<path d="M89.8313 52.0434C90.3825 52.0434 90.8293 52.5007 90.8293 53.0647V56.6392C90.8293 56.9142 90.7756 57.1791 90.6775 57.4213C90.5719 57.6817 90.3733 57.8737 90.1374 57.9737C90.0397 58.2151 89.852 58.4183 89.5976 58.5263C89.3608 58.6268 89.102 58.6817 88.8332 58.6817H84.6413C84.0901 58.6817 83.6433 58.2245 83.6433 57.6604C83.6433 57.0964 84.0901 56.6392 84.6413 56.6392H88.8332V53.0647C88.8332 52.5007 89.28 52.0434 89.8313 52.0434Z"/>
<path d="M16.5736 57.6604C16.5736 57.0964 17.0205 56.6392 17.5717 56.6392H25.9554C26.5066 56.6392 26.9535 57.0964 26.9535 57.6604C26.9535 58.2245 26.5066 58.6817 25.9554 58.6817H17.5717C17.0205 58.6817 16.5736 58.2245 16.5736 57.6604Z"/>
<path d="M33.341 57.6604C33.341 57.0964 33.7879 56.6392 34.3391 56.6392H42.7228C43.274 56.6392 43.7209 57.0964 43.7209 57.6604C43.7209 58.2245 43.274 58.6817 42.7228 58.6817H34.3391C33.7879 58.6817 33.341 58.2245 33.341 57.6604Z"/>
<path d="M66.8759 57.6604C66.8759 57.0964 67.3227 56.6392 67.8739 56.6392H76.2576C76.8089 56.6392 77.2557 57.0964 77.2557 57.6604C77.2557 58.2245 76.8089 58.6817 76.2576 58.6817H67.8739C67.3227 58.6817 66.8759 58.2245 66.8759 57.6604Z"/>
<path fill-rule="evenodd" clip-rule="evenodd" d="M3.15186 68.1125C3.25739 67.8521 3.45605 67.66 3.69195 67.5601C3.78963 67.3187 3.97728 67.1154 4.23176 67.0074C4.46851 66.907 4.7273 66.8521 4.99612 66.8521H9.18797C9.73919 66.8521 10.186 67.3093 10.186 67.8733C10.186 68.4374 9.73919 68.8946 9.18797 68.8946H4.99612V72.469C4.99612 73.0331 4.54927 73.4903 3.99806 73.4903C3.44685 73.4903 3 73.0331 3 72.469V68.8946C3 68.6195 3.05369 68.3547 3.15186 68.1125Z"/>
<path d="M17.5717 66.8521C17.0205 66.8521 16.5736 67.3093 16.5736 67.8733C16.5736 68.4374 17.0205 68.8946 17.5717 68.8946H25.9554C26.5066 68.8946 26.9534 68.4374 26.9534 67.8733C26.9534 67.3093 26.5066 66.8521 25.9554 66.8521H17.5717Z"/>
<path d="M34.3391 66.8521C33.7879 66.8521 33.341 67.3093 33.341 67.8733C33.341 68.4374 33.7879 68.8946 34.3391 68.8946H42.7228C43.274 68.8946 43.7209 68.4374 43.7209 67.8733C43.7209 67.3093 43.274 66.8521 42.7228 66.8521H34.3391Z"/>
<path d="M51.1065 66.8521C50.5553 66.8521 50.1085 67.3093 50.1085 67.8733C50.1085 68.4374 50.5553 68.8946 51.1065 68.8946H59.4902C60.0414 68.8946 60.4883 68.4374 60.4883 67.8733C60.4883 67.3093 60.0414 66.8521 59.4902 66.8521H51.1065Z"/>
<path d="M67.8739 66.8521C67.3227 66.8521 66.8759 67.3093 66.8759 67.8733C66.8759 68.4374 67.3227 68.8946 67.8739 68.8946H76.2576C76.8089 68.8946 77.2557 68.4374 77.2557 67.8733C77.2557 67.3093 76.8089 66.8521 76.2576 66.8521H67.8739Z"/>
<path fill-rule="evenodd" clip-rule="evenodd" d="M84.6413 66.8521C84.0901 66.8521 83.6433 67.3093 83.6433 67.8733C83.6433 68.4374 84.0901 68.8946 84.6413 68.8946H88.8332V72.469C88.8332 73.0331 89.2801 73.4903 89.8313 73.4903C90.3825 73.4903 90.8293 73.0331 90.8293 72.469V68.8946C90.8293 68.6195 90.7756 68.3547 90.6775 68.1125C90.5719 67.8521 90.3733 67.66 90.1374 67.5601C90.0397 67.3187 89.852 67.1154 89.5976 67.0074C89.3608 66.907 89.102 66.8521 88.8332 66.8521H84.6413Z"/>
<path d="M4.99612 79.6179C4.99612 79.0539 4.54927 78.5967 3.99806 78.5967C3.44685 78.5967 3 79.0539 3 79.6179V83.1924C3 83.4675 3.05369 83.7323 3.15186 83.9745C3.25739 84.2349 3.45605 84.4269 3.69195 84.5269C3.78963 84.7683 3.97728 84.9716 4.23177 85.0795C4.46851 85.18 4.7273 85.2349 4.99612 85.2349H9.18797C9.73918 85.2349 10.186 84.7777 10.186 84.2137C10.186 83.6496 9.73918 83.1924 9.18797 83.1924H4.99612L4.99612 79.6179Z"/>
<path fill-rule="evenodd" clip-rule="evenodd" d="M90.8293 79.6179C90.8293 79.0539 90.3825 78.5967 89.8313 78.5967C89.2801 78.5967 88.8332 79.0539 88.8332 79.6179V83.1924H84.6413C84.0901 83.1924 83.6433 83.6496 83.6433 84.2137C83.6433 84.7777 84.0901 85.2349 84.6413 85.2349H88.8332C89.102 85.2349 89.3608 85.18 89.5976 85.0795C89.852 84.9716 90.0397 84.7683 90.1374 84.5269C90.3733 84.4269 90.5719 84.2349 90.6775 83.9745C90.7756 83.7323 90.8293 83.4675 90.8293 83.1924V79.6179Z"/>
<path d="M17.5717 83.1924C17.0205 83.1924 16.5736 83.6496 16.5736 84.2137C16.5736 84.7777 17.0205 85.2349 17.5717 85.2349H25.9554C26.5066 85.2349 26.9535 84.7777 26.9535 84.2137C26.9535 83.6496 26.5066 83.1924 25.9554 83.1924H17.5717Z"/>
<path d="M34.3391 83.1924C33.7879 83.1924 33.341 83.6496 33.341 84.2137C33.341 84.7777 33.7879 85.2349 34.3391 85.2349H42.7228C43.274 85.2349 43.7209 84.7777 43.7209 84.2137C43.7209 83.6496 43.274 83.1924 42.7228 83.1924H34.3391Z"/>
<path d="M51.1065 83.1924C50.5553 83.1924 50.1085 83.6496 50.1085 84.2137C50.1085 84.7777 50.5553 85.2349 51.1065 85.2349H59.4902C60.0414 85.2349 60.4883 84.7777 60.4883 84.2137C60.4883 83.6496 60.0414 83.1924 59.4902 83.1924H51.1065Z"/>
<path d="M67.8739 83.1924C67.3227 83.1924 66.8759 83.6496 66.8759 84.2137C66.8759 84.7777 67.3227 85.2349 67.8739 85.2349H76.2576C76.8089 85.2349 77.2557 84.7777 77.2557 84.2137C77.2557 83.6496 76.8089 83.1924 76.2576 83.1924H67.8739Z"/>
<path d="M43.8858 47.8486H11.1705C10.7267 47.8486 10.3159 47.9902 9.98085 48.2307C9.46465 48.6014 9.12842 49.2069 9.12842 49.8909V62.1461C9.12842 63.2742 10.0429 64.1887 11.171 64.1887H94.9152C95.338 64.1887 95.7309 64.0602 96.0568 63.8401C96.1247 63.7943 96.1897 63.7444 96.2515 63.6909C96.6838 63.3164 96.9573 62.7633 96.9573 62.1464V49.8912C96.9573 48.7631 96.0428 47.8486 94.9148 47.8486H58.8258L59.1542 49.3938C59.272 50.184 59.3298 50.982 59.3273 51.7809C59.2397 52.5062 59.0531 53.2161 58.7728 53.8907C58.2788 54.748 57.917 55.6749 57.6995 56.6401C57.6938 57.0983 57.7442 57.5554 57.8495 58.0013C57.9362 58.4155 58.0776 58.8165 58.2701 59.1934C57.7376 59.3674 57.188 59.4842 56.6308 59.5419C56.094 59.5724 55.2333 58.6688 54.9921 58.3858C54.8698 58.2322 54.6713 58.161 54.4793 58.2018C54.2874 58.2426 54.135 58.3884 54.0858 58.5784C53.9002 59.1472 53.4426 60.2056 53.0674 60.3411C52.4903 60.5376 51.4712 60.7301 50.4303 60.9268C49.9017 61.0266 49.3674 61.1275 48.8825 61.2306C48.8825 61.2306 48.8525 59.844 48.1907 59.4832C47.7858 59.2624 47.3796 59.0107 47.0124 58.7831C46.7795 58.6388 46.5622 58.5042 46.3711 58.3934L45.0042 57.4024C44.0702 56.844 43.3037 56.0447 42.785 55.0881C42.2388 53.8948 42.138 53.2894 42.2836 52.7291C42.453 52.256 42.7907 51.8618 43.2323 51.622C43.6087 51.4677 44.0176 51.4095 44.4221 51.4526C44.707 51.5066 44.9713 51.6384 45.1857 51.8336C45.2502 51.8905 45.3082 51.9429 45.359 51.9888C45.6187 52.2235 45.6916 52.2894 45.4996 51.9341C45.3932 51.7373 45.258 51.5735 45.1174 51.4032C44.9544 51.2059 44.7842 50.9997 44.6432 50.7231C44.2206 50.1384 43.9026 49.4849 43.7033 48.7916C43.662 48.4581 43.7303 48.1295 43.8858 47.8486Z" fill="currentColor"/>
<path fill-rule="evenodd" clip-rule="evenodd" d="M48.5104 46.039C48.3097 46.1618 48.1725 46.3654 48.1335 46.5964C48.1399 47.2276 48.2209 47.8558 48.375 48.4681C48.3804 48.4898 48.3848 48.5117 48.3882 48.5338L48.3886 48.5363C48.3922 48.5592 48.4098 48.6707 48.3854 48.7994C48.375 48.8545 48.3285 49.0803 48.1055 49.2418C47.8272 49.4435 47.5375 49.3717 47.4128 49.318C47.2982 49.2687 47.2248 49.2006 47.2004 49.1775C47.1672 49.1461 47.1426 49.117 47.1281 49.0991C47.0989 49.0629 47.0752 49.0277 47.0602 49.0047C47.0114 48.93 46.946 48.8143 46.8836 48.7041C46.8749 48.6888 46.8663 48.6736 46.8578 48.6586C46.7004 48.381 46.4992 48.0328 46.2864 47.7487C46.2365 47.6821 46.0639 47.5722 45.6936 47.5694C45.3395 47.5667 45.008 47.6683 44.851 47.7685C44.8399 47.7756 44.8285 47.7824 44.8169 47.7889C44.513 47.9595 44.3443 48.2969 44.3879 48.6403C44.5655 49.2401 44.8434 49.8055 45.21 50.3126C45.2311 50.3418 45.2499 50.3726 45.2662 50.4047C45.3606 50.5897 45.4749 50.7366 45.6236 50.9171C45.6356 50.9316 45.648 50.9467 45.6609 50.9622C45.7963 51.1257 45.9742 51.3406 46.1148 51.6008C46.1643 51.6924 46.2328 51.8204 46.2685 51.9314C46.2784 51.9618 46.3 52.0328 46.3059 52.123C46.3095 52.1778 46.3256 52.4607 46.087 52.6876C45.8194 52.942 45.504 52.8811 45.4211 52.8599C45.3179 52.8336 45.243 52.7898 45.216 52.7735C45.1225 52.7174 45.024 52.6291 44.9747 52.5849C44.9717 52.5821 44.9688 52.5795 44.9661 52.5771C44.9385 52.5525 44.9116 52.5281 44.8838 52.503C44.8354 52.4592 44.7842 52.413 44.722 52.3581L44.7138 52.3509C44.6018 52.2488 44.4651 52.178 44.3174 52.1454C44.0511 52.1216 43.7829 52.1591 43.5333 52.255C43.268 52.4088 43.0631 52.6488 42.953 52.9352C42.8807 53.2435 42.9047 53.6637 43.4109 54.7744C43.8695 55.6115 44.5433 56.3112 45.3628 56.8011C45.3806 56.8117 45.3978 56.8231 45.4146 56.8352L46.7529 57.8056C46.9463 57.9186 47.1642 58.0536 47.3866 58.1914C47.4523 58.2322 47.5185 58.2731 47.5845 58.3139C47.8933 58.5044 48.2118 58.6973 48.5253 58.8682C48.8538 59.0473 49.063 59.3296 49.1958 59.58C49.3304 59.8336 49.4134 60.1046 49.4664 60.3347C49.471 60.3549 49.4755 60.3751 49.4798 60.395C49.7543 60.3416 50.0345 60.2886 50.3107 60.2364C50.5646 60.1885 50.8151 60.1412 51.0544 60.0947C51.7753 59.9547 52.3826 59.8246 52.7701 59.7014C52.7791 59.6914 52.7907 59.6776 52.8049 59.6593C52.8684 59.5774 52.9448 59.4544 53.0269 59.2973C53.1871 58.9912 53.3309 58.6299 53.4146 58.3764C53.5374 57.9423 53.8906 57.6108 54.3333 57.5167C54.7799 57.4218 55.2416 57.5847 55.5298 57.9378C55.6351 58.0605 55.8777 58.3203 56.1452 58.5408C56.2816 58.6532 56.4067 58.7405 56.5097 58.7951C56.5623 58.823 56.595 58.8348 56.61 58.8396C56.8483 58.8132 57.0849 58.775 57.3191 58.725C57.2577 58.5375 57.2065 58.3465 57.1657 58.1531C57.0486 57.6544 56.9926 57.1432 56.999 56.631C56.9997 56.5822 57.0054 56.5335 57.0161 56.4859C57.2456 55.4673 57.6252 54.4885 58.1423 53.5816C58.3838 52.9905 58.5467 52.3702 58.6268 51.7367C58.6272 50.9941 58.5729 50.2524 58.4644 49.5177L57.8287 46.5269C57.8129 46.4526 57.8093 46.3762 57.8181 46.3007C57.8605 45.9354 57.5987 45.6049 57.2334 45.5626C56.8681 45.5202 56.5376 45.782 56.4952 46.1473C56.4888 46.2021 56.476 46.256 56.457 46.3078C56.3961 46.4738 56.3661 46.7042 56.352 46.9158C56.3487 46.9652 56.3464 47.0104 56.3444 47.0514C56.3441 47.0583 56.3438 47.0656 56.3434 47.073C56.342 47.1046 56.3403 47.1398 56.3386 47.1669C56.3375 47.1827 56.3355 47.2123 56.3312 47.2443C56.3292 47.2591 56.3245 47.2915 56.3147 47.3305C56.3098 47.3501 56.3005 47.3839 56.2843 47.424C56.2713 47.4564 56.2365 47.5377 56.1637 47.622C56.0887 47.7088 55.9093 47.8674 55.6269 47.8649C55.3609 47.8626 55.1933 47.7172 55.1312 47.6536C55.0227 47.5425 54.9793 47.4204 54.9747 47.4075L54.9743 47.4065C54.9603 47.3691 54.9506 47.3337 54.9448 47.3095C54.7601 46.6702 54.4822 46.0619 54.1201 45.5039C53.959 45.3816 53.7696 45.3016 53.5691 45.2715C53.2241 45.2872 52.8841 45.3607 52.5632 45.489C52.3989 45.5782 52.2638 45.712 52.1728 45.8742C52.1305 46.5031 52.1609 47.1348 52.2632 47.757C52.3241 48.1271 52.0825 48.4794 51.7153 48.5559C51.3481 48.6324 50.9859 48.406 50.8939 48.0424C50.7112 47.3205 50.4107 46.634 50.0047 46.0104C49.8269 45.871 49.6071 45.7944 49.3798 45.7939C49.0747 45.8056 48.7767 45.8896 48.5104 46.039ZM48.1822 61.2457L48.182 61.2406C48.1817 61.2342 48.1813 61.2232 48.1804 61.2082C48.1788 61.1781 48.1757 61.1324 48.1702 61.0755C48.159 60.9602 48.1385 60.807 48.1021 60.6489C48.0649 60.4873 48.0163 60.3439 47.9591 60.2361C47.9001 60.125 47.8574 60.0986 47.8551 60.0974C47.5068 59.9075 47.1617 59.6981 46.8493 59.5053C46.7762 59.4602 46.7054 59.4163 46.6369 59.3739C46.4059 59.2308 46.2009 59.1037 46.0196 58.9987C45.9989 58.9867 45.9789 58.9737 45.9596 58.9597L44.6172 57.9864C43.5877 57.3644 42.7426 56.479 42.1691 55.4213C42.1616 55.4075 42.1545 55.3934 42.148 55.379C41.5886 54.1569 41.3958 53.3596 41.6055 52.5526C41.6108 52.5324 41.617 52.5124 41.624 52.4927C41.8514 51.8576 42.3048 51.3284 42.8977 51.0064C42.9199 50.9943 42.9429 50.9835 42.9663 50.9738C43.241 50.8613 43.529 50.7886 43.8219 50.7568C43.4766 50.2067 43.2098 49.6102 43.03 48.9846C43.0227 48.9592 43.0169 48.9335 43.0125 48.9075C42.8555 47.976 43.2962 47.0463 44.1148 46.5776C44.5455 46.3089 45.1484 46.1652 45.7042 46.1694C46.0241 46.1719 46.4028 46.2253 46.7493 46.3856C46.8516 45.7402 47.2346 45.1712 47.7975 44.834L47.812 44.8255C48.28 44.5602 48.8054 44.4122 49.343 44.3943L49.3619 44.3939C49.9698 44.39 50.5568 44.6153 51.006 45.0249C51.0158 45.0339 51.0253 45.0431 51.0346 45.0525C51.2615 44.7049 51.5764 44.4202 51.9505 44.2295C51.9673 44.2209 51.9846 44.213 52.0021 44.2058C52.5038 43.9994 53.0388 43.8857 53.5811 43.8702C53.6137 43.8692 53.6463 43.8706 53.6787 43.8742C54.208 43.9332 54.7065 44.1528 55.1073 44.5036C55.1532 44.5438 55.1937 44.5898 55.2277 44.6406C55.3128 44.7674 55.3942 44.8966 55.4718 45.0278C55.8945 44.4337 56.6193 44.0819 57.3947 44.1719C58.486 44.2985 59.2796 45.2539 59.2195 46.3365L59.8384 49.2479C59.8414 49.2619 59.8439 49.2761 59.846 49.2903C59.969 50.1153 60.0294 50.9485 60.0267 51.7827C60.0266 51.81 60.025 51.8373 60.0217 51.8644C59.9264 52.6532 59.7235 53.4252 59.4187 54.1589C59.4071 54.1867 59.3938 54.2137 59.3788 54.2398C58.9323 55.0145 58.6021 55.8505 58.3986 56.7209C58.3994 57.0976 58.4436 57.4731 58.5302 57.8399L58.5342 57.8575C58.6081 58.211 58.7288 58.5531 58.893 58.8747C58.9861 59.057 58.9947 59.2709 58.9166 59.4601C58.8385 59.6493 58.6816 59.7948 58.487 59.8584C57.9072 60.0479 57.3089 60.175 56.7022 60.2377C56.6915 60.2389 56.6807 60.2397 56.67 60.2403C56.3471 60.2587 56.0563 60.1394 55.8536 60.0319C55.6367 59.9168 55.4309 59.7663 55.2549 59.6212C55.0245 59.4314 54.8146 59.2254 54.658 59.06C54.5561 59.3343 54.4202 59.6544 54.2674 59.9463C54.1651 60.1419 54.0451 60.3445 53.9115 60.5169C53.7963 60.6655 53.595 60.8942 53.3046 60.9991L53.2926 61.0034C52.8042 61.1697 52.0696 61.3237 51.3213 61.469C51.0661 61.5186 50.8071 61.5675 50.549 61.6162C50.0251 61.7152 49.5047 61.8135 49.0275 61.9149C48.8235 61.9583 48.6109 61.9084 48.4474 61.7789C48.2843 61.6498 48.1871 61.4548 48.1822 61.2469L48.1822 61.2457Z"/>
<path d="M56.4134 55.2137L55.4356 50.6132C55.377 50.3379 55.1058 50.1622 54.8298 50.2209C54.5538 50.2795 54.3775 50.5503 54.436 50.8257L55.4138 55.4262C55.4724 55.7015 55.7436 55.8772 56.0196 55.8185C56.2956 55.7599 56.472 55.4891 56.4134 55.2137Z"/>
<path d="M53.7747 55.7727L52.7697 51.1756C52.7097 50.9012 52.4376 50.7276 52.1619 50.7879C51.8862 50.8481 51.7113 51.1194 51.7713 51.3938L52.7763 55.9909C52.8363 56.2653 53.1084 56.4389 53.3841 56.3786C53.6598 56.3184 53.8347 56.0471 53.7747 55.7727Z"/>
<path d="M49.1071 51.9653L50.1096 56.5505C50.1703 56.8281 50.443 57.0044 50.7186 56.9441C50.9943 56.8838 51.1686 56.6098 51.1079 56.3321L50.1054 51.7469C50.0447 51.4692 49.772 51.293 49.4963 51.3533C49.2206 51.4136 49.0464 51.6876 49.1071 51.9653Z"/>
</svg>
