<svg width="100" height="100" viewBox="0 0 100 100" xmlns="http://www.w3.org/2000/svg">
<path d="M87.1241 39.1347C89.86 41.9319 89.86 46.4025 87.1241 49.1997L87.0779 49.2459L57.7739 78.54L28.4699 49.236L28.4237 49.1898C25.6648 46.402 25.6648 41.9126 28.4237 39.1248L28.4699 39.0786C32.3554 35.1918 37.626 33.008 43.1219 33.008C48.6177 33.008 53.8884 35.1918 57.7739 39.0786C65.8696 30.9954 78.9821 30.9954 87.0779 39.0786L87.1241 39.1347Z" fill="currentColor"/>
<path fill-rule="evenodd" clip-rule="evenodd" d="M47.8708 98.8944C48.1888 99.2115 48.6196 99.3895 49.0687 99.3894C49.5168 99.3893 49.9465 99.2113 50.2633 98.8944L79.564 69.5772C88.2908 60.8202 88.2908 46.6542 79.564 37.8972C71.2572 29.5974 57.9562 29.1053 49.0588 36.7686C39.9329 28.8614 26.1835 29.6034 17.9617 38.447C9.73978 47.2905 10 61.0574 18.5503 69.5838L47.8708 98.8944ZM16.829 46.4606C19.7731 39.3495 26.7104 34.7118 34.4068 34.7094V34.7028C39.4624 34.6942 44.3111 36.7097 47.8708 40.2996C48.5317 40.9596 49.6024 40.9596 50.2633 40.2996C57.7008 32.8797 69.7406 32.8797 77.1781 40.2996C84.587 47.7352 84.587 59.7623 77.1781 67.1979L49.0687 95.3106L20.956 67.1979C15.5137 61.7559 13.8849 53.5716 16.829 46.4606Z"/>
<path fill-rule="evenodd" clip-rule="evenodd" d="M47.8709 79.7445C48.1878 80.0637 48.619 80.2431 49.0688 80.2428C49.5177 80.2433 49.948 80.0638 50.2634 79.7445L79.5641 50.4273C88.2909 41.6703 88.2909 27.5043 79.5641 18.7473C71.2573 10.4475 57.9563 9.95537 49.0589 17.6187C39.9278 9.7488 26.2083 10.5076 18.0008 19.3365C9.79339 28.1654 10.0362 41.9038 18.5504 50.4372L47.8709 79.7445ZM16.8277 27.3113C19.7721 20.2002 26.7104 15.5633 34.4069 15.5628V15.5562C39.4618 15.5478 44.31 17.5619 47.8709 21.1497C48.1875 21.4683 48.618 21.6475 49.0672 21.6475C49.5163 21.6475 49.9469 21.4683 50.2634 21.1497C57.7009 13.7298 69.7407 13.7298 77.1782 21.1497C84.5871 28.5853 84.5871 40.6124 77.1782 48.048L49.0688 76.1607L20.9561 48.048C15.5128 42.6068 13.8833 34.4223 16.8277 27.3113Z"/>
<path d="M90.4471 86.3049H84.5962V80.4573C84.5962 79.5223 83.8383 78.7644 82.9033 78.7644C81.9684 78.7644 81.2104 79.5223 81.2104 80.4573V86.3049H75.3628C74.4279 86.3049 73.6699 87.0628 73.6699 87.9978C73.6699 88.9328 74.4279 89.6907 75.3628 89.6907H81.2104V95.5383C81.2104 96.4733 81.9684 97.2312 82.9033 97.2312C83.8383 97.2312 84.5962 96.4733 84.5962 95.5383V89.6907H90.4471C91.3821 89.6907 92.14 88.9328 92.14 87.9978C92.14 87.0628 91.3821 86.3049 90.4471 86.3049Z"/>
<path d="M18.6855 5.27999H15.3855V1.97999C15.3855 1.04503 14.6276 0.287094 13.6926 0.287094C12.7577 0.287094 11.9997 1.04503 11.9997 1.97999V5.27999H8.69974C7.76477 5.27999 7.00684 6.03793 7.00684 6.97289C7.00684 7.90786 7.76477 8.66579 8.69974 8.66579H11.9997V11.9658C11.9997 12.9008 12.7577 13.6587 13.6926 13.6587C14.6276 13.6587 15.3855 12.9008 15.3855 11.9658V8.66579H18.6855C19.6205 8.66579 20.3784 7.90786 20.3784 6.97289C20.3784 6.03793 19.6205 5.27999 18.6855 5.27999Z" fill="currentColor"/>
</svg>
