<svg width="100" height="100" viewBox="0 0 100 100" xmlns="http://www.w3.org/2000/svg">
<path d="M18.8589 30.1311L30.3707 37.5074L13.7725 63.4114L2.2607 56.0351L18.8589 30.1311Z" fill="currentColor"/>
<path d="M99.1606 56.0313L87.6488 63.4075L71.0506 37.5035L82.5625 30.1272L99.1606 56.0313Z" fill="currentColor"/>
<path d="M35.7035 50.6074C33.2303 50.595 31.2307 48.589 31.2261 46.1159V39.6187C31.2272 39.1003 31.5051 38.6221 31.9549 38.3644L42.2995 32.4096C42.5193 32.2823 42.7687 32.2151 43.0227 32.2147H70.3391C71.1394 32.2147 71.7882 32.8635 71.7882 33.6639C71.7882 34.4642 71.1394 35.113 70.3391 35.113H43.4097L34.1244 40.4548V46.1046C34.1254 46.6112 34.3673 47.0873 34.776 47.3867C35.1848 47.6862 35.7116 47.7733 36.195 47.6215L38.1526 47.0057C38.8167 46.7996 39.2683 46.184 39.2656 45.4887V42.2966C39.2656 41.4963 39.9144 40.8475 40.7148 40.8475H51.2091C52.0095 40.8475 52.6583 41.4963 52.6583 42.2966C52.6614 44.8649 54.7426 46.9461 57.3108 46.9492H66.3504C66.8681 46.9492 67.3465 47.2254 67.6054 47.6738C67.8642 48.1221 67.8642 48.6745 67.6054 49.1229C67.3465 49.5713 66.8681 49.8475 66.3504 49.8475H57.3108C53.701 49.8418 50.5977 47.2873 49.8984 43.7458H42.1639V45.5C42.1694 47.4613 40.8954 49.197 39.0227 49.7797L37.0651 50.3983C36.6245 50.5372 36.1654 50.6077 35.7035 50.6074Z"/>
<path d="M49.3274 35.1102H30.5082C29.7079 35.1102 29.0591 34.4614 29.0591 33.6611C29.0591 32.8607 29.7079 32.2119 30.5082 32.2119H49.3331C50.1334 32.2119 50.7822 32.8607 50.7822 33.6611C50.7822 34.4614 50.1334 35.1102 49.3331 35.1102H49.3274Z"/>
<path d="M77.0648 65.9774C76.1841 65.9769 75.3221 65.7229 74.5818 65.2457L58.7145 55.0763C58.2786 54.7967 58.0248 54.3058 58.0489 53.7884C58.073 53.2711 58.3713 52.8059 58.8314 52.5681C59.2915 52.3303 59.8435 52.356 60.2795 52.6356L76.1467 62.8051C76.9473 63.3174 78.0114 63.0849 78.5253 62.2853L79.5733 60.6497C80.0835 59.8482 79.8499 58.785 79.0507 58.2712L65.5563 49.6243C64.8824 49.1921 64.6863 48.2954 65.1185 47.6215C65.5507 46.9475 66.4473 46.7514 67.1213 47.1836L80.6157 55.8305C82.7605 57.2102 83.3857 60.0647 82.014 62.2147L80.966 63.8474C80.3063 64.8818 79.2609 65.6099 78.062 65.87C77.7343 65.9408 77.4001 65.9768 77.0648 65.9774V65.9774Z"/>
<path d="M68.7908 70.4972C67.91 70.4971 67.048 70.2431 66.3078 69.7656L54.2372 62.0481C53.5632 61.6159 53.3672 60.7192 53.7993 60.0453C54.2315 59.3713 55.1282 59.1752 55.8021 59.6074L67.8615 67.3362C68.6629 67.8488 69.7279 67.6164 70.2428 66.8164L71.288 65.1808C71.5348 64.7966 71.6187 64.33 71.5212 63.8838C71.4237 63.4377 71.1528 63.0486 70.7682 62.8023L61.079 56.5876C60.4219 56.1495 60.2367 55.2659 60.6624 54.6007C61.0882 53.9356 61.9681 53.7338 62.6411 54.1469L72.3304 60.3616C74.478 61.7395 75.1038 64.5964 73.7287 66.7458L72.6807 68.3786C72.0228 69.4134 70.978 70.1418 69.7795 70.4012C69.4542 70.4673 69.1228 70.4995 68.7908 70.4972Z"/>
<path d="M59.8049 74.5848C58.9234 74.586 58.0603 74.333 57.319 73.856L49.7767 69.0226C49.1196 68.5845 48.9344 67.7009 49.3601 67.0357C49.7858 66.3706 50.6658 66.1688 51.3388 66.582L58.8812 71.4153C59.6829 71.9262 60.7467 71.694 61.2625 70.8955L62.3077 69.2599C62.5546 68.8757 62.6385 68.4091 62.541 67.9629C62.4435 67.5167 62.1726 67.1277 61.788 66.8814L56.6185 63.5678C56.1717 63.2936 55.9079 62.7994 55.9286 62.2756C55.9493 61.7518 56.2513 61.28 56.7183 61.0419C57.1853 60.8037 57.7445 60.8363 58.1806 61.1271L63.3501 64.4407C65.5027 65.8139 66.135 68.6718 64.7625 70.8249L63.7173 72.4577C62.8633 73.7897 61.3872 74.5923 59.8049 74.5848V74.5848Z"/>
<path d="M51.5284 79.1215C50.6471 79.121 49.7845 78.868 49.0425 78.3927L46.551 76.7966C46.115 76.5171 45.8613 76.0261 45.8854 75.5088C45.9095 74.9914 46.2078 74.5262 46.6679 74.2884C47.1279 74.0506 47.68 74.0764 48.1159 74.3559L50.6075 75.952C51.4087 76.4638 52.4731 76.2299 52.986 75.4294L54.034 73.7966C54.5464 72.9961 54.3138 71.9319 53.5142 71.4181L52.147 70.5424C51.473 70.1102 51.277 69.2135 51.7092 68.5395C52.1413 67.8656 53.038 67.6695 53.712 68.1017L55.0764 68.9774C57.2212 70.3571 57.8464 73.2116 56.4747 75.3616L55.4267 76.9943C54.5757 78.3226 53.1058 79.1246 51.5284 79.1215V79.1215Z"/>
<path fill-rule="evenodd" clip-rule="evenodd" d="M41.1471 78.7062C41.8976 79.1895 42.7714 79.4465 43.6641 79.4463C44.0045 79.4423 44.3436 79.4015 44.6753 79.3248C45.89 79.0628 46.949 78.3252 47.616 77.2768L48.2234 76.3474C49.6154 74.1703 48.9838 71.2773 46.8109 69.8785L45.8674 69.274C44.822 68.603 43.5527 68.3748 42.339 68.6397C41.1253 68.9046 40.0665 69.6408 39.3957 70.6864L38.7912 71.6299C37.3972 73.8076 38.0291 76.7027 40.2036 78.1017L41.1471 78.7062ZM42.7092 76.2655L41.7657 75.661C40.9373 75.1279 40.696 74.0252 41.2262 73.1949L41.8307 72.2514C42.0852 71.8517 42.4886 71.5699 42.9515 71.4687C43.4145 71.3674 43.8986 71.4549 44.2968 71.7118L45.2403 72.3135C46.0705 72.8467 46.312 73.9516 45.7799 74.7824L45.1753 75.7259C44.6423 76.5544 43.5396 76.7957 42.7092 76.2655Z"/>
<path fill-rule="evenodd" clip-rule="evenodd" d="M34.1131 74.2006C34.9551 74.7436 35.936 75.032 36.938 75.0311C37.3179 75.0312 37.6967 74.9905 38.0679 74.9096C39.4283 74.616 40.6145 73.7899 41.3617 72.6158L44.5651 67.6328C46.1272 65.1935 45.4164 61.9497 42.9775 60.387L42.308 59.9576C39.869 58.3992 36.6287 59.1094 35.0651 61.5452L31.8617 66.5424C30.3118 68.9771 31.0185 72.2064 33.4436 73.7712L34.1131 74.2006ZM37.503 63.0932C37.9344 62.4193 38.6801 62.0124 39.4804 62.0141L39.4832 62.0226C39.9309 62.0245 40.3689 62.1539 40.7459 62.3955L41.4154 62.8249C42.5049 63.5245 42.8221 64.9742 42.1244 66.065L38.921 71.0622C38.587 71.5877 38.0572 71.9583 37.449 72.0919C36.8408 72.2255 36.2045 72.1111 35.6809 71.774L35.0114 71.3447C34.4832 71.0095 34.1108 70.4771 33.9771 69.8659C33.8434 69.2548 33.9595 68.6155 34.2996 68.0904L37.503 63.0932Z"/>
<path fill-rule="evenodd" clip-rule="evenodd" d="M27.0511 69.6666C27.8933 70.2092 28.8741 70.4976 29.8759 70.4971C30.255 70.4961 30.6329 70.4544 31.0031 70.3728C32.3632 70.0786 33.5492 69.2527 34.2969 68.0791L36.3929 64.8079C37.1441 63.637 37.3991 62.2156 37.1019 60.8566C36.8046 59.4977 35.9795 58.3125 34.8082 57.5621L34.1387 57.1327C31.6993 55.5707 28.4556 56.2814 26.8929 58.7203L24.7969 61.9915C24.0457 63.1624 23.7907 64.5838 24.0879 65.9427C24.3851 67.3017 25.2102 68.4869 26.3816 69.2373L27.0511 69.6666ZM28.6358 67.2373L27.9663 66.8079C26.8805 66.1134 26.5577 64.6734 27.2432 63.5819L29.3392 60.3079C30.0389 59.2184 31.4886 58.9012 32.5793 59.5988L33.2488 60.0282C34.3383 60.7279 34.6556 62.1776 33.9579 63.2683L31.8618 66.5423C31.1591 67.6196 29.7197 67.9297 28.6358 67.2373Z"/>
<path fill-rule="evenodd" clip-rule="evenodd" d="M19.9915 65.1469C20.8337 65.6895 21.8145 65.9779 22.8164 65.9774C23.1963 65.9772 23.5751 65.9365 23.9463 65.856C26.0161 65.3978 27.6066 63.739 27.9774 61.6518C28.3483 59.5647 27.4265 57.4595 25.6412 56.3164L24.9717 55.887C22.5375 54.4062 19.3661 55.1406 17.8305 57.5407C16.2949 59.9408 16.9573 63.128 19.322 64.7175L19.9915 65.1469ZM21.6554 58.0113C21.8215 57.9755 21.991 57.9575 22.161 57.9577V57.9633C22.6081 57.9613 23.0464 58.0878 23.4237 58.3277L24.0932 58.7571C25.1813 59.4577 25.4983 60.9062 24.8023 61.9972C24.1026 63.0867 22.6529 63.4039 21.5621 62.7062L20.8927 62.2769C20.0935 61.7656 19.6812 60.8231 19.8482 59.8891C20.0152 58.9552 20.7285 58.214 21.6554 58.0113Z"/>
<path d="M20.712 58.2486C20.0483 58.2531 19.4664 57.8062 19.2995 57.1639L18.6357 54.6215L16.2769 53.1102C15.8302 52.8359 15.5664 52.3418 15.5871 51.818C15.6078 51.2942 15.9097 50.8224 16.3767 50.5842C16.8437 50.3461 17.4029 50.3787 17.8391 50.6695L20.6639 52.4859C20.9693 52.6813 21.1908 52.9834 21.2854 53.3333L22.0933 56.4407C22.2939 57.2151 21.8303 58.0058 21.0566 58.2091C20.9437 58.2356 20.828 58.2489 20.712 58.2486V58.2486Z"/>
<path fill-rule="evenodd" clip-rule="evenodd" d="M12.274 59.3616C12.5069 59.5131 12.7787 59.5935 13.0565 59.5932C13.1604 59.5903 13.2636 59.5761 13.3644 59.5509C13.7407 59.4682 14.0689 59.2396 14.2768 58.9153L30.8785 33.0198C31.3091 32.3464 31.1132 31.4517 30.4407 31.0198L18.9266 23.6413C18.6029 23.4336 18.2101 23.3631 17.8344 23.4452C17.4588 23.5273 17.1312 23.7554 16.9237 24.0791L0.322034 49.9831C-0.108231 50.658 0.088882 51.5539 0.762712 51.9859L12.274 59.3616ZM12.6186 56.1413L3.5452 50.3277L18.5819 26.8644L27.6525 32.678L12.6186 56.1413Z"/>
<path fill-rule="evenodd" clip-rule="evenodd" d="M12.274 59.3616C12.5069 59.5131 12.7787 59.5935 13.0565 59.5932C13.1604 59.5903 13.2636 59.5761 13.3644 59.5509C13.7407 59.4682 14.0689 59.2396 14.2768 58.9153L30.8785 33.0198C31.3091 32.3464 31.1132 31.4517 30.4407 31.0198L18.9266 23.6413C18.6029 23.4336 18.2101 23.3631 17.8344 23.4452C17.4588 23.5273 17.1312 23.7554 16.9237 24.0791L0.322034 49.9831C-0.108231 50.658 0.088882 51.5539 0.762712 51.9859L12.274 59.3616ZM12.6186 56.1413L3.5452 50.3277L18.5819 26.8644L27.6525 32.678L12.6186 56.1413Z"/>
<path d="M79.305 58.1554C79.1809 58.1561 79.0574 58.1399 78.9377 58.1074C78.5657 58.0104 78.2474 57.7696 78.053 57.438C77.8586 57.1063 77.8039 56.711 77.901 56.339L78.6835 53.3333C78.7781 52.9834 78.9996 52.6813 79.305 52.4859L82.1298 50.6695C82.5658 50.39 83.1178 50.3642 83.5779 50.602C84.038 50.8398 84.3363 51.305 84.3604 51.8224C84.3845 52.3397 84.1308 52.8306 83.6948 53.1102L81.3558 54.613L80.7146 57.0706C80.5479 57.712 79.9676 58.1586 79.305 58.1554V58.1554Z"/>
<path fill-rule="evenodd" clip-rule="evenodd" d="M85.7174 58.9237C85.9834 59.3404 86.4434 59.5928 86.9377 59.5932C87.2165 59.5942 87.4895 59.5137 87.723 59.3616L99.2372 51.9858C99.91 51.5529 100.106 50.6572 99.675 49.983L83.0762 24.0791C82.6432 23.4062 81.7475 23.2104 81.0733 23.6412L69.5564 31.0197C69.2323 31.2262 69.0038 31.5531 68.9211 31.9283C68.8384 32.3035 68.9084 32.6962 69.1157 33.0197L85.7174 58.9237ZM87.3756 56.1412L72.3389 32.6779L81.4123 26.8644L96.4462 50.3277L87.3756 56.1412Z"/>
<path d="M41.7089 21.3927H33.1552C32.3549 21.3927 31.7061 20.7439 31.7061 19.9435C31.7061 19.1432 32.3549 18.4944 33.1552 18.4944H41.7089C42.5092 18.4944 43.158 19.1432 43.158 19.9435C43.158 20.7439 42.5092 21.3927 41.7089 21.3927V21.3927Z" fill="currentColor"/>
<path d="M37.4321 25.6695C36.6317 25.6695 35.9829 25.0207 35.9829 24.2204V15.6667C35.9829 14.8663 36.6317 14.2175 37.4321 14.2175C38.2324 14.2175 38.8812 14.8663 38.8812 15.6667V24.2204C38.8812 24.6047 38.7285 24.9733 38.4568 25.2451C38.185 25.5168 37.8164 25.6695 37.4321 25.6695V25.6695Z" fill="currentColor"/>
<path d="M87.7484 80.3503H74.8388C74.0385 80.3503 73.3896 79.7015 73.3896 78.9012C73.3896 78.1008 74.0385 77.452 74.8388 77.452H87.7484C88.5488 77.452 89.1976 78.1008 89.1976 78.9012C89.1976 79.7015 88.5488 80.3503 87.7484 80.3503V80.3503Z"/>
<path d="M81.2939 86.8051C80.4935 86.8051 79.8447 86.1563 79.8447 85.3559V72.4463C79.8447 71.646 80.4935 70.9972 81.2939 70.9972C82.0942 70.9972 82.743 71.646 82.743 72.4463V85.3559C82.743 86.1563 82.0942 86.8051 81.2939 86.8051Z"/>
</svg>
