<svg width="99" height="100" viewBox="0 0 99 100" xmlns="http://www.w3.org/2000/svg">
<path d="M35.7875 27.9469C37.6053 27.7074 39.4482 28.1349 40.975 29.15C42.1063 27.275 43.6562 25.15 45.5844 24.7094L31.0063 10L18.5625 22.125L27.3625 30.8531C30.1562 29.8125 32.8 28.3094 35.7875 27.9469Z" fill="currentColor"/>
<path d="M96.0619 75.6719L76.1432 55.5594C75.9557 55.75 75.7588 55.9438 75.5588 56.1406C73.8963 57.7781 72.2463 59.4 70.715 61.1625C68.4775 63.7344 65.04 65.7875 61.7525 63.7781C60.3619 62.9313 59.5432 61.5094 59.0213 60.0125C58.5369 58.6219 58.6432 56.7469 57.3619 55.8281C56.0807 54.9094 54.5775 54.4781 53.4025 53.4125C52.8085 52.9028 52.3528 52.2515 52.0775 51.5188C51.9647 51.223 51.8748 50.919 51.8088 50.6094C51.5143 50.6574 51.2165 50.6815 50.9182 50.6813C48.9963 50.7469 47.3057 50.0219 45.7744 48.8969C45.5338 48.7219 45.2932 48.5531 45.0557 48.3844L84.3932 87.4063C85.1828 88.193 86.2538 88.6321 87.3684 88.6262C88.4831 88.6204 89.5493 88.17 90.3307 87.375L96.0619 81.5625C97.6764 79.9309 97.6764 77.3036 96.0619 75.6719Z" fill="currentColor"/>
<path d="M46.9148 5.03129H43.7898V1.90629C43.7898 1.02091 43.0721 0.303162 42.1867 0.303162C41.3013 0.303162 40.5836 1.02091 40.5836 1.90629V5.03129H37.4586C36.5732 5.03129 35.8555 5.74903 35.8555 6.63441C35.8555 7.51979 36.5732 8.23754 37.4586 8.23754H40.5836V11.3625C40.5836 12.2479 41.3013 12.9657 42.1867 12.9657C43.0721 12.9657 43.7898 12.2479 43.7898 11.3625V8.23754H46.9148C47.8002 8.23754 48.518 7.51979 48.518 6.63441C48.518 5.74903 47.8002 5.03129 46.9148 5.03129Z" fill="currentColor"/>
<path d="M68.7369 89.5094H63.1994V83.9687C63.1994 83.0833 62.4817 82.3656 61.5963 82.3656C60.7109 82.3656 59.9932 83.0833 59.9932 83.9687V89.5094H54.4557C53.5703 89.5094 52.8525 90.2271 52.8525 91.1125C52.8525 91.9979 53.5703 92.7156 54.4557 92.7156H59.9932V98.2531C59.9932 99.1385 60.7109 99.8562 61.5963 99.8562C62.4817 99.8562 63.1994 99.1385 63.1994 98.2531V92.7156H68.7369C69.6223 92.7156 70.34 91.9979 70.34 91.1125C70.34 90.2271 69.6223 89.5094 68.7369 89.5094Z"/>
<path d="M51.1587 79.6312C49.6305 81.1594 47.9555 81.3969 46.1805 81.6469C44.4899 81.8844 42.5712 82.1562 41.0493 83.675L32.9618 91.7656C32.3748 92.3975 32.3929 93.3804 33.0027 93.9903C33.6126 94.6001 34.5956 94.6182 35.2274 94.0312L43.3149 85.9375C44.043 85.2094 45.0493 85.0375 46.6274 84.8156C48.6399 84.5312 51.1399 84.1906 53.4274 81.8937L61.5149 73.8031L59.2493 71.5375L51.1587 79.6312Z"/>
<path fill-rule="evenodd" clip-rule="evenodd" d="M90.6716 74.6875L75.0466 58.7969L77.7247 56.1188C80.0393 53.8007 80.0393 50.0462 77.7247 47.7281L76.0747 46.0813C75.0732 45.0744 73.7412 44.4639 72.3247 44.3625C72.681 42.25 72.0997 39.8719 70.6028 38.375L68.956 36.725C68.3873 36.1514 67.6834 35.7301 66.9091 35.5C67.3903 34.4234 67.4755 33.2114 67.1497 32.0781C66.744 30.6143 65.963 29.2818 64.8841 28.2125L63.2372 26.5656C62.0747 25.4063 60.8372 24.8469 59.5591 24.8906C58.6107 24.9446 57.7013 25.2869 56.9528 25.8719C56.5037 24.6664 55.8003 23.5718 54.8903 22.6625L53.2497 21.0281C52.0903 19.8688 50.8591 19.3125 49.5716 19.3531C48.3435 19.4 47.181 19.9781 46.0153 21.1531L41.7216 25.4469L25.1247 8.85938C24.972 8.70568 24.7889 8.58542 24.5872 8.50626L4.35908 0.415635C3.76369 0.180193 3.08534 0.320821 2.63262 0.773546C2.17989 1.22627 2.03926 1.90462 2.2747 2.50001L10.3622 22.7219C10.4414 22.9236 10.5616 23.1066 10.7153 23.2594L21.2528 33.7938C19.7341 35.9969 18.3341 39.0344 18.3341 42.3469V59.9438L4.58408 75.6656C4.00073 76.3327 4.06859 77.3463 4.73564 77.9297C5.4027 78.513 6.41635 78.4452 6.9997 77.7781L21.1528 61.6C21.4095 61.3081 21.5506 60.9325 21.5497 60.5438V42.3469C21.5497 38.2844 24.5216 34.3188 26.0372 33.2031C27.6791 32.08 29.4171 31.1043 31.231 30.2875L31.3216 30.2469C32.514 29.6742 33.774 29.2542 35.0716 28.9969C37.4341 28.6406 39.0997 29.1969 40.8247 30.9219L55.1997 45.2969L55.8872 45.9844C54.7713 47.1348 53.3332 47.9203 51.7622 48.2375C50.0216 48.6125 47.4872 48.5906 45.2778 46.3813L38.2497 39.35C37.6179 38.763 36.6349 38.7811 36.025 39.391C35.4152 40.0008 35.3971 40.9838 35.9841 41.6156C38.2341 43.8688 39.9653 48.3438 40.3903 53.0188C40.8591 58.1531 39.6997 62.525 37.2185 65.0063C36.8132 65.411 36.6546 66.0012 36.8025 66.5545C36.9503 67.1078 37.3821 67.5402 37.9353 67.6889C38.4884 67.8375 39.0788 67.6797 39.4841 67.275C42.0747 64.6844 43.5466 60.6563 43.6841 55.9344L76.5591 88.8125C78.7652 91.0171 82.3404 91.0171 84.5466 88.8125L90.6716 82.6875C92.8699 80.4824 92.8699 76.9145 90.6716 74.7094V74.6875ZM82.2903 70.7344L78.581 74.4406L68.9716 64.8438C69.1272 64.717 69.2764 64.5824 69.4185 64.4406L72.781 61.075L82.2903 70.7344ZM76.2585 51.9281C76.2585 51.2048 75.9709 50.5111 75.4591 50L73.8122 48.375C73.3011 47.8632 72.6074 47.5756 71.8841 47.5756C71.1607 47.5756 70.4671 47.8632 69.956 48.375L61.6466 56.6844C60.5842 57.7503 60.5842 59.4747 61.6466 60.5406L63.2935 62.1875C63.8046 62.6993 64.4982 62.9869 65.2216 62.9869C65.9449 62.9869 66.6386 62.6993 67.1497 62.1875L75.4591 53.8563C75.9709 53.3451 76.2585 52.6515 76.2585 51.9281ZM59.6716 28.125C60.106 28.125 60.6091 28.5156 60.9591 28.8625L62.606 30.5094C63.2782 31.1689 63.7699 31.9899 64.0341 32.8938C64.3022 33.9507 63.8985 34.3544 63.7631 34.4897L63.7622 34.4906L60.7497 37.5L56.3435 41.9063L50.8403 36.4031L58.2497 28.9688C58.8091 28.4375 59.2966 28.125 59.6716 28.125ZM12.4372 19.2719L21.131 10.5781L6.64033 4.78126L12.4372 19.2719ZM24.131 30.6219C23.8451 30.8372 23.5737 31.0711 23.3185 31.3219L14.1185 22.125L17.9185 18.325L27.9185 28.325C26.606 29.0061 25.3406 29.7745 24.131 30.625V30.6219ZM31.0185 26.8906C32.1636 26.3986 33.3608 26.038 34.5872 25.8156C35.5413 25.6644 36.5113 25.6413 37.4716 25.7469L23.9841 12.2594L20.1841 16.0594L31.0185 26.8906ZM43.0653 28.6281L48.2685 23.425C48.8185 22.875 49.306 22.5781 49.6778 22.5625C50.1153 22.5438 50.6153 22.9563 50.9685 23.3L52.6153 24.95C53.2874 25.6091 53.7782 26.4303 54.0403 27.3344C54.3091 28.3906 53.906 28.7969 53.7716 28.9281L48.5622 34.125L43.081 28.6438L43.0653 28.6281ZM59.0528 44.6156C59.5 45.0628 59.6431 45.7307 59.4185 46.3219V46.3156C58.7122 48.1688 56.6872 49.8844 54.231 50.8375C54.3077 50.9587 54.3978 51.0709 54.4997 51.1719L56.1685 52.825C56.7924 53.4444 57.5884 53.8615 58.4528 54.0219C59.0785 54.1665 59.7355 54.0013 60.2185 53.5781L68.5278 45.2688C69.5372 44.2563 69.4341 41.7594 68.3341 40.6594L66.6872 39.0125C66.2812 38.599 65.6879 38.4293 65.1247 38.5656C64.3203 38.7473 63.5876 39.1626 63.0185 39.7594L58.6091 44.1719L59.0528 44.6156ZM43.0185 48.6594C45.1162 50.8057 48.0758 51.8819 51.0622 51.5844C51.3003 52.287 51.7032 52.9225 52.2372 53.4375L53.8841 55.0844C54.959 56.1532 56.3293 56.8759 57.8185 57.1594C57.314 59.1787 57.9073 61.3145 59.381 62.7844L61.031 64.4344C62.141 65.55 63.6509 66.1755 65.2247 66.1719C65.3997 66.1719 65.5747 66.1719 65.7466 66.1469L76.3185 76.7156L72.6622 80.3719L43.3747 51.0938C43.2435 50.2125 43.0622 49.3469 42.8747 48.5063L43.0185 48.6594ZM82.2685 86.5375L88.3966 80.4094C89.3508 79.4581 89.3564 77.9144 88.4091 76.9563L84.5497 73.0344L74.9372 82.6438L78.831 86.5375C79.7831 87.4796 81.3163 87.4796 82.2685 86.5375Z"/>
</svg>
