<svg width="100" height="100" viewBox="0 0 100 100" xmlns="http://www.w3.org/2000/svg">
<path d="M22.239 13.4082L19.7492 18.4549L14.1807 19.2624L18.2098 23.1895L17.2594 28.7347L22.239 26.1167L27.2186 28.7347L26.2681 23.1895L30.2973 19.2624L24.7288 18.4549L22.239 13.4082V13.4082Z" fill="currentColor"/>
<path d="M91.8718 64.0145L89.382 69.0612L83.8135 69.8688L87.8426 73.7959L86.8922 79.3411L91.8718 76.723L96.8514 79.3411L95.9009 73.7959L99.9301 69.8688L94.3616 69.0612L91.8718 64.0145V64.0145Z" fill="currentColor"/>
<path d="M53.2565 65.0233C59.6972 65.0233 64.9183 59.8022 64.9183 53.3615C64.9183 46.9209 59.6972 41.6997 53.2565 41.6997C46.8159 41.6997 41.5947 46.9209 41.5947 53.3615C41.5947 59.8022 46.8159 65.0233 53.2565 65.0233Z" fill="currentColor"/>
<path fill-rule="evenodd" clip-rule="evenodd" d="M13.0976 26.6814C13.3821 27.0187 13.8009 27.2132 14.2422 27.2128C14.4847 27.2092 14.7227 27.1472 14.9361 27.032L19.2218 24.7871L23.5046 27.0408C24.0089 27.3045 24.619 27.2598 25.0795 26.9254C25.5399 26.591 25.7713 26.0247 25.6766 25.4635L24.8573 20.6939L28.3297 17.3148C28.7374 16.9172 28.8839 16.3225 28.7075 15.781C28.5311 15.2394 28.0625 14.8451 27.4987 14.7638L22.7116 14.067L20.5687 9.72884C20.3163 9.21879 19.7967 8.89576 19.2276 8.89502C18.6583 8.89507 18.1384 9.21831 17.8865 9.72884L15.7436 14.067L10.9477 14.7638C10.3845 14.846 9.91678 15.2407 9.74107 15.7821C9.56536 16.3234 9.71215 16.9176 10.1197 17.3148L13.5862 20.6939L12.767 25.4635C12.6921 25.8984 12.8131 26.3441 13.0976 26.6814ZM16.2364 19.1137L14.3763 17.3003L16.9448 16.9154C17.4332 16.8456 17.8555 16.5389 18.0731 16.0962L19.2218 13.7638L20.3705 16.0962C20.5875 16.5382 21.0086 16.8447 21.4958 16.9154L24.0643 17.2974L22.2072 19.1108C21.8543 19.4541 21.6929 19.949 21.7757 20.4344L22.2159 22.9912L19.9186 21.7842C19.4825 21.5541 18.961 21.5541 18.525 21.7842L16.2276 22.9941L16.6649 20.4373C16.75 19.9523 16.5896 19.4567 16.2364 19.1137Z"/>
<path fill-rule="evenodd" clip-rule="evenodd" d="M93.1369 77.6472C93.3515 77.761 93.5908 77.8201 93.8337 77.8192H93.8483C94.2864 77.8145 94.7005 77.6178 94.981 77.2812C95.2616 76.9445 95.3803 76.5018 95.306 76.07L94.4897 71.3003L97.9561 67.9213C98.3616 67.5227 98.5066 66.9291 98.3305 66.3885C98.1544 65.848 97.6876 65.4536 97.1252 65.3703L92.3352 64.6764L90.1952 60.3353C89.9432 59.8248 89.4233 59.5017 88.8541 59.5017C88.2849 59.5017 87.765 59.8248 87.513 60.3353L85.3701 64.6764L80.5801 65.3703C80.0169 65.4524 79.5491 65.8471 79.3734 66.3885C79.1977 66.9299 79.3445 67.524 79.7521 67.9213L83.2185 71.3003L82.3993 76.07C82.303 76.6309 82.5335 77.1978 82.9938 77.5325C83.4541 77.8672 84.0644 77.9117 84.5684 77.6472L88.8541 75.3965L93.1369 77.6472ZM89.548 72.3936C89.3341 72.2808 89.0959 72.2217 88.8541 72.2216C88.6114 72.2221 88.3724 72.2811 88.1573 72.3936L85.8599 73.6006L86.2973 71.0437C86.3818 70.5588 86.2214 70.0634 85.8687 69.7201L84.0086 67.9067L86.5771 67.5335C87.0647 67.4638 87.4867 67.1585 87.7054 66.7172L88.8541 64.3848L90.0028 66.7172C90.2202 67.1584 90.6413 67.4639 91.1282 67.5335L93.6967 67.9067L91.8395 69.7201C91.4857 70.0628 91.3242 70.5583 91.408 71.0437L91.8483 73.6006L89.548 72.3936Z"/>
<path fill-rule="evenodd" clip-rule="evenodd" d="M77.003 96.4402C77.2183 96.5518 77.4573 96.6098 77.6998 96.6093C78.0201 96.6094 78.3323 96.5084 78.5919 96.3207C79.0457 95.9836 79.2711 95.4199 79.175 94.863L73.761 63.3032L96.6911 40.9533C97.0987 40.5561 97.2454 39.9619 97.0697 39.4205C96.894 38.8792 96.4263 38.4845 95.8631 38.4023L64.1721 33.7959L50.003 5.0787C49.7495 4.57017 49.2301 4.24878 48.6619 4.24878C48.0937 4.24878 47.5743 4.57017 47.3208 5.0787L33.1488 33.7959L1.45783 38.4023C0.895887 38.4853 0.429462 38.8795 0.253918 39.4197C0.078374 39.9599 0.224015 40.553 0.629839 40.9504L23.5599 63.3032L18.1488 94.863C18.0525 95.4239 18.283 95.9908 18.7433 96.3255C19.2036 96.6602 19.8139 96.7047 20.3179 96.4402L48.6619 81.551L77.003 96.4402ZM49.3558 78.516C49.1419 78.4032 48.9037 78.3442 48.6619 78.344C48.4185 78.3472 48.1794 78.4092 47.9651 78.5248L21.6065 92.3819L26.6415 63.0321C26.7245 62.5472 26.5644 62.0526 26.2129 61.7084L4.88931 40.9242L34.3558 36.6414C34.8427 36.5717 35.2638 36.2662 35.4812 35.8251L48.6707 9.13409L61.8485 35.8367C62.0667 36.2772 62.4874 36.5824 62.9739 36.653L92.4199 40.9242L71.1109 61.7084C70.7588 62.0523 70.5976 62.5468 70.6794 63.0321L75.7144 92.3732L49.3558 78.516Z"/>
<path fill-rule="evenodd" clip-rule="evenodd" d="M36.4975 53.807C38.5377 58.7232 43.3389 61.9259 48.6617 61.9212C55.9211 61.9084 61.801 56.0232 61.8074 48.7638C61.8074 43.441 58.6005 38.6426 53.6824 36.6068C48.7644 34.5709 43.1043 35.6988 39.3422 39.4642C35.5801 43.2296 34.4573 48.8908 36.4975 53.807ZM39.267 44.872C40.8413 41.0729 44.5493 38.5964 48.6617 38.5976V38.6005C54.2709 38.6069 58.8169 43.1516 58.8249 48.7609C58.8261 52.8732 56.3496 56.5813 52.5505 58.1555C48.7514 59.7298 44.3781 58.8602 41.4702 55.9523C38.5623 53.0445 37.6927 48.6711 39.267 44.872Z"/>
<path d="M64.6679 89.7581C63.8419 89.7581 63.1723 89.0884 63.1723 88.2624V75.7202C63.1691 71.4718 59.7268 68.0282 55.4784 68.0234H41.8458C37.5969 68.0282 34.1538 71.4713 34.149 75.7202V88.2566C34.149 89.0826 33.4794 89.7522 32.6533 89.7522C31.8273 89.7522 31.1577 89.0826 31.1577 88.2566V75.7202C31.1641 69.82 35.9456 65.0385 41.8458 65.0321H55.4784C61.3775 65.0401 66.1571 69.8211 66.1635 75.7202V88.2566C66.1651 88.6543 66.0082 89.0362 65.7276 89.3179C65.4469 89.5997 65.0656 89.7581 64.6679 89.7581V89.7581Z"/>
<path d="M76.7143 25.6473H67.8892C67.0632 25.6473 66.3936 24.9776 66.3936 24.1516C66.3936 23.3256 67.0632 22.656 67.8892 22.656H76.7143C77.5403 22.656 78.2099 23.3256 78.2099 24.1516C78.2099 24.9776 77.5403 25.6473 76.7143 25.6473Z" fill="currentColor"/>
<path d="M72.3032 30.0612C71.4772 30.0612 70.8076 29.3916 70.8076 28.5656V19.7434C70.8076 18.9174 71.4772 18.2478 72.3032 18.2478C73.1293 18.2478 73.7989 18.9174 73.7989 19.7434V28.5714C73.7957 29.3952 73.127 30.0612 72.3032 30.0612V30.0612Z" fill="currentColor"/>
<path d="M16.309 70.1574H2.98537C2.15936 70.1574 1.48975 69.4878 1.48975 68.6618C1.48975 67.8358 2.15936 67.1661 2.98537 67.1661H16.309C17.135 67.1661 17.8046 67.8358 17.8046 68.6618C17.8046 69.4878 17.135 70.1574 16.309 70.1574Z"/>
<path d="M9.64754 76.8192C8.82609 76.8128 8.16355 76.1451 8.16357 75.3236V61.9971C8.16357 61.1711 8.83319 60.5015 9.6592 60.5015C10.4852 60.5015 11.1548 61.1711 11.1548 61.9971V75.3236C11.1548 75.7223 10.9957 76.1045 10.7127 76.3853C10.4296 76.6662 10.0462 76.8224 9.64754 76.8192V76.8192Z"/>
</svg>
