<svg width="100" height="100" viewBox="0 0 100 100" xmlns="http://www.w3.org/2000/svg">
<path d="M38.3877 45.3468C38.3877 53.0992 44.686 59.3838 52.4384 59.3838C60.1907 59.3838 66.489 53.0992 66.489 45.3468C66.489 37.5945 60.1907 31.3099 52.4384 31.3099C44.686 31.3099 38.3877 37.5945 38.3877 45.3468Z" fill="currentColor"/>
<path d="M16.2927 15.3041H12.6285V11.6531C12.6285 11.2147 12.4541 10.7942 12.1438 10.4842C11.8335 10.1742 11.4126 10 10.9737 10C10.5349 10 10.114 10.1742 9.80366 10.4842C9.49334 10.7942 9.319 11.2147 9.319 11.6531V15.3041H5.65473C5.21587 15.3041 4.79498 15.4783 4.48466 15.7883C4.17434 16.0983 4 16.5188 4 16.9572C4 17.3957 4.17434 17.8161 4.48466 18.1262C4.79498 18.4362 5.21587 18.6103 5.65473 18.6103H9.319V22.2871C9.319 22.7256 9.49334 23.146 9.80366 23.4561C10.114 23.7661 10.5349 23.9402 10.9737 23.9402C11.4126 23.9402 11.8335 23.7661 12.1438 23.4561C12.4541 23.146 12.6285 22.7256 12.6285 22.2871V18.6103H16.2927C16.7316 18.6103 17.1525 18.4362 17.4628 18.1262C17.7731 17.8161 17.9475 17.3957 17.9475 16.9572C17.9475 16.5188 17.7731 16.0983 17.4628 15.7883C17.1525 15.4783 16.7316 15.3041 16.2927 15.3041Z" fill="currentColor"/>
<path d="M47.1458 24.4526C44.0396 24.4526 41.0031 25.3728 38.4204 27.0969C35.8376 28.8209 33.8246 31.2714 32.6359 34.1383C31.4472 37.0053 31.1362 40.1601 31.7422 43.2036C32.3482 46.2472 33.844 49.0429 36.0404 51.2372C38.2369 53.4315 41.0353 54.9258 44.0819 55.5312C47.1284 56.1366 50.2862 55.8259 53.156 54.6383C56.0258 53.4508 58.4787 51.4398 60.2044 48.8596C61.9301 46.2793 62.8512 43.2458 62.8512 40.1427C62.8461 35.983 61.1898 31.9951 58.2456 29.0538C55.3014 26.1124 51.3096 24.4578 47.1458 24.4526ZM47.1458 52.5265C44.6942 52.5265 42.2975 51.8002 40.259 50.4394C38.2205 49.0787 36.6317 47.1446 35.6935 44.8817C34.7553 42.6189 34.5098 40.1289 34.9881 37.7267C35.4664 35.3245 36.647 33.1179 38.3806 31.386C40.1142 29.6541 42.3229 28.4746 44.7275 27.9968C47.1321 27.519 49.6245 27.7642 51.8896 28.7015C54.1546 29.6388 56.0906 31.2261 57.4527 33.2626C58.8148 35.2991 59.5418 37.6934 59.5418 40.1427C59.5384 43.426 58.2313 46.5739 55.9073 48.8956C53.5834 51.2172 50.4324 52.523 47.1458 52.5265Z"/>
<path d="M94.3455 78.6795H87.9717V72.3152C87.9717 71.8768 87.7974 71.4563 87.4871 71.1463C87.1768 70.8363 86.7559 70.6621 86.317 70.6621C85.8781 70.6621 85.4573 70.8363 85.1469 71.1463C84.8366 71.4563 84.6623 71.8768 84.6623 72.3152V78.6795H78.2885C78.0712 78.6795 77.856 78.7223 77.6553 78.8054C77.4545 78.8884 77.2721 79.0102 77.1184 79.1637C76.9648 79.3172 76.8429 79.4994 76.7597 79.7C76.6766 79.9006 76.6338 80.1155 76.6338 80.3326C76.6338 80.5497 76.6766 80.7647 76.7597 80.9652C76.8429 81.1658 76.9648 81.348 77.1184 81.5015C77.2721 81.6551 77.4545 81.7768 77.6553 81.8599C77.856 81.943 78.0712 81.9857 78.2885 81.9857H84.6623V88.3468C84.6623 88.7852 84.8366 89.2057 85.1469 89.5157C85.4573 89.8258 85.8781 89.9999 86.317 89.9999C86.7559 89.9999 87.1768 89.8258 87.4871 89.5157C87.7974 89.2057 87.9717 88.7852 87.9717 88.3468V81.989H94.3455C94.7844 81.989 95.2053 81.8148 95.5156 81.5048C95.8259 81.1948 96.0002 80.7743 96.0002 80.3359C96.0002 79.8974 95.8259 79.4769 95.5156 79.1669C95.2053 78.8569 94.7844 78.6827 94.3455 78.6827V78.6795Z"/>
<path d="M47.1458 10.4672C39.4729 10.4672 31.9723 12.7403 25.5925 16.999C19.2128 21.2577 14.2404 27.3108 11.3043 34.3927C8.36816 41.4747 7.60009 49.2674 9.09724 56.7855C10.5944 64.3035 14.2895 71.2092 19.7153 76.6292C25.1411 82.0493 32.0538 85.7402 39.5794 87.2352C47.1049 88.7303 54.9052 87.9623 61.9939 85.0285C69.0826 82.0946 75.1412 77.1266 79.4035 70.7528C83.6659 64.3789 85.9406 56.8855 85.94 49.2201C85.928 38.9453 81.8368 29.0948 74.564 21.8297C67.2912 14.5646 57.4307 10.4783 47.1458 10.4672ZM29.476 79.9686C29.4993 79.8551 29.5112 79.7396 29.5115 79.6238V72.5892C29.514 70.0936 30.5075 67.7009 32.2739 65.9362C34.0403 64.1716 36.4353 63.179 38.9334 63.1765H55.3581C57.8562 63.179 60.2512 64.1716 62.0176 65.9362C63.784 67.7009 64.7775 70.0936 64.7801 72.5892V79.6109C64.7804 79.7267 64.7923 79.8422 64.8156 79.9557C59.44 83.0446 53.3471 84.6702 47.1458 84.6702C40.9444 84.6702 34.8516 83.0446 29.476 79.9557V79.9686ZM68.0895 77.8321V72.5892C68.0853 69.2172 66.7426 65.9846 64.3559 63.6003C61.9692 61.2159 58.7334 59.8745 55.3581 59.8703H38.9334C35.5579 59.8737 32.3216 61.2148 29.9347 63.5993C27.5479 65.9838 26.2054 69.217 26.202 72.5892V77.8192C20.1612 73.4061 15.6718 67.1979 13.3756 60.0822C11.0795 52.9665 11.0942 45.3078 13.4178 38.2009C15.7413 31.0941 20.2546 24.9032 26.3124 20.5134C32.3701 16.1236 39.6621 13.7597 47.1458 13.7597C54.6294 13.7597 61.9214 16.1236 67.9792 20.5134C74.0369 24.9032 78.5503 31.0941 80.8738 38.2009C83.1973 45.3078 83.212 52.9665 80.9159 60.0822C78.6198 67.1979 74.1303 73.4061 68.0895 77.8192V77.8321Z"/>
</svg>
