<svg width="99" height="100" viewBox="0 0 99 100" xmlns="http://www.w3.org/2000/svg">
<path d="M84.5754 13.5297H74.6182C73.6862 13.5297 72.9307 12.7741 72.9307 11.8422C72.9307 10.9102 73.6862 10.1547 74.6182 10.1547H84.5754C85.5074 10.1547 86.2629 10.9102 86.2629 11.8422C86.2629 12.7741 85.5074 13.5297 84.5754 13.5297Z" fill="currentColor"/>
<path d="M79.5957 18.51C78.6637 18.51 77.9082 17.7545 77.9082 16.8225V6.86523C77.9082 5.93325 78.6637 5.17773 79.5957 5.17773C80.5277 5.17773 81.2832 5.93325 81.2832 6.86523V16.8225C81.2832 17.7545 80.5277 18.51 79.5957 18.51Z" fill="currentColor"/>
<path d="M23.6149 86.4836H8.58203C7.65005 86.4836 6.89453 85.7281 6.89453 84.7961C6.89453 83.8642 7.65005 83.1086 8.58203 83.1086H23.6149C24.5469 83.1086 25.3024 83.8642 25.3024 84.7961C25.3024 85.7281 24.5469 86.4836 23.6149 86.4836Z"/>
<path d="M16.0986 94.0001C15.1667 94.0001 14.4111 93.2445 14.4111 92.3126V77.2797C14.4111 76.3477 15.1667 75.5922 16.0986 75.5922C17.0306 75.5922 17.7861 76.3477 17.7861 77.2797V92.3126C17.7861 92.7601 17.6083 93.1893 17.2919 93.5058C16.9754 93.8223 16.5462 94.0001 16.0986 94.0001Z"/>
<path d="M61.0132 55.0165C61.0117 60.6645 64.2647 65.8078 69.3684 68.227C59.5529 76.8015 45.2067 77.7279 34.3699 70.4871C23.533 63.2463 18.8986 49.6377 23.0639 37.288C27.2292 24.9382 39.1591 16.9164 52.1677 17.7182C65.1763 18.5199 76.0308 27.946 78.648 40.7138C74.3372 39.8085 69.848 40.8938 66.4269 43.6685C63.0058 46.4431 61.0172 50.6116 61.0132 55.0165Z" fill="currentColor"/>
<path d="M44.9471 71.2237C28.1778 71.2227 14.5476 57.6975 14.417 40.9286C14.2863 24.1598 27.7042 10.4239 44.4714 10.1616C61.2387 9.8994 75.0796 23.209 75.4734 39.9737C75.4875 40.5766 75.1789 41.1412 74.6638 41.4549C74.1488 41.7685 73.5055 41.7836 72.9763 41.4943C72.4472 41.2051 72.1125 40.6555 72.0984 40.0527C71.7966 27.401 62.7963 16.6347 50.3985 14.0949C38.0007 11.5551 25.492 17.9152 20.2397 29.4291C14.9875 40.943 18.384 54.5585 28.4289 62.2563C38.4737 69.9541 52.5041 69.6937 62.2563 61.6283C62.9748 61.0342 64.0389 61.1351 64.6329 61.8536C65.227 62.5722 65.1261 63.6362 64.4076 64.2303C58.93 68.7511 52.0493 71.2238 44.9471 71.2237Z"/>
<path d="M44.9473 42.3783C44.0153 42.3783 43.2598 41.6228 43.2598 40.6908V23.6842C43.2598 23.0813 43.5814 22.5242 44.1035 22.2228C44.6256 21.9213 45.2689 21.9213 45.791 22.2228C46.3131 22.5242 46.6348 23.0813 46.6348 23.6842V40.6908C46.6348 41.1383 46.457 41.5676 46.1405 41.884C45.824 42.2005 45.3948 42.3783 44.9473 42.3783Z"/>
<path d="M44.9473 42.3783C44.0153 42.3783 43.2598 41.6228 43.2598 40.6908V23.6842C43.2598 23.0813 43.5814 22.5242 44.1035 22.2228C44.6256 21.9213 45.2689 21.9213 45.791 22.2228C46.3131 22.5242 46.6348 23.0813 46.6348 23.6842V40.6908C46.6348 41.1383 46.457 41.5676 46.1405 41.884C45.824 42.2005 45.3948 42.3783 44.9473 42.3783Z"/>
<path d="M34.8812 50.7631C34.1695 50.7641 33.5337 50.3184 33.2919 49.649C33.0501 48.9796 33.2542 48.2304 33.8023 47.7763L43.8713 39.3947C44.3337 39.0022 44.971 38.888 45.5409 39.0956C46.1107 39.3031 46.5254 39.8004 46.6271 40.3983C46.7287 40.9962 46.5017 41.6026 46.0325 41.9868L35.9602 50.3717C35.6577 50.625 35.2757 50.7636 34.8812 50.7631Z"/>
<path d="M6.21729 42.3783C5.2853 42.3783 4.52979 41.6228 4.52979 40.6908C4.55335 18.3785 22.6352 0.296641 44.9475 0.273071C45.8795 0.273071 46.635 1.02859 46.635 1.96057C46.635 2.89255 45.8795 3.64807 44.9475 3.64807C24.5004 3.67345 7.93164 20.2437 7.90807 40.6908C7.90808 41.139 7.72983 41.5687 7.41265 41.8852C7.09548 42.2018 6.66541 42.3792 6.21729 42.3783Z"/>
<path fill-rule="evenodd" clip-rule="evenodd" d="M60.9331 61.2588C63.4579 67.3518 69.4047 71.3237 76.0001 71.3224C85.0006 71.3115 92.2937 64.017 92.3027 55.0165C92.3027 48.4211 88.3296 42.4751 82.2361 39.9515C76.1426 37.4278 69.1288 38.8235 64.4656 43.4876C59.8024 48.1518 58.4082 55.1658 60.9331 61.2588ZM64.0508 50.0862C66.0531 45.254 70.7694 42.104 76.0001 42.1053C83.1368 42.1125 88.9205 47.8962 88.9277 55.0329C88.9291 60.2636 85.779 64.9799 80.9468 66.9822C76.1145 68.9845 70.5519 67.8784 66.8533 64.1798C63.1546 60.4811 62.0485 54.9185 64.0508 50.0862Z"/>
<path fill-rule="evenodd" clip-rule="evenodd" d="M55.9346 99.8915H96.0662C96.9956 99.897 97.7545 99.1499 97.7635 98.2205V88.8159C97.7563 81.5234 91.8454 75.6141 84.553 75.6086H67.4543C60.1639 75.6177 54.2561 81.5255 54.2471 88.8159V98.204C54.2471 99.136 55.0026 99.8915 55.9346 99.8915ZM94.3885 96.5165H57.6352V88.8159C57.6334 83.3823 62.0339 78.9745 67.4675 78.9672H84.553C89.9879 78.9726 94.3903 83.381 94.3885 88.8159V96.5165Z"/>
<path d="M6.21714 43.1612C5.73962 43.1612 5.28437 42.9593 4.96385 42.6053L1.54609 38.8158C0.930781 38.1226 0.989743 37.0629 1.67815 36.4422C2.36656 35.8216 3.42671 35.8724 4.05267 36.5559L6.3553 39.0921L8.89149 36.7895C9.58468 36.1742 10.6444 36.2331 11.265 36.9216C11.8857 37.61 11.8349 38.6701 11.1514 39.2961L7.34872 42.727C7.03815 43.0066 6.63503 43.1613 6.21714 43.1612Z"/>
</svg>
