<svg width="99" height="100" viewBox="0 0 99 100" xmlns="http://www.w3.org/2000/svg">
<path d="M64.1724 6.73981L60.6019 11.6332L54.5337 11.4765L58.0979 16.3699L56.072 22.0752L61.8477 20.2069L66.6639 23.8903L66.667 17.8401L71.6688 14.4138L65.8963 12.5392L64.1724 6.73981Z" fill="currentColor"/>
<path d="M33.759 29.0878L32.724 33.4922L28.4961 35.1411L32.3812 37.4859L32.6485 42.0031L36.0838 39.0439L40.4784 40.1849L38.7168 36.0157L41.1642 32.2038L36.6374 32.5862L33.759 29.0878Z" fill="currentColor"/>
<path d="M10.8765 72.6489H40.4375L50.309 58.5768H20.748L10.8765 72.6489Z" fill="currentColor"/>
<path d="M89.7949 72.6489H60.2338L50.3623 58.5768H79.9233L89.7949 72.6489Z" fill="currentColor"/>
<path d="M92.837 94.9843H83.3115C82.4203 94.9843 81.6978 94.2643 81.6978 93.3762C81.6978 92.488 82.4203 91.768 83.3115 91.768H92.837C93.7283 91.768 94.4508 92.488 94.4508 93.3762C94.4508 94.2643 93.7283 94.9843 92.837 94.9843Z" fill="currentColor"/>
<path d="M88.0741 99.7148C87.1939 99.7062 86.4829 98.9963 86.4761 98.1191V88.6144C86.4761 87.7263 87.1986 87.0063 88.0899 87.0063C88.9811 87.0063 89.7037 87.7263 89.7037 88.6144V98.1191C89.7003 98.5462 89.5267 98.9544 89.221 99.2537C88.9153 99.5531 88.5027 99.7189 88.0741 99.7148Z" fill="currentColor"/>
<path d="M21.0437 26.7994H6.66116C5.76988 26.7994 5.04736 26.0794 5.04736 25.1912C5.04736 24.3031 5.76988 23.5831 6.66116 23.5831H21.0437C21.935 23.5831 22.6575 24.3031 22.6575 25.1912C22.6575 26.0794 21.935 26.7994 21.0437 26.7994Z"/>
<path d="M13.8491 33.9624C12.9579 33.9624 12.2354 33.2424 12.2354 32.3542V18.0282C12.2354 17.14 12.9579 16.42 13.8491 16.42C14.7404 16.42 15.4629 17.14 15.4629 18.0282V32.3542C15.4629 33.2424 14.7404 33.9624 13.8491 33.9624Z"/>
<path d="M46.487 94.9843H16.9165C16.0253 94.9843 15.3027 94.2643 15.3027 93.3762V67.5141C15.3027 66.6259 16.0253 65.906 16.9165 65.906C17.8078 65.906 18.5303 66.6259 18.5303 67.5141V91.768H44.8669V53.4263C44.8669 52.5382 45.5894 51.8182 46.4807 51.8182C47.372 51.8182 48.0945 52.5382 48.0945 53.4263V93.3605C48.0987 93.7886 47.9314 94.2008 47.6297 94.5056C47.3279 94.8104 46.9167 94.9827 46.487 94.9843Z"/>
<path fill-rule="evenodd" clip-rule="evenodd" d="M7.04175 69.1066H36.6122C37.1396 69.1067 37.6339 68.8504 37.9366 68.4201L47.8144 54.348C48.1591 53.8568 48.2011 53.2155 47.9235 52.6839C47.6458 52.1523 47.0946 51.8186 46.4932 51.8182H16.9227C16.3964 51.8191 15.9035 52.0752 15.6015 52.5047L5.72052 66.5768C5.37586 67.0679 5.33383 67.7093 5.61147 68.2409C5.88912 68.7725 6.44036 69.1061 7.04175 69.1066ZM35.7723 65.8903H10.1498L17.7626 55.0345H43.3788L35.7723 65.8903Z"/>
<path d="M76.0949 94.9843H46.5244C45.6332 94.9843 44.9106 94.2643 44.9106 93.3762C44.9106 92.488 45.6332 91.768 46.5244 91.768H74.4717V67.4984C74.4717 66.6103 75.1942 65.8903 76.0855 65.8903C76.9767 65.8903 77.6993 66.6103 77.6993 67.4984V93.3605C77.7035 93.7881 77.5366 94.1997 77.2355 94.5044C76.9345 94.8091 76.524 94.9818 76.0949 94.9843Z"/>
<path fill-rule="evenodd" clip-rule="evenodd" d="M56.3993 69.1066H85.9666C86.5686 69.1073 87.1209 68.7741 87.3993 68.2422C87.6778 67.7104 87.636 67.0684 87.291 66.5768L77.4195 52.5047C77.1168 52.0743 76.6225 51.8181 76.0951 51.8182H46.5247C45.9233 51.8186 45.372 52.1523 45.0944 52.6839C44.8167 53.2155 44.8588 53.8568 45.2034 54.348L55.0749 68.4201C55.3776 68.8504 55.8719 69.1067 56.3993 69.1066ZM82.8743 65.8903H57.2487L49.6327 55.0345H75.2584L82.8743 65.8903Z"/>
<path fill-rule="evenodd" clip-rule="evenodd" d="M63.0619 22.5517C63.3447 22.7671 63.6906 22.8838 64.0465 22.884C64.2963 22.8874 64.5432 22.8316 64.7669 22.721C65.3183 22.4507 65.6673 21.8913 65.6666 21.279V16.0752L69.9701 13.1285C70.4771 12.7819 70.7424 12.1783 70.6542 11.5719C70.566 10.9655 70.1397 10.4617 69.5548 10.2727L64.5908 8.66145L63.1059 3.67399C62.9316 3.08666 62.4377 2.64899 61.832 2.54517C61.2262 2.44135 60.6139 2.68941 60.2527 3.18496L57.1824 7.39185L51.9604 7.25706C51.3468 7.24191 50.7777 7.57494 50.4921 8.1163C50.2064 8.65766 50.2537 9.31363 50.614 9.80878L53.6749 14.0314L51.9321 18.9373C51.7273 19.5144 51.869 20.1573 52.2976 20.5957C52.7262 21.0341 53.3674 21.1921 53.9517 21.0031L58.9189 19.3856L63.0619 22.5517ZM60.2087 16.3198C59.9271 16.1045 59.5821 15.9877 59.2272 15.9875C59.0542 15.9923 58.8831 16.0251 58.7207 16.0846L56.0562 16.9436L57 14.3135C57.1765 13.8141 57.0966 13.2603 56.786 12.8307L55.1408 10.5737L57.9406 10.6458C58.4717 10.6616 58.9761 10.4138 59.287 9.98433L60.9353 7.72728L61.7312 10.4044C61.8826 10.9108 62.2743 11.3106 62.7788 11.4734L65.4401 12.3386L63.1343 13.906C62.6959 14.2047 62.4334 14.6996 62.4327 15.2288V18.0188L60.2087 16.3198Z"/>
<path fill-rule="evenodd" clip-rule="evenodd" d="M29.3988 40.8746C29.5982 40.9573 29.812 40.9999 30.028 41C30.4271 41.0089 30.8151 40.8691 31.1164 40.6081L33.913 38.2037L37.4866 39.1442C38.084 39.3015 38.719 39.1044 39.1211 38.637C39.5232 38.1695 39.6215 37.514 39.3741 36.9498L37.9396 33.558L39.9309 30.4577C40.2624 29.9422 40.2715 29.284 39.9543 28.7597C39.6372 28.2354 39.0488 27.936 38.4367 27.9874L34.7561 28.3009L32.4156 25.4577C32.0276 24.977 31.3979 24.7599 30.7948 24.8988C30.1917 25.0377 29.7214 25.5081 29.5844 26.1097L28.7413 29.6928L25.303 31.0345C24.7321 31.2588 24.338 31.7858 24.2853 32.3951C24.2326 33.0043 24.5305 33.5907 25.0545 33.9091L28.2003 35.8119L28.4173 39.4859C28.4532 40.097 28.8335 40.6351 29.3988 40.8746ZM30.5973 33.5047L29.5089 32.8495L30.7012 32.373C31.1951 32.1786 31.5627 31.7561 31.6858 31.2414L31.9752 30.0062L32.7805 30.9874C33.1181 31.3959 33.6357 31.6128 34.1647 31.5674L35.423 31.4608L34.7372 32.5298C34.4513 32.9748 34.4031 33.5315 34.6082 34.0188L35.1021 35.1881L33.8721 34.8746C33.3583 34.7396 32.8108 34.8663 32.4093 35.2131L31.4467 36.0407L31.3712 34.7868C31.3406 34.2586 31.0513 33.7792 30.5973 33.5047Z"/>
<path d="M68.042 40.9655H63.9902C63.612 40.9864 63.2531 40.7973 63.0577 40.4739C62.8623 40.1505 62.8623 39.746 63.0577 39.4226C63.2531 39.0993 63.612 38.9101 63.9902 38.931H68.042C68.5838 38.961 69.0077 39.4075 69.0077 39.9483C69.0077 40.489 68.5838 40.9355 68.042 40.9655Z"/>
<path d="M79.4987 40.9655H75.4658C75.0876 40.9864 74.7287 40.7973 74.5333 40.4739C74.3379 40.1505 74.3379 39.746 74.5333 39.4226C74.7287 39.0993 75.0876 38.9101 75.4658 38.931H79.5144C79.8927 38.9101 80.2515 39.0993 80.4469 39.4226C80.6424 39.746 80.6424 40.1505 80.4469 40.4739C80.2515 40.7973 79.8927 40.9864 79.5144 40.9655H79.4987Z"/>
<path d="M71.7446 48.6928C71.1811 48.6928 70.7239 48.2385 70.7222 47.6771V43.6395C70.7222 43.0768 71.1799 42.6207 71.7446 42.6207C72.3092 42.6207 72.7669 43.0768 72.7669 43.6395V47.6771C72.7652 48.2385 72.308 48.6928 71.7446 48.6928Z"/>
<path d="M71.7446 37.2758C71.1799 37.2758 70.7222 36.8197 70.7222 36.257V32.2225C70.7222 31.6599 71.1799 31.2037 71.7446 31.2037C72.3092 31.2037 72.7669 31.6599 72.7669 32.2225V36.257C72.7669 36.8197 72.3092 37.2758 71.7446 37.2758Z"/>
<path d="M75.4127 37.3041C75.1398 37.3016 74.8797 37.1884 74.6924 36.9906C74.5004 36.8 74.3926 36.5412 74.3926 36.2712C74.3926 36.0012 74.5004 35.7423 74.6924 35.5517L75.5983 34.6489C75.8514 34.3692 76.2386 34.2513 76.6053 34.3425C76.972 34.4336 77.2583 34.7189 77.3498 35.0844C77.4413 35.4498 77.323 35.8357 77.0423 36.0878L76.1363 36.9906C75.9473 37.188 75.6865 37.301 75.4127 37.3041Z"/>
<path d="M67.1799 45.5141C66.768 45.5121 66.3975 45.2639 66.2402 44.8845C66.0828 44.5051 66.1693 44.0687 66.4596 43.7774L67.3655 42.8746C67.7697 42.5117 68.3882 42.5277 68.7729 42.911C69.1576 43.2944 69.1737 43.9108 68.8095 44.3135L67.9161 45.2163C67.7206 45.4098 67.4554 45.5171 67.1799 45.5141Z"/>
<path d="M68.0862 37.3041C67.8133 37.3015 67.5531 37.1884 67.3658 36.9906L66.4598 36.0878C66.1631 35.8377 66.0344 35.4416 66.1275 35.0657C66.2206 34.6898 66.5196 34.399 66.899 34.3152C67.2783 34.2315 67.6726 34.3693 67.9163 34.6708L68.8223 35.5737C69.0142 35.7642 69.1221 36.0231 69.1221 36.2931C69.1221 36.5631 69.0142 36.822 68.8223 37.0125C68.6272 37.2059 68.3612 37.3112 68.0862 37.3041Z"/>
<path d="M76.3185 45.5141C76.0482 45.5143 75.7889 45.4071 75.5981 45.2163L74.6921 44.3135C74.3279 43.9108 74.344 43.2944 74.7287 42.911C75.1133 42.5277 75.7319 42.5117 76.136 42.8746L77.042 43.7774C77.2339 43.968 77.3418 44.2269 77.3418 44.4969C77.3418 44.7668 77.2339 45.0257 77.042 45.2163C76.8496 45.4067 76.5896 45.5137 76.3185 45.5141Z"/>
<path d="M28.5937 9.85582H24.5482C24.0064 9.82584 23.5825 9.3793 23.5825 8.83858C23.5825 8.29785 24.0064 7.85132 24.5482 7.82134H28.5937C28.9719 7.80041 29.3308 7.98958 29.5262 8.31295C29.7216 8.63631 29.7216 9.04085 29.5262 9.36421C29.3308 9.68757 28.9719 9.87675 28.5937 9.85582Z"/>
<path d="M40.0601 9.85582H36.0083C35.63 9.87675 35.2712 9.68757 35.0758 9.36421C34.8803 9.04085 34.8803 8.63631 35.0758 8.31295C35.2712 7.98958 35.63 7.80041 36.0083 7.82134H40.0601C40.6018 7.85132 41.0258 8.29785 41.0258 8.83858C41.0258 9.3793 40.6018 9.82584 40.0601 9.85582Z"/>
<path d="M32.3025 17.583C32.0317 17.583 31.7719 17.4756 31.5807 17.2845C31.3895 17.0933 31.2824 16.8342 31.2833 16.5642V12.5392C31.2343 12.1479 31.4162 11.7636 31.7504 11.5525C32.0846 11.3415 32.511 11.3415 32.8452 11.5525C33.1793 11.7636 33.3613 12.1479 33.3123 12.5392V16.5642C33.3141 17.1227 32.863 17.5779 32.3025 17.583Z"/>
<path d="M32.3024 6.16614C31.739 6.16442 31.2832 5.70879 31.2832 5.14733V1.10972C31.3133 0.569824 31.7614 0.1474 32.304 0.1474C32.8466 0.1474 33.2947 0.569824 33.3248 1.10972V5.14733C33.3248 5.71001 32.8671 6.16614 32.3024 6.16614Z"/>
<path d="M35.9736 6.20061C35.5611 6.19983 35.1895 5.95209 35.0313 5.57244C34.8731 5.19279 34.9594 4.75562 35.2501 4.46393L36.1435 3.55797C36.5456 3.17594 37.1803 3.18383 37.5727 3.57574C37.9651 3.96764 37.9716 4.60011 37.5874 4.99998L36.6814 5.9028C36.4937 6.09056 36.2396 6.19748 35.9736 6.20061Z"/>
<path d="M27.7412 14.42C27.3287 14.4193 26.957 14.1715 26.7989 13.7919C26.6407 13.4122 26.727 12.9751 27.0176 12.6834L27.9236 11.7774C28.1801 11.5105 28.5615 11.4029 28.9203 11.4962C29.2791 11.5896 29.559 11.8692 29.6519 12.2269C29.7447 12.5846 29.6359 12.9644 29.3676 13.2194L28.4616 14.1066C28.2734 14.3031 28.0138 14.4161 27.7412 14.42Z"/>
<path d="M28.6469 6.20063C28.3735 6.19612 28.1132 6.08332 27.9234 5.88716L27.0205 5.01568C26.7522 4.7607 26.6434 4.3809 26.7362 4.02316C26.8291 3.66542 27.109 3.38582 27.4678 3.29251C27.8266 3.19919 28.208 3.30679 28.4645 3.57368L29.3704 4.47963C29.6607 4.77091 29.7472 5.20734 29.5898 5.58671C29.4325 5.96607 29.062 6.21427 28.6501 6.21631L28.6469 6.20063Z"/>
<path d="M36.8796 14.42C36.6062 14.4155 36.3458 14.3027 36.156 14.1066L35.25 13.2037C34.9816 12.9488 34.8728 12.5689 34.9657 12.2112C35.0586 11.8535 35.3385 11.5739 35.6973 11.4806C36.0561 11.3872 36.4375 11.4948 36.694 11.7617L37.5999 12.6677C37.9016 12.9574 37.9954 13.4012 37.8366 13.7875C37.6778 14.1738 37.2985 14.4245 36.8796 14.42Z"/>
<path d="M53.7851 49.6207C53.6891 49.6201 53.5934 49.6117 53.4988 49.5956C53.0746 49.5201 52.6982 49.2791 52.4531 48.926C52.208 48.5729 52.1145 48.1368 52.1933 47.7147L56.308 24.8934C56.4652 24.0191 57.3039 23.4374 58.1813 23.594C59.0587 23.7507 59.6425 24.5865 59.4852 25.4608L55.3705 48.2821C55.2402 49.0538 54.5703 49.6193 53.7851 49.6207Z"/>
<path d="M36.3512 49.6207C35.6094 49.6246 34.9605 49.1241 34.7783 48.4075L33.8818 44.8276C33.7183 44.2635 33.8763 43.6555 34.294 43.2413C34.7117 42.8272 35.3227 42.6729 35.8879 42.8387C36.4531 43.0045 36.8827 43.464 37.0087 44.0376L37.9147 47.605C38.0204 48.0182 37.9568 48.4564 37.7378 48.8228C37.5189 49.1893 37.1626 49.4538 36.7476 49.558C36.6187 49.5957 36.4855 49.6167 36.3512 49.6207Z"/>
</svg>
