<svg width="99" height="100" viewBox="0 0 99 100" xmlns="http://www.w3.org/2000/svg">
<path d="M85.0439 87.4815C90.4491 87.4815 94.8309 83.0997 94.8309 77.6944C94.8309 72.2892 90.4491 67.9074 85.0439 67.9074C79.6386 67.9074 75.2568 72.2892 75.2568 77.6944C75.2568 83.0997 79.6386 87.4815 85.0439 87.4815Z" fill="currentColor"/>
<path d="M53.371 87.4815C58.7763 87.4815 63.1581 83.0997 63.1581 77.6944C63.1581 72.2892 58.7763 67.9074 53.371 67.9074C47.9658 67.9074 43.584 72.2892 43.584 77.6944C43.584 83.0997 47.9658 87.4815 53.371 87.4815Z" fill="currentColor"/>
<path d="M21.6948 87.4815C27.1 87.4815 31.4818 83.0997 31.4818 77.6944C31.4818 72.2892 27.1 67.9074 21.6948 67.9074C16.2895 67.9074 11.9077 72.2892 11.9077 77.6944C11.9077 83.0997 16.2895 87.4815 21.6948 87.4815Z" fill="currentColor"/>
<path d="M83.5152 7.05861V13.6574C83.5135 14.8698 82.5301 15.8518 81.3177 15.8518H71.9874L67.401 20.4413V15.8518H63.5862C62.3737 15.8518 61.3904 14.8698 61.3887 13.6574V7.05861C61.3887 5.84495 62.3725 4.86108 63.5862 4.86108H81.3177C82.5313 4.86108 83.5152 5.84495 83.5152 7.05861Z" fill="currentColor"/>
<path d="M25.2965 27.9197H11.1854C10.3109 27.9197 9.60205 27.2108 9.60205 26.3364C9.60205 25.4619 10.3109 24.7531 11.1854 24.7531H25.2903C26.1648 24.7531 26.8737 25.4619 26.8737 26.3364C26.8737 27.2108 26.1648 27.9197 25.2903 27.9197H25.2965Z"/>
<path d="M18.2445 34.9722C17.37 34.9722 16.6611 34.2633 16.6611 33.3889V19.284C16.6611 18.4095 17.37 17.7006 18.2445 17.7006C19.1189 17.7006 19.8278 18.4095 19.8278 19.284V33.3889C19.8278 33.8088 19.661 34.2115 19.3641 34.5085C19.0671 34.8054 18.6644 34.9722 18.2445 34.9722Z"/>
<path fill-rule="evenodd" clip-rule="evenodd" d="M38.0029 26.3364C38.0029 32.4252 42.9389 37.3611 49.0276 37.3611C55.1129 37.3526 60.0438 32.4216 60.0523 26.3364C60.0523 20.2476 55.1164 15.3117 49.0276 15.3117C42.9389 15.3117 38.0029 20.2476 38.0029 26.3364ZM40.7468 26.3364C40.7468 21.763 44.4542 18.0555 49.0276 18.0555C53.5982 18.0623 57.3017 21.7658 57.3085 26.3364C57.3085 30.9098 53.601 34.6173 49.0276 34.6173C44.4542 34.6173 40.7468 30.9098 40.7468 26.3364Z"/>
<path fill-rule="evenodd" clip-rule="evenodd" d="M35.7776 54.1018H62.2776C62.6416 54.1027 62.9909 53.9587 63.2486 53.7016C63.5063 53.4445 63.6511 53.0955 63.6511 52.7315V45.8673C63.646 41.9148 60.4431 38.7119 56.4906 38.7068H41.5646C37.6126 38.7119 34.4106 41.9153 34.4072 45.8673V52.7315C34.4072 53.4883 35.0208 54.1018 35.7776 54.1018ZM60.9134 51.358H37.148V45.8673C37.1514 43.4294 39.1268 41.454 41.5646 41.4506H56.4967C58.9346 41.454 60.91 43.4294 60.9134 45.8673V51.358Z"/>
<path fill-rule="evenodd" clip-rule="evenodd" d="M71.2821 78.5162C73.0103 82.6869 77.081 85.4056 81.5955 85.4043C87.7541 85.3958 92.7445 80.4055 92.753 74.2469C92.7542 69.7324 90.0355 65.6617 85.8648 63.9335C81.6942 62.2052 76.8931 63.1599 73.7008 66.3522C70.5085 69.5444 69.5539 74.3455 71.2821 78.5162ZM73.8174 71.0239C75.1211 67.8789 78.191 65.829 81.5955 65.8302C86.2406 65.8371 90.004 69.6018 90.0091 74.2469C90.0091 77.6514 87.9581 80.7206 84.8127 82.0232C81.6672 83.3258 78.0468 82.6051 75.6399 80.1973C73.233 77.7895 72.5136 74.1688 73.8174 71.0239Z"/>
<path fill-rule="evenodd" clip-rule="evenodd" d="M65.7561 99.8395H97.432C97.796 99.8371 98.1441 99.6899 98.3994 99.4305C98.6548 99.1711 98.7964 98.8208 98.7931 98.4568V95.5124C98.7864 90.9384 95.0801 87.2321 90.5061 87.2253H72.6759C68.1007 87.2304 64.3925 90.9372 64.3857 95.5124V98.4692C64.3857 99.226 64.9993 99.8395 65.7561 99.8395ZM96.0617 97.0988H67.1296L67.1111 95.5124C67.1111 92.4441 69.5984 89.9568 72.6666 89.9568H90.5061C93.5744 89.9568 96.0617 92.4441 96.0617 95.5124V97.0988Z"/>
<path fill-rule="evenodd" clip-rule="evenodd" d="M39.6063 78.5162C41.3345 82.6869 45.4052 85.4056 49.9198 85.4043C56.079 85.3975 61.0704 80.4062 61.0772 74.2469C61.0784 69.7324 58.3597 65.6617 54.189 63.9335C50.0184 62.2052 45.2173 63.1599 42.025 66.3522C38.8327 69.5444 37.8781 74.3455 39.6063 78.5162ZM41.5031 74.2469C41.5031 69.5985 45.2714 65.8302 49.9198 65.8302C54.566 65.8354 58.3313 69.6006 58.3364 74.2469C58.3364 78.8953 54.5682 82.6636 49.9198 82.6636C45.2714 82.6636 41.5031 78.8953 41.5031 74.2469Z"/>
<path fill-rule="evenodd" clip-rule="evenodd" d="M34.0834 99.8395H65.7563C66.1224 99.8404 66.4736 99.6947 66.7316 99.4349C66.9897 99.1751 67.133 98.8229 67.1297 98.4568V95.5124C67.1229 90.9372 63.4148 87.2304 58.8396 87.2253H41.0001C36.4249 87.2304 32.7168 90.9372 32.71 95.5124V98.4692C32.71 98.8331 32.8548 99.1822 33.1124 99.4393C33.3701 99.6963 33.7194 99.8404 34.0834 99.8395ZM64.3859 97.0988H35.4538L35.4445 95.5124C35.4445 92.4441 37.9318 89.9568 41.0001 89.9568H58.8303C61.8986 89.9568 64.3859 92.4441 64.3859 95.5124V97.0988Z"/>
<path fill-rule="evenodd" clip-rule="evenodd" d="M7.92596 78.5205C9.65613 82.6909 13.7287 85.4081 18.2438 85.4043C24.3999 85.3924 29.3866 80.403 29.395 74.2469C29.3963 69.7318 26.6769 65.6607 22.5055 63.9329C18.3341 62.205 13.5325 63.1608 10.3407 66.3544C7.14892 69.5479 6.19579 74.35 7.92596 78.5205ZM9.82714 74.2469C9.82714 69.5985 13.5954 65.8302 18.2438 65.8302C22.8908 65.8336 26.6571 69.5999 26.6605 74.2469C26.6605 78.8953 22.8922 82.6636 18.2438 82.6636C13.5954 82.6636 9.82714 78.8953 9.82714 74.2469Z"/>
<path fill-rule="evenodd" clip-rule="evenodd" d="M2.40754 99.8395H34.0835C34.4507 99.842 34.8035 99.6971 35.0629 99.4371C35.3222 99.1772 35.4664 98.824 35.4631 98.4568V95.5124C35.4563 90.9372 31.7482 87.2304 27.173 87.2253H9.33346C4.75997 87.2253 1.04908 90.9266 1.03717 95.5V98.4568C1.03387 98.8224 1.17679 99.1741 1.43415 99.4338C1.6915 99.6935 2.04194 99.8396 2.40754 99.8395ZM32.71 97.0988H3.77791V95.5124C3.77791 92.4441 6.26521 89.9568 9.33346 89.9568H27.1544C28.6279 89.9568 30.041 90.5421 31.0828 91.584C32.1247 92.6259 32.71 94.039 32.71 95.5124V97.0988Z"/>
<path d="M86.2656 47.9877H76.9261C76.0517 47.9877 75.3428 47.2788 75.3428 46.4043C75.3428 45.5299 76.0517 44.821 76.9261 44.821H86.2687C87.1432 44.821 87.852 45.5299 87.852 46.4043C87.852 47.2788 87.1432 47.9877 86.2687 47.9877H86.2656Z" fill="currentColor"/>
<path d="M81.596 52.6605C80.7216 52.6605 80.0127 51.9516 80.0127 51.0772V41.7346C80.0127 40.8601 80.7216 40.1512 81.596 40.1512C82.4705 40.1512 83.1794 40.8601 83.1794 41.7346V51.0772C83.1794 51.4971 83.0125 51.8998 82.7156 52.1968C82.4187 52.4937 82.016 52.6605 81.596 52.6605Z" fill="currentColor"/>
<path fill-rule="evenodd" clip-rule="evenodd" d="M62.611 17.0216C62.6127 17.7777 63.2252 18.3903 63.9813 18.392C64.3458 18.3925 64.6956 18.2482 64.9536 17.9907L69.1357 13.8025H77.9011C79.8692 13.8008 81.4642 12.2057 81.4659 10.2377V3.63889C81.4642 1.6703 79.8697 0.0743861 77.9011 0.0709839H60.1665C58.1974 0.0743818 56.602 1.6698 56.5986 3.63889V10.2377C56.602 12.2062 58.1979 13.8008 60.1665 13.8025H62.611V17.0216ZM59.5787 3.0538C59.7351 2.89917 59.9466 2.81317 60.1665 2.81481H77.8918C78.3463 2.8165 78.7142 3.18446 78.7159 3.63889V10.2376C78.7142 10.6921 78.3463 11.06 77.8918 11.0617H68.5585C68.195 11.0617 67.8464 11.206 67.5894 11.463L65.3455 13.7099V12.4321C65.3455 12.0681 65.2007 11.7191 64.9431 11.462C64.6854 11.2049 64.3361 11.0609 63.9721 11.0617H60.1573C59.7029 11.06 59.3349 10.6921 59.3332 10.2376V3.63889C59.334 3.41897 59.4224 3.20843 59.5787 3.0538Z"/>
</svg>
