<svg width="100" height="100" viewBox="0 0 100 100" xmlns="http://www.w3.org/2000/svg">
<path d="M94.9852 20.7025V8.70456H85.811L83.5582 12.9678H78.1777L76.554 8.70456H67.3461L65.7224 12.9678H60.3542L58.0891 8.70456H48.918V20.7025H94.9852Z" fill="currentColor"/>
<path d="M25.6981 39.1429C21.2728 39.1427 17.3166 41.9015 15.7871 46.0541C14.2576 50.2067 15.4792 54.8725 18.8474 57.7429H32.5488C35.9145 54.872 37.1344 50.2078 35.6053 46.0567C34.0761 41.9056 30.1219 39.1473 25.6981 39.146V39.1429Z" fill="currentColor"/>
<path fill-rule="evenodd" clip-rule="evenodd" d="M97.0694 90.6643V90.7103C97.0926 90.808 97.1059 90.9077 97.1093 91.008V97.7605C97.1093 98.6301 96.4043 99.3351 95.5347 99.3351H39.0687C38.1991 99.3351 37.4941 98.6301 37.4941 97.7605V91.008C37.4956 90.9113 37.5048 90.8148 37.5218 90.7195V90.6735C37.5413 90.5879 37.567 90.5038 37.5985 90.4218L37.6231 90.3665C37.6597 90.2886 37.7007 90.2128 37.7458 90.1394C37.755 90.1289 37.7632 90.1176 37.7704 90.1057C37.8186 90.0364 37.8731 89.9717 37.9331 89.9123L37.9515 89.8877L37.9546 89.8848L37.9547 89.8848L37.9547 89.8847L37.9549 89.8846C37.9999 89.8425 38.0479 89.7977 38.0988 89.7588L48.2275 81.9812L53.3103 28.7901L43.378 22.0192C43.3057 21.9689 43.2379 21.9124 43.1754 21.8504C43.1603 21.8369 43.146 21.8225 43.1325 21.8074C43.0706 21.7448 43.0141 21.677 42.9636 21.6049C42.9587 21.594 42.9525 21.5837 42.9452 21.5742C42.9032 21.5069 42.8653 21.4372 42.8317 21.3655C42.8248 21.3465 42.8166 21.328 42.8071 21.3102C42.7741 21.2287 42.7485 21.1445 42.7304 21.0585C42.7289 21.0391 42.7289 21.0196 42.7304 21.0002C42.7134 20.907 42.7042 20.8126 42.7028 20.7178V8.71991C42.7028 7.85031 43.4077 7.14535 44.2773 7.14535H53.4331C54.0152 7.1452 54.55 7.46628 54.8234 7.98021L56.6466 11.3933H59.9952L61.223 8.14595C61.4555 7.53563 62.04 7.13168 62.6932 7.13001H71.9011C72.5609 7.12889 73.1515 7.53935 73.3805 8.15822L74.6082 11.4056H77.9537L79.7677 7.98021C80.036 7.45936 80.5722 7.13147 81.1581 7.13001H90.3169C91.1817 7.13675 91.8792 7.83973 91.8792 8.70456V20.7056C91.8778 20.8003 91.8685 20.8947 91.8516 20.9879C91.853 21.0073 91.853 21.0268 91.8516 21.0462C91.8335 21.1322 91.8078 21.2165 91.7748 21.2979L91.7503 21.3532C91.7167 21.425 91.6787 21.4947 91.6367 21.5619L91.6183 21.5926C91.5679 21.6648 91.5114 21.7325 91.4495 21.7952L91.4065 21.8381C91.3447 21.9009 91.2768 21.9574 91.2039 22.0069L81.2686 28.7809L86.3606 81.972L96.4893 89.7496C96.5412 89.7893 96.5904 89.8323 96.6366 89.8785L96.6581 89.9031C96.7164 89.9632 96.7697 90.0278 96.8177 90.0964C96.8269 90.1069 96.8351 90.1182 96.8423 90.1302C96.8895 90.2029 96.9315 90.2788 96.9681 90.3573C96.9703 90.3638 96.9736 90.3703 96.9769 90.3769C96.9832 90.3891 96.9896 90.4017 96.9896 90.4156C97.024 90.4958 97.0507 90.5791 97.0694 90.6643ZM84.341 84.3783H50.2717L43.6972 89.4243H90.9154L84.341 84.3783ZM52.4877 10.2791L54.3109 13.7075C54.5839 14.2219 55.1189 14.5432 55.7013 14.5424H61.0695C61.7221 14.5421 62.3069 14.1392 62.5397 13.5295L63.7674 10.2791H70.8053L72.0331 13.5295C72.2663 14.1402 72.8526 14.5433 73.5063 14.5424H78.8837C79.4669 14.5433 80.0025 14.2206 80.2741 13.7045L82.0881 10.2791H88.7362V19.1279H45.8365V10.2791H52.4877ZM85.2249 22.277H49.3662L55.4588 26.4298H79.1324L85.2249 22.277ZM56.4041 29.5789H78.1962L83.1409 81.2292H51.4687L56.4041 29.5789ZM40.6371 92.5734V96.1829L93.9632 96.1798V92.5734H40.6371Z"/>
<path fill-rule="evenodd" clip-rule="evenodd" d="M40.5939 90.6581V90.6796C40.6165 90.7794 40.6298 90.8812 40.6338 90.9835V97.7543C40.6338 98.624 39.9289 99.3289 39.0593 99.3289H2.84143C1.98022 99.3205 1.28554 98.6217 1.28223 97.7605V90.9896C1.28262 90.8865 1.2929 90.7838 1.31292 90.6827V90.6581C1.33307 90.568 1.36079 90.4796 1.39579 90.3941V90.3573C1.43043 90.2758 1.47256 90.1977 1.52163 90.1241C1.52873 90.1111 1.53695 90.0988 1.54619 90.0872C1.59544 90.016 1.6509 89.9492 1.71193 89.8877L1.74262 89.854L1.78866 89.8079L10.5454 81.975L13.0008 64.9189H9.43124C9.01339 64.9197 8.61242 64.7541 8.31696 64.4586C8.02149 64.1632 7.85587 63.7622 7.85668 63.3443V61.2971C7.85515 60.8353 8.05728 60.3962 8.40916 60.097L11.6872 57.304C7.62755 52.4067 8.07635 45.1967 12.712 40.8407C17.3476 36.4846 24.5715 36.4846 29.2071 40.8407C33.8428 45.1967 34.2916 52.4067 30.2319 57.304L33.5099 60.097C33.8618 60.3962 34.064 60.8353 34.0624 61.2971V63.3443C34.0632 63.7622 33.8976 64.1632 33.6021 64.4586C33.3067 64.7541 32.9057 64.9197 32.4879 64.9189H28.9091L31.3645 81.975L40.1182 89.8079L40.1642 89.854L40.1949 89.8877C40.2559 89.9492 40.3114 90.016 40.3606 90.0872L40.3852 90.1241C40.4343 90.1977 40.4764 90.2758 40.511 90.3573V90.3941C40.546 90.4796 40.5738 90.568 40.5939 90.6581ZM12.6202 84.3415L6.95738 89.4089H34.9433L29.2804 84.3415H12.6202ZM20.9503 40.7174C24.5215 40.7232 27.7435 42.8628 29.1343 46.152C30.525 49.4413 29.8153 53.2433 27.3314 55.8092C27.2003 55.9059 27.0888 56.0267 27.003 56.1652H14.8977C14.8119 56.0267 14.7004 55.9059 14.5693 55.8092C12.0854 53.2433 11.3757 49.4413 12.7664 46.152C14.1572 42.8628 17.3792 40.7232 20.9503 40.7174ZM11.2912 61.7698H12.6632H30.6095L27.7274 59.3143H14.1733L11.2912 61.7698ZM25.7293 64.9189L28.0773 81.1862H13.8357L16.1837 64.9189H25.7293ZM4.41292 96.1798H37.5L37.4878 92.558H4.41292V96.1798Z"/>
<path d="M35.8484 7.13H30.4095V1.69119C30.4095 0.82159 29.7046 0.116638 28.835 0.116638C27.9654 0.116638 27.2604 0.82159 27.2604 1.69119V7.13H21.8216C20.952 7.13 20.2471 7.83496 20.2471 8.70456C20.2471 9.57416 20.952 10.2791 21.8216 10.2791H27.2604V15.7179C27.2604 16.5875 27.9654 17.2925 28.835 17.2925C29.7046 17.2925 30.4095 16.5875 30.4095 15.7179V10.2791H35.8484C36.718 10.2791 37.4229 9.57416 37.4229 8.70456C37.4229 7.83496 36.718 7.13 35.8484 7.13Z"/>
<path d="M25.5976 26.4298H22.5283V23.3605C22.5283 22.4909 21.8234 21.7859 20.9538 21.7859C20.0842 21.7859 19.3792 22.4909 19.3792 23.3605V26.4298H16.3099C15.4403 26.4298 14.7354 27.1348 14.7354 28.0044C14.7354 28.874 15.4403 29.5789 16.3099 29.5789H19.3792V32.6482C19.3792 33.5178 20.0842 34.2228 20.9538 34.2228C21.8234 34.2228 22.5283 33.5178 22.5283 32.6482V29.5789H25.5976C26.4672 29.5789 27.1722 28.874 27.1722 28.0044C27.1722 27.1348 26.4672 26.4298 25.5976 26.4298Z" fill="currentColor"/>
</svg>
