<svg width="100" height="100" viewBox="0 0 100 100" xmlns="http://www.w3.org/2000/svg">
<path d="M13.0335 21.9679H96.6238C97.5215 21.9664 98.3827 22.3254 99.0165 22.9652C99.6503 23.605 100.004 24.4728 100 25.3762V39.0096H9.64652V25.3762C9.64228 24.471 9.99776 23.6016 10.6339 22.9614C11.2699 22.3213 12.1339 21.9636 13.0335 21.9679Z" fill="currentColor"/>
<path d="M94.2547 33.0418H2.74528C1.22911 33.0418 0 32.1464 0 31.0418C0 29.9372 1.22911 29.0418 2.74528 29.0418H94.2547C95.7709 29.0418 97 29.9372 97 31.0418C97 32.1464 95.7709 33.0418 94.2547 33.0418Z"/>
<path d="M50.5003 77C55.4055 77 60.0168 74.9494 63.4845 71.226C64.1743 70.4854 64.1714 69.2876 63.4783 68.5508C62.7854 67.8143 61.6643 67.8168 60.9743 68.5574C58.1763 71.5617 54.4565 73.2163 50.5001 73.2166C46.5439 73.2166 42.8238 71.5619 40.0256 68.5574C39.3358 67.8168 38.2147 67.8138 37.5216 68.5508C36.8285 69.2878 36.8259 70.4854 37.5154 71.2262C40.9836 74.9496 45.5949 77 50.5003 77Z"/>
<path d="M68.5533 54.1318C68.5533 55.1635 69.3249 56 70.2766 56C71.2284 56 72 55.1635 72 54.1318C72 49.6478 68.6355 46 64.5001 46C60.3647 46 57 49.6478 57 54.1318C57 55.1635 57.7716 56 58.7234 56C59.6751 56 60.4467 55.1635 60.4467 54.1318C60.4467 51.7083 62.265 49.7365 64.5001 49.7365C66.735 49.7367 68.5533 51.7083 68.5533 54.1318Z"/>
<path d="M39.5533 54.1318C39.5533 55.1635 40.3249 56 41.2767 56C42.2284 56 43 55.1635 43 54.1318C43 49.6478 39.6356 46 35.5 46C31.3644 46 28 49.6478 28 54.1318C28 55.1635 28.7716 56 29.7233 56C30.6751 56 31.4467 55.1635 31.4467 54.1318C31.4467 51.7083 33.2649 49.7365 35.5 49.7365C37.7351 49.7365 39.5533 51.7083 39.5533 54.1318Z"/>
<path fill-rule="evenodd" clip-rule="evenodd" d="M87.9657 12H9.03431C4.0448 12 0 15.8946 0 20.6988V79.3012C0 84.1054 4.0448 88 9.03431 88H87.9657C92.9552 88 97 84.1054 97 79.3012V20.6988C97 15.8946 92.9552 12 87.9657 12ZM3 20.9091C3 17.6456 5.75858 15 9.16146 15H87.8385C91.2414 15 94 17.6456 94 20.9091V79.0909C94 82.3544 91.2414 85 87.8385 85H9.16146C5.75858 85 3 82.3544 3 79.0909V20.9091Z"/>
</svg>
