<svg width="100" height="100" viewBox="0 0 100 100" xmlns="http://www.w3.org/2000/svg">
<g clip-path="url(#clip0_1935:6377)">
<path d="M43.4676 45.1171L23.6048 64.8668C23.3133 65.1567 23.1469 65.5521 23.1572 65.9631C23.2623 70.1472 24.4654 72.7136 28.8857 72.7136H92.0504C96.5663 72.7136 99.9999 66.6984 99.9999 63.9643V54.2068C99.9999 53.8016 99.8407 53.4125 99.5564 53.1237L78.0277 31.2451C77.3983 30.6055 76.3581 30.6352 75.7662 31.3098L56.5393 53.225C55.9616 53.8834 54.9526 53.9301 54.3166 53.3279L45.6183 45.0908C45.0121 44.5169 44.0596 44.5285 43.4676 45.1171Z" fill="currentColor"/>
<path d="M46.1164 27.3264C46.1164 30.6485 43.4234 33.3416 40.1013 33.3416C36.7792 33.3416 34.0861 30.6485 34.0861 27.3264C34.0861 24.0044 36.7792 21.3113 40.1013 21.3113C43.4234 21.3113 46.1164 24.0044 46.1164 27.3264Z" fill="currentColor"/>
<path fill-rule="evenodd" clip-rule="evenodd" d="M37.3669 32.248C41.5951 32.248 45.0226 28.8204 45.0226 24.5923C45.0226 20.3642 41.5951 16.9366 37.3669 16.9366C33.1388 16.9366 29.7113 20.3642 29.7113 24.5923C29.7113 28.8204 33.1388 32.248 37.3669 32.248ZM37.3669 28.248C39.3859 28.248 41.0226 26.6113 41.0226 24.5923C41.0226 22.5733 39.3859 20.9366 37.3669 20.9366C35.348 20.9366 33.7113 22.5733 33.7113 24.5923C33.7113 26.6113 35.348 28.248 37.3669 28.248Z"/>
<path fill-rule="evenodd" clip-rule="evenodd" d="M17.681 14C17.681 9.58173 21.2627 6 25.681 6H88.4249C92.8432 6 96.425 9.58172 96.425 14V61.4326C96.425 65.8509 92.8432 69.4326 88.425 69.4326H25.681C21.2627 69.4326 17.681 65.8509 17.681 61.4326V14ZM25.681 10H88.4249C90.6341 10 92.425 11.7909 92.425 14V49.7309L73.1758 28.7318C71.5545 26.9631 68.7517 27.0098 67.1902 28.8316L50.378 48.4458L42.9296 40.9973C41.3675 39.4352 38.8348 39.4352 37.2727 40.9973L21.681 56.5891V14C21.681 11.7909 23.4718 10 25.681 10ZM21.7501 62.1768C22.0988 64.0303 23.7261 65.4326 25.681 65.4326H88.425C90.6341 65.4326 92.425 63.6418 92.425 61.4326V55.6505L70.2272 31.4347L53.415 51.0489C51.8987 52.818 49.1972 52.9218 47.5496 51.2742L40.1012 43.8257L21.7501 62.1768Z"/>
<path d="M10.8635 40.9681C11.1494 39.9012 10.5162 38.8045 9.44932 38.5186C8.38238 38.2327 7.28571 38.8659 6.99983 39.9328C4.00954 51.0927 1.69951 59.926 0.204805 65.6999C-1.16818 71.0037 2.00375 76.3918 7.28137 77.8059L67.7593 94.011C73.2091 95.4712 78.7873 92.1365 80.081 86.6448L81.9667 78.6406C82.22 77.5654 81.5537 76.4885 80.4786 76.2352C79.4035 75.982 78.3266 76.6482 78.0733 77.7233L76.1876 85.7275C75.4114 89.0226 72.0645 91.0234 68.7946 90.1473L8.31665 73.9422C5.1458 73.0926 3.25819 69.866 4.07716 66.7024C5.56935 60.9381 7.87649 52.1159 10.8635 40.9681Z"/>
</g>
</svg>
