<svg width="100" height="100" viewBox="0 0 100 100" xmlns="http://www.w3.org/2000/svg">
<path d="M18.9077 33.4314L2.3125 49.8793C2.3125 53.5 2.3125 55.5999 6.49994 55.5999H53.5969C56.8934 55.5999 59.4 50.9461 59.4 48.8307V43.5L40.9999 24.5L26.9019 41.4548L18.9077 33.4314Z" fill="currentColor"/>
<path d="M20.6294 20.4722C20.6294 22.8823 18.6756 24.8361 16.2655 24.8361C13.8554 24.8361 11.9016 22.8823 11.9016 20.4722C11.9016 18.062 13.8554 16.1082 16.2655 16.1082C18.6756 16.1082 20.6294 18.062 20.6294 20.4722Z" fill="currentColor"/>
<path d="M63.6 5.4C62.4954 5.4 61.6 6.29543 61.6 7.4C61.6 8.50457 62.4954 9.4 63.6 9.4L97 9.40001C98.1045 9.40001 99 8.50458 99 7.40001C99 6.29544 98.1045 5.40001 97 5.40001L63.6 5.4Z"/>
<path d="M61.6 21.7C61.6 20.5954 62.4954 19.7 63.6 19.7L97 19.7C98.1045 19.7 99 20.5955 99 21.7C99 22.8046 98.1045 23.7 97 23.7L63.6 23.7C62.4954 23.7 61.6 22.8046 61.6 21.7Z"/>
<path d="M63.6 34C62.4954 34 61.6 34.8955 61.6 36C61.6 37.1046 62.4954 38 63.6 38L97 38C98.1045 38 99 37.1046 99 36C99 34.8955 98.1045 34 97 34L63.6 34Z"/>
<path d="M61.6 50.3C61.6 49.1955 62.4954 48.3 63.6 48.3L97 48.3C98.1045 48.3 99 49.1955 99 50.3C99 51.4046 98.1045 52.3 97 52.3L63.6 52.3C62.4954 52.3 61.6 51.4046 61.6 50.3Z"/>
<path d="M2 62.5999C0.895431 62.5999 0 63.4954 0 64.5999C0 65.7045 0.89543 66.5999 2 66.5999L97 66.5999C98.1046 66.5999 99 65.7045 99 64.5999C99 63.4954 98.1046 62.5999 97 62.5999L2 62.5999Z"/>
<path d="M0 78.9C0 77.7954 0.895431 76.9 2 76.9L97 76.9C98.1046 76.9 99 77.7954 99 78.9C99 80.0045 98.1046 80.9 97 80.9L2 80.9C0.89543 80.9 0 80.0045 0 78.9Z"/>
<path d="M0 93.2C0 92.0954 0.895431 91.2 2 91.2L97 91.2C98.1046 91.2 99 92.0954 99 93.2C99 94.3045 98.1046 95.2 97 95.2L2 95.2C0.89543 95.2 0 94.3045 0 93.2Z"/>
<path fill-rule="evenodd" clip-rule="evenodd" d="M19.836 18.4885C19.836 21.5559 17.3494 24.0426 14.2819 24.0426C11.2145 24.0426 8.72784 21.5559 8.72784 18.4885C8.72784 15.421 11.2145 12.9344 14.2819 12.9344C17.3494 12.9344 19.836 15.421 19.836 18.4885ZM17.0295 18.4885C17.0295 20.0059 15.7994 21.236 14.2819 21.236C12.7645 21.236 11.5344 20.0059 11.5344 18.4885C11.5344 16.971 12.7645 15.7409 14.2819 15.7409C15.7994 15.7409 17.0295 16.971 17.0295 18.4885Z"/>
<path fill-rule="evenodd" clip-rule="evenodd" d="M5.61307 5C2.51306 5 0 7.51305 0 10.6131V47.7869C0 50.8869 2.51306 53.4 5.61307 53.4H51.5869C54.6869 53.4 57.2 50.8869 57.2 47.7869V10.6131C57.2 7.51306 54.6869 5 51.5869 5H5.61307ZM51.5869 9H5.61307C4.72219 9 4 9.72219 4 10.6131V39.5141L13.8802 29.9189C15.2146 28.623 17.3423 28.6385 18.6576 29.9539L23.6903 34.9865L35.554 21.1456C36.8675 19.6132 39.2184 19.554 40.6073 21.0184L53.2 34.2959V10.6131C53.2 9.7222 52.4778 9 51.5869 9ZM4 47.7869V45.09L16.245 33.1981L21.3176 38.2706C22.7194 39.6724 25.0178 39.5842 26.308 38.079L38.1604 24.2512L53.2 40.1085V47.7869C53.2 48.6778 52.4778 49.4 51.5869 49.4H5.61307C4.7222 49.4 4 48.6778 4 47.7869Z"/>
</svg>
