<svg width="99" height="100" viewBox="0 0 99 100" xmlns="http://www.w3.org/2000/svg">
<path d="M31.6345 54.7013C39.1695 54.7013 45.2778 48.5929 45.2778 41.058C45.2778 33.523 39.1695 27.4147 31.6345 27.4147C24.0995 27.4147 17.9912 33.523 17.9912 41.058C17.9912 48.5929 24.0995 54.7013 31.6345 54.7013Z" fill="currentColor"/>
<path d="M75.5427 79.3781C83.0777 79.3781 89.186 73.2698 89.186 65.7348C89.186 58.1998 83.0777 52.0915 75.5427 52.0915C68.0077 52.0915 61.8994 58.1998 61.8994 65.7348C61.8994 73.2698 68.0077 79.3781 75.5427 79.3781Z" fill="currentColor"/>
<path d="M78.0673 33.2317H64.1343C63.2706 33.2317 62.5703 32.5314 62.5703 31.6677C62.5703 30.8039 63.2706 30.1036 64.1343 30.1036H78.0673C78.9311 30.1036 79.6313 30.8039 79.6313 31.6677C79.6313 32.5314 78.9311 33.2317 78.0673 33.2317Z"/>
<path d="M71.1006 40.2043C70.2369 40.2043 69.5366 39.504 69.5366 38.6403V24.6951C69.5366 23.8313 70.2369 23.1311 71.1006 23.1311C71.9644 23.1311 72.6647 23.8313 72.6647 24.6951V38.6281C72.6679 39.045 72.5046 39.4459 72.2109 39.7419C71.9172 40.0378 71.5176 40.2043 71.1006 40.2043Z"/>
<path fill-rule="evenodd" clip-rule="evenodd" d="M12.1953 36.6108C12.1942 44.893 18.907 51.6081 27.1892 51.6097C35.4695 51.603 42.1808 44.8931 42.1892 36.6128C42.1892 28.3306 35.4755 21.6164 27.1933 21.6158C18.9111 21.6153 12.1964 28.3286 12.1953 36.6108ZM15.8348 31.9135C17.7368 27.3208 22.2182 24.3262 27.1892 24.3262C33.9726 24.3329 39.4704 29.8294 39.4788 36.6128C39.4801 41.5838 36.4866 46.0659 31.8944 47.9691C27.3021 49.8723 22.0157 48.8216 18.5002 45.307C14.9848 41.7924 13.9328 36.5062 15.8348 31.9135Z"/>
<path fill-rule="evenodd" clip-rule="evenodd" d="M8.46059 75.2744H45.9179C46.2774 75.2752 46.6225 75.1329 46.8771 74.879C47.1316 74.625 47.2746 74.2803 47.2746 73.9207V64.2195C47.2696 58.9547 43.0029 54.688 37.738 54.6829H16.6435C11.3787 54.688 7.11198 58.9547 7.10693 64.2195V73.9207C7.10693 74.6683 7.71299 75.2744 8.46059 75.2744ZM44.5734 72.561H9.8173V64.2195C9.82066 60.4509 12.8749 57.3967 16.6435 57.3933H37.7472C41.5158 57.3967 44.57 60.4509 44.5734 64.2195V72.561Z"/>
<path fill-rule="evenodd" clip-rule="evenodd" d="M56.104 61.2927C56.1057 69.5741 62.8196 76.2866 71.101 76.2866C79.3836 76.2782 86.0945 69.5632 86.0979 61.2805C86.0929 52.9991 79.3763 46.2894 71.0949 46.2927C62.8135 46.2961 56.1023 53.0113 56.104 61.2927ZM59.7443 56.5883C61.6473 51.9957 66.1297 49.0019 71.101 49.0031C77.8832 49.0115 83.3791 54.5075 83.3875 61.2897C83.3888 66.2609 80.3949 70.7433 75.8024 72.6463C71.2098 74.5493 65.923 73.498 62.4078 69.9828C58.8926 66.4676 57.8414 61.1809 59.7443 56.5883Z"/>
<path fill-rule="evenodd" clip-rule="evenodd" d="M52.3723 99.9512H89.8297C90.5773 99.9512 91.1833 99.3451 91.1833 98.5975V88.8963C91.1783 83.6327 86.9134 79.3665 81.6498 79.3597H60.5522C55.2874 79.3648 51.0207 83.6315 51.0156 88.8963V98.5975C51.0156 98.9571 51.1587 99.3019 51.4132 99.5558C51.6677 99.8098 52.0128 99.952 52.3723 99.9512ZM88.4821 97.2561H53.726L53.7321 88.8963C53.7355 85.1277 56.7897 82.0735 60.5583 82.0701H81.6559C85.4238 82.0751 88.477 85.1284 88.4821 88.8963V97.2561Z"/>
<path d="M31.8049 91.2195H22.5762C21.7124 91.2195 21.0122 90.5193 21.0122 89.6555C21.0122 88.7917 21.7124 88.0915 22.5762 88.0915H31.8049C32.6687 88.0915 33.3689 88.7917 33.3689 89.6555C33.3689 90.5193 32.6687 91.2195 31.8049 91.2195Z" fill="currentColor"/>
<path d="M27.189 95.8353C26.3252 95.8353 25.625 95.1351 25.625 94.2713V85.0396C25.625 84.1758 26.3252 83.4756 27.189 83.4756C28.0528 83.4756 28.753 84.1758 28.753 85.0396V94.2713C28.753 95.1351 28.0528 95.8353 27.189 95.8353Z" fill="currentColor"/>
<path fill-rule="evenodd" clip-rule="evenodd" d="M46.973 23.4482C46.9747 24.1951 47.5798 24.8002 48.3267 24.8018C48.6803 24.8015 49.0196 24.6624 49.2718 24.4146L55.3694 18.3171H67.9974C70.4584 18.3154 72.453 16.3208 72.4547 13.8598V4.5305C72.453 2.06949 70.4584 0.0748627 67.9974 0.0731812H42.9334C40.4731 0.0765399 38.4794 2.07018 38.4761 4.5305V13.8598C38.4794 16.3201 40.4731 18.3137 42.9334 18.3171H46.973V23.4482ZM41.1834 4.5305C41.1851 3.56519 41.9681 2.78355 42.9334 2.78355H68.0005C68.9658 2.78355 69.7488 3.56519 69.7505 4.5305V13.8598C69.7488 14.8251 68.9658 15.6067 68.0005 15.6067H54.8114C54.4524 15.6066 54.108 15.7492 53.8541 16.0031L49.6834 20.1768V16.9634C49.6842 16.6034 49.5415 16.2578 49.2869 16.0032C49.0323 15.7486 48.6868 15.6059 48.3267 15.6067H42.9334C41.9681 15.6067 41.1851 14.8251 41.1834 13.8598V4.5305Z"/>
</svg>
