<svg width="100" height="100" viewBox="0 0 100 100"  xmlns="http://www.w3.org/2000/svg">
<path d="M7 44C4.79086 44 3 45.7909 3 48V56C3 58.2091 4.79086 60 7 60H19V44H7Z" fill="currentColor"/>
<path d="M95 44H23V60H95C97.2091 60 99 58.2091 99 56V48C99 45.7909 97.2091 44 95 44Z" fill="currentColor"/>
<path d="M4 41C1.79086 41 0 42.7909 0 45V53C0 55.2091 1.79086 57 4 57H16V41H4Z"/>
<path fill-rule="evenodd" clip-rule="evenodd" d="M20 57V41H92C94.2091 41 96 42.7909 96 45V53C96 55.2091 94.2091 57 92 57H20ZM22 43H92C93.1046 43 94 43.8954 94 45V53C94 54.1046 93.1046 55 92 55H22V43Z"/>
<path fill-rule="evenodd" clip-rule="evenodd" d="M0 72C0 69.7909 1.79086 68 4 68H16V84H4C1.79086 84 0 82.2091 0 80V72ZM8.06527 80.1099C7.37594 80.1099 6.78194 79.9963 6.28327 79.7689C5.78461 79.5416 5.39594 79.2079 5.11727 78.7679C4.84594 78.3279 4.69561 77.7816 4.66627 77.1289C4.65894 76.8283 4.65527 76.5056 4.65527 76.1609C4.65527 75.8163 4.65894 75.4863 4.66627 75.1709C4.69561 74.5329 4.84961 73.9903 5.12827 73.5429C5.40694 73.0956 5.79561 72.7583 6.29427 72.5309C6.79294 72.3036 7.38327 72.1899 8.06527 72.1899C8.54927 72.1899 8.99661 72.2523 9.40727 72.3769C9.81794 72.4943 10.1773 72.6703 10.4853 72.9049C10.7933 73.1323 11.0316 73.4109 11.2003 73.7409C11.3763 74.0636 11.4679 74.4303 11.4753 74.8409C11.4826 74.9069 11.4606 74.9619 11.4093 75.0059C11.3653 75.0499 11.3103 75.0719 11.2443 75.0719H9.75927C9.66394 75.0719 9.59061 75.0536 9.53927 75.0169C9.48794 74.9729 9.44394 74.8959 9.40727 74.7859C9.30461 74.3973 9.13594 74.1333 8.90127 73.9939C8.67394 73.8473 8.39161 73.7739 8.05427 73.7739C7.65094 73.7739 7.33194 73.8876 7.09727 74.1149C6.86261 74.3349 6.73427 74.7053 6.71227 75.2259C6.69027 75.8273 6.69027 76.4433 6.71227 77.0739C6.73427 77.5946 6.86261 77.9686 7.09727 78.1959C7.33194 78.4159 7.65094 78.5259 8.05427 78.5259C8.39161 78.5259 8.67761 78.4526 8.91227 78.3059C9.14694 78.1593 9.31194 77.8953 9.40727 77.5139C9.43661 77.4039 9.47694 77.3306 9.52827 77.2939C9.58694 77.2499 9.66394 77.2279 9.75927 77.2279H11.2443C11.3103 77.2279 11.3653 77.2499 11.4093 77.2939C11.4606 77.3379 11.4826 77.3929 11.4753 77.4589C11.4679 77.8696 11.3763 78.2399 11.2003 78.5699C11.0316 78.8926 10.7933 79.1713 10.4853 79.4059C10.1773 79.6333 9.81794 79.8093 9.40727 79.9339C8.99661 80.0513 8.54927 80.1099 8.06527 80.1099Z"/>
<path fill-rule="evenodd" clip-rule="evenodd" d="M20 84V68H92C94.2091 68 96 69.7909 96 72V80C96 82.2091 94.2091 84 92 84H20ZM22 70H92C93.1046 70 94 70.8954 94 72V80C94 81.1046 93.1046 82 92 82H22V70Z"/>
<path d="M9.02411 23.063L8.00111 20.159L6.97811 23.063H9.02411Z"/>
<path fill-rule="evenodd" clip-rule="evenodd" d="M0 18C0 15.7909 1.79086 14 4 14H16V30H4C1.79086 30 0 28.2091 0 26V18ZM4.39311 26C4.33444 26 4.27944 25.9781 4.22811 25.934C4.18411 25.8827 4.16211 25.8277 4.16211 25.769C4.16211 25.7324 4.16578 25.6994 4.17311 25.67L6.75811 18.608C6.78011 18.5274 6.82411 18.4577 6.89011 18.399C6.96344 18.333 7.06244 18.3 7.18711 18.3H8.81511C8.93978 18.3 9.03511 18.333 9.10111 18.399C9.17444 18.4577 9.22211 18.5274 9.24411 18.608L11.8181 25.67C11.8328 25.6994 11.8401 25.7324 11.8401 25.769C11.8401 25.8277 11.8144 25.8827 11.7631 25.934C11.7191 25.9781 11.6641 26 11.5981 26H10.2451C10.1351 26 10.0508 25.9744 9.99211 25.923C9.94078 25.8644 9.90778 25.813 9.89311 25.769L9.46411 24.647H6.52711L6.10911 25.769C6.09444 25.813 6.06144 25.8644 6.01011 25.923C5.95878 25.9744 5.87078 26 5.74611 26H4.39311Z"/>
<path fill-rule="evenodd" clip-rule="evenodd" d="M20 30V14H92C94.2091 14 96 15.7909 96 18V26C96 28.2091 94.2091 30 92 30H20ZM22 16H92C93.1046 16 94 16.8954 94 18V26C94 27.1046 93.1046 28 92 28H22V16Z"/>
<path d="M5.17246 53C5.09179 53 5.02579 52.9744 4.97446 52.923C4.92313 52.8644 4.89746 52.7984 4.89746 52.725V45.575C4.89746 45.4944 4.92313 45.4284 4.97446 45.377C5.02579 45.3257 5.09179 45.3 5.17246 45.3H8.52746C9.15813 45.3 9.67513 45.388 10.0785 45.564C10.4818 45.74 10.7788 45.993 10.9695 46.323C11.1675 46.6457 11.2665 47.0307 11.2665 47.478C11.2665 47.742 11.2151 47.9767 11.1125 48.182C11.0171 48.38 10.8961 48.545 10.7495 48.677C10.6101 48.809 10.4781 48.9044 10.3535 48.963C10.6321 49.095 10.8778 49.3114 11.0905 49.612C11.3105 49.9127 11.4205 50.2647 11.4205 50.668C11.4205 51.1521 11.3105 51.57 11.0905 51.922C10.8778 52.2667 10.5625 52.5344 10.1445 52.725C9.73379 52.9084 9.22779 53 8.62646 53H5.17246ZM6.87746 51.57H8.40646C8.72179 51.57 8.96013 51.4784 9.12146 51.295C9.28279 51.1117 9.36346 50.9027 9.36346 50.668C9.36346 50.4114 9.27913 50.195 9.11046 50.019C8.94913 49.843 8.71446 49.755 8.40646 49.755H6.87746V51.57ZM6.87746 48.358H8.30746C8.60813 48.358 8.83179 48.281 8.97846 48.127C9.13246 47.9657 9.20946 47.7677 9.20946 47.533C9.20946 47.2984 9.13246 47.1077 8.97846 46.961C8.83179 46.807 8.60813 46.73 8.30746 46.73H6.87746V48.358Z" fill="white"/>
</svg>
