<svg width="100" height="100" viewBox="0 0 100 100" xmlns="http://www.w3.org/2000/svg">
<g clip-path="url(#clip0_3972:22400)">
<path d="M10.8635 40.9681C11.1494 39.9012 10.5162 38.8045 9.44932 38.5186C8.38238 38.2327 7.28571 38.8659 6.99983 39.9328C4.00954 51.0927 1.69951 59.926 0.204805 65.6999C-1.16818 71.0036 2.00375 76.3918 7.28137 77.8059L67.7593 94.0109C73.2091 95.4712 78.7873 92.1365 80.081 86.6447L81.9667 78.6406C82.22 77.5654 81.5537 76.4885 80.4786 76.2352C79.4035 75.9819 78.3266 76.6482 78.0733 77.7233L76.1876 85.7275C75.4114 89.0226 72.0645 91.0234 68.7946 90.1472L8.31665 73.9422C5.1458 73.0926 3.25819 69.866 4.07716 66.7023C5.56935 60.9381 7.87649 52.1159 10.8635 40.9681Z"/>
<path fill-rule="evenodd" clip-rule="evenodd" d="M25 16.7273C25 14.1165 27.1826 12 29.875 12H92.125C94.8174 12 97 14.1165 97 16.7273V63.2727C97 65.8835 94.8174 68 92.125 68H29.875C27.1826 68 25 65.8835 25 63.2727V16.7273ZM49.7766 23.2545C49.2102 22.9235 48.5048 22.9148 47.9301 23.2318C47.3553 23.5488 47 24.1424 47 24.7857V46.2143C47 46.8576 47.3553 47.4512 47.9301 47.7682C48.5048 48.0852 49.2102 48.0765 49.7766 47.7455L68.1099 37.0312C68.6621 36.7085 69 36.1273 69 35.5C69 34.8727 68.6621 34.2915 68.1099 33.9688L49.7766 23.2545Z" fill="currentColor"/>
<path fill-rule="evenodd" clip-rule="evenodd" d="M86.9215 5.45361H25.0784C21.1691 5.45361 18 8.50503 18 12.2692V58.1844C18 61.9485 21.1691 64.9999 25.0784 64.9999H86.9215C90.8308 64.9999 93.9999 61.9485 93.9999 58.1844V12.2692C93.9999 8.50503 90.8308 5.45361 86.9215 5.45361ZM21.4279 13.5736C21.4279 11.1444 23.5151 9.17526 26.0897 9.17526H85.6166C88.1912 9.17526 90.2784 11.1444 90.2784 13.5736V56.88C90.2784 59.3091 88.1912 61.2783 85.6166 61.2783H26.0897C23.5151 61.2783 21.4279 59.3091 21.4279 56.88V13.5736Z"/>
<path fill-rule="evenodd" clip-rule="evenodd" d="M47.9301 23.2318C48.5048 22.9148 49.2102 22.9235 49.7766 23.2545L68.1099 33.9688C68.6621 34.2915 69 34.8727 69 35.5C69 36.1273 68.6621 36.7085 68.1099 37.0312L49.7766 47.7455C49.2102 48.0765 48.5048 48.0852 47.9301 47.7682C47.3553 47.4512 47 46.8576 47 46.2143V24.7857C47 24.1424 47.3553 23.5488 47.9301 23.2318ZM50.6667 27.9396V43.0604L63.6033 35.5L50.6667 27.9396Z"/>
</g>
<defs>
<clipPath id="clip0_3972:22400">
<rect width="100" height="100" fill="white"/>
</clipPath>
</defs>
</svg>
