<svg width="100" height="100" viewBox="0 0 100 100" xmlns="http://www.w3.org/2000/svg">
<path d="M71.0146 51.8064L81.7058 38.4304L72.1154 23.2912L45.0754 21.9664L35.0146 34.4624L39.101 44.456L60.4834 50.7792L63.9426 58.8624H70.701L71.0146 51.8064Z" fill="currentColor"/>
<path d="M94.3427 8.47521H88.6723V2.80481C88.6723 2.21832 88.3595 1.67638 87.8515 1.38314C87.3436 1.0899 86.7179 1.0899 86.2099 1.38314C85.702 1.67638 85.3891 2.21832 85.3891 2.80481V8.47521H79.7187C78.8121 8.47521 78.0771 9.21018 78.0771 10.1168C78.0771 11.0234 78.8121 11.7584 79.7187 11.7584H85.3891V17.4288C85.3891 18.0153 85.702 18.5572 86.2099 18.8505C86.7179 19.1437 87.3436 19.1437 87.8515 18.8505C88.3595 18.5572 88.6723 18.0153 88.6723 17.4288V11.7584H94.3427C95.2494 11.7584 95.9843 11.0234 95.9843 10.1168C95.9843 9.21018 95.2494 8.47521 94.3427 8.47521Z" fill="currentColor"/>
<path d="M15.5201 83.9344H12.3201V80.7344C12.3201 79.8278 11.5851 79.0928 10.6785 79.0928C9.77188 79.0928 9.03691 79.8278 9.03691 80.7344V83.9344H5.83691C4.93028 83.9344 4.19531 84.6694 4.19531 85.576C4.19531 86.4826 4.93028 87.2176 5.83691 87.2176H9.03691V90.4176C9.03691 91.3242 9.77188 92.0592 10.6785 92.0592C11.5851 92.0592 12.3201 91.3242 12.3201 90.4176V87.2176H15.5201C16.4267 87.2176 17.1617 86.4826 17.1617 85.576C17.1617 84.6694 16.4267 83.9344 15.5201 83.9344Z"/>
<path fill-rule="evenodd" clip-rule="evenodd" d="M59.3887 60.52H66.1503C67.0388 60.533 67.7763 59.8366 67.8143 58.9488L68.1055 52.4272L78.4639 39.4672C78.8994 38.9201 78.9405 38.1572 78.5663 37.5664L68.9663 22.424C68.6804 21.9734 68.1937 21.6894 67.6607 21.6624L40.6207 20.3408C40.0955 20.314 39.5894 20.5414 39.2607 20.952L29.1999 33.432C28.8253 33.8977 28.7334 34.5302 28.9599 35.0832L33.0239 45.0704C33.2103 45.5352 33.5995 45.889 34.0799 46.0304L54.7263 52.1488L57.8815 59.5248C58.1385 60.1291 58.7321 60.521 59.3887 60.52ZM64.5791 57.2368H60.4735L57.4399 50.1328C57.2484 49.6831 56.8657 49.3427 56.3967 49.2048L35.7727 43.1056L32.3487 34.7376L41.2799 23.6464L66.6335 24.888L75.1423 38.328L65.1807 50.7888C64.9616 51.062 64.837 51.3988 64.8255 51.7488L64.5791 57.2368Z"/>
<path fill-rule="evenodd" clip-rule="evenodd" d="M50.8961 8.47522H57.3409C74.6368 8.49109 88.6544 22.5073 88.6721 39.8032V46.8432C88.6507 57.3171 85.249 67.5043 78.9729 75.8896L77.4017 77.9824V97.7584C77.4017 98.6651 76.6667 99.4 75.7601 99.4H41.1777C40.271 99.4 39.5361 98.6651 39.5361 97.7584V87.4928H24.2753C23.4113 87.4929 22.6958 86.8222 22.6401 85.96L21.2449 65.0384L15.2449 64.0784C14.7161 63.9936 14.262 63.6562 14.0281 63.1744C13.7942 62.6927 13.81 62.1271 14.0705 61.6592L22.3649 46.76L19.6961 40.4464C19.6093 40.2442 19.5647 40.0265 19.5649 39.8064C19.5807 22.5093 33.5989 8.4911 50.8961 8.47522ZM76.3489 73.912C82.1986 66.0968 85.3691 56.602 85.3889 46.84V39.8064C85.3712 24.3232 72.824 11.7761 57.3409 11.7584H50.8961C35.5405 11.7764 23.0473 24.1257 22.8513 39.48L25.7025 46.2352C25.8978 46.701 25.8683 47.2308 25.6225 47.672L18.0801 61.208L23.0433 61.992C23.7999 62.1129 24.3723 62.741 24.4225 63.5056L25.0401 72.7856C26.9121 72.744 30.2753 72.36 32.5153 70.2992C32.9463 69.8991 33.558 69.7593 34.12 69.9325C34.6821 70.1057 35.109 70.5655 35.24 71.1389C35.3711 71.7122 35.1863 72.3119 34.7553 72.712C31.7953 75.4448 27.6705 75.9984 25.2769 76.0688L25.8177 84.2064H41.1777C42.0843 84.2064 42.8193 84.9414 42.8193 85.848V96.1136H74.1281V77.432C74.1253 77.0775 74.2376 76.7317 74.4481 76.4464L76.3489 73.912Z"/>
</svg>
