<svg width="100" height="100" viewBox="0 0 100 100" xmlns="http://www.w3.org/2000/svg">
<path fill-rule="evenodd" clip-rule="evenodd" d="M60.1787 12.4204C68.9711 3.62801 83.2265 3.628 92.0189 12.4204C100.811 21.2128 100.811 35.4682 92.0189 44.2606L76.0973 60.1822C73.1184 63.161 69.5126 65.1307 65.7045 66.0911C64.7441 69.8992 62.7745 73.5052 59.7956 76.4841L43.874 92.4057C35.0815 101.198 20.8262 101.198 12.0338 92.4057C3.24135 83.6133 3.24135 69.358 12.0338 60.5655L27.9554 44.6439C30.9342 41.6651 34.5401 39.6955 38.3482 38.7351C39.3086 34.9269 41.2782 31.3209 44.2571 28.342L60.1787 12.4204ZM38.4305 50.106C37.3903 50.6479 36.4139 51.3556 35.5405 52.229L19.6189 68.1507C15.0156 72.7539 15.0156 80.2173 19.6189 84.8206C24.2222 89.4239 31.6856 89.4239 36.2888 84.8206L52.2104 68.899C53.0839 68.0256 53.7916 67.0491 54.3336 66.0088C50.6423 65.0206 47.1534 63.0784 44.2571 60.1822C41.3609 57.286 39.4187 53.7971 38.4305 50.106ZM53.7766 54.1633C53.0916 53.7195 52.4426 53.1975 51.8422 52.5971C51.2419 51.9968 50.7198 51.3478 50.2761 50.6629C50.9611 51.1066 51.6101 51.6287 52.2104 52.229C52.8108 52.8294 53.3328 53.4783 53.7766 54.1633ZM65.6221 54.7202C64.6339 51.029 62.6917 47.5401 59.7956 44.6439C56.8993 41.7477 53.4103 39.8055 49.7191 38.8173C50.2611 37.777 50.9688 36.8006 51.8422 35.9271L67.7638 20.0055C72.3671 15.4023 79.8305 15.4022 84.4338 20.0055C89.0371 24.6088 89.0371 32.0722 84.4338 36.6755L68.5122 52.5971C67.6388 53.4705 66.6624 54.1782 65.6221 54.7202Z" fill="currentColor"/>
<path d="M39.687 2.94874C39.4385 1.87248 38.3646 1.20142 37.2884 1.4499C36.2121 1.69837 35.541 2.77228 35.7895 3.84854L37.4007 10.8272C37.6491 11.9034 38.723 12.5745 39.7993 12.326C40.8756 12.0775 41.5466 11.0036 41.2981 9.92735L39.687 2.94874Z"/>
<path d="M17.7745 14.8471C16.9799 14.0798 15.7138 14.1019 14.9465 14.8964C14.1792 15.691 14.2013 16.9571 14.9959 17.7244L20.1479 22.6997C20.9425 23.467 22.2086 23.4449 22.9759 22.6503C23.7432 21.8558 23.7211 20.5896 22.9265 19.8223L17.7745 14.8471Z"/>
<path d="M4.53114 35.0198C3.47483 34.6968 2.35673 35.2913 2.03378 36.3476C1.71084 37.4039 2.30534 38.522 3.36165 38.845L10.2109 40.939C11.2672 41.2619 12.3853 40.6674 12.7082 39.6111C13.0312 38.5548 12.4367 37.4367 11.3804 37.1138L4.53114 35.0198Z"/>
<path d="M87.7342 56.9191C86.6779 56.5962 85.5598 57.1907 85.2368 58.247C84.9139 59.3033 85.5084 60.4214 86.5647 60.7443L93.4139 62.8383C94.4702 63.1613 95.5883 62.5668 95.9113 61.5105C96.2342 60.4542 95.6397 59.3361 94.5834 59.0131L87.7342 56.9191Z"/>
<path d="M77.7971 75.1583C77.0026 74.391 75.7364 74.4131 74.9691 75.2076C74.2018 76.0022 74.2239 77.2683 75.0185 78.0356L80.1705 83.0109C80.9651 83.7782 82.2312 83.7561 82.9985 82.9615C83.7658 82.167 83.7437 80.9008 82.9492 80.1335L77.7971 75.1583Z"/>
<path d="M60.5444 87.0309C60.2959 85.9547 59.222 85.2836 58.1457 85.5321C57.0695 85.7806 56.3984 86.8545 56.6469 87.9307L58.258 94.9094C58.5065 95.9856 59.5804 96.6567 60.6567 96.4082C61.7329 96.1597 62.404 95.0858 62.1555 94.0096L60.5444 87.0309Z"/>
<path fill-rule="evenodd" clip-rule="evenodd" d="M32.9527 33.9402L33.242 33.8429L33.339 33.5535C34.5294 30.0032 36.534 26.6683 39.3575 23.8447L54.3035 8.89875C64.0168 -0.814215 80.0069 -0.814572 89.7202 8.89874C99.4337 18.6123 99.4337 34.6023 89.7202 44.3155L74.7743 59.2614C72.0342 62.0015 68.6976 64.0663 65.0526 65.2923L64.7632 65.3896L64.6662 65.679C63.4758 69.2297 61.4712 72.5645 58.6477 75.3878L43.7017 90.3338C33.988 100.047 17.9978 100.047 8.28499 90.3338C-1.42833 80.6205 -1.42833 64.6302 8.28499 54.9171L23.2309 39.9711C25.971 37.231 29.3076 35.1663 32.9527 33.9402ZM65.8692 60.1792L65.9301 59.0828C66.0484 56.9539 65.8973 54.8133 65.4764 52.7164L65.4037 52.3541L65.6899 52.1202C66.0452 51.83 66.3865 51.5226 66.7107 51.1982L81.6567 36.2522C86.9313 30.9778 86.9313 22.2367 81.6567 16.962C76.3823 11.6876 67.6412 11.6876 62.3668 16.962L47.4208 31.908C42.1496 37.1792 42.065 45.8421 47.4208 51.1981C49.8176 53.5949 50.6031 56.997 49.7886 60.0534L49.6056 60.74L48.9529 60.4593C46.5652 59.4328 44.3743 57.9515 42.5209 56.0981C34.5006 48.0776 34.5006 35.0287 42.5209 27.0084L57.4668 12.0625C65.4368 4.09291 78.5867 4.0927 86.5567 12.0625C94.5266 20.0322 94.5266 33.1824 86.5569 41.1521L71.6109 56.0981C70.1927 57.5163 68.5809 58.713 66.8351 59.6569L65.8692 60.1792ZM63.5375 46.8864L63.9114 47.6709L78.4936 33.0887C82.0733 29.5091 82.0289 23.6989 78.4556 20.1256C74.93 16.6 69.0558 16.6 65.5303 20.1256L50.9498 34.7061L51.7322 35.0806C54.2853 36.3026 56.6321 37.9555 58.6478 39.9713C60.717 42.0407 62.3455 44.3848 63.5375 46.8864ZM55.4845 72.2249L40.5386 87.1705C32.5621 95.1465 19.4122 95.1335 11.4487 87.1704C3.47895 79.2007 3.47895 66.0504 11.4487 58.0808L26.3947 43.1348C27.8129 41.7166 29.4247 40.5199 31.1705 39.576L32.1364 39.0537L32.0755 40.1501C31.9572 42.279 32.1083 44.4196 32.5291 46.5165L32.6019 46.879L32.3155 47.1128C31.9604 47.4028 31.6195 47.71 31.2954 48.0342L16.3876 62.9802C11.0623 68.3053 11.0614 76.9456 16.387 82.2709C21.6614 87.5454 30.3646 87.5455 35.639 82.2709L50.5849 67.3251C55.8565 62.0535 55.9406 53.3907 50.5849 48.035C48.1882 45.6382 47.4026 42.2361 48.2172 39.1797L48.4002 38.4932L49.0529 38.7738C51.4406 39.8003 53.6315 41.2816 55.4849 43.135C63.5046 51.1555 63.5046 64.2042 55.4845 72.2249ZM34.4679 52.3464L34.0935 51.5607L19.5492 66.1447C15.9738 69.7211 15.9733 75.5305 19.5498 79.1071C23.0753 82.6327 28.9495 82.6327 32.4751 79.1071L47.0556 64.5266L46.2732 64.1521C43.7201 62.9302 41.3733 61.2772 39.3576 59.2615C37.2884 57.1921 35.6599 54.8479 34.4679 52.3464Z"/>
</svg>
