<svg width="100" height="100" viewBox="0 0 100 100" xmlns="http://www.w3.org/2000/svg">
<path fill-rule="evenodd" clip-rule="evenodd" d="M43.9956 73.6775C43.3289 74.0579 42.5 73.5765 42.5 72.8089V57.0121C42.5 56.2446 43.3289 55.7632 43.9956 56.1435L57.8383 64.0419C58.5109 64.4256 58.5109 65.3952 57.8383 65.779L43.9956 73.6775Z" fill="currentColor"/>
<rect x="10" y="36.5645" width="18.75" height="31.2098" rx="7.5" fill="currentColor"/>
<path fill-rule="evenodd" clip-rule="evenodd" d="M95.6709 39.9323C96.2285 39.6111 96.7936 39.448 97.3504 39.448C98.9103 39.448 99.9998 40.6736 100 42.4283V78.7031C100 79.5038 99.7744 80.2074 99.3477 80.7382C98.8572 81.3477 98.1479 81.6836 97.3504 81.6836H97.3502C96.7936 81.6836 96.2285 81.5206 95.6711 81.1993L79.2951 71.7566V80.9841C79.2951 82.8663 77.7617 84.3977 75.8772 84.3977H29.0719C28.9584 86.1782 27.476 87.5932 25.6651 87.5932H21.8748C21.0658 87.5932 20.41 86.9382 20.41 86.1302C20.41 85.3223 21.0658 84.6673 21.8748 84.6673H25.6653C25.9299 84.6673 26.1535 84.4439 26.1535 84.1796V81.4441C26.1535 81.1798 25.9299 80.9564 25.6653 80.9564H4.95842C4.69377 80.9564 4.47014 81.1798 4.47014 81.4441V84.1796C4.47014 84.4439 4.69377 84.6673 4.95842 84.6673H15.0389C15.8479 84.6673 16.5037 85.3223 16.5037 86.1302C16.5037 86.9382 15.8479 87.5932 15.0389 87.5932H4.95842C3.07385 87.5932 1.54046 86.0618 1.54046 84.1796V81.4441C1.54046 79.5618 3.07385 78.0305 4.95842 78.0305H13.8471V71.2994C10.5442 70.9847 7.42971 69.6115 4.95315 67.3523C2.13284 64.779 0.378151 61.2824 0.0125258 57.5064C-0.0607163 56.753 0.189674 55.9987 0.69983 55.4377C1.20862 54.8771 1.93635 54.5553 2.69553 54.5553H6.09397V42.7439C6.09397 37.6679 10.2291 33.538 15.3117 33.538C18.0957 33.538 20.5936 34.7788 22.2852 36.7337H75.8772C77.7617 36.7337 79.2951 38.2651 79.2951 40.1473V49.3747L95.6709 39.9323ZM15.3115 36.4643C11.8443 36.4643 9.02344 39.2815 9.02344 42.7443V50.9912H21.5998V42.7443C21.5998 39.2815 18.7789 36.4643 15.3115 36.4643ZM9.02363 53.9173H21.6V56.0185C21.6 59.4814 18.7791 62.2987 15.3117 62.2987C11.8445 62.2987 9.02363 59.4814 9.02363 56.0185V53.9173ZM2.95593 57.4814C3.30476 60.4374 4.70906 63.1671 6.92878 65.1922C9.22741 67.2891 12.2046 68.4439 15.3116 68.4439C18.4186 68.4439 21.3958 67.2891 23.6946 65.1922C25.9143 63.1669 27.3188 60.437 27.6674 57.4814H24.412C23.7079 61.8646 19.8958 65.2246 15.3116 65.2246C10.7274 65.2246 6.9155 61.8646 6.2114 57.4814H2.95593ZM76.3652 80.9845C76.3652 81.2488 76.1415 81.4721 75.8769 81.4721H29.0828V81.4442C29.0828 79.5619 27.5494 78.0306 25.6648 78.0306H16.7761V71.2995C20.079 70.9848 23.1937 69.6116 25.6703 67.3524C28.4904 64.7794 30.2451 61.2827 30.6107 57.5073C30.6841 56.7532 30.4335 55.9991 29.9242 55.4388C29.4146 54.8775 28.6871 54.5556 27.9277 54.5556H24.5292V42.7443C24.5292 41.6626 24.34 40.6247 23.9955 39.6598H75.8769C76.1415 39.6598 76.3652 39.8831 76.3652 40.1474V80.9845ZM90.1247 74.6231L97.07 78.6279V42.5041L90.1247 46.5089V61.6104C90.1247 62.4183 89.4689 63.0734 88.6599 63.0734C87.8509 63.0734 87.195 62.4183 87.195 61.6104V48.1982L79.295 52.7532V68.3784L87.195 72.9339V68.4375C87.195 67.6296 87.8509 66.9746 88.6599 66.9746C89.4689 66.9746 90.1247 67.6296 90.1247 68.4375V74.6231Z"/>
<path fill-rule="evenodd" clip-rule="evenodd" d="M40.7604 48.1222L58.6471 58.328C59.5607 58.8492 60.0848 59.6649 60.0848 60.5657C60.0848 61.4665 59.5607 62.2825 58.6469 62.8037L40.7605 73.0093C40.274 73.2868 39.7775 73.4275 39.2852 73.4275C37.8875 73.4275 36.873 72.3039 36.873 70.7559V50.3755C36.873 48.8275 37.8875 47.704 39.2852 47.704C39.7775 47.704 40.274 47.8448 40.7604 48.1222ZM39.8028 50.9455V70.1862L56.6634 60.5658L39.8028 50.9455Z"/>
<path d="M17.1573 40.1753H13.4653C12.6563 40.1753 12.0005 40.8303 12.0005 41.6383C12.0005 42.4462 12.6563 43.1012 13.4653 43.1012H17.1571C17.9661 43.1012 18.622 42.4462 18.622 41.6383C18.6222 40.8303 17.9663 40.1753 17.1573 40.1753Z"/>
<path d="M17.1573 45.583H13.4653C12.6563 45.583 12.0005 46.238 12.0005 47.046C12.0005 47.8539 12.6563 48.5089 13.4653 48.5089H17.1571C17.9661 48.5089 18.622 47.8539 18.622 47.046C18.6222 46.238 17.9663 45.583 17.1573 45.583Z"/>
<path d="M49.9996 30.3798C48.366 30.3798 46.7916 31.0716 45.6803 32.2781C45.1326 32.8726 45.1711 33.7982 45.7664 34.3454C46.0479 34.604 46.4033 34.7316 46.7578 34.7316C47.1531 34.7316 47.5473 34.5726 47.8361 34.2591C48.4025 33.6443 49.1707 33.3057 49.9994 33.3057C50.8279 33.3057 51.5963 33.6443 52.1629 34.2593C52.7105 34.8539 53.6373 34.8923 54.2326 34.3452C54.8279 33.798 54.8664 32.8726 54.3186 32.2781C53.2072 31.0716 51.633 30.3798 49.9996 30.3798Z"/>
<path d="M56.4324 30.3386C56.7213 30.652 57.1154 30.8108 57.5107 30.8108C57.8652 30.8108 58.2209 30.683 58.5023 30.4244C59.0976 29.8773 59.1361 28.9517 58.5881 28.3571C56.3799 25.9608 53.2496 24.5866 50 24.5866C46.7504 24.5866 43.6201 25.9608 41.4119 28.3571C40.8641 28.9517 40.9025 29.8771 41.4977 30.4244C42.093 30.9717 43.0197 30.9331 43.5676 30.3388C45.2226 28.5426 47.5672 27.5127 50 27.5127C52.4328 27.5123 54.7773 28.5424 56.4324 30.3386Z"/>
<path d="M51.7753 21.8267C52.5793 21.9256 53.3089 21.3543 53.4072 20.5522C53.5054 19.7503 52.9341 19.0206 52.131 18.9226C51.4291 18.8368 50.7121 18.7933 50.0002 18.7933C45.1365 18.7933 40.4507 20.8506 37.1449 24.4378C36.597 25.0321 36.6353 25.9577 37.2306 26.5049C37.5121 26.7637 37.8677 26.8915 38.2222 26.8915C38.6175 26.8915 39.0117 26.7327 39.3004 26.4192C42.0533 23.4323 45.9533 21.7192 50.0002 21.7192C50.5935 21.7192 51.1908 21.7553 51.7753 21.8267Z"/>
<path d="M60.6993 26.4192C60.9881 26.7326 61.3821 26.8914 61.7776 26.8914C62.1321 26.8914 62.4877 26.7636 62.7692 26.505C63.3645 25.9578 63.403 25.0323 62.8551 24.4377C61.7694 23.2598 60.5293 22.2359 59.1692 21.3952C58.4809 20.9699 57.5782 21.1822 57.1526 21.8692C56.7268 22.5562 56.9393 23.4579 57.6272 23.8832C58.7606 24.5836 59.7942 25.4368 60.6993 26.4192Z"/>
<path d="M33.9533 22.9711C34.3486 22.9711 34.7427 22.8122 35.0314 22.4989C38.881 18.3217 44.3367 15.9259 49.9994 15.9259C55.6619 15.9259 61.1175 18.3217 64.9674 22.4989C65.5152 23.0934 66.442 23.1319 67.0371 22.5845C67.6324 22.0374 67.6707 21.1118 67.1228 20.5175C62.7201 15.74 56.4787 13 49.9994 13C43.5199 13 37.2785 15.74 32.8758 20.5175C32.3279 21.112 32.3664 22.0374 32.9617 22.5847C33.2431 22.8432 33.5986 22.9711 33.9533 22.9711Z"/>
</svg>
