<svg width="100" height="100" viewBox="0 0 100 100" xmlns="http://www.w3.org/2000/svg">
<path d="M17.0332 14.2994H13.5937V10.8569C13.5937 10.3885 13.4078 9.93934 13.0769 9.60816C12.746 9.27697 12.2972 9.09091 11.8293 9.09091C11.3613 9.09091 10.9125 9.27697 10.5816 9.60816C10.2507 9.93934 10.0648 10.3885 10.0648 10.8569V14.2994H6.6253C6.15734 14.2994 5.70854 14.4854 5.37764 14.8166C5.04674 15.1478 4.86084 15.597 4.86084 16.0653C4.86084 16.5337 5.04674 16.9829 5.37764 17.3141C5.70854 17.6453 6.15734 17.8313 6.6253 17.8313H10.0648V21.2738C10.0648 21.5057 10.1104 21.7353 10.1991 21.9496C10.2878 22.1639 10.4178 22.3585 10.5816 22.5225C10.7454 22.6865 10.94 22.8166 11.154 22.9054C11.3681 22.9941 11.5976 23.0398 11.8293 23.0398C12.061 23.0398 12.2904 22.9941 12.5045 22.9054C12.7186 22.8166 12.9131 22.6865 13.0769 22.5225C13.2408 22.3585 13.3707 22.1639 13.4594 21.9496C13.5481 21.7353 13.5937 21.5057 13.5937 21.2738V17.8382H17.0332C17.5012 17.8382 17.95 17.6522 18.2809 17.321C18.6118 16.9898 18.7977 16.5406 18.7977 16.0722C18.7977 15.6039 18.6118 15.1547 18.2809 14.8235C17.95 14.4923 17.5012 14.3062 17.0332 14.3062V14.2994Z" fill="currentColor"/>
<path d="M79.423 31.1436H21.519V70.6114H79.423V31.1436Z" fill="currentColor"/>
<path d="M98.2359 74.4842H92.1411V68.3841C92.1411 67.9158 91.9552 67.4666 91.6243 67.1354C91.2934 66.8042 90.8446 66.6182 90.3766 66.6182C89.9087 66.6182 89.4599 66.8042 89.129 67.1354C88.7981 67.4666 88.6122 67.9158 88.6122 68.3841V74.4842H82.5174C82.0494 74.4842 81.6006 74.6703 81.2697 75.0015C80.9388 75.3326 80.7529 75.7818 80.7529 76.2502C80.7529 76.7186 80.9388 77.1678 81.2697 77.4989C81.6006 77.8301 82.0494 78.0162 82.5174 78.0162H88.6122V84.1162C88.6122 84.5846 88.7981 85.0338 89.129 85.365C89.4599 85.6962 89.9087 85.8822 90.3766 85.8822C90.8446 85.8822 91.2934 85.6962 91.6243 85.365C91.9552 85.0338 92.1411 84.5846 92.1411 84.1162V78.0162H98.2359C98.7039 78.0162 99.1527 77.8301 99.4836 77.4989C99.8145 77.1678 100 76.7186 100 76.2502C100 75.7818 99.8145 75.3326 99.4836 75.0015C99.1527 74.6703 98.7039 74.4842 98.2359 74.4842Z"/>
<path d="M76.2793 65.5683V29.8596C76.2775 28.4441 75.7149 27.0871 74.7148 26.0862C73.7148 25.0853 72.3589 24.5221 70.9446 24.5203H64.9324C63.5009 20.5415 60.8777 17.1016 57.4208 14.6701C53.9638 12.2386 49.8414 10.9338 45.6162 10.9338C41.3909 10.9338 37.2686 12.2386 33.8116 14.6701C30.3546 17.1016 27.7315 20.5415 26.3 24.5203H20.3049C18.8906 24.5221 17.5348 25.0853 16.5348 26.0862C15.5347 27.0871 14.9721 28.4441 14.9703 29.8596V65.5683L10.3132 79.5516C10.0747 80.2744 10.0107 81.0435 10.1263 81.7959C10.242 82.5483 10.5341 83.2625 10.9788 83.8802C11.4234 84.4978 12.0078 85.0012 12.6843 85.3492C13.3607 85.6972 14.1099 85.8799 14.8705 85.8823H76.3791C77.1396 85.8799 77.8888 85.6972 78.5653 85.3492C79.2417 85.0012 79.8262 84.4978 80.2708 83.8802C80.7154 83.2625 81.0075 82.5483 81.1232 81.7959C81.2389 81.0435 81.1749 80.2744 80.9364 79.5516L76.2793 65.5683ZM33.6089 19.4392C36.8038 16.2914 41.1123 14.5349 45.5955 14.5525C50.0787 14.5701 54.3732 16.3603 57.5433 19.5332C60.7135 22.7061 62.5022 27.0043 62.5198 31.4914C62.5374 35.9785 60.7824 40.2906 57.6372 43.4883L45.6231 55.5128L33.6089 43.4883C30.4244 40.2982 28.6355 35.9732 28.6355 31.4638C28.6355 26.9543 30.4244 22.6293 33.6089 19.4392ZM18.4992 29.8665C18.5001 29.3874 18.6906 28.9283 19.0291 28.5895C19.3675 28.2508 19.8263 28.0601 20.3049 28.0592H25.3885C25.2016 29.1845 25.1061 30.323 25.103 31.4638C25.0953 34.1604 25.6218 36.8318 26.652 39.3236C27.6822 41.8153 29.1957 44.0779 31.1049 45.9806L44.3676 59.2548C44.6985 59.5855 45.1469 59.7712 45.6145 59.7712C46.082 59.7712 46.5305 59.5855 46.8613 59.2548L60.124 45.9806C62.4366 43.6652 64.1623 40.8298 65.1573 37.7111C66.1524 34.5923 66.3877 31.2806 65.8439 28.0523H70.9412C71.4198 28.0532 71.8786 28.2439 72.2171 28.5826C72.5555 28.9214 72.746 29.3805 72.7469 29.8596V64.088H18.4992V29.8665ZM77.4144 81.8202C77.297 81.9844 77.1422 82.1183 76.9627 82.2105C76.7832 82.3027 76.5843 82.3506 76.3825 82.3503H14.8705C14.6684 82.3503 14.4693 82.3022 14.2894 82.21C14.1095 82.1179 13.954 81.9843 13.8358 81.8203C13.7176 81.6563 13.64 81.4665 13.6094 81.2665C13.5788 81.0666 13.5961 80.8623 13.6598 80.6704L18.0073 67.62H73.2422L77.5898 80.6704C77.6541 80.8622 77.6718 81.0666 77.6413 81.2665C77.6108 81.4665 77.533 81.6563 77.4144 81.8202Z"/>
<path d="M50.1872 76.2641H41.0794C40.6105 76.2641 40.1609 76.4505 39.8293 76.7823C39.4978 77.1141 39.3115 77.5642 39.3115 78.0335C39.3115 78.5028 39.4978 78.9528 39.8293 79.2847C40.1609 79.6165 40.6105 79.8029 41.0794 79.8029H50.2044C50.6724 79.8029 51.1212 79.6169 51.4521 79.2857C51.783 78.9545 51.9689 78.5053 51.9689 78.0369C51.9689 77.5686 51.783 77.1194 51.4521 76.7882C51.1212 76.457 50.6724 76.2709 50.2044 76.2709L50.1872 76.2641Z"/>
<path d="M45.623 38.3106C47.0402 38.3113 48.4259 37.8912 49.6046 37.1035C50.7833 36.3159 51.7022 35.196 52.2448 33.8856C52.7875 32.5752 52.9297 31.1331 52.6534 29.7418C52.377 28.3506 51.6946 27.0725 50.6924 26.0695C49.6903 25.0665 48.4134 24.3835 47.0233 24.1069C45.6332 23.8303 44.1924 23.9726 42.8831 24.5158C41.5738 25.0589 40.4549 25.9785 39.6679 27.1583C38.8809 28.338 38.4612 29.7249 38.4619 31.1434C38.4619 33.0442 39.2164 34.8672 40.5593 36.2114C41.9023 37.5555 43.7237 38.3106 45.623 38.3106Z"/>
</svg>
