<svg width="99" height="100" viewBox="0 0 99 100" xmlns="http://www.w3.org/2000/svg">
<path fill-rule="evenodd" clip-rule="evenodd" d="M14.978 34.4656V82.7108H33V76.3636C33 72.4277 36.1907 69.2369 40.1267 69.2369H58.5152C62.4511 69.2369 65.6419 72.4277 65.6419 76.3636V82.7108H92.7081V34.4656H14.978ZM49.3142 64.4353C55.8777 64.4353 61.1985 59.1145 61.1985 52.551C61.1985 45.9875 55.8777 40.6667 49.3142 40.6667C42.7507 40.6667 37.4299 45.9875 37.4299 52.551C37.4299 59.1145 42.7507 64.4353 49.3142 64.4353Z" fill="currentColor"/>
<path fill-rule="evenodd" clip-rule="evenodd" d="M36.2039 52.551C36.2039 59.7915 42.0735 65.6612 49.3141 65.6612C56.5515 65.6536 62.4167 59.7884 62.4242 52.551C62.4242 45.3104 56.5546 39.4408 49.3141 39.4408C42.0735 39.4408 36.2039 45.3104 36.2039 52.551ZM38.6529 52.551C38.6529 46.663 43.4261 41.8898 49.314 41.8898C55.1995 41.8959 59.9691 46.6655 59.9752 52.551C59.9752 58.439 55.202 63.2121 49.314 63.2121C43.4261 63.2121 38.6529 58.439 38.6529 52.551Z"/>
<path d="M65.6309 84.8485C64.9554 84.8485 64.4078 84.3009 64.4078 83.6254V76.3637C64.4032 73.1098 61.769 70.4719 58.5152 70.4628H40.1268C36.8687 70.4659 34.2278 73.1055 34.2232 76.3637V83.6336C34.1922 84.2873 33.6531 84.8014 32.9987 84.8014C32.3442 84.8014 31.8052 84.2873 31.7742 83.6336V76.3637C31.7802 71.7536 35.5167 68.0183 40.1268 68.0138H58.5152C63.1242 68.0199 66.859 71.7547 66.8651 76.3637V83.6336C66.8629 83.9585 66.7316 84.2692 66.5 84.4971C66.2685 84.725 65.9558 84.8514 65.6309 84.8485V84.8485Z"/>
<path d="M88.1792 79.4077H65.631C64.9773 79.3767 64.4632 78.8377 64.4632 78.1832C64.4632 77.5287 64.9773 76.9897 65.631 76.9587H86.9561V31.1625H11.6834V76.9587H33.0084C33.6622 76.9897 34.1762 77.5287 34.1762 78.1832C34.1762 78.8377 33.6622 79.3767 33.0084 79.4077H10.4492C9.77369 79.4077 9.22607 78.8601 9.22607 78.1846V29.9366C9.22607 29.2611 9.77369 28.7135 10.4492 28.7135H88.1792C88.5041 28.7128 88.8159 28.8413 89.0459 29.0708C89.2759 29.3002 89.4051 29.6118 89.4051 29.9366V78.1846C89.4051 78.5095 89.2759 78.821 89.0459 79.0504C88.8159 79.2799 88.5041 79.4085 88.1792 79.4077Z"/>
<path fill-rule="evenodd" clip-rule="evenodd" d="M17.2397 25.6061C17.4157 25.6983 17.6113 25.7465 17.81 25.7466C18.0698 25.7444 18.322 25.6584 18.529 25.5014C18.9058 25.2281 19.0948 24.7646 19.0166 24.3058L18.4381 20.9366L20.8844 18.5592C21.2189 18.2344 21.3396 17.7477 21.1957 17.3041C21.0518 16.8606 20.6682 16.5376 20.2067 16.4711L16.8265 15.978L15.3224 12.9201C15.1185 12.4969 14.6902 12.2278 14.2205 12.2278C13.7507 12.2278 13.3224 12.4969 13.1185 12.9201L11.6061 15.978L8.22873 16.4766C7.76847 16.545 7.38665 16.8681 7.24301 17.3107C7.09937 17.7533 7.21869 18.2391 7.55104 18.5647L9.99181 20.9366L9.40503 24.3168C9.32657 24.7755 9.51517 25.239 9.89161 25.5125C10.268 25.7861 10.7671 25.8223 11.1791 25.6061L14.2094 24.0165L17.2397 25.6061ZM14.799 21.551C14.623 21.4587 14.4274 21.4105 14.2287 21.4105H14.215C14.0125 21.4079 13.8126 21.4562 13.6337 21.551L12.2342 22.2865L12.5097 20.7273C12.5813 20.3321 12.4535 19.9271 12.1681 19.6446L11.0359 18.5427L12.6006 18.3141C12.9991 18.2568 13.3436 18.0062 13.5207 17.6446L14.2205 16.2287L14.9202 17.6446C15.099 18.0059 15.4441 18.2562 15.8431 18.3141L17.405 18.5427L16.2756 19.6446C15.9861 19.9249 15.8541 20.3303 15.9229 20.7273L16.1984 22.2865L14.799 21.551Z"/>
<path fill-rule="evenodd" clip-rule="evenodd" d="M34.7906 25.6061C34.9657 25.698 35.1604 25.7462 35.3581 25.7466V25.7356C35.7189 25.7359 36.0613 25.5769 36.2939 25.3013C36.5266 25.0256 36.6257 24.6613 36.5648 24.3058L35.989 20.9367L38.4353 18.5592C38.7676 18.2336 38.8869 17.7478 38.7433 17.3052C38.5997 16.8626 38.2178 16.5395 37.7576 16.4711L34.3747 15.978L32.8705 12.9146C32.6666 12.4914 32.2384 12.2224 31.7686 12.2224C31.2988 12.2224 30.8706 12.4914 30.6667 12.9146L29.1543 15.978L25.7741 16.4656C25.3126 16.5321 24.929 16.8552 24.7851 17.2987C24.6412 17.7422 24.7619 18.2289 25.0964 18.5537L27.5427 20.9367L26.9532 24.3168C26.8762 24.7757 27.0656 25.2386 27.4422 25.5119C27.8188 25.7851 28.3177 25.8216 28.73 25.6061L31.7603 24.0165L34.7906 25.6061ZM29.7108 19.6446L28.5813 18.5427L30.1405 18.3141C30.5333 18.2512 30.8713 18.0016 31.0468 17.6446L31.7466 16.2287L32.4463 17.6446C32.6242 18.0055 32.9683 18.2559 33.3664 18.3141L34.9311 18.5427L33.7989 19.6446C33.5107 19.9257 33.3789 20.3304 33.4463 20.7273L33.7218 22.2865L32.3278 21.551C31.9707 21.3638 31.5445 21.3638 31.1873 21.551L29.7879 22.2865L30.0634 20.7273C30.1322 20.3303 30.0002 19.925 29.7108 19.6446Z"/>
<path fill-rule="evenodd" clip-rule="evenodd" d="M52.339 25.6061C52.5149 25.6983 52.7106 25.7465 52.9093 25.7466C53.1691 25.7444 53.4212 25.6584 53.6283 25.5014C54.005 25.2281 54.1941 24.7647 54.1159 24.3058L53.5374 20.9367L55.9836 18.5593C56.3181 18.2344 56.4389 17.7477 56.295 17.3042C56.151 16.8607 55.7675 16.5376 55.3059 16.4711L51.9258 15.978L50.4216 12.9146C50.2147 12.4954 49.7873 12.2304 49.3197 12.2314C48.852 12.2297 48.4243 12.4949 48.2178 12.9146L46.7054 15.978L43.3225 16.4656C42.8622 16.534 42.4804 16.8571 42.3368 17.2997C42.1931 17.7423 42.3124 18.2281 42.6448 18.5537L45.0911 20.9367L44.5043 24.3168C44.4258 24.7755 44.6144 25.239 44.9909 25.5125C45.3673 25.7861 45.8664 25.8224 46.2784 25.6061L49.3087 24.0166L52.339 25.6061ZM49.8845 21.551C49.7085 21.4587 49.5129 21.4105 49.3142 21.4105C49.1108 21.4075 48.9099 21.4558 48.7302 21.551L47.3307 22.2865L47.6062 20.7273C47.6736 20.3304 47.5418 19.9257 47.2536 19.6447L46.1214 18.5427L47.6861 18.3141C48.0846 18.2568 48.4291 18.0062 48.6062 17.6447L49.3059 16.2287L50.0057 17.6447C50.1845 18.006 50.5296 18.2563 50.9285 18.3141L52.4905 18.5427L51.361 19.6447C51.0716 19.925 50.9396 20.3303 51.0084 20.7273L51.2839 22.2865L49.8845 21.551Z"/>
<path fill-rule="evenodd" clip-rule="evenodd" d="M69.8899 25.6061C70.0649 25.698 70.2596 25.7462 70.4574 25.7466V25.7356C70.8181 25.7359 71.1605 25.5769 71.3932 25.3013C71.6258 25.0256 71.7249 24.6613 71.664 24.3058L71.0882 20.9367L73.5345 18.5592C73.8669 18.2336 73.9862 17.7478 73.8425 17.3052C73.6989 16.8626 73.3171 16.5395 72.8568 16.4711L69.4739 15.978L67.9698 12.9146C67.7659 12.4914 67.3376 12.2224 66.8678 12.2224C66.3981 12.2224 65.9698 12.4914 65.7659 12.9146L64.2535 15.978L60.8789 16.4656C60.4173 16.5321 60.0338 16.8552 59.8898 17.2987C59.7459 17.7422 59.8667 18.2289 60.2012 18.5537L62.6475 20.9367L62.0524 24.3168C61.9754 24.7757 62.1649 25.2386 62.5415 25.5119C62.9181 25.7851 63.4169 25.8216 63.8293 25.6061L66.8596 24.0165L69.8899 25.6061ZM67.4436 21.551C67.2688 21.4584 67.0739 21.4102 66.8761 21.4105H66.8651C66.6646 21.4096 66.4669 21.4579 66.2893 21.551L64.8899 22.2865L65.1654 20.7273C65.2342 20.3303 65.1022 19.925 64.8127 19.6446L63.6833 18.5427L65.2452 18.3141C65.6442 18.2562 65.9893 18.006 66.1681 17.6446L66.8678 16.2287L67.5676 17.6446C67.7447 18.0062 68.0892 18.2568 68.4877 18.3141L70.0524 18.5427L68.9202 19.6446C68.632 19.9257 68.5002 20.3304 68.5676 20.7273L68.843 22.2865L67.4436 21.551Z"/>
<path fill-rule="evenodd" clip-rule="evenodd" d="M87.4409 25.6198C87.6172 25.7069 87.8118 25.7503 88.0084 25.7466C88.2682 25.7444 88.5204 25.6584 88.7274 25.5014C89.1042 25.2281 89.2932 24.7646 89.215 24.3058L88.6365 20.9366L91.0828 18.5592C91.4173 18.2344 91.538 17.7477 91.3941 17.3041C91.2501 16.8606 90.8666 16.5376 90.4051 16.4711L87.0249 15.978L85.5125 12.9201C85.3086 12.4969 84.8803 12.2278 84.4106 12.2278C83.9408 12.2278 83.5125 12.4969 83.3086 12.9201L81.8045 15.978L78.4216 16.4656C77.9613 16.534 77.5795 16.8571 77.4359 17.2997C77.2922 17.7423 77.4116 18.2281 77.7439 18.5537L80.1902 20.9366L79.6062 24.3306C79.5277 24.7893 79.7163 25.2527 80.0927 25.5263C80.4692 25.7999 80.9682 25.8361 81.3803 25.6198L84.4106 24.0303L87.4409 25.6198ZM84.9808 21.551C84.8049 21.4587 84.6092 21.4105 84.4106 21.4105C84.2091 21.4092 84.0105 21.4574 83.8321 21.551L82.4354 22.2865L82.7109 20.7273C82.7782 20.3304 82.6464 19.9257 82.3582 19.6446L81.226 18.5427L82.7907 18.3141C83.1893 18.2568 83.5337 18.0062 83.7109 17.6446L84.4106 16.2287L85.102 17.6446C85.2809 18.0059 85.6259 18.2562 86.0249 18.3141L87.5869 18.5427L86.4574 19.6446C86.168 19.9249 86.036 20.3303 86.1048 20.7273L86.3803 22.2865L84.9808 21.551Z"/>
<path d="M84.8926 93.6997H72.3031C71.5226 93.6997 70.8899 93.067 70.8899 92.2865C70.8899 91.506 71.5226 90.8733 72.3031 90.8733H84.8926C85.6731 90.8733 86.3059 91.506 86.3059 92.2865C86.3059 93.067 85.6731 93.6997 84.8926 93.6997Z"/>
<path d="M78.5979 100C77.8174 100 77.1847 99.3673 77.1847 98.5868V85.9972C77.1847 85.2167 77.8174 84.584 78.5979 84.584C79.3784 84.584 80.0111 85.2167 80.0111 85.9972V98.5868C80.0118 98.9618 79.8632 99.3217 79.598 99.5869C79.3328 99.8521 78.9729 100.001 78.5979 100Z"/>
<path d="M27.4325 7.20663H19.0936C18.3131 7.20663 17.6804 6.5739 17.6804 5.7934C17.6804 5.0129 18.3131 4.38018 19.0936 4.38018H27.4325C28.213 4.38018 28.8457 5.0129 28.8457 5.7934C28.8457 6.5739 28.213 7.20663 27.4325 7.20663Z" fill="currentColor"/>
<path d="M23.2534 11.3747C22.8784 11.3754 22.5185 11.2267 22.2533 10.9616C21.9881 10.6964 21.8395 10.3365 21.8402 9.96145V1.6226C21.8402 0.842103 22.4729 0.209381 23.2534 0.209381C24.0339 0.209381 24.6666 0.842103 24.6666 1.6226V9.96145C24.6666 10.3363 24.5178 10.6957 24.2527 10.9607C23.9877 11.2258 23.6282 11.3747 23.2534 11.3747Z" fill="currentColor"/>
</svg>
