<svg width="99" height="100" viewBox="0 0 99 100" xmlns="http://www.w3.org/2000/svg">
<path d="M14.978 34.4656V82.7108H37.5262H70.1598H92.7081V34.4656H14.978Z" fill="currentColor"/>
<path d="M49.314 64.4352C55.8775 64.4352 61.1983 59.1144 61.1983 52.5509C61.1983 45.9874 55.8775 40.6666 49.314 40.6666C42.7505 40.6666 37.4297 45.9874 37.4297 52.5509C37.4297 59.1144 42.7505 64.4352 49.314 64.4352Z" fill="white"/>
<path d="M33 83.6336V76.3636C33 72.4276 36.1907 69.2369 40.1267 69.2369H58.5152C62.4511 69.2369 65.6419 72.4276 65.6419 76.3636V83.6336" fill="white"/>
<path fill-rule="evenodd" clip-rule="evenodd" d="M36.2041 52.5509C36.2041 59.7915 42.0737 65.6611 49.3143 65.6611C56.5517 65.6535 62.4169 59.7883 62.4245 52.5509C62.4245 45.3104 56.5549 39.4407 49.3143 39.4407C42.0737 39.4407 36.2041 45.3104 36.2041 52.5509ZM38.6531 52.5509C38.6531 46.6629 43.4263 41.8898 49.3143 41.8898C55.1998 41.8958 59.9694 46.6655 59.9755 52.5509C59.9755 58.4389 55.2023 63.2121 49.3143 63.2121C43.4263 63.2121 38.6531 58.4389 38.6531 52.5509Z"/>
<path d="M65.6312 84.8484C64.9556 84.8484 64.408 84.3008 64.408 83.6253V76.3636C64.4035 73.1098 61.7693 70.4719 58.5155 70.4628H40.127C36.8689 70.4658 34.228 73.1055 34.2234 76.3636V83.6336C34.1924 84.2873 33.6534 84.8014 32.9989 84.8014C32.3445 84.8014 31.8054 84.2873 31.7744 83.6336V76.3636C31.7805 71.7535 35.517 68.0183 40.127 68.0137H58.5155C63.1244 68.0198 66.8593 71.7546 66.8653 76.3636V83.6336C66.8631 83.9584 66.7318 84.2691 66.5003 84.497C66.2687 84.7249 65.956 84.8514 65.6312 84.8484Z"/>
<path d="M88.1792 79.4077H65.631C64.9773 79.3767 64.4632 78.8377 64.4632 78.1832C64.4632 77.5287 64.9773 76.9897 65.631 76.9587H86.9561V31.1625H11.6834V76.9587H33.0084C33.6622 76.9897 34.1762 77.5287 34.1762 78.1832C34.1762 78.8377 33.6622 79.3767 33.0084 79.4077H10.4492C9.77369 79.4077 9.22607 78.8601 9.22607 78.1846V29.9366C9.22607 29.2611 9.77369 28.7135 10.4492 28.7135H88.1792C88.5041 28.7128 88.8159 28.8413 89.0459 29.0708C89.2759 29.3002 89.4051 29.6118 89.4051 29.9366V78.1846C89.4051 78.5095 89.2759 78.821 89.0459 79.0504C88.8159 79.2799 88.5041 79.4085 88.1792 79.4077Z"/>
<path fill-rule="evenodd" clip-rule="evenodd" d="M17.2397 25.6061C17.4157 25.6983 17.6113 25.7465 17.81 25.7466C18.0698 25.7444 18.322 25.6584 18.529 25.5014C18.9058 25.2281 19.0948 24.7646 19.0166 24.3058L18.4381 20.9366L20.8844 18.5592C21.2189 18.2344 21.3396 17.7477 21.1957 17.3041C21.0518 16.8606 20.6682 16.5376 20.2067 16.4711L16.8265 15.978L15.3224 12.9201C15.1185 12.4969 14.6902 12.2278 14.2205 12.2278C13.7507 12.2278 13.3224 12.4969 13.1185 12.9201L11.6061 15.978L8.22873 16.4766C7.76847 16.545 7.38665 16.8681 7.24301 17.3107C7.09937 17.7533 7.21869 18.2391 7.55104 18.5647L9.99181 20.9366L9.40503 24.3168C9.32657 24.7755 9.51517 25.239 9.89161 25.5125C10.268 25.7861 10.7671 25.8223 11.1791 25.6061L14.2094 24.0165L17.2397 25.6061ZM14.799 21.551C14.623 21.4587 14.4274 21.4105 14.2287 21.4105H14.215C14.0125 21.4079 13.8126 21.4562 13.6337 21.551L12.2342 22.2865L12.5097 20.7273C12.5813 20.3321 12.4535 19.9271 12.1681 19.6446L11.0359 18.5427L12.6006 18.3141C12.9991 18.2568 13.3436 18.0062 13.5207 17.6446L14.2205 16.2287L14.9202 17.6446C15.099 18.0059 15.4441 18.2562 15.8431 18.3141L17.405 18.5427L16.2756 19.6446C15.9861 19.9249 15.8541 20.3303 15.9229 20.7273L16.1984 22.2865L14.799 21.551Z"/>
<path fill-rule="evenodd" clip-rule="evenodd" d="M34.7909 25.606C34.966 25.6979 35.1607 25.7461 35.3584 25.7465V25.7355C35.7191 25.7358 36.0615 25.5769 36.2942 25.3012C36.5268 25.0256 36.6259 24.6613 36.565 24.3057L35.9892 20.9366L38.4355 18.5592C38.7679 18.2335 38.8872 17.7478 38.7436 17.3052C38.5999 16.8626 38.2181 16.5395 37.7578 16.471L34.3749 15.9779L32.8708 12.9146C32.6669 12.4913 32.2386 12.2223 31.7689 12.2223C31.2991 12.2223 30.8708 12.4913 30.6669 12.9146L29.1545 15.9779L25.7744 16.4655C25.3129 16.532 24.9293 16.8551 24.7854 17.2986C24.6414 17.7421 24.7622 18.2289 25.0967 18.5537L27.543 20.9366L26.9534 24.3168C26.8764 24.7756 27.0659 25.2385 27.4425 25.5118C27.8191 25.7851 28.3179 25.8215 28.7303 25.606L31.7606 24.0165L34.7909 25.606ZM29.711 19.6446L28.5815 18.5427L30.1408 18.314C30.5336 18.2511 30.8715 18.0016 31.0471 17.6446L31.7468 16.2286L32.4465 17.6446C32.6245 18.0055 32.9685 18.2558 33.3667 18.314L34.9314 18.5427L33.7992 19.6446C33.511 19.9257 33.3792 20.3303 33.4465 20.7272L33.722 22.2865L32.3281 21.5509C31.9709 21.3638 31.5447 21.3638 31.1876 21.5509L29.7881 22.2865L30.0636 20.7272C30.1324 20.3302 30.0004 19.9249 29.711 19.6446Z"/>
<path fill-rule="evenodd" clip-rule="evenodd" d="M52.339 25.606C52.5149 25.6983 52.7106 25.7465 52.9093 25.7465C53.1691 25.7444 53.4212 25.6584 53.6283 25.5014C54.005 25.2281 54.1941 24.7646 54.1159 24.3058L53.5374 20.9366L55.9836 18.5592C56.3181 18.2344 56.4389 17.7476 56.295 17.3041C56.151 16.8606 55.7675 16.5375 55.3059 16.4711L51.9258 15.9779L50.4216 12.9146C50.2147 12.4954 49.7873 12.2304 49.3197 12.2314C48.852 12.2297 48.4243 12.4949 48.2178 12.9146L46.7054 15.9779L43.3225 16.4656C42.8622 16.534 42.4804 16.8571 42.3368 17.2997C42.1931 17.7423 42.3124 18.228 42.6448 18.5537L45.0911 20.9366L44.5043 24.3168C44.4258 24.7755 44.6144 25.2389 44.9909 25.5125C45.3673 25.7861 45.8664 25.8223 46.2784 25.606L49.3087 24.0165L52.339 25.606ZM49.8845 21.551C49.7085 21.4587 49.5129 21.4105 49.3142 21.4105C49.1108 21.4074 48.9099 21.4557 48.7302 21.551L47.3307 22.2865L47.6062 20.7273C47.6736 20.3304 47.5418 19.9257 47.2536 19.6446L46.1214 18.5427L47.6861 18.314C48.0846 18.2567 48.4291 18.0062 48.6062 17.6446L49.3059 16.2286L50.0057 17.6446C50.1845 18.0059 50.5296 18.2562 50.9285 18.314L52.4905 18.5427L51.361 19.6446C51.0716 19.9249 50.9396 20.3303 51.0084 20.7273L51.2839 22.2865L49.8845 21.551Z"/>
<path fill-rule="evenodd" clip-rule="evenodd" d="M69.8899 25.606C70.0649 25.6979 70.2596 25.7461 70.4574 25.7465V25.7355C70.8181 25.7358 71.1605 25.5769 71.3932 25.3012C71.6258 25.0256 71.7249 24.6613 71.664 24.3057L71.0882 20.9366L73.5345 18.5592C73.8669 18.2335 73.9862 17.7478 73.8425 17.3052C73.6989 16.8626 73.3171 16.5395 72.8568 16.471L69.4739 15.9779L67.9698 12.9146C67.7659 12.4913 67.3376 12.2223 66.8678 12.2223C66.3981 12.2223 65.9698 12.4913 65.7659 12.9146L64.2535 15.9779L60.8789 16.4655C60.4173 16.532 60.0338 16.8551 59.8898 17.2986C59.7459 17.7421 59.8667 18.2289 60.2012 18.5537L62.6475 20.9366L62.0524 24.3168C61.9754 24.7756 62.1649 25.2385 62.5415 25.5118C62.9181 25.7851 63.4169 25.8215 63.8293 25.606L66.8596 24.0165L69.8899 25.606ZM67.4436 21.5509C67.2688 21.4584 67.0739 21.4101 66.8761 21.4104H66.8651C66.6646 21.4096 66.4669 21.4578 66.2893 21.5509L64.8899 22.2865L65.1654 20.7272C65.2342 20.3302 65.1022 19.9249 64.8127 19.6446L63.6833 18.5427L65.2452 18.314C65.6442 18.2562 65.9893 18.0059 66.1681 17.6446L66.8678 16.2286L67.5676 17.6446C67.7447 18.0061 68.0892 18.2567 68.4877 18.314L70.0524 18.5427L68.9202 19.6446C68.632 19.9257 68.5002 20.3303 68.5676 20.7272L68.843 22.2865L67.4436 21.5509Z"/>
<path fill-rule="evenodd" clip-rule="evenodd" d="M87.4409 25.6198C87.6172 25.7069 87.8118 25.7503 88.0084 25.7466C88.2682 25.7444 88.5204 25.6584 88.7274 25.5014C89.1042 25.2281 89.2932 24.7646 89.215 24.3058L88.6365 20.9366L91.0828 18.5592C91.4173 18.2344 91.538 17.7477 91.3941 17.3041C91.2501 16.8606 90.8666 16.5376 90.4051 16.4711L87.0249 15.978L85.5125 12.9201C85.3086 12.4969 84.8803 12.2278 84.4106 12.2278C83.9408 12.2278 83.5125 12.4969 83.3086 12.9201L81.8045 15.978L78.4216 16.4656C77.9613 16.534 77.5795 16.8571 77.4359 17.2997C77.2922 17.7423 77.4116 18.2281 77.7439 18.5537L80.1902 20.9366L79.6062 24.3306C79.5277 24.7893 79.7163 25.2527 80.0927 25.5263C80.4692 25.7999 80.9682 25.8361 81.3803 25.6198L84.4106 24.0303L87.4409 25.6198ZM84.9808 21.551C84.8049 21.4587 84.6092 21.4105 84.4106 21.4105C84.2091 21.4092 84.0105 21.4574 83.8321 21.551L82.4354 22.2865L82.7109 20.7273C82.7782 20.3304 82.6464 19.9257 82.3582 19.6446L81.226 18.5427L82.7907 18.3141C83.1893 18.2568 83.5337 18.0062 83.7109 17.6446L84.4106 16.2287L85.102 17.6446C85.2809 18.0059 85.6259 18.2562 86.0249 18.3141L87.5869 18.5427L86.4574 19.6446C86.168 19.9249 86.036 20.3303 86.1048 20.7273L86.3803 22.2865L84.9808 21.551Z"/>
<path d="M84.8924 93.6997H72.3029C71.5224 93.6997 70.8896 93.067 70.8896 92.2865C70.8896 91.506 71.5224 90.8733 72.3029 90.8733H84.8924C85.6729 90.8733 86.3056 91.506 86.3056 92.2865C86.3056 93.067 85.6729 93.6997 84.8924 93.6997Z"/>
<path d="M78.5978 100C77.8173 100 77.1846 99.3672 77.1846 98.5867V85.9972C77.1846 85.2167 77.8173 84.584 78.5978 84.584C79.3783 84.584 80.011 85.2167 80.011 85.9972V98.5867C80.0117 98.9618 79.8631 99.3217 79.5979 99.5868C79.3327 99.852 78.9728 100.001 78.5978 100Z"/>
<path d="M27.4327 7.20657H19.0939C18.3134 7.20657 17.6807 6.57385 17.6807 5.79335C17.6807 5.01285 18.3134 4.38013 19.0939 4.38013H27.4327C28.2132 4.38013 28.846 5.01285 28.846 5.79335C28.846 6.57385 28.2132 7.20657 27.4327 7.20657Z" fill="currentColor"/>
<path d="M23.2536 11.3746C22.8785 11.3754 22.5186 11.2267 22.2534 10.9615C21.9883 10.6963 21.8396 10.3365 21.8403 9.96142V1.62257C21.8403 0.842072 22.4731 0.209351 23.2536 0.209351C24.0341 0.209351 24.6668 0.842072 24.6668 1.62257V9.96142C24.6668 10.3362 24.5179 10.6957 24.2529 10.9607C23.9878 11.2257 23.6284 11.3746 23.2536 11.3746Z" fill="currentColor"/>
</svg>
