<svg width="100" height="100" viewBox="0 0 100 100"  xmlns="http://www.w3.org/2000/svg">
<path d="M60 15C60 12.7909 61.7909 11 64 11H92C94.2091 11 96 12.7909 96 15V43C96 45.2091 94.2091 47 92 47H64C61.7909 47 60 45.2091 60 43V15Z" fill="currentColor"/>
<path d="M10 65C10 62.7909 11.7909 61 14 61H42C44.2091 61 46 62.7909 46 65V93C46 95.2091 44.2091 97 42 97H14C11.7909 97 10 95.2091 10 93V65Z" fill="currentColor"/>
<path fill-rule="evenodd" clip-rule="evenodd" d="M39 10C39 8.89543 38.1046 8 37 8H9C7.89543 8 7 8.89543 7 10V38C7 39.1046 7.89543 40 9 40H37C38.1046 40 39 39.1046 39 38V10ZM7 4C4.79086 4 3 5.79086 3 8V40C3 42.2091 4.79086 44 7 44H39C41.2091 44 43 42.2091 43 40V8C43 5.79086 41.2091 4 39 4H7Z"/>
<path fill-rule="evenodd" clip-rule="evenodd" d="M89 10C89 8.89543 88.1046 8 87 8H59C57.8954 8 57 8.89543 57 10V38C57 39.1046 57.8954 40 59 40H87C88.1046 40 89 39.1046 89 38V10ZM57 4C54.7909 4 53 5.79086 53 8V40C53 42.2091 54.7909 44 57 44H89C91.2091 44 93 42.2091 93 40V8C93 5.79086 91.2091 4 89 4H57Z"/>
<path fill-rule="evenodd" clip-rule="evenodd" d="M84.7678 15.9822C85.7441 16.9585 85.7441 18.5415 84.7678 19.5178L71.0178 33.2678C70.0415 34.2441 68.4585 34.2441 67.4822 33.2678L61.2322 27.0178C60.2559 26.0415 60.2559 24.4585 61.2322 23.4822C62.2085 22.5059 63.7915 22.5059 64.7678 23.4822L69.25 27.9645L81.2322 15.9822C82.2085 15.0059 83.7915 15.0059 84.7678 15.9822Z"/>
<path fill-rule="evenodd" clip-rule="evenodd" d="M39 60C39 58.8954 38.1046 58 37 58H9C7.89543 58 7 58.8954 7 60V88C7 89.1046 7.89543 90 9 90H37C38.1046 90 39 89.1046 39 88V60ZM7 54C4.79086 54 3 55.7909 3 58V90C3 92.2091 4.79086 94 7 94H39C41.2091 94 43 92.2091 43 90V58C43 55.7909 41.2091 54 39 54H7Z"/>
<path fill-rule="evenodd" clip-rule="evenodd" d="M34.7678 65.9822C35.7441 66.9585 35.7441 68.5415 34.7678 69.5178L21.0178 83.2678C20.0415 84.2441 18.4585 84.2441 17.4822 83.2678L11.2322 77.0178C10.2559 76.0415 10.2559 74.4585 11.2322 73.4822C12.2085 72.5059 13.7915 72.5059 14.7678 73.4822L19.25 77.9645L31.2322 65.9822C32.2085 65.0059 33.7915 65.0059 34.7678 65.9822Z"/>
<path fill-rule="evenodd" clip-rule="evenodd" d="M89 60C89 58.8954 88.1046 58 87 58H59C57.8954 58 57 58.8954 57 60V88C57 89.1046 57.8954 90 59 90H87C88.1046 90 89 89.1046 89 88V60ZM57 54C54.7909 54 53 55.7909 53 58V90C53 92.2091 54.7909 94 57 94H89C91.2091 94 93 92.2091 93 90V58C93 55.7909 91.2091 54 89 54H57Z"/>
</svg>
