<svg width="100" height="100" viewBox="0 0 100 100" xmlns="http://www.w3.org/2000/svg">
<path d="M62.5231 9.49669V12.5828H46.6291C45.8552 12.5775 45.1112 12.8817 44.5628 13.4276C44.0143 13.9736 43.7067 14.7162 43.7085 15.4901V30.8477H36.0496L28.9502 37.9437V30.8477H22.2615C20.6595 30.8477 19.3608 29.549 19.3608 27.947V9.49669C19.3608 8.72738 19.6664 7.98959 20.2104 7.44561C20.7544 6.90163 21.4922 6.59603 22.2615 6.59603H59.6191C60.389 6.59515 61.1276 6.90036 61.6723 7.44444C62.217 7.98851 62.5231 8.72681 62.5231 9.49669Z" fill="currentColor"/>
<path d="M86.8774 15.4901V33.9404C86.8774 34.7103 86.5713 35.4486 86.0266 35.9926C85.4819 36.5367 84.7433 36.8419 83.9734 36.8411H75.9734V43.9106L68.9039 36.8411H46.6125C45.8426 36.8419 45.1039 36.5367 44.5593 35.9926C44.0146 35.4486 43.7085 34.7103 43.7085 33.9404V30.8477H59.6025C60.3724 30.8486 61.1111 30.5433 61.6558 29.9993C62.2005 29.4552 62.5065 28.7169 62.5065 27.947V12.5828H83.9734C84.7444 12.5819 85.4841 12.888 86.029 13.4335C86.5738 13.979 86.8791 14.719 86.8774 15.4901Z" fill="currentColor"/>
<path d="M12.0596 36.394H2.03315C1.095 36.394 0.334473 35.6335 0.334473 34.6953C0.334473 33.7572 1.095 32.9967 2.03315 32.9967H12.0596C12.9978 32.9967 13.7583 33.7572 13.7583 34.6953C13.7583 35.6335 12.9978 36.394 12.0596 36.394Z" fill="currentColor"/>
<path d="M7.04633 41.4073C6.10818 41.4073 5.34766 40.6468 5.34766 39.7086V29.6854C5.34766 28.7473 6.10818 27.9868 7.04633 27.9868C7.98448 27.9868 8.74501 28.7473 8.74501 29.6854V39.7086C8.74501 40.1591 8.56604 40.5912 8.24748 40.9098C7.92891 41.2283 7.49685 41.4073 7.04633 41.4073Z" fill="currentColor"/>
<path d="M56.9869 73.841H41.8544C40.9163 73.841 40.1558 73.0805 40.1558 72.1424C40.1558 71.2042 40.9163 70.4437 41.8544 70.4437H56.9869C57.925 70.4437 58.6856 71.2042 58.6856 72.1424C58.6856 73.0805 57.925 73.841 56.9869 73.841Z"/>
<path d="M49.4204 81.3973C48.4835 81.3973 47.7235 80.6388 47.7217 79.702V64.5695C47.7217 63.6314 48.4822 62.8708 49.4204 62.8708C50.3585 62.8708 51.119 63.6314 51.119 64.5695V79.702C51.1172 80.6388 50.3572 81.3973 49.4204 81.3973Z"/>
<path fill-rule="evenodd" clip-rule="evenodd" d="M6.53637 62.9909C8.95958 68.8384 14.6668 72.6503 20.9965 72.649C29.6342 72.638 36.6331 65.6376 36.6422 57C36.6422 50.6703 32.8291 44.9639 26.9811 42.5419C21.133 40.1199 14.4018 41.4594 9.92652 45.9356C5.4512 50.4119 4.11316 57.1434 6.53637 62.9909ZM8.74487 57C8.74487 50.2336 14.2301 44.7483 20.9965 44.7483C27.7629 44.7483 33.2482 50.2336 33.2482 57C33.2482 63.7664 27.7629 69.2516 20.9965 69.2516C14.2301 69.2516 8.74487 63.7664 8.74487 57Z"/>
<path fill-rule="evenodd" clip-rule="evenodd" d="M1.8476 99.9172H40.1456C41.0799 99.9117 41.8344 99.1528 41.8344 98.2185V89.2417C41.8252 82.2346 36.1461 76.5569 29.139 76.5497H12.841C5.83438 76.557 0.156226 82.2351 0.148926 89.2417V98.2185C0.148926 99.1567 0.909449 99.9172 1.8476 99.9172ZM38.4469 96.5198H3.54628V89.2417C3.55175 84.1107 7.70993 79.9525 12.841 79.947H29.139C34.2719 79.947 38.436 84.1022 38.4469 89.2351V96.5198Z"/>
<path fill-rule="evenodd" clip-rule="evenodd" d="M62.1953 57C62.1953 65.6427 69.2016 72.649 77.8443 72.649C86.4832 72.6399 93.4842 65.6389 93.4933 57C93.4933 48.3573 86.487 41.351 77.8443 41.351C69.2016 41.351 62.1953 48.3573 62.1953 57ZM65.5927 57C65.5927 50.2336 71.0779 44.7483 77.8443 44.7483C84.6107 44.7483 90.096 50.2336 90.096 57C90.096 63.7664 84.6107 69.2516 77.8443 69.2516C71.0779 69.2516 65.5927 63.7664 65.5927 57Z"/>
<path fill-rule="evenodd" clip-rule="evenodd" d="M58.6953 99.9172H96.9933C97.9314 99.9172 98.6919 99.1567 98.6919 98.2185V89.2417C98.6846 82.2351 93.0065 76.557 85.9999 76.5497H69.6919C62.6848 76.5569 57.0057 82.2346 56.9966 89.2417V98.2185C56.9966 99.1567 57.7571 99.9172 58.6953 99.9172ZM95.2946 96.5198H60.3939V89.2351C60.4012 84.1035 64.5604 79.9459 69.6919 79.9404H85.9999C91.1309 79.9459 95.2891 84.104 95.2946 89.2351V96.5198Z"/>
<path fill-rule="evenodd" clip-rule="evenodd" d="M23.1013 34.499C23.4193 34.8176 23.8511 34.9967 24.3013 34.9967C24.7497 34.9957 25.1795 34.8171 25.4966 34.5L32.1191 27.9007H54.9668C57.5068 27.897 59.5643 25.8379 59.5662 23.298V4.85099C59.5643 2.31106 57.5068 0.251988 54.9668 0.248337H17.6158C15.0754 0.251984 13.0168 2.31053 13.0132 4.85099V23.298C13.0168 25.8385 15.0754 27.897 17.6158 27.9007H22.6059V33.298C22.605 33.7482 22.7832 34.1803 23.1013 34.499ZM16.4105 4.84767C16.4124 4.18276 16.9509 3.6442 17.6158 3.64238H54.9668C55.2865 3.64325 55.5927 3.77108 55.8181 3.99774C56.0435 4.2244 56.1697 4.53132 56.1688 4.85099V23.298C56.1688 23.9624 55.6312 24.5015 54.9668 24.5033H31.4039C30.9533 24.5032 30.521 24.6818 30.2019 25L26.0033 29.1987V26.202C26.0033 25.2638 25.2427 24.5033 24.3046 24.5033H17.6158C16.9496 24.5015 16.4105 23.9609 16.4105 23.2947V4.84767Z"/>
<path fill-rule="evenodd" clip-rule="evenodd" d="M70.1258 40.4636C70.4434 40.7824 70.8745 40.9623 71.3245 40.9636C71.5527 40.9651 71.779 40.9212 71.9901 40.8344C72.6228 40.5693 73.0351 39.9509 73.0364 39.2649V33.894H79.3278C81.8678 33.8904 83.9254 31.8313 83.9272 29.2914V10.8444C83.9254 8.30444 81.8678 6.24537 79.3278 6.24171H41.9669C39.4264 6.24536 37.3679 8.3039 37.3643 10.8444V29.2914C37.3679 31.8318 39.4264 33.8904 41.9669 33.894H63.553L70.1258 40.4636ZM40.7616 10.8444C40.7634 10.1795 41.302 9.64088 41.9669 9.63907H79.3278C79.9922 9.64089 80.5298 10.18 80.5298 10.8444V29.2781C80.5298 29.9425 79.9922 30.4816 79.3278 30.4834H71.3245C70.3864 30.4834 69.6258 31.244 69.6258 32.1821V35.1622L65.457 30.9934C65.1391 30.6754 64.7079 30.4967 64.2583 30.4967H41.9669C41.302 30.4949 40.7634 29.9563 40.7616 29.2914V10.8444Z"/>
</svg>
