<svg width="100" height="100" viewBox="0 0 100 100" xmlns="http://www.w3.org/2000/svg">
<path d="M12.7016 21C9.4703 21 6.85083 23.6195 6.85083 26.8507L87.2985 26.8508C90.5298 26.8508 93.1493 29.4703 93.1493 32.7016V73.6567C96.3805 73.6567 99.0001 71.0372 99.0001 67.806V26.8507C99.0001 23.6195 96.3806 21 93.1493 21H12.7016Z" fill="currentColor"/>
<path fill-rule="evenodd" clip-rule="evenodd" d="M87.2985 29.7762H6.85075C5.23511 29.7762 3.92537 31.0859 3.92537 32.7016V73.6568C3.92537 75.2724 5.23511 76.5822 6.85075 76.5822H87.2985C88.9141 76.5822 90.2239 75.2724 90.2239 73.6568V32.7016C90.2239 31.0859 88.9141 29.7762 87.2985 29.7762ZM6.85075 26.8508C3.61947 26.8508 1 29.4703 1 32.7016V73.6568C1 76.8881 3.61947 79.5075 6.85075 79.5075H87.2985C90.5298 79.5075 93.1493 76.8881 93.1493 73.6568V32.7016C93.1493 29.4703 90.5298 26.8508 87.2985 26.8508H6.85075Z"/>
<path d="M12.7015 40.015C12.7015 39.2072 13.3564 38.5523 14.1642 38.5523H79.9851C80.7929 38.5523 81.4478 39.2072 81.4478 40.015C81.4478 40.8228 80.7929 41.4777 79.9851 41.4777H14.1642C13.3564 41.4777 12.7015 40.8228 12.7015 40.015Z"/>
<path d="M12.7015 48.7911C12.7015 47.9833 13.3564 47.3284 14.1642 47.3284H79.9851C80.7929 47.3284 81.4478 47.9833 81.4478 48.7911C81.4478 49.5989 80.7929 50.2538 79.9851 50.2538H14.1642C13.3564 50.2538 12.7015 49.5989 12.7015 48.7911Z"/>
<path d="M12.7015 57.5672C12.7015 56.7594 13.3564 56.1046 14.1642 56.1046H79.9851C80.7929 56.1046 81.4478 56.7594 81.4478 57.5672C81.4478 58.3751 80.7929 59.0299 79.9851 59.0299H14.1642C13.3564 59.0299 12.7015 58.3751 12.7015 57.5672Z"/>
<path d="M12.7015 66.3434C12.7015 65.5355 13.3564 64.8807 14.1642 64.8807H40.4925C41.3004 64.8807 41.9552 65.5355 41.9552 66.3434C41.9552 67.1512 41.3004 67.8061 40.4925 67.8061H14.1642C13.3564 67.8061 12.7015 67.1512 12.7015 66.3434Z"/>
<path d="M47.806 66.3433C47.806 67.1511 47.1511 67.806 46.3433 67.806C45.5355 67.806 44.8806 67.1511 44.8806 66.3433C44.8806 65.5355 45.5355 64.8806 46.3433 64.8806C47.1511 64.8806 47.806 65.5355 47.806 66.3433Z" fill="currentColor"/>
</svg>
