<svg width="100" height="100" viewBox="0 0 100 100" xmlns="http://www.w3.org/2000/svg">
<path d="M76.2409 47.0195L85.9783 59.0202H51.149V50.81H38.5068V26.8085H63.7942V35.0188H85.9783L76.2409 47.0195Z" fill="currentColor"/>
<path d="M23.9797 23.3693H14.731C13.8656 23.3693 13.1641 22.6678 13.1641 21.8024C13.1641 20.937 13.8656 20.2355 14.731 20.2355H23.9797C24.8451 20.2355 25.5466 20.937 25.5466 21.8024C25.5466 22.6678 24.8451 23.3693 23.9797 23.3693Z" fill="currentColor"/>
<path d="M19.355 27.9937C18.4896 27.9937 17.7881 27.2921 17.7881 26.4268V17.1811C17.7881 16.3157 18.4896 15.6142 19.355 15.6142C20.2204 15.6142 20.9219 16.3157 20.9219 17.1811V26.4268C20.9219 27.2921 20.2204 27.9937 19.355 27.9937Z" fill="currentColor"/>
<path d="M70.1316 72.7467H56.1821C55.3168 72.7467 54.6152 72.0452 54.6152 71.1798C54.6152 70.3145 55.3168 69.6129 56.1821 69.6129H70.1316C70.997 69.6129 71.6985 70.3145 71.6985 71.1798C71.6985 72.0452 70.997 72.7467 70.1316 72.7467Z"/>
<path d="M63.1646 79.7413C62.2992 79.7413 61.5977 79.0398 61.5977 78.1744V64.2127C61.5977 63.3473 62.2992 62.6458 63.1646 62.6458C64.0299 62.6458 64.7315 63.3473 64.7315 64.2127V78.1744C64.7315 79.0398 64.0299 79.7413 63.1646 79.7413Z"/>
<path fill-rule="evenodd" clip-rule="evenodd" d="M27.9113 12.7731C28.7821 14.8731 30.8323 16.2416 33.1057 16.2403C36.207 16.2353 38.7194 13.7216 38.7228 10.6203C38.7228 8.34686 37.3531 6.29738 35.2527 5.42768C33.1522 4.55797 30.7347 5.03936 29.1276 6.64733C27.5205 8.2553 27.0404 10.6731 27.9113 12.7731ZM30.8061 9.67041C31.1918 8.74108 32.0995 8.13577 33.1056 8.137C34.4757 8.14036 35.5855 9.25018 35.5889 10.6202C35.5901 11.6264 34.9848 12.5341 34.0554 12.9197C33.1261 13.3053 32.056 13.0928 31.3445 12.3813C30.633 11.6699 30.4205 10.5998 30.8061 9.67041Z"/>
<path d="M33.106 87.7285C32.2406 87.7285 31.5391 87.027 31.5391 86.1616V14.6887C31.5391 13.8233 32.2406 13.1218 33.106 13.1218C33.9713 13.1218 34.6729 13.8233 34.6729 14.6887V86.1616C34.6729 87.027 33.9713 87.7285 33.106 87.7285Z"/>
<path fill-rule="evenodd" clip-rule="evenodd" d="M19.5474 94.827H46.7315C47.1495 94.831 47.5516 94.6677 47.8483 94.3733C48.145 94.0789 48.3115 93.678 48.3106 93.2601C48.3056 88.4764 44.429 84.5998 39.6453 84.5947H26.6458C21.8629 84.6015 17.9872 88.4771 17.9805 93.2601C17.9797 93.6759 18.1445 94.0749 18.4385 94.3689C18.7325 94.663 19.1316 94.8278 19.5474 94.827ZM44.9417 91.684H21.3281C22.0221 89.3315 24.1809 87.7158 26.6336 87.7132H39.6331C42.0863 87.7165 44.2456 89.3316 44.9417 91.684Z"/>
<path fill-rule="evenodd" clip-rule="evenodd" d="M33.106 47.3707H58.3903C58.8061 47.3716 59.2051 47.2067 59.4991 46.9127C59.7932 46.6187 59.958 46.2197 59.9572 45.8038V21.8024C59.9572 20.937 59.2557 20.2355 58.3903 20.2355H33.106C32.2406 20.2355 31.5391 20.937 31.5391 21.8024V45.8038C31.5391 46.6692 32.2406 47.3707 33.106 47.3707ZM56.8232 44.2369H34.6727V23.3693H56.8232V44.2369Z"/>
<path d="M80.5775 55.5841H45.7573C44.892 55.5841 44.1904 54.8825 44.1904 54.0172V45.8039C44.1904 44.9385 44.892 44.237 45.7573 44.237C46.6227 44.237 47.3242 44.9385 47.3242 45.8039V52.4503H77.2971L69.6336 43.003C69.1658 42.4273 69.1658 41.6025 69.6336 41.0268L77.2971 31.5826H58.3903C57.5249 31.5826 56.8234 30.8811 56.8234 30.0157C56.8234 29.1503 57.5249 28.4488 58.3903 28.4488H80.5775C81.1824 28.4471 81.7343 28.7937 81.9954 29.3394C82.2565 29.8851 82.1801 30.5323 81.7992 31.0023L72.8651 42.0164L81.7992 53.0275C82.182 53.4974 82.2595 54.146 81.9982 54.6928C81.7368 55.2397 81.1836 55.5868 80.5775 55.5841Z"/>
<path d="M45.7512 55.584C45.0554 55.5865 44.4414 55.1298 44.2435 54.4627C44.0457 53.7957 44.3114 53.078 44.896 52.7007L57.5381 44.4905C58.0079 44.1855 58.6047 44.1543 59.1037 44.4086C59.6027 44.6629 59.9282 45.1642 59.9574 45.7235C59.9867 46.2829 59.7153 46.8153 59.2455 47.1203L46.6125 55.3366C46.3559 55.5019 46.0564 55.5879 45.7512 55.584Z"/>
</svg>
