<svg width="100" height="100" viewBox="0 0 100 100" xmlns="http://www.w3.org/2000/svg">
<path d="M17.2393 20.04C17.2393 21.5842 18.4951 22.84 20.0393 22.84C21.5835 22.84 22.8393 21.5842 22.8393 20.04C22.8393 18.4958 21.5835 17.24 20.0393 17.24C18.4951 17.24 17.2393 18.4958 17.2393 20.04Z" fill="currentColor"/>
<path d="M29.8398 20.04C29.8398 21.5842 31.0956 22.84 32.6398 22.84C34.184 22.84 35.4398 21.5842 35.4398 20.04C35.4398 18.4958 34.184 17.24 32.6398 17.24C31.0956 17.24 29.8398 18.4958 29.8398 20.04Z" fill="currentColor"/>
<path d="M42.4404 20.04C42.4404 21.5842 43.6962 22.84 45.2404 22.84C46.7846 22.84 48.0404 21.5842 48.0404 20.04C48.0404 18.4958 46.7846 17.24 45.2404 17.24C43.6962 17.24 42.4404 18.4958 42.4404 20.04Z" fill="currentColor"/>
<path d="M17.8002 12.1999C14.7118 12.1999 12.2002 14.7115 12.2002 17.7999C12.2002 20.8883 14.7118 23.3999 17.8002 23.3999C20.8886 23.3999 23.4002 20.8883 23.4002 17.7999C23.4002 14.7115 20.8886 12.1999 17.8002 12.1999ZM17.8002 20.5999C16.256 20.5999 15.0002 19.3441 15.0002 17.7999C15.0002 16.2557 16.256 14.9999 17.8002 14.9999C19.3444 14.9999 20.6002 16.2557 20.6002 17.7999C20.6002 19.3441 19.3444 20.5999 17.8002 20.5999Z"/>
<path d="M35.9998 17.7999C35.9998 14.7115 33.4882 12.1999 30.3998 12.1999C27.3114 12.1999 24.7998 14.7115 24.7998 17.7999C24.7998 20.8883 27.3114 23.3999 30.3998 23.3999C33.4882 23.3999 35.9998 20.8883 35.9998 17.7999ZM27.5998 17.7999C27.5998 16.2557 28.8556 14.9999 30.3998 14.9999C31.944 14.9999 33.1998 16.2557 33.1998 17.7999C33.1998 19.3441 31.944 20.5999 30.3998 20.5999C28.8556 20.5999 27.5998 19.3441 27.5998 17.7999Z"/>
<path d="M42.9994 23.3999C46.0878 23.3999 48.5994 20.8883 48.5994 17.7999C48.5994 14.7115 46.0878 12.1999 42.9994 12.1999C39.911 12.1999 37.3994 14.7115 37.3994 17.7999C37.3994 20.8883 39.911 23.3999 42.9994 23.3999ZM42.9994 14.9999C44.5436 14.9999 45.7994 16.2557 45.7994 17.7999C45.7994 19.3441 44.5436 20.5999 42.9994 20.5999C41.4552 20.5999 40.1994 19.3441 40.1994 17.7999C40.1994 16.2557 41.4552 14.9999 42.9994 14.9999Z"/>
<path d="M8 8V24.8V27.6V92H27.6H92V27.6V8H8ZM10.8 10.8H89.2V24.8H27.6H10.8V10.8ZM10.8 89.2V27.6H24.8V89.2H10.8ZM89.2 89.2H27.6V27.6H89.2V89.2Z"/>
<path d="M20.6001 33.1999H15.0001C14.2273 33.1999 13.6001 33.8257 13.6001 34.5999C13.6001 35.3741 14.2273 35.9999 15.0001 35.9999H20.6001C21.3729 35.9999 22.0001 35.3741 22.0001 34.5999C22.0001 33.8257 21.3729 33.1999 20.6001 33.1999Z"/>
<path d="M20.6001 40.1999H15.0001C14.2273 40.1999 13.6001 40.8257 13.6001 41.5999C13.6001 42.3741 14.2273 42.9999 15.0001 42.9999H20.6001C21.3729 42.9999 22.0001 42.3741 22.0001 41.5999C22.0001 40.8257 21.3729 40.1999 20.6001 40.1999Z"/>
<path d="M20.6001 47.1998H15.0001C14.2273 47.1998 13.6001 47.8256 13.6001 48.5998C13.6001 49.374 14.2273 49.9998 15.0001 49.9998H20.6001C21.3729 49.9998 22.0001 49.374 22.0001 48.5998C22.0001 47.8256 21.3729 47.1998 20.6001 47.1998Z"/>
<path d="M20.6001 54.1999H15.0001C14.2273 54.1999 13.6001 54.8257 13.6001 55.5999C13.6001 56.3741 14.2273 56.9999 15.0001 56.9999H20.6001C21.3729 56.9999 22.0001 56.3741 22.0001 55.5999C22.0001 54.8257 21.3729 54.1999 20.6001 54.1999Z"/>
<path d="M20.6001 61.1999H15.0001C14.2273 61.1999 13.6001 61.8257 13.6001 62.5999C13.6001 63.3741 14.2273 63.9999 15.0001 63.9999H20.6001C21.3729 63.9999 22.0001 63.3741 22.0001 62.5999C22.0001 61.8257 21.3729 61.1999 20.6001 61.1999Z"/>
<path d="M20.6001 68.1999H15.0001C14.2273 68.1999 13.6001 68.8257 13.6001 69.5999C13.6001 70.3741 14.2273 70.9999 15.0001 70.9999H20.6001C21.3729 70.9999 22.0001 70.3741 22.0001 69.5999C22.0001 68.8257 21.3729 68.1999 20.6001 68.1999Z"/>
<path d="M20.6001 75.1999H15.0001C14.2273 75.1999 13.6001 75.8257 13.6001 76.5999C13.6001 77.3741 14.2273 77.9999 15.0001 77.9999H20.6001C21.3729 77.9999 22.0001 77.3741 22.0001 76.5999C22.0001 75.8257 21.3729 75.1999 20.6001 75.1999Z"/>
<path d="M20.6001 82.1999H15.0001C14.2273 82.1999 13.6001 82.8257 13.6001 83.5999C13.6001 84.3741 14.2273 84.9999 15.0001 84.9999H20.6001C21.3729 84.9999 22.0001 84.3741 22.0001 83.5999C22.0001 82.8257 21.3729 82.1999 20.6001 82.1999Z"/>
<path d="M55.6002 33.1999H33.2002V55.5999H55.6002V33.1999ZM45.8002 52.7999C45.8002 52.0271 45.173 51.3999 44.4002 51.3999C43.6274 51.3999 43.0002 52.0271 43.0002 52.7999H37.4002C37.4002 52.0271 36.773 51.3999 36.0002 51.3999V45.7999C36.773 45.7999 37.4002 45.1727 37.4002 44.3999C37.4002 43.6271 36.773 42.9999 36.0002 42.9999V37.3999C36.773 37.3999 37.4002 36.7727 37.4002 35.9999H43.0002C43.0002 36.7727 43.6274 37.3999 44.4002 37.3999C45.173 37.3999 45.8002 36.7727 45.8002 35.9999H51.4002C51.4002 36.7727 52.0274 37.3999 52.8002 37.3999V42.9999C52.0274 42.9999 51.4002 43.6271 51.4002 44.3999C51.4002 45.1727 52.0274 45.7999 52.8002 45.7999V51.3999C52.0274 51.3999 51.4002 52.0271 51.4002 52.7999H45.8002Z"/>
<path d="M68.7603 40.4802H85.5603V57.2802H68.7603V40.4802Z" fill="currentColor"/>
<path d="M83.6007 33.1999H61.2007V55.5999H83.6007V33.1999ZM80.8007 52.7999H64.0007V35.9999H80.8007V52.7999Z"/>
<path d="M41.0405 69.0401H57.8405V85.8401H41.0405V69.0401Z" fill="currentColor"/>
<path d="M68.4805 68.4802H85.2805V85.2802H68.4805V68.4802Z" fill="currentColor"/>
<path d="M55.6002 83.5999V61.1999H33.2002V83.5999H55.6002ZM36.0002 63.9999H52.8002V80.7999H36.0002V63.9999Z"/>
<path d="M83.6007 61.1999H61.2007V83.5999H83.6007V61.1999ZM80.8007 80.7999H64.0007V63.9999H80.8007V80.7999Z"/>
<path d="M48.6007 41.6001C49.3739 41.6001 50.0007 40.9733 50.0007 40.2001C50.0007 39.4269 49.3739 38.8001 48.6007 38.8001C47.8275 38.8001 47.2007 39.4269 47.2007 40.2001C47.2007 40.9733 47.8275 41.6001 48.6007 41.6001Z"/>
<path d="M44.3995 45.7999C45.1727 45.7999 45.7995 45.1731 45.7995 44.3999C45.7995 43.6267 45.1727 42.9999 44.3995 42.9999C43.6263 42.9999 42.9995 43.6267 42.9995 44.3999C42.9995 45.1731 43.6263 45.7999 44.3995 45.7999Z"/>
<path d="M48.6007 49.9998C49.3739 49.9998 50.0007 49.373 50.0007 48.5998C50.0007 47.8266 49.3739 47.1998 48.6007 47.1998C47.8275 47.1998 47.2007 47.8266 47.2007 48.5998C47.2007 49.373 47.8275 49.9998 48.6007 49.9998Z"/>
<path d="M40.1993 41.6001C40.9725 41.6001 41.5993 40.9733 41.5993 40.2001C41.5993 39.4269 40.9725 38.8001 40.1993 38.8001C39.4261 38.8001 38.7993 39.4269 38.7993 40.2001C38.7993 40.9733 39.4261 41.6001 40.1993 41.6001Z"/>
<path d="M40.1993 49.9998C40.9725 49.9998 41.5993 49.373 41.5993 48.5998C41.5993 47.8266 40.9725 47.1998 40.1993 47.1998C39.4261 47.1998 38.7993 47.8266 38.7993 48.5998C38.7993 49.373 39.4261 49.9998 40.1993 49.9998Z"/>
</svg>
