<svg width="100" height="100" viewBox="0 0 100 100" xmlns="http://www.w3.org/2000/svg">
<g clip-path="url(#clip0_1:7170)">
<path d="M63.597 33.3355C63.597 28.0473 59.2919 23.7447 54.0003 23.7447C48.7056 23.7447 44.3979 28.0471 44.3979 33.3355C44.3979 38.6271 48.7056 42.932 54.0003 42.932C59.2919 42.932 63.597 38.6269 63.597 33.3355Z" fill="currentColor"/>
<path d="M54 41.8385C51.2568 41.8385 48.7035 42.0147 46.5703 40.6049C41.7957 43.1897 38.6678 52.0624 38.3311 57.4501C47.6945 64.0333 60.3057 64.0331 69.6689 57.4501C69.332 52.062 66.2027 43.1895 61.426 40.6053C59.2937 42.0149 56.7418 41.8385 54 41.8385Z" fill="currentColor"/>
<path d="M50 62.2932C57.9801 62.2924 65.9627 59.2547 72.0377 53.1799C76.8215 48.3985 79.8652 42.3449 80.84 35.6733C81.7959 29.1315 80.6934 22.5899 77.6514 16.7555C77.1525 15.7988 75.9729 15.4281 75.0164 15.9266C74.0598 16.4254 73.6887 17.6049 74.1875 18.5615C79.7119 29.1574 77.7383 41.959 69.2758 50.4172C69.2516 50.4414 69.2268 50.4645 69.2025 50.4887C68.1307 45.3065 64.9775 40.7258 60.4617 37.8613C62.3613 35.5348 63.5031 32.5664 63.5031 29.3356C63.5031 21.893 57.4457 15.8383 49.9998 15.8383C42.551 15.8383 36.491 21.8932 36.491 29.3356C36.491 32.5664 37.6332 35.5348 39.5338 37.8615C35.0203 40.7266 31.8688 45.3071 30.7971 50.4885C30.7727 50.4643 30.7479 50.441 30.7236 50.4168C25.5736 45.2696 22.7375 38.4268 22.7375 31.1488C22.7375 23.8711 25.5736 17.0283 30.7236 11.8811C39.1912 3.4174 52.0043 1.44884 62.6074 6.98244C63.5635 7.48146 64.7436 7.11095 65.2426 6.15451C65.7416 5.19806 65.3711 4.01818 64.4147 3.51916C58.6619 0.517008 51.9385 -0.618149 45.4828 0.321695C38.8049 1.29474 32.7463 4.33634 27.9621 9.11798C22.0738 15.0033 18.8311 22.8274 18.8311 31.1488C18.8311 39.4705 22.0738 47.2946 27.9619 53.1795C34.0385 59.2559 42.0182 62.294 50 62.2932ZM50 19.7447C55.2916 19.7447 59.5967 24.0473 59.5967 29.3356C59.5967 34.627 55.2916 38.932 50 38.932C44.7053 38.932 40.3977 34.6272 40.3977 29.3356C40.3977 24.0471 44.7053 19.7447 50 19.7447ZM42.5703 40.6049C44.7035 42.0147 47.2568 42.8385 50 42.8385C52.7418 42.8385 55.2938 42.0149 57.426 40.6053C62.2027 43.1895 65.332 48.0619 65.6689 53.45C56.3057 60.033 43.6945 60.0332 34.3311 53.45C34.6678 48.0623 37.7957 43.1897 42.5703 40.6049Z"/>
<path d="M70.6641 12.4643C70.9577 12.4643 71.2557 12.3979 71.5362 12.2576C72.5011 11.7752 72.8921 10.602 72.4097 9.63712L72.4042 9.62599C71.9218 8.66075 70.7516 8.2756 69.7864 8.75782C68.8216 9.24025 68.4333 10.419 68.9157 11.3838C69.2579 12.0686 69.9477 12.4643 70.6641 12.4643Z"/>
<path d="M60.3157 91.4676C60.2273 90.8642 60.4255 90.2541 60.8519 89.818L65.9214 84.634L58.7694 83.4201C58.1683 83.3182 57.6491 82.941 57.3661 82.4008L53.9999 75.9752L50.6337 82.401C50.3507 82.9412 49.8315 83.3183 49.2302 83.4203L42.0747 84.6342L47.1476 89.8176C47.5741 90.2537 47.7728 90.8639 47.6841 91.4676L46.6304 98.6428L53.1335 95.424C53.4065 95.2889 53.7032 95.2213 53.9999 95.2213C54.2966 95.2213 54.5933 95.2889 54.8663 95.424L61.3696 98.6428L60.3157 91.4676Z" fill="currentColor"/>
<path d="M66.2533 77.4068L56.3777 75.7306L51.7304 66.8597C51.3933 66.2162 50.7269 65.8129 50.0003 65.8129C49.2738 65.8129 48.6073 66.2162 48.2702 66.8597L43.623 75.7304L33.7419 77.4066C33.0253 77.5283 32.4355 78.0377 32.2109 78.7291C31.9862 79.4203 32.1642 80.1791 32.6726 80.6986L39.6788 87.8576L38.2241 97.7629C38.1187 98.4816 38.4206 99.1996 39.0083 99.6265C39.596 100.054 40.372 100.119 41.0232 99.797L50.0001 95.3537L58.9775 99.797C59.2519 99.9328 59.5484 99.9998 59.8437 99.9998C60.2491 99.9998 60.6523 99.8736 60.9923 99.6265C61.5798 99.1994 61.882 98.4814 61.7765 97.7629L60.3216 87.8572L67.3228 80.6982C67.831 80.1787 68.0085 79.4199 67.7839 78.7287C67.5593 78.0377 66.9697 77.5285 66.2533 77.4068ZM56.8521 85.8179C56.4257 86.2541 56.2275 86.8642 56.3159 87.4675L57.3699 94.6427L50.8665 91.424C50.5935 91.2888 50.2968 91.2213 50.0001 91.2213C49.7034 91.2213 49.4068 91.2888 49.1337 91.424L42.6306 94.6427L43.6843 87.4675C43.773 86.8638 43.5743 86.2537 43.1478 85.8175L38.0749 80.6341L45.2304 79.4203C45.8318 79.3183 46.3509 78.9412 46.6339 78.4009L50.0001 71.9752L53.3663 78.4007C53.6493 78.941 54.1685 79.3181 54.7697 79.4201L61.9216 80.634L56.8521 85.8179Z"/>
<path d="M30.0415 62.9393L23.1794 61.7727L19.9556 55.6151C19.6187 54.9715 18.9523 54.568 18.2257 54.5678C18.2255 54.5678 18.2253 54.5678 18.2251 54.5678C17.499 54.5678 16.8326 54.9709 16.4953 55.6141L13.266 61.7727L6.40834 62.9393C5.69213 63.0612 5.10268 63.5705 4.87826 64.2616C4.65385 64.9526 4.83158 65.7112 5.33959 66.2307L10.2023 71.2026L9.19096 78.0793C9.08529 78.7983 9.38725 79.5162 9.97494 79.9434C10.5628 80.3709 11.3392 80.4362 11.99 80.1139L18.2251 77.027L24.4603 80.1139C24.7347 80.2496 25.0314 80.3166 25.3267 80.3166C25.7322 80.3166 26.1353 80.1905 26.4753 79.9434C27.063 79.516 27.365 78.7981 27.2593 78.0793L26.248 71.2026L31.1107 66.2307C31.6187 65.7112 31.7964 64.9528 31.5718 64.2616C31.3474 63.5705 30.7579 63.061 30.0415 62.9393ZM22.7783 69.1633C22.3517 69.5996 22.1535 70.2098 22.2423 70.8133L22.8519 74.9588L19.0917 73.0973C18.8187 72.9621 18.522 72.8946 18.2251 72.8946C17.9283 72.8946 17.6316 72.9621 17.3585 73.0973L13.5984 74.9588L14.2079 70.8133C14.2968 70.2098 14.0984 69.5996 13.672 69.1633L10.7396 66.1651L14.8744 65.4618C15.4749 65.3596 15.9937 64.9828 16.2767 64.4432L18.2238 60.7297L20.1673 64.4422C20.4501 64.9825 20.9693 65.3596 21.5704 65.4618L25.7101 66.1655L22.7783 69.1633Z"/>
<path d="M95.1221 64.2616C94.8977 63.5705 94.3082 63.0612 93.592 62.9393L86.7344 61.7727L83.5051 55.6141C83.1678 54.9709 82.5016 54.5678 81.7752 54.5678C81.0491 54.5678 80.3827 54.9709 80.0453 55.6141L76.8161 61.7727L69.9586 62.9393C69.2424 63.0612 68.653 63.5705 68.4286 64.2616C68.2041 64.9526 68.3819 65.7112 68.8899 66.2307L73.7526 71.2026L72.7412 78.0793C72.6356 78.7983 72.9375 79.5162 73.5252 79.9434C74.1129 80.3709 74.8895 80.4362 75.5403 80.1139L81.7754 77.027L88.0106 80.1139C88.285 80.2496 88.5815 80.3166 88.877 80.3166C89.2825 80.3166 89.6856 80.1905 90.0256 79.9434C90.6133 79.516 90.9153 78.7981 90.8096 78.0793L89.7983 71.2026L94.661 66.2307C95.1686 65.7114 95.3465 64.9528 95.1221 64.2616ZM86.3284 69.1633C85.9018 69.5996 85.7036 70.2098 85.7924 70.8133L86.402 74.9588L82.6418 73.0973C82.3688 72.9621 82.0721 72.8946 81.7752 72.8946C81.4784 72.8946 81.1817 72.9621 80.9086 73.0973L77.1485 74.9588L77.758 70.8133C77.8469 70.2098 77.6485 69.5996 77.2221 69.1633L74.2899 66.1651L78.4246 65.4618C79.0252 65.3596 79.544 64.9828 79.827 64.4432L81.7754 60.7274L83.7239 64.4432C84.0069 64.9828 84.5254 65.3596 85.1262 65.4618L89.261 66.1651L86.3284 69.1633Z"/>
</g>
<defs>
<clipPath id="clip0_1:7170">
<rect width="100" height="100" fill="white"/>
</clipPath>
</defs>
</svg>
