<svg width="100" height="100" viewBox="0 0 100 100" xmlns="http://www.w3.org/2000/svg">
<path d="M53.9998 23.7448C59.2914 23.7448 63.5965 28.0473 63.5965 33.3356C63.5965 36.8626 61.6838 39.9513 58.8412 41.6191C59.7544 41.4443 60.6202 41.1381 61.426 40.6054C66.2027 43.1895 69.332 52.062 69.6689 57.4501C60.3057 64.0331 47.6945 64.0333 38.3311 57.4501C38.6678 52.0624 41.7957 43.1897 46.5703 40.605C47.376 41.1374 48.2416 41.4436 49.1547 41.6186C46.3109 39.9507 44.3975 36.8623 44.3975 33.3356C44.3975 28.0471 48.7051 23.7448 53.9998 23.7448Z" fill="currentColor"/>
<path d="M50 62.2932C57.9801 62.2924 65.9627 59.2547 72.0377 53.1799C76.8215 48.3985 79.8652 42.345 80.84 35.6733C81.7959 29.1315 80.6934 22.5899 77.6514 16.7555C77.1525 15.7989 75.9729 15.4282 75.0164 15.9266C74.0598 16.4254 73.6887 17.6049 74.1875 18.5616C79.7119 29.1575 77.7383 41.959 69.2758 50.4172C69.2516 50.4415 69.2268 50.4645 69.2025 50.4887C68.1307 45.3065 64.9775 40.7258 60.4617 37.8614C62.3613 35.5348 63.5031 32.5665 63.5031 29.3356C63.5031 21.893 57.4457 15.8383 49.9998 15.8383C42.551 15.8383 36.491 21.8932 36.491 29.3356C36.491 32.5665 37.6332 35.5348 39.5338 37.8616C35.0203 40.7266 31.8688 45.3071 30.7971 50.4885C30.7727 50.4643 30.7479 50.4411 30.7236 50.4168C25.5736 45.2696 22.7375 38.4268 22.7375 31.1489C22.7375 23.8711 25.5736 17.0284 30.7236 11.8811C39.1912 3.41743 52.0043 1.44887 62.6074 6.98247C63.5635 7.48149 64.7436 7.11098 65.2426 6.15454C65.7416 5.19809 65.3711 4.01821 64.4147 3.51919C58.6619 0.517038 51.9385 -0.618118 45.4828 0.321725C38.8049 1.29477 32.7463 4.33637 27.9621 9.11801C22.0738 15.0034 18.8311 22.8274 18.8311 31.1489C18.8311 39.4706 22.0738 47.2946 27.9619 53.1795C34.0385 59.2559 42.0182 62.294 50 62.2932ZM50 19.7448C55.2916 19.7448 59.5967 24.0473 59.5967 29.3356C59.5967 34.627 55.2916 38.9321 50 38.9321C44.7053 38.9321 40.3977 34.6272 40.3977 29.3356C40.3977 24.0471 44.7053 19.7448 50 19.7448ZM42.5703 40.6049C44.7035 42.0147 47.2568 42.8385 50 42.8385C52.7418 42.8385 55.2938 42.0149 57.426 40.6053C62.2027 43.1895 65.332 48.062 65.6689 53.4501C56.3057 60.0331 43.6945 60.0333 34.3311 53.4501C34.6678 48.0624 37.7957 43.1897 42.5703 40.6049Z"/>
<path d="M70.6641 12.4643C70.9576 12.4643 71.2557 12.3979 71.5361 12.2577C72.501 11.7752 72.892 10.602 72.4096 9.63716L72.4041 9.62603C71.9217 8.66079 70.7516 8.27563 69.7863 8.75786C68.8215 9.24028 68.4332 10.419 68.9156 11.3838C69.2578 12.0686 69.9476 12.4643 70.6641 12.4643Z"/>
<path d="M60.3157 91.4676C60.2273 90.8643 60.4255 90.2541 60.8519 89.818L65.9214 84.634L58.7694 83.4201C58.1683 83.3182 57.6491 82.941 57.3661 82.4008L53.9999 75.9752L50.6337 82.401C50.3507 82.9412 49.8315 83.3184 49.2302 83.4203L42.0747 84.6342L47.1476 89.8176C47.5741 90.2537 47.7728 90.8639 47.6841 91.4676L46.6304 98.6428L53.1335 95.424C53.4065 95.2889 53.7032 95.2213 53.9999 95.2213C54.2966 95.2213 54.5933 95.2889 54.8663 95.424L61.3696 98.6428L60.3157 91.4676Z" fill="currentColor"/>
<path d="M66.253 77.4068L56.3774 75.7306L51.7302 66.8597C51.393 66.2162 50.7266 65.8129 50.0001 65.8129C49.2735 65.8129 48.6071 66.2162 48.27 66.8597L43.6227 75.7304L33.7417 77.4066C33.0251 77.5283 32.4352 78.0377 32.2106 78.7291C31.986 79.4203 32.1639 80.1791 32.6723 80.6986L39.6786 87.8576L38.2239 97.7629C38.1184 98.4816 38.4204 99.1996 39.0081 99.6265C39.5958 100.054 40.3717 100.119 41.0229 99.797L49.9999 95.3537L58.9772 99.797C59.2516 99.9328 59.5481 99.9998 59.8434 99.9998C60.2489 99.9998 60.652 99.8736 60.9921 99.6265C61.5796 99.1994 61.8817 98.4814 61.7763 97.7629L60.3214 87.8572L67.3225 80.6982C67.8307 80.1787 68.0083 79.4199 67.7837 78.7287C67.5591 78.0377 66.9694 77.5285 66.253 77.4068ZM56.8518 85.8179C56.4255 86.2541 56.2272 86.8642 56.3157 87.4675L57.3696 94.6427L50.8663 91.424C50.5932 91.2888 50.2966 91.2213 49.9999 91.2213C49.7032 91.2213 49.4065 91.2888 49.1335 91.424L42.6303 94.6427L43.6841 87.4675C43.7727 86.8638 43.5741 86.2537 43.1475 85.8175L38.0747 80.6341L45.2301 79.4203C45.8315 79.3183 46.3507 78.9412 46.6337 78.4009L49.9999 71.9752L53.3661 78.4007C53.6491 78.941 54.1682 79.3181 54.7694 79.4201L61.9214 80.634L56.8518 85.8179Z"/>
<path d="M30.0413 62.9394L23.1792 61.7728L19.9554 55.6151C19.6184 54.9716 18.952 54.5681 18.2255 54.5679C18.2257 54.5679 18.2253 54.5679 18.2255 54.5679C17.4993 54.5679 16.8323 54.971 16.495 55.6142L13.2657 61.7728L6.4081 62.9394C5.69188 63.0612 5.10243 63.5706 4.87802 64.2616C4.6536 64.9526 4.83134 65.7112 5.33935 66.2308L10.202 71.2026L9.19071 78.0794C9.08505 78.7983 9.387 79.5163 9.9747 79.9435C10.5626 80.371 11.339 80.4362 11.9897 80.114L18.2249 77.027L24.46 80.114C24.7345 80.2497 25.0311 80.3167 25.3265 80.3167C25.7319 80.3167 26.135 80.1905 26.4751 79.9435C27.0628 79.5161 27.3647 78.7981 27.2591 78.0794L26.2477 71.2026L31.1104 66.2308C31.6184 65.7112 31.7962 64.9528 31.5716 64.2616C31.3472 63.5706 30.7577 63.061 30.0413 62.9394ZM22.778 69.1634C22.3515 69.5997 22.1532 70.2099 22.2421 70.8134L22.8517 74.9589L19.0915 73.0974C18.8184 72.9622 18.5218 72.8946 18.2249 72.8946C17.928 72.8946 17.6313 72.9622 17.3583 73.0974L13.5981 74.9589L14.2077 70.8134C14.2966 70.2099 14.0981 69.5997 13.6718 69.1634L10.7393 66.1651L14.8741 65.4618C15.4747 65.3597 15.9934 64.9829 16.2765 64.4433L18.2235 60.7298L20.1671 64.4423C20.4499 64.9825 20.969 65.3597 21.5702 65.4618L25.7099 66.1655L22.778 69.1634Z"/>
<path d="M95.1219 64.2616C94.8974 63.5706 94.308 63.0612 93.5918 62.9394L86.7342 61.7728L83.5049 55.6142C83.1676 54.971 82.5014 54.5679 81.775 54.5679C81.0488 54.5679 80.3824 54.971 80.0451 55.6142L76.8158 61.7728L69.9584 62.9394C69.2422 63.0612 68.6527 63.5706 68.4283 64.2616C68.2039 64.9526 68.3816 65.7112 68.8896 66.2308L73.7523 71.2026L72.741 78.0794C72.6353 78.7983 72.9373 79.5163 73.525 79.9435C74.1127 80.371 74.8893 80.4362 75.54 80.114L81.7752 77.027L88.0103 80.114C88.2848 80.2497 88.5812 80.3167 88.8767 80.3167C89.2822 80.3167 89.6853 80.1905 90.0254 79.9435C90.6131 79.5161 90.915 78.7981 90.8094 78.0794L89.798 71.2026L94.6607 66.2308C95.1683 65.7114 95.3463 64.9528 95.1219 64.2616ZM86.3281 69.1634C85.9016 69.5997 85.7033 70.2099 85.7922 70.8134L86.4017 74.9589L82.6416 73.0974C82.3685 72.9622 82.0719 72.8946 81.775 72.8946C81.4781 72.8946 81.1814 72.9622 80.9084 73.0974L77.1482 74.9589L77.7578 70.8134C77.8467 70.2099 77.6482 69.5997 77.2219 69.1634L74.2896 66.1651L78.4244 65.4618C79.025 65.3597 79.5437 64.9829 79.8267 64.4433L81.7752 60.7274L83.7236 64.4433C84.0066 64.9829 84.5252 65.3597 85.126 65.4618L89.2607 66.1651L86.3281 69.1634Z"/>
</svg>
