<svg width="100" height="100" viewBox="0 0 100 100" xmlns="http://www.w3.org/2000/svg">
<path d="M9 61.6317C9 57.24 12.584 53.6601 17.0294 53.6601C18.8245 53.6601 20.346 53.3751 21.5981 52.7625C22.8851 52.1329 23.7839 51.2067 24.3726 50.1196C25.4164 48.1924 25.4137 45.8191 25.4119 44.1559C25.4118 44.0876 25.4118 44.0205 25.4118 43.9547L25.4118 30.3173L35.7206 30.3173C35.7864 30.3173 35.8535 30.3174 35.9218 30.3174C37.5955 30.3192 39.9749 30.3218 41.9072 29.2873C42.9969 28.7039 43.9297 27.8111 44.565 26.5274C45.1833 25.2781 45.4706 23.7603 45.4706 21.9717C45.4706 17.5799 49.0546 14 53.5 14C57.9454 14 61.5294 17.5799 61.5294 21.9717C61.5294 23.7603 61.8167 25.2781 62.435 26.5274C63.0703 27.8111 64.0031 28.7039 65.0928 29.2873C67.0251 30.3218 69.4045 30.3192 71.0782 30.3174C71.1465 30.3174 71.2136 30.3173 71.2794 30.3173L81.5882 30.3173V43.9547C81.5882 44.0205 81.5882 44.0876 81.5881 44.1559C81.5863 45.8191 81.5836 48.1924 82.6274 50.1196C83.2161 51.2067 84.1149 52.1329 85.4019 52.7625C86.654 53.3751 88.1755 53.6601 89.9706 53.6601C94.416 53.6601 98 57.24 98 61.6317C98 66.0235 94.416 69.6034 89.9706 69.6034C88.1755 69.6034 86.654 69.8884 85.4019 70.5009C84.1149 71.1306 83.2161 72.0568 82.6274 73.1439C81.5836 75.0711 81.5863 77.4444 81.5881 79.1076C81.5882 79.1759 81.5882 79.243 81.5882 79.3088V90H69.3419C67.3749 90 65.9954 89.9533 65.0432 89.4436C64.6513 89.2338 64.3304 88.9368 64.0825 88.4358C63.8175 87.9004 63.5919 87.0386 63.5919 85.6544C63.5919 82.6279 62.8953 79.6711 61.2328 77.4164C59.5118 75.0824 56.8818 73.6827 53.5 73.6827C50.1182 73.6827 47.4882 75.0824 45.7672 77.4164C44.1047 79.6711 43.4081 82.6279 43.4081 85.6544C43.4081 87.0386 43.1825 87.9004 42.9175 88.4358C42.6696 88.9368 42.3487 89.2338 41.9568 89.4436C41.0046 89.9533 39.6251 90 37.6581 90H25.4118L25.4118 79.3088C25.4118 79.243 25.4118 79.1759 25.4119 79.1076C25.4137 77.4444 25.4164 75.0711 24.3726 73.1439C23.7839 72.0568 22.8851 71.1306 21.5981 70.5009C20.346 69.8884 18.8245 69.6034 17.0294 69.6034C12.584 69.6034 9 66.0235 9 61.6317Z" fill="currentColor" stroke="currentColor" stroke-width="4"/>
<path fill-rule="evenodd" clip-rule="evenodd" d="M12.3529 52.1765C8.84431 52.1765 6 55.0208 6 58.5294C6 62.038 8.84431 64.8824 12.3529 64.8824C14.4017 64.8824 16.2898 65.2079 17.9278 66.0139C19.6351 66.854 20.8511 68.11 21.6395 69.5742C22.9563 72.0196 22.9471 74.9362 22.9418 76.5973C22.9415 76.697 22.9412 76.7921 22.9412 76.8824L22.9412 86.0588H33.6471C34.6305 86.0588 35.3756 86.0546 36.0436 85.9803C36.7012 85.9073 37.022 85.789 37.1624 85.7134L37.1646 85.7122C37.2285 85.6778 37.2666 85.6573 37.3374 85.5134C37.4432 85.2984 37.6471 84.7159 37.6471 83.4706C37.6471 80.0702 38.4207 76.5576 40.4534 73.7849C42.604 70.8515 45.9072 69.1176 50 69.1176C54.0928 69.1176 57.396 70.8515 59.5466 73.7849C61.5793 76.5576 62.3529 80.0702 62.3529 83.4706C62.3529 84.7159 62.5568 85.2984 62.6626 85.5134C62.7334 85.6573 62.7715 85.6778 62.8354 85.7122L62.8376 85.7134C62.978 85.789 63.2988 85.9073 63.9564 85.9803C64.6244 86.0546 65.3695 86.0588 66.3529 86.0588H77.0588V76.8824C77.0588 76.7921 77.0585 76.697 77.0582 76.5973C77.0529 74.9362 77.0437 72.0196 78.3605 69.5742C79.1489 68.11 80.3649 66.854 82.0722 66.0139C83.7102 65.2079 85.5983 64.8824 87.6471 64.8824C91.1557 64.8824 94 62.0381 94 58.5294C94 55.0208 91.1557 52.1765 87.6471 52.1765C85.5983 52.1765 83.7102 51.8509 82.0722 51.0449C80.3649 50.2048 79.1489 48.9488 78.3605 47.4846C77.0437 45.0392 77.0529 42.1226 77.0582 40.4615C77.0585 40.3619 77.0588 40.2667 77.0588 40.1765V27.9412L68.3529 27.9412C68.2627 27.9412 68.1675 27.9415 68.0679 27.9418C66.4068 27.9471 63.4902 27.9563 61.0448 26.6395C59.5806 25.8511 58.3246 24.6351 57.4845 22.9278C56.6785 21.2898 56.3529 19.4017 56.3529 17.3529C56.3529 13.8443 53.5086 11 50 11C46.4914 11 43.6471 13.8443 43.6471 17.3529C43.6471 19.4017 43.3215 21.2898 42.5155 22.9278C41.6754 24.6351 40.4194 25.8511 38.9552 26.6395C36.5098 27.9563 33.5932 27.9471 31.9321 27.9418C31.8325 27.9415 31.7373 27.9412 31.6471 27.9412L22.9412 27.9412L22.9412 40.1765C22.9412 40.2667 22.9415 40.3619 22.9418 40.4615C22.9471 42.1226 22.9563 45.0392 21.6395 47.4846C20.8511 48.9488 19.6351 50.2048 17.9278 51.0449C16.2898 51.8509 14.4017 52.1765 12.3529 52.1765ZM12.3529 48.1765C6.63517 48.1765 2 52.8116 2 58.5294C2 64.2472 6.63517 68.8824 12.3529 68.8824C18.9412 68.8824 18.9412 73.1176 18.9412 76.8824L18.9412 88.0588C18.9412 89.1634 19.8366 90.0588 20.9412 90.0588H33.6471C37.4118 90.0588 41.6471 90.0588 41.6471 83.4706C41.6471 77.7528 44.2822 73.1176 50 73.1176C55.7178 73.1176 58.3529 77.7528 58.3529 83.4706C58.3529 90.0588 62.5882 90.0588 66.3529 90.0588H79.0588C80.1634 90.0588 81.0588 89.1634 81.0588 88.0588V76.8824C81.0588 73.1176 81.0588 68.8824 87.6471 68.8824C93.3648 68.8824 98 64.2472 98 58.5294C98 52.8116 93.3648 48.1765 87.6471 48.1765C81.0588 48.1765 81.0588 43.9412 81.0588 40.1765V25.9412C81.0588 24.8366 80.1634 23.9412 79.0588 23.9412L68.3529 23.9412C64.5882 23.9412 60.3529 23.9412 60.3529 17.3529C60.3529 11.6352 55.7178 7 50 7C44.2822 7 39.6471 11.6352 39.6471 17.3529C39.6471 23.9412 35.4118 23.9412 31.6471 23.9412L20.9412 23.9412C19.8366 23.9412 18.9412 24.8366 18.9412 25.9412L18.9412 40.1765C18.9412 43.9412 18.9412 48.1765 12.3529 48.1765Z"/>
<path d="M51.028 31.0253C44.8849 30.6039 40 35.5016 40 41.3042C40 42.9974 41.3727 44.37 43.0658 44.37C44.759 44.37 46.1317 42.9974 46.1317 41.3042C46.1317 38.9033 48.1522 36.973 50.6061 37.1427C52.6641 37.2845 54.3235 38.9439 54.4654 41.0017C54.5976 42.9211 53.4203 44.6768 51.6023 45.2712C48.9919 46.1247 47.2378 48.5304 47.2378 51.2575V53.6705C47.2378 55.3637 48.6105 56.7363 50.3036 56.7363C51.9968 56.7363 53.3695 55.3637 53.3695 53.6705V51.2575C53.3695 51.1794 53.4387 51.1218 53.5076 51.0995C57.9991 49.631 60.9081 45.3053 60.5825 40.5801C60.2308 35.4845 56.1234 31.3769 51.028 31.0253Z"/>
<path d="M50.3037 60.5651C48.6106 60.5651 47.2379 61.9377 47.2379 63.6309V63.8725C47.2379 65.5656 48.6106 66.9383 50.3037 66.9383C51.9969 66.9383 53.3696 65.5656 53.3696 63.8725V63.6309C53.3696 61.9377 51.9969 60.5651 50.3037 60.5651Z"/>
</svg>
