<svg width="100" height="100" viewBox="0 0 100 100" xmlns="http://www.w3.org/2000/svg">
<path fill-rule="evenodd" clip-rule="evenodd" d="M22.8451 76.0066L25.9532 65.5079C26.2949 64.3533 25.4021 63.2025 24.1649 63.2025H16.3522C12.2916 63.2025 9 60.0069 9 56.0646V32.138C9 28.1957 12.2916 25 16.3522 25H40.9967C45.0573 25 48.3488 28.1957 48.3488 32.138V59.9514C48.3488 61.2398 47.9895 62.5039 47.3097 63.6098L36.2257 81.637C34.8988 83.795 32.5013 85.1163 29.9128 85.1163H29.9114C25.0221 85.1163 21.4942 80.5692 22.8451 76.0066Z" fill="currentColor"/>
<path fill-rule="evenodd" clip-rule="evenodd" d="M72.8451 76.0066L75.9532 65.5079C76.2949 64.3533 75.4021 63.2025 74.1649 63.2025H66.3522C62.2916 63.2025 59 60.0069 59 56.0646V32.138C59 28.1957 62.2916 25 66.3522 25H90.9967C95.0573 25 98.3488 28.1957 98.3488 32.138V59.9514C98.3488 61.2398 97.9895 62.5039 97.3097 63.6098L86.2257 81.637C84.8988 83.795 82.5013 85.1163 79.9128 85.1163H79.9114C75.0221 85.1163 71.4942 80.5692 72.8451 76.0066Z" fill="currentColor"/>
<path fill-rule="evenodd" clip-rule="evenodd" d="M93.6418 60.1551L82.7822 78.2662C81.0792 81.1065 78.0081 82.8372 74.7016 82.8372H74.7003C68.4614 82.8372 63.9119 76.8745 65.6522 70.847C65.6522 70.847 65.6522 70.8471 65.6522 70.847L68.5467 60.8212H61.4156C56.2322 60.8212 52 56.6334 52 51.4297V27.3915C52 22.1878 56.2322 18 61.4156 18H85.5612C90.7445 18 94.9767 22.1878 94.9767 27.3915V55.3347C94.9767 57.0336 94.5143 58.6995 93.6418 60.1551ZM69.4952 71.9565C68.5002 75.4026 71.0987 78.8372 74.7003 78.8372H74.7016C76.6084 78.8372 78.3743 77.8392 79.3517 76.2092L90.2112 58.0981C90.7121 57.2626 90.9767 56.3077 90.9767 55.3347V27.3915C90.9767 24.4137 88.5522 22 85.5612 22H61.4156C58.4245 22 56 24.4137 56 27.3915V51.4297C56 54.4075 58.4245 56.8212 61.4156 56.8212H69.0702C71.471 56.8212 73.2037 59.1109 72.5404 61.4088L69.4952 71.9565Z"/>
<path fill-rule="evenodd" clip-rule="evenodd" d="M43.6418 60.1551L32.7822 78.2662C31.0792 81.1065 28.0081 82.8372 24.7016 82.8372H24.7003C18.4614 82.8372 13.9119 76.8745 15.6522 70.847C15.6522 70.847 15.6522 70.8471 15.6522 70.847L18.5467 60.8212H11.4156C6.2322 60.8212 2 56.6334 2 51.4297V27.3915C2 22.1878 6.2322 18 11.4156 18H35.5612C40.7445 18 44.9767 22.1878 44.9767 27.3915V55.3347C44.9767 57.0336 44.5143 58.6995 43.6418 60.1551ZM19.4952 71.9565C18.5003 75.4026 21.0987 78.8372 24.7003 78.8372H24.7016C26.6084 78.8372 28.3743 77.8392 29.3517 76.2092L40.2112 58.0981C40.7121 57.2626 40.9767 56.3077 40.9767 55.3347V27.3915C40.9767 24.4137 38.5522 22 35.5612 22H11.4156C8.42451 22 6 24.4137 6 27.3915V51.4297C6 54.4075 8.42451 56.8212 11.4156 56.8212H19.0702C21.471 56.8212 23.2037 59.1109 22.5404 61.4088L19.4952 71.9565Z"/>
</svg>
