<svg width="100" height="100" viewBox="0 0 100 100" xmlns="http://www.w3.org/2000/svg">
<path d="M78.2807 89.9303H70.0441C69.2734 89.9303 68.6487 89.3012 68.6487 88.5252C68.6487 87.7492 69.2734 87.1201 70.0441 87.1201H78.2807C79.0514 87.1201 79.6762 87.7492 79.6762 88.5252C79.6762 89.3012 79.0514 89.9303 78.2807 89.9303Z" fill="currentColor"/>
<path d="M74.1623 94.0774C73.3916 94.0774 72.7668 93.4483 72.7668 92.6723V84.3814C72.7668 83.6054 73.3916 82.9763 74.1623 82.9763C74.933 82.9763 75.5577 83.6054 75.5577 84.3814V92.6723C75.5577 93.4483 74.933 94.0774 74.1623 94.0774Z" fill="currentColor"/>
<path fill-rule="evenodd" clip-rule="evenodd" d="M11.6265 79.9217V29.9709H95.9999V79.9107H58.908H53.5113V74.4793C53.512 72.0671 52.5608 69.7535 50.8671 68.0476C49.1734 66.3416 46.876 65.3832 44.4804 65.3832H31.0837C26.0945 65.3832 22.0501 69.4557 22.0501 74.4793V79.9217H11.6265ZM26.3208 47.8069C26.3208 54.1799 31.4517 59.3462 37.7808 59.3462C40.8204 59.347 43.7357 58.1315 45.885 55.9673C48.0344 53.8031 49.2415 50.8676 49.2408 47.8069C49.2408 41.4339 44.11 36.2676 37.7808 36.2676C31.4517 36.2676 26.3208 41.4339 26.3208 47.8069Z" fill="currentColor"/>
<path fill-rule="evenodd" clip-rule="evenodd" d="M22.2155 83.3076H53.6767C54.4442 83.3076 55.0677 82.6835 55.0721 81.9107V74.4853C55.0646 68.6892 50.3994 63.9929 44.6431 63.9868H31.2464C25.4938 63.9928 20.8306 68.6847 20.8201 74.4771V81.9025C20.8201 82.6785 21.4448 83.3076 22.2155 83.3076ZM52.2815 80.4971H23.6111V74.4768C23.6126 70.2304 27.0294 66.7875 31.2466 66.783H44.6433C48.8588 66.7875 52.2755 70.2266 52.2815 74.4713V80.4971Z"/>
<path d="M53.677 79.9109V81.9021H22.2158V79.9164L27.6126 79.9109H53.677Z"/>
<path fill-rule="evenodd" clip-rule="evenodd" d="M26.0679 52.7631C28.0585 57.6 32.7469 60.7531 37.9466 60.752C45.0423 60.7429 50.7918 54.9524 50.7993 47.8076C50.7993 42.5718 47.6669 37.8516 42.8628 35.8482C38.0588 33.8449 32.5292 34.9528 28.8528 38.6555C25.1764 42.3581 24.0772 47.9262 26.0679 52.7631ZM27.8821 47.8069C27.8821 42.21 32.3881 37.6727 37.9466 37.6727C43.5051 37.6727 48.0112 42.21 48.0112 47.8069C48.0112 53.4039 43.5051 57.9411 37.9466 57.9411C32.3881 57.9411 27.8821 53.4039 27.8821 47.8069Z"/>
<path d="M6.39537 75.8926C6.026 75.8919 5.67204 75.7434 5.41137 75.4799C5.15069 75.2164 5.00465 74.8594 5.00537 74.4875V24.545C5.00537 23.769 5.63013 23.1399 6.40081 23.1399H90.7716C91.5422 23.1399 92.167 23.769 92.167 24.545V74.4875C92.1655 75.2629 91.5416 75.8911 90.7716 75.8926H53.6797C52.909 75.8926 52.2842 75.2635 52.2842 74.4875C52.2842 73.7115 52.909 73.0824 53.6797 73.0824H89.3788V25.9419H7.7908V73.0824H22.2076C22.9783 73.0824 23.603 73.7115 23.603 74.4875C23.603 75.2635 22.9783 75.8926 22.2076 75.8926H6.38721H6.39537Z"/>
<path d="M18.8265 14.0687H6.39543C5.62476 14.0687 5 13.4397 5 12.6636C5 11.8876 5.62476 11.2585 6.39543 11.2585H18.8265C19.5972 11.2585 20.2219 11.8876 20.2219 12.6636C20.2219 13.4397 19.5972 14.0687 18.8265 14.0687Z"/>
<path d="M12.622 20.3273C11.8513 20.3273 11.2266 19.6982 11.2266 18.9222V6.4051C11.2266 5.62908 11.8513 5 12.622 5C13.3927 5 14.0174 5.62908 14.0174 6.4051V18.9222C14.0174 19.6982 13.3927 20.3273 12.622 20.3273Z"/>
<path fill-rule="evenodd" clip-rule="evenodd" d="M60.824 34.8384C61.477 34.8384 62.0063 35.3642 62.0063 36.0129V53.37H83.2071C83.86 53.37 84.3893 53.8958 84.3893 54.5445C84.3893 55.1932 83.86 55.7191 83.2071 55.7191H60.824C60.1711 55.7191 59.6418 55.1932 59.6418 54.5445V36.0129C59.6418 35.3642 60.1711 34.8384 60.824 34.8384Z"/>
<path fill-rule="evenodd" clip-rule="evenodd" d="M82.178 35.1824C82.6397 35.6411 82.6397 36.3848 82.178 36.8434L72.8517 46.1092C72.63 46.3295 72.3293 46.4533 72.0158 46.4533C71.7023 46.4533 71.4016 46.3295 71.1799 46.1092L68.2853 43.2334L61.6602 49.8156C61.1985 50.2742 60.45 50.2742 59.9883 49.8156C59.5266 49.3569 59.5266 48.6132 59.9883 48.1545L67.4493 40.7419C67.6711 40.5216 67.9718 40.3979 68.2853 40.3979C68.5988 40.3979 68.8995 40.5216 69.1212 40.7419L72.0158 43.6177L80.5061 35.1824C80.9678 34.7237 81.7163 34.7237 82.178 35.1824Z"/>
<path fill-rule="evenodd" clip-rule="evenodd" d="M75.4967 36.0129C75.4967 35.3642 76.026 34.8384 76.679 34.8384H81.3421C81.995 34.8384 82.5243 35.3642 82.5243 36.0129V40.6458C82.5243 41.2945 81.995 41.8204 81.3421 41.8204C80.6892 41.8204 80.1599 41.2945 80.1599 40.6458V37.1875H76.679C76.026 37.1875 75.4967 36.6616 75.4967 36.0129Z"/>
</svg>
