<svg width="100" height="100" viewBox="0 0 100 100" xmlns="http://www.w3.org/2000/svg">
<g clip-path="url(#clip0_792:84)">
<path fill-rule="evenodd" clip-rule="evenodd" d="M100 100H8.69629V69.437H34.9461C35.7262 73.1792 39.0628 75.8665 42.9352 75.8713H65.7611C69.6335 75.8665 72.9701 73.1792 73.7502 69.437H100V100Z" fill="currentColor"/>
<path d="M34.2394 17.6943H50.5437V20.9115H34.2394V17.6943Z"/>
<path d="M17.9348 27.3458H66.8475V30.563H17.9348V27.3458Z"/>
<path d="M17.9348 36.9973H66.8475V40.2145H17.9348V36.9973Z"/>
<path d="M47.2828 46.6488H66.8478V49.866H47.2828V46.6488Z"/>
<path fill-rule="evenodd" clip-rule="evenodd" d="M42.3913 80.4289C42.3913 76.8754 45.3111 73.9946 48.913 73.9946C52.5148 73.9946 55.4347 76.8754 55.4347 80.4289C55.4347 83.9825 52.5148 86.8633 48.913 86.8633C45.3111 86.8633 42.3913 83.9825 42.3913 80.4289ZM45.6517 80.4289C45.6517 82.2057 47.1117 83.6461 48.9126 83.6461C50.7135 83.6461 52.1735 82.2057 52.1735 80.4289C52.1735 78.6522 50.7135 77.2118 48.9126 77.2118C47.1117 77.2118 45.6517 78.6522 45.6517 80.4289Z"/>
<path fill-rule="evenodd" clip-rule="evenodd" d="M89.6735 49.3511L97.5158 60.1929C97.7215 60.4612 97.8305 60.7896 97.8256 61.1259V94.906C97.8256 95.7944 97.0956 96.5146 96.1952 96.5146H1.63058C0.730125 96.5146 0.000159492 95.7944 0.000159492 94.906V61.1259C-0.00476025 60.7896 0.104261 60.4612 0.30994 60.1929L8.15228 49.3511V1.60858C8.15228 0.720184 8.88225 0 9.7827 0H58.6954C59.1277 0.00317579 59.5421 0.170194 59.853 0.466487L65.8856 6.43431H81.5214C82.4218 6.43431 83.1518 7.15449 83.1518 8.04288V12.8686H88.0431C88.9435 12.8686 89.6735 13.5888 89.6735 14.4772V49.3511ZM93.0317 59.5173L89.673 54.8846V59.5173H93.0317ZM83.1519 16.0858H86.4127V59.5174H83.1519V16.0858ZM79.891 59.5175V9.65161H69.1465L76.1574 16.5524C76.4577 16.8591 76.627 17.268 76.6302 17.6945V59.5175H79.891ZM60.3256 5.48535L71.0701 16.0859H61.956C61.0555 16.0859 60.3256 15.3657 60.3256 14.4773V5.48535ZM57.0655 3.21704H11.4136V59.5172H30.9787C31.8792 59.5172 32.6091 60.2374 32.6091 61.1258C32.6172 63.7877 34.8024 65.9436 37.5004 65.9515H60.3264C63.0244 65.9436 65.2096 63.7877 65.2176 61.1258C65.2176 60.2374 65.9476 59.5172 66.848 59.5172H73.3697V19.3028H61.9568C59.2587 19.2949 57.0736 17.139 57.0655 14.4771V3.21704ZM8.15254 54.8846V59.5173H4.79386L8.15254 54.8846ZM3.26132 93.2976H94.5651V62.7346H68.3152C67.5352 66.4768 64.1986 69.1641 60.3262 69.1689H37.5002C33.6278 69.1641 30.2912 66.4768 29.5111 62.7346H3.26132V93.2976Z"/>
</g>
</svg>
