<svg width="100" height="100" viewBox="0 0 100 100" xmlns="http://www.w3.org/2000/svg">
<path d="M82.7694 27.271V51.757L58.2834 64.012L33.7764 51.757V27.271L58.2834 14.764L82.7694 27.271Z" fill="currentColor"/>
<path fill-rule="evenodd" clip-rule="evenodd" d="M78.7767 24.1C78.7782 24.1089 78.7782 24.118 78.7767 24.127C78.7888 24.1814 78.7978 24.2365 78.8037 24.292V48.772C78.8042 49.3547 78.4756 49.8877 77.9547 50.149L53.4567 62.398H53.4177L53.3457 62.431L53.2287 62.473L53.1567 62.494L53.0277 62.521H52.9647C52.8355 62.541 52.7039 62.541 52.5747 62.521H52.5117L52.3827 62.494L52.3107 62.473L52.1937 62.431L52.1217 62.398H52.0827L27.5847 50.149C27.0638 49.8877 26.7352 49.3547 26.7357 48.772V24.277C26.7326 24.222 26.7326 24.1669 26.7357 24.112V24.085C26.7462 23.9986 26.7642 23.9132 26.7897 23.83C26.7985 23.8107 26.8055 23.7906 26.8107 23.77C26.8375 23.6914 26.8706 23.6152 26.9097 23.542C26.9532 23.4673 27.0023 23.3961 27.0567 23.329L27.1017 23.275C27.1595 23.2097 27.2227 23.1495 27.2907 23.095L27.3117 23.077L27.3424 23.0542C27.3764 23.0289 27.4098 23.0041 27.4467 22.981L27.5277 22.939L27.5547 22.921L52.0527 10.417C52.4916 10.1921 53.0118 10.1921 53.4507 10.417L77.9577 22.936L77.9877 22.954L78.0657 22.996C78.1026 23.0191 78.136 23.0439 78.1699 23.0692L78.17 23.0693L78.2007 23.092L78.2247 23.11C78.2918 23.1656 78.354 23.2268 78.4107 23.293L78.4557 23.344C78.5101 23.4111 78.5592 23.4823 78.6027 23.557C78.6418 23.6302 78.6749 23.7064 78.7017 23.785C78.7227 23.806 78.7227 23.827 78.7227 23.845C78.7482 23.9282 78.7662 24.0136 78.7767 24.1ZM73.8357 24.277L52.7517 13.516L31.6677 24.277L52.7517 34.819L73.8357 24.277ZM29.7957 26.782L51.2127 37.489V58.546L29.7957 47.836V26.782ZM54.2997 58.546L75.6957 47.836L75.7167 26.782L54.2997 37.489V58.546Z"/>
<path fill-rule="evenodd" clip-rule="evenodd" d="M34.8446 97.81C36.7693 98.7165 38.8702 99.1877 40.9976 99.19C42.6824 99.1893 44.3543 98.8959 45.9386 98.323L89.9996 82.453C91.7868 81.8172 93.0935 80.2687 93.4196 78.4C93.7638 76.5646 93.0877 74.6868 91.6526 73.492C89.5556 71.728 86.1716 69.487 80.9996 70.366C76.4726 71.134 65.8106 75.313 61.3376 77.113C60.5246 69.703 55.4966 65.953 46.3616 65.953H30.5006C23.7596 61.516 17.8376 59.188 11.9006 58.636C10.4069 58.4965 8.92334 58.9907 7.81164 59.998C6.71832 60.9998 6.09665 62.4151 6.09864 63.898V80.998C6.1029 83.0428 7.28489 84.9023 9.13464 85.774L34.8446 97.81ZM9.89964 62.287C10.3062 61.9052 10.8419 61.6909 11.3996 61.687C11.4718 61.6867 11.5439 61.6907 11.6156 61.699C18.8696 62.371 25.1216 66.07 29.1896 68.77C29.4433 68.9378 29.7405 69.0275 30.0446 69.028H46.3676C54.0536 69.028 57.8006 71.752 58.3196 77.812H36.1856C35.3357 77.812 34.6466 78.501 34.6466 79.351C34.6466 80.201 35.3357 80.89 36.1856 80.89H59.8856C59.9983 80.8904 60.1108 80.8804 60.2216 80.86C60.331 80.8374 60.4376 80.8032 60.5396 80.758L60.5413 80.7573C61.343 80.4286 76.2962 74.2984 81.5216 73.399C85.3916 72.739 87.9116 74.344 89.6756 75.844C90.2584 76.3325 90.5315 77.0979 90.3896 77.845C90.2542 78.6341 89.7038 79.2889 88.9496 79.558L44.9006 95.428C42.0504 96.4635 38.9048 96.3188 36.1616 95.026L10.4516 82.987C9.68182 82.6247 9.18914 81.8518 9.18564 81.001V63.901C9.18258 63.2858 9.44236 62.6985 9.89964 62.287Z"/>
<path d="M34.956 8.07399H29.64V2.75799C29.64 1.90803 28.951 1.21899 28.101 1.21899C27.2511 1.21899 26.562 1.90803 26.562 2.75799V8.07399H21.246C20.3961 8.07399 19.707 8.76303 19.707 9.61299C19.707 10.463 20.3961 11.152 21.246 11.152H26.562V16.468C26.562 17.318 27.2511 18.007 28.101 18.007C28.951 18.007 29.64 17.318 29.64 16.468V11.152H34.956C35.806 11.152 36.495 10.463 36.495 9.61299C36.495 8.76303 35.806 8.07399 34.956 8.07399Z" fill="currentColor"/>
<path d="M79.0291 62.728H76.0291V59.728C76.0291 58.878 75.3401 58.189 74.4901 58.189C73.6401 58.189 72.9511 58.878 72.9511 59.728V62.728H69.9511C69.4013 62.728 68.8932 63.0213 68.6183 63.4975C68.3434 63.9737 68.3434 64.5603 68.6183 65.0365C68.8932 65.5127 69.4013 65.806 69.9511 65.806H72.9511V68.806C72.9511 69.656 73.6401 70.345 74.4901 70.345C75.3401 70.345 76.0291 69.656 76.0291 68.806V65.8H79.0291C79.8791 65.8 80.5681 65.111 80.5681 64.261C80.5681 63.411 79.8791 62.722 79.0291 62.722V62.728Z"/>
</svg>
