<svg width="100" height="100" viewBox="0 0 100 100" xmlns="http://www.w3.org/2000/svg">
<path d="M13.0335 21.9679H96.6238C97.5215 21.9665 98.3827 22.3254 99.0165 22.9652C99.6503 23.605 100.004 24.4728 100 25.3762V39.0096H9.64652V25.3762C9.64228 24.471 9.99776 23.6016 10.6339 22.9615C11.2699 22.3213 12.1339 21.9636 13.0335 21.9679Z" fill="currentColor"/>
<path d="M94.2547 33.0418H2.74528C1.22911 33.0418 0 32.1464 0 31.0418C0 29.9372 1.22911 29.0418 2.74528 29.0418H94.2547C95.7709 29.0418 97 29.9372 97 31.0418C97 32.1464 95.7709 33.0418 94.2547 33.0418Z"/>
<path d="M35.3115 74.0965C35.7322 74.0965 36.1532 73.9312 36.4735 73.601C39.0642 70.9305 42.5085 69.4597 46.1716 69.4595C49.8347 69.4595 53.2792 70.9303 55.8704 73.601C56.5089 74.2592 57.5469 74.2617 58.1889 73.6068C58.8307 72.9517 58.8331 71.8869 58.1946 71.2287C54.9835 67.919 50.7136 66.0965 46.1716 66.0965C41.6298 66.0967 37.3601 67.9192 34.1492 71.2289C33.5105 71.8872 33.5131 72.9519 34.1549 73.6068C34.4749 73.9332 34.8931 74.0965 35.3115 74.0965Z"/>
<path d="M39.6719 48.7779C39.6719 47.8493 38.9517 47.0965 38.0634 47.0965C37.1751 47.0965 36.455 47.8493 36.455 48.7779C36.455 50.959 34.7579 52.7337 32.6719 52.7337C30.586 52.7337 28.8888 50.9592 28.8888 48.7779C28.8888 47.8493 28.1686 47.0965 27.2803 47.0965C26.392 47.0965 25.6719 47.8493 25.6719 48.7779C25.6719 52.8132 28.812 56.0965 32.6719 56.0965C36.5317 56.0965 39.6719 52.8135 39.6719 48.7779Z"/>
<path d="M68.6719 48.7779C68.6719 47.8493 67.9517 47.0965 67.0634 47.0965C66.1751 47.0965 65.4549 47.8493 65.4549 48.7779C65.4549 50.959 63.7579 52.7337 61.6718 52.7337C59.5859 52.7337 57.8888 50.9592 57.8888 48.7779C57.8888 47.8493 57.1687 47.0965 56.2804 47.0965C55.392 47.0965 54.6719 47.8493 54.6719 48.7779C54.6719 52.8132 57.8121 56.0965 61.6718 56.0965C65.5317 56.0965 68.6719 52.8135 68.6719 48.7779Z"/>
<path fill-rule="evenodd" clip-rule="evenodd" d="M68.1719 72.0965C65.1392 72.0965 62.6719 69.6402 62.6719 66.6211C62.6719 65.7269 62.8942 64.8383 63.3149 64.0514L67.3648 56.5757C67.525 56.2806 67.8348 56.0965 68.1718 56.0965C68.5087 56.0965 68.8186 56.2804 68.9787 56.5757L73.0286 64.0514C73.4496 64.8383 73.6719 65.7268 73.6719 66.6211C73.6719 69.6402 71.2046 72.0965 68.1719 72.0965ZM68.1719 60.0965L65.6408 64.8442C65.4208 65.2623 65.3082 65.7194 65.3082 66.1995C65.3082 67.7969 66.5929 69.0965 68.1719 69.0965C69.7509 69.0965 71.0355 67.7969 71.0355 66.1995C71.0355 65.7201 70.9233 65.2634 70.702 64.8422L68.1719 60.0965Z"/>
<path fill-rule="evenodd" clip-rule="evenodd" d="M87.9657 12H9.03431C4.0448 12 0 15.8946 0 20.6988V79.3012C0 84.1054 4.0448 88 9.03431 88H87.9657C92.9552 88 97 84.1054 97 79.3012V20.6988C97 15.8946 92.9552 12 87.9657 12ZM3 20.9091C3 17.6456 5.75858 15 9.16146 15H87.8385C91.2414 15 94 17.6456 94 20.9091V79.0909C94 82.3544 91.2414 85 87.8385 85H9.16146C5.75858 85 3 82.3544 3 79.0909V20.9091Z"/>
</svg>
