<svg width="100" height="100" viewBox="0 0 100 100" xmlns="http://www.w3.org/2000/svg">
<path d="M80.4698 93.4762H71.4579C70.6147 93.4762 69.9312 92.7926 69.9312 91.9494C69.9312 91.1062 70.6147 90.4226 71.4579 90.4226H80.4698C81.3131 90.4226 81.9966 91.1062 81.9966 91.9494C81.9966 92.7926 81.3131 93.4762 80.4698 93.4762Z" fill="currentColor"/>
<path d="M75.9643 97.9822C75.1211 97.9822 74.4375 97.2986 74.4375 96.4554V87.4465C74.4375 86.6032 75.1211 85.9197 75.9643 85.9197C76.8075 85.9197 77.4911 86.6032 77.4911 87.4465V96.4554C77.4911 97.2986 76.8075 97.9822 75.9643 97.9822Z" fill="currentColor"/>
<path d="M15.4195 11.0447H1.81829C0.975069 11.0447 0.291504 10.3611 0.291504 9.51787C0.291504 8.67465 0.975069 7.99109 1.81829 7.99109H15.4195C16.2627 7.99109 16.9463 8.67465 16.9463 9.51787C16.9463 10.3611 16.2627 11.0447 15.4195 11.0447Z"/>
<path d="M8.63079 17.8453C7.78757 17.8453 7.104 17.1617 7.104 16.3185V2.71728C7.104 1.87406 7.78757 1.19049 8.63079 1.19049C9.47401 1.19049 10.1576 1.87406 10.1576 2.71728V16.3185C10.1576 17.1617 9.47401 17.8453 8.63079 17.8453Z"/>
<path fill-rule="evenodd" clip-rule="evenodd" d="M7.5415 82.6012V28.3244H99.857V82.5893H59.2736H53.3689V76.6875C53.3697 74.0664 52.329 71.5524 50.4759 69.6987C48.6227 67.845 46.109 66.8036 43.4879 66.8036H28.8302C23.3715 66.8036 18.9463 71.2288 18.9463 76.6875V82.6012H7.5415ZM23.6189 47.7054C23.6189 54.6303 29.2326 60.244 36.1576 60.244C39.4833 60.2448 42.673 58.9241 45.0246 56.5724C47.3763 54.2208 48.6971 51.0311 48.6963 47.7054C48.6963 40.7804 43.0825 35.1667 36.1576 35.1667C29.2326 35.1667 23.6189 40.7804 23.6189 47.7054Z" fill="currentColor"/>
<path fill-rule="evenodd" clip-rule="evenodd" d="M23.342 53.09C25.52 58.3459 30.6497 61.772 36.3389 61.7708C44.1025 61.761 50.3932 55.4689 50.4014 47.7054C50.4014 42.0161 46.9741 36.8872 41.7178 34.7103C36.4616 32.5334 30.4115 33.7373 26.3891 37.7606C22.3666 41.7839 21.1639 47.8342 23.342 53.09ZM25.327 47.7054C25.327 41.6236 30.2572 36.6934 36.3389 36.6934C42.4206 36.6934 47.3508 41.6236 47.3508 47.7054C47.3508 53.7871 42.4206 58.7173 36.3389 58.7173C30.2572 58.7173 25.327 53.7871 25.327 47.7054Z"/>
<path fill-rule="evenodd" clip-rule="evenodd" d="M19.1279 86.2798H53.5505C54.3902 86.2798 55.0724 85.6016 55.0773 84.7619V76.6934C55.0691 70.3954 49.9646 65.2923 43.6665 65.2857H29.0088C22.7147 65.2923 17.6126 70.3904 17.6011 76.6845V84.753C17.6011 85.5962 18.2846 86.2798 19.1279 86.2798ZM52.0237 83.2262H20.6546V76.6845C20.6563 72.0704 24.3947 68.3293 29.0088 68.3244H43.6666C48.2789 68.3293 52.0171 72.0662 52.0237 76.6786V83.2262Z"/>
<path d="M53.5505 82.5893V84.753H19.1279V82.5952L25.0327 82.5893H53.5505Z"/>
<path d="M1.8182 78.2232C1.41406 78.2224 1.02679 78.0611 0.741574 77.7748C0.456363 77.4885 0.296576 77.1006 0.297366 76.6964V22.4286C0.297366 21.5854 0.980931 20.9018 1.82415 20.9018H94.1367C94.9799 20.9018 95.6634 21.5854 95.6634 22.4286V76.6964C95.6618 77.539 94.9792 78.2216 94.1367 78.2232H53.5533C52.7101 78.2232 52.0265 77.5397 52.0265 76.6964C52.0265 75.8532 52.7101 75.1697 53.5533 75.1697H92.6128V23.9464H3.34499V75.1697H19.1188C19.962 75.1697 20.6456 75.8532 20.6456 76.6964C20.6456 77.5397 19.962 78.2232 19.1188 78.2232H1.80927H1.8182Z"/>
</svg>
