<svg width="100" height="100" viewBox="0 0 100 100" xmlns="http://www.w3.org/2000/svg">
<path d="M28.4827 91.0264C31.6973 91.0264 34.3033 88.4205 34.3033 85.2058C34.3033 81.9912 31.6973 79.3853 28.4827 79.3853C25.2681 79.3853 22.6621 81.9912 22.6621 85.2058C22.6621 88.4205 25.2681 91.0264 28.4827 91.0264Z" fill="currentColor"/>
<path d="M60.5003 91.0264C63.7149 91.0264 66.3209 88.4205 66.3209 85.2058C66.3209 81.9912 63.7149 79.3853 60.5003 79.3853C57.2857 79.3853 54.6797 81.9912 54.6797 85.2058C54.6797 88.4205 57.2857 91.0264 60.5003 91.0264Z" fill="currentColor"/>
<path d="M51.4966 13.4677H98.0261C98.5258 13.4669 99.0052 13.6654 99.358 14.0194C99.7108 14.3733 99.9078 14.8533 99.9055 15.353V22.8941H49.6113V15.353C49.609 14.8522 49.8069 14.3713 50.1609 14.0173C50.515 13.6632 50.9959 13.4653 51.4966 13.4677Z" fill="currentColor"/>
<path d="M89.118 60.5736H75.6768C74.8435 60.5736 74.168 59.898 74.168 59.0647C74.168 58.2314 74.8435 57.5559 75.6768 57.5559H89.118C89.9513 57.5559 90.6268 58.2314 90.6268 59.0647C90.6268 59.898 89.9513 60.5736 89.118 60.5736Z"/>
<path d="M82.3946 67.2942C81.5613 67.2942 80.8857 66.6186 80.8857 65.7853V52.3412C80.8857 51.5079 81.5613 50.8324 82.3946 50.8324C83.2279 50.8324 83.9034 51.5079 83.9034 52.3412V65.7853C83.9034 66.1855 83.7444 66.5693 83.4615 66.8522C83.1785 67.1352 82.7947 67.2942 82.3946 67.2942Z"/>
<path d="M30.903 20.497H22C21.1667 20.497 20.4912 19.8215 20.4912 18.9882C20.4912 18.1549 21.1667 17.4794 22 17.4794H30.903C31.7363 17.4794 32.4118 18.1549 32.4118 18.9882C32.4118 19.8215 31.7363 20.497 30.903 20.497Z" fill="currentColor"/>
<path d="M26.4532 24.95C25.6199 24.95 24.9443 24.2745 24.9443 23.4412V14.5353C24.9443 13.702 25.6199 13.0265 26.4532 13.0265C27.2865 13.0265 27.962 13.702 27.962 14.5353V23.4412C27.962 23.8414 27.803 24.2251 27.5201 24.5081C27.2371 24.7911 26.8533 24.95 26.4532 24.95Z" fill="currentColor"/>
<path d="M45.7175 33.7883H12.0352C11.4961 33.7883 10.998 33.5007 10.7285 33.0339C10.459 32.567 10.459 31.9919 10.7285 31.525C10.998 31.0582 11.4961 30.7706 12.0352 30.7706H45.7175C46.5508 30.7706 47.2264 31.4462 47.2264 32.2795C47.2264 33.1128 46.5508 33.7883 45.7175 33.7883Z"/>
<path d="M20.6701 62.8971C19.851 62.9078 19.173 62.2629 19.1427 61.4443C19.1123 60.6257 19.7407 59.9324 20.5584 59.8824L60.3466 56.9412H60.4584C61.1334 56.9398 61.7117 56.4578 61.8348 55.7941C61.8362 55.7745 61.8362 55.7549 61.8348 55.7353L65.4878 39.5883C65.5886 39.0444 65.9788 38.5993 66.5048 38.4283C67.0308 38.2573 67.6082 38.3878 68.0095 38.7684C68.4109 39.149 68.5718 39.7186 68.4289 40.253L64.7819 56.3765C64.3869 58.4335 62.5999 59.9292 60.5054 59.9559L20.7672 62.8971H20.6701Z"/>
<path fill-rule="evenodd" clip-rule="evenodd" d="M18.2623 84.5698C19.3982 87.3096 22.0727 89.0953 25.0386 89.0941C29.0823 89.0812 32.3567 85.8055 32.368 81.7618C32.368 78.7958 30.5813 76.122 27.841 74.9873C25.1007 73.8525 21.9467 74.4804 19.8499 76.5781C17.7531 78.6757 17.1265 81.83 18.2623 84.5698ZM21.05 80.1122C21.7186 78.4996 23.293 77.4488 25.0386 77.45C27.4186 77.4532 29.3472 79.3818 29.3504 81.7618C29.3516 83.5074 28.3008 85.0818 26.6882 85.7504C25.0757 86.419 23.2191 86.05 21.9847 84.8157C20.7504 83.5813 20.3814 81.7247 21.05 80.1122Z"/>
<path fill-rule="evenodd" clip-rule="evenodd" d="M50.2828 84.5698C51.4187 87.3096 54.0932 89.0953 57.0591 89.0941C61.1028 89.0812 64.3773 85.8055 64.3886 81.7618C64.3886 78.7958 62.6018 76.122 59.8615 74.9873C57.1212 73.8525 53.9672 74.4804 51.8704 76.5781C49.7736 78.6757 49.147 81.83 50.2828 84.5698ZM53.0705 80.1122C53.7391 78.4996 55.3135 77.4488 57.0591 77.45C59.4398 77.4516 61.3693 79.3811 61.3709 81.7618C61.3721 83.5074 60.3213 85.0818 58.7087 85.7504C57.0962 86.419 55.2396 86.05 54.0052 84.8157C52.7709 83.5813 52.4019 81.7247 53.0705 80.1122Z"/>
<path d="M62.8764 71.6294H26.6C23.28 71.6224 20.3765 69.3914 19.5147 66.1853L9.59998 29.0058C9.43635 28.3928 8.88158 27.9658 8.24704 27.9647H1.76468C0.931383 27.9647 0.255859 27.2891 0.255859 26.4558C0.255859 25.6225 0.931383 24.947 1.76468 24.947H8.23527C10.239 24.9444 11.9929 26.2924 12.5059 28.2294L22.4206 65.4088C22.925 67.2965 24.6343 68.6101 26.5882 68.6117H62.8764C63.7097 68.6117 64.3853 69.2873 64.3853 70.1206C64.3853 70.9539 63.7097 71.6294 62.8764 71.6294Z"/>
<path d="M65.2531 47.5706H15.7119C15.1729 47.5706 14.6748 47.283 14.4053 46.8162C14.1357 46.3494 14.1357 45.7742 14.4053 45.3074C14.6748 44.8406 15.1729 44.553 15.7119 44.553H65.2531C66.0864 44.553 66.7619 45.2285 66.7619 46.0618C66.7619 46.8951 66.0864 47.5706 65.2531 47.5706Z"/>
<path d="M31.0791 62.1176C30.3407 62.116 29.7115 61.5813 29.5908 60.8529L24.9644 32.5117C24.851 31.9676 25.046 31.4051 25.4719 31.048C25.8978 30.6908 26.4856 30.5967 27.0017 30.8031C27.5178 31.0095 27.8787 31.4829 27.9408 32.0353L32.5702 60.3735C32.6382 60.7704 32.5446 61.178 32.3104 61.5056C32.0762 61.8332 31.7207 62.0535 31.3232 62.1176C31.242 62.1248 31.1603 62.1248 31.0791 62.1176Z"/>
<path d="M41.491 61.3559C40.6786 61.3549 40.0122 60.7119 39.9822 59.9L39.0263 32.3324C38.9924 31.7847 39.2584 31.2618 39.7211 30.9668C40.1837 30.6719 40.77 30.6513 41.2522 30.9131C41.7344 31.1749 42.0365 31.6778 42.041 32.2265L42.9999 59.7941C43.0142 60.1944 42.8687 60.5839 42.5957 60.8768C42.3226 61.1698 41.9442 61.3421 41.544 61.3559H41.491Z"/>
<path d="M52.1032 60.5735C52.0562 60.5765 52.009 60.5765 51.962 60.5735C51.133 60.4959 50.5236 59.7615 50.6003 58.9324L52.3973 39.7853C52.4499 39.2484 52.7849 38.7802 53.2761 38.5573C53.7674 38.3343 54.3403 38.3903 54.7791 38.7043C55.2178 39.0183 55.4557 39.5425 55.4032 40.0794L53.6061 59.2235C53.5235 59.9914 52.8755 60.5735 52.1032 60.5735Z"/>
<path fill-rule="evenodd" clip-rule="evenodd" d="M49.309 41.4265H92.4149C95.2302 41.4232 97.5116 39.1418 97.5149 36.3265V13.1588C97.5116 10.3435 95.2302 8.06208 92.4149 8.05884H49.309C46.4941 8.06208 44.2135 10.344 44.2119 13.1588V36.3265C44.2135 39.1413 46.4941 41.4232 49.309 41.4265ZM47.2266 13.1588C47.2282 12.0095 48.1596 11.0781 49.309 11.0765H92.4149C93.5642 11.0781 94.4956 12.0095 94.4972 13.1588V36.3265C94.4956 37.4759 93.5642 38.4072 92.4149 38.4088H49.309C48.1596 38.4072 47.2282 37.4759 47.2266 36.3265V13.1588Z"/>
<path d="M96.0061 20.497H45.7119C44.8786 20.497 44.2031 19.8215 44.2031 18.9882C44.2031 18.1549 44.8786 17.4794 45.7119 17.4794H96.0061C96.8394 17.4794 97.5149 18.1549 97.5149 18.9882C97.5149 19.8215 96.8394 20.497 96.0061 20.497Z"/>
<path d="M60.9206 33.7883H53C52.461 33.7883 51.9629 33.5007 51.6934 33.0339C51.4238 32.567 51.4238 31.9919 51.6934 31.525C51.9629 31.0582 52.461 30.7706 53 30.7706H60.9206C61.7539 30.7706 62.4294 31.4462 62.4294 32.2795C62.4294 33.1128 61.7539 33.7883 60.9206 33.7883Z"/>
</svg>
