<svg width="99" height="100" viewBox="0 0 99 100" xmlns="http://www.w3.org/2000/svg">
<path d="M62.3574 9.33108V12.4238H46.4634C45.6941 12.4238 44.9563 12.7294 44.4123 13.2734C43.8683 13.8174 43.5627 14.5552 43.5627 15.3245V30.6821H35.8839L28.7845 37.7781V30.6821H22.0958C20.4977 30.6766 19.2051 29.3795 19.2051 27.7814V9.33108C19.2051 7.72909 20.5037 6.43042 22.1057 6.43042H59.4534C60.2233 6.42954 60.9619 6.73476 61.5066 7.27883C62.0513 7.82291 62.3574 8.56121 62.3574 9.33108Z" fill="currentColor"/>
<path d="M86.7115 15.3245V33.7748C86.7115 34.5447 86.4054 35.283 85.8607 35.8271C85.316 36.3711 84.5774 36.6764 83.8075 36.6755H75.8075V43.745L68.738 36.6755H46.4466C44.8446 36.6755 43.5459 35.3768 43.5459 33.7748V30.6821H59.4399C60.2098 30.683 60.9485 30.3778 61.4932 29.8337C62.0379 29.2896 62.3439 28.5513 62.3439 27.7814V12.4238H83.8075C84.5774 12.423 85.316 12.7282 85.8607 13.2722C86.4054 13.8163 86.7115 14.5546 86.7115 15.3245Z" fill="currentColor"/>
<path d="M11.8941 36.2285H1.86762C0.929468 36.2285 0.168945 35.4679 0.168945 34.5298C0.168945 33.5916 0.929468 32.8311 1.86762 32.8311H11.8941C12.8323 32.8311 13.5928 33.5916 13.5928 34.5298C13.5928 35.4679 12.8323 36.2285 11.8941 36.2285Z" fill="currentColor"/>
<path d="M6.88032 41.2417C5.94216 41.2417 5.18164 40.4812 5.18164 39.543V29.5198C5.18164 28.5817 5.94216 27.8212 6.88032 27.8212C7.81847 27.8212 8.57899 28.5817 8.57899 29.5198V39.543C8.57899 40.4812 7.81847 41.2417 6.88032 41.2417Z" fill="currentColor"/>
<path d="M56.8214 73.6655H41.6889C40.7508 73.6655 39.9902 72.905 39.9902 71.9669C39.9902 71.0287 40.7508 70.2682 41.6889 70.2682H56.8214C57.7595 70.2682 58.52 71.0287 58.52 71.9669C58.52 72.905 57.7595 73.6655 56.8214 73.6655Z"/>
<path d="M49.2553 81.2351C48.3172 81.2351 47.5566 80.4746 47.5566 79.5364V64.4006C47.5566 63.4625 48.3172 62.702 49.2553 62.702C50.1935 62.702 50.954 63.4625 50.954 64.4006V79.5364C50.954 80.4746 50.1935 81.2351 49.2553 81.2351Z"/>
<path fill-rule="evenodd" clip-rule="evenodd" d="M6.37133 62.8253C8.79454 68.6728 14.5018 72.4847 20.8315 72.4834C29.4691 72.4725 36.4681 65.472 36.4772 56.8344C36.4772 50.5047 32.6641 44.7983 26.816 42.3763C20.968 39.9543 14.2368 41.2938 9.76149 45.7701C5.28616 50.2463 3.94812 56.9778 6.37133 62.8253ZM8.57983 56.8344C8.57983 50.068 14.0651 44.5827 20.8315 44.5827C24.0808 44.5827 27.1971 45.8735 29.4947 48.1712C31.7923 50.4688 33.0831 53.5851 33.0831 56.8344C33.0831 63.6008 27.5979 69.0861 20.8315 69.0861C14.0651 69.0861 8.57983 63.6008 8.57983 56.8344Z"/>
<path fill-rule="evenodd" clip-rule="evenodd" d="M1.68212 99.7517H39.9801C40.4312 99.7517 40.8638 99.5722 41.1824 99.253C41.5011 98.9337 41.6797 98.5008 41.6788 98.0497V89.0729C41.6697 82.0722 36.0007 76.3972 29 76.3808H12.6921C5.68545 76.3881 0.00730045 82.0662 1.95724e-09 89.0729V98.053C-4.42541e-05 98.9847 0.750439 99.7426 1.68212 99.7517ZM38.2815 96.3576H3.38079V89.0729C3.38627 83.9418 7.54444 79.7836 12.6755 79.7781H28.9834C34.115 79.7836 38.2742 83.9413 38.2815 89.0729V96.3576Z"/>
<path fill-rule="evenodd" clip-rule="evenodd" d="M63.221 62.823C65.6431 68.6706 71.3493 72.4834 77.6788 72.4834C86.3177 72.4743 93.3186 65.4733 93.3278 56.8344C93.3278 50.505 89.515 44.7988 83.6674 42.3766C77.8197 39.9544 71.0888 41.2933 66.6132 45.7689C62.1377 50.2445 60.7988 56.9754 63.221 62.823ZM65.4271 56.8344C65.4271 50.068 70.9124 44.5827 77.6788 44.5827C84.4452 44.5827 89.9304 50.068 89.9304 56.8344C89.9304 63.6008 84.4452 69.0861 77.6788 69.0861C70.9124 69.0861 65.4271 63.6008 65.4271 56.8344Z"/>
<path fill-rule="evenodd" clip-rule="evenodd" d="M58.5297 99.7516H96.8277C97.2788 99.7516 97.7114 99.5722 98.0301 99.2529C98.3487 98.9337 98.5273 98.5007 98.5264 98.0497V89.0728C98.5173 82.0714 92.8457 76.3969 85.8443 76.3841H69.5364C62.5266 76.3859 56.842 82.0631 56.8311 89.0728V98.053C56.8311 98.9911 57.5916 99.7516 58.5297 99.7516ZM95.1291 96.3576H60.2284V89.0728C60.2357 83.9374 64.4009 79.7781 69.5364 79.7781H85.8344C90.9654 79.7836 95.1236 83.9418 95.1291 89.0728V96.3576Z"/>
<path fill-rule="evenodd" clip-rule="evenodd" d="M22.9354 34.3334C23.2534 34.652 23.6851 34.8311 24.1354 34.8311C24.5861 34.8319 25.0186 34.6532 25.3373 34.3344L31.94 27.7351H54.8075C57.3475 27.7314 59.4051 25.6724 59.4069 23.1324V4.68541C59.4051 2.14549 57.3475 0.086415 54.8075 0.0827637H17.4499C14.91 0.086415 12.8524 2.14549 12.8506 4.68541V23.1324C12.8524 25.6724 14.91 27.7314 17.4499 27.7351H22.44V33.1324C22.4391 33.5826 22.6173 34.0147 22.9354 34.3334ZM16.2446 4.68541C16.2464 4.0205 16.785 3.48193 17.4499 3.48011H54.8075C55.4719 3.48194 56.0095 4.02104 56.0095 4.68541V23.1324C56.0095 23.7968 55.4719 24.3359 54.8075 24.3377H31.238C30.7874 24.3376 30.3551 24.5163 30.036 24.8344L25.8373 29.0331V26.0364C25.8373 25.0983 25.0768 24.3377 24.1387 24.3377H17.4499C16.785 24.3359 16.2464 23.7973 16.2446 23.1324V4.68541Z"/>
<path fill-rule="evenodd" clip-rule="evenodd" d="M69.9604 40.298C70.278 40.6168 70.7091 40.7967 71.1591 40.798C71.3787 40.8007 71.5967 40.7613 71.8015 40.6821C72.4342 40.417 72.8465 39.7986 72.8478 39.1125V33.7417H79.1757C81.7156 33.738 83.7732 31.679 83.775 29.139V10.6788C83.7741 9.45661 83.2876 8.28492 82.4224 7.42166C81.5573 6.5584 80.3846 6.07436 79.1624 6.07612H41.8015C39.2616 6.07977 37.204 8.13884 37.2021 10.6788V29.139C37.2113 31.6738 39.2667 33.7248 41.8015 33.7284H63.3876L69.9604 40.298ZM40.5962 10.6788C40.598 10.0139 41.1366 9.47529 41.8015 9.47347H79.1624C79.8268 9.47529 80.3644 10.0144 80.3644 10.6788V29.139C80.3572 29.7982 79.8217 30.3293 79.1624 30.3311H71.1591C70.221 30.3311 69.4604 31.0916 69.4604 32.0298V35.0099L65.2916 30.841C64.9737 30.5231 64.5425 30.3444 64.0929 30.3443H41.8015C41.1366 30.3425 40.598 29.8039 40.5962 29.139V10.6788Z"/>
</svg>
