<svg width="100" height="100" viewBox="0 0 100 100"  xmlns="http://www.w3.org/2000/svg">
<path d="M62 41C62 38.7909 63.7909 37 66 37H94C96.2091 37 98 38.7909 98 41V69C98 71.2091 96.2091 73 94 73H66C63.7909 73 62 71.2091 62 69V41Z" fill="#FFA688"/>
<path fill-rule="evenodd" clip-rule="evenodd" d="M66.7486 59.79C66.8886 59.93 67.0686 60 67.2886 60H76.7086C78.3486 60 79.7286 59.75 80.8486 59.25C81.9886 58.73 82.8486 58 83.4286 57.06C84.0286 56.1 84.3286 54.96 84.3286 53.64C84.3286 52.54 84.0286 51.58 83.4286 50.76C82.8486 49.94 82.1786 49.35 81.4186 48.99C81.7586 48.83 82.1186 48.57 82.4986 48.21C82.8986 47.85 83.2286 47.4 83.4886 46.86C83.7686 46.3 83.9086 45.66 83.9086 44.94C83.9086 43.72 83.6386 42.67 83.0986 41.79C82.5786 40.89 81.7686 40.2 80.6686 39.72C79.5686 39.24 78.1586 39 76.4386 39H67.2886C67.0686 39 66.8886 39.07 66.7486 39.21C66.6086 39.35 66.5386 39.53 66.5386 39.75V59.25C66.5386 59.45 66.6086 59.63 66.7486 59.79ZM76.1086 56.1H71.9386V51.15H76.1086C76.9486 51.15 77.5886 51.39 78.0286 51.87C78.4886 52.35 78.7186 52.94 78.7186 53.64C78.7186 54.28 78.4986 54.85 78.0586 55.35C77.6186 55.85 76.9686 56.1 76.1086 56.1ZM75.8386 47.34H71.9386V42.9H75.8386C76.6586 42.9 77.2686 43.11 77.6686 43.53C78.0886 43.93 78.2986 44.45 78.2986 45.09C78.2986 45.73 78.0886 46.27 77.6686 46.71C77.2686 47.13 76.6586 47.34 75.8386 47.34Z"/>
<path fill-rule="evenodd" clip-rule="evenodd" d="M55 34C55 31.7909 56.7909 30 59 30H91C93.2091 30 95 31.7909 95 34V66C95 68.2091 93.2091 70 91 70H59C56.7909 70 55 68.2091 55 66V34ZM89 34C90.1046 34 91 34.8954 91 36V64C91 65.1046 90.1046 66 89 66H61C59.8954 66 59 65.1046 59 64V36C59 34.8954 59.8954 34 61 34H89Z"/>
<path fill-rule="evenodd" clip-rule="evenodd" d="M14.7127 59.82C14.8527 59.94 15.0027 60 15.1627 60H18.8527C19.1927 60 19.4327 59.93 19.5727 59.79C19.7127 59.63 19.8027 59.49 19.8427 59.37L20.9827 56.31H28.9927L30.1627 59.37C30.2027 59.49 30.2927 59.63 30.4327 59.79C30.5927 59.93 30.8227 60 31.1227 60H34.8127C34.9927 60 35.1427 59.94 35.2627 59.82C35.4027 59.68 35.4727 59.53 35.4727 59.37C35.4727 59.27 35.4527 59.18 35.4127 59.1L28.3927 39.84C28.3327 39.62 28.2027 39.43 28.0027 39.27C27.8227 39.09 27.5627 39 27.2227 39H22.7827C22.4427 39 22.1727 39.09 21.9727 39.27C21.7927 39.43 21.6727 39.62 21.6127 39.84L14.5627 59.1C14.5427 59.18 14.5327 59.27 14.5327 59.37C14.5327 59.53 14.5927 59.68 14.7127 59.82ZM25.0027 44.07L27.7927 51.99H22.2127L25.0027 44.07Z"/>
<path fill-rule="evenodd" clip-rule="evenodd" d="M5 34C5 31.7909 6.79086 30 9 30H41C43.2091 30 45 31.7909 45 34V66C45 68.2091 43.2091 70 41 70H9C6.79086 70 5 68.2091 5 66V34ZM39 34C40.1046 34 41 34.8954 41 36V64C41 65.1046 40.1046 66 39 66H11C9.89543 66 9 65.1046 9 64V36C9 34.8954 9.89543 34 11 34H39Z"/>
</svg>
