<svg width="100" height="100" viewBox="0 0 100 100" xmlns="http://www.w3.org/2000/svg">
<path fill-rule="evenodd" clip-rule="evenodd" d="M6.63218 44.931H52.8161C55.9267 44.931 58.4483 47.4526 58.4483 50.5632C58.4483 53.6737 55.9267 56.1954 52.8161 56.1954H6.63218C3.52161 56.1954 1 53.6737 1 50.5632C1 47.4526 3.52161 44.931 6.63218 44.931ZM6.63218 47.1839C4.76584 47.1839 3.25287 48.6968 3.25287 50.5632C3.25287 52.4295 4.76584 53.9425 6.63218 53.9425H52.8161C54.6824 53.9425 56.1954 52.4295 56.1954 50.5632C56.1954 48.6968 54.6824 47.1839 52.8161 47.1839H6.63218Z"/>
<path d="M59.5747 50.5632C59.5747 48.6968 61.0877 47.1839 62.954 47.1839H95.6207C97.487 47.1839 99 48.6968 99 50.5632C99 52.4295 97.487 53.9425 95.6207 53.9425H62.954C61.0877 53.9425 59.5747 52.4295 59.5747 50.5632Z"/>
<path fill-rule="evenodd" clip-rule="evenodd" d="M63.5172 59.5747C68.8052 59.5747 73.092 55.2879 73.092 49.9999C73.092 44.712 68.8052 40.4252 63.5172 40.4252C58.2293 40.4252 53.9425 44.712 53.9425 49.9999C53.9425 55.2879 58.2293 59.5747 63.5172 59.5747ZM63.5172 61.8275C70.0494 61.8275 75.3448 56.5321 75.3448 49.9999C75.3448 43.4678 70.0494 38.1724 63.5172 38.1724C56.985 38.1724 51.6897 43.4678 51.6897 49.9999C51.6897 56.5321 56.985 61.8275 63.5172 61.8275Z"/>
<path d="M3.25317 50.563C3.25317 48.6966 4.76614 47.1837 6.63248 47.1837H52.8164C54.6827 47.1837 56.1957 48.6966 56.1957 50.563C56.1957 52.4293 54.6827 53.9423 52.8164 53.9423H6.63248C4.76614 53.9423 3.25317 52.4293 3.25317 50.563Z" fill="currentColor"/>
<path d="M73.0923 49.9998C73.0923 55.2877 68.8055 59.5745 63.5176 59.5745C58.2296 59.5745 53.9428 55.2877 53.9428 49.9998C53.9428 44.7118 58.2296 40.425 63.5176 40.425C68.8055 40.425 73.0923 44.7118 73.0923 49.9998Z" fill="currentColor"/>
<path fill-rule="evenodd" clip-rule="evenodd" d="M63.517 59.5747C68.805 59.5747 73.0918 55.2879 73.0918 49.9999C73.0918 44.712 68.805 40.4252 63.517 40.4252C58.2291 40.4252 53.9423 44.712 53.9423 49.9999C53.9423 55.2879 58.2291 59.5747 63.517 59.5747ZM63.517 61.8275C70.0492 61.8275 75.3446 56.5321 75.3446 49.9999C75.3446 43.4678 70.0492 38.1724 63.517 38.1724C56.9848 38.1724 51.6895 43.4678 51.6895 49.9999C51.6895 56.5321 56.9848 61.8275 63.517 61.8275Z"/>
</svg>
