<svg width="100" height="100" viewBox="0 0 100 100" xmlns="http://www.w3.org/2000/svg">
<path d="M46.6396 78.0618V31.3317C46.6396 29.8427 47.0809 28.9551 47.9636 28.6687C49.8712 28.2106 51.7647 27.9815 53.6439 27.9815C58 27.9815 62.0575 29.0123 65.8157 31.0739C69.5741 33.1356 72.6136 35.9488 74.934 39.5137C77.2546 43.0787 78.5999 47.0086 78.97 51.3037C80.7068 50.5592 82.5574 50.187 84.522 50.187C88.5082 50.187 91.9178 51.6044 94.7508 54.4391C97.5838 57.2739 99.0004 60.6813 99.0004 64.6614C99.0004 68.6701 97.5838 72.0918 94.7508 74.9266C91.9178 77.7613 88.5225 79.1787 84.5647 79.1787L47.4082 79.1357C47.1519 79.0498 46.9597 78.8923 46.8315 78.6633C46.7034 78.4343 46.6396 78.2336 46.6396 78.0618Z" fill="currentColor"/>
<path d="M87.0024 23.0152C86.0353 23.0152 85.2493 22.2288 85.2493 21.2612V17.7633H81.7531C80.786 17.7633 80 16.9769 80 16.0093C80 15.0417 80.786 14.2552 81.7531 14.2552H85.2493V10.754C85.2493 9.78641 86.0353 9 87.0024 9C87.9695 9 88.7555 9.78641 88.7555 10.754V14.2552H92.2549C93.222 14.2552 94.008 15.0417 94.008 16.0093C94.008 16.9769 93.222 17.7633 92.2549 17.7633H88.7555V21.2612C88.7555 22.2288 87.9695 23.0152 87.0024 23.0152Z"/>
<path fill-rule="evenodd" clip-rule="evenodd" d="M73.5969 41.6744C72.8825 38.6697 71.6645 35.8524 69.9429 33.2224C67.4697 29.4442 64.23 26.4626 60.2242 24.2775C56.2184 22.0925 51.8937 21 47.2507 21C45.2477 21 43.2296 21.2428 41.1964 21.7283C40.2556 22.0319 39.7852 22.9726 39.7852 24.5507V74.0777C39.7852 74.2598 39.8532 74.4724 39.9898 74.7152C40.1263 74.9579 40.3312 75.1249 40.6044 75.2159L80.2078 75.2614C84.4262 75.2614 88.0452 73.7592 91.0647 70.7548C94.0843 67.7504 95.5941 64.1239 95.5941 59.8753C95.5941 55.6569 94.0843 52.0456 91.0647 49.0411C88.0452 46.0367 84.411 44.5345 80.1623 44.5345C79.4821 44.5345 78.8147 44.5762 78.1601 44.6594C76.7997 44.8325 75.4945 45.1853 74.2447 45.7181C74.1248 44.3344 73.9088 42.9866 73.5969 41.6744ZM80.2078 71.2614H80.2091C83.358 71.2611 85.9655 70.1858 88.2433 67.9193C90.5107 65.6634 91.5941 63.0564 91.5941 59.8753C91.5941 56.733 90.5168 54.1387 88.2433 51.8766C85.9712 49.6159 83.3506 48.5345 80.1623 48.5345C78.5851 48.5345 77.1483 48.8287 75.8131 49.3978L70.7361 51.5618L70.2596 46.0634C69.9215 42.1616 68.7032 38.6319 66.5962 35.4132C64.4879 32.1925 61.7423 29.662 58.3087 27.7891C54.9012 25.9304 51.2368 25 47.2507 25C46.1099 25 44.9554 25.0939 43.7852 25.285V71.2196L80.2078 71.2614Z"/>
<path d="M32.077 22.8444C33.1815 22.8444 34.077 23.7398 34.077 24.8444L34.0769 73.6136C34.0769 74.7182 33.1815 75.6136 32.0769 75.6136C30.9724 75.6136 30.0769 74.7182 30.0769 73.6136L30.077 24.8444C30.077 23.7398 30.9724 22.8444 32.077 22.8444Z"/>
<path d="M24.3846 43.1521C24.3846 42.0475 23.4892 41.1521 22.3846 41.1521C21.28 41.1521 20.3846 42.0475 20.3846 43.1521L20.3846 72.5367C20.3846 73.6413 21.28 74.5367 22.3846 74.5367C23.4892 74.5367 24.3846 73.6413 24.3846 72.5367L24.3846 43.1521Z"/>
<path d="M12.6923 36.8443C13.7969 36.8443 14.6923 37.7397 14.6923 38.8443L14.6923 71.4597C14.6923 72.5643 13.7969 73.4597 12.6923 73.4597C11.5877 73.4597 10.6923 72.5643 10.6923 71.4597L10.6923 38.8443C10.6923 37.7397 11.5877 36.8443 12.6923 36.8443Z"/>
<path d="M5 50.6905C5 49.5859 4.10457 48.6905 3 48.6905C1.89543 48.6905 1 49.5859 1 50.6905V67.152C1 68.2566 1.89543 69.152 3 69.152C4.10457 69.152 5 68.2566 5 67.152L5 50.6905Z"/>
</svg>
