<svg width="100" height="100" viewBox="0 0 100 100" xmlns="http://www.w3.org/2000/svg">
<path d="M98.1345 61.5308C97.9704 59.3548 96.8686 57.3647 95.1118 56.0706C92.1114 53.8606 88.0211 54.1692 85.3863 56.804L79.0507 63.1394C76.1368 66.0535 72.4209 67.8738 68.4009 68.3967C68.8964 67.4086 69.1771 66.2949 69.1771 65.1162C69.1771 61.0665 65.8825 57.7718 61.8329 57.7718H49.8077C46.41 54.6604 42.0356 52.9567 37.3994 52.9567C30.6052 52.9567 24.2176 55.6026 19.4134 60.4067L13.5772 66.243L12.2944 65.5023C11.3602 64.9631 10.1657 65.283 9.62641 66.2172L2.10679 79.2415C1.56733 80.1757 1.88745 81.3701 2.82164 81.9095L10.6252 86.4149C11.5592 86.9543 12.754 86.6342 13.2932 85.7C13.8327 84.7658 13.5126 83.5715 12.5784 83.032L6.46641 79.5033L12.0329 69.8619L39.5297 85.7371L33.9632 95.3784L27.7999 91.82C26.8657 91.2809 25.6713 91.6007 25.1319 92.5349C24.5924 93.469 24.9125 94.6634 25.8467 95.2029L33.7015 99.7379C34.0091 99.9154 34.3449 100 34.6763 100C35.3513 100 36.0078 99.6496 36.3695 99.023L43.8891 85.9986C44.1424 85.56 44.2137 85.0408 44.0915 84.5502H66.0759C74.2793 84.5502 81.9917 81.3558 87.7924 75.555L95.9647 67.3824C97.5075 65.8398 98.2983 63.7068 98.1345 61.5308ZM93.2024 64.6205L85.03 72.793C79.9671 77.856 73.2357 80.6441 66.0757 80.6441H38.5205L17.0796 68.265L22.1758 63.1689C26.2422 59.1024 31.6487 56.863 37.3996 56.863C41.2692 56.863 44.9071 58.3698 47.6435 61.1062C48.0097 61.4724 48.5065 61.6782 49.0245 61.6782H61.8331C63.7288 61.6782 65.271 63.2205 65.271 65.1164C65.271 67.0119 63.7288 68.5543 61.8331 68.5543H46.9854C45.9067 68.5543 45.0323 69.4289 45.0323 70.5075C45.0323 71.586 45.9067 72.4606 46.9854 72.4606H65.9788C71.9603 72.4606 77.5836 70.1313 81.8128 65.9019L88.1484 59.5665C89.4072 58.3075 91.3614 58.16 92.7952 59.2161C93.6344 59.8343 94.161 60.7853 94.2393 61.8247C94.3174 62.8642 93.9397 63.8832 93.2024 64.6205Z"/>
<path d="M19.2129 87.165C18.6973 87.165 18.1953 87.3721 17.832 87.7353C17.4668 88.1004 17.2598 88.6043 17.2598 89.1181C17.2598 89.6318 17.4668 90.1357 17.832 90.4988C18.1953 90.8621 18.6973 91.0691 19.2129 91.0691C19.7266 91.0691 20.2305 90.8621 20.5938 90.4988C20.957 90.1357 21.166 89.6318 21.166 89.1181C21.166 88.6043 20.957 88.1004 20.5938 87.7353C20.2305 87.3721 19.7266 87.165 19.2129 87.165Z"/>
<path d="M45.0123 27.0945C45.0443 26.9957 45.0879 26.9957 45.1482 26.9957H57.3286C58.1759 26.9957 58.9265 26.4494 59.1871 25.6433L62.9187 14.099C62.9373 14.0416 62.9508 14 63.0547 14C63.1588 14 63.1723 14.0416 63.1908 14.099L66.9078 25.6433C67.1684 26.4494 68.7663 26.9957 68.7663 26.9957H81.8086C81.869 26.9957 81.0654 26.9957 81.0975 27.0947C81.1295 27.1935 81.0941 27.2191 81.0451 27.2544L71.1753 34.3924C71.3345 34.8901 71.0468 35.7754 71.3108 36.5827L74.1651 47.8203L74.8724 48.2955C74.9212 48.3311 74.1093 48.3568 74.1935 48.2957C74.2775 48.2347 74.264 48.1933 74.2453 48.136L74.2452 48.1357L74.1651 47.8203L64.2061 41.1288C63.5199 40.628 62.5892 40.628 61.9031 41.1288L52.0842 48.2955C52.0352 48.3313 51.9999 48.3566 51.9159 48.2957C51.8318 48.2347 51.8453 48.1933 51.864 48.136L51.8641 48.1357L55.6458 36.5827C55.9101 35.7754 55.6224 34.8901 54.9341 34.3924L45.0642 27.2544L45.0641 27.2544C45.0155 27.2191 44.9803 27.1934 45.0123 27.0945Z" fill="currentColor"/>
<path d="M40.6156 28.1384L49.3303 34.4412L45.992 44.6394C45.4348 46.3419 46.0111 48.1222 47.4602 49.1752C48.9094 50.2279 50.7805 50.2257 52.2276 49.1699L60.8951 42.8434L69.5626 49.1699C70.2874 49.699 71.1185 49.9634 71.9497 49.9634C72.7781 49.9634 73.6066 49.7007 74.33 49.1753C75.7793 48.1224 76.3556 46.3421 75.7984 44.6395L72.4601 34.4414L81.1748 28.1386C82.6247 27.0901 83.2053 25.3126 82.6543 23.6104C82.1034 21.9082 80.591 20.8082 78.8018 20.8082H68.0426L64.7481 10.6161C64.1975 8.91316 62.6852 7.81256 60.8951 7.81256C59.105 7.81256 57.5927 8.91316 57.0421 10.6161L53.7476 20.8082H42.9885C41.1992 20.8082 39.687 21.908 39.1361 23.6104C38.5851 25.3126 39.1658 27.0899 40.6156 28.1384ZM42.8525 24.8133C42.8845 24.7145 42.9281 24.7145 42.9885 24.7145H55.1689C56.0161 24.7145 56.7667 24.1682 57.0273 23.3622L60.759 11.8179C60.7775 11.7605 60.791 11.7189 60.8949 11.7189C60.999 11.7189 61.0125 11.7605 61.031 11.8179L64.7481 23.3622C65.0086 24.1682 66.6065 24.7145 66.6065 24.7145H79.6488C79.7092 24.7145 78.9057 24.7145 78.9377 24.8135C78.9697 24.9124 78.9344 24.938 78.8854 24.9733L69.0155 32.1113C69.1747 32.6089 68.887 33.4943 69.1511 34.3015L72.0855 45.8546C72.1042 45.912 72.1179 45.9534 72.0337 46.0146C71.9495 46.0757 72.7615 46.0499 72.7126 46.0144L62.0463 38.8477C61.3602 38.3469 60.4295 38.3469 59.7433 38.8477L49.9245 46.0144C49.8754 46.0501 49.8401 46.0755 49.7561 46.0146C49.6719 45.9534 49.6856 45.912 49.7044 45.8546L53.486 34.3015C53.7503 33.4943 53.4626 32.6089 52.7743 32.1113L42.9045 24.9733C42.8558 24.938 42.8205 24.9124 42.8525 24.8133Z"/>
<path d="M43.3897 9.01591H33.67C32.7748 9.01591 32.0474 8.28806 32.0474 7.39249C32.0474 6.49692 32.7748 5.76908 33.67 5.76908H43.3897C44.2848 5.76908 45.0123 6.49692 45.0123 7.39249C45.0123 8.28806 44.2848 9.01591 43.3897 9.01591Z" fill="currentColor"/>
<path d="M38.5282 13.8767C37.6331 13.8767 36.9056 13.1488 36.9056 12.2533V2.52857C36.9056 1.633 37.6331 0.905151 38.5282 0.905151C39.4233 0.905151 40.1508 1.633 40.1508 2.52857V12.2533C40.1508 13.1488 39.4233 13.8767 38.5282 13.8767Z" fill="currentColor"/>
<path d="M94.3899 44.0159H84.6702C83.7751 44.0159 83.0476 43.2881 83.0476 42.3925C83.0476 41.4969 83.7751 40.7691 84.6702 40.7691H94.3899C95.285 40.7691 96.0125 41.4969 96.0125 42.3925C96.0125 43.2881 95.285 44.0159 94.3899 44.0159Z" fill="currentColor"/>
<path d="M89.5285 48.8767C88.6334 48.8767 87.9059 48.1488 87.9059 47.2533V37.5286C87.9059 36.633 88.6334 35.9052 89.5285 35.9052C90.4236 35.9052 91.1511 36.633 91.1511 37.5286V47.2533C91.1511 48.1488 90.4236 48.8767 89.5285 48.8767Z" fill="currentColor"/>
<path d="M76.1506 7.22656H77.5178V8.59375C77.5178 9.67227 78.3922 10.5469 79.4709 10.5469C80.5497 10.5469 81.4241 9.67227 81.4241 8.59375V7.22656H82.7913C83.87 7.22656 84.7444 6.35195 84.7444 5.27344C84.7444 4.19492 83.87 3.32031 82.7913 3.32031H81.4241V1.95312C81.4241 0.874609 80.5497 0 79.4709 0C78.3922 0 77.5178 0.874609 77.5178 1.95312V3.32031H76.1506C75.0719 3.32031 74.1975 4.19492 74.1975 5.27344C74.1975 6.35195 75.0719 7.22656 76.1506 7.22656Z"/>
<path d="M26.4324 40.2998H27.7996V41.667C27.7996 42.7455 28.674 43.6201 29.7527 43.6201C30.8314 43.6201 31.7058 42.7455 31.7058 41.667V40.2998H33.073C34.1517 40.2998 35.0261 39.4252 35.0261 38.3467C35.0261 37.2682 34.1517 36.3936 33.073 36.3936H31.7058V35.0264C31.7058 33.9479 30.8314 33.0732 29.7527 33.0732C28.674 33.0732 27.7996 33.9479 27.7996 35.0264V36.3936H26.4324C25.3537 36.3936 24.4792 37.2682 24.4792 38.3467C24.4792 39.4252 25.3537 40.2998 26.4324 40.2998Z"/>
</svg>
