<svg width="100" height="100" viewBox="0 0 100 100" xmlns="http://www.w3.org/2000/svg">
<g clip-path="url(#clip0_1:7158)">
<path d="M98.1345 61.5308C97.9704 59.3548 96.8686 57.3647 95.1118 56.0706C92.1114 53.8606 88.0211 54.1692 85.3863 56.804L79.0507 63.1394C76.1368 66.0535 72.4209 67.8739 68.4009 68.3967C68.8964 67.4086 69.1771 66.2949 69.1771 65.1162C69.1771 61.0665 65.8825 57.7718 61.8329 57.7718H49.8077C46.41 54.6604 42.0356 52.9567 37.3994 52.9567C30.6052 52.9567 24.2176 55.6026 19.4134 60.4068L13.5772 66.243L12.2944 65.5023C11.3602 64.9631 10.1657 65.283 9.62641 66.2172L2.10679 79.2416C1.56733 80.1758 1.88745 81.3701 2.82164 81.9096L10.6252 86.4149C11.5592 86.9543 12.754 86.6342 13.2932 85.7C13.8327 84.7658 13.5126 83.5715 12.5784 83.032L6.46641 79.5033L12.0329 69.862L39.5297 85.7371L33.9632 95.3785L27.7999 91.82C26.8657 91.281 25.6713 91.6007 25.1319 92.5349C24.5924 93.4691 24.9125 94.6634 25.8467 95.2029L33.7015 99.7379C34.0091 99.9154 34.3449 100 34.6763 100C35.3513 100 36.0078 99.6496 36.3695 99.023L43.8891 85.9987C44.1424 85.56 44.2137 85.0408 44.0915 84.5502H66.0759C74.2793 84.5502 81.9917 81.3558 87.7924 75.555L95.9647 67.3824C97.5075 65.8398 98.2983 63.7068 98.1345 61.5308ZM93.2024 64.6205L85.03 72.793C79.9671 77.856 73.2357 80.6441 66.0757 80.6441H38.5205L17.0796 68.2651L22.1758 63.1689C26.2422 59.1025 31.6487 56.863 37.3996 56.863C41.2692 56.863 44.9071 58.3698 47.6435 61.1062C48.0097 61.4724 48.5065 61.6783 49.0245 61.6783H61.8331C63.7288 61.6783 65.271 63.2205 65.271 65.1164C65.271 67.0119 63.7288 68.5543 61.8331 68.5543H46.9854C45.9067 68.5543 45.0323 69.4289 45.0323 70.5075C45.0323 71.586 45.9067 72.4606 46.9854 72.4606H65.9788C71.9603 72.4606 77.5836 70.1313 81.8128 65.902L88.1484 59.5665C89.4072 58.3075 91.3614 58.1601 92.7952 59.2161C93.6344 59.8343 94.161 60.7853 94.2393 61.8248C94.3174 62.8642 93.9397 63.8832 93.2024 64.6205Z"/>
<path d="M45.0123 27.0945C45.0443 26.9957 45.0879 26.9957 45.1482 26.9957H57.3286C58.1759 26.9957 58.9265 26.4494 59.1871 25.6433L62.9187 14.099C62.9373 14.0416 62.9508 14 63.0547 14C63.1588 14 63.1723 14.0416 63.1908 14.099L66.9078 25.6433C67.1684 26.4494 68.7663 26.9957 68.7663 26.9957H81.8086C81.869 26.9957 81.0654 26.9957 81.0975 27.0947C81.1295 27.1935 81.0941 27.2191 81.0451 27.2545L71.1753 34.3924C71.3345 34.8901 71.0468 35.7755 71.3108 36.5827L74.1651 47.8203L74.8724 48.2955C74.9212 48.3311 74.1093 48.3569 74.1935 48.2957C74.2775 48.2347 74.264 48.1933 74.2453 48.136L74.2452 48.1358L74.1651 47.8203L64.2061 41.1288C63.5199 40.628 62.5892 40.628 61.9031 41.1288L52.0842 48.2955C52.0352 48.3313 51.9999 48.3567 51.9159 48.2957C51.8318 48.2347 51.8453 48.1933 51.864 48.136L51.8641 48.1358L55.6458 36.5827C55.9101 35.7755 55.6224 34.8901 54.9341 34.3924L45.0642 27.2545L45.0641 27.2544C45.0155 27.2191 44.9803 27.1934 45.0123 27.0945Z" fill="currentColor"/>
<path d="M40.6153 28.1384L49.3301 34.4412L45.9918 44.6394C45.4345 46.3419 46.0109 48.1222 47.4599 49.1752C48.9092 50.2279 50.7803 50.2258 52.2274 49.1699L60.8949 42.8435L69.5623 49.1699C70.2872 49.699 71.1182 49.9635 71.9495 49.9635C72.7778 49.9635 73.6063 49.7008 74.3298 49.1754C75.779 48.1224 76.3554 46.3421 75.7982 44.6396L72.4598 34.4414L81.1746 28.1386C82.6244 27.0902 83.2051 25.3126 82.6541 23.6104C82.1031 21.9083 80.5908 20.8082 78.8015 20.8082H68.0424L64.7478 10.6161C64.1972 8.91318 62.6849 7.81259 60.8949 7.81259C59.1048 7.81259 57.5925 8.91318 57.0419 10.6161L53.7473 20.8082H42.9882C41.1989 20.8082 39.6868 21.9081 39.1358 23.6104C38.5848 25.3126 39.1655 27.09 40.6153 28.1384ZM42.8523 24.8134C42.8843 24.7145 42.9279 24.7145 42.9882 24.7145H55.1686C56.0159 24.7145 56.7665 24.1682 57.027 23.3622L60.7587 11.8179C60.7773 11.7605 60.7908 11.7189 60.8947 11.7189C60.9988 11.7189 61.0122 11.7605 61.0308 11.8179L64.7478 23.3622C65.0084 24.1682 66.6063 24.7145 66.6063 24.7145H79.6486C79.709 24.7145 78.9054 24.7145 78.9375 24.8136C78.9695 24.9124 78.9341 24.938 78.8851 24.9733L69.0153 32.1113C69.1745 32.609 68.8868 33.4943 69.1508 34.3016L72.0852 45.8546C72.104 45.9121 72.1176 45.9535 72.0335 46.0146C71.9493 46.0757 72.7612 46.0499 72.7124 46.0144L62.046 38.8477C61.3599 38.3469 60.4292 38.3469 59.7431 38.8477L49.9242 46.0144C49.8752 46.0501 49.8399 46.0755 49.7559 46.0146C49.6717 45.9535 49.6854 45.9121 49.7041 45.8546L53.4858 34.3016C53.7501 33.4943 53.4624 32.609 52.7741 32.1113L42.9042 24.9733C42.8556 24.938 42.8202 24.9124 42.8523 24.8134Z"/>
<path d="M43.3902 9.01592H33.6704C32.7753 9.01592 32.0479 8.28807 32.0479 7.3925C32.0479 6.49693 32.7753 5.76908 33.6704 5.76908H43.3902C44.2853 5.76908 45.0127 6.49693 45.0127 7.3925C45.0127 8.28807 44.2853 9.01592 43.3902 9.01592Z" fill="currentColor"/>
<path d="M38.5288 13.8767C37.6337 13.8767 36.9062 13.1488 36.9062 12.2533V2.52858C36.9062 1.63301 37.6337 0.905161 38.5288 0.905161C39.4239 0.905161 40.1514 1.63301 40.1514 2.52858V12.2533C40.1514 13.1488 39.4239 13.8767 38.5288 13.8767Z" fill="currentColor"/>
<path d="M94.3902 44.0159H84.6704C83.7753 44.0159 83.0479 43.2881 83.0479 42.3925C83.0479 41.4969 83.7753 40.7691 84.6704 40.7691H94.3902C95.2853 40.7691 96.0127 41.4969 96.0127 42.3925C96.0127 43.2881 95.2853 44.0159 94.3902 44.0159Z" fill="currentColor"/>
<path d="M89.5288 48.8767C88.6337 48.8767 87.9062 48.1488 87.9062 47.2533V37.5286C87.9062 36.633 88.6337 35.9052 89.5288 35.9052C90.4239 35.9052 91.1514 36.633 91.1514 37.5286V47.2533C91.1514 48.1488 90.4239 48.8767 89.5288 48.8767Z" fill="currentColor"/>
<path d="M76.1504 7.22657H77.5176V8.59376C77.5176 9.67228 78.392 10.5469 79.4707 10.5469C80.5494 10.5469 81.4238 9.67228 81.4238 8.59376V7.22657H82.791C83.8697 7.22657 84.7441 6.35196 84.7441 5.27345C84.7441 4.19493 83.8697 3.32032 82.791 3.32032H81.4238V1.95313C81.4238 0.874619 80.5494 9.53674e-06 79.4707 9.53674e-06C78.392 9.53674e-06 77.5176 0.874619 77.5176 1.95313V3.32032H76.1504C75.0717 3.32032 74.1973 4.19493 74.1973 5.27345C74.1973 6.35196 75.0717 7.22657 76.1504 7.22657Z"/>
<path d="M26.4326 40.2998H27.7998V41.667C27.7998 42.7455 28.6742 43.6201 29.7529 43.6201C30.8316 43.6201 31.7061 42.7455 31.7061 41.667V40.2998H33.0732C34.1519 40.2998 35.0264 39.4252 35.0264 38.3467C35.0264 37.2682 34.1519 36.3936 33.0732 36.3936H31.7061V35.0264C31.7061 33.9479 30.8316 33.0732 29.7529 33.0732C28.6742 33.0732 27.7998 33.9479 27.7998 35.0264V36.3936H26.4326C25.3539 36.3936 24.4795 37.2682 24.4795 38.3467C24.4795 39.4252 25.3539 40.2998 26.4326 40.2998Z"/>
<path d="M19.2129 87.1651C18.6973 87.1651 18.1953 87.3721 17.832 87.7354C17.4668 88.1004 17.2598 88.6043 17.2598 89.1182C17.2598 89.6319 17.4668 90.1358 17.832 90.4989C18.1953 90.8622 18.6973 91.0692 19.2129 91.0692C19.7266 91.0692 20.2305 90.8622 20.5938 90.4989C20.957 90.1358 21.166 89.6319 21.166 89.1182C21.166 88.6043 20.957 88.1004 20.5938 87.7354C20.2305 87.3721 19.7266 87.1651 19.2129 87.1651Z"/>
</g>
<defs>
<clipPath id="clip0_1:7158">
<rect width="100" height="100" fill="white"/>
</clipPath>
</defs>
</svg>
