<svg width="100" height="100" viewBox="0 0 100 100" xmlns="http://www.w3.org/2000/svg">
<g clip-path="url(#clip0_1:7161)">
<path d="M62.2295 49.5121H46.5836C46.2026 45.1444 44.1034 41.9501 41.923 38.6323L41.9053 38.6052C39.508 34.9623 37 31.1478 37 25.4121C37 20.6009 38.9486 16.2492 42.099 13.099C45.2492 9.9488 49.601 7.99997 54.4066 7.99997C59.2178 7.99997 63.5695 9.9488 66.7197 13.099C69.8699 16.2492 71.8186 20.6009 71.8186 25.4121C71.8186 31.1476 69.3105 34.9623 66.9135 38.6052C64.7211 41.9328 62.6172 45.1328 62.2295 49.5121Z" fill="currentColor"/>
<path d="M52.0002 28.6799C50.7877 25.1531 49.3096 20.6963 49.3096 17.4963C49.3096 15.5145 49.985 14.0971 52.0002 14.0969C54.0156 14.0969 54.6965 15.5143 54.6965 17.4963C54.6965 20.6963 53.2182 25.1531 52.0002 28.6799Z" fill="white"/>
<path d="M13.9355 38.0219C14.4504 36.8316 15.0207 35.6799 15.6352 34.5726C16.4158 33.1553 17.274 31.81 18.1984 30.531C18.6691 29.8777 19.5881 29.7338 20.2414 30.2045C20.8947 30.6805 21.0387 31.5941 20.5682 32.2473C19.6934 33.4543 18.9018 34.7 18.1875 35.99C17.8168 36.6543 17.4678 37.3353 17.1412 38.0219H22.4783C23.2922 38.0219 23.9455 38.6752 23.9455 39.4834V46.4205V52.3057C23.9455 53.6621 23.6521 54.9521 23.1262 56.1203C24.6654 56.7625 25.9777 57.5818 26.9797 58.5287C28.4191 59.8795 29.2441 61.5018 29.2441 63.2623V70.4098C29.2441 71.2181 28.5852 71.8769 27.7768 71.8769H18.6803C19.1619 72.7018 19.6768 73.5101 20.2193 74.2908C21.2326 75.7469 22.3396 77.1144 23.5355 78.3822C24.0893 78.9689 24.0615 79.8935 23.4691 80.4473C22.8822 81.001 21.9578 80.973 21.4041 80.3863C20.1031 78.9967 18.9018 77.5183 17.8166 75.9627C16.9086 74.656 16.0781 73.2941 15.3305 71.8767H1.46719C0.658984 71.8767 0 71.218 0 70.4096V63.2621C0 61.5127 0.813867 59.907 2.23125 58.5562C3.23887 57.5984 4.56758 56.768 6.11777 56.1201C5.5918 54.9519 5.29844 53.6619 5.29844 52.3055V46.4203V43.8848C5.29844 42.2682 5.95723 40.801 7.02031 39.7381C8.0832 38.6807 9.55059 38.0217 11.1617 38.0217L13.9355 38.0219ZM91.7729 50.0969L84.0439 47.4781L78.9891 49.9584V52.3059C78.9891 54.0609 79.709 55.6609 80.8658 56.8182C82.023 57.9752 83.623 58.6949 85.3781 58.6949C87.1389 58.6949 88.7332 57.9752 89.8959 56.8182C91.0531 55.6611 91.7729 54.0609 91.7729 52.3059V50.0969ZM78.9891 46.7086L83.2189 44.6379C83.5676 44.433 83.9996 44.3777 84.4146 44.516L91.7729 47.0074V43.885C91.7729 43.0766 91.4459 42.3459 90.909 41.8143C90.3773 41.2773 89.6467 40.9506 88.8383 40.9506H81.9176C81.1148 40.9506 80.384 41.2771 79.8469 41.8143C79.3154 42.3457 78.9887 43.0766 78.9887 43.885L78.9891 46.7086ZM8.22715 44.9535H21.0164V40.9508H11.1615C10.3588 40.9508 9.62246 41.2773 9.09082 41.8144C8.55937 42.3459 8.22695 43.0768 8.22695 43.8852L8.22715 44.9535ZM21.0164 47.8822H8.22715V52.3059C8.22715 54.0609 8.94707 55.6609 10.1098 56.8182C11.267 57.9752 12.867 58.6949 14.6221 58.6949C16.377 58.6949 17.9771 57.9752 19.1342 56.8182C20.2969 55.6611 21.0166 54.0609 21.0166 52.3059L21.0164 47.8822ZM56.3945 76.8545C54.3018 77.159 50.8912 77.1258 48.0623 74.6289C47.0713 75.2047 45.5043 75.8469 43.6055 75.692V79.2408C43.6055 80.9959 44.3254 82.5959 45.4879 83.7586C46.6451 84.9156 48.2449 85.6353 50 85.6353C51.7605 85.6353 53.3551 84.9156 54.5178 83.7586C55.6748 82.5959 56.3945 80.9959 56.3945 79.2408V76.8545ZM43.6055 72.7574C45.7371 73.0564 47.2375 71.6611 47.2375 71.6557L47.243 71.6611L47.2762 71.6279C47.8852 71.1019 48.8041 71.1684 49.3357 71.7775C51.6277 74.4129 54.8057 74.2189 56.3947 73.909V70.8197C56.3947 70.017 56.0625 69.2807 55.5311 68.749C54.9994 68.2176 54.2688 67.8853 53.4604 67.8853H46.5396C45.7371 67.8853 45.0006 68.2176 44.4689 68.749C43.9375 69.2807 43.6053 70.017 43.6053 70.8197L43.6055 72.7574ZM21.476 58.6064C19.7098 60.5275 17.2352 61.6293 14.6219 61.6293C12.0086 61.6293 9.53379 60.5275 7.76758 58.6119C6.31152 59.1545 5.10449 59.8576 4.24648 60.6715C3.41055 61.4687 2.92871 62.3545 2.92871 63.2625V68.9484H26.315V63.2625C26.315 62.349 25.8277 61.4576 24.9752 60.6549C24.117 59.8465 22.9209 59.149 21.476 58.6064ZM94.7016 52.3059C94.7016 53.6623 94.4082 54.9523 93.8822 56.1205C95.4326 56.7682 96.7557 57.5986 97.7633 58.551C99.1861 59.9019 100 61.5074 100 63.2625V70.41C100 71.2183 99.3467 71.8771 98.5385 71.8771H84.6195C83.8666 73.2445 83.0195 74.5844 82.0949 75.8855C80.9932 77.4303 79.7863 78.9029 78.4852 80.2871C77.9314 80.874 77.0068 80.9017 76.4201 80.348C75.8332 79.7943 75.8055 78.8699 76.3537 78.283C77.5715 76.9932 78.6955 75.6201 79.7143 74.1916C80.2512 73.4387 80.7605 72.6691 81.2422 71.8773H72.2232C71.4148 71.8773 70.7561 71.2185 70.7561 70.4101V63.2627C70.7561 61.5021 71.5809 59.891 73.0146 58.5348C74.0168 57.5879 75.3346 56.7631 76.8793 56.1209C76.3477 54.9527 76.0543 53.6627 76.0543 52.3062V43.8853C76.0543 42.2687 76.7186 40.8016 77.776 39.7387C78.8389 38.6812 80.3061 38.0223 81.9172 38.0223H82.875C82.5594 37.3469 82.2162 36.6824 81.8508 36.0291C81.1254 34.7225 80.3117 33.449 79.4203 32.231C78.9441 31.5777 79.0828 30.6642 79.7359 30.1883C80.3836 29.7121 81.2971 29.8504 81.7789 30.5037C82.7311 31.8103 83.6115 33.1834 84.4031 34.6117C85.0176 35.7135 85.577 36.8539 86.0809 38.0221H88.8379C90.4543 38.0221 91.9219 38.681 92.9848 39.7385C94.0422 40.8014 94.701 42.2686 94.701 43.8852L94.7016 52.3059ZM92.2322 58.6119C90.466 60.5275 87.9967 61.6293 85.3779 61.6293C82.7646 61.6293 80.2955 60.5275 78.5238 58.6119C77.0789 59.149 75.8773 59.8521 75.0193 60.6603C74.1721 61.4631 73.6904 62.3545 73.6904 63.2625V68.9484H97.0711V63.2625C97.0711 62.3545 96.5893 61.4687 95.7478 60.6715C94.8953 59.8576 93.6885 59.1545 92.2322 58.6119ZM59.3234 79.2406C59.3234 80.5971 59.0301 81.8926 58.5041 83.0553C60.0543 83.7086 61.3775 84.5334 62.3852 85.4912C62.9332 86.0117 63.3928 86.5709 63.7473 87.1633C64.9209 86.665 66.0615 86.1059 67.1742 85.4857C68.7133 84.6275 70.1973 83.6476 71.6143 82.568C72.2566 82.0752 73.1701 82.1971 73.6627 82.8392C74.15 83.4814 74.0281 84.4006 73.3859 84.8877C71.8689 86.0449 70.2689 87.1023 68.5914 88.0379C67.3016 88.7576 65.9727 89.4055 64.6162 89.9646C64.6217 90.042 64.6217 90.1252 64.6217 90.2027V97.3502C64.6217 98.1586 63.9682 98.8117 63.1602 98.8117H36.8453C36.0369 98.8117 35.3781 98.1584 35.3781 97.3502V90.2027C35.3781 90.1252 35.3836 90.0477 35.3836 89.9703C33.9883 89.4 32.632 88.7578 31.3199 88.0435C29.6479 87.1355 28.0533 86.1059 26.5363 84.9709C25.8887 84.4892 25.7613 83.5758 26.243 82.9279C26.7248 82.2855 27.6438 82.1527 28.2859 82.64C29.6867 83.6863 31.1648 84.6332 32.715 85.4803C33.8557 86.1059 35.035 86.665 36.2475 87.1689C36.6018 86.5822 37.0559 86.0285 37.5982 85.508C38.6059 84.5447 39.9346 83.7142 41.5016 83.0609C40.9697 81.8928 40.6764 80.6027 40.6764 79.2408V70.8199C40.6764 69.2088 41.3352 67.7418 42.3982 66.6787C43.4613 65.6158 44.9285 64.957 46.5395 64.957H53.4602C55.0768 64.957 56.5439 65.6158 57.6014 66.6787C58.6645 67.7418 59.3232 69.2088 59.3232 70.8199L59.3234 79.2406ZM56.8541 85.5467C55.0881 87.4678 52.6133 88.5641 50 88.5641C47.3869 88.5641 44.9119 87.4678 43.1459 85.5467C41.6844 86.0892 40.4771 86.8035 39.6135 87.6228C38.783 88.4144 38.307 89.3004 38.307 90.2029V95.8832H61.693V90.2029C61.693 89.2949 61.2113 88.4035 60.3754 87.6119C59.5172 86.7978 58.3103 86.0891 56.8541 85.5467ZM24.7426 27.4363C24.1611 27.9955 23.2365 27.9789 22.6775 27.3975C22.1184 26.8162 22.135 25.8916 22.7162 25.3324C23.8789 24.2141 25.0971 23.1732 26.376 22.2154C27.4334 21.4238 28.5518 20.6764 29.7199 19.9787C30.0965 14.9793 32.2777 10.4838 35.6219 7.14511C39.2979 3.46347 44.3861 1.18808 50 1.18808C55.6195 1.18808 60.7022 3.46347 64.384 7.14511C67.7 10.4613 69.876 14.9238 70.2746 19.8789C71.4205 20.582 72.5279 21.3461 73.5908 22.1543C74.8699 23.1287 76.099 24.1861 77.2617 25.3211C77.8432 25.8803 77.8541 26.8049 77.2949 27.3861C76.7301 27.9619 75.8057 27.973 75.2299 27.4139C74.1502 26.3674 73.0096 25.3875 71.8191 24.4795C71.31 24.0863 70.7896 23.7154 70.2689 23.3557C69.815 28.9197 67.3291 32.7012 64.9428 36.3221C62.7836 39.6051 60.7131 42.7498 60.6799 46.9742L60.6854 53.7451C60.6854 55.6939 59.8881 57.4602 58.6037 58.7445C57.3244 60.0234 55.5529 60.8207 53.6098 60.8207H46.3959C44.4469 60.8207 42.6754 60.0234 41.3961 58.7445C40.1172 57.46 39.3201 55.6939 39.3201 53.7451L39.3254 46.9742C39.2867 42.75 37.2217 39.6051 35.0625 36.3221C32.6818 32.7123 30.207 28.9531 29.742 23.4223C29.1939 23.7877 28.6568 24.1697 28.1309 24.5627C26.924 25.46 25.7945 26.4232 24.7426 27.4363ZM42.2488 51.5254H57.751V48.5578H42.2488V51.5254ZM57.69 54.4541H42.31C42.4596 55.3121 42.8746 56.0818 43.467 56.6742C44.2199 57.4271 45.2553 57.8922 46.3959 57.8922H53.6098C54.7447 57.8922 55.7799 57.4271 56.533 56.6742C57.1254 56.0818 57.5404 55.3121 57.69 54.4541ZM48.5881 32.7016C48.35 31.8268 47.9348 30.6309 47.4643 29.2633C46.141 25.4377 44.3805 20.3441 44.3805 16.4963C44.3805 12.8035 45.7924 10.1682 49.9998 10.1682C54.2072 10.1682 55.6248 12.8035 55.6248 16.4963C55.6248 20.3441 53.8643 25.4377 52.541 29.2633C52.0648 30.6363 51.6498 31.8434 51.4061 32.7182C51.1957 33.4988 50.3928 33.9527 49.6178 33.7424C49.0922 33.5982 48.7156 33.1887 48.5881 32.7016ZM47.3094 16.4963C47.3094 19.6963 48.7875 24.1531 50 27.6799C51.218 24.1531 52.6963 19.6963 52.6963 16.4963C52.6963 14.5143 52.0154 13.0969 50 13.0969C47.9848 13.0971 47.3094 14.5144 47.3094 16.4963ZM48.5385 37.8725C48.5385 37.0641 49.1918 36.4109 50 36.4109C50.8082 36.4109 51.4672 37.0643 51.4672 37.8725V39.3949C51.4672 40.2033 50.8084 40.8566 50 40.8566C49.1916 40.8566 48.5385 40.2033 48.5385 39.3949V37.8725ZM42.177 45.6291H57.8229C58.2105 41.2498 60.3145 38.0498 62.5068 34.7223C64.9039 31.0793 67.4119 27.2646 67.4119 21.5291C67.4119 16.718 65.4633 12.3662 62.3131 9.21601C59.1629 6.06581 54.8111 4.11699 50 4.11699C45.1943 4.11699 40.8426 6.06581 37.6924 9.21601C34.542 12.3662 32.5934 16.718 32.5934 21.5291C32.5934 27.2648 35.1014 31.0793 37.4986 34.7223C39.6853 38.0498 41.7949 41.2496 42.177 45.6291Z"/>
<path d="M15.3902 20.0159H5.67044C4.77533 20.0159 4.04785 19.288 4.04785 18.3925C4.04785 17.4969 4.77533 16.769 5.67044 16.769H15.3902C16.2853 16.769 17.0127 17.4969 17.0127 18.3925C17.0127 19.288 16.2853 20.0159 15.3902 20.0159Z" fill="currentColor"/>
<path d="M10.5288 24.8766C9.63373 24.8766 8.90625 24.1488 8.90625 23.2532V13.5285C8.90625 12.633 9.63373 11.9051 10.5288 11.9051C11.4239 11.9051 12.1514 12.633 12.1514 13.5285V23.2532C12.1514 24.1488 11.4239 24.8766 10.5288 24.8766Z" fill="currentColor"/>
<path d="M90.3902 92.0159H80.6704C79.7753 92.0159 79.0479 91.288 79.0479 90.3925C79.0479 89.4969 79.7753 88.769 80.6704 88.769H90.3902C91.2853 88.769 92.0127 89.4969 92.0127 90.3925C92.0127 91.288 91.2853 92.0159 90.3902 92.0159Z" fill="currentColor"/>
<path d="M85.5288 96.8766C84.6337 96.8766 83.9062 96.1488 83.9062 95.2532V85.5285C83.9062 84.633 84.6337 83.9051 85.5288 83.9051C86.4239 83.9051 87.1514 84.633 87.1514 85.5285V95.2532C87.1514 96.1488 86.4239 96.8766 85.5288 96.8766Z" fill="currentColor"/>
</g>
<defs>
<clipPath id="clip0_1:7161">
<rect width="100" height="100" fill="white"/>
</clipPath>
</defs>
</svg>
