<svg width="99" height="100" viewBox="0 0 99 100" xmlns="http://www.w3.org/2000/svg">
<path d="M98.753 14.5538L86.7496 26.5601H76.7041V16.5095L88.7043 4.5V14.5538H98.753Z" fill="currentColor"/>
<path d="M76.7198 26.5601L76.704 26.576V26.5601H76.7198Z" fill="currentColor"/>
<path d="M76.7041 26.5443V26.5601H76.6883L76.7041 26.5443Z" fill="currentColor"/>
<path fill-rule="evenodd" clip-rule="evenodd" d="M19.436 58.6804C19.436 44.0538 31.3287 32.1551 45.9478 32.1551C60.5637 32.1551 72.4532 44.0538 72.4564 58.6804C72.4564 73.3038 60.5637 85.2025 45.9478 85.2025C31.3287 85.2025 19.436 73.3038 19.436 58.6804ZM33.0367 58.6804C33.0367 65.8165 38.8185 71.5949 45.9478 71.5949C53.0771 71.5949 58.8557 65.8133 58.8557 58.6804C58.8557 51.5475 53.0771 45.7627 45.9478 45.7627C38.8185 45.7627 33.0367 51.5443 33.0367 58.6804Z" fill="currentColor"/>
<path d="M11.3897 18.0158H1.66995C0.774839 18.0158 0.0473633 17.288 0.0473633 16.3924C0.0473633 15.4968 0.774839 14.769 1.66995 14.769H11.3897C12.2848 14.769 13.0123 15.4968 13.0123 16.3924C13.0123 17.288 12.2848 18.0158 11.3897 18.0158Z" fill="currentColor"/>
<path d="M6.52835 22.8766C5.63324 22.8766 4.90576 22.1487 4.90576 21.2532V11.5285C4.90576 10.6329 5.63324 9.90506 6.52835 9.90506C7.42346 9.90506 8.15094 10.6329 8.15094 11.5285V21.2532C8.15094 22.1487 7.42346 22.8766 6.52835 22.8766Z" fill="currentColor"/>
<path d="M92.3702 92.462H77.6973C76.8022 92.462 76.0747 91.7342 76.0747 90.8386C76.0747 89.943 76.8022 89.2152 77.6973 89.2152H92.3702C93.2653 89.2152 93.9928 89.943 93.9928 90.8386C93.9928 91.7342 93.2684 92.462 92.3702 92.462Z"/>
<path d="M85.0352 99.8038C84.1401 99.8038 83.4126 99.076 83.4126 98.1804V83.5C83.4126 82.6044 84.1401 81.8766 85.0352 81.8766C85.9303 81.8766 86.6578 82.6044 86.6578 83.5V98.1804C86.6578 99.076 85.9303 99.8038 85.0352 99.8038Z"/>
<path fill-rule="evenodd" clip-rule="evenodd" d="M0.714844 55.1772C0.714844 78.1994 19.4363 96.9304 42.4467 96.9304C65.457 96.9304 84.1785 78.1994 84.1785 55.1772C84.1785 32.1551 65.457 13.424 42.4467 13.424C19.4363 13.424 0.714844 32.1551 0.714844 55.1772ZM3.96002 55.1772C3.96002 33.943 21.2265 16.6709 42.4467 16.6709C63.6668 16.6709 80.9301 33.9462 80.9333 55.1772C80.9333 76.4114 63.6668 93.6835 42.4467 93.6835C21.2233 93.6835 3.96002 76.4082 3.96002 55.1772Z"/>
<path fill-rule="evenodd" clip-rule="evenodd" d="M14.3154 55.1772C14.3154 70.6962 26.9356 83.3228 42.4466 83.3228C57.9577 83.3228 70.5778 70.6962 70.5778 55.1772C70.5778 39.6582 57.9577 27.0316 42.4466 27.0316C26.9356 27.0316 14.3154 39.6582 14.3154 55.1772ZM17.5606 55.1772C17.5606 41.4494 28.7258 30.2785 42.4466 30.2785C56.1674 30.2785 67.3326 41.4494 67.3326 55.1772C67.3326 68.9051 56.1674 80.076 42.4466 80.076C28.7258 80.076 17.5606 68.9051 17.5606 55.1772Z"/>
<path fill-rule="evenodd" clip-rule="evenodd" d="M27.9131 55.1804C27.9131 63.1962 34.4351 69.7183 42.4468 69.7183C50.4585 69.7183 56.9773 63.193 56.9805 55.1804C56.9805 47.1614 50.4617 40.6392 42.4468 40.6392C34.4319 40.6392 27.9131 47.1645 27.9131 55.1804ZM31.1583 55.1772C31.1583 48.9493 36.2221 43.8829 42.4468 43.8829C48.6683 43.8829 53.7322 48.9493 53.7353 55.1772C53.7353 61.405 48.6715 66.4715 42.4468 66.4715C36.2221 66.4715 31.1583 61.405 31.1583 55.1772Z"/>
<path d="M42.4468 56.8006C42.0325 56.8006 41.615 56.6424 41.2987 56.3259C40.6661 55.693 40.6661 54.6645 41.2987 54.0316L75.9898 19.3228C76.6224 18.6899 77.6503 18.6899 78.2829 19.3228C78.9155 19.9557 78.9155 20.9842 78.2829 21.6171L43.595 56.3259C43.2755 56.6424 42.8612 56.8006 42.4468 56.8006Z"/>
<path fill-rule="evenodd" clip-rule="evenodd" d="M73.8704 25.3608H83.9317C84.3619 25.3608 84.7731 25.1899 85.0799 24.8861L97.0832 12.8766C97.5482 12.4114 97.6842 11.7152 97.4343 11.1076C97.1845 10.5 96.5898 10.1044 95.9351 10.1044H85.8864C85.4563 10.1044 85.0419 10.2753 84.7383 10.5791L72.7223 22.5886C72.2605 23.0538 72.1213 23.75 72.3712 24.3576C72.6211 24.9652 73.2125 25.3608 73.8704 25.3608ZM83.2612 22.1139H77.7893L86.557 13.3513H92.0194L83.2612 22.1139Z"/>
<path fill-rule="evenodd" clip-rule="evenodd" d="M73.2473 25.2373C73.4465 25.3196 73.6585 25.3608 73.8672 25.3608C74.2911 25.3608 74.7054 25.1962 75.0154 24.8861L87.0187 12.8639C87.3224 12.557 87.4932 12.1456 87.4932 11.7152V1.66139C87.4932 1.00316 87.0978 0.411387 86.4905 0.161387C85.8832 -0.0917781 85.1874 0.0474625 84.7224 0.512652L72.7191 12.5221C72.4154 12.8259 72.2446 13.2405 72.2446 13.6709V23.7373C72.2446 24.3956 72.64 24.9873 73.2473 25.2373ZM75.4898 19.8165V14.3418L84.248 5.58227V11.0443L75.4898 19.8165Z"/>
</svg>
