<svg width="99" height="100" viewBox="0 0 99 100" xmlns="http://www.w3.org/2000/svg">
<path d="M49.8672 72.4815H61.0616V81.2068H71.6388L49.8672 99.8179L28.0986 81.2068H38.6758V72.4815H49.8672Z" fill="currentColor"/>
<path d="M24.0706 95.2994H14.7249C13.8505 95.2994 13.1416 94.5905 13.1416 93.7161C13.1416 92.8416 13.8505 92.1328 14.7249 92.1328H24.0706C24.9451 92.1328 25.6539 92.8416 25.6539 93.7161C25.6539 94.5905 24.9451 95.2994 24.0706 95.2994Z" fill="currentColor"/>
<path d="M19.3978 99.9722C18.5233 99.9722 17.8145 99.2634 17.8145 98.3889V89.0432C17.8145 88.1688 18.5233 87.4599 19.3978 87.4599C20.2722 87.4599 20.9811 88.1688 20.9811 89.0432V98.3889C20.9811 98.8088 20.8143 99.2116 20.5174 99.5085C20.2204 99.8054 19.8177 99.9722 19.3978 99.9722Z" fill="currentColor"/>
<path d="M84.8857 10.4013H70.7777C69.9032 10.4013 69.1943 9.6924 69.1943 8.81795C69.1943 7.9435 69.9032 7.23462 70.7777 7.23462H84.8857C85.7601 7.23462 86.469 7.9435 86.469 8.81795C86.469 9.6924 85.7601 10.4013 84.8857 10.4013Z"/>
<path d="M77.8333 17.4568C76.9589 17.4568 76.25 16.7479 76.25 15.8735V1.76546C76.25 0.891011 76.9589 0.182129 77.8333 0.182129C78.7078 0.182129 79.4167 0.891011 79.4167 1.76546V15.8735C79.4167 16.7479 78.7078 17.4568 77.8333 17.4568Z"/>
<path fill-rule="evenodd" clip-rule="evenodd" d="M44.4006 96.3241C44.6533 96.5428 44.9769 96.6623 45.3111 96.6605C45.6492 96.6662 45.9776 96.5476 46.2339 96.3272L68.0055 77.7161C68.4538 77.3353 68.6165 76.7151 68.413 76.1634C68.2096 75.6116 67.6832 75.2455 67.0951 75.2469H57.9191V67.9228C57.9191 67.149 57.2918 66.5216 56.5179 66.5216H34.1352C33.3613 66.5216 32.7339 67.149 32.7339 67.9228V75.2438H23.5549C22.964 75.2359 22.4316 75.5996 22.2241 76.1529C22.0165 76.7063 22.1785 77.3304 22.629 77.713L44.4006 96.3241ZM45.3111 93.4167L27.3358 78.0494H34.129C34.5006 78.0494 34.857 77.9018 35.1198 77.639C35.3826 77.3762 35.5302 77.0198 35.5302 76.6481V69.3241H55.1167V76.6481C55.1167 77.0198 55.2643 77.3762 55.5271 77.639C55.7898 77.9018 56.1463 78.0494 56.5179 78.0494H63.2864L45.3111 93.4167Z"/>
<path d="M75.8947 84.4537H59.8021C58.9276 84.4537 58.2188 83.7448 58.2188 82.8704C58.2188 81.9959 58.9276 81.2871 59.8021 81.2871H74.3083V23.9568C74.3083 23.0824 75.0171 22.3735 75.8916 22.3735C76.766 22.3735 77.4749 23.0824 77.4749 23.9568V82.8704C77.4749 83.7436 76.7679 84.452 75.8947 84.4537Z"/>
<path d="M30.8175 84.4537H14.7249C13.8505 84.4537 13.1416 83.7448 13.1416 82.8704V10.7562C13.1416 9.88173 13.8505 9.17285 14.7249 9.17285H62.691C63.5671 9.17285 64.2774 9.88312 64.2774 10.7593C64.2774 11.6354 63.5671 12.3457 62.691 12.3457H16.3083V81.287H30.8144C31.6889 81.287 32.3978 81.9959 32.3978 82.8704C32.3978 83.7448 31.6889 84.4537 30.8144 84.4537H30.8175Z"/>
<path d="M65.3143 35.6513H25.305C24.4306 35.6513 23.7217 34.9424 23.7217 34.068C23.7217 33.1935 24.4306 32.4846 25.305 32.4846H65.3143C66.1887 32.4846 66.8976 33.1935 66.8976 34.068C66.8976 34.9424 66.1887 35.6513 65.3143 35.6513Z"/>
<path d="M65.3143 46.9352H25.305C24.4306 46.9352 23.7217 46.2263 23.7217 45.3519C23.7217 44.4774 24.4306 43.7686 25.305 43.7686H65.3143C66.1887 43.7686 66.8976 44.4774 66.8976 45.3519C66.8976 46.2263 66.1887 46.9352 65.3143 46.9352Z"/>
<path d="M65.3143 58.2223H25.305C24.4306 58.2223 23.7217 57.5134 23.7217 56.6389C23.7217 55.7645 24.4306 55.0556 25.305 55.0556H65.3143C66.1887 55.0556 66.8976 55.7645 66.8976 56.6389C66.8976 57.5134 66.1887 58.2223 65.3143 58.2223Z"/>
<path fill-rule="evenodd" clip-rule="evenodd" d="M62.6908 25.5402H75.8945V25.5433C76.5353 25.5439 77.1134 25.1581 77.3588 24.566C77.6041 23.974 77.4683 23.2924 77.0148 22.8395L63.8111 9.63584C63.3583 9.18235 62.6767 9.04658 62.0846 9.29192C61.4926 9.53727 61.1068 10.1153 61.1074 10.7562V23.9568C61.1074 24.8313 61.8163 25.5402 62.6908 25.5402ZM72.0704 22.3735H64.2772V14.5803L72.0704 22.3735Z"/>
</svg>
