<svg width="100" height="100" viewBox="0 0 100 100"  xmlns="http://www.w3.org/2000/svg">
<path d="M1.96094 15.7013C1.96094 14.6074 2.84768 13.7207 3.94153 13.7207L98.0195 13.7207C99.1134 13.7207 100 14.6075 100 15.7013C100 16.7952 99.1134 17.6819 98.0195 17.6819L3.94153 17.6819C2.84768 17.6819 1.96094 16.7951 1.96094 15.7013Z" fill="currentColor"/>
<path d="M3.94153 27.8819C2.84768 27.8819 1.96094 28.7687 1.96094 29.8625C1.96094 30.9564 2.84768 31.8431 3.94153 31.8431L98.0195 31.8431C99.1134 31.8431 100 30.9564 100 29.8625C100 28.7687 99.1134 27.8819 98.0195 27.8819L3.94153 27.8819Z" fill="currentColor"/>
<path d="M1.96094 44.0238C1.96094 42.9299 2.84768 42.0432 3.94153 42.0432L98.0195 42.0432C99.1134 42.0432 100 42.9299 100 44.0238C100 45.1176 99.1134 46.0043 98.0195 46.0043L3.94153 46.0044C2.84768 46.0044 1.96094 45.1176 1.96094 44.0238Z" fill="currentColor"/>
<path d="M3.94153 56.2043C2.84768 56.2043 1.96094 57.091 1.96094 58.1849C1.96094 59.2787 2.84768 60.1655 3.94153 60.1655L98.0196 60.1655C99.1134 60.1655 100 59.2787 100 58.1849C100 57.091 99.1134 56.2043 98.0196 56.2043L3.94153 56.2043Z" fill="currentColor"/>
<path d="M1.96094 72.3461C1.96094 71.2523 2.84768 70.3655 3.94153 70.3655L98.0196 70.3655C99.1134 70.3655 100 71.2523 100 72.3461C100 73.44 99.1134 74.3267 98.0196 74.3267L3.94153 74.3267C2.84768 74.3267 1.96094 73.44 1.96094 72.3461Z" fill="currentColor"/>
<path d="M1.96094 86.5073C1.96094 85.4135 2.84768 84.5268 3.94153 84.5268L98.0196 84.5268C99.1134 84.5268 100 85.4135 100 86.5074C100 87.6012 99.1134 88.4879 98.0196 88.4879L3.94153 88.4879C2.84768 88.4879 1.96094 87.6012 1.96094 86.5073Z" fill="currentColor"/>
<path d="M0 13.9926C0 12.8987 0.886741 12.012 1.98059 12.012L96.0586 12.012C97.1525 12.012 98.0392 12.8987 98.0392 13.9926C98.0392 15.0864 97.1525 15.9732 96.0586 15.9732L1.98059 15.9731C0.886741 15.9731 0 15.0864 0 13.9926Z"/>
<path d="M1.98059 26.1732C0.886741 26.1732 0 27.0599 0 28.1538C0 29.2476 0.886741 30.1344 1.98059 30.1344L96.0586 30.1344C97.1525 30.1344 98.0392 29.2477 98.0392 28.1538C98.0392 27.0599 97.1525 26.1732 96.0586 26.1732L1.98059 26.1732Z"/>
<path d="M0 42.315C0 41.2212 0.886741 40.3344 1.98059 40.3344L96.0586 40.3344C97.1525 40.3344 98.0392 41.2212 98.0392 42.315C98.0392 43.4089 97.1525 44.2956 96.0586 44.2956L1.98059 44.2956C0.886741 44.2956 0 43.4089 0 42.315Z"/>
<path d="M1.98059 54.4955C0.886741 54.4955 0 55.3823 0 56.4761C0 57.57 0.88674 58.4567 1.98059 58.4567L96.0586 58.4567C97.1525 58.4567 98.0392 57.57 98.0392 56.4761C98.0392 55.3823 97.1525 54.4955 96.0586 54.4955L1.98059 54.4955Z"/>
<path d="M0 70.6374C0 69.5435 0.886741 68.6568 1.98059 68.6568L96.0586 68.6568C97.1525 68.6568 98.0392 69.5435 98.0392 70.6374C98.0392 71.7312 97.1525 72.618 96.0586 72.618L1.98059 72.618C0.88674 72.618 0 71.7312 0 70.6374Z"/>
<path d="M0 84.7986C0 83.7048 0.886741 82.818 1.98059 82.818L96.0586 82.818C97.1525 82.818 98.0392 83.7048 98.0392 84.7986C98.0392 85.8925 97.1525 86.7792 96.0586 86.7792L1.98059 86.7792C0.88674 86.7792 0 85.8925 0 84.7986Z"/>
</svg>
