<svg width="100" height="100" viewBox="0 0 100 100"  xmlns="http://www.w3.org/2000/svg">
<path d="M15 24C13.8954 24 13 24.8954 13 26V28C13 29.1046 13.8954 30 15 30H27C28.1046 30 29 29.1046 29 28V26C29 24.8954 28.1046 24 27 24H15Z" fill="currentColor"/>
<path fill-rule="evenodd" clip-rule="evenodd" d="M7 42.3288C7 39.9381 8.93806 38 11.3288 38H94.6712C97.0619 38 99 39.9381 99 42.3288V74.6712C99 77.0619 97.0619 79 94.6712 79H11.3288C8.93805 79 7 77.0619 7 74.6712V42.3288ZM16.3355 50.3523C16.3355 51.4976 15.407 52.4261 14.2617 52.4261C13.1164 52.4261 12.1879 51.4976 12.1879 50.3523C12.1879 49.207 13.1164 48.2786 14.2617 48.2786C15.407 48.2786 16.3355 49.207 16.3355 50.3523ZM15.4223 56.4858L8.57445 63.2946C8.47395 63.3945 8.41657 63.5309 8.42012 63.6726C8.45635 65.1151 8.87113 65.9998 10.3951 65.9998H32.1715C33.7284 65.9998 34.9122 63.9261 34.9122 62.9835V59.6195C34.9122 59.4798 34.8572 59.3457 34.7593 59.2461L27.3371 51.7033C27.1201 51.4828 26.7615 51.493 26.5574 51.7256L19.9288 59.281C19.7297 59.508 19.3818 59.5241 19.1625 59.3165L16.1637 56.4767C15.9548 56.2788 15.6264 56.2828 15.4223 56.4858Z" fill="currentColor"/>
<path d="M13 22C11.8954 22 11 22.8954 11 24V26C11 27.1046 11.8954 28 13 28H25C26.1046 28 27 27.1046 27 26V24C27 22.8954 26.1046 22 25 22H13Z"/>
<path fill-rule="evenodd" clip-rule="evenodd" d="M31 24C31 22.8954 31.8954 22 33 22H45C46.1046 22 47 22.8954 47 24V26C47 27.1046 46.1046 28 45 28H33C31.8954 28 31 27.1046 31 26V24ZM33 24H45V26H33V24Z"/>
<path fill-rule="evenodd" clip-rule="evenodd" d="M51 24C51 22.8954 51.8954 22 53 22H65C66.1046 22 67 22.8954 67 24V26C67 27.1046 66.1046 28 65 28H53C51.8954 28 51 27.1046 51 26V24ZM53 24H65V26H53V24Z"/>
<path fill-rule="evenodd" clip-rule="evenodd" d="M71 24C71 22.8954 71.8954 22 73 22H85C86.1046 22 87 22.8954 87 24V26C87 27.1046 86.1046 28 85 28H73C71.8954 28 71 27.1046 71 26V24ZM73 24H85V26H73V24Z"/>
<path d="M40 41C38.8954 41 38 41.8954 38 43C38 44.1046 38.8954 45 40 45H87C88.1046 45 89 44.1046 89 43C89 41.8954 88.1046 41 87 41H40Z"/>
<path d="M39 50C38.4477 50 38 50.4477 38 51C38 51.5523 38.4477 52 39 52H88C88.5523 52 89 51.5523 89 51C89 50.4477 88.5523 50 88 50H39Z"/>
<path d="M38 58C38 57.4477 38.4477 57 39 57H88C88.5523 57 89 57.4477 89 58C89 58.5523 88.5523 59 88 59H39C38.4477 59 38 58.5523 38 58Z"/>
<path d="M39 64C38.4477 64 38 64.4477 38 65C38 65.5523 38.4477 66 39 66H63C63.5523 66 64 65.5523 64 65C64 64.4477 63.5523 64 63 64H39Z"/>
<path fill-rule="evenodd" clip-rule="evenodd" d="M10.4298 49.4098C10.4298 47.8141 11.7234 46.5205 13.3191 46.5205C14.9148 46.5205 16.2084 47.8141 16.2084 49.4098C16.2084 51.0056 14.9148 52.2992 13.3191 52.2992C11.7234 52.2992 10.4298 51.0056 10.4298 49.4098ZM13.3191 48.3995C12.7611 48.3995 12.3088 48.8518 12.3088 49.4098C12.3088 49.9678 12.7611 50.4201 13.3191 50.4201C13.8771 50.4201 14.3294 49.9678 14.3294 49.4098C14.3294 48.8518 13.8771 48.3995 13.3191 48.3995Z"/>
<path fill-rule="evenodd" clip-rule="evenodd" d="M6.28223 45.7581C6.28223 44.0968 7.62898 42.75 9.29028 42.75H30.9217C32.583 42.75 33.9297 44.0968 33.9297 45.7581V62.1108C33.9297 63.7721 32.583 65.1188 30.9217 65.1188H9.29028C7.62898 65.1188 6.28223 63.7721 6.28223 62.1108V45.7581ZM9.29028 44.629C8.66674 44.629 8.16125 45.1345 8.16125 45.7581V59.8374L13.1098 54.8888C13.746 54.2526 14.7774 54.2526 15.4136 54.8888L17.7906 57.2658L23.411 50.7086C24.047 49.9667 25.1884 49.9477 25.8487 50.668L32.0507 57.4338V45.7581C32.0507 45.1345 31.5452 44.629 30.9217 44.629H9.29028ZM24.6542 52.1456L19.0416 58.6936C18.424 59.4141 17.3238 59.4563 16.6529 58.7853L14.2617 56.3942L8.21135 62.4446C8.35365 62.9052 8.78311 63.2398 9.29028 63.2398H30.9217C31.5452 63.2398 32.0507 62.7343 32.0507 62.1108V60.2146L24.6542 52.1456Z"/>
<path fill-rule="evenodd" clip-rule="evenodd" d="M1 36.3288C1 33.9381 2.93806 32 5.32877 32H91.9041C94.2948 32 96.2329 33.9381 96.2329 36.3288V71.5601C96.2329 73.9508 94.2948 75.8889 91.9041 75.8889H5.32876C2.93805 75.8889 1 73.9508 1 71.5601V36.3288ZM5.32877 35H91.9041C92.638 35 93.2329 35.5949 93.2329 36.3288V71.5601C93.2329 72.294 92.638 72.8889 91.9041 72.8889H5.32876C4.59491 72.8889 4 72.294 4 71.5601V36.3288C4 35.5949 4.59491 35 5.32877 35Z"/>
</svg>
