<svg width="100" height="100" viewBox="0 0 100 100"  xmlns="http://www.w3.org/2000/svg">
<path d="M73.5311 63.0807C78.4301 56.2089 81.3555 47.4746 81.3555 39.7129C81.3555 23.3795 68.7438 10.0889 53.2443 10.0889C37.7448 10.0889 25.1333 23.3795 25.1333 39.7129C25.1333 47.4746 28.0588 56.2089 32.9578 63.0807C37.3898 69.2964 37.0538 76.1882 37.1361 83.1507C37.1464 84.0187 37.8562 84.7111 38.7243 84.7111H46.4734H60.0157H66.6469C67.5148 84.7111 68.2232 84.0191 68.2505 83.1516C68.4691 76.1893 69.0989 69.2993 73.5311 63.0807Z" fill="currentColor"/>
<path d="M16.5858 6.24258C15.8047 5.46153 15.8047 4.1952 16.5858 3.41416C17.3668 2.63311 18.6332 2.63311 19.4142 3.41416L23.6569 7.6568C24.4379 8.43784 24.4379 9.70417 23.6569 10.4852C22.8758 11.2663 21.6095 11.2663 20.8284 10.4852L16.5858 6.24258Z"/>
<path d="M15 36.9999C15 38.1045 14.1046 38.9999 13 38.9999H7C5.89543 38.9999 5 38.1045 5 36.9999C5 35.8954 5.89543 34.9999 7 34.9999H13C14.1046 34.9999 15 35.8954 15 36.9999Z"/>
<path d="M87.1924 38.9999C86.0878 38.9999 85.1924 38.1045 85.1924 36.9999C85.1924 35.8954 86.0878 34.9999 87.1924 34.9999H93.1924C94.297 34.9999 95.1924 35.8954 95.1924 36.9999C95.1924 38.1045 94.297 38.9999 93.1924 38.9999H87.1924Z"/>
<path d="M21.9584 67.6985C22.7395 66.9174 22.7395 65.6511 21.9584 64.87C21.1774 64.089 19.911 64.089 19.13 64.87L14.8873 69.1127C14.1063 69.8937 14.1063 71.16 14.8873 71.9411C15.6684 72.7221 16.9347 72.7221 17.7158 71.9411L21.9584 67.6985Z"/>
<path d="M78.234 67.6985C77.453 66.9174 77.453 65.6511 78.234 64.87C79.0151 64.089 80.2814 64.089 81.0624 64.87L85.3051 69.1127C86.0861 69.8937 86.0861 71.16 85.3051 71.9411C84.524 72.7221 83.2577 72.7221 82.4767 71.9411L78.234 67.6985Z"/>
<path d="M83.6066 3.41416C84.3876 4.1952 84.3876 5.46153 83.6066 6.24258L79.364 10.4852C78.5829 11.2663 77.3166 11.2663 76.5355 10.4852C75.7545 9.70417 75.7545 8.43784 76.5355 7.6568L80.7782 3.41416C81.5592 2.63311 82.8255 2.63311 83.6066 3.41416Z"/>
<path fill-rule="evenodd" clip-rule="evenodd" d="M71.1577 58.8443C76.2348 51.9917 79.2667 43.2817 79.2667 35.5416C79.2667 19.2536 66.1963 5.99994 50.1332 5.99994C34.0701 5.99994 21 19.2536 21 35.5416C21 43.2817 24.0318 51.9917 29.109 58.8443C33.3324 64.5438 33.378 70.8133 33.4243 77.1835C33.4321 78.2583 33.44 79.3363 33.4679 80.4146V94.9999C33.4679 96.6568 34.811 97.9999 36.4679 97.9999H62.64C64.2969 97.9999 65.64 96.6568 65.64 94.9999V80.4146C65.8362 72.9456 66.2215 65.5084 71.1577 58.8443ZM67.9437 56.4631C72.5654 50.2251 75.2667 42.3361 75.2667 35.5416C75.2667 21.4101 63.9349 9.99994 50.1332 9.99994C36.3316 9.99994 25 21.41 25 35.5416C25 42.336 27.7012 50.2249 32.3228 56.4628C37.3906 63.3018 37.4155 71.0386 37.4358 77.3643C37.4371 77.7749 37.4384 78.1796 37.4411 78.5777H44.4124L42.5428 51.0022L38.3347 42.586C37.3374 40.5913 38.7879 38.2444 41.018 38.2444H58.809C60.9859 38.2444 62.4381 40.4903 61.5447 42.4755L57.7267 50.96L55.8543 78.5777H61.6913C61.9202 71.5758 62.6182 63.6528 67.9437 56.4631ZM46.5201 50.5315L48.4215 78.5777H51.8451L53.748 50.5104C53.7721 50.1551 53.8592 49.807 54.0054 49.4822L57.2624 42.2444H42.6361L46.2103 49.3928C46.3879 49.7481 46.4932 50.1351 46.5201 50.5315ZM46.6908 82.6176C46.4994 82.6306 46.3124 82.6161 46.1337 82.5777H37.4679V86.7555H50.6889C51.7935 86.7555 52.6889 87.6509 52.6889 88.7555C52.6889 89.8601 51.7935 90.7555 50.6889 90.7555H37.4679V93.9999H61.64V82.5777H54.1329C53.9543 82.6161 53.7673 82.6306 53.5758 82.6176C53.4785 82.611 53.3832 82.5975 53.2905 82.5777H46.9762C46.8835 82.5975 46.7882 82.611 46.6908 82.6176Z"/>
</svg>
