<svg width="100" height="100" viewBox="0 0 100 100"  xmlns="http://www.w3.org/2000/svg">
<path d="M9 34H99V23C99 19.6863 96.3137 17 93 17H15C11.6863 17 9 19.6863 9 23V34Z" fill="currentColor"/>
<path d="M57 44C55.8954 44 55 44.8954 55 46C55 47.1046 55.8954 48 57 48L83 48C84.1046 48 85 47.1046 85 46C85 44.8954 84.1046 44 83 44L57 44Z"/>
<path d="M55 61C55 59.8954 55.8954 59 57 59L83 59C84.1046 59 85 59.8954 85 61C85 62.1046 84.1046 63 83 63L57 63C55.8954 63 55 62.1046 55 61Z"/>
<path d="M57 74C55.8954 74 55 74.8954 55 76C55 77.1046 55.8954 78 57 78H83C84.1046 78 85 77.1046 85 76C85 74.8954 84.1046 74 83 74L57 74Z"/>
<path fill-rule="evenodd" clip-rule="evenodd" d="M11 11C6.58172 11 3 14.5817 3 19V81C3 85.4183 6.58172 89 11 89H88C92.4183 89 96 85.4183 96 81V19C96 14.5817 92.4183 11 88 11H11ZM88 15H11C8.79086 15 7 16.7909 7 19V28L92 28V19C92 16.7909 90.2091 15 88 15ZM7 81V32L92 32V81C92 83.2091 90.2091 85 88 85H11C8.79086 85 7 83.2091 7 81Z"/>
<path d="M44.7109 43.875V52.9688H39.4609L39.1797 49.1484H32.8984V73.1953L36.5547 73.8984V78H22.3984V73.8984L26.0547 73.1953V49.1484H19.7969L19.5156 52.9688H14.2891V43.875H44.7109Z"/>
</svg>
