<svg width="100" height="100" viewBox="0 0 100 100" xmlns="http://www.w3.org/2000/svg">
<g clip-path="url(#clip0_1:7155)">
<path d="M17.23 87.3047C25.9897 95.5481 37.3786 100.07 49.463 100.07C61.5462 100.07 72.9343 95.5481 81.6942 87.3045L68.9677 74.5764C64.5612 78.5541 58.9835 81.1244 53.1079 81.86L45.913 81.8703C39.9993 81.1512 34.388 78.577 29.9581 74.5766L17.23 87.3047Z" fill="currentColor"/>
<path d="M95.752 52.6057C95.6417 40.5776 91.0258 29.2264 82.6638 20.5023C74.3027 11.779 63.1578 6.68686 51.1449 6.067L50.7624 24.0621C56.6831 24.4908 62.3983 26.739 66.995 30.4718L71.9811 35.6589C75.554 40.4258 77.5784 46.2581 77.7557 52.2243L95.752 52.6057Z" fill="currentColor"/>
<path d="M88.0594 23.8076C87.6348 23.1187 86.7322 22.9047 86.0438 23.3293C85.3551 23.7539 85.1408 24.6564 85.5654 25.3449C89.8686 32.3252 92.2567 40.3137 92.5106 48.5352H74.5123C73.7707 33.6609 61.802 21.6922 46.9277 20.9506V2.95215C60.4256 3.36797 73.032 9.51387 81.701 19.959C82.2178 20.5814 83.1414 20.6674 83.7637 20.1506C84.3863 19.6338 84.4721 18.7104 83.9555 18.0877C74.4151 6.59277 60.3852 0 45.4629 0C44.6539 0 43.9981 0.655664 43.9981 1.46484V9.10332C35.2145 9.40684 26.9625 12.4379 20.051 17.9191C12.9746 23.5311 7.88945 31.4229 5.73242 40.1404C5.53809 40.9258 6.01719 41.7199 6.80254 41.9143C6.92051 41.9434 7.03887 41.9576 7.15547 41.9576C7.81328 41.9576 8.41113 41.5115 8.57617 40.8443C12.6602 24.3398 27.1059 12.675 43.9981 12.035V20.9502C28.6373 21.7156 16.3756 34.4525 16.3756 50C16.3756 57.2791 19.0316 64.15 23.885 69.5062L17.582 75.8092C11.0494 68.7652 7.4668 59.6582 7.4668 50C7.4668 49.102 7.49785 48.2082 7.55898 47.3436C7.61602 46.5363 7.00801 45.8359 6.20098 45.7789C5.39297 45.7199 4.69355 46.3297 4.63652 47.1369C4.5707 48.0699 4.53711 49.0332 4.53711 49.9998C4.53711 60.4406 8.42383 70.2834 15.509 77.8818L10.1066 83.2842C9.53457 83.8564 9.53457 84.7838 10.1066 85.3559C19.55 94.7994 32.1063 100 45.4629 100C58.8182 100 71.3738 94.7994 80.817 85.3561C81.3891 84.7838 81.3891 83.8564 80.817 83.2846L75.4153 77.882C82.1676 70.6406 86.0119 61.3596 86.3578 51.4648H93.9981C94.807 51.4648 95.4629 50.8092 95.4629 50C95.4629 40.7213 92.903 31.6641 88.0594 23.8076ZM45.4629 97.0703C33.3785 97.0703 21.9897 92.548 13.2299 84.3047L25.958 71.5766C30.3879 75.577 35.9992 78.1512 41.9129 78.8703C42.7176 78.9684 43.4463 78.3961 43.544 77.593C43.6416 76.7898 43.0697 76.0596 42.2666 75.9619C36.5164 75.2629 31.083 72.6113 26.9674 68.4953C26.9643 68.4922 26.9609 68.4897 26.9578 68.4865C22.0231 63.5473 19.3053 56.9824 19.3053 50C19.3053 35.5799 31.0346 23.8479 45.4537 23.8434C45.4568 23.8434 45.4598 23.8438 45.4629 23.8438C59.8846 23.8438 71.6174 35.5758 71.6192 49.9971L71.619 50C71.619 56.9867 68.8981 63.5553 63.9578 68.4955L63.9549 68.4986C59.8598 72.5904 54.458 75.2375 48.7438 75.9527C47.941 76.0533 47.3717 76.7856 47.4723 77.5883C47.5727 78.391 48.3041 78.9586 49.1078 78.86C54.9834 78.1244 60.5611 75.5541 64.9676 71.5764L77.6942 84.3045C68.9342 92.548 57.5461 97.0703 45.4629 97.0703ZM73.3426 75.809L67.0399 69.5055C71.566 64.5102 74.1807 58.1973 74.5123 51.4646H83.4262C83.0832 60.5771 79.5434 69.123 73.3426 75.809Z"/>
<path d="M53.8893 42.727C53.8893 39.1832 51.0061 36.3 47.4621 36.3C43.9184 36.3 41.0352 39.1832 41.0352 42.727C41.0352 46.2707 43.9182 49.1539 47.4621 49.1539C51.0061 49.1539 53.8893 46.2707 53.8893 42.727Z" fill="currentColor"/>
<path d="M60.0621 64.6838C60.8711 64.6838 61.527 64.0281 61.527 63.219V56.5108C61.527 51.3783 57.373 47.1998 52.2508 47.1561C53.8406 45.4781 54.8189 43.2155 54.8189 40.727C54.8189 35.5676 50.6215 31.3703 45.4621 31.3703C40.3027 31.3703 36.1055 35.5676 36.1055 40.727C36.1055 43.2155 37.0838 45.4781 38.6736 47.1561C33.5514 47.1996 29.3975 51.3783 29.3975 56.5108V63.219C29.3975 64.0281 30.0533 64.6838 30.8623 64.6838H60.0621ZM45.4621 34.3C49.0061 34.3 51.8893 37.1832 51.8893 40.727C51.8893 44.2707 49.0061 47.1539 45.4621 47.1539C41.9182 47.1539 39.0352 44.2707 39.0352 40.727C39.0352 37.1832 41.9184 34.3 45.4621 34.3ZM32.327 56.5108C32.327 52.9668 35.2102 50.0838 38.7541 50.0838H52.1703C55.7143 50.0838 58.5973 52.967 58.5973 56.5108V61.7541H53.2404V59.2731C53.2404 58.4639 52.5846 57.8082 51.7756 57.8082C50.9666 57.8082 50.3107 58.4639 50.3107 59.2731V61.7541H40.6135V59.2731C40.6135 58.4639 39.9576 57.8082 39.1486 57.8082C38.3396 57.8082 37.6838 58.4639 37.6838 59.2731V61.7541H32.327V56.5108Z"/>
</g>
<defs>
<clipPath id="clip0_1:7155">
<rect width="100" height="100" fill="white"/>
</clipPath>
</defs>
</svg>
