<svg width="100" height="100" viewBox="0 0 100 100" xmlns="http://www.w3.org/2000/svg">
<path d="M11.0039 71.4195H42.5408L53.071 56.3557H21.5341L11.0039 71.4195Z" fill="currentColor"/>
<path d="M95.1911 71.4195H63.6542L53.124 56.3557H84.6576L95.1911 71.4195Z" fill="currentColor"/>
<path d="M85.6585 39.9765H75.5008C74.55 39.9765 73.7793 39.2058 73.7793 38.255C73.7793 37.3043 74.55 36.5336 75.5008 36.5336H85.6585C86.6092 36.5336 87.38 37.3043 87.38 38.255C87.38 39.2058 86.6092 39.9765 85.6585 39.9765Z" fill="currentColor"/>
<path d="M80.5809 45.057C79.6301 45.057 78.8594 44.2863 78.8594 43.3356V33.1745C78.8594 32.2237 79.6301 31.453 80.5809 31.453C81.5316 31.453 82.3023 32.2237 82.3023 33.1745V43.3356C82.3023 44.2863 81.5316 45.057 80.5809 45.057Z" fill="currentColor"/>
<path d="M25.1349 11.2685H9.78593C8.83518 11.2685 8.06445 10.4977 8.06445 9.54698C8.06445 8.59623 8.83518 7.8255 9.78593 7.8255H25.1349C26.0857 7.8255 26.8564 8.59623 26.8564 9.54698C26.8564 10.4977 26.0857 11.2685 25.1349 11.2685Z"/>
<path d="M17.4564 18.9362C16.507 18.9344 15.7383 18.1642 15.7383 17.2148V1.87919C15.7383 0.928446 16.509 0.157715 17.4598 0.157715C18.4105 0.157715 19.1812 0.928446 19.1812 1.87919V17.2148C19.1812 17.6719 18.9994 18.1103 18.6758 18.4332C18.3523 18.7562 17.9135 18.9371 17.4564 18.9362Z"/>
<path d="M48.99 100H17.4463C16.504 99.9945 15.7419 99.2309 15.7383 98.2886V65.906C15.7383 64.9553 16.509 64.1845 17.4598 64.1845C18.4105 64.1845 19.1812 64.9553 19.1812 65.906V96.5671H47.2819V50.8423C47.2819 49.8915 48.0526 49.1208 49.0034 49.1208C49.9541 49.1208 50.7249 49.8915 50.7249 50.8423V98.2886C50.7222 98.7457 50.5378 99.183 50.2124 99.5041C49.8869 99.8251 49.4471 100.004 48.99 100Z"/>
<path fill-rule="evenodd" clip-rule="evenodd" d="M6.91644 67.6275H38.4601C39.0227 67.6276 39.5499 67.3533 39.8728 66.8926L50.403 51.8288C50.7707 51.3031 50.8155 50.6166 50.5193 50.0475C50.2232 49.4785 49.6351 49.1213 48.9936 49.1208H17.45C16.8874 49.1207 16.3601 49.395 16.0372 49.8557L5.50705 64.9194C5.13939 65.4452 5.09456 66.1317 5.39073 66.7008C5.68689 67.2698 6.27492 67.627 6.91644 67.6275ZM37.5507 64.1845H10.2285L18.3527 52.5637H45.6715L37.5507 64.1845Z"/>
<path d="M80.5805 100H49.0369C48.0862 100 47.3154 99.2293 47.3154 98.2785C47.3154 97.3278 48.0862 96.5571 49.0369 96.5571H78.8591V65.906C78.8591 65.291 79.1872 64.7227 79.7198 64.4152C80.2524 64.1077 80.9086 64.1077 81.4413 64.4152C81.9739 64.7227 82.302 65.291 82.302 65.906V98.2886C82.2965 99.2354 81.5274 100 80.5805 100Z"/>
<path fill-rule="evenodd" clip-rule="evenodd" d="M59.5677 67.6275H91.1114C91.7529 67.627 92.3409 67.2698 92.6371 66.7008C92.9332 66.1317 92.8884 65.4452 92.5208 64.9194L81.9906 49.8557C81.6684 49.396 81.1426 49.1218 80.5812 49.1208H49.0375C48.396 49.1213 47.808 49.4785 47.5118 50.0475C47.2157 50.6166 47.2605 51.3031 47.6281 51.8288L58.1583 66.8926C58.4805 67.3523 59.0063 67.6265 59.5677 67.6275ZM87.806 64.1845H60.4738L52.3496 52.5637H79.6818L87.806 64.1845Z"/>
<path d="M32.95 29.5302C32.4932 29.5311 32.0548 29.35 31.7317 29.027C31.4087 28.7039 31.2276 28.2656 31.2285 27.8087V1.87919C31.2285 0.928446 31.9993 0.157715 32.95 0.157715C33.9007 0.157715 34.6715 0.928446 34.6715 1.87919V27.8087C34.6715 28.7595 33.9007 29.5302 32.95 29.5302Z"/>
<path d="M32.95 43.8389C31.9992 43.8389 31.2285 43.0682 31.2285 42.1175V36.7483C31.2285 35.7976 31.9992 35.0269 32.95 35.0269C33.9007 35.0269 34.6715 35.7976 34.6715 36.7483V42.1175C34.6715 43.0682 33.9007 43.8389 32.95 43.8389Z"/>
<path fill-rule="evenodd" clip-rule="evenodd" d="M27.2243 34.6507C28.184 36.9657 30.444 38.4745 32.9501 38.4732C36.3672 38.4676 39.1359 35.6989 39.1414 32.2819C39.1428 29.7758 37.634 27.5157 35.3189 26.5561C33.0038 25.5964 30.3386 26.1262 28.5665 27.8983C26.7944 29.6703 26.2646 32.3356 27.2243 34.6507ZM30.4055 31.2265C30.8325 30.1984 31.8369 29.5288 32.9501 29.5302C34.4678 29.5339 35.6966 30.7642 35.6984 32.2819C35.6984 33.3951 35.0277 34.3987 33.999 34.8244C32.9704 35.2501 31.7866 35.0141 30.9998 34.2264C30.2131 33.4387 29.9785 32.2547 30.4055 31.2265Z"/>
<path d="M49.0437 9.85906C48.093 9.85906 47.3223 9.08833 47.3223 8.13758V1.87919C47.3223 0.928446 48.093 0.157715 49.0437 0.157715C49.9945 0.157715 50.7652 0.928446 50.7652 1.87919V8.13758C50.7652 8.59414 50.5838 9.03201 50.261 9.35485C49.9382 9.67769 49.5003 9.85906 49.0437 9.85906Z"/>
<path d="M49.0437 43.8389C48.093 43.8389 47.3223 43.0682 47.3223 42.1175V17.0805C47.3223 16.1298 48.093 15.3591 49.0437 15.3591C49.9945 15.3591 50.7652 16.1298 50.7652 17.0805V42.1175C50.7652 43.0682 49.9945 43.8389 49.0437 43.8389Z"/>
<path fill-rule="evenodd" clip-rule="evenodd" d="M43.3174 14.9679C44.2767 17.2838 46.5371 18.7933 49.0439 18.7919C52.4583 18.7864 55.2259 16.0218 55.2351 12.6074C55.2392 10.1007 53.7322 7.83857 51.4173 6.87679C49.1024 5.915 46.4361 6.44311 44.6626 8.21467C42.8892 9.98622 42.3581 12.652 43.3174 14.9679ZM46.4989 11.5461C46.9257 10.5176 47.9303 9.84763 49.0439 9.84898V9.85905C50.557 9.86088 51.7848 11.0841 51.7922 12.5973C51.7935 13.7109 51.1236 14.7155 50.0951 15.1422C49.0665 15.569 47.8822 15.3338 47.0948 14.5464C46.3074 13.759 46.0722 12.5746 46.4989 11.5461Z"/>
<path d="M63.3523 21.1074C62.4016 21.1074 61.6309 20.3366 61.6309 19.3859V1.87919C61.6309 0.928446 62.4016 0.157715 63.3523 0.157715C64.3031 0.157715 65.0738 0.928446 65.0738 1.87919V19.3859C65.0738 19.8425 64.8924 20.2803 64.5696 20.6032C64.2468 20.926 63.8089 21.1074 63.3523 21.1074Z"/>
<path d="M63.3523 43.8389C62.4016 43.8389 61.6309 43.0682 61.6309 42.1175V28.3289C61.6309 27.3781 62.4016 26.6074 63.3523 26.6074C64.3031 26.6074 65.0738 27.3781 65.0738 28.3289V42.1175C65.0738 43.0682 64.3031 43.8389 63.3523 43.8389Z"/>
<path fill-rule="evenodd" clip-rule="evenodd" d="M57.627 26.2286C58.5868 28.5433 60.8467 30.0517 63.3525 30.0503C66.7708 30.0448 69.54 27.2741 69.5437 23.8557C69.5437 21.3499 68.0341 19.0909 65.7189 18.1323C63.4037 17.1737 60.739 17.7043 58.9677 19.4766C57.1963 21.249 56.6671 23.9139 57.627 26.2286ZM60.8075 22.8045C61.2343 21.7759 62.2389 21.106 63.3525 21.1074C64.8688 21.1111 66.0971 22.3394 66.1008 23.8557C66.1021 24.9693 65.4322 25.9739 64.4037 26.4006C63.3751 26.8274 62.1908 26.5922 61.4034 25.8048C60.616 25.0174 60.3808 23.833 60.8075 22.8045Z"/>
</svg>
