<svg width="101" height="101" viewBox="0 0 101 101" xmlns="http://www.w3.org/2000/svg">
<circle cx="27.2726" cy="52.4401" r="22.6191" fill="currentColor"/>
<path fill-rule="evenodd" clip-rule="evenodd" d="M77.7087 68.3626C88.4749 68.3626 97.2027 59.6348 97.2027 48.8686C97.2027 38.1023 88.4749 29.3745 77.7087 29.3745C66.9424 29.3745 58.2146 38.1023 58.2146 48.8686C58.2146 59.6348 66.9424 68.3626 77.7087 68.3626ZM77.7087 71.4876C90.2008 71.4876 100.328 61.3607 100.328 48.8686C100.328 36.3764 90.2008 26.2495 77.7087 26.2495C65.2165 26.2495 55.0896 36.3764 55.0896 48.8686C55.0896 61.3607 65.2165 71.4876 77.7087 71.4876Z"/>
<path d="M69.461 42.8314C68.8508 42.2212 68.8508 41.2319 69.461 40.6217C70.0712 40.0115 71.0605 40.0115 71.6707 40.6217L77.709 46.66L83.7474 40.6217C84.3576 40.0115 85.3469 40.0115 85.9571 40.6217C86.5673 41.2319 86.5673 42.2212 85.9571 42.8314L79.9187 48.8697L85.9564 54.9074C86.5666 55.5176 86.5666 56.5069 85.9564 57.1171C85.3462 57.7273 84.3569 57.7273 83.7467 57.1171L77.709 51.0794L71.6713 57.1171C71.0612 57.7273 70.0718 57.7273 69.4616 57.1171C68.8514 56.5069 68.8514 55.5176 69.4616 54.9074L75.4993 48.8697L69.461 42.8314Z"/>
<path d="M34.1706 42.8314C34.7808 42.2212 34.7808 41.2318 34.1706 40.6216C33.5604 40.0115 32.5711 40.0115 31.9609 40.6216L18.78 53.8025L13.9325 48.955C13.3223 48.3448 12.333 48.3448 11.7228 48.955C11.1126 49.5652 11.1126 50.5545 11.7228 51.1647L17.6752 57.1171C18.2854 57.7273 19.2747 57.7273 19.8849 57.1171L34.1706 42.8314Z"/>
<path fill-rule="evenodd" clip-rule="evenodd" d="M45.5658 48.8686C45.5658 61.3607 35.4389 71.4876 22.9467 71.4876C10.4545 71.4876 0.327637 61.3607 0.327637 48.8686C0.327637 36.3764 10.4545 26.2495 22.9467 26.2495C35.4389 26.2495 45.5658 36.3764 45.5658 48.8686ZM42.4408 48.8686C42.4408 59.6348 33.713 68.3626 22.9467 68.3626C12.1804 68.3626 3.45264 59.6348 3.45264 48.8686C3.45264 38.1023 12.1804 29.3745 22.9467 29.3745C33.713 29.3745 42.4408 38.1023 42.4408 48.8686Z"/>
</svg>
