<svg width="100" height="100" viewBox="0 0 100 100"  xmlns="http://www.w3.org/2000/svg">
<path d="M57.4398 31.28C57.4398 43.607 47.4468 53.6 35.1198 53.6C22.7928 53.6 12.7998 43.607 12.7998 31.28C12.7998 18.953 22.7928 8.95996 35.1198 8.95996C47.4468 8.95996 57.4398 18.953 57.4398 31.28Z" fill="currentColor"/>
<path fill-rule="evenodd" clip-rule="evenodd" d="M28.9199 46.16C39.1924 46.16 47.5199 37.8325 47.5199 27.56C47.5199 17.2875 39.1924 8.96 28.9199 8.96C18.6474 8.96 10.3199 17.2875 10.3199 27.56C10.3199 37.8325 18.6474 46.16 28.9199 46.16ZM28.9199 51.12C41.9317 51.12 52.4799 40.5718 52.4799 27.56C52.4799 14.5482 41.9317 4 28.9199 4C15.908 4 5.35986 14.5482 5.35986 27.56C5.35986 40.5718 15.908 51.12 28.9199 51.12Z"/>
<path fill-rule="evenodd" clip-rule="evenodd" d="M39.3535 19.6064C40.322 20.5749 40.322 22.1451 39.3535 23.1136L25.7135 36.7536C24.745 37.7221 23.1747 37.7221 22.2062 36.7536L16.0062 30.5536C15.0377 29.5851 15.0377 28.0149 16.0062 27.0464C16.9747 26.0779 18.545 26.0779 19.5135 27.0464L23.9599 31.4927L35.8462 19.6064C36.8147 18.6379 38.385 18.6379 39.3535 19.6064Z"/>
<path fill-rule="evenodd" clip-rule="evenodd" d="M66.12 88.32C76.3925 88.32 84.72 79.9925 84.72 69.72C84.72 59.4475 76.3925 51.12 66.12 51.12C55.8475 51.12 47.52 59.4475 47.52 69.72C47.52 79.9925 55.8475 88.32 66.12 88.32ZM66.12 93.28C79.1318 93.28 89.68 82.7318 89.68 69.72C89.68 56.7082 79.1318 46.16 66.12 46.16C53.1081 46.16 42.56 56.7082 42.56 69.72C42.56 82.7318 53.1081 93.28 66.12 93.28Z"/>
<path d="M56.9265 64.0337C55.958 63.0652 55.958 61.4949 56.9265 60.5264C57.895 59.5579 59.4652 59.5579 60.4337 60.5264L66.1202 66.2129L71.8066 60.5264C72.7751 59.5579 74.3454 59.5579 75.3139 60.5264C76.2823 61.4949 76.2823 63.0652 75.3139 64.0337L69.6274 69.7201L75.3137 75.4064C76.2822 76.3749 76.2822 77.9452 75.3137 78.9137C74.3452 79.8822 72.7749 79.8822 71.8064 78.9137L66.1202 73.2274L60.4339 78.9137C59.4654 79.8822 57.8951 79.8822 56.9266 78.9137C55.9581 77.9452 55.9581 76.3749 56.9266 75.4064L62.6129 69.7201L56.9265 64.0337Z"/>
</svg>
