<svg width="100" height="100" viewBox="0 0 100 100" xmlns="http://www.w3.org/2000/svg">
<path d="M59.2126 61.3887C60.9366 58.6238 60.0928 54.9847 57.3278 53.2607C54.5629 51.5366 50.9238 52.3805 49.1998 55.1454C47.4757 57.9104 48.3196 61.5495 51.0845 63.2735C53.8495 64.9975 57.4886 64.1537 59.2126 61.3887Z" fill="currentColor"/>
<path d="M32.4157 36.3723C22.9366 45.8569 20.7715 60.4233 27.0823 72.2548C33.393 84.0864 46.6963 90.4022 59.8534 87.8131V98.2463H9.66406V18.6931H59.8565V28.0206C49.8893 26.0558 39.5984 29.1879 32.4157 36.3723Z" fill="currentColor"/>
<path fill-rule="evenodd" clip-rule="evenodd" d="M37.07 61.9279C41.5405 68.1156 47.5381 71.5248 53.9603 71.5248C60.3856 71.5248 66.3864 68.1188 70.8538 61.9279C71.6026 60.8928 72.2852 59.8113 72.8973 58.6899C73.1634 58.2055 73.1634 57.6187 72.8973 57.1343C72.2852 56.0128 71.6026 54.9313 70.8538 53.8962C66.3801 47.7117 60.3951 44.3089 53.9603 44.3089C47.5254 44.3089 41.5405 47.7117 37.07 53.8962C36.319 54.9305 35.6353 56.0121 35.0233 57.1343C34.7572 57.6187 34.7572 58.2055 35.0233 58.6899C35.6353 59.812 36.319 60.8936 37.07 61.9279ZM38.3227 57.9084C38.3213 57.906 38.3198 57.9035 38.3183 57.901L38.3215 57.9105C38.3219 57.9098 38.3223 57.9091 38.3227 57.9084ZM39.7029 60.0143C39.2072 59.3291 38.7461 58.6219 38.3227 57.9084C38.7532 57.1931 39.2091 56.4873 39.7029 55.7909C43.546 50.4808 48.609 47.5533 53.9603 47.5533C59.3116 47.5533 64.3745 50.4776 68.2177 55.7909C68.7151 56.4784 69.1809 57.185 69.6023 57.901C69.1682 58.617 68.7151 59.3267 68.2177 60.0143C64.3745 65.3244 59.3116 68.2519 53.9603 68.2519C48.609 68.2519 43.546 65.337 39.7029 60.0143Z"/>
<path fill-rule="evenodd" clip-rule="evenodd" d="M78.2362 78.8911L96.416 97.0899L96.4255 97.0772C97.0607 97.7115 97.0614 98.7407 96.4271 99.3758C95.7928 100.011 94.7636 100.012 94.1284 99.3774L75.9867 81.2356C63.3049 93.1804 43.4127 92.8369 31.151 80.4614C18.8892 68.0859 18.7294 48.1914 30.7906 35.6205C42.8519 23.0495 62.7361 22.3864 75.6081 34.1258C88.4801 45.8652 89.6461 65.7262 78.2362 78.8911ZM25.6872 63.5406C28.3686 77.0312 40.206 86.7492 53.9605 86.7517C61.6126 86.7741 68.9556 83.7336 74.3518 78.3081C84.0782 68.5827 85.5804 53.3411 77.9398 41.904C70.2992 30.4669 55.6436 26.0196 42.9355 31.2817C30.2274 36.5438 23.0059 50.0499 25.6872 63.5406Z"/>
<path d="M83.7425 17.0772H78.1187V11.463C78.1187 10.5653 77.391 9.83763 76.4934 9.83763C75.5957 9.83763 74.868 10.5653 74.868 11.463V17.0772H69.2538C68.3561 17.0772 67.6284 17.8049 67.6284 18.7026C67.6284 19.6002 68.3561 20.3279 69.2538 20.3279H74.8712V25.9422C74.8712 26.8398 75.5989 27.5675 76.4965 27.5675C77.3942 27.5675 78.1219 26.8398 78.1219 25.9422V20.3279H83.7425C84.6401 20.3279 85.3678 19.6002 85.3678 18.7026C85.3678 17.8049 84.6401 17.0772 83.7425 17.0772Z"/>
<path d="M66.6941 5.04079H63.5258V1.87248C63.5258 0.974824 62.7981 0.247131 61.9005 0.247131C61.0028 0.247131 60.2751 0.974824 60.2751 1.87248V5.04079H57.1068C56.2091 5.04079 55.4814 5.76849 55.4814 6.66614C55.4814 7.5638 56.2091 8.29149 57.1068 8.29149H60.2751V11.4598C60.2751 12.3575 61.0028 13.0852 61.9005 13.0852C62.7981 13.0852 63.5258 12.3575 63.5258 11.4598V8.29149H66.6941C67.5918 8.29149 68.3195 7.5638 68.3195 6.66614C68.3195 5.76849 67.5918 5.04079 66.6941 5.04079Z" fill="currentColor"/>
<path d="M53.9604 99.8653H3.77427C2.87662 99.8653 2.14893 99.1376 2.14893 98.24V18.6931C2.15415 17.7991 2.88032 17.0772 3.77427 17.0772H53.9604C54.8581 17.0772 55.5858 17.8049 55.5858 18.7026V27.4566C55.5858 28.3533 52.3351 28.3533 52.3351 27.4566V20.3279H5.39962V96.6146H52.3382V88.377C52.3382 87.4804 55.5889 87.4804 55.5889 88.377V98.24C55.5889 98.6716 55.4172 99.0855 55.1118 99.3904C54.8063 99.6953 54.392 99.8662 53.9604 99.8653Z"/>
<path fill-rule="evenodd" clip-rule="evenodd" d="M46.4419 57.9168C46.4419 62.0691 49.808 65.4353 53.9603 65.4353C58.1112 65.4318 61.4752 62.0677 61.4787 57.9168C61.4787 53.7645 58.1126 50.3984 53.9603 50.3984C49.808 50.3984 46.4419 53.7645 46.4419 57.9168ZM50.0171 56.2876C50.6775 54.6924 52.2339 53.6523 53.9603 53.6523C56.3153 53.654 58.2245 55.5618 58.228 57.9168C58.2293 59.6433 57.1903 61.2004 55.5957 61.862C54.0011 62.5235 52.1649 62.1592 50.9437 60.9389C49.7225 59.7186 49.3568 57.8827 50.0171 56.2876Z"/>
</svg>
