<svg width="100" height="100" viewBox="0 0 100 100"  xmlns="http://www.w3.org/2000/svg">
<path d="M99.5402 31.4427C99.1064 40.3857 92.5056 52.6253 79.738 68.1614C66.5396 84.3832 55.371 92.5 46.2353 92.5C40.5798 92.5 35.7888 87.5567 31.878 77.6759L24.0407 50.498C21.1339 40.6172 18.0195 35.671 14.685 35.671C13.9599 35.671 11.4188 37.1185 7.06784 39.999L2.5 34.4286C7.29096 30.4493 12.0168 26.4671 16.6684 22.4791C23.0584 17.2545 27.8524 14.5088 31.0536 14.2334C38.6089 13.5477 43.2573 18.4324 45.0051 28.8875C46.8892 40.1718 48.197 47.1898 48.9283 49.9324C51.11 59.2946 53.5024 63.9712 56.121 63.9712C58.157 63.9712 61.2063 60.9326 65.2752 54.864C69.341 48.7926 71.5196 44.1716 71.8109 40.9982C72.3935 35.756 70.2118 33.1275 65.2752 33.1275C62.951 33.1275 60.5587 33.6345 58.0919 34.6337C62.8643 19.8536 71.9782 12.6716 85.4338 13.0818C95.4124 13.3602 100.114 19.4814 99.5402 31.4427Z" fill="currentColor"/>
<path fill-rule="evenodd" clip-rule="evenodd" d="M58.32 26.9925C59.8337 26.589 61.3373 26.3808 62.8295 26.3808C65.4683 26.3808 67.7057 27.1307 69.1387 28.955C70.5319 30.7287 70.8991 33.1909 70.6037 36.0197C70.285 39.6367 68.0046 44.5963 64.0966 50.765C62.1207 53.8801 60.3495 56.2878 58.7853 57.9334C58.0031 58.7563 57.2354 59.4287 56.4828 59.9038C55.7396 60.3729 54.9093 60.714 54.0319 60.714C52.888 60.714 51.9151 60.1639 51.1316 59.391C50.3592 58.6291 49.6815 57.5695 49.0683 56.3038C47.8414 53.7716 46.7142 50.0774 45.6594 45.2971C44.9352 42.4151 43.6695 35.2159 41.8675 23.8077C41.0478 18.6247 39.5784 15.0606 37.6234 12.8898C35.7396 10.798 33.2923 9.87213 30.0844 10.1799L30.0771 10.1806C28.8761 10.2898 27.1886 10.9196 24.9552 12.2726C22.7525 13.6069 20.1402 15.5691 17.1105 18.1867C12.9817 21.9284 8.79246 25.6647 4.54997 29.3977L7.20322 32.8179C8.76826 31.7415 10.0642 30.8929 11.0841 30.2799C11.7142 29.9013 12.2654 29.5964 12.7247 29.3815C12.9542 29.2741 13.1839 29.1782 13.4046 29.1066C13.6054 29.0415 13.8933 28.9646 14.2103 28.9646C16.6629 28.9646 18.6006 30.8692 20.1482 33.4631C21.7481 36.1448 23.2374 40.0612 24.6466 45.1248L24.6487 45.1322L32.1622 72.6745C34.0017 77.5715 36.0012 81.116 38.1095 83.4166C40.2025 85.7006 42.336 86.6956 44.5314 86.6956C48.4545 86.6956 53.0141 84.8461 58.2523 80.8233C63.4759 76.8116 69.2398 70.7413 75.5401 62.5559L75.5445 62.5501C81.6442 54.7044 86.2382 47.7318 89.3529 41.6267C92.4742 35.5087 94.066 30.3467 94.261 26.1012C94.5295 20.1799 93.5428 15.9881 91.5705 13.2742C89.6512 10.6333 86.6162 9.14766 82.1585 9.01621L82.1544 9.01609C76.0029 8.81784 70.954 10.4479 66.8952 13.8295C63.3611 16.7739 60.4821 21.1266 58.32 26.9925ZM97.2579 26.2379C97.0358 31.0773 95.2473 36.6745 92.0252 42.99C88.7968 49.3181 84.0845 56.4531 77.9148 64.3891C71.532 72.6813 65.5879 78.9722 60.0796 83.2026C54.585 87.4223 49.388 89.6956 44.5314 89.6956C41.2916 89.6956 38.4053 88.1798 35.8977 85.4435C33.4147 82.7339 31.2411 78.7696 29.3286 73.6623C29.3125 73.6192 29.2984 73.5754 29.2863 73.531L21.7564 45.9291L21.7554 45.9253C20.3714 40.9533 18.9677 37.3397 17.5719 35.0002C16.1843 32.6745 15.0605 32.019 14.3074 31.9679C14.2426 31.9903 14.1411 32.0309 13.9963 32.0987C13.6711 32.2509 13.2197 32.4966 12.6295 32.8513C11.4536 33.558 9.83094 34.6339 7.74993 36.0902C7.09469 36.5488 6.19493 36.4126 5.70472 35.7807L1.31485 30.1219C0.828735 29.4953 0.914412 28.5985 1.51039 28.0753C6.10937 24.0375 10.6452 19.9974 15.1091 15.9518C15.1178 15.9439 15.1266 15.9361 15.1355 15.9284C18.2413 13.2442 20.9987 11.1618 23.4008 9.70665C25.7738 8.26913 27.9268 7.36471 29.8015 7.19324C33.8529 6.80547 37.2684 8.01259 39.8527 10.8822C42.3665 13.6736 43.9706 17.9012 44.8306 23.3391C46.6455 34.8283 47.8914 41.8802 48.5739 44.5855C48.5776 44.6001 48.581 44.6148 48.5843 44.6295C49.6248 49.3494 50.6939 52.7786 51.7681 54.9957C52.3063 56.1066 52.8064 56.8291 53.2383 57.2552C53.6592 57.6703 53.9175 57.714 54.0319 57.714C54.1328 57.714 54.4025 57.6693 54.8813 57.367C55.3508 57.0706 55.927 56.586 56.6108 55.8666C57.9785 54.4276 59.6281 52.209 61.5624 49.1596C65.4643 43.0004 67.3704 38.576 67.6161 35.7466L67.6187 35.7195C67.8806 33.2285 67.4784 31.6979 66.7795 30.8081C66.118 29.9659 64.935 29.3808 62.8295 29.3808C60.8309 29.3808 58.7325 29.8409 56.5164 30.7897C55.9798 31.0195 55.3587 30.9171 54.9242 30.5272C54.4897 30.1374 54.3209 29.5309 54.4914 28.9726C56.8389 21.2879 60.3014 15.4183 64.9749 11.5246C69.6744 7.60915 75.4699 5.79951 82.249 6.01758L82.251 6.01764L82.2469 6.01752L82.249 6.01758C87.3801 6.16933 91.3983 7.93431 93.9973 11.5106C96.5437 15.0144 97.5404 20.0082 97.2579 26.2379Z"/>
<path d="M82.249 6.01758C75.4699 5.79951 69.6744 7.60915 64.9749 11.5246C60.3014 15.4183 56.8389 21.2879 54.4914 28.9726C54.3209 29.5309 54.4897 30.1374 54.9242 30.5272C55.3587 30.9171 55.9798 31.0195 56.5164 30.7897C58.7325 29.8409 60.8309 29.3808 62.8295 29.3808C64.935 29.3808 66.118 29.9659 66.7795 30.8081C67.4784 31.6979 67.8806 33.2285 67.6187 35.7195L67.6161 35.7466C67.3704 38.576 65.4643 43.0004 61.5624 49.1596C59.6281 52.209 57.9785 54.4276 56.6108 55.8666C55.927 56.586 55.3508 57.0706 54.8813 57.367C54.4025 57.6693 54.1328 57.714 54.0319 57.714C53.9175 57.714 53.6592 57.6703 53.2383 57.2552C52.8064 56.8291 52.3063 56.1066 51.7681 54.9957C50.6939 52.7786 49.6248 49.3494 48.5843 44.6295C48.581 44.6148 48.5776 44.6001 48.5739 44.5855C47.8914 41.8802 46.6455 34.8283 44.8306 23.3391C43.9706 17.9012 42.3665 13.6736 39.8527 10.8822C37.2684 8.01259 33.8529 6.80547 29.8015 7.19324C27.9268 7.36471 25.7738 8.26913 23.4008 9.70665C20.9987 11.1618 18.2413 13.2442 15.1355 15.9284C15.1266 15.9361 15.1178 15.9439 15.1091 15.9518C10.6452 19.9974 6.10937 24.0375 1.51039 28.0753C0.914412 28.5985 0.828735 29.4953 1.31485 30.1219L5.70472 35.7807C6.19493 36.4126 7.09469 36.5488 7.74993 36.0902C9.83094 34.6339 11.4536 33.558 12.6295 32.8513C13.2197 32.4966 13.6711 32.2509 13.9963 32.0987C14.1411 32.0309 14.2426 31.9903 14.3074 31.9679C15.0605 32.019 16.1843 32.6745 17.5719 35.0002C18.9677 37.3397 20.3714 40.9533 21.7554 45.9253L21.7564 45.9291L29.2863 73.531C29.2984 73.5754 29.3125 73.6192 29.3286 73.6623C31.2411 78.7696 33.4147 82.7339 35.8977 85.4435C38.4053 88.1798 41.2916 89.6956 44.5314 89.6956C49.388 89.6956 54.585 87.4223 60.0796 83.2026C65.5879 78.9722 71.532 72.6813 77.9148 64.3891C84.0845 56.4531 88.7968 49.3181 92.0252 42.99C95.2473 36.6745 97.0358 31.0773 97.2579 26.2379C97.5404 20.0082 96.5437 15.0144 93.9973 11.5106C91.3983 7.93431 87.3801 6.16933 82.249 6.01758ZM82.249 6.01758L82.251 6.01764L82.2469 6.01752L82.249 6.01758ZM14.3674 31.9495C14.3674 31.9495 14.3644 31.9504 14.3588 31.9516M62.8295 26.3808C61.3373 26.3808 59.8337 26.589 58.32 26.9925C60.4821 21.1266 63.3611 16.7739 66.8952 13.8295C70.954 10.4479 76.0029 8.81784 82.1544 9.01609L82.1585 9.01621C86.6162 9.14766 89.6512 10.6333 91.5705 13.2742C93.5428 15.9881 94.5295 20.1799 94.261 26.1012C94.066 30.3467 92.4742 35.5087 89.3529 41.6267C86.2382 47.7318 81.6442 54.7044 75.5445 62.5501L75.5401 62.5559C69.2398 70.7413 63.4759 76.8116 58.2523 80.8233C53.0141 84.8461 48.4545 86.6956 44.5314 86.6956C42.336 86.6956 40.2025 85.7006 38.1095 83.4166C36.0012 81.116 34.0017 77.5715 32.1622 72.6745L24.6487 45.1322L24.6466 45.1248C23.2374 40.0612 21.7481 36.1448 20.1482 33.4631C18.6006 30.8692 16.6629 28.9646 14.2103 28.9646C13.8933 28.9646 13.6054 29.0415 13.4046 29.1066C13.1839 29.1782 12.9542 29.2741 12.7247 29.3815C12.2654 29.5964 11.7142 29.9013 11.0841 30.2799C10.0642 30.8929 8.76826 31.7415 7.20322 32.8179L4.54997 29.3977C8.79246 25.6647 12.9817 21.9284 17.1105 18.1867C20.1402 15.5691 22.7525 13.6069 24.9552 12.2726C27.1886 10.9196 28.8761 10.2898 30.0771 10.1806L30.0844 10.1799C33.2923 9.87213 35.7396 10.798 37.6234 12.8898C39.5784 15.0606 41.0478 18.6247 41.8675 23.8077C43.6695 35.2159 44.9352 42.4151 45.6594 45.2971C46.7142 50.0774 47.8414 53.7716 49.0683 56.3038C49.6815 57.5695 50.3592 58.6291 51.1316 59.391C51.9151 60.1639 52.888 60.714 54.0319 60.714C54.9093 60.714 55.7396 60.3729 56.4828 59.9038C57.2354 59.4287 58.0031 58.7563 58.7853 57.9334C60.3495 56.2878 62.1207 53.8801 64.0966 50.765C68.0046 44.5963 70.285 39.6367 70.6037 36.0197C70.8991 33.1909 70.5319 30.7287 69.1387 28.955C67.7057 27.1307 65.4683 26.3808 62.8295 26.3808Z" stroke="#384147" stroke-width="0.5"/>
</svg>
