<svg width="100" height="100" viewBox="0 0 100 100" xmlns="http://www.w3.org/2000/svg">
<path d="M97.0775 33.2197C96.0195 29.1971 92.902 26.0289 88.9438 24.9537C81.7693 23 60.3578 23 53 23C45.6422 23 24.2307 23 17.0562 24.9537C13.098 26.0289 9.98046 29.1971 8.92246 33.2197C7 40.5109 7 55.7236 7 55.7236C7 55.7236 7 70.9361 8.92246 78.2275C9.98046 82.2501 13.098 85.4183 17.0562 86.4935C24.2307 88.4472 42.1545 88.4472 53 88.4472C63.8455 88.4472 81.7693 88.4472 88.9438 86.4935C92.902 85.4183 96.0195 82.2501 97.0775 78.2275C99 70.9361 99 55.7236 99 55.7236C99 55.7236 99 40.5109 97.0775 33.2197Z" fill="currentColor"/>
<path d="M91.0024 16.0152C90.0353 16.0152 89.2493 15.2288 89.2493 14.2612V10.7633H85.7531C84.786 10.7633 84 9.97691 84 9.00928C84 8.04166 84.786 7.25525 85.7531 7.25525H89.2493V3.75404C89.2493 2.78641 90.0353 2 91.0024 2C91.9695 2 92.7555 2.78641 92.7555 3.75404V7.25525H96.2549C97.222 7.25525 98.008 8.04166 98.008 9.00928C98.008 9.97691 97.222 10.7633 96.2549 10.7633H92.7555V14.2612C92.7555 15.2288 91.9695 16.0152 91.0024 16.0152Z"/>
<path d="M49 20.4878C50.2393 20.4878 51.2439 19.4832 51.2439 18.2439C51.2439 17.0046 50.2393 16 49 16C47.7608 16 46.7561 17.0046 46.7561 18.2439C46.7561 19.4832 47.7608 20.4878 49 20.4878Z"/>
<path d="M40.8092 35.5368C40.1905 35.1776 39.4271 35.1762 38.8071 35.5331C38.1871 35.8901 37.8049 36.551 37.8049 37.2664V64.2893C37.8049 65.0047 38.1871 65.6657 38.8071 66.0226C39.4271 66.3795 40.1905 66.3781 40.8092 66.0189L64.0789 52.5074C64.6953 52.1495 65.0747 51.4906 65.0747 50.7779C65.0747 50.0651 64.6953 49.4062 64.0789 49.0483L40.8092 35.5368Z"/>
<path d="M43.9997 18.0299C44.018 19.1343 43.1374 20.0444 42.033 20.0626C33.7066 20.2001 22.8163 20.5884 17.2006 21.4543C12.5784 22.1669 10.3227 23.3113 8.93632 25.0661C7.45413 26.9423 6.65525 29.87 5.93929 35.0216C5.47404 38.3692 5.23738 42.3537 5.11839 45.5337C5.05916 47.1168 5.02954 48.4869 5.01474 49.4604C5.00735 49.947 5.00366 50.334 5.00182 50.5983C5.0009 50.7305 5.00045 50.832 5.00022 50.8999L5.00003 50.9762V51.0238L5.00022 51.1001C5.00045 51.168 5.0009 51.2695 5.00182 51.4017C5.00366 51.666 5.00735 52.053 5.01474 52.5396C5.02954 53.5131 5.05916 54.8832 5.11839 56.4663C5.23738 59.6463 5.47404 63.6308 5.93929 66.9784C6.65525 72.13 7.45413 75.0578 8.93632 76.9339C10.3227 78.6887 12.5784 79.8331 17.2006 80.5458C24.6879 81.7002 41.4588 82 49 82C56.5412 82 73.3121 81.7002 80.7994 80.5458C85.4217 79.8331 87.6774 78.6887 89.0637 76.9339C90.5459 75.0578 91.3448 72.13 92.0607 66.9784C92.526 63.6308 92.7626 59.6463 92.8816 56.4663C92.9409 54.8832 92.9705 53.5131 92.9853 52.5396C92.9927 52.053 92.9964 51.666 92.9982 51.4017C92.9991 51.2695 92.9996 51.168 92.9998 51.1001L93 51.0238L93 51.0052V50.9948L93 50.9762L92.9998 50.8999C92.9996 50.832 92.9991 50.7305 92.9982 50.5983C92.9964 50.334 92.9927 49.947 92.9853 49.4604C92.9705 48.4869 92.9409 47.1168 92.8816 45.5337C92.7626 42.3537 92.526 38.3692 92.0607 35.0216C91.3448 29.87 90.5459 26.9423 89.0637 25.0661C87.6774 23.3113 85.4217 22.1669 80.7994 21.4543C75.4098 20.6233 65.1538 20.2315 56.963 20.0801C55.8586 20.0596 54.9799 19.1478 55.0003 18.0434C55.0208 16.939 55.9326 16.0603 57.037 16.0807C65.1801 16.2313 75.7079 16.622 81.409 17.501C86.37 18.2659 89.8716 19.6362 92.2024 22.5865C94.4373 25.4154 95.3156 29.3832 96.0226 34.471C96.5157 38.0188 96.7582 42.1613 96.8788 45.3842C96.9394 47.0026 96.9697 48.403 96.9848 49.3996C96.9924 49.8982 96.9962 50.2962 96.9981 50.5705L96.999 50.7136L96.9998 50.8866L97 50.9697L97 50.9975V51.0025L97 51.0303L96.9998 51.1134C96.9995 51.186 96.9991 51.2923 96.9981 51.4295C96.9962 51.7038 96.9924 52.1018 96.9848 52.6004C96.9697 53.597 96.9394 54.9974 96.8788 56.6158C96.7582 59.8387 96.5157 63.9812 96.0226 67.529C95.3156 72.6168 94.4373 76.5846 92.2024 79.4135C89.8716 82.3638 86.37 83.7341 81.409 84.499C73.5629 85.7088 56.4727 86 49 86C41.5273 86 24.4371 85.7088 16.5911 84.499C11.63 83.7341 8.12845 82.3638 5.79763 79.4135C3.56267 76.5846 2.68447 72.6168 1.97737 67.529C1.48429 63.9812 1.24178 59.8387 1.12119 56.6158C1.06063 54.9974 1.03036 53.597 1.0152 52.6004C1.00763 52.1018 1.00383 51.7038 1.00192 51.4295C1.00097 51.2923 1.00049 51.186 1.00025 51.1134L1.00003 51.0303L1 51.0008V50.9997L1.00003 50.9697L1.00025 50.8866C1.00049 50.814 1.00097 50.7077 1.00192 50.5705C1.00383 50.2962 1.00763 49.8982 1.0152 49.3996C1.03036 48.403 1.06063 47.0026 1.12119 45.3842C1.24178 42.1613 1.48429 38.0188 1.97737 34.471C2.68447 29.3832 3.56267 25.4154 5.79763 22.5865C8.12845 19.6362 11.63 18.2659 16.5911 17.501C22.524 16.5862 33.6928 16.1997 41.967 16.0632C43.0714 16.0449 43.9815 16.9255 43.9997 18.0299Z"/>
</svg>
