<svg width="64" height="64" viewBox="0 0 64 64" fill="none" xmlns="http://www.w3.org/2000/svg">
<path fill-rule="evenodd" clip-rule="evenodd" d="M51.4576 4.58579C50.6772 3.80534 49.412 3.80465 48.6307 4.58425L28.5873 24.5843C28.2113 24.9595 28 25.4688 28 26V35C28 36.1046 28.8954 37 30 37H37.9999C38.5348 37 39.0473 36.7858 39.4231 36.4052L59.8144 15.753C60.587 14.9706 60.583 13.7112 59.8054 12.9336L51.4576 4.58579ZM32 33V26.8297L43.7743 15.0809L49.3508 20.6574L37.164 33H32ZM52.1612 17.811L55.5718 14.3568L50.0419 8.82689L46.6058 12.2555L52.1612 17.811Z" fill="#172126"/>
<path fill-rule="evenodd" clip-rule="evenodd" d="M9.17157 9.17157C9.92172 8.42143 10.9391 8 12 8H34C35.1046 8 36 8.89543 36 10C36 11.1046 35.1046 12 34 12H21V52H52V30C52 28.8954 52.8954 28 54 28C55.1046 28 56 28.8954 56 30V52C56 53.0609 55.5786 54.0783 54.8284 54.8284C54.0783 55.5786 53.0609 56 52 56H12C10.9391 56 9.92172 55.5786 9.17157 54.8284C8.42143 54.0783 8 53.0609 8 52V12C8 10.9391 8.42143 9.92172 9.17157 9.17157ZM17 52H12L12 12H17V52Z" fill="#172126"/>
<path d="M28 42C28 40.8954 28.8954 40 30 40H46C47.1046 40 48 40.8954 48 42C48 43.1046 47.1046 44 46 44H30C28.8954 44 28 43.1046 28 42Z" fill="#172126"/>
</svg>
