<svg width="64" height="64" viewBox="0 0 64 64" fill="none" xmlns="http://www.w3.org/2000/svg">
<path fill-rule="evenodd" clip-rule="evenodd" d="M12.5858 12.5857C12.9609 12.2107 13.4697 12 14.0001 12L35.3757 12.0012C35.3757 12.0012 35.3756 12.0012 35.3757 12.0012C38.4908 12.0012 41.5333 13.0403 43.8231 14.9686C46.1232 16.9055 47.5002 19.6137 47.5002 22.5272C47.5002 25.3843 46.1759 28.044 43.9556 29.9725C45.4349 30.5179 46.8073 31.2993 47.9934 32.2981C50.5044 34.4127 52 37.3619 52 40.5266C52 43.6913 50.5044 46.6405 47.9934 48.7551C45.4926 50.8611 42.164 52 38.7505 52L13.9999 51.9988C12.8954 51.9988 12 51.1034 12 49.9988V14C12 13.4695 12.2107 12.9608 12.5858 12.5857ZM35.3757 29.0532C37.6309 29.0532 39.7389 28.2958 41.2465 27.0262C42.7439 25.7653 43.5002 24.1362 43.5002 22.5272C43.5002 20.9182 42.7439 19.2891 41.2465 18.0282C39.7389 16.7586 37.6309 16.0012 35.3757 16.0012L16 16.0001V29.0532H35.3757ZM16 33.0532V47.9989L38.7505 48C38.7505 48 38.7505 48 38.7505 48C41.3041 48 43.6982 47.1427 45.4168 45.6955C47.1251 44.2569 48 42.3869 48 40.5266C48 38.6663 47.1251 36.7964 45.4168 35.3577C43.6982 33.9105 41.3041 33.0532 38.7505 33.0532H16Z" fill="#172126"/>
</svg>
