<svg width="64" height="64" viewBox="0 0 64 64" fill="none" xmlns="http://www.w3.org/2000/svg">
<path fill-rule="evenodd" clip-rule="evenodd" d="M4 12.3636C4 9.95367 5.92862 8 8.30769 8H55.6923C58.0714 8 60 9.95367 60 12.3636V51.6364C60 54.0463 58.0714 56 55.6923 56H8.30769C5.92862 56 4 54.0463 4 51.6364V12.3636ZM55.6923 12.3636H8.30769V51.6364H55.6923V12.3636Z" fill="#172126"/>
<path d="M23.6646 41.0311C22.177 41.0311 20.8704 40.7562 19.7446 40.2064C18.639 39.6566 17.7645 38.8624 17.1212 37.8239C16.4779 36.7649 16.1262 35.5024 16.0658 34.0362C16.0457 33.7104 16.0357 33.3031 16.0357 32.8144C16.0357 32.3053 16.0457 31.8879 16.0658 31.562C16.1262 30.0755 16.4679 28.8129 17.0911 27.7744C17.7344 26.7155 18.6189 25.9111 19.7446 25.3613C20.8704 24.8115 22.177 24.5366 23.6646 24.5366C24.9914 24.5366 26.1272 24.73 27.072 25.1169C28.0168 25.4835 28.7908 25.962 29.3938 26.5526C29.9969 27.1228 30.4492 27.7133 30.7508 28.3242C31.0523 28.9351 31.2131 29.4748 31.2332 29.9431C31.2533 30.1671 31.183 30.3504 31.0222 30.4929C30.8613 30.6355 30.6804 30.7068 30.4794 30.7068H27.2529C27.0318 30.7068 26.8609 30.6559 26.7403 30.554C26.6398 30.4522 26.5393 30.2893 26.4388 30.0653C26.1774 29.3526 25.8256 28.8435 25.3834 28.538C24.9411 28.2326 24.3883 28.0799 23.7249 28.0799C22.8203 28.0799 22.1067 28.3751 21.584 28.9657C21.0814 29.5562 20.8101 30.4726 20.7698 31.7148C20.7296 32.5089 20.7296 33.2319 20.7698 33.8835C20.8101 35.146 21.0814 36.0624 21.584 36.6326C22.1067 37.2028 22.8203 37.4879 23.7249 37.4879C24.4285 37.4879 24.9914 37.3351 25.4135 37.0297C25.8357 36.7242 26.1774 36.2151 26.4388 35.5024C26.5393 35.2784 26.6398 35.1155 26.7403 35.0137C26.8609 34.9119 27.0318 34.8609 27.2529 34.8609H30.4794C30.6804 34.8609 30.8613 34.9322 31.0222 35.0748C31.183 35.2173 31.2533 35.4006 31.2332 35.6246C31.2131 35.9708 31.1126 36.378 30.9317 36.8464C30.7508 37.3148 30.4693 37.7933 30.0874 38.282C29.7255 38.7708 29.2531 39.2289 28.6702 39.6566C28.0872 40.0639 27.3735 40.3999 26.5292 40.6646C25.705 40.9089 24.7502 41.0311 23.6646 41.0311Z" fill="#172126"/>
<path d="M41.1562 41.0311C39.6686 41.0311 38.3619 40.7562 37.2362 40.2064C36.1306 39.6566 35.2561 38.8624 34.6128 37.8239C33.9695 36.7649 33.6177 35.5024 33.5574 34.0362C33.5373 33.7104 33.5273 33.3031 33.5273 32.8144C33.5273 32.3053 33.5373 31.8879 33.5574 31.562C33.6177 30.0755 33.9595 28.8129 34.5827 27.7744C35.2259 26.7155 36.1105 25.9111 37.2362 25.3613C38.3619 24.8115 39.6686 24.5366 41.1562 24.5366C42.483 24.5366 43.6188 24.73 44.5636 25.1169C45.5084 25.4835 46.2824 25.962 46.8854 26.5526C47.4885 27.1228 47.9408 27.7133 48.2424 28.3242C48.5439 28.9351 48.7047 29.4748 48.7248 29.9431C48.7449 30.1671 48.6746 30.3504 48.5137 30.4929C48.3529 30.6355 48.172 30.7068 47.971 30.7068H44.7445C44.5234 30.7068 44.3525 30.6559 44.2319 30.554C44.1314 30.4522 44.0309 30.2893 43.9304 30.0653C43.669 29.3526 43.3172 28.8435 42.875 28.538C42.4327 28.2326 41.8799 28.0799 41.2165 28.0799C40.3119 28.0799 39.5983 28.3751 39.0756 28.9657C38.573 29.5562 38.3016 30.4726 38.2614 31.7148C38.2212 32.5089 38.2212 33.2319 38.2614 33.8835C38.3016 35.146 38.573 36.0624 39.0756 36.6326C39.5983 37.2028 40.3119 37.4879 41.2165 37.4879C41.9201 37.4879 42.483 37.3351 42.9051 37.0297C43.3273 36.7242 43.669 36.2151 43.9304 35.5024C44.0309 35.2784 44.1314 35.1155 44.2319 35.0137C44.3525 34.9119 44.5234 34.8609 44.7445 34.8609H47.971C48.172 34.8609 48.3529 34.9322 48.5137 35.0748C48.6746 35.2173 48.7449 35.4006 48.7248 35.6246C48.7047 35.9708 48.6042 36.378 48.4233 36.8464C48.2424 37.3148 47.9609 37.7933 47.579 38.282C47.2171 38.7708 46.7447 39.2289 46.1617 39.6566C45.5788 40.0639 44.8651 40.3999 44.0208 40.6646C43.1966 40.9089 42.2417 41.0311 41.1562 41.0311Z" fill="#172126"/>
</svg>
