<svg width="64" height="64" viewBox="0 0 64 64" fill="none" xmlns="http://www.w3.org/2000/svg">
<path fill-rule="evenodd" clip-rule="evenodd" d="M10 8C8.89543 8 8 8.89543 8 10V28C8 29.1046 8.89543 30 10 30H28C29.1046 30 30 29.1046 30 28V10C30 8.89543 29.1046 8 28 8H10ZM12 26V12H26V26H12Z" fill="#172126"/>
<path fill-rule="evenodd" clip-rule="evenodd" d="M10 34C8.89543 34 8 34.8954 8 36V54C8 55.1046 8.89543 56 10 56H28C29.1046 56 30 55.1046 30 54V36C30 34.8954 29.1046 34 28 34H10ZM12 52V38H26V52H12Z" fill="#172126"/>
<path fill-rule="evenodd" clip-rule="evenodd" d="M34 10C34 8.89543 34.8954 8 36 8H54C55.1046 8 56 8.89543 56 10V28C56 29.1046 55.1046 30 54 30H36C34.8954 30 34 29.1046 34 28V10ZM38 12V26H52V12H38Z" fill="#172126"/>
<path fill-rule="evenodd" clip-rule="evenodd" d="M36 34C34.8954 34 34 34.8954 34 36V54C34 55.1046 34.8954 56 36 56H54C55.1046 56 56 55.1046 56 54V36C56 34.8954 55.1046 34 54 34H36ZM38 52V38H52V52H38Z" fill="#172126"/>
</svg>
