<svg width="64" height="64" viewBox="0 0 64 64" fill="none" xmlns="http://www.w3.org/2000/svg">
<path fill-rule="evenodd" clip-rule="evenodd" d="M40.2178 8.714C41.3405 8.24285 42.5448 8 43.7617 8C44.9785 8 46.1828 8.24285 47.3055 8.714C48.4283 9.18513 49.4467 9.87497 50.3033 10.7428C51.1599 11.6107 51.8381 12.6395 52.3003 13.77C52.7624 14.9004 53 16.1111 53 17.3331C53 18.5552 52.7624 19.7659 52.3003 20.8963C51.839 22.0245 51.1627 23.0515 50.3085 23.9182C50.3068 23.92 50.305 23.9217 50.3033 23.9234L27.8401 46.998C26.7883 48.0635 25.3563 48.6669 23.8575 48.6669C22.3588 48.6669 20.9267 48.0634 19.875 46.9979C18.8241 45.9333 18.2383 44.4948 18.2383 43.0003C18.2383 41.5088 18.8217 40.0732 19.8685 39.0092L38.7076 19.6065C39.477 18.814 40.7432 18.7954 41.5357 19.5648C42.3282 20.3343 42.3468 21.6005 41.5774 22.3929L22.7333 41.8008L22.7218 41.8126C22.4152 42.1232 22.2383 42.5499 22.2383 43.0003C22.2383 43.4506 22.4152 43.8774 22.7218 44.188C23.0275 44.4977 23.4366 44.6669 23.8575 44.6669C24.2768 44.6669 24.6842 44.4991 24.9895 44.1917C24.9908 44.1905 24.992 44.1892 24.9933 44.188L47.4565 21.1134C47.9442 20.6194 48.3324 20.0315 48.5978 19.3825C48.8631 18.7335 49 18.0371 49 17.3331C49 16.6292 48.8631 15.9327 48.5978 15.2838C48.3324 14.6348 47.9442 14.0469 47.4565 13.5528C46.9689 13.0588 46.3914 12.6683 45.7577 12.4024C45.1241 12.1365 44.4459 12 43.7617 12C43.0774 12 42.3992 12.1365 41.7656 12.4024C41.1338 12.6675 40.5579 13.0564 40.0712 13.5483L17.6035 36.6273C15.9395 38.3132 15 40.6051 15 43.0003C15 45.3955 15.9394 47.6874 17.6035 49.3733C19.2666 51.0582 21.5168 52 23.8575 52C26.1982 52 28.4484 51.0582 30.1116 49.3733L48.6727 30.5935C49.4492 29.8079 50.7155 29.8005 51.5011 30.577C52.2867 31.3534 52.2941 32.6198 51.5177 33.4054L32.9583 52.1832C30.5491 54.624 27.276 56 23.8575 56C20.439 56 17.1659 54.624 14.7567 52.1832C12.3484 49.7434 11 46.4397 11 43.0003C11 39.5633 12.3465 36.2618 14.7516 33.8225L37.2199 10.7428C38.0766 9.87494 39.095 9.18513 40.2178 8.714Z" fill="#172126"/>
</svg>
