<svg width="64" height="64" viewBox="0 0 64 64" fill="none" xmlns="http://www.w3.org/2000/svg">
<path fill-rule="evenodd" clip-rule="evenodd" d="M41.3234 10.6399C41.6768 9.59337 41.1148 8.45853 40.0683 8.10516C39.0218 7.75179 37.887 8.3137 37.5336 9.36022L22.6765 53.3602C22.3231 54.4067 22.885 55.5415 23.9315 55.8949C24.978 56.2483 26.1129 55.6864 26.4662 54.6399L41.3234 10.6399ZM18.6313 20.6642C19.3691 21.4863 19.3007 22.7508 18.4787 23.4885L8.99442 32L18.4787 40.5115C19.3007 41.2493 19.3691 42.5138 18.6313 43.3358C17.8936 44.1579 16.6291 44.2262 15.807 43.4885L4.66418 33.4885C4.24148 33.1091 4 32.568 4 32C4 31.432 4.24148 30.8909 4.66418 30.5115L15.807 20.5115C16.6291 19.7738 17.8936 19.8421 18.6313 20.6642ZM45.3687 20.6642C46.1065 19.8421 47.3709 19.7738 48.193 20.5115L59.3359 30.5115C59.7586 30.8909 60.0001 31.432 60.0001 32C60.0001 32.568 59.7586 33.1091 59.3359 33.4885L48.193 43.4885C47.3709 44.2262 46.1065 44.1579 45.3687 43.3358C44.631 42.5138 44.6993 41.2493 45.5214 40.5115L55.0056 32L45.5214 23.4885C44.6993 22.7508 44.631 21.4863 45.3687 20.6642Z" fill="#172126"/>
</svg>
