<svg width="64" height="64" viewBox="0 0 64 64" fill="none" xmlns="http://www.w3.org/2000/svg">
<path fill-rule="evenodd" clip-rule="evenodd" d="M12 32C12 30.8954 12.8954 30 14 30H34C35.1046 30 36 30.8954 36 32C36 33.1046 35.1046 34 34 34H14C12.8954 34 12 33.1046 12 32Z" fill="#172126"/>
<path fill-rule="evenodd" clip-rule="evenodd" d="M12 24C12 22.8954 12.8954 22 14 22H34C35.1046 22 36 22.8954 36 24C36 25.1046 35.1046 26 34 26H14C12.8954 26 12 25.1046 12 24Z" fill="#172126"/>
<path fill-rule="evenodd" clip-rule="evenodd" d="M12 40C12 38.8954 12.8954 38 14 38H22C23.1046 38 24 38.8954 24 40C24 41.1046 23.1046 42 22 42H14C12.8954 42 12 41.1046 12 40Z" fill="#172126"/>
<path fill-rule="evenodd" clip-rule="evenodd" d="M28 40C28 38.8954 28.8954 38 30 38H42C43.1046 38 43.5 38.8954 43.5 40C43.5 41.1046 43.1046 42 42 42H32V54C32 55.1046 31.1046 56 30 56C28.8954 56 28 55.1046 28 54V40Z" fill="#172126"/>
<path fill-rule="evenodd" clip-rule="evenodd" d="M8 12V52H29.5977L39.969 39.324C39.9714 39.3196 39.9763 39.3096 39.9813 39.295C39.9917 39.2643 40 39.2215 40 39.1716V12H8ZM4.93137 9.31931C5.56797 8.54124 6.52759 8 7.63636 8H40.3636C41.4724 8 42.432 8.54124 43.0686 9.31931C43.6961 10.0862 44 11.0545 44 12V39.1716C44 39.647 43.9237 40.1243 43.7696 40.5789C43.6156 41.0333 43.3826 41.4686 43.0686 41.8523L32.5727 54.6807C32.2583 55.0649 31.8633 55.3961 31.3972 55.6321C30.9289 55.8692 30.4077 56 29.8677 56H7.63636C6.52759 56 5.56797 55.4588 4.93137 54.6807C4.3039 53.9138 4 52.9455 4 52V12C4 11.0545 4.3039 10.0862 4.93137 9.31931Z" fill="#172126"/>
<path fill-rule="evenodd" clip-rule="evenodd" d="M47 13C47 10.2386 49.2386 8 52 8H55C57.7614 8 60 10.2386 60 13V48C60 48.4327 59.8596 48.8538 59.6 49.2L55.1 55.2C54.7223 55.7036 54.1295 56 53.5 56C52.8705 56 52.2777 55.7036 51.9 55.2L47.4 49.2C47.1404 48.8538 47 48.4327 47 48V13ZM52 12C51.4477 12 51 12.4477 51 13V47.3333L53.5 50.6667L56 47.3333V13C56 12.4477 55.5523 12 55 12H52Z" fill="#172126"/>
<path fill-rule="evenodd" clip-rule="evenodd" d="M47 18C47 16.8954 47.8954 16 49 16H58C59.1046 16 60 16.8954 60 18C60 19.1046 59.1046 20 58 20H49C47.8954 20 47 19.1046 47 18Z" fill="#172126"/>
</svg>
