<svg width="64" height="64" viewBox="0 0 64 64" fill="none" xmlns="http://www.w3.org/2000/svg">
<path d="M17 37.9998C17 36.8952 17.8954 35.9998 19 35.9998H24V29.9998C24 28.8952 24.8954 27.9998 26 27.9998C27.1046 27.9998 28 28.8952 28 29.9998V35.9998H33C34.1046 35.9998 35 36.8952 35 37.9998C35 39.1043 34.1046 39.9998 33 39.9998H28V45.9998C28 47.1043 27.1046 47.9998 26 47.9998C24.8954 47.9998 24 47.1043 24 45.9998V39.9998H19C17.8954 39.9998 17 39.1043 17 37.9998Z" fill="#172126"/>
<path fill-rule="evenodd" clip-rule="evenodd" d="M20 9.99805C20 8.89348 20.8954 7.99805 22 7.99805H54C55.1046 7.99805 56 8.89348 56 9.99805V41.998C56 43.1026 55.1046 43.998 54 43.998H43.9998V53.9983C43.9998 55.1029 43.1043 55.9983 41.9998 55.9983H9.99976C8.89519 55.9983 7.99976 55.1029 7.99976 53.9983V21.9983C7.99976 20.8937 8.89519 19.9983 9.99976 19.9983H20V9.99805ZM52 39.998H43.9998V21.9983C43.9998 20.8937 43.1043 19.9983 41.9998 19.9983H24V11.998H52V39.998ZM11.9998 23.9983V51.9983H39.9998V23.9983H11.9998Z" fill="#172126"/>
</svg>
