<svg width="64" height="64" viewBox="0 0 64 64" fill="none" xmlns="http://www.w3.org/2000/svg">
<path fill-rule="evenodd" clip-rule="evenodd" d="M9.15638 38.3783L31.9438 15.591L31.963 15.5715L31.9825 15.5522L38.3783 9.15638C39.1188 8.41596 40.123 8 41.1701 8C42.2172 8 43.2214 8.41596 43.9618 9.15638L54.8437 20.0382C55.5841 20.7786 56.0001 21.7829 56.0001 22.83C56.0001 23.8771 55.5841 24.8813 54.8437 25.6217L28.4654 52H52.8589C53.9635 52 54.8589 52.8954 54.8589 54C54.8589 55.1046 53.9635 56 52.8589 56H23.6525C23.6473 56 23.6421 56.0001 23.6369 56.0001H11.9481C10.901 56.0001 9.8968 55.5841 9.15638 54.8437C8.41596 54.1033 8 53.099 8 52.0519V41.1701C8 40.708 8.08111 40.25 8.23919 39.8168C8.24714 39.7944 8.25549 39.7721 8.26426 39.7499C8.27597 39.7196 8.28806 39.6893 8.30053 39.6592C8.49894 39.1802 8.78976 38.745 9.15638 38.3783ZM41.1701 12.0215L36.2058 16.9858L47.0142 27.7943L51.9786 22.83L41.1701 12.0215ZM12 45.1914V52.0001H18.8086L12 45.1914ZM23.637 51.1716L12.8285 40.3631L33.3773 19.8142L44.1858 30.6227L23.637 51.1716Z" fill="#172126"/>
</svg>
