<svg width="64" height="64" viewBox="0 0 64 64" fill="none" xmlns="http://www.w3.org/2000/svg">
<path d="M28.9999 28C27.8954 28 26.9999 28.8954 26.9999 30C26.9999 31.1046 27.8954 32 28.9999 32H34.9999C36.1045 32 36.9999 31.1046 36.9999 30C36.9999 28.8954 36.1045 28 34.9999 28H28.9999Z" fill="#172126"/>
<path fill-rule="evenodd" clip-rule="evenodd" d="M25.9999 8C24.4086 8 22.8825 8.63214 21.7573 9.75736C20.6321 10.8826 19.9999 12.4087 19.9999 14V16H8.16661C6.01916 16 3.99994 17.6431 3.99994 20V31.9592C3.99937 31.9867 3.99937 32.0142 3.99994 32.0417V52C3.99994 54.3569 6.01916 56 8.16661 56H55.8333C57.9807 56 59.9999 54.3569 59.9999 52V32.0408C60.0005 32.0126 60.0005 31.9844 59.9999 31.9561V20C59.9999 17.6431 57.9807 16 55.8333 16H43.9999V14C43.9999 12.4087 43.3678 10.8826 42.2426 9.75736C41.1174 8.63214 39.5912 8 37.9999 8H25.9999ZM7.99994 51.952V35.1344C15.4499 38.3427 23.6651 40.0109 31.998 40C40.3324 40.0109 48.549 38.3421 55.9999 35.1327V51.952C55.9736 51.9722 55.9191 52 55.8333 52H8.16661C8.0808 52 8.02632 51.9722 7.99994 51.952ZM32.0007 36C40.4048 36.0114 48.658 34.1974 55.9999 30.7466V20.048C55.9736 20.0278 55.9191 20 55.8333 20H8.16661C8.0808 20 8.02632 20.0278 7.99994 20.048V30.7485C15.3409 34.1981 23.5926 36.0113 31.9953 36H32.0007ZM39.9999 16V14C39.9999 13.4696 39.7892 12.9609 39.4142 12.5858C39.0391 12.2107 38.5304 12 37.9999 12H25.9999C25.4695 12 24.9608 12.2107 24.5857 12.5858C24.2107 12.9609 23.9999 13.4696 23.9999 14V16H39.9999Z" fill="#172126"/>
</svg>
