<svg width="64" height="64" viewBox="0 0 64 64" fill="none" xmlns="http://www.w3.org/2000/svg">
<path fill-rule="evenodd" clip-rule="evenodd" d="M8.58579 52.5858C7.80474 53.3668 7.80474 54.6332 8.58579 55.4142C9.36684 56.1953 10.6332 56.1953 11.4142 55.4142L55.4142 11.4142C56.1953 10.6332 56.1953 9.36683 55.4142 8.58579C54.6332 7.80474 53.3668 7.80474 52.5858 8.58579L8.58579 52.5858ZM29.2108 52.5858C28.4297 53.3668 28.4297 54.6332 29.2108 55.4142C29.9918 56.1953 31.2582 56.1953 32.0392 55.4142L55.4142 32.0392C56.1953 31.2582 56.1953 29.9918 55.4142 29.2108C54.6332 28.4297 53.3668 28.4297 52.5858 29.2108L29.2108 52.5858Z" fill="#172126"/>
</svg>
