<svg width="64" height="64" viewBox="0 0 64 64" fill="none" xmlns="http://www.w3.org/2000/svg">
<path d="M22 34C22 32.8954 22.8954 32 24 32H40C41.1046 32 42 32.8954 42 34C42 35.1046 41.1046 36 40 36H24C22.8954 36 22 35.1046 22 34Z" fill="#172126"/>
<path d="M24 40C22.8954 40 22 40.8954 22 42C22 43.1046 22.8954 44 24 44H40C41.1046 44 42 43.1046 42 42C42 40.8954 41.1046 40 40 40H24Z" fill="#172126"/>
<path fill-rule="evenodd" clip-rule="evenodd" d="M13.998 6C12.9372 6 11.9198 6.42143 11.1696 7.17157C10.4195 7.92172 9.99805 8.93914 9.99805 10V54C9.99805 55.0609 10.4195 56.0783 11.1696 56.8284C11.9198 57.5786 12.9372 58 13.998 58H50C50.5253 58 51.0454 57.8966 51.5307 57.6955C52.016 57.4945 52.457 57.1999 52.8284 56.8284C53.1999 56.457 53.4945 56.016 53.6955 55.5307C53.8965 55.0454 54 54.5253 54 54V22.0902C54.0013 22.0603 54.002 22.0302 54.002 22C54.002 21.4206 53.7556 20.8987 53.3619 20.5335L39.4142 6.58579C39.0391 6.21071 38.5304 6 38 6H13.998ZM36 10L13.998 10L13.998 54L50 54V24H38C36.8954 24 36 23.1046 36 22V10ZM47.1716 20L40 12.8284V20H47.1716Z" fill="#172126"/>
</svg>
