<svg width="64" height="64" viewBox="0 0 64 64" fill="none" xmlns="http://www.w3.org/2000/svg">
<path d="M22 24C22 22.8954 22.8954 22 24 22H40C41.1046 22 42 22.8954 42 24C42 25.1046 41.1046 26 40 26H24C22.8954 26 22 25.1046 22 24Z" fill="#172126"/>
<path d="M22 32C22 30.8954 22.8954 30 24 30H40C41.1046 30 42 30.8954 42 32C42 33.1046 41.1046 34 40 34H24C22.8954 34 22 33.1046 22 32Z" fill="#172126"/>
<path d="M24 38C22.8954 38 22 38.8954 22 40C22 41.1046 22.8954 42 24 42H32C33.1046 42 34 41.1046 34 40C34 38.8954 33.1046 38 32 38H24Z" fill="#172126"/>
<path fill-rule="evenodd" clip-rule="evenodd" d="M13.8182 8C12.7407 8 11.7507 8.47254 11.0527 9.24044C10.3603 10.002 10 10.9974 10 12V52C10 53.0026 10.3603 53.998 11.0527 54.7596C11.7508 55.5275 12.7407 56 13.8182 56H38.5196C39.049 56 39.5678 55.885 40.0446 55.6677C40.5208 55.4508 40.9405 55.1387 41.2851 54.7596L52.9473 41.9311C53.2917 41.5524 53.5559 41.1128 53.7333 40.6417C53.9106 40.1708 54 39.6718 54 39.1716V12C54 10.9974 53.6397 10.002 52.9473 9.24044C52.2493 8.47253 51.2593 8 50.1818 8H13.8182ZM14 52V12H50V37.998H39C37.8954 37.998 37 38.8935 37 39.998V52H14ZM41 49.1268L47.4807 41.998H41V49.1268Z" fill="#172126"/>
</svg>
