<svg width="64" height="64" viewBox="0 0 64 64" fill="none" xmlns="http://www.w3.org/2000/svg">
<path d="M19 25C17.8954 25 17 25.8954 17 27C17 28.1046 17.8954 29 19 29H35C36.1046 29 37 28.1046 37 27C37 25.8954 36.1046 25 35 25H19Z" fill="#172126"/>
<path d="M17 35C17 33.8954 17.8954 33 19 33H35C36.1046 33 37 33.8954 37 35C37 36.1046 36.1046 37 35 37H19C17.8954 37 17 36.1046 17 35Z" fill="#172126"/>
<path d="M19 41C17.8954 41 17 41.8954 17 43C17 44.1046 17.8954 45 19 45H27C28.1046 45 29 44.1046 29 43C29 41.8954 28.1046 41 27 41H19Z" fill="#172126"/>
<path fill-rule="evenodd" clip-rule="evenodd" d="M18 10C18 8.89543 18.8954 8 20 8H54C55.1046 8 56 8.89543 56 10V47C56 48.1046 55.1046 49 54 49H45.9998V54C45.9998 55.1046 45.1043 56 43.9998 56H9.99976C8.89519 56 7.99976 55.1046 7.99976 54V17C7.99976 15.8954 8.89519 15 9.99976 15H18V10ZM52 45H45.9998V17C45.9998 15.8954 45.1043 15 43.9998 15H22V12H52V45ZM11.9998 19H41.9998V52H11.9998V19Z" fill="#172126"/>
</svg>
