<svg width="64" height="64" viewBox="0 0 64 64" fill="none" xmlns="http://www.w3.org/2000/svg">
<path fill-rule="evenodd" clip-rule="evenodd" d="M4 12.25C4 11.1467 4.42136 10.074 5.19396 9.27173C5.96904 8.46684 7.03672 8 8.16667 8H22.4359C22.9937 8 23.5443 8.11421 24.0553 8.33403C24.5662 8.55377 25.0253 8.8737 25.4086 9.27173L32.8506 17H55.8333C56.9446 17 58.0065 17.4459 58.7864 18.2333C59.5656 19.02 60 20.0831 60 21.1875V52.0556C60 53.0955 59.591 54.0967 58.8569 54.8379C58.1221 55.5797 57.1215 56 56.0741 56H8L7.99409 56C6.92956 55.9968 5.91341 55.5683 5.16654 54.8143C4.4203 54.0609 4.00307 53.0439 4.00001 51.9866L4 51.9808V12.25ZM8.07524 12.0463C8.11282 12.0073 8.14734 12 8.16667 12H22.4359C22.4471 12 22.46 12.0022 22.4747 12.0085C22.4896 12.0149 22.5082 12.0265 22.5273 12.0463L27.2975 17H8V12.25C8 12.1599 8.03519 12.0879 8.07524 12.0463ZM32.0032 21C32.0012 21 31.9993 21 31.9973 21H8V51.9757C8.00024 51.9881 8.00529 51.9962 8.00846 51.9994L56 52V21.1875C56 21.1316 55.9778 21.0819 55.9444 21.0481C55.9117 21.0151 55.8713 21 55.8333 21H32.0032Z" fill="#172126"/>
</svg>
