<svg width="64" height="64" viewBox="0 0 64 64" fill="none" xmlns="http://www.w3.org/2000/svg">
<path d="M54.8392 16.1846C55.5469 16.5118 55.9999 17.2204 55.9999 18V46C55.9999 47.1046 55.1045 48 53.9999 48C52.8954 48 51.9999 47.1046 51.9999 46V22.326L48.5999 25.2172C47.7584 25.9328 46.4962 25.8307 45.7807 24.9892C45.0651 24.1478 45.1672 22.8855 46.0087 22.17L52.7043 16.4764C53.2983 15.9714 54.1315 15.8575 54.8392 16.1846Z" fill="#172126"/>
<path d="M29.1304 16C30.235 16 31.1304 16.8954 31.1304 18L31.1304 32.9832C31.1305 32.9888 31.1305 32.9944 31.1305 33C31.1305 33.0056 31.1305 33.0112 31.1304 33.0168L31.1304 46C31.1304 47.1046 30.235 48 29.1304 48C28.0258 48 27.1304 47.1046 27.1304 46L27.1304 35L12 35L12 46C12 47.1046 11.1046 48 10 48C8.89543 48 8 47.1046 8 46L8 18C8 16.8954 8.89543 16 10 16C11.1046 16 12 16.8954 12 18L12 31L27.1304 31L27.1304 18C27.1304 16.8954 28.0258 16 29.1304 16Z" fill="#172126"/>
</svg>
