<svg width="64" height="64" viewBox="0 0 64 64" fill="none" xmlns="http://www.w3.org/2000/svg">
<path d="M29.1304 16C30.235 16 31.1304 16.8954 31.1304 18L31.1304 32.9835L31.1305 33L31.1304 33.0165L31.1304 46C31.1304 47.1046 30.235 48 29.1304 48C28.0258 48 27.1304 47.1046 27.1304 46L27.1304 35L12 35V46C12 47.1046 11.1046 48 10 48C8.89543 48 8 47.1046 8 46V18C8 16.8954 8.89543 16 10 16C11.1046 16 12 16.8954 12 18V31L27.1304 31L27.1304 18C27.1304 16.8954 28.0258 16 29.1304 16Z" fill="#172126"/>
<path d="M47.4941 20.2207C47.9095 20.0354 48.3286 19.9707 48.7346 20.012C49.1422 20.0534 49.5679 20.2049 49.9841 20.4918C50.4031 20.7807 50.8057 21.2033 51.1433 21.7599C51.4809 22.3164 51.7367 22.9799 51.8777 23.7112C52.0186 24.4421 52.0383 25.2069 51.9341 25.9512C51.8321 26.6805 51.616 27.3573 51.3126 27.9411L41.3111 44.9267C41.1141 45.2365 41 45.6041 41 45.9983V46C41 46.902 41.6038 47.6924 42.4741 47.9296C42.6775 47.9851 42.8837 48.0071 43.0861 47.9983H54C55.1046 47.9983 56 47.1029 56 45.9983C56 44.8938 55.1046 43.9983 54 43.9983H46.4996L54.7841 29.9287L53.0607 28.9139L54.8282 29.8499C55.3721 28.8228 55.7308 27.6832 55.8956 26.5054C56.0604 25.3273 56.0301 24.1194 55.8054 22.9539C55.5807 21.7888 55.1632 20.6742 54.5632 19.6852C53.9632 18.6961 53.1845 17.8398 52.2546 17.1987C51.3217 16.5555 50.2605 16.1463 49.1387 16.0324C48.0154 15.9184 46.8965 16.1072 45.8641 16.5679C44.8356 17.0269 43.9339 17.7364 43.1992 18.6146C42.4651 19.4921 41.9051 20.5282 41.5342 21.6451C41.1861 22.6934 41.7536 23.8254 42.8019 24.1735C43.8502 24.5217 44.9822 23.9541 45.3303 22.9058C45.5567 22.2242 45.8829 21.6406 46.2672 21.1812C46.6508 20.7227 47.0747 20.4079 47.4941 20.2207Z" fill="#172126"/>
</svg>
