<svg width="64" height="64" viewBox="0 0 64 64" fill="none" xmlns="http://www.w3.org/2000/svg">
<path d="M29.1304 16C30.235 16 31.1304 16.8954 31.1304 18L31.1304 32.9835L31.1305 33L31.1304 33.0165L31.1304 46C31.1304 47.1046 30.235 48 29.1304 48C28.0258 48 27.1304 47.1046 27.1304 46L27.1304 35L12 35V46C12 47.1046 11.1046 48 10 48C8.89543 48 8 47.1046 8 46V18C8 16.8954 8.89543 16 10 16C11.1046 16 12 16.8954 12 18V31L27.1304 31L27.1304 18C27.1304 16.8954 28.0258 16 29.1304 16Z" fill="#172126"/>
<path d="M41 16C39.8955 16 39 16.8954 39 18C39 19.1046 39.8955 20 41 20H50.3139L44.7406 28.5784C44.3411 29.1933 44.3101 29.9776 44.66 30.6221C45.0098 31.2667 45.6844 31.668 46.4177 31.668C47.308 31.668 48.1924 31.904 48.9942 32.3656C49.7971 32.8277 50.4977 33.5055 51.0227 34.3516C51.548 35.1983 51.8773 36.182 51.9718 37.2157C52.0664 38.2496 51.9221 39.2897 51.5562 40.241C51.1904 41.1921 50.6183 42.016 49.9034 42.6478C49.1894 43.2789 48.355 43.6996 47.478 43.8875C46.6018 44.0752 45.6965 44.0278 44.8378 43.7473C43.978 43.4664 43.1802 42.9564 42.5218 42.2474C41.7702 41.4379 40.5048 41.391 39.6953 42.1426C38.8859 42.8942 38.839 44.1597 39.5906 44.9691C40.6956 46.1592 42.0689 47.0507 43.5956 47.5495C45.1233 48.0486 46.7462 48.135 48.3159 47.7987C49.8848 47.4626 51.3386 46.7178 52.5524 45.645C53.7653 44.5729 54.701 43.2073 55.2896 41.6769C55.878 40.147 56.1051 38.4905 55.9552 36.8515C55.8053 35.2123 55.2819 33.6293 54.4217 32.2428C53.5611 30.8558 52.3863 29.7028 50.9898 28.8989C50.5747 28.66 50.1443 28.4544 49.7023 28.2834L55.6754 19.0896C56.075 18.4747 56.1059 17.6904 55.7561 17.0459C55.4062 16.4013 54.7317 16 53.9983 16H41Z" fill="#172126"/>
</svg>
