<svg width="64" height="64" viewBox="0 0 64 64" fill="none" xmlns="http://www.w3.org/2000/svg">
<path d="M8 16C8 14.8954 8.89543 14 10 14H54C55.1046 14 56 14.8954 56 16C56 17.1046 55.1046 18 54 18H10C8.89543 18 8 17.1046 8 16Z" fill="#172126"/>
<path d="M8 32C8 30.8954 8.89543 30 10 30H54C55.1046 30 56 30.8954 56 32C56 33.1046 55.1046 34 54 34H10C8.89543 34 8 33.1046 8 32Z" fill="#172126"/>
<path d="M10 46C8.89543 46 8 46.8954 8 48C8 49.1046 8.89543 50 10 50H54C55.1046 50 56 49.1046 56 48C56 46.8954 55.1046 46 54 46H10Z" fill="#172126"/>
</svg>
