<svg width="64" height="64" viewBox="0 0 64 64" fill="none" xmlns="http://www.w3.org/2000/svg">
<path fill-rule="evenodd" clip-rule="evenodd" d="M35.2238 15.9985L24.5571 47.9985H15.9985C14.894 47.9985 13.9985 48.894 13.9985 49.9985C13.9985 51.1031 14.894 51.9985 15.9985 51.9985H25.9503C25.9827 51.9993 26.0152 51.9993 26.0475 51.9985H35.9985C37.1031 51.9985 37.9985 51.1031 37.9985 49.9985C37.9985 48.894 37.1031 47.9985 35.9985 47.9985H28.7735L39.4401 15.9985H47.9985C49.1031 15.9985 49.9985 15.1031 49.9985 13.9985C49.9985 12.894 49.1031 11.9985 47.9985 11.9985H38.0423C38.0129 11.9979 37.9836 11.9979 37.9543 11.9985H27.9985C26.894 11.9985 25.9985 12.894 25.9985 13.9985C25.9985 15.1031 26.894 15.9985 27.9985 15.9985H35.2238Z" fill="#172126"/>
</svg>
