<svg width="64" height="64" viewBox="0 0 64 64" fill="none" xmlns="http://www.w3.org/2000/svg">
<path fill-rule="evenodd" clip-rule="evenodd" d="M23.84 10C23.84 8.89543 24.7354 8 25.84 8H54.0001C55.1046 8 56.0001 8.89543 56.0001 10V38.1601C56.0001 39.2647 55.1046 40.1601 54.0001 40.1601H48.0803V46.0802C48.0803 47.1847 47.1849 48.0802 46.0803 48.0802H40.16V53.9989C40.16 55.1034 39.2646 55.9989 38.16 55.9989H9.99988C8.89531 55.9989 7.99988 55.1034 7.99988 53.9989V25.8388C7.99988 24.7342 8.89531 23.8388 9.99988 23.8388H15.9202V17.9201C15.9202 16.8155 16.8157 15.9201 17.9202 15.9201H23.84V10ZM17.8471 27.8388C17.8714 27.8396 17.8957 27.8401 17.9202 27.8401C17.9447 27.8401 17.9691 27.8396 17.9934 27.8388H36.16V51.9989H11.9999V27.8388H17.8471ZM19.9202 23.8388V19.9201H44.0803V38.1257L44.08 38.1601L44.0803 38.1945V44.0802H40.16V25.8388C40.16 24.7342 39.2646 23.8388 38.16 23.8388H19.9202ZM52.0001 36.1601H48.0803V17.9201C48.0803 16.8155 47.1849 15.9201 46.0803 15.9201H27.84V12H52.0001V36.1601Z" fill="#172126"/>
</svg>
