<svg width="64" height="64" viewBox="0 0 64 64" fill="none" xmlns="http://www.w3.org/2000/svg">
<path fill-rule="evenodd" clip-rule="evenodd" d="M23.8398 10C23.8398 8.89543 24.7353 8 25.8398 8H53.9999C55.1045 8 55.9999 8.89543 55.9999 10V38.1601C55.9999 39.2647 55.1045 40.1601 53.9999 40.1601H48.0802V46.0802C48.0802 47.1847 47.1848 48.0802 46.0802 48.0802H40.1599V53.9989C40.1599 55.1034 39.2644 55.9989 38.1599 55.9989H9.99976C8.89519 55.9989 7.99976 55.1034 7.99976 53.9989V25.8388C7.99976 24.7342 8.89519 23.8388 9.99976 23.8388H15.9201V17.9201C15.9201 16.8155 16.8155 15.9201 17.9201 15.9201H23.8398V10ZM17.847 27.8388C17.8712 27.8396 17.8956 27.8401 17.9201 27.8401C17.9446 27.8401 17.969 27.8396 17.9932 27.8388H36.1599V51.9989H11.9998V27.8388H17.847ZM19.9201 23.8388V19.9201H44.0802V38.1257L44.0799 38.1601L44.0802 38.1945V44.0802H40.1599V25.8388C40.1599 24.7342 39.2644 23.8388 38.1599 23.8388H19.9201ZM51.9999 36.1601H48.0802V17.9201C48.0802 16.8155 47.1848 15.9201 46.0802 15.9201H27.8398V12H51.9999V36.1601Z" fill="#172126"/>
</svg>
