<svg width="64" height="64" viewBox="0 0 64 64" fill="none" xmlns="http://www.w3.org/2000/svg">
<path d="M14 15C14 16.6569 12.6569 18 11 18C9.34315 18 8 16.6569 8 15C8 13.3431 9.34315 12 11 12C12.6569 12 14 13.3431 14 15Z" fill="#172126"/>
<path d="M22 13.1579C20.8954 13.1579 20 14.0534 20 15.1579C20 16.2625 20.8954 17.1579 22 17.1579H54C55.1046 17.1579 56 16.2625 56 15.1579C56 14.0534 55.1046 13.1579 54 13.1579H22Z" fill="#172126"/>
<path d="M22.0015 30C20.8969 30 20.0015 30.8954 20.0015 32C20.0015 33.1046 20.8969 34 22.0015 34H53.9999C55.1045 34 55.9999 33.1046 55.9999 32C55.9999 30.8954 55.1045 30 53.9999 30H22.0015Z" fill="#172126"/>
<path d="M20.0015 48.8421C20.0015 47.7375 20.8969 46.8421 22.0015 46.8421H53.9999C55.1045 46.8421 55.9999 47.7375 55.9999 48.8421C55.9999 49.9466 55.1045 50.8421 53.9999 50.8421H22.0015C20.8969 50.8421 20.0015 49.9466 20.0015 48.8421Z" fill="#172126"/>
<path d="M11 35C12.6569 35 14 33.6569 14 32C14 30.3431 12.6569 29 11 29C9.34315 29 8 30.3431 8 32C8 33.6569 9.34315 35 11 35Z" fill="#172126"/>
<path d="M14 49C14 50.6569 12.6569 52 11 52C9.34315 52 8 50.6569 8 49C8 47.3431 9.34315 46 11 46C12.6569 46 14 47.3431 14 49Z" fill="#172126"/>
</svg>
