<svg width="64" height="64" viewBox="0 0 64 64" fill="none" xmlns="http://www.w3.org/2000/svg">
<path d="M14.7601 10.1892C15.4625 10.5185 15.911 11.2243 15.911 12V28C15.911 29.1046 15.0156 30 13.911 30C12.8065 30 11.911 29.1046 11.911 28V16.2653L11.279 16.7911C10.4298 17.4975 9.16876 17.3817 8.46237 16.5325C7.75598 15.6834 7.87173 14.4223 8.7209 13.7159L12.632 10.4625C13.2284 9.96638 14.0578 9.85988 14.7601 10.1892Z" fill="#172126"/>
<path d="M20.7108 16C20.7108 14.8954 21.6062 14 22.7108 14H53.9997C55.1043 14 55.9997 14.8954 55.9997 16C55.9997 17.1046 55.1043 18 53.9997 18H22.7108C21.6062 18 20.7108 17.1046 20.7108 16Z" fill="#172126"/>
<path d="M20.7125 32C20.7125 30.8954 21.608 30 22.7125 30H53.9999C55.1045 30 55.9999 30.8954 55.9999 32C55.9999 33.1046 55.1045 34 53.9999 34H22.7125C21.608 34 20.7125 33.1046 20.7125 32Z" fill="#172126"/>
<path d="M22.7125 46C21.608 46 20.7125 46.8954 20.7125 48C20.7125 49.1046 21.608 50 22.7125 50H53.9999C55.1045 50 55.9999 49.1046 55.9999 48C55.9999 46.8954 55.1045 46 53.9999 46H22.7125Z" fill="#172126"/>
<path d="M13.0475 38.076C13.205 38.0114 13.3599 37.9902 13.5081 38.004C13.6569 38.0179 13.8182 38.069 13.982 38.1728C14.1473 38.2775 14.3158 38.4367 14.462 38.6581C14.6085 38.8798 14.724 39.1513 14.7884 39.4581C14.8528 39.7648 14.8619 40.0872 14.8141 40.4007C14.7686 40.6994 14.6743 40.9718 14.5466 41.2032L8.34548 50.8749C8.12737 51.1952 7.99988 51.5823 7.99988 51.999C7.99988 52.887 8.58532 53.6696 9.43743 53.9193C9.64587 53.9804 9.85806 54.0061 10.0667 53.999H16.8443C17.9489 53.999 18.8443 53.1036 18.8443 51.999C18.8443 50.8945 17.9489 49.999 16.8443 49.999H13.6586L17.9435 43.316L16.2599 42.2365L17.9924 43.2356C18.3884 42.5489 18.6489 41.7881 18.7685 41.0031C18.8881 40.218 18.8661 39.4132 18.703 38.6362C18.5399 37.8593 18.2365 37.1148 17.7996 36.4534C17.3624 35.7916 16.7958 35.22 16.1218 34.7932C15.4462 34.3655 14.6823 34.0962 13.8795 34.0213C13.0761 33.9464 12.274 34.0701 11.5307 34.3747C10.7891 34.6786 10.1349 35.1503 9.59976 35.7377C9.06531 36.3244 8.65773 37.0171 8.388 37.763C8.01238 38.8017 8.54995 39.9483 9.58869 40.3239C10.6274 40.6996 11.774 40.162 12.1496 39.1232C12.2515 38.8414 12.3954 38.6085 12.5568 38.4314C12.7175 38.2549 12.8882 38.1412 13.0475 38.076Z" fill="#172126"/>
</svg>
