<svg width="64" height="64" viewBox="0 0 64 64" fill="none" xmlns="http://www.w3.org/2000/svg">
<path d="M24 28.96C22.8954 28.96 22 29.8555 22 30.96C22 32.0646 22.8954 32.96 24 32.96H40C41.1046 32.96 42 32.0646 42 30.96C42 29.8555 41.1046 28.96 40 28.96H24Z" fill="#172126"/>
<path d="M24 36.64C22.8954 36.64 22 37.5354 22 38.64C22 39.7446 22.8954 40.64 24 40.64H40C41.1046 40.64 42 39.7446 42 38.64C42 37.5354 41.1046 36.64 40 36.64H24Z" fill="#172126"/>
<path fill-rule="evenodd" clip-rule="evenodd" d="M22 6C22 4.89543 21.1046 4 20 4C18.8954 4 18 4.89543 18 6V8H14C12.9671 8 11.9596 8.39164 11.2033 9.11503C10.444 9.84132 10 10.8458 10 11.913V48.2609C10 50.3428 10.8655 52.3205 12.3749 53.7643C13.8813 55.2053 15.9062 56 18 56H46C48.0938 56 50.1187 55.2053 51.6251 53.7643C53.1345 52.3205 54 50.3428 54 48.2609V11.913C54 10.8458 53.556 9.84132 52.7967 9.11503C52.0404 8.39164 51.0329 8 50 8H46V6C46 4.89543 45.1046 4 44 4C42.8954 4 42 4.89543 42 6V8H34V6C34 4.89543 33.1046 4 32 4C30.8954 4 30 4.89543 30 6V8H22V6ZM42 12H34V13.68C34 14.7846 33.1046 15.68 32 15.68C30.8954 15.68 30 14.7846 30 13.68V12H22V13.68C22 14.7846 21.1046 15.68 20 15.68C18.8954 15.68 18 14.7846 18 13.68V12H14V48.2609C14 49.2231 14.3988 50.165 15.1398 50.8738C15.8838 51.5854 16.9112 52 18 52H46C47.0888 52 48.1162 51.5854 48.8602 50.8738C49.6012 50.165 50 49.2231 50 48.2609V12H46V13.68C46 14.7846 45.1046 15.68 44 15.68C42.8954 15.68 42 14.7846 42 13.68V12Z" fill="#172126"/>
</svg>
