<svg width="64" height="64" viewBox="0 0 64 64" fill="none" xmlns="http://www.w3.org/2000/svg">
<path d="M20 10C20 8.89543 19.1046 8 18 8C16.8954 8 16 8.89543 16 10V49.2472L11.3982 44.7477C10.6085 43.9755 9.34221 43.9897 8.56999 44.7795C7.79776 45.5693 7.81199 46.8355 8.60177 47.6077L16.6018 55.43C17.379 56.19 18.621 56.19 19.3982 55.43L27.3982 47.6077C28.188 46.8355 28.2022 45.5693 27.43 44.7795C26.6578 43.9897 25.3915 43.9755 24.6018 44.7477L20 49.2472V10Z" fill="#172126"/>
<path d="M27 10C27 8.89543 27.8954 8 29 8H54C55.1046 8 56 8.89543 56 10C56 11.1046 55.1046 12 54 12H29C27.8954 12 27 11.1046 27 10Z" fill="#172126"/>
<path d="M29 16.8C27.8954 16.8 27 17.6955 27 18.8C27 19.9046 27.8954 20.8 29 20.8H50C51.1046 20.8 52 19.9046 52 18.8C52 17.6955 51.1046 16.8 50 16.8H29Z" fill="#172126"/>
<path d="M27 27.6C27 26.4954 27.8954 25.6 29 25.6H47C48.1046 25.6 49 26.4954 49 27.6C49 28.7045 48.1046 29.6 47 29.6H29C27.8954 29.6 27 28.7045 27 27.6Z" fill="#172126"/>
<path d="M29 34.4C27.8954 34.4 27 35.2955 27 36.4C27 37.5046 27.8954 38.4 29 38.4H43C44.1046 38.4 45 37.5046 45 36.4C45 35.2955 44.1046 34.4 43 34.4H29Z" fill="#172126"/>
</svg>
