<svg width="64" height="64" viewBox="0 0 64 64" fill="none" xmlns="http://www.w3.org/2000/svg">
<path d="M21.1231 56C20.7976 56 20.5209 55.8963 20.293 55.6889C20.0977 55.5111 20 55.2741 20 54.9778V25.4667C20 25.1704 20.0977 24.9333 20.293 24.7556C20.5209 24.5481 20.7976 24.4444 21.1231 24.4444H23.3694C23.695 24.4444 23.9554 24.5481 24.1507 24.7556C24.3786 24.9333 24.4926 25.1704 24.4926 25.4667V27.4222C25.2739 26.4444 26.3156 25.6296 27.6178 24.9778C28.92 24.3259 30.5478 24 32.5011 24C34.3241 24 35.8705 24.2815 37.1401 24.8444C38.4423 25.4074 39.5004 26.1778 40.3142 27.1556C41.1607 28.1333 41.7955 29.2444 42.2187 30.4889C42.6419 31.7333 42.8861 33.0667 42.9512 34.4889C42.9837 34.963 43 35.4667 43 36C43 36.5333 42.9837 37.037 42.9512 37.5111C42.8861 38.9037 42.6419 40.237 42.2187 41.5111C41.7955 42.7556 41.1607 43.8667 40.3142 44.8444C39.5004 45.7926 38.4423 46.563 37.1401 47.1556C35.8705 47.7185 34.3241 48 32.5011 48C30.6129 48 29.0177 47.6889 27.7155 47.0667C26.4459 46.4148 25.4041 45.6148 24.5902 44.6667V54.9778C24.5902 55.2741 24.4926 55.5111 24.2972 55.6889C24.1019 55.8963 23.8415 56 23.5159 56H21.1231ZM31.4756 44.4C33.1684 44.4 34.4869 44.0741 35.431 43.4222C36.4076 42.7407 37.1076 41.8667 37.5308 40.8C37.954 39.7037 38.1982 38.5333 38.2633 37.2889C38.2958 36.4296 38.2958 35.5704 38.2633 34.7111C38.1982 33.4667 37.954 32.3111 37.5308 31.2444C37.1076 30.1481 36.4076 29.2741 35.431 28.6222C34.4869 27.9407 33.1684 27.6 31.4756 27.6C29.8804 27.6 28.5782 27.9407 27.569 28.6222C26.5924 29.3037 25.8599 30.1778 25.3716 31.2444C24.9158 32.2815 24.6553 33.3481 24.5902 34.4444C24.5577 34.9185 24.5414 35.4815 24.5414 36.1333C24.5414 36.7852 24.5577 37.363 24.5902 37.8667C24.6228 38.9037 24.8832 39.9259 25.3716 40.9333C25.8924 41.9407 26.6575 42.7704 27.6667 43.4222C28.6759 44.0741 29.9455 44.4 31.4756 44.4Z" fill="#172126"/>
</svg>
