<svg width="64" height="64" viewBox="0 0 64 64" fill="none" xmlns="http://www.w3.org/2000/svg">
<path d="M11.9971 13.999C11.9971 12.8945 12.8925 11.999 13.9971 11.999H50C51.1046 11.999 52 12.8945 52 13.999V21.999C52 23.1036 51.1046 23.999 50 23.999C48.8954 23.999 48 23.1036 48 21.999V15.999H33.9985V47.999H39.199C40.3036 47.999 41.199 48.8945 41.199 49.999C41.199 51.1036 40.3036 51.999 39.199 51.999H24.7979C23.6933 51.999 22.7979 51.1036 22.7979 49.999C22.7979 48.8945 23.6933 47.999 24.7979 47.999H29.9985V15.999H15.9971V21.999C15.9971 23.1036 15.1016 23.999 13.9971 23.999C12.8925 23.999 11.9971 23.1036 11.9971 21.999V13.999Z" fill="#172126"/>
</svg>
