<svg width="64" height="64" viewBox="0 0 64 64" fill="none" xmlns="http://www.w3.org/2000/svg">
<path d="M11.9971 13.9988C11.9971 12.8942 12.8925 11.9988 13.9971 11.9988H50C51.1046 11.9988 52 12.8942 52 13.9988V21.9988C52 23.1033 51.1046 23.9988 50 23.9988C48.8954 23.9988 48 23.1033 48 21.9988V15.9988H33.9985V47.9988H39.199C40.3036 47.9988 41.199 48.8942 41.199 49.9988C41.199 51.1033 40.3036 51.9988 39.199 51.9988H24.7979C23.6933 51.9988 22.7979 51.1033 22.7979 49.9988C22.7979 48.8942 23.6933 47.9988 24.7979 47.9988H29.9985V15.9988H15.9971V21.9988C15.9971 23.1033 15.1016 23.9988 13.9971 23.9988C12.8925 23.9988 11.9971 23.1033 11.9971 21.9988V13.9988Z" fill="#172126"/>
</svg>
