<svg width="64" height="64" viewBox="0 0 64 64" fill="none" xmlns="http://www.w3.org/2000/svg">
<path d="M26 26C27.1046 26 28 26.8954 28 28V44C28 45.1046 27.1046 46 26 46C24.8954 46 24 45.1046 24 44V28C24 26.8954 24.8954 26 26 26Z" fill="#172126"/>
<path d="M40 28.3334C40 27.2288 39.1046 26.3334 38 26.3334C36.8954 26.3334 36 27.2288 36 28.3334V43C36 44.1046 36.8954 45 38 45C39.1046 45 40 44.1046 40 43V28.3334Z" fill="#172126"/>
<path fill-rule="evenodd" clip-rule="evenodd" d="M26 8C24.4621 8 22.956 8.5584 21.8201 9.59963C20.6784 10.6462 20 12.1048 20 13.6667V15.3334L14.0048 15.3334L14 15.3334L13.9952 15.3334L9.99902 15.3334C8.89445 15.3334 7.99902 16.2288 7.99902 17.3334C7.99902 18.4379 8.89445 19.3334 9.99902 19.3334H12V52.1667C12 53.2423 12.4677 54.2346 13.2343 54.9374C13.9952 55.6348 14.9926 56 16 56H48C49.0074 56 50.0048 55.6348 50.7657 54.9374C51.5323 54.2346 52 53.2423 52 52.1667V19.3334H53.999C55.1036 19.3334 55.999 18.4379 55.999 17.3334C55.999 16.2288 55.1036 15.3334 53.999 15.3334L44 15.3334V13.6667C44 12.1048 43.3216 10.6462 42.1799 9.59963C41.044 8.5584 39.5379 8 38 8H26ZM40 15.3334V13.6667C40 13.2836 39.8355 12.8769 39.477 12.5483C39.1126 12.2142 38.5839 12 38 12H26C25.4161 12 24.8874 12.2142 24.523 12.5483C24.1645 12.8769 24 13.2836 24 13.6667V15.3334L40 15.3334ZM16 52V19.3334L48 19.3334V52H16Z" fill="#172126"/>
</svg>
