<svg width="64" height="64" viewBox="0 0 64 64" fill="none" xmlns="http://www.w3.org/2000/svg">
<path fill-rule="evenodd" clip-rule="evenodd" d="M19 14C19 12.8954 18.1046 12 17 12C15.8954 12 15 12.8954 15 14V28.5C15 32.9207 16.8785 37.1311 20.1735 40.2136C23.4641 43.2919 27.9002 45 32.5 45C37.0998 45 41.5359 43.2919 44.8265 40.2136C48.1215 37.1311 50 32.9207 50 28.5V14C50 12.8954 49.1046 12 48 12C46.8954 12 46 12.8954 46 14V28.5C46 31.7705 44.6124 34.9364 42.0938 37.2925C39.5708 39.6528 36.1219 41 32.5 41C28.8781 41 25.4292 39.6528 22.9062 37.2925C20.3876 34.9364 19 31.7705 19 28.5V14ZM14 48C12.8954 48 12 48.8954 12 50C12 51.1046 12.8954 52 14 52H50C51.1046 52 52 51.1046 52 50C52 48.8954 51.1046 48 50 48H14Z" fill="#172126"/>
</svg>
