<svg width="64" height="64" viewBox="0 0 64 64" fill="none" xmlns="http://www.w3.org/2000/svg">
<path fill-rule="evenodd" clip-rule="evenodd" d="M35.4597 16.0146C35.8147 15.3876 36.4795 15 37.2001 15H46.1144C47.5726 15 48.982 15.5627 50.0299 16.5814C51.0796 17.602 51.6801 18.9983 51.6801 20.4667C51.6801 21.5712 50.7846 22.4667 49.6801 22.4667C48.5755 22.4667 47.6801 21.5712 47.6801 20.4667C47.6801 20.0962 47.5292 19.729 47.2415 19.4494C46.952 19.1678 46.5475 19 46.1144 19H40.7325L46.0763 27.9065C47.0583 27.6285 48.0943 27.48 49.16 27.48C55.0308 27.48 60 31.9879 60 37.8C60 43.6121 55.0308 48.12 49.16 48.12C43.2892 48.12 38.32 43.6121 38.32 37.8C38.32 34.4586 39.9624 31.5482 42.4743 29.6777L40.4357 26.28H28.4604L34.755 36.771C35.3233 37.7182 35.0162 38.9467 34.069 39.515C33.1218 40.0833 31.8933 39.7761 31.325 38.829L24.6086 27.6349L22.4539 30.4533C24.4345 32.3073 25.68 34.8902 25.68 37.8C25.68 43.6121 20.7108 48.12 14.84 48.12C8.96919 48.12 4 43.6121 4 37.8C4 31.9879 8.96919 27.48 14.84 27.48C16.3291 27.48 17.7602 27.77 19.0669 28.2977L22.3946 23.9449L19.4276 19H14.32C13.2154 19 12.32 18.1046 12.32 17C12.32 15.8954 13.2154 15 14.32 15H20.56C21.2625 15 21.9135 15.3686 22.275 15.971L26.0604 22.28H38.0357L35.4851 18.029C35.1144 17.4111 35.1047 16.6416 35.4597 16.0146ZM16.4936 31.6637C15.9673 31.5439 15.4139 31.48 14.84 31.48C10.9464 31.48 8 34.422 8 37.8C8 41.1779 10.9464 44.12 14.84 44.12C18.7336 44.12 21.68 41.1779 21.68 37.8C21.68 36.2459 21.0563 34.784 20.0037 33.6585L15.9089 39.0147C15.238 39.8922 13.9828 40.0598 13.1053 39.3889C12.2278 38.7181 12.0603 37.4629 12.7311 36.5853L16.4936 31.6637ZM47.9651 38.829L44.5476 33.1332C43.1649 34.3073 42.32 35.9911 42.32 37.8C42.32 41.1779 45.2664 44.12 49.16 44.12C53.0536 44.12 56 41.1779 56 37.8C56 34.422 53.0536 31.48 49.16 31.48C48.8514 31.48 48.5487 31.4985 48.253 31.5342L51.3951 36.771C51.9634 37.7182 51.6562 38.9467 50.7091 39.515C49.7619 40.0833 48.5334 39.7761 47.9651 38.829Z" fill="#172126"/>
</svg>
