<svg width="64" height="64" viewBox="0 0 64 64" fill="none" xmlns="http://www.w3.org/2000/svg">
<path d="M21 42C22.6569 42 24 40.6569 24 39C24 37.3431 22.6569 36 21 36C19.3431 36 18 37.3431 18 39C18 40.6569 19.3431 42 21 42Z" fill="#172126"/>
<path d="M46 39C46 40.6569 44.6569 42 43 42C41.3431 42 40 40.6569 40 39C40 37.3431 41.3431 36 43 36C44.6569 36 46 37.3431 46 39Z" fill="#172126"/>
<path fill-rule="evenodd" clip-rule="evenodd" d="M8 12.7826C8 10.5141 8.81391 8.30325 10.3155 6.64441C11.823 4.97896 13.9129 4 16.1395 4H47.8605C50.0871 4 52.177 4.97896 53.6845 6.64441C55.1861 8.30325 56 10.5141 56 12.7826V48.9565L55.9999 48.9774V55.7391C55.9999 56.8084 55.6172 57.8691 54.8832 58.6799C54.1433 59.4974 53.0945 60 51.9534 60H45.8138C44.6727 60 43.6239 59.4974 42.884 58.6799C42.15 57.8691 41.7673 56.8084 41.7673 55.7391V50.9565H22.2326V55.7391C22.2326 56.8084 21.8499 57.8691 21.1159 58.6799C20.376 59.4974 19.3272 60 18.186 60H12.0465C10.9054 60 9.85661 59.4974 9.11665 58.6799C8.38268 57.8691 8 56.8084 8 55.7391V12.7826ZM16.1395 8C15.1096 8 14.0762 8.45023 13.281 9.32875C12.4798 10.2139 12 11.4534 12 12.7826V13.0435H52V12.7826C52 11.4534 51.5202 10.2139 50.719 9.32875C49.9238 8.45023 48.8904 8 47.8605 8H16.1395ZM12 23.2174V17.0435H52V23.2174H12ZM12 27.2174H52V46.9565H43.7798L43.7673 46.9565L43.7548 46.9565H20.245L20.2326 46.9565L20.2201 46.9565H12V27.2174ZM18.2326 50.9565H12V55.7391C12 55.869 12.0485 55.9585 12.0822 55.9956L12.0863 56H18.1463L18.1504 55.9956C18.184 55.9585 18.2326 55.869 18.2326 55.7391V50.9565ZM51.9999 55.7391V50.9565H45.7673V55.7391C45.7673 55.869 45.8159 55.9585 45.8495 55.9956L45.8536 56H51.9136L51.9177 55.9956C51.9513 55.9585 51.9999 55.869 51.9999 55.7391Z" fill="#172126"/>
</svg>
