<svg width="64" height="64" viewBox="0 0 64 64" fill="none" xmlns="http://www.w3.org/2000/svg">
<path d="M17.1428 35.2381C16.0383 35.2381 15.1428 36.1335 15.1428 37.2381C15.1428 38.3427 16.0383 39.2381 17.1428 39.2381H20.8571C21.9617 39.2381 22.8571 38.3427 22.8571 37.2381C22.8571 36.1335 21.9617 35.2381 20.8571 35.2381H17.1428Z" fill="#172126"/>
<path d="M41.1428 37.2381C41.1428 36.1335 42.0383 35.2381 43.1428 35.2381H46.8571C47.9617 35.2381 48.8571 36.1335 48.8571 37.2381C48.8571 38.3427 47.9617 39.2381 46.8571 39.2381H43.1428C42.0383 39.2381 41.1428 38.3427 41.1428 37.2381Z" fill="#172126"/>
<path fill-rule="evenodd" clip-rule="evenodd" d="M18.3498 8C17.5475 8 16.7849 8.26382 16.1552 8.72548C15.5291 9.18455 15.0667 9.81356 14.7919 10.5112L8.35257 26.8572H6C4.89543 26.8572 4 27.7526 4 28.8572C4 29.9617 4.89543 30.8572 6 30.8572H7.71429V45.619C7.71429 45.6243 7.71431 45.6296 7.71436 45.6348V51.9047C7.71436 52.9181 8.06902 53.9315 8.76161 54.7128C9.46114 55.5021 10.4653 55.9999 11.5715 55.9999H17.1429C18.2491 55.9999 19.2533 55.5021 19.9528 54.7128C20.6454 53.9315 21.0001 52.9181 21.0001 51.9047V47.619H43V51.9047C43 52.9181 43.3547 53.9315 44.0472 54.7128C44.7468 55.5021 45.751 55.9999 46.8571 55.9999H52.4286C53.5347 55.9999 54.5389 55.5021 55.2385 54.7128C55.9311 53.9315 56.2857 52.9181 56.2857 51.9047V45.6259C56.2857 45.6236 56.2857 45.6213 56.2857 45.619V30.8572H58C59.1046 30.8572 60 29.9617 60 28.8572C60 27.7526 59.1046 26.8572 58 26.8572H55.6475L49.2081 10.5112C48.9333 9.81356 48.4709 9.18454 47.8448 8.72547C47.2151 8.26381 46.4525 8 45.6502 8H18.3498ZM51.3483 26.8572L45.4954 12H18.5046L12.6518 26.8572H51.3483ZM11.7143 30.8572V43.619H18.9807C18.9872 43.619 18.9936 43.619 19.0001 43.619C19.0065 43.619 19.013 43.619 19.0194 43.619H44.9807C44.9871 43.619 44.9935 43.619 45 43.619C45.0065 43.619 45.0129 43.619 45.0193 43.619H52.2857V30.8572H11.7143ZM47 47.619V51.9047C47 51.9407 47.0053 51.9731 47.0131 51.9999H52.2726C52.2804 51.9731 52.2857 51.9407 52.2857 51.9047V47.619H47ZM17.0001 47.619H11.7144V51.9047C11.7144 51.9407 11.7197 51.9731 11.7275 51.9999H16.9869C16.9948 51.9731 17.0001 51.9407 17.0001 51.9047V47.619Z" fill="#172126"/>
</svg>
