<svg width="64" height="64" viewBox="0 0 64 64" fill="none" xmlns="http://www.w3.org/2000/svg">
<path fill-rule="evenodd" clip-rule="evenodd" d="M8 10C8 8.89543 8.89543 8 10 8H54C54.753 8 55.4422 8.42293 55.7832 9.09429C56.1242 9.76564 56.0592 10.5716 55.615 11.1797L44.9985 25.7143L55.615 40.2489C56.0592 40.8569 56.1242 41.6629 55.7832 42.3343C55.4422 43.0056 54.753 43.4286 54 43.4286H12V54C12 55.1046 11.1046 56 10 56C8.89543 56 8 55.1046 8 54V10ZM12 39.4286H50.0624L40.9067 26.894C40.3934 26.1913 40.3934 25.2373 40.9067 24.5346L50.0624 12H12V39.4286Z" fill="#172126"/>
</svg>
