<svg width="64" height="64" viewBox="0 0 64 64" fill="none" xmlns="http://www.w3.org/2000/svg">
<path fill-rule="evenodd" clip-rule="evenodd" d="M32 20C28.6863 20 26 22.6863 26 26C26 29.3137 28.6863 32 32 32C35.3137 32 38 29.3137 38 26C38 22.6863 35.3137 20 32 20ZM22 26C22 20.4772 26.4772 16 32 16C37.5228 16 42 20.4772 42 26C42 31.5228 37.5228 36 32 36C26.4772 36 22 31.5228 22 26Z" fill="#172126"/>
<path fill-rule="evenodd" clip-rule="evenodd" d="M32 8C27.2261 8 22.6477 9.89642 19.2721 13.2721C15.8964 16.6477 14 21.2261 14 26C14 34.2799 18.6237 41.8193 23.5092 47.4376C25.9275 50.2187 28.351 52.461 30.1703 54.0074C30.8898 54.6189 31.5125 55.1197 32 55.5C32.4875 55.1197 33.1102 54.6189 33.8297 54.0074C35.649 52.461 38.0725 50.2187 40.4908 47.4376C45.3763 41.8193 50 34.2799 50 26C50 21.2261 48.1036 16.6477 44.7279 13.2721C41.3523 9.89642 36.7739 8 32 8ZM32 58C30.8531 59.6385 30.8519 59.6376 30.8519 59.6376L30.8502 59.6365L30.8455 59.6332L30.8308 59.6227L30.7799 59.5866C30.7367 59.5557 30.675 59.5113 30.5962 59.4538C30.4385 59.3386 30.2118 59.1707 29.9261 58.9523C29.3549 58.5158 28.5465 57.8769 27.5797 57.0551C25.649 55.414 23.0725 53.0313 20.4908 50.0624C15.3763 44.1807 10 35.7201 10 26C10 20.1652 12.3179 14.5695 16.4437 10.4437C20.5695 6.31785 26.1652 4 32 4C37.8348 4 43.4305 6.31785 47.5564 10.4437C51.6821 14.5695 54 20.1652 54 26C54 35.7201 48.6237 44.1807 43.5092 50.0624C40.9275 53.0313 38.351 55.414 36.4203 57.0551C35.4536 57.8769 34.6451 58.5158 34.0739 58.9523C33.7882 59.1707 33.5615 59.3386 33.4038 59.4538C33.325 59.5113 33.2633 59.5557 33.2201 59.5866L33.1692 59.6227L33.1545 59.6332L33.1498 59.6365L33.1481 59.6376C33.1481 59.6376 33.1469 59.6385 32 58ZM32 58L33.1469 59.6385C32.4583 60.1205 31.5417 60.1205 30.8531 59.6385L32 58Z" fill="#172126"/>
</svg>
