<svg width="64" height="64" viewBox="0 0 64 64" fill="none" xmlns="http://www.w3.org/2000/svg">
<path fill-rule="evenodd" clip-rule="evenodd" d="M8 54C8 55.1046 8.89543 56 10 56C11.1046 56 12 55.1046 12 54L12 37H25V41.0455C25 43.1158 26.9418 44 28.2273 44H52.7727C54.0582 44 56 43.1158 56 41.0455V21.9545C56 19.8842 54.0582 19 52.7727 19H39V14.9545C39 12.8842 37.0582 12 35.7727 12H12V10C12 8.89543 11.1046 8 10 8C8.89543 8 8 8.89543 8 10V54ZM12 16V33H35V16H12ZM52 23H39V34.0455C39 36.1158 37.0582 37 35.7727 37H29V40H52V23Z" fill="#172126"/>
</svg>
