<svg width="64" height="64" viewBox="0 0 64 64" fill="none" xmlns="http://www.w3.org/2000/svg">
<path fill-rule="evenodd" clip-rule="evenodd" d="M14 60C12.8954 60 12 59.1046 12 58C12 56.8954 12.8954 56 14 56H26.3683C24.6336 54.4524 22.5638 52.4464 20.4908 50.0624C15.3763 44.1807 10 35.7201 10 26C10 20.1652 12.3179 14.5695 16.4437 10.4437C20.5695 6.31785 26.1652 4 32 4C37.8348 4 43.4305 6.31785 47.5564 10.4437C51.6821 14.5695 54 20.1652 54 26C54 35.7201 48.6237 44.1807 43.5092 50.0624C41.4362 52.4464 39.3664 54.4524 37.6317 56H50C51.1046 56 52 56.8954 52 58C52 59.1046 51.1046 60 50 60H14ZM20.5285 12.129C23.7417 9.47135 27.795 8 32 8C32.8872 8 33.7676 8.06549 34.6348 8.1938L26.1362 17.3862L20.5285 12.129ZM17.7481 15.0052C15.3311 18.1381 14 22.0004 14 26C14 27.3931 14.1309 28.7652 14.3719 30.1108L23.4207 20.3233L17.7481 15.0052ZM32.8336 16.0343L38.9652 9.40221C41.0987 10.2975 43.0601 11.6043 44.7279 13.2721C46.0488 14.5929 47.1431 16.0979 47.986 17.7267L41.8553 24.2953C41.0922 19.8521 37.3974 16.4109 32.8336 16.0343ZM24.5947 48.6511L49.534 21.9305C49.8413 23.2544 50 24.619 50 26C50 34.2799 45.3763 41.8193 40.4908 47.4376C38.0725 50.2187 35.649 52.461 33.8297 54.0074C33.1102 54.6189 32.4875 55.1197 32 55.5C31.5125 55.1197 30.8898 54.6189 30.1703 54.0074C28.6236 52.6927 26.6403 50.8751 24.5947 48.6511ZM30.979 35.9485L21.9755 45.5951C19.4325 42.3983 17.0938 38.6933 15.6156 34.6579L22.1293 27.6124C22.8469 32.039 26.4703 35.4913 30.979 35.9485ZM32 20C28.6863 20 26 22.6863 26 26C26 29.3137 28.6863 32 32 32C35.3137 32 38 29.3137 38 26C38 22.6863 35.3137 20 32 20Z" fill="#172126"/>
</svg>
