<svg width="64" height="64" viewBox="0 0 64 64" fill="none" xmlns="http://www.w3.org/2000/svg">
<path d="M16 24C18.2091 24 20 22.2091 20 20C20 17.7909 18.2091 16 16 16C13.7909 16 12 17.7909 12 20C12 22.2091 13.7909 24 16 24Z" fill="#172126"/>
<path d="M24 48C25.6569 48 27 46.6569 27 45C27 43.3431 25.6569 42 24 42C22.3431 42 21 43.3431 21 45C21 46.6569 22.3431 48 24 48Z" fill="#172126"/>
<path d="M16 46C17.6569 46 19 44.6569 19 43C19 41.3431 17.6569 40 16 40C14.3431 40 13 41.3431 13 43C13 44.6569 14.3431 46 16 46Z" fill="#172126"/>
<path d="M32 50C33.6569 50 35 48.6569 35 47C35 45.3431 33.6569 44 32 44C30.3431 44 29 45.3431 29 47C29 48.6569 30.3431 50 32 50Z" fill="#172126"/>
<path d="M40 52C41.6569 52 43 50.6569 43 49C43 47.3431 41.6569 46 40 46C38.3431 46 37 47.3431 37 49C37 50.6569 38.3431 52 40 52Z" fill="#172126"/>
<path d="M48 54C49.6569 54 51 52.6569 51 51C51 49.3431 49.6569 48 48 48C46.3431 48 45 49.3431 45 51C45 52.6569 46.3431 54 48 54Z" fill="#172126"/>
<path d="M48 32C50.2091 32 52 30.2091 52 28C52 25.7909 50.2091 24 48 24C45.7909 24 44 25.7909 44 28C44 30.2091 45.7909 32 48 32Z" fill="#172126"/>
<path fill-rule="evenodd" clip-rule="evenodd" d="M16 12C13.8783 12 11.8434 12.8429 10.3431 14.3431C8.84285 15.8434 8 17.8783 8 20C8 23.7799 10.1237 27.3193 12.5092 30.0626C13.6775 31.4062 14.851 32.4922 15.7328 33.2417C15.8254 33.3204 15.9145 33.3953 16 33.4662C16.0855 33.3953 16.1746 33.3204 16.2672 33.2417C17.149 32.4922 18.3225 31.4062 19.4908 30.0626C21.8763 27.3193 24 23.7799 24 20C24 17.8783 23.1571 15.8434 21.6569 14.3431C20.1566 12.8429 18.1217 12 16 12ZM16 36C14.8531 37.6385 14.852 37.6377 14.852 37.6377L14.8474 37.6345L14.838 37.6279L14.8086 37.6069C14.7843 37.5896 14.7507 37.5654 14.7085 37.5346C14.624 37.4729 14.5048 37.3845 14.3558 37.2707C14.0581 37.0431 13.6402 36.7128 13.1422 36.2895C12.149 35.4453 10.8225 34.2188 9.49079 32.6874C6.87631 29.6807 4 25.2201 4 20C4 16.8174 5.26428 13.7652 7.51472 11.5147C9.76516 9.26428 12.8174 8 16 8C19.1826 8 22.2348 9.26428 24.4853 11.5147C26.7357 13.7652 28 16.8174 28 20C28 25.2201 25.1237 29.6807 22.5092 32.6874C21.1775 34.2188 19.851 35.4453 18.8578 36.2895C18.3598 36.7128 17.9419 37.0431 17.6442 37.2707C17.4952 37.3845 17.376 37.4729 17.2915 37.5346C17.2493 37.5654 17.2157 37.5896 17.1914 37.6069L17.162 37.6279L17.1526 37.6345L17.148 37.6377C17.148 37.6377 17.1469 37.6385 16 36ZM16 36L17.1469 37.6385C16.4583 38.1205 15.5417 38.1205 14.8531 37.6385L16 36Z" fill="#172126"/>
<path fill-rule="evenodd" clip-rule="evenodd" d="M48 20C45.8783 20 43.8434 20.8429 42.3431 22.3431C40.8429 23.8434 40 25.8783 40 28C40 31.7799 42.1237 35.3193 44.5092 38.0626C45.6775 39.4062 46.851 40.4922 47.7328 41.2417C47.8254 41.3204 47.9145 41.3953 48 41.4662C48.0855 41.3953 48.1746 41.3204 48.2672 41.2417C49.149 40.4922 50.3225 39.4062 51.4908 38.0626C53.8763 35.3193 56 31.7799 56 28C56 25.8783 55.1571 23.8434 53.6569 22.3431C52.1566 20.8429 50.1217 20 48 20ZM48 44C46.8531 45.6385 46.852 45.6377 46.852 45.6377L46.8474 45.6345L46.838 45.6279L46.8086 45.6069C46.7843 45.5896 46.7507 45.5654 46.7085 45.5346C46.624 45.4729 46.5048 45.3845 46.3558 45.2707C46.0581 45.0431 45.6402 44.7128 45.1422 44.2895C44.149 43.4453 42.8225 42.2188 41.4908 40.6874C38.8763 37.6807 36 33.2201 36 28C36 24.8174 37.2643 21.7652 39.5147 19.5147C41.7652 17.2643 44.8174 16 48 16C51.1826 16 54.2348 17.2643 56.4853 19.5147C58.7357 21.7652 60 24.8174 60 28C60 33.2201 57.1237 37.6807 54.5092 40.6874C53.1775 42.2188 51.851 43.4453 50.8578 44.2895C50.3598 44.7128 49.9419 45.0431 49.6442 45.2707C49.4952 45.3845 49.376 45.4729 49.2915 45.5346C49.2493 45.5654 49.2157 45.5896 49.1914 45.6069L49.162 45.6279L49.1526 45.6345L49.148 45.6377C49.148 45.6377 49.1469 45.6385 48 44ZM48 44L49.1469 45.6385C48.4583 46.1205 47.5417 46.1205 46.8531 45.6385L48 44Z" fill="#172126"/>
</svg>
