<svg width="64" height="64" viewBox="0 0 64 64" fill="none" xmlns="http://www.w3.org/2000/svg">
<path fill-rule="evenodd" clip-rule="evenodd" d="M8 12C8 9.79086 9.79086 8 12 8H52C54.2091 8 56 9.79086 56 12V52C56 54.2091 54.2091 56 52 56H12C9.79086 56 8 54.2091 8 52V12ZM52 12H12V52H52V12Z" fill="#172126"/>
<path fill-rule="evenodd" clip-rule="evenodd" d="M30.2054 16.5445C30.7384 16.1874 31.3642 16 32 16C32.6358 16 33.2616 16.1874 33.7946 16.5445C34.323 16.8984 34.7385 17.4051 34.9774 18.0052L37.9624 25.3018L45.9889 25.8074C48.8972 25.9906 50.0921 29.6553 47.8065 31.5018L41.6823 36.4496L43.6537 43.9772C44.3916 46.795 41.3112 49.0254 38.8629 47.5197L32 43.2992L25.6514 47.2035C23.0171 48.8235 19.7058 46.423 20.4989 43.3945L22.3177 36.4496L16.1935 31.5018C13.9079 29.6553 15.1028 25.9906 18.0111 25.8074L26.0376 25.3018L29.0226 18.0052C29.2615 17.405 29.6771 16.8984 30.2054 16.5445ZM32.4151 43.044L32.4115 43.0462L32.4151 43.044ZM31.5885 43.0462L32.6362 41.3426L31.5849 43.044L31.5885 43.0462ZM33.6851 39.6397L33.6875 39.6412L39.2847 43.0833L37.6839 36.9707L37.6831 36.9678C37.5255 36.3703 37.5447 35.741 37.7378 35.1546C37.9311 34.5677 38.2884 34.0541 38.76 33.6682L38.7696 33.6604L43.7069 29.6716L37.206 29.262C36.6107 29.2208 36.0344 29.016 35.5448 28.6651C35.0573 28.3158 34.6734 27.8339 34.4456 27.2694L32 21.2914L29.5543 27.2696C29.3266 27.834 28.9427 28.3158 28.4552 28.6651C27.9656 29.016 27.3893 29.2207 26.794 29.262L26.7814 29.2629L20.2931 29.6716L25.24 33.6682C25.7116 34.0541 26.0689 34.5677 26.2622 35.1546C26.4553 35.7408 26.4745 36.3699 26.3171 36.9673L26.3161 36.9707L24.7153 43.0833L30.3125 39.6412L30.3149 39.6397C30.8232 39.3262 31.4075 39.1627 32 39.1627C32.5925 39.1627 33.1768 39.3262 33.6851 39.6397ZM32.7409 19.4796C32.7393 19.4838 32.7376 19.488 32.7359 19.4922L32.7409 19.4796ZM31.2641 19.4922C31.2624 19.488 31.2607 19.4838 31.2591 19.4796L31.2641 19.4922ZM41.5506 35.9468L41.552 35.9521L41.5506 35.9468Z" fill="#172126"/>
</svg>
