<svg width="64" height="64" viewBox="0 0 64 64" fill="none" xmlns="http://www.w3.org/2000/svg">
<path d="M32.9331 46.6812L43.6021 53.711C44.9659 54.6096 46.6591 53.2732 46.2545 51.6176L43.1719 39.0066C43.0851 38.6554 43.0954 38.2858 43.2016 37.9404C43.3078 37.5949 43.5056 37.2877 43.7722 37.0539L53.3395 28.7724C54.5966 27.6842 53.9478 25.5144 52.3326 25.4054L39.8384 24.5621C39.5018 24.5371 39.1791 24.4132 38.9076 24.2048C38.6362 23.9964 38.4272 23.7121 38.3052 23.385L33.6453 11.1809C33.5186 10.8337 33.2934 10.5348 32.9996 10.3239C32.7057 10.113 32.3571 10 32 10C31.6429 10 31.2943 10.113 31.0005 10.3239C30.7066 10.5348 30.4814 10.8337 30.3547 11.1809L25.6949 23.385C25.5728 23.7121 25.3638 23.9964 25.0924 24.2048C24.821 24.4132 24.4982 24.5371 24.1616 24.5621L11.6674 25.4054C10.0522 25.5144 9.4034 27.6842 10.6605 28.7724L20.2278 37.0539C20.4944 37.2877 20.6922 37.5949 20.7984 37.9404C20.9046 38.2858 20.9149 38.6554 20.8281 39.0066L17.9694 50.7019C17.4838 52.6886 19.5156 54.2923 21.1522 53.214L31.0669 46.6812C31.3457 46.4966 31.6694 46.3985 32 46.3985C32.3306 46.3985 32.6543 46.4966 32.9331 46.6812Z" fill="#172126" stroke="#172126" stroke-width="4" stroke-linecap="round" stroke-linejoin="round"/>
</svg>
