<svg width="64" height="64" viewBox="0 0 64 64" fill="none" xmlns="http://www.w3.org/2000/svg">
<path fill-rule="evenodd" clip-rule="evenodd" d="M57.4142 6.58579C58.1953 7.36683 58.1953 8.63317 57.4142 9.41421L33.4142 33.4142C32.6332 34.1953 31.3668 34.1953 30.5858 33.4142C29.8047 32.6332 29.8047 31.3668 30.5858 30.5858L54.5858 6.58579C55.3668 5.80474 56.6332 5.80474 57.4142 6.58579Z" fill="#172126"/>
<path fill-rule="evenodd" clip-rule="evenodd" d="M15.2724 12.1548C20.2439 7.95589 26.6103 5.77591 33.1121 6.0461C39.6139 6.31629 45.7775 9.01698 50.3835 13.6139C51.1653 14.3942 51.1665 15.6605 50.3863 16.4423C49.606 17.2241 48.3396 17.2254 47.5578 16.4451C43.6611 12.5561 38.4466 10.2712 32.946 10.0427C27.4454 9.81406 22.0593 11.6584 17.8534 15.2107C13.6474 18.763 10.928 23.7646 10.233 29.2259C9.53804 34.6872 10.9182 40.2105 14.1004 44.7029C17.2827 49.1954 22.0352 52.3299 27.4177 53.4862C32.8003 54.6425 38.4208 53.7365 43.1674 50.9473C47.9139 48.1581 51.4407 43.689 53.05 38.4241C54.6593 33.1592 54.2339 27.4821 51.858 22.5158C51.3813 21.5194 51.8026 20.3252 52.799 19.8485C53.7954 19.3718 54.9896 19.7931 55.4663 20.7895C58.2747 26.6597 58.7775 33.3702 56.8753 39.5934C54.973 45.8166 50.8043 51.0991 45.1939 54.396C39.5834 57.6928 32.9399 58.7637 26.5776 57.397C20.2153 56.0302 14.5978 52.3252 10.8364 47.015C7.07491 41.7049 5.44354 35.1763 6.265 28.7209C7.08646 22.2656 10.3009 16.3537 15.2724 12.1548Z" fill="#172126"/>
<path fill-rule="evenodd" clip-rule="evenodd" d="M24.057 20.472C26.7523 18.6148 30.0132 17.7607 33.2729 18.0582C36.5325 18.3557 39.5849 19.786 41.8995 22.1004C42.6806 22.8815 42.6806 24.1478 41.8996 24.9289C41.1186 25.7099 39.8522 25.71 39.0712 24.9289C37.4179 23.2758 35.2376 22.2542 32.9093 22.0417C30.581 21.8292 28.2518 22.4392 26.3266 23.7658C24.4014 25.0924 23.0019 27.0516 22.3713 29.303C21.7407 31.5543 21.919 33.9555 22.875 36.0891C23.8311 38.2227 25.5045 39.9538 27.6045 40.9816C29.7044 42.0094 32.0982 42.2689 34.3696 41.715C36.641 41.1611 38.6466 39.8288 40.0376 37.9496C41.4287 36.0705 42.1173 33.7633 41.9839 31.4291C41.9208 30.3263 42.7637 29.3812 43.8664 29.3182C44.9692 29.2551 45.9143 30.098 45.9773 31.2007C46.1642 34.4686 45.2001 37.6987 43.2526 40.3295C41.3051 42.9604 38.4973 44.8256 35.3173 45.6011C32.1373 46.3766 28.786 46.0133 25.846 44.5744C22.9061 43.1354 20.5632 40.7118 19.2247 37.7248C17.8863 34.7377 17.6367 31.3761 18.5195 28.2241C19.4024 25.0722 21.3617 22.3293 24.057 20.472Z" fill="#172126"/>
</svg>
