<svg width="64" height="64" viewBox="0 0 64 64" fill="none" xmlns="http://www.w3.org/2000/svg">
<path fill-rule="evenodd" clip-rule="evenodd" d="M36.0001 12C34.3432 12 33.0001 13.3431 33.0001 15C33.0001 16.6569 34.3432 18 36.0001 18C37.6569 18 39.0001 16.6569 39.0001 15C39.0001 13.3431 37.6569 12 36.0001 12ZM29.0001 15C29.0001 11.134 32.1341 8 36.0001 8C39.8661 8 43.0001 11.134 43.0001 15C43.0001 18.866 39.8661 22 36.0001 22C32.1341 22 29.0001 18.866 29.0001 15Z" fill="#172126"/>
<path fill-rule="evenodd" clip-rule="evenodd" d="M21.1247 33.172C20.1775 32.6037 19.8704 31.3752 20.4387 30.428L23.504 25.3192C23.7646 24.8849 24.1802 24.5656 24.6671 24.4258L31.7859 22.3823C32.6719 22.128 33.617 22.5121 34.0743 23.3124L37.7097 29.6744L41.9259 30.5176C43.009 30.7342 43.7114 31.7879 43.4948 32.871C43.2782 33.9541 42.2245 34.6566 41.1414 34.4399L36.0326 33.4182C35.4655 33.3048 34.9753 32.9514 34.6883 32.4493L33.0217 29.5327L31.5163 35.2147L38.4226 42.8914C38.634 43.1264 38.7867 43.4083 38.8682 43.7138L41.4561 53.4205C41.7407 54.4878 41.1061 55.5837 40.0388 55.8683C38.9715 56.1528 37.8757 55.5183 37.5911 54.451L35.1271 45.2091L27.8191 37.0858C27.3677 36.584 27.1998 35.8884 27.3726 35.236L29.5018 27.1995L26.5284 28.0531L23.8687 32.486C23.3004 33.4332 22.0718 33.7403 21.1247 33.172Z" fill="#172126"/>
<path fill-rule="evenodd" clip-rule="evenodd" d="M19.1732 55.3499C18.3921 54.5689 18.3921 53.3026 19.1732 52.5215L24.3811 47.3136L25.2765 43.2843C25.5161 42.206 26.5844 41.5261 27.6627 41.7657C28.741 42.0054 29.4208 43.0737 29.1812 44.152L28.1595 48.7499C28.0769 49.1212 27.8903 49.4613 27.6213 49.7303L22.0016 55.3499C21.2206 56.131 19.9542 56.131 19.1732 55.3499Z" fill="#172126"/>
</svg>
