<svg width="64" height="64" viewBox="0 0 64 64" fill="none" xmlns="http://www.w3.org/2000/svg">
<path fill-rule="evenodd" clip-rule="evenodd" d="M10 8C8.89543 8 8 8.89543 8 10C8 11.1046 8.89543 12 10 12H13.698L19.4263 44.2329C17.3943 45.2543 16 47.358 16 49.7873C16 53.2185 18.7816 56.0001 22.2128 56.0001C25.644 56.0001 28.4256 53.2185 28.4256 49.7873C28.4256 49.0079 28.2821 48.262 28.02 47.5746H41.1715C40.9095 48.262 40.7659 49.0079 40.7659 49.7873C40.7659 53.2185 43.5475 56.0001 46.9787 56.0001C50.4099 56.0001 53.1915 53.2185 53.1915 49.7873C53.1915 46.3561 50.4099 43.5745 46.9787 43.5745C46.8785 43.5745 46.7788 43.5769 46.6797 43.5816C46.624 43.5769 46.5677 43.5746 46.5107 43.5746H23.372L22.4191 38.2128H47.9368C49.2322 38.2128 50.48 37.7473 51.4635 36.9076C52.4459 36.0687 53.1014 34.9113 53.3271 33.6417L55.969 18.7755C56.0726 18.193 55.9129 17.5945 55.5328 17.141C55.1528 16.6875 54.5916 16.4255 53.9999 16.4255H18.5471L17.6026 11.1106C17.4498 10.2508 17.0054 9.46405 16.3356 8.89211C15.6647 8.31928 14.8111 8 13.9229 8H10ZM19.258 20.4255L21.7082 34.2128H47.9368C48.27 34.2128 48.5992 34.0935 48.8661 33.8656C49.1341 33.6368 49.3231 33.3115 49.3888 32.9418L51.6131 20.4255H19.258ZM20 49.7873C20 48.5689 20.9848 47.5805 22.2018 47.5746H22.2238C23.4408 47.5805 24.4256 48.5689 24.4256 49.7873C24.4256 51.0094 23.4349 52.0001 22.2128 52.0001C20.9907 52.0001 20 51.0094 20 49.7873ZM44.7659 49.7873C44.7659 48.5652 45.7566 47.5745 46.9787 47.5745C48.2008 47.5745 49.1915 48.5652 49.1915 49.7873C49.1915 51.0094 48.2008 52.0001 46.9787 52.0001C45.7566 52.0001 44.7659 51.0094 44.7659 49.7873Z" fill="#172126"/>
</svg>
