<svg width="64" height="64" viewBox="0 0 64 64" fill="none" xmlns="http://www.w3.org/2000/svg">
<path fill-rule="evenodd" clip-rule="evenodd" d="M4 18C4 14.5386 6.98927 12 10.3333 12H53.6667C57.0107 12 60 14.5386 60 18V46C60 49.4614 57.0107 52 53.6667 52H10.3333C6.98927 52 4 49.4614 4 46V18ZM10.3333 16C8.89093 16 8 17.0431 8 18V20H56V18C56 17.0431 55.1091 16 53.6667 16H10.3333ZM56 24H8V28H21.3856C22.3049 27.9999 23.215 28.2921 23.9599 28.8541C24.707 29.4176 25.2521 30.2279 25.4594 31.1676C25.7512 32.4859 26.5349 33.7053 27.7216 34.5995C28.911 35.4958 30.422 36 32 36C33.578 36 35.089 35.4958 36.2784 34.5995C37.4647 33.7056 38.2483 32.4867 38.5403 31.1689C38.7474 30.2287 39.2927 29.4179 40.0401 28.8541C40.785 28.2922 41.6947 27.9999 42.614 28H56V24ZM56 46V32H42.614C42.5352 32 42.477 32.0262 42.449 32.0474C42.4459 32.0497 42.4433 32.0519 42.4413 32.0537C41.9296 34.3401 40.5883 36.3603 38.6857 37.794C36.7798 39.2302 34.4177 40 32 40C29.5823 40 27.2202 39.2302 25.3143 37.794C23.4117 36.3603 22.0704 34.3401 21.5588 32.0537C21.5567 32.0519 21.5542 32.0497 21.551 32.0474C21.523 32.0262 21.4652 32 21.3863 32H8V46C8 46.9569 8.89093 48 10.3333 48H53.6667C55.1091 48 56 46.9569 56 46Z" fill="#172126"/>
</svg>
