<svg width="64" height="64" viewBox="0 0 64 64" fill="none" xmlns="http://www.w3.org/2000/svg">
<path fill-rule="evenodd" clip-rule="evenodd" d="M32 22.4286C26.7928 22.4286 22.5715 26.6499 22.5715 31.8572C22.5715 37.0644 26.7928 41.2857 32 41.2857C37.2073 41.2857 41.4286 37.0644 41.4286 31.8572C41.4286 26.6499 37.2073 22.4286 32 22.4286ZM26.5715 31.8572C26.5715 28.859 29.0019 26.4286 32 26.4286C34.9982 26.4286 37.4286 28.859 37.4286 31.8572C37.4286 34.8553 34.9982 37.2857 32 37.2857C29.0019 37.2857 26.5715 34.8553 26.5715 31.8572Z" fill="#172126"/>
<path fill-rule="evenodd" clip-rule="evenodd" d="M20.8564 15H43.1437C43.1436 15 43.1437 15 43.1437 15H56.1429C58.2731 15 60 16.7269 60 18.8571V29.9829C60.0001 29.9949 60.0001 30.0068 60 30.0187V33.6956C60.0001 33.7075 60.0001 33.7195 60 33.7314V44.8571C60 46.9874 58.2731 48.7143 56.1429 48.7143H43.1594C43.1489 48.7144 43.1385 48.7144 43.128 48.7143H20.872C20.8616 48.7144 20.8511 48.7144 20.8407 48.7143H7.85714C5.7269 48.7143 4 46.9874 4 44.8571V33.7136C4 33.7136 4 33.7135 4 33.7136V30.0009C4 30.0009 4 30.0009 4 30.0009V18.8571C4 16.7269 5.7269 15 7.85714 15H20.8564C20.8564 15 20.8564 15 20.8564 15ZM8 32.8068V30.9076L21.6087 19H42.3914L56 30.9075V32.8068L42.3915 44.7143H21.6086L8 32.8068ZM8 38.1218V44.7143H15.5342L8 38.1218ZM48.4659 44.7143H56V38.1219L48.4659 44.7143ZM56 25.5924V19H48.4658L56 25.5924ZM15.5343 19L8 25.5925V19H15.5343Z" fill="#172126"/>
</svg>
