<svg width="64" height="64" viewBox="0 0 64 64" fill="none" xmlns="http://www.w3.org/2000/svg">
<path d="M34 18C34 16.8954 33.1046 16 32 16C30.8954 16 30 16.8954 30 18V20H29C27.1435 20 25.363 20.7375 24.0503 22.0503C22.7375 23.363 22 25.1435 22 27C22 28.8565 22.7375 30.637 24.0503 31.9497C25.363 33.2625 27.1435 34 29 34H35C35.7957 34 36.5587 34.3161 37.1213 34.8787C37.6839 35.4413 38 36.2043 38 37C38 37.7957 37.6839 38.5587 37.1213 39.1213C36.5587 39.6839 35.7957 40 35 40H26C24.8954 40 24 40.8954 24 42C24 43.1046 24.8954 44 26 44H30V46C30 47.1046 30.8954 48 32 48C33.1046 48 34 47.1046 34 46V44H35C36.8565 44 38.637 43.2625 39.9497 41.9497C41.2625 40.637 42 38.8565 42 37C42 35.1435 41.2625 33.363 39.9497 32.0503C38.637 30.7375 36.8565 30 35 30H29C28.2043 30 27.4413 29.6839 26.8787 29.1213C26.3161 28.5587 26 27.7957 26 27C26 26.2043 26.3161 25.4413 26.8787 24.8787C27.4413 24.3161 28.2043 24 29 24H38C39.1046 24 40 23.1046 40 22C40 20.8954 39.1046 20 38 20H34V18Z" fill="#172126"/>
<path fill-rule="evenodd" clip-rule="evenodd" d="M6 32C6 17.6406 17.6406 6 32 6C46.3594 6 58 17.6406 58 32C58 46.3594 46.3594 58 32 58C17.6406 58 6 46.3594 6 32ZM32 10C19.8497 10 10 19.8497 10 32C10 44.1503 19.8497 54 32 54C44.1503 54 54 44.1503 54 32C54 19.8497 44.1503 10 32 10Z" fill="#172126"/>
</svg>
