<svg width="64" height="64" viewBox="0 0 64 64" fill="none" xmlns="http://www.w3.org/2000/svg">
<path d="M41.9985 40C40.894 40 39.9985 40.8954 39.9985 42C39.9985 43.1046 40.894 44 41.9985 44H49.9985C51.1031 44 51.9985 43.1046 51.9985 42C51.9985 40.8954 51.1031 40 49.9985 40H41.9985Z" fill="#172126"/>
<path d="M27.9985 42C27.9985 40.8954 28.894 40 29.9985 40H33.9985C35.1031 40 35.9985 40.8954 35.9985 42C35.9985 43.1046 35.1031 44 33.9985 44H29.9985C28.894 44 27.9985 43.1046 27.9985 42Z" fill="#172126"/>
<path fill-rule="evenodd" clip-rule="evenodd" d="M8 12C5.79086 12 4 13.7909 4 16V24.1358C3.99903 24.1614 3.99854 24.1872 3.99854 24.2131C3.99854 24.2389 3.99903 24.2647 4 24.2903V48C4 50.2091 5.79086 52 8 52H56C58.2091 52 60 50.2091 60 48V16C60 13.7909 58.2091 12 56 12H8ZM8 26.2131V48H56V26.2131H8ZM56 22.2131V16H8V22.2131H56Z" fill="#172126"/>
</svg>
