<svg width="64" height="64" viewBox="0 0 64 64" fill="none" xmlns="http://www.w3.org/2000/svg">
<path fill-rule="evenodd" clip-rule="evenodd" d="M12 32.897C13.1046 32.897 14 33.7925 14 34.897V52H50V34.8974C50 33.7929 50.8955 32.8974 52 32.8974C53.1046 32.8974 54 33.7929 54 34.8974V52C54 53.0609 53.5786 54.0783 52.8284 54.8284C52.0783 55.5786 51.0609 56 50 56H14C12.9392 56 11.9217 55.5786 11.1716 54.8284C10.4214 54.0783 10 53.0609 10 52V34.897C10 33.7925 10.8954 32.897 12 32.897Z" fill="#172126"/>
<path fill-rule="evenodd" clip-rule="evenodd" d="M11.0998 8.80661C11.7938 8.28315 12.6394 8 13.5086 8H50.4914C51.3607 8 52.2062 8.28315 52.9002 8.80661C53.5942 9.33006 54.0987 10.0653 54.3375 10.9011L57.9231 23.4506C58.0955 24.054 57.9746 24.7034 57.5967 25.2044C57.2188 25.7054 56.6276 26 56 26H8.00002C7.37244 26 6.78125 25.7054 6.40332 25.2044C6.02539 24.7034 5.90456 24.054 6.07697 23.4506L9.66252 10.9011C9.90132 10.0653 10.4059 9.33006 11.0998 8.80661ZM50.4914 12L13.5086 12L10.6515 22H53.3486L50.4914 12Z" fill="#172126"/>
<path fill-rule="evenodd" clip-rule="evenodd" d="M8.00002 22C9.10459 22 10 22.8954 10 24V28C10 29.5913 10.6322 31.1174 11.7574 32.2426C12.8826 33.3679 14.4087 34 16 34C17.5913 34 19.1174 33.3679 20.2427 32.2426C21.3679 31.1174 22 29.5913 22 28V24C22 22.8954 22.8954 22 24 22C25.1046 22 26 22.8954 26 24V28C26 30.6522 24.9464 33.1957 23.0711 35.0711C21.1957 36.9464 18.6522 38 16 38C13.3479 38 10.8043 36.9464 8.92895 35.0711C7.05359 33.1957 6.00002 30.6522 6.00002 28V24C6.00002 22.8954 6.89545 22 8.00002 22Z" fill="#172126"/>
<path fill-rule="evenodd" clip-rule="evenodd" d="M24 22C25.1046 22 26 22.8954 26 24V28C26 29.5913 26.6322 31.1174 27.7574 32.2426C28.8826 33.3679 30.4087 34 32 34C33.5913 34 35.1174 33.3679 36.2427 32.2426C37.3679 31.1174 38 29.5913 38 28V24C38 22.8954 38.8955 22 40 22C41.1046 22 42 22.8954 42 24V28C42 30.6522 40.9464 33.1957 39.0711 35.0711C37.1957 36.9464 34.6522 38 32 38C29.3479 38 26.8043 36.9464 24.9289 35.0711C23.0536 33.1957 22 30.6522 22 28V24C22 22.8954 22.8954 22 24 22Z" fill="#172126"/>
<path fill-rule="evenodd" clip-rule="evenodd" d="M40 22C41.1046 22 42 22.8954 42 24V28C42 29.5913 42.6322 31.1174 43.7574 32.2426C44.8826 33.3679 46.4087 34 48 34C49.5913 34 51.1174 33.3679 52.2427 32.2426C53.3679 31.1174 54 29.5913 54 28V24C54 22.8954 54.8955 22 56 22C57.1046 22 58 22.8954 58 24V28C58 30.6522 56.9464 33.1957 55.0711 35.0711C53.1957 36.9464 50.6522 38 48 38C45.3479 38 42.8043 36.9464 40.929 35.0711C39.0536 33.1957 38 30.6522 38 28V24C38 22.8954 38.8955 22 40 22Z" fill="#172126"/>
</svg>
