<svg width="64" height="64" viewBox="0 0 64 64" fill="none" xmlns="http://www.w3.org/2000/svg">
<path d="M32 25C33.1046 25 34 25.8954 34 27V37C34 38.1046 33.1046 39 32 39C30.8954 39 30 38.1046 30 37V27C30 25.8954 30.8954 25 32 25Z" fill="#172126"/>
<path d="M35 46C35 47.6569 33.6569 49 32 49C30.3431 49 29 47.6569 29 46C29 44.3431 30.3431 43 32 43C33.6569 43 35 44.3431 35 46Z" fill="#172126"/>
<path fill-rule="evenodd" clip-rule="evenodd" d="M29.1295 8.79461C29.9976 8.27601 30.9878 8 32 8C33.0122 8 34.0024 8.27601 34.8705 8.79461C35.738 9.31286 36.4501 10.053 36.9423 10.934L57.2492 47.2815C57.7419 48.1635 57.9992 49.1591 58 50.169C58.0008 51.1788 57.7451 52.1749 57.2538 53.0577C56.7623 53.9408 56.0499 54.6831 55.1814 55.203C54.3124 55.7231 53.3207 56 52.3068 56H11.6932C10.6793 56 9.68761 55.7231 8.81855 55.2029C7.95009 54.6831 7.23774 53.9408 6.7462 53.0577C6.2549 52.1749 5.9992 51.1788 6 50.169C6.00081 49.1591 6.2581 48.1635 6.75084 47.2815L27.0577 10.934C27.5499 10.053 28.262 9.31286 29.1295 8.79461ZM32 12C31.717 12 31.4348 12.0768 31.1809 12.2285C30.9264 12.3806 30.7063 12.6045 30.5497 12.8849L10.2428 49.2324C10.0857 49.5137 10.0003 49.838 10 50.1722C9.99974 50.5063 10.0846 50.8309 10.2413 51.1124C10.3978 51.3936 10.618 51.6182 10.8728 51.7708C11.1271 51.9229 11.4098 52 11.6932 52H52.3068C52.5902 52 52.8729 51.9229 53.1272 51.7708C53.382 51.6182 53.6022 51.3936 53.7587 51.1124C53.9154 50.8309 54.0003 50.5063 54 50.1722C53.9997 49.838 53.9143 49.5137 53.7572 49.2324L33.4503 12.8849C33.2937 12.6045 33.0736 12.3806 32.8191 12.2285C32.5652 12.0768 32.2829 12 32 12Z" fill="#172126"/>
</svg>
