<svg width="64" height="64" viewBox="0 0 64 64" fill="none" xmlns="http://www.w3.org/2000/svg">
<path d="M44.381 27.4467C45.18 26.684 45.2094 25.4181 44.4467 24.6191C43.684 23.8201 42.4181 23.7906 41.6191 24.5533L28.3333 37.2351L22.381 31.5533C21.582 30.7906 20.316 30.82 19.5533 31.619C18.7906 32.418 18.8201 33.684 19.619 34.4467L26.9523 41.4467C27.7251 42.1844 28.9413 42.1844 29.7142 41.4467L44.381 27.4467Z" fill="#172126"/>
<path fill-rule="evenodd" clip-rule="evenodd" d="M32 6C17.6406 6 6 17.6406 6 32C6 46.3594 17.6406 58 32 58C46.3594 58 58 46.3594 58 32C58 17.6406 46.3594 6 32 6ZM10 32C10 19.8497 19.8497 10 32 10C44.1503 10 54 19.8497 54 32C54 44.1503 44.1503 54 32 54C19.8497 54 10 44.1503 10 32Z" fill="#172126"/>
</svg>
