<svg width="64" height="64" viewBox="0 0 64 64" fill="none" xmlns="http://www.w3.org/2000/svg">
<path fill-rule="evenodd" clip-rule="evenodd" d="M51.1213 17.1213C52.2929 15.9497 52.2929 14.0503 51.1213 12.8787C49.9497 11.7071 48.0503 11.7071 46.8787 12.8787L32 27.7574L17.1213 12.8787C15.9497 11.7071 14.0503 11.7071 12.8787 12.8787C11.7071 14.0503 11.7071 15.9497 12.8787 17.1213L27.7574 32L12.8787 46.8787C11.7071 48.0503 11.7071 49.9497 12.8787 51.1213C14.0503 52.2929 15.9497 52.2929 17.1213 51.1213L32 36.2426L46.8787 51.1213C48.0503 52.2929 49.9497 52.2929 51.1213 51.1213C52.2929 49.9497 52.2929 48.0503 51.1213 46.8787L36.2426 32L51.1213 17.1213Z" fill="#172126"/>
</svg>
