<svg width="64" height="64" viewBox="0 0 64 64" fill="none" xmlns="http://www.w3.org/2000/svg">
<path d="M41.4142 22.5858C42.1953 23.3668 42.1953 24.6332 41.4142 25.4142L34.8284 32L41.4142 38.5858C42.1953 39.3668 42.1953 40.6332 41.4142 41.4142C40.6332 42.1953 39.3668 42.1953 38.5858 41.4142L32 34.8284L25.4142 41.4142C24.6332 42.1953 23.3668 42.1953 22.5858 41.4142C21.8047 40.6332 21.8047 39.3668 22.5858 38.5858L29.1716 32L22.5858 25.4142C21.8047 24.6332 21.8047 23.3668 22.5858 22.5858C23.3668 21.8047 24.6332 21.8047 25.4142 22.5858L32 29.1716L38.5858 22.5858C39.3668 21.8047 40.6332 21.8047 41.4142 22.5858Z" fill="#172126"/>
<path fill-rule="evenodd" clip-rule="evenodd" d="M6 32C6 17.6406 17.6406 6 32 6C46.3594 6 58 17.6406 58 32C58 46.3594 46.3594 58 32 58C17.6406 58 6 46.3594 6 32ZM32 10C19.8497 10 10 19.8497 10 32C10 44.1503 19.8497 54 32 54C44.1503 54 54 44.1503 54 32C54 19.8497 44.1503 10 32 10Z" fill="#172126"/>
</svg>
