<svg width="64" height="64" viewBox="0 0 64 64" fill="none" xmlns="http://www.w3.org/2000/svg">
<path fill-rule="evenodd" clip-rule="evenodd" d="M32 21C25.9249 21 21 25.9249 21 32C21 38.0751 25.9249 43 32 43C38.0751 43 43 38.0751 43 32C43 25.9249 38.0751 21 32 21ZM25 32C25 28.134 28.134 25 32 25C35.866 25 39 28.134 39 32C39 35.866 35.866 39 32 39C28.134 39 25 35.866 25 32Z" fill="#172126"/>
<path fill-rule="evenodd" clip-rule="evenodd" d="M32 13C22.0369 13 15.0521 17.5798 10.6095 22.0988C8.39341 24.353 6.79604 26.6032 5.75031 28.2927C5.22644 29.139 4.8381 29.8494 4.57737 30.3557C4.44694 30.609 4.34822 30.8116 4.28024 30.9552C4.24625 31.0271 4.21992 31.0842 4.20114 31.1255L4.17861 31.1755L4.17156 31.1914L4.16908 31.197L4.1681 31.1992C4.16769 31.2002 4.1673 31.2011 5.99986 32.0018L4.1673 31.2011C3.94421 31.7117 3.94423 32.2922 4.16736 32.8027L5.99986 32.0018C4.16736 32.8026 4.16775 32.8036 4.16817 32.8046L4.16915 32.8068L4.17163 32.8124L4.17868 32.8283L4.20121 32.8784C4.21999 32.9197 4.24632 32.9767 4.28031 33.0486C4.34829 33.1921 4.44702 33.3948 4.57745 33.648C4.83818 34.1542 5.22653 34.8644 5.75041 35.7106C6.79616 37.3997 8.39354 39.6494 10.6096 41.9032C15.0523 46.4212 22.037 51 32 51C41.963 51 48.9477 46.4212 53.3904 41.9032C55.6065 39.6494 57.2038 37.3997 58.2496 35.7106C58.7735 34.8644 59.1618 34.1542 59.4225 33.648C59.553 33.3948 59.6517 33.1921 59.7197 33.0486C59.7537 32.9767 59.78 32.9197 59.7988 32.8784L59.8213 32.8283L59.8284 32.8124L59.8309 32.8068L59.8318 32.8046C59.8322 32.8036 59.8326 32.8027 58 32.0018L59.8326 32.8027C60.0558 32.2922 60.0558 31.7117 59.8327 31.2011L58 32.0018C59.8327 31.2011 59.8323 31.2002 59.8319 31.1992L59.8309 31.197L59.8284 31.1914L59.8214 31.1755L59.7989 31.1255C59.7801 31.0842 59.7537 31.0271 59.7198 30.9552C59.6518 30.8116 59.5531 30.609 59.4226 30.3557C59.1619 29.8494 58.7736 29.139 58.2497 28.2927C57.204 26.6032 55.6066 24.353 53.3905 22.0988C48.9479 17.5798 41.9631 13 32 13ZM9.15137 33.605C8.7522 32.9603 8.44652 32.412 8.2301 32.0017C8.44654 31.5914 8.75225 31.0429 9.15147 30.3979C10.079 28.8995 11.4994 26.8993 13.4619 24.903C17.3765 20.9211 23.3917 17 32 17C40.6083 17 46.6235 20.9211 50.5381 24.903C52.5005 26.8993 53.921 28.8995 54.8485 30.3979C55.2477 31.0429 55.5535 31.5914 55.7699 32.0017C55.5535 32.412 55.2478 32.9603 54.8486 33.605C53.9212 35.1031 52.5007 37.1029 50.5382 39.0987C46.6237 43.0797 40.6084 47 32 47C23.3916 47 17.3763 43.0797 13.4618 39.0987C11.4993 37.1029 10.0788 35.1031 9.15137 33.605Z" fill="#172126"/>
</svg>
