<svg width="64" height="64" viewBox="0 0 64 64" fill="none" xmlns="http://www.w3.org/2000/svg">
<path d="M32 6C26.8577 6 21.8309 7.52487 17.5552 10.3818C13.2795 13.2387 9.94702 17.2994 7.97914 22.0502C6.01127 26.8011 5.49638 32.0288 6.49959 37.0723C7.50281 42.1158 9.97907 46.7486 13.6152 50.3848C17.2514 54.0209 21.8842 56.4972 26.9277 57.5004C31.9712 58.5036 37.1989 57.9887 41.9498 56.0209C46.7006 54.053 50.7613 50.7205 53.6182 46.4448C56.4751 42.1691 58 37.1423 58 32C57.9922 25.1068 55.2504 18.4981 50.3762 13.6238C45.5019 8.74958 38.8932 6.0078 32 6ZM32.0001 48.0001C31.4068 48.0001 30.8268 47.8241 30.3334 47.4945C29.8401 47.1648 29.4556 46.6963 29.2285 46.1481C29.0014 45.6 28.942 44.9968 29.0578 44.4148C29.1735 43.8329 29.4593 43.2983 29.8788 42.8788C30.2984 42.4592 30.8329 42.1735 31.4149 42.0577C31.9968 41.942 32.6 42.0014 33.1482 42.2284C33.6964 42.4555 34.1649 42.84 34.4945 43.3334C34.8242 43.8267 35.0001 44.4067 35.0001 45.0001C35.0001 45.7957 34.6841 46.5588 34.1215 47.1214C33.5588 47.684 32.7958 48.0001 32.0001 48.0001ZM34 35.7773V36.0012C34 36.5316 33.7893 37.0404 33.4142 37.4154C33.0392 37.7905 32.5305 38.0012 32 38.0012C31.4696 38.0012 30.9609 37.7905 30.5858 37.4154C30.2107 37.0404 30 36.5316 30 36.0012V34.0012C30 33.4708 30.2108 32.9621 30.5858 32.587C30.9609 32.212 31.4696 32.0012 32 32.0012C32.9889 32.0012 33.9556 31.708 34.7779 31.1586C35.6001 30.6092 36.241 29.8283 36.6194 28.9146C36.9979 28.001 37.0969 26.9957 36.9039 26.0258C36.711 25.0559 36.2348 24.1649 35.5356 23.4657C34.8363 22.7664 33.9454 22.2902 32.9755 22.0973C32.0056 21.9044 31.0002 22.0034 30.0866 22.3818C29.173 22.7603 28.3921 23.4011 27.8427 24.2234C27.2933 25.0456 27 26.0123 27 27.0012C27 27.5316 26.7893 28.0404 26.4142 28.4154C26.0392 28.7905 25.5305 29.0012 25 29.0012C24.4696 29.0012 23.9609 28.7905 23.5858 28.4154C23.2107 28.0404 23 27.5316 23 27.0012C23.0002 25.307 23.4786 23.6473 24.3802 22.2129C25.2818 20.7786 26.5699 19.6278 28.0965 18.893C29.623 18.1582 31.3259 17.8691 33.0094 18.0592C34.6929 18.2492 36.2886 18.9105 37.613 19.9671C38.9373 21.0237 39.9365 22.4326 40.4957 24.0319C41.0548 25.6311 41.1513 27.3558 40.7738 29.0074C40.3964 30.659 39.5605 32.1705 38.3622 33.3681C37.1639 34.5658 35.6518 35.4008 34 35.7773Z" fill="#172126"/>
</svg>
