<svg width="64" height="64" viewBox="0 0 64 64" fill="none" xmlns="http://www.w3.org/2000/svg">
<path d="M28 30C28 28.8954 28.8954 28 30 28H32C33.1046 28 34 28.8954 34 30V42C35.1046 42 36 42.8954 36 44C36 45.1046 35.1046 46 34 46H32C30.8954 46 30 45.1046 30 44V32C28.8954 32 28 31.1046 28 30Z" fill="#172126"/>
<path d="M35 21C35 22.6569 33.6569 24 32 24C30.3431 24 29 22.6569 29 21C29 19.3431 30.3431 18 32 18C33.6569 18 35 19.3431 35 21Z" fill="#172126"/>
<path fill-rule="evenodd" clip-rule="evenodd" d="M6 32C6 17.6406 17.6406 6 32 6C46.3594 6 58 17.6406 58 32C58 46.3594 46.3594 58 32 58C17.6406 58 6 46.3594 6 32ZM32 10C19.8497 10 10 19.8497 10 32C10 44.1503 19.8497 54 32 54C44.1503 54 54 44.1503 54 32C54 19.8497 44.1503 10 32 10Z" fill="#172126"/>
</svg>
