<svg width="64" height="64" viewBox="0 0 64 64" fill="none" xmlns="http://www.w3.org/2000/svg">
<path fill-rule="evenodd" clip-rule="evenodd" d="M32 30C27.5817 30 24 33.5817 24 38C24 41.7271 26.5488 44.859 29.9985 45.7476V50C29.9985 51.1046 30.894 52 31.9985 52C33.1031 52 33.9985 51.1046 33.9985 50V45.7483C37.4497 44.8608 40 41.7282 40 38C40 33.5817 36.4183 30 32 30ZM28 38C28 35.7909 29.7909 34 32 34C34.2091 34 36 35.7909 36 38C36 40.2091 34.2091 42 32 42C29.7909 42 28 40.2091 28 38Z" fill="#172126"/>
<path fill-rule="evenodd" clip-rule="evenodd" d="M21 22V15C21 12.0826 22.1589 9.28472 24.2218 7.22183C26.2847 5.15893 29.0826 4 32 4C34.9174 4 37.7153 5.15893 39.7782 7.22183C41.8411 9.28472 43 12.0826 43 15V22H52C54.3216 22 56 23.9628 56 26.125V55.875C56 58.0372 54.3216 60 52 60H12C9.67836 60 8 58.0372 8 55.875V26.125C8 23.9628 9.67836 22 12 22H21ZM27.0503 10.0503C28.363 8.7375 30.1435 8 32 8C33.8565 8 35.637 8.7375 36.9497 10.0503C38.2625 11.363 39 13.1435 39 15V22H25V15C25 13.1435 25.7375 11.363 27.0503 10.0503ZM51.9637 26C51.9791 26.0198 52 26.0601 52 26.125V55.875C52 55.9399 51.9791 55.9802 51.9637 56H12.0363C12.0209 55.9802 12 55.9399 12 55.875V26.125C12 26.0601 12.0209 26.0198 12.0363 26H51.9637Z" fill="#172126"/>
</svg>
