<svg width="64" height="64" viewBox="0 0 64 64" fill="none" xmlns="http://www.w3.org/2000/svg">
<path d="M32 18C33.1046 18 34 18.8954 34 20V34C34 35.1046 33.1046 36 32 36C30.8954 36 30 35.1046 30 34V20C30 18.8954 30.8954 18 32 18Z" fill="#172126"/>
<path d="M35 43C35 44.6569 33.6569 46 32 46C30.3431 46 29 44.6569 29 43C29 41.3431 30.3431 40 32 40C33.6569 40 35 41.3431 35 43Z" fill="#172126"/>
<path fill-rule="evenodd" clip-rule="evenodd" d="M28.7268 5.01351C29.628 4.45686 30.7265 4 32.0001 4C33.2737 4 34.3722 4.45687 35.2734 5.01352C36.1611 5.56186 36.9628 6.27406 37.6521 6.92122C37.898 7.1521 38.1256 7.37041 38.3432 7.57923C38.7837 8.00188 39.1839 8.38588 39.6136 8.75605C40.2359 9.29231 40.744 9.63787 41.187 9.82115C41.5919 9.98872 42.1661 10.0952 42.9791 10.148C43.5151 10.1828 44.0306 10.1903 44.6001 10.1986C44.9301 10.2035 45.2782 10.2085 45.6589 10.2193C47.4324 10.2697 50.0184 10.4204 51.799 12.201C53.5796 13.9816 53.7303 16.5676 53.7807 18.3411C53.7915 18.7218 53.7966 19.0699 53.8014 19.3998C53.8097 19.9694 53.8172 20.4849 53.852 21.0209C53.9048 21.8339 54.0113 22.4081 54.1789 22.8131C54.3621 23.2561 54.7077 23.7641 55.244 24.3865C55.6142 24.8162 55.9979 25.2161 56.4206 25.6567C56.6295 25.8744 56.8478 26.102 57.0788 26.348C57.726 27.0373 58.4382 27.8391 58.9865 28.7268C59.5431 29.628 60 30.7265 60 32.0001C60 33.2737 59.5431 34.3722 58.9865 35.2734C58.4381 36.1611 57.7259 36.9628 57.0788 37.6521C56.8486 37.8973 56.6309 38.1242 56.4226 38.3413L56.4212 38.3428C55.9985 38.7833 55.6141 39.1839 55.2439 39.6136C54.7077 40.2359 54.3621 40.744 54.1788 41.187C54.0113 41.5919 53.9048 42.1661 53.852 42.9791C53.8172 43.5151 53.8097 44.0306 53.8014 44.6001C53.7965 44.9301 53.7915 45.2782 53.7807 45.6589C53.7303 47.4324 53.5796 50.0184 51.799 51.799C50.0184 53.5796 47.4324 53.7303 45.6589 53.7807C45.2782 53.7915 44.9301 53.7966 44.6002 53.8014C44.0307 53.8097 43.5151 53.8172 42.9791 53.852C42.1661 53.9048 41.5919 54.0113 41.1869 54.1789C40.7439 54.3621 40.2359 54.7077 39.6135 55.244C39.1838 55.6142 38.7839 55.9979 38.3433 56.4206C38.1256 56.6295 37.898 56.8478 37.652 57.0788C36.9627 57.726 36.1609 58.4382 35.2732 58.9865C34.372 59.5431 33.2735 60 31.9999 60C30.7263 60 29.6278 59.5431 28.7266 58.9865C27.8389 58.4381 27.0372 57.7259 26.3479 57.0788C26.1019 56.8478 25.8743 56.6294 25.6566 56.4206C25.2161 55.9979 24.816 55.6141 24.3864 55.2439C23.7641 54.7077 23.256 54.3621 22.8131 54.1788C22.4081 54.0113 21.8339 53.9048 21.0209 53.852C20.4849 53.8172 19.9694 53.8097 19.3999 53.8014C19.0699 53.7965 18.7218 53.7915 18.3411 53.7807C16.5676 53.7303 13.9816 53.5796 12.201 51.799C10.4204 50.0184 10.2697 47.4324 10.2193 45.6589C10.2085 45.2782 10.2034 44.9301 10.1986 44.6001C10.1903 44.0306 10.1828 43.5151 10.148 42.9791C10.0952 42.1661 9.9887 41.5919 9.82113 41.1869C9.63785 40.7439 9.29227 40.2359 8.75602 39.6135C8.38584 39.1838 8.00209 38.7839 7.57942 38.3433C7.37054 38.1256 7.15215 37.898 6.92119 37.652C6.27404 36.9627 5.56184 36.1609 5.01351 35.2732C4.45686 34.372 4 33.2735 4 31.9999C4 30.7263 4.45687 29.6278 5.01352 28.7266C5.56186 27.8389 6.27406 27.0372 6.92122 26.3479C7.15189 26.1022 7.37002 25.8748 7.57866 25.6574L7.57943 25.6566C8.00211 25.216 8.38586 24.8161 8.75605 24.3864C9.29231 23.7641 9.63787 23.256 9.82115 22.8131C9.98872 22.4081 10.0952 21.8339 10.148 21.0209C10.1828 20.4849 10.1903 19.9694 10.1986 19.3999C10.2035 19.0699 10.2085 18.7218 10.2193 18.3411C10.2697 16.5676 10.4204 13.9816 12.201 12.201C13.9816 10.4204 16.5676 10.2697 18.3411 10.2193C18.7218 10.2085 19.0699 10.2034 19.3999 10.1986C19.9694 10.1903 20.4849 10.1828 21.0209 10.148C21.8339 10.0952 22.4081 9.9887 22.8131 9.82113C23.2561 9.63785 23.7641 9.29227 24.3865 8.75602C24.8162 8.38584 25.2161 8.00209 25.6567 7.57942C25.8744 7.37054 26.102 7.15215 26.348 6.92119C27.0373 6.27404 27.8391 5.56184 28.7268 5.01351ZM26.9975 11.7863C26.2541 12.4269 25.3666 13.0935 24.3424 13.5173C23.332 13.9353 22.2409 14.0772 21.28 14.1396C20.6527 14.1803 19.9523 14.1911 19.3136 14.201C19.0084 14.2058 18.7169 14.2103 18.4546 14.2177C16.5298 14.2724 15.5499 14.509 15.0294 15.0294C14.509 15.5499 14.2724 16.5298 14.2177 18.4546C14.2103 18.7169 14.2058 19.008 14.2011 19.3132C14.1912 19.952 14.1803 20.6526 14.1396 21.28C14.0772 22.2409 13.9353 23.332 13.5173 24.3423C13.0935 25.3665 12.4269 26.254 11.7863 26.9974C11.3452 27.5094 10.8369 28.0396 10.3764 28.5199C10.1858 28.7187 10.0034 28.9089 9.83742 29.0857C9.21904 29.7444 8.74158 30.3027 8.41664 30.8287C8.10002 31.3413 8 31.7104 8 31.9999C8 32.2894 8.10002 32.6585 8.41665 33.1712C8.74158 33.6972 9.21905 34.2555 9.83742 34.9142C10.0034 35.091 10.1858 35.2812 10.3763 35.48C10.8368 35.9603 11.3452 36.4906 11.7863 37.0025C12.4269 37.7459 13.0935 38.6334 13.5173 39.6576C13.9353 40.668 14.0772 41.7591 14.1396 42.72C14.1803 43.3473 14.1911 44.0477 14.201 44.6864C14.2058 44.9916 14.2103 45.2831 14.2177 45.5454C14.2724 47.4702 14.509 48.4501 15.0294 48.9706C15.5499 49.491 16.5298 49.7276 18.4546 49.7823C18.7167 49.7897 19.0075 49.7942 19.3125 49.7989C19.9512 49.8088 20.6526 49.8197 21.28 49.8604C22.2409 49.9228 23.332 50.0647 24.3423 50.4827C25.3665 50.9065 26.254 51.5731 26.9974 52.2137C27.5094 52.6548 28.0396 53.1631 28.52 53.6237C28.7187 53.8142 28.9089 53.9966 29.0857 54.1626C29.7444 54.781 30.3027 55.2584 30.8287 55.5834C31.3413 55.9 31.7104 56 31.9999 56C32.2894 56 32.6585 55.9 33.1712 55.5834C33.6972 55.2584 34.2555 54.781 34.9142 54.1626C35.091 53.9966 35.2812 53.8142 35.4799 53.6237C35.9603 53.1632 36.4905 52.6548 37.0025 52.2137C37.7459 51.5731 38.6334 50.9065 39.6576 50.4827C40.668 50.0647 41.7591 49.9228 42.72 49.8604C43.3473 49.8197 44.0478 49.8088 44.6866 49.799C44.9915 49.7942 45.2833 49.7897 45.5454 49.7823C47.4702 49.7276 48.4501 49.491 48.9706 48.9706C49.491 48.4501 49.7276 47.4702 49.7823 45.5454C49.7897 45.2833 49.7942 44.9925 49.7989 44.6875C49.8088 44.0488 49.8197 43.3474 49.8604 42.72C49.9228 41.7591 50.0647 40.668 50.4827 39.6577C50.9065 38.6335 51.5731 37.746 52.2137 37.0026C52.6548 36.4906 53.1631 35.9604 53.6237 35.48C53.8142 35.2813 53.9966 35.0911 54.1626 34.9143C54.781 34.2556 55.2584 33.6973 55.5834 33.1713C55.9 32.6587 56 32.2896 56 32.0001C56 31.7106 55.9 31.3415 55.5834 30.8288C55.2584 30.3028 54.781 29.7445 54.1626 29.0858C53.9966 28.909 53.8142 28.7188 53.6237 28.5201C53.1632 28.0398 52.6547 27.5094 52.2137 26.9975C51.5731 26.2541 50.9065 25.3666 50.4827 24.3424C50.0647 23.332 49.9228 22.2409 49.8604 21.28C49.8197 20.6527 49.8088 19.9522 49.799 19.3134C49.7942 19.0085 49.7897 18.7167 49.7823 18.4546C49.7276 16.5298 49.491 15.5499 48.9706 15.0294C48.4501 14.509 47.4702 14.2724 45.5454 14.2177C45.2831 14.2103 44.992 14.2058 44.6868 14.2011C44.048 14.1912 43.3474 14.1803 42.72 14.1396C41.7591 14.0772 40.668 13.9353 39.6577 13.5173C38.6335 13.0935 37.746 12.4269 37.0026 11.7863C36.4906 11.3452 35.9604 10.8369 35.4801 10.3764C35.2813 10.1858 35.0911 10.0034 34.9143 9.83742C34.2556 9.21904 33.6973 8.74158 33.1713 8.41664C32.6587 8.10002 32.2896 8 32.0001 8C31.7106 8 31.3415 8.10002 30.8288 8.41665C30.3028 8.74158 29.7445 9.21905 29.0858 9.83742C28.909 10.0034 28.7188 10.1858 28.52 10.3764C28.0397 10.8369 27.5095 11.3452 26.9975 11.7863Z" fill="#172126"/>
</svg>
