<svg width="64" height="64" viewBox="0 0 64 64" fill="none" xmlns="http://www.w3.org/2000/svg">
<path d="M32 48C33.6569 48 35 46.6569 35 45C35 43.3431 33.6569 42 32 42C30.3431 42 29 43.3431 29 45C29 46.6569 30.3431 48 32 48Z" fill="#172126"/>
<path d="M33.7557 18.174C32.0099 17.8268 30.2003 18.005 28.5557 18.6862C26.9112 19.3674 25.5056 20.5209 24.5167 22.001C23.5277 23.481 22.9999 25.2211 22.9999 27.0011C22.9999 28.1057 23.8953 29.0011 24.9999 29.0011C26.1044 29.0011 26.9999 28.1057 26.9999 27.0011C26.9999 26.0122 27.2931 25.0455 27.8425 24.2233C28.3919 23.401 29.1728 22.7601 30.0865 22.3817C31.0001 22.0033 32.0054 21.9043 32.9753 22.0972C33.9452 22.2901 34.8361 22.7663 35.5354 23.4656C36.2347 24.1648 36.7109 25.0557 36.9038 26.0257C37.0967 26.9956 36.9977 28.0009 36.6193 28.9145C36.2408 29.8281 35.6 30.609 34.7777 31.1585C33.9555 31.7079 32.9888 32.0011 31.9999 32.0011C31.4694 32.0011 30.9607 32.2118 30.5857 32.5869C30.2106 32.962 29.9999 33.4707 29.9999 34.0011V36.0011C29.9999 37.1057 30.8953 38.0011 31.9999 38.0011C33.1044 38.0011 33.9999 37.1057 33.9999 36.0011V35.7761C35.0649 35.5333 36.0824 35.0974 37 34.4843C38.48 33.4954 39.6336 32.0898 40.3148 30.4453C40.996 28.8007 41.1742 26.9911 40.8269 25.2453C40.4797 23.4995 39.6225 21.8958 38.3638 20.6371C37.1052 19.3785 35.5015 18.5213 33.7557 18.174Z" fill="#172126"/>
<path fill-rule="evenodd" clip-rule="evenodd" d="M32 6C17.6406 6 6 17.6406 6 32C6 46.3594 17.6406 58 32 58C46.3594 58 58 46.3594 58 32C58 17.6406 46.3594 6 32 6ZM10 32C10 19.8497 19.8497 10 32 10C44.1503 10 54 19.8497 54 32C54 44.1503 44.1503 54 32 54C19.8497 54 10 44.1503 10 32Z" fill="#172126"/>
</svg>
