<svg width="64" height="64" viewBox="0 0 64 64" fill="none" xmlns="http://www.w3.org/2000/svg">
<path fill-rule="evenodd" clip-rule="evenodd" d="M8 12C8 9.79086 9.79086 8 12 8H52C54.2091 8 56 9.79086 56 12V52C56 54.2091 54.2091 56 52 56H12C9.79086 56 8 54.2091 8 52V12ZM52 12H12V52H52V12Z" fill="#172126"/>
<path d="M32 46C33.6569 46 35 44.6569 35 43C35 41.3431 33.6569 40 32 40C30.3431 40 29 41.3431 29 43C29 44.6569 30.3431 46 32 46Z" fill="#172126"/>
<path fill-rule="evenodd" clip-rule="evenodd" d="M28.5556 16.6862C30.2001 16.005 32.0097 15.8268 33.7556 16.1741C35.5014 16.5213 37.105 17.3785 38.3637 18.6372C39.6224 19.8958 40.4796 21.4995 40.8268 23.2453C41.1741 24.9911 40.9959 26.8007 40.3147 28.4453C39.6335 30.0898 38.4799 31.4954 36.9999 32.4844C36.0823 33.0975 35.0648 33.5333 33.9998 33.7761V34.0011C33.9998 35.1057 33.1043 36.0011 31.9998 36.0011C30.8952 36.0011 29.9998 35.1057 29.9998 34.0011V32.0011C29.9998 31.4707 30.2105 30.962 30.5855 30.5869C30.9606 30.2118 31.4693 30.0011 31.9998 30.0011C32.9887 30.0011 33.9554 29.7079 34.7776 29.1585C35.5999 28.6091 36.2407 27.8282 36.6192 26.9146C36.9976 26.0009 37.0966 24.9956 36.9037 24.0257C36.7108 23.0558 36.2346 22.1649 35.5353 21.4656C34.836 20.7663 33.9451 20.2901 32.9752 20.0972C32.0053 19.9043 31 20.0033 30.0863 20.3817C29.1727 20.7602 28.3918 21.401 27.8424 22.2233C27.293 23.0455 26.9998 24.0122 26.9998 25.0011C26.9998 26.1057 26.1043 27.0011 24.9998 27.0011C23.8952 27.0011 22.9998 26.1057 22.9998 25.0011C22.9998 23.2211 23.5276 21.481 24.5165 20.001C25.5055 18.521 26.9111 17.3674 28.5556 16.6862Z" fill="#172126"/>
</svg>
