<svg width="64" height="64" viewBox="0 0 64 64" fill="none" xmlns="http://www.w3.org/2000/svg">
<path d="M34.9981 11C34.9981 9.34315 33.655 8 31.9981 8C30.3413 8 28.9981 9.34315 28.9981 11V29.1364C28.9981 30.7932 30.3413 32.1364 31.9981 32.1364C33.655 32.1364 34.9981 30.7932 34.9981 29.1364V11Z" fill="#172126"/>
<path d="M22.169 17.3407C23.5621 16.4439 23.9644 14.5875 23.0676 13.1944C22.1707 11.8012 20.3143 11.3989 18.9212 12.2957C14.5858 15.0867 11.2722 19.1928 9.48093 24.0066C7.68946 28.821 7.51855 34.0805 8.99428 38.9995C10.4699 43.918 13.511 48.2271 17.6575 51.2883C21.8036 54.3491 26.8343 56 31.9999 56.0001C37.1656 56.0001 42.1963 54.3492 46.3424 51.2883C50.4889 48.2272 53.5301 43.9181 55.0057 38.9996C56.4814 34.0806 56.3106 28.8211 54.5191 24.0067C52.7278 19.1928 49.4143 15.0868 45.0789 12.2958C43.6858 11.3989 41.8294 11.8013 40.9325 13.1944C40.0357 14.5875 40.438 16.4439 41.8311 17.3408C45.084 19.4349 47.5597 22.5086 48.8958 26.0992C50.2317 29.6893 50.3588 33.6088 49.2588 37.2754C48.1586 40.9425 45.8881 44.1658 42.7788 46.4612C39.669 48.757 35.8883 50.0001 32 50.0001C28.1117 50 24.3309 48.757 21.2211 46.4612C18.1119 44.1658 15.8414 40.9424 14.7412 37.2754C13.6412 33.6087 13.7683 29.6892 15.1042 26.0991C16.4403 22.5086 18.916 19.4348 22.169 17.3407Z" fill="#172126"/>
</svg>
