<svg width="64" height="64" viewBox="0 0 64 64" fill="none" xmlns="http://www.w3.org/2000/svg">
<path fill-rule="evenodd" clip-rule="evenodd" d="M13 10C8.02944 10 4 14.0294 4 19V32V42V45C4 49.9706 8.02944 54 13 54H22.25H51C55.9706 54 60 49.9706 60 45V42V32V19C60 14.0294 55.9706 10 51 10H13ZM56 24H24.25V30H56V24ZM8 24H20.25V30H8V24ZM8 34V40H20.25V34H8ZM8 44V45C8 47.7614 10.2386 50 13 50H20.25V44H8ZM24.25 50H51C53.7614 50 56 47.7614 56 45V44H24.25V50ZM56 40H24.25V34H56V40Z" fill="#172126"/>
</svg>
