<svg width="64" height="64" viewBox="0 0 64 64" fill="none" xmlns="http://www.w3.org/2000/svg">
<path fill-rule="evenodd" clip-rule="evenodd" d="M52.5611 17.4393C53.1469 18.0251 53.1469 18.9749 52.5611 19.5607L34.5611 37.5607C33.9754 38.1464 33.0256 38.1464 32.4398 37.5607L26.0005 31.1213L13.5611 43.5607C12.9754 44.1464 12.0256 44.1464 11.4398 43.5607C10.854 42.9749 10.854 42.0251 11.4398 41.4393L24.9398 27.9393C25.5256 27.3536 26.4754 27.3536 27.0611 27.9393L33.5005 34.3787L50.4398 17.4393C51.0256 16.8536 51.9754 16.8536 52.5611 17.4393Z" fill="#172126"/>
<path fill-rule="evenodd" clip-rule="evenodd" d="M38.0005 18.5C38.0005 17.6716 38.6721 17 39.5005 17H51.5005C52.3289 17 53.0005 17.6716 53.0005 18.5V30.5C53.0005 31.3284 52.3289 32 51.5005 32C50.6721 32 50.0005 31.3284 50.0005 30.5V20H39.5005C38.6721 20 38.0005 19.3284 38.0005 18.5Z" fill="#172126"/>
</svg>
