<svg width="64" height="64" viewBox="0 0 64 64" fill="none" xmlns="http://www.w3.org/2000/svg">
<path d="M36.9216 16.1843C39.5269 15.7991 42.189 16.0198 44.6872 16.827C47.1851 17.6341 49.4437 19.0033 51.2792 20.8166C53.1145 22.6296 54.4742 24.8343 55.2517 27.2469C56.0291 29.6591 56.2037 32.214 55.7621 34.7027C55.3204 37.1916 54.2742 39.548 52.7046 41.5768C52.0287 42.4504 52.1889 43.7066 53.0626 44.3825C53.9362 45.0584 55.1923 44.8981 55.8683 44.0245C57.8294 41.4896 59.1446 38.5345 59.7006 35.4016C60.2565 32.2686 60.0362 29.0524 59.0588 26.0199C58.0816 22.9875 56.3768 20.2296 54.0904 17.9709C51.8043 15.7125 49.0021 14.0176 45.917 13.0208C42.8322 12.024 39.549 11.7524 36.3366 12.2273C33.1242 12.7022 30.0698 13.9107 27.4259 15.7576C24.7817 17.6046 22.6222 20.0386 21.1303 22.8628L21.09 22.9394C19.5459 22.7293 17.9742 22.7544 16.4319 23.0167C14.345 23.3715 12.3565 24.1531 10.5987 25.3125C8.8407 26.4721 7.35244 27.984 6.23608 29.7512C5.11959 31.5186 4.40153 33.4996 4.13279 35.5629C3.86405 37.6263 4.05134 39.721 4.68126 41.707C5.31113 43.6928 6.36813 45.5215 7.77821 47.0732C9.18811 48.6247 10.9185 49.8637 12.8523 50.7116C14.786 51.5595 16.881 51.998 18.9989 52L19.0008 52H24.5721C25.6767 52 26.5721 51.1046 26.5721 50C26.5721 48.8954 25.6767 48 24.5721 48H19.0027C17.4335 47.9985 15.8843 47.6735 14.4586 47.0483C13.033 46.4232 11.7657 45.5135 10.7385 44.3831C9.71146 43.2529 8.94773 41.9279 8.49407 40.4977C8.04046 39.0675 7.90622 37.5619 8.09929 36.0795C8.29237 34.597 8.8089 33.168 9.61782 31.8875C10.4269 30.6068 11.5108 29.5026 12.8011 28.6516C14.0916 27.8004 15.5577 27.2227 17.1025 26.9601C17.9164 26.8217 18.7415 26.7725 19.5622 26.812C19.0967 28.497 18.8581 30.2406 18.8579 31.9989C18.8578 33.1034 19.7531 33.999 20.8577 33.9991C21.9623 33.9992 22.8578 33.1039 22.8579 31.9993C22.8582 29.4749 23.4771 26.984 24.6672 24.7311C25.8574 22.4779 27.5863 20.5248 29.7165 19.0367C31.847 17.5486 34.3163 16.5694 36.9216 16.1843Z" fill="#172126"/>
<path d="M38.9776 30.5766C38.9115 30.5113 38.8409 30.4505 38.7662 30.3948C38.6818 30.3319 38.5936 30.2764 38.5025 30.2284C38.2245 30.082 37.9078 29.9991 37.5718 29.9991C37.5656 29.9991 37.5594 29.9992 37.5532 29.9992C37.0573 30.0038 36.5627 30.1917 36.1796 30.5631L28.3006 38.2004C27.5075 38.9692 27.4878 40.2353 28.2566 41.0285C29.0253 41.8216 30.2915 41.8413 31.0846 41.0725L35.5718 36.723V50C35.5718 51.1046 36.4672 52 37.5718 52C38.6763 52 39.5718 51.1046 39.5718 50V36.7233L44.0586 41.0725C44.8518 41.8413 46.1179 41.8216 46.8867 41.0285C47.6555 40.2353 47.6358 38.9692 46.8427 38.2004L38.9776 30.5766Z" fill="#172126"/>
</svg>
