<svg width="64" height="64" viewBox="0 0 64 64" fill="none" xmlns="http://www.w3.org/2000/svg">
<path d="M6 8C4.89543 8 4 8.89543 4 10V54C4 55.1046 4.89543 56 6 56H13C14.1046 56 15 55.1046 15 54V10C15 8.89543 14.1046 8 13 8H6Z" fill="#172126"/>
<path d="M51 8C49.8954 8 49 8.89543 49 10V54C49 55.1046 49.8954 56 51 56H58C59.1046 56 60 55.1046 60 54V10C60 8.89543 59.1046 8 58 8H51Z" fill="#172126"/>
<path d="M36 8C34.8954 8 34 8.89543 34 10V54C34 55.1046 34.8954 56 36 56H43C44.1046 56 45 55.1046 45 54V10C45 8.89543 44.1046 8 43 8H36Z" fill="#172126"/>
<path d="M21 8C19.8954 8 19 8.89543 19 10V54C19 55.1046 19.8954 56 21 56H28C29.1046 56 30 55.1046 30 54V10C30 8.89543 29.1046 8 28 8H21Z" fill="#172126"/>
</svg>
