<svg width="64" height="64" viewBox="0 0 64 64" fill="none" xmlns="http://www.w3.org/2000/svg">
<path d="M6 8C4.89543 8 4 8.89543 4 10V54C4 55.1046 4.89543 56 6 56H17C18.1046 56 19 55.1046 19 54V10C19 8.89543 18.1046 8 17 8H6Z" fill="#172126"/>
<path d="M47 8C45.8954 8 45 8.89543 45 10V54C45 55.1046 45.8954 56 47 56H58C59.1046 56 60 55.1046 60 54V10C60 8.89543 59.1046 8 58 8H47Z" fill="#172126"/>
<path d="M26 8C24.8954 8 24 8.89543 24 10V54C24 55.1046 24.8954 56 26 56H37C38.1046 56 39 55.1046 39 54V10C39 8.89543 38.1046 8 37 8H26Z" fill="#172126"/>
</svg>
