<svg width="64" height="64" viewBox="0 0 64 64" fill="none" xmlns="http://www.w3.org/2000/svg">
<path d="M6.91667 8C6.09339 8 5.49013 8.40891 5.13508 8.76932C4.78697 9.12269 4.56555 9.53142 4.42233 9.87513C4.13226 10.5713 4 11.3944 4 12.2V51.8C4 52.6056 4.13226 53.4287 4.42233 54.1249C4.56555 54.4686 4.78697 54.8773 5.13508 55.2307C5.49013 55.5911 6.09339 56 6.91667 56H27.0833C27.9066 56 28.5099 55.5911 28.8649 55.2307C29.213 54.8773 29.4345 54.4686 29.5777 54.1249C29.8677 53.4287 30 52.6056 30 51.8V12.2C30 11.3944 29.8677 10.5713 29.5777 9.87514C29.4345 9.53142 29.213 9.12269 28.8649 8.76932C28.5099 8.4089 27.9066 8 27.0833 8H6.91667Z" fill="#172126"/>
<path d="M36.9167 8C36.0934 8 35.4901 8.40891 35.1351 8.76932C34.787 9.12269 34.5655 9.53142 34.4223 9.87513C34.1323 10.5713 34 11.3944 34 12.2V51.8C34 52.6056 34.1323 53.4287 34.4223 54.1249C34.5655 54.4686 34.787 54.8773 35.1351 55.2307C35.4901 55.5911 36.0934 56 36.9167 56H57.0833C57.9066 56 58.5099 55.5911 58.8649 55.2307C59.213 54.8773 59.4345 54.4686 59.5777 54.1249C59.8677 53.4287 60 52.6056 60 51.8V12.2C60 11.3944 59.8677 10.5713 59.5777 9.87514C59.4345 9.53142 59.213 9.12269 58.8649 8.76932C58.5099 8.4089 57.9066 8 57.0833 8H36.9167Z" fill="#172126"/>
</svg>
