<svg width="64" height="64" viewBox="0 0 64 64" fill="none" xmlns="http://www.w3.org/2000/svg">
<path fill-rule="evenodd" clip-rule="evenodd" d="M35.2902 16.0002C36.1508 18.8916 38.8293 21 42.0002 21C45.1713 21 47.8498 18.8915 48.7104 15.9999L54.0003 15.9998C55.1049 15.9998 56.0003 15.1043 56.0002 13.9997C56.0002 12.8952 55.1048 11.9998 54.0002 11.9998L48.7104 11.9999C47.8498 9.10849 45.1712 7 42.0002 7C38.8291 7 36.1505 9.10862 35.2901 12.0002L10.0003 12C8.89569 12 8.00025 12.8954 8.00024 14C8.00024 15.1046 8.89566 16 10.0002 16L35.2902 16.0002ZM45.0002 14C45.0002 12.3431 43.6571 11 42.0002 11C40.3434 11 39.0002 12.3431 39.0002 14C39.0002 15.6569 40.3434 17 42.0002 17C43.6571 17 45.0002 15.6569 45.0002 14Z" fill="#172126"/>
<path fill-rule="evenodd" clip-rule="evenodd" d="M22.0002 25C25.1713 25 27.8498 27.1085 28.7104 30L54.0002 30C55.1048 30 56.0002 30.8954 56.0002 32C56.0002 33.1046 55.1048 34 54.0002 34L28.7104 34C27.8498 36.8915 25.1713 39 22.0002 39C18.8292 39 16.1507 36.8915 15.2901 34L10.0002 34C8.89567 34 8.00024 33.1045 8.00024 32C8.00025 30.8954 8.89568 30 10.0002 30L15.2901 30C16.1507 27.1085 18.8292 25 22.0002 25ZM19.0002 32C19.0002 33.6569 20.3434 35 22.0002 35C23.6571 35 25.0002 33.6569 25.0002 32C25.0002 30.3431 23.6571 29 22.0002 29C20.3434 29 19.0002 30.3431 19.0002 32Z" fill="#172126"/>
<path fill-rule="evenodd" clip-rule="evenodd" d="M40.7103 52.0002C39.8497 54.8916 37.1712 57 34.0002 57C30.8293 57 28.1508 54.8916 27.2902 52.0002L10.0003 52.0002C8.89568 52.0002 8.00025 51.1048 8.00024 50.0003C8.00024 48.8957 8.89567 48.0002 10.0002 48.0002L27.2901 48.0002C28.1506 45.1086 30.8292 43 34.0002 43C37.1713 43 39.8499 45.1086 40.7104 48.0002L54.0003 48.0002C55.1048 48.0002 56.0002 48.8957 56.0002 50.0003C56.0002 51.1048 55.1048 52.0002 54.0002 52.0002L40.7103 52.0002ZM31.0002 50.0002C31.0003 51.6569 32.3434 53 34.0002 53C35.6571 53 37.0002 51.6569 37.0002 50C37.0002 48.3431 35.6571 47 34.0002 47C32.3434 47 31.0002 48.3433 31.0002 50.0002Z" fill="#172126"/>
</svg>
