<svg width="64" height="64" viewBox="0 0 64 64" fill="none" xmlns="http://www.w3.org/2000/svg">
<path d="M26 26C28.2091 26 30 24.2091 30 22C30 19.7909 28.2091 18 26 18C23.7909 18 22 19.7909 22 22C22 24.2091 23.7909 26 26 26Z" fill="#172126"/>
<path fill-rule="evenodd" clip-rule="evenodd" d="M8 12C8 9.79086 9.79086 8 12 8H52C54.2091 8 56 9.79086 56 12V52C56 54.2091 54.2091 56 52 56H12C9.79086 56 8 54.2091 8 52V12ZM12 52V44.8284L20 36.8284L25.1716 41.9999C25.9217 42.7501 26.9391 43.1715 28 43.1715C29.0609 43.1715 30.0783 42.7501 30.8284 41.9999L42 30.8284L52 40.8284V52H12ZM44.8284 27.9999L52 35.1715V12H12V39.1715L17.1716 33.9999C17.9217 33.2498 18.9391 32.8284 20 32.8284C21.0609 32.8284 22.0783 33.2498 22.8284 33.9999L28 39.1715L39.1716 27.9999C39.9217 27.2498 40.9391 26.8284 42 26.8284C43.0609 26.8284 44.0783 27.2498 44.8284 27.9999Z" fill="#172126"/>
</svg>
