<svg width="64" height="64" viewBox="0 0 64 64" fill="none" xmlns="http://www.w3.org/2000/svg">
<path fill-rule="evenodd" clip-rule="evenodd" d="M31 20.4171L30.0723 17.9055L27.9296 17H23.6823L22 20.1761V24.8239L23.6788 28H27.9452L30.1346 26.9998L31 24.6019L29.695 22.5138L31 20.4171ZM28.3173 25.3369L27.4519 25.7294H25.0565L24.2812 24.2593V20.7338L25.0565 19.2637H27.4658L28.2723 19.608L28.4765 20.1657L27.0192 22.5172L28.4852 24.8687L28.3173 25.3369Z" fill="#172126"/>
<path fill-rule="evenodd" clip-rule="evenodd" d="M8 12C8 9.79086 9.79086 8 12 8H52C54.2091 8 56 9.79086 56 12V52C56 54.2091 54.2091 56 52 56H12C9.79086 56 8 54.2091 8 52V12ZM12 44.8284V52H52V40.8284L42 30.8284L30.8284 41.9999C30.0783 42.7501 29.0609 43.1715 28 43.1715C26.9391 43.1715 25.9217 42.7501 25.1716 41.9999L20 36.8284L12 44.8284ZM52 35.1715L44.8284 27.9999C44.0783 27.2498 43.0609 26.8284 42 26.8284C40.9391 26.8284 39.9217 27.2498 39.1716 27.9999L28 39.1715L22.8284 33.9999C22.0783 33.2498 21.0609 32.8284 20 32.8284C18.9391 32.8284 17.9217 33.2498 17.1716 33.9999L12 39.1715V12H52V35.1715Z" fill="#172126"/>
</svg>
