<svg width="64" height="64" viewBox="0 0 64 64" fill="none" xmlns="http://www.w3.org/2000/svg">
<path d="M36 28C38.2091 28 40 26.2091 40 24C40 21.7909 38.2091 20 36 20C33.7909 20 32 21.7909 32 24C32 26.2091 33.7909 28 36 28Z" fill="#172126"/>
<path fill-rule="evenodd" clip-rule="evenodd" d="M60 50V14C60 11.6431 57.9808 10 55.8333 10H8.16667C6.01922 10 4 11.6431 4 14V50C4 52.3569 6.01922 54 8.16667 54H55.8333C57.9808 54 60 52.3569 60 50ZM8 14.048V37.5029L18.2854 28.1036C18.6793 27.7436 19.1374 27.4665 19.6295 27.2802C20.1214 27.094 20.6433 27 21.1667 27C21.69 27 22.2119 27.094 22.7038 27.2802C23.1959 27.4665 23.654 27.7436 24.0479 28.1036L36.1505 39.1635C36.1589 39.1712 36.1785 39.1859 36.2122 39.1986C36.246 39.2114 36.2877 39.2198 36.3333 39.2198C36.379 39.2198 36.4206 39.2114 36.4544 39.1986C36.4881 39.1859 36.5077 39.1712 36.5162 39.1635L42.1188 34.0436C42.5127 33.6836 42.9708 33.4065 43.4628 33.2203C43.9548 33.0341 44.4766 32.94 45 32.94C45.5234 32.94 46.0453 33.0341 46.5372 33.2203C47.0292 33.4065 47.4873 33.6836 47.8813 34.0436L56 41.4629V14.048C55.9736 14.0278 55.9191 14 55.8333 14H8.16667C8.08087 14 8.02638 14.0278 8 14.048ZM20.9838 31.0563L8 42.9216V49.952C8.02638 49.9722 8.08087 50 8.16667 50H55.8333C55.9191 50 55.9736 49.9722 56 49.952V46.8816L45.1829 36.9964C45.1744 36.9886 45.1548 36.974 45.1211 36.9612C45.0873 36.9484 45.0457 36.94 45 36.94C44.9543 36.94 44.9127 36.9484 44.8789 36.9612C44.8452 36.974 44.8256 36.9886 44.8171 36.9964L39.2146 42.1163C38.8207 42.4762 38.3626 42.7533 37.8705 42.9396C37.3786 43.1258 36.8567 43.2198 36.3333 43.2198C35.8099 43.2198 35.2881 43.1258 34.7962 42.9396C34.3041 42.7533 33.846 42.4762 33.4521 42.1163L21.3495 31.0563C21.3411 31.0486 21.3215 31.0339 21.2878 31.0212C21.254 31.0084 21.2123 31 21.1667 31C21.121 31 21.0793 31.0084 21.0455 31.0212C21.0119 31.0339 20.9923 31.0486 20.9838 31.0563Z" fill="#172126"/>
</svg>
