<svg width="64" height="64" viewBox="0 0 64 64" fill="none" xmlns="http://www.w3.org/2000/svg">
<path fill-rule="evenodd" clip-rule="evenodd" d="M43.3609 12C44.4867 11.9997 45.6031 12.2282 46.6468 12.674C47.6907 13.1198 48.6433 13.7752 49.4485 14.6057C50.2539 15.4364 50.8958 16.4259 51.3347 17.5193C51.7737 18.6128 52.0003 19.7869 52 20.9738C51.9997 22.1608 51.7727 23.3348 51.3332 24.428C50.8938 25.5212 50.2507 26.5111 49.445 27.3414L42.6072 34.3943C41.8022 35.2246 40.85 35.8798 39.8065 36.3257C38.7631 36.7714 37.6471 37 36.5216 37C35.3961 37 34.2801 36.7714 33.2367 36.3257C32.1932 35.8798 31.2409 35.2246 30.4359 34.3943C29.6671 33.6013 28.4009 33.5816 27.6079 34.3505C26.8148 35.1194 26.7952 36.3856 27.5641 37.1786C28.7346 38.3859 30.1276 39.3471 31.6652 40.004C33.2029 40.661 34.8533 41 36.5216 41C38.1899 41 39.8403 40.661 41.378 40.004C42.9156 39.3471 44.3086 38.3859 45.4791 37.1786L52.3169 30.1257C53.4879 28.9188 54.4138 27.4892 55.0446 25.9199C55.6754 24.3505 55.9996 22.6703 56 20.9747C56.0004 19.2792 55.677 17.5989 55.0468 16.0291C54.4166 14.4593 53.4911 13.029 52.3204 11.8214C51.1495 10.6137 49.7561 9.65236 48.2179 8.99542C46.6797 8.33842 45.0287 7.9996 43.3599 8C41.6911 8.0004 40.0403 8.34001 38.5024 8.99775C36.9648 9.6553 35.5714 10.6177 34.4012 11.8257L29.6154 16.762C28.8465 17.5551 28.8661 18.8213 29.6592 19.5901C30.4522 20.359 31.7184 20.3394 32.4873 19.5463L37.2744 14.6086C38.0792 13.7777 39.0315 13.1219 40.0752 12.6755C41.1188 12.2292 42.2351 12.0003 43.3609 12ZM24.1935 27.6743C25.2369 27.2286 26.3529 27 27.4784 27C28.6039 27 29.7199 27.2286 30.7633 27.6743C31.8068 28.1202 32.7591 28.7754 33.5641 29.6057C34.3329 30.3987 35.5991 30.4184 36.3921 29.6495C37.1852 28.8806 37.2048 27.6145 36.4359 26.8214C35.2654 25.6141 33.8724 24.6529 32.3348 23.996C30.7971 23.339 29.1467 23 27.4784 23C25.8101 23 24.1597 23.339 22.622 23.996C21.0844 24.6529 19.6914 25.6141 18.5209 26.8214L11.6831 33.8743C10.5121 35.0812 9.58624 36.5108 8.95544 38.0801C8.32456 39.6495 8.00038 41.3297 8 43.0253C7.99962 44.7208 8.32304 46.4011 8.9532 47.9709C9.58341 49.5407 10.5089 50.971 11.6796 52.1786C12.8505 53.3863 14.2439 54.3476 15.7821 55.0046C17.3203 55.6616 18.9713 56.0004 20.6401 56C22.3089 55.9996 23.9597 55.66 25.4976 55.0023C27.0354 54.3446 28.4285 53.3826 29.5988 52.1743L34.3846 47.238C35.1535 46.4449 35.1339 45.1787 34.3408 44.4099C33.5478 43.641 32.2816 43.6606 31.5127 44.4537L26.7256 49.3914C25.9208 50.2223 24.9685 50.8781 23.9248 51.3245C22.8812 51.7708 21.7649 51.9997 20.6391 52C19.5133 52.0003 18.3969 51.7718 17.3532 51.326C16.3093 50.8802 15.3567 50.2248 14.5515 49.3943C13.7461 48.5636 13.1042 47.5741 12.6653 46.4807C12.2263 45.3872 11.9997 44.2131 12 43.0262C12.0003 41.8392 12.2273 40.6652 12.6668 39.572C13.1062 38.4788 13.7493 37.4889 14.555 36.6586L21.3928 29.6057C22.1978 28.7754 23.15 28.1202 24.1935 27.6743Z" fill="#172126"/>
</svg>
