<svg width="64" height="64" viewBox="0 0 64 64" fill="none" xmlns="http://www.w3.org/2000/svg">
<path fill-rule="evenodd" clip-rule="evenodd" d="M39 6.00003C39 5.21635 38.5423 4.50488 37.8291 4.17999C37.116 3.85511 36.2788 3.97667 35.6875 4.49098L19.006 19C19.004 19 19.002 19 19 19C18.7153 19 18.4446 19.0595 18.1994 19.1667H7.9375C6.81647 19.1667 5.79333 19.6667 5.07662 20.4681C4.36647 21.2623 4 22.296 4 23.3334V40.6667C4 41.7041 4.36647 42.7378 5.07662 43.5319C5.79333 44.3334 6.81648 44.8334 7.9375 44.8334H18.1994C18.4446 44.9406 18.7153 45 19 45C19.002 45 19.004 45 19.006 45L35.6875 59.5091C36.2788 60.0234 37.116 60.145 37.8291 59.8201C38.5423 59.4952 39 58.7837 39 58V6.00003ZM21 41.433L35 53.6098V10.3902L21 22.5671V41.433ZM17 23.1667H8.03725C8.01958 23.2005 8 23.2568 8 23.3334V40.6667C8 40.7433 8.01958 40.7996 8.03725 40.8334H17V23.1667Z" fill="#172126"/>
<path d="M59.4405 27.3873C60.2067 26.5917 60.1828 25.3256 59.3872 24.5594C58.5915 23.7932 57.3254 23.8171 56.5593 24.6127L52.2221 29.1167L47.885 24.6127C47.1188 23.8171 45.8527 23.7932 45.0571 24.5594C44.2614 25.3256 44.2375 26.5917 45.0037 27.3873L49.4456 32L45.0037 36.6127C44.2375 37.4084 44.2614 38.6745 45.0571 39.4407C45.8527 40.2068 47.1188 40.183 47.885 39.3873L52.2221 34.8834L56.5593 39.3873C57.3254 40.183 58.5915 40.2068 59.3872 39.4407C60.1828 38.6745 60.2067 37.4084 59.4405 36.6127L54.9987 32L59.4405 27.3873Z" fill="#172126"/>
</svg>
