<svg width="64" height="64" viewBox="0 0 64 64" fill="none" xmlns="http://www.w3.org/2000/svg">
<path fill-rule="evenodd" clip-rule="evenodd" d="M11.8628 40C11.8628 38.8954 12.7582 38 13.8628 38H18.7059C21.4674 38 23.7059 40.2386 23.7059 43C23.7059 45.7614 21.4674 48 18.7059 48H15.8628V49C15.8628 50.1046 14.9674 51 13.8628 51C12.7582 51 11.8628 50.1046 11.8628 49V40ZM15.8628 44V42H18.7059C19.2582 42 19.7059 42.4477 19.7059 43C19.7059 43.5523 19.2582 44 18.7059 44H15.8628Z" fill="#172126"/>
<path fill-rule="evenodd" clip-rule="evenodd" d="M26.5686 40C26.5686 38.8954 27.464 38 28.5686 38H30.9314C34.5212 38 37.4313 40.9101 37.4313 44.5C37.4313 48.0899 34.5212 51 30.9313 51H28.5686C27.464 51 26.5686 50.1046 26.5686 49V40ZM30.5686 42V47H30.9313C32.3121 47 33.4313 45.8807 33.4313 44.5C33.4313 43.1193 32.3121 42 30.9314 42H30.5686Z" fill="#172126"/>
<path d="M50.1372 38C51.2418 38 52.1372 38.8954 52.1372 40C52.1372 41.1046 51.2418 42 50.1372 42H44.2941V44H47.196C48.3006 44 49.196 44.8954 49.196 46C49.196 47.1046 48.3006 48 47.196 48H44.2941V49C44.2941 50.1046 43.3986 51 42.2941 51C41.1895 51 40.2941 50.1046 40.2941 49V40C40.2941 38.8954 41.1895 38 42.2941 38H50.1372Z" fill="#172126"/>
<path fill-rule="evenodd" clip-rule="evenodd" d="M10.8804 31H6C4.89543 31 4 31.8954 4 33V56C4 57.1046 4.89543 58 6 58H58C59.1046 58 60 57.1046 60 56V33C60 31.8954 59.1046 31 58 31H54.098V21.091C54.0993 21.0608 54.1 21.0305 54.1 21C54.1 20.4274 53.8594 19.911 53.4737 19.5464L39.8111 5.61055C39.4474 5.2341 38.9373 5 38.3726 5H14.8412C13.7778 5 12.7661 5.43125 12.0265 6.18564C11.2882 6.9387 10.8804 7.95177 10.8804 9V31ZM14.8804 31H50.098V23H38.3726C37.268 23 36.3726 22.1046 36.3726 21V9H14.8804V31ZM8 35V54H56V35H8ZM40.3726 19V11.8969L47.3364 19H40.3726Z" fill="#172126"/>
</svg>
