<svg width="64" height="64" viewBox="0 0 64 64" fill="none" xmlns="http://www.w3.org/2000/svg">
<path fill-rule="evenodd" clip-rule="evenodd" d="M29.1094 22.3359C28.4957 21.9268 27.7066 21.8886 27.0563 22.2367C26.406 22.5847 26 23.2624 26 24V40C26 40.7376 26.406 41.4153 27.0563 41.7634C27.7066 42.1114 28.4957 42.0732 29.1094 41.6641L41.1094 33.6641C41.6658 33.2932 42 32.6687 42 32C42 31.3313 41.6658 30.7068 41.1094 30.3359L29.1094 22.3359ZM36.3944 32L30 36.263V27.737L36.3944 32Z" fill="#172126"/>
<path fill-rule="evenodd" clip-rule="evenodd" d="M32 6C17.6406 6 6 17.6406 6 32C6 46.3594 17.6406 58 32 58C46.3594 58 58 46.3594 58 32C58 17.6406 46.3594 6 32 6ZM10 32C10 19.8497 19.8497 10 32 10C44.1503 10 54 19.8497 54 32C54 44.1503 44.1503 54 32 54C19.8497 54 10 44.1503 10 32Z" fill="#172126"/>
</svg>
