<svg width="64" height="64" viewBox="0 0 64 64" fill="none" xmlns="http://www.w3.org/2000/svg">
<path fill-rule="evenodd" clip-rule="evenodd" d="M37.8291 4.17999C38.5423 4.50488 39 5.21635 39 6.00003V58C39 58.7837 38.5423 59.4952 37.8291 59.8201C37.116 60.145 36.2788 60.0234 35.6875 59.5091L18.8144 44.8334H7.9375C6.81648 44.8334 5.79333 44.3334 5.07662 43.5319C4.36647 42.7378 4 41.7041 4 40.6667V23.3334C4 22.296 4.36647 21.2623 5.07662 20.4681C5.79333 19.6667 6.81647 19.1667 7.9375 19.1667H18.8144L35.6875 4.49098C36.2788 3.97667 37.116 3.85511 37.8291 4.17999ZM35 10.3902L20.9603 22.6016C20.9863 22.7303 21 22.8636 21 23V41C21 41.1365 20.9863 41.2697 20.9603 41.3985L35 53.6098V10.3902ZM8.03725 23.1667H17V40.8334H8.03725C8.01958 40.7996 8 40.7433 8 40.6667V23.3334C8 23.2568 8.01958 23.2005 8.03725 23.1667Z" fill="#172126"/>
<path d="M54.3623 17.8846C53.596 17.0891 52.3299 17.0654 51.5344 17.8317C50.7389 18.598 50.7151 19.8641 51.4814 20.6596C52.9094 22.1421 54.046 23.9062 54.8227 25.8529C55.5994 27.7997 56.0001 29.8887 56.0001 32.0001C56.0001 34.1114 55.5994 36.2004 54.8227 38.1472C54.046 40.0939 52.9094 41.858 51.4814 43.3405C50.7151 44.136 50.7389 45.4021 51.5344 46.1684C52.3299 46.9347 53.596 46.911 54.3623 46.1155C56.1543 44.2551 57.572 42.0505 58.5379 39.6295C59.5038 37.2086 60.0001 34.6163 60.0001 32.0001C60.0001 29.3838 59.5038 26.7915 58.5379 24.3706C57.572 21.9496 56.1543 19.745 54.3623 17.8846Z" fill="#172126"/>
<path d="M47.551 24.9557C46.7848 24.1602 45.5187 24.1364 44.7231 24.9027C43.9276 25.669 43.9039 26.9351 44.6701 27.7307C45.2037 28.2846 45.6308 28.9463 45.9234 29.6797C46.2161 30.4133 46.3676 31.2019 46.3676 32C46.3676 32.7981 46.2161 33.5868 45.9234 34.3203C45.6308 35.0538 45.2037 35.7155 44.6701 36.2694C43.9039 37.0649 43.9276 38.331 44.7231 39.0973C45.5187 39.8636 46.7848 39.8399 47.551 39.0444C48.4486 38.1126 49.1567 37.0104 49.6386 35.8026C50.1204 34.595 50.3676 33.3031 50.3676 32C50.3676 30.697 50.1204 29.4051 49.6386 28.1974C49.1567 26.9896 48.4486 25.8875 47.551 24.9557Z" fill="#172126"/>
</svg>
