<svg width="64" height="64" viewBox="0 0 64 64" fill="none" xmlns="http://www.w3.org/2000/svg">
<path fill-rule="evenodd" clip-rule="evenodd" d="M30.0512 11.5348C30.6421 11.1846 31.3153 11 32.0009 11C32.6866 11 33.3597 11.1846 33.9507 11.5348C34.5416 11.8849 35.0288 12.3878 35.3618 12.9914L42.4389 25.8193L54.5938 20.3794C55.2481 20.0866 55.9704 19.9835 56.6797 20.0819C57.3889 20.1802 58.0568 20.4759 58.6081 20.9359C59.1594 21.3958 59.5722 22.0015 59.8001 22.685C60.0279 23.3684 60.0618 24.1023 59.8978 24.804L53.7721 51.0176C53.6521 51.5259 53.4314 52.0045 53.1231 52.4246C52.8148 52.8448 52.4252 53.1978 51.9779 53.4625C51.5306 53.7272 51.0348 53.898 50.5203 53.9648C50.008 54.0313 49.4876 53.9932 48.9902 53.8528C37.8677 50.7635 26.122 50.7646 15 53.8561C14.5025 53.9966 13.9819 54.0347 13.4694 53.9683C12.9547 53.9015 12.4587 53.7306 12.0112 53.4657C11.5638 53.2009 11.1742 52.8477 10.8659 52.4273C10.5575 52.0069 10.3369 51.528 10.2171 51.0195L10.2161 51.0154L4.10186 24.8016C3.93819 24.1 3.97229 23.3662 4.20033 22.683C4.42836 21.9998 4.84127 21.3942 5.39256 20.9345C5.94385 20.4748 6.61163 20.1792 7.32073 20.081C8.02982 19.9828 8.75207 20.0858 9.40615 20.3785L21.5629 25.8193L28.6401 12.9914C28.973 12.3878 29.4602 11.8849 30.0512 11.5348ZM39.0781 27.6995L32.0009 14.8715L24.9237 27.6995C24.4572 28.545 23.6933 29.1841 22.7823 29.4909C21.8713 29.7977 20.8792 29.75 20.0014 29.3571L7.84468 23.9164L13.958 50.1261L13.9585 50.1272L13.9594 50.1281L13.9606 50.1284L13.9618 50.1284L13.9725 50.1253C25.7665 46.8462 38.2224 46.845 50.017 50.1219L50.0277 50.1249L50.029 50.125L50.0301 50.1246L50.031 50.1238L50.0315 50.1227L56.1553 23.9172L44.0004 29.3571C43.1226 29.75 42.1306 29.7977 41.2196 29.4909C40.3086 29.1841 39.5446 28.545 39.0781 27.6995Z" fill="#172126"/>
</svg>
