<svg width="64" height="64" viewBox="0 0 64 64" fill="none" xmlns="http://www.w3.org/2000/svg">
<path fill-rule="evenodd" clip-rule="evenodd" d="M29.8328 8.69908C30.4618 8.24761 31.2173 8 31.9986 8C32.7799 8 33.5353 8.24761 34.1643 8.69908C34.7873 9.14627 35.2542 9.76965 35.5166 10.4789L40.1363 22.5778L52.4659 23.41C54.253 23.5306 55.4271 24.8086 55.8279 26.1487C56.2273 27.4845 55.953 29.1541 54.647 30.2845L45.1144 38.5361L48.1958 51.1427C48.5932 52.7684 47.9562 54.3025 46.8291 55.192C45.6859 56.0944 43.9805 56.3564 42.5003 55.3811L31.9986 48.4615L22.2511 54.8841C20.6345 55.9493 18.7762 55.6653 17.5244 54.6772C16.2887 53.7019 15.5873 52.0183 16.0251 50.227L18.8828 38.5361L9.35011 30.2845C8.04414 29.1541 7.76979 27.4845 8.16924 26.1487C8.56999 24.8086 9.74408 23.5306 11.5312 23.41L23.8608 22.5778L28.4805 10.4789C28.7429 9.76964 29.2098 9.14626 29.8328 8.69908ZM31.8313 48.3512L32.9317 46.6812L31.8276 48.3488C31.8288 48.3496 31.83 48.3504 31.8313 48.3512ZM34.0337 45.0122C34.0344 45.0126 34.035 45.0131 34.0357 45.0135L44.2202 51.7241L41.2289 39.4865C41.2286 39.4852 41.2283 39.484 41.228 39.4828C41.0553 38.7812 41.076 38.0439 41.2884 37.3527C41.5014 36.6599 41.9012 36.0331 42.4523 35.55L42.4618 35.5417L51.8904 27.3802L39.6887 26.5567C38.9577 26.5023 38.2642 26.2334 37.6882 25.7912C37.1154 25.3514 36.6839 24.7601 36.4331 24.0926L31.9986 12.4787L27.5639 24.0929C27.313 24.7603 26.8816 25.3515 26.3089 25.7912C25.7329 26.2334 25.0394 26.5023 24.3084 26.5566L24.2949 26.5576L12.1067 27.3802L21.5448 35.55C22.0959 36.0331 22.4957 36.6599 22.7087 37.3527C22.9213 38.0443 22.9418 38.7819 22.7689 39.4839C22.7686 39.4847 22.7684 39.4856 22.7682 39.4865L19.9107 51.1767C19.883 51.2904 19.8966 51.3637 19.9133 51.4103C19.9329 51.4652 19.9671 51.5094 20.0026 51.5374C20.0141 51.5465 20.0236 51.5523 20.0306 51.5559C20.0358 51.5531 20.0424 51.5492 20.0503 51.544L29.9614 45.0135C29.9621 45.0131 29.9627 45.0126 29.9634 45.0122C30.5652 44.6144 31.2713 44.3985 31.9986 44.3985C32.7258 44.3985 33.432 44.6144 34.0337 45.0122Z" fill="#172126"/>
</svg>
