<svg width="64" height="64" viewBox="0 0 64 64" fill="none" xmlns="http://www.w3.org/2000/svg">
<path d="M25.8787 12.8787C27.0503 11.7071 28.9497 11.7071 30.1213 12.8787C31.2929 14.0503 31.2929 15.9497 30.1213 17.1213L18.2426 29H53C54.6569 29 56 30.3431 56 32C56 33.6569 54.6569 35 53 35H18.2426L30.1213 46.8787C31.2929 48.0503 31.2929 49.9497 30.1213 51.1213C28.9497 52.2929 27.0503 52.2929 25.8787 51.1213L8.87868 34.1213C8.59105 33.8337 8.37404 33.5022 8.22764 33.1483C8.08096 32.7946 8 32.4068 8 32C8 31.5932 8.08096 31.2054 8.22764 30.8517C8.37404 30.4978 8.59105 30.1663 8.87868 29.8787L25.8787 12.8787Z" fill="#172126"/>
</svg>
