<svg width="64" height="64" viewBox="0 0 64 64" fill="none" xmlns="http://www.w3.org/2000/svg">
<path d="M12.8787 38.1213C11.7071 36.9497 11.7071 35.0503 12.8787 33.8787C14.0503 32.7071 15.9497 32.7071 17.1213 33.8787L29 45.7574L29 11C29 9.34315 30.3431 8 32 8C33.6569 8 35 9.34315 35 11L35 45.7574L46.8787 33.8787C48.0502 32.7071 49.9497 32.7071 51.1213 33.8787C52.2929 35.0503 52.2929 36.9497 51.1213 38.1213L34.1213 55.1213C33.8337 55.4089 33.5022 55.626 33.1483 55.7724C32.7946 55.919 32.4068 56 32 56C31.5932 56 31.2054 55.919 30.8517 55.7724C30.4978 55.626 30.1663 55.4089 29.8787 55.1213L12.8787 38.1213Z" fill="#172126"/>
</svg>
