<svg width="64" height="64" viewBox="0 0 64 64" fill="none" xmlns="http://www.w3.org/2000/svg">
<path d="M51.1213 25.8787C52.2929 27.0503 52.2929 28.9497 51.1213 30.1213C49.9497 31.2929 48.0503 31.2929 46.8787 30.1213L35 18.2426L35 53C35 54.6569 33.6569 56 32 56C30.3431 56 29 54.6569 29 53L29 18.2426L17.1213 30.1213C15.9497 31.2929 14.0503 31.2929 12.8787 30.1213C11.7071 28.9497 11.7071 27.0503 12.8787 25.8787L29.8787 8.87868C30.1663 8.59105 30.4978 8.37403 30.8517 8.22764C31.2054 8.08096 31.5932 8 32 8C32.4068 8 32.7946 8.08096 33.1483 8.22764C33.5022 8.37403 33.8337 8.59105 34.1213 8.87868L51.1213 25.8787Z" fill="#172126"/>
</svg>
