<svg width="64" height="64" viewBox="0 0 64 64" fill="none" xmlns="http://www.w3.org/2000/svg">
<path d="M38.1213 12.8787C36.9497 11.7071 35.0503 11.7071 33.8787 12.8787C32.7071 14.0503 32.7071 15.9497 33.8787 17.1213L45.7574 29H11C9.34315 29 8 30.3431 8 32C8 33.6569 9.34315 35 11 35H45.7574L33.8787 46.8787C32.7071 48.0502 32.7071 49.9497 33.8787 51.1213C35.0503 52.2929 36.9497 52.2929 38.1213 51.1213L55.1213 34.1213C55.7071 33.5355 56 32.7678 56 32C56 31.5932 55.919 31.2054 55.7724 30.8516C55.626 30.4978 55.409 30.1663 55.1213 29.8787L38.1213 12.8787Z" fill="#172126"/>
</svg>
