<svg width="64" height="64" viewBox="0 0 64 64" fill="none" xmlns="http://www.w3.org/2000/svg">
<path d="M43.9144 21.9113C43.1335 22.6924 41.8671 22.6926 41.086 21.9117L34 14.8275L34 37.9999C34 39.1045 33.1046 39.9999 32 39.9999C30.8954 39.9999 30 39.1045 30 37.9999L30 14.8275L22.914 21.9117C22.1329 22.6926 20.8665 22.6924 20.0856 21.9113C19.3047 21.1301 19.3048 19.8638 20.086 19.0829L30.586 8.5856C31.367 7.8048 32.633 7.8048 33.414 8.5856L43.914 19.0829C44.6952 19.8638 44.6953 21.1301 43.9144 21.9113Z" fill="#172126"/>
<path d="M10 52C8.89543 52 8 52.8954 8 54C8 55.1046 8.89543 56 10 56H54C55.1046 56 56 55.1046 56 54C56 52.8954 55.1046 52 54 52H10Z" fill="#172126"/>
</svg>
