<svg width="64" height="64" viewBox="0 0 64 64" fill="none" xmlns="http://www.w3.org/2000/svg">
<path fill-rule="evenodd" clip-rule="evenodd" d="M46.6257 29.664C46.8779 30.4043 47 31.2073 47 32C47 32.7927 46.8779 33.5957 46.6257 34.336C46.3769 35.0664 45.9821 35.7898 45.4015 36.3586L26.4017 54.9732C25.8085 55.5544 24.985 55.9986 24.0046 56C23.0238 56.0014 22.1988 55.5592 21.6041 54.9787C21.0213 54.4099 20.6251 53.6855 20.3754 52.9541C20.1224 52.2129 20 51.4086 20 50.6146L20 13.3854C20 12.5914 20.1224 11.7871 20.3755 11.0459C20.6251 10.3145 21.0213 9.59012 21.6041 9.02134C22.1988 8.44085 23.0238 7.99863 24.0045 8C24.985 8.00138 25.8085 8.44563 26.4017 9.0268L45.4015 27.6414C45.9821 28.2102 46.3769 28.9336 46.6257 29.664ZM43 32C43 31.6055 42.9376 31.2421 42.8394 30.9539C42.7379 30.6558 42.6287 30.5246 42.6022 30.4987L24.138 12.4088C24.0529 12.685 24 13.022 24 13.3854L24 50.6146C24 50.9781 24.0529 51.315 24.138 51.5912L42.6022 33.5013C42.6287 33.4754 42.7379 33.3442 42.8394 33.0461C42.9376 32.7579 43 32.3945 43 32Z" fill="#172126"/>
</svg>
