<svg width="64" height="64" viewBox="0 0 64 64" fill="none" xmlns="http://www.w3.org/2000/svg">
<path fill-rule="evenodd" clip-rule="evenodd" d="M17.3742 29.664C17.1221 30.4043 17 31.2073 17 32C17 32.7927 17.1221 33.5957 17.3742 34.336C17.6231 35.0664 18.0179 35.7898 18.5985 36.3586L37.5983 54.9732C38.1915 55.5544 39.015 55.9986 39.9954 56C40.9762 56.0014 41.8012 55.5592 42.3959 54.9787C42.9787 54.4099 43.3749 53.6855 43.6245 52.9541C43.8776 52.2129 44 51.4086 44 50.6146V13.3854C44 12.5914 43.8776 11.7871 43.6245 11.0459C43.3749 10.3145 42.9787 9.59012 42.3959 9.02134C41.8012 8.44085 40.9762 7.99863 39.9955 8C39.015 8.00138 38.1915 8.44563 37.5983 9.0268L18.5985 27.6414C18.0179 28.2102 17.6231 28.9336 17.3742 29.664ZM21 32C21 31.6055 21.0624 31.2421 21.1606 30.9539C21.2621 30.6558 21.3713 30.5246 21.3978 30.4987L39.862 12.4088C39.9471 12.685 40 13.022 40 13.3854V50.6146C40 50.9781 39.9471 51.315 39.862 51.5912L21.3978 33.5013C21.3713 33.4754 21.2621 33.3442 21.1606 33.0461C21.0624 32.7579 21 32.3945 21 32Z" fill="#172126"/>
</svg>
