<svg width="64" height="64" viewBox="0 0 64 64" fill="none" xmlns="http://www.w3.org/2000/svg">
<path d="M32 46C32.7927 46 33.5957 45.8779 34.336 45.6258C35.0665 45.3769 35.7898 44.9821 36.3586 44.4015L54.9732 25.4017C55.5544 24.8085 55.9986 23.985 56 23.0045C56.0014 22.0238 55.5592 21.1988 54.9787 20.6041C54.4099 20.0213 53.6855 19.6251 52.9542 19.3755C52.2129 19.1224 51.4086 19 50.6146 19L13.3854 19C12.5914 19 11.7871 19.1224 11.0459 19.3754C10.3145 19.6251 9.59012 20.0213 9.02133 20.6041C8.44084 21.1988 7.99863 22.0238 8 23.0046C8.00138 23.985 8.44565 24.8085 9.02681 25.4017L27.6414 44.4015C28.2102 44.9821 28.9336 45.3769 29.664 45.6258C30.4043 45.8779 31.2073 46 32 46Z" fill="#172126"/>
</svg>
