<svg width="64" height="64" viewBox="0 0 64 64" fill="none" xmlns="http://www.w3.org/2000/svg">
<path d="M18.5 32C18.5 31.2073 18.6221 30.4043 18.8742 29.664C19.1231 28.9336 19.5179 28.2102 20.0985 27.6414L39.0983 9.0268C39.6915 8.44563 40.515 8.00138 41.4955 8C42.4762 7.99863 43.3012 8.44085 43.8959 9.02134C44.4787 9.59012 44.8749 10.3145 45.1245 11.0459C45.3776 11.7871 45.5 12.5914 45.5 13.3854V50.6146C45.5 51.4086 45.3776 52.2129 45.1245 52.9541C44.8749 53.6855 44.4787 54.4099 43.8959 54.9787C43.3012 55.5592 42.4762 56.0014 41.4954 56C40.515 55.9986 39.6915 55.5544 39.0983 54.9732L20.0985 36.3586C19.5179 35.7898 19.1231 35.0664 18.8742 34.336C18.6221 33.5957 18.5 32.7927 18.5 32Z" fill="#172126"/>
</svg>
