<svg width="64" height="64" viewBox="0 0 64 64" fill="none" xmlns="http://www.w3.org/2000/svg">
<path d="M45.5 32C45.5 31.2073 45.3779 30.4043 45.1257 29.664C44.8769 28.9336 44.4821 28.2102 43.9015 27.6414L24.9017 9.0268C24.3085 8.44563 23.485 8.00138 22.5045 8C21.5238 7.99863 20.6988 8.44085 20.1041 9.02134C19.5213 9.59012 19.1251 10.3145 18.8755 11.0459C18.6224 11.7871 18.5 12.5914 18.5 13.3854V50.6146C18.5 51.4086 18.6224 52.2129 18.8754 52.9541C19.1251 53.6855 19.5213 54.4099 20.1041 54.9787C20.6988 55.5592 21.5238 56.0014 22.5046 56C23.485 55.9986 24.3085 55.5544 24.9017 54.9732L43.9015 36.3586C44.4821 35.7898 44.8769 35.0664 45.1257 34.336C45.3779 33.5957 45.5 32.7927 45.5 32Z" fill="#172126"/>
</svg>
