<svg width="64" height="64" viewBox="0 0 64 64" fill="none" xmlns="http://www.w3.org/2000/svg">
<path d="M32 19C31.2073 19 30.4043 19.1221 29.664 19.3742C28.9335 19.6231 28.2102 20.0179 27.6414 20.5985L9.0268 39.5983C8.44563 40.1915 8.00137 41.015 8 41.9954C7.99862 42.9762 8.44084 43.8012 9.02133 44.3959C9.59011 44.9787 10.3145 45.3749 11.0458 45.6245C11.7871 45.8775 12.5914 46 13.3854 46L50.6146 46C51.4086 46 52.2129 45.8776 52.9541 45.6246C53.6855 45.3749 54.4099 44.9787 54.9787 44.3959C55.5592 43.8012 56.0014 42.9762 56 41.9954C55.9986 41.015 55.5544 40.1915 54.9732 39.5983L36.3586 20.5985C35.7898 20.0179 35.0664 19.6231 34.336 19.3742C33.5957 19.1221 32.7927 19 32 19Z" fill="#172126"/>
</svg>
