<svg width="64" height="64" viewBox="0 0 64 64" fill="none" xmlns="http://www.w3.org/2000/svg">
<path d="M55.4142 11.4142C56.1952 10.6332 56.1952 9.36683 55.4142 8.58579C54.6331 7.80474 53.3668 7.80474 52.5858 8.58579L40.6 20.5716V12.2C40.6 11.0954 39.7045 10.2 38.6 10.2C37.4954 10.2 36.6 11.0954 36.6 12.2V25.4L36.6 25.4092C36.6012 25.677 36.6551 25.9324 36.7517 26.1656C36.8493 26.4015 36.994 26.6225 37.1858 26.8142C37.5692 27.1976 38.0696 27.3928 38.5721 27.3998L55.4142 11.4142Z" fill="#172126"/>
<path d="M55.4142 11.4142L43.4284 23.4H51.8C52.9045 23.4 53.8 24.2954 53.8 25.4C53.8 26.5046 52.9045 27.4 51.8 27.4L38.5721 27.3998L55.4142 11.4142Z" fill="#172126"/>
<path d="M10.2 38.6C10.2 37.4954 11.0954 36.6 12.2 36.6H25.4C25.4031 36.6 25.4062 36.6 25.4092 36.6C25.94 36.6024 26.4219 36.8115 26.7786 37.151C26.803 37.1742 26.8268 37.1981 26.85 37.2225C27.0206 37.4019 27.1515 37.6052 27.2427 37.8213C27.344 38.0606 27.4 38.3238 27.4 38.6V51.8C27.4 52.9046 26.5046 53.8 25.4 53.8C24.2954 53.8 23.4 52.9046 23.4 51.8V43.4284L11.4142 55.4142C10.6332 56.1953 9.36683 56.1953 8.58579 55.4142C7.80474 54.6332 7.80474 53.3668 8.58579 52.5858L20.5716 40.6H12.2C11.0954 40.6 10.2 39.7046 10.2 38.6Z" fill="#172126"/>
</svg>
