<svg width="64" height="64" viewBox="0 0 64 64" fill="none" xmlns="http://www.w3.org/2000/svg">
<path d="M32 8C33.1046 8 34 8.89543 34 10V33.1724L41.086 26.0883C41.8671 25.3073 43.1335 25.3075 43.9144 26.0887C44.6953 26.8698 44.6952 28.1361 43.914 28.9171L33.414 39.4143C32.633 40.1951 31.367 40.1951 30.586 39.4143L20.086 28.9171C19.3048 28.1361 19.3047 26.8698 20.0856 26.0887C20.8665 25.3075 22.1329 25.3073 22.914 26.0883L30 33.1724V10C30 8.89543 30.8954 8 32 8Z" fill="#172126"/>
<path d="M12 38C12 36.8954 11.1046 36 10 36C8.89543 36 8 36.8954 8 38V52C8 53.0609 8.42143 54.0783 9.17157 54.8284C9.92172 55.5786 10.9391 56 12 56H52C53.0609 56 54.0783 55.5786 54.8284 54.8284C55.5786 54.0783 56 53.0609 56 52V38C56 36.8954 55.1046 36 54 36C52.8954 36 52 36.8954 52 38V52H12V38Z" fill="#172126"/>
</svg>
