<svg width="64" height="64" viewBox="0 0 64 64" fill="none" xmlns="http://www.w3.org/2000/svg">
<path d="M52 8C54.2091 8 56 9.79086 56 12V52C56 54.2091 54.2091 56 52 56H12C9.79086 56 8 54.2091 8 52V41C8 39.8954 8.89543 39 10 39C11.1046 39 12 39.8954 12 41V52H52V12H12V23C12 24.1046 11.1046 25 10 25C8.89543 25 8 24.1046 8 23V12C8 9.79086 9.79086 8 12 8H52Z" fill="#172126"/>
<path d="M32.1004 22.1004C32.8815 21.3194 34.1478 21.3194 34.9289 22.1004L43.4105 30.5821C43.4252 30.5967 43.4397 30.6115 43.4539 30.6266C43.6084 30.79 43.7301 30.973 43.819 31.1674C43.9352 31.4209 44 31.7029 44 32C44 32.3427 43.9138 32.6652 43.762 32.9471C43.7172 33.0304 43.666 33.1111 43.6086 33.1887C43.5446 33.2751 43.4739 33.3562 43.3971 33.4311L34.9289 41.8994C34.1478 42.6804 32.8815 42.6804 32.1004 41.8994C31.3194 41.1183 31.3194 39.852 32.1004 39.0709L37.1714 34L10 34C8.89543 34 8 33.1046 8 32C8 30.8954 8.89543 30 10 30L37.1716 30L32.1004 24.9289C31.3194 24.1478 31.3194 22.8815 32.1004 22.1004Z" fill="#172126"/>
</svg>
