<svg width="64" height="64" viewBox="0 0 64 64" fill="none" xmlns="http://www.w3.org/2000/svg">
<path fill-rule="evenodd" clip-rule="evenodd" d="M38.8 10C38.8 8.89543 39.6954 8 40.8 8H54C55.1046 8 56 8.89543 56 10V23.2C56 24.3046 55.1046 25.2 54 25.2C52.8954 25.2 52 24.3046 52 23.2V12H40.8C39.6954 12 38.8 11.1046 38.8 10Z" fill="#172126"/>
<path fill-rule="evenodd" clip-rule="evenodd" d="M55.4142 8.58579C56.1953 9.36683 56.1953 10.6332 55.4142 11.4142L40.0142 26.8142C39.2332 27.5953 37.9668 27.5953 37.1858 26.8142C36.4047 26.0332 36.4047 24.7668 37.1858 23.9858L52.5858 8.58579C53.3668 7.80474 54.6332 7.80474 55.4142 8.58579Z" fill="#172126"/>
<path fill-rule="evenodd" clip-rule="evenodd" d="M10 38.8C11.1046 38.8 12 39.6954 12 40.8V52H23.2C24.3046 52 25.2 52.8954 25.2 54C25.2 55.1046 24.3046 56 23.2 56H10C8.89543 56 8 55.1046 8 54V40.8C8 39.6954 8.89543 38.8 10 38.8Z" fill="#172126"/>
<path fill-rule="evenodd" clip-rule="evenodd" d="M26.8142 37.1858C27.5953 37.9668 27.5953 39.2332 26.8142 40.0142L11.4142 55.4142C10.6332 56.1953 9.36683 56.1953 8.58579 55.4142C7.80474 54.6332 7.80474 53.3668 8.58579 52.5858L23.9858 37.1858C24.7668 36.4047 26.0332 36.4047 26.8142 37.1858Z" fill="#172126"/>
</svg>
