<svg width="64" height="64" viewBox="0 0 64 64" fill="none" xmlns="http://www.w3.org/2000/svg">
<path fill-rule="evenodd" clip-rule="evenodd" d="M15.001 32C15.001 30.8954 15.8964 30 17.001 30H54.001C55.1055 30 56.001 30.8954 56.001 32C56.001 33.1046 55.1055 34 54.001 34H17.001C15.8964 34 15.001 33.1046 15.001 32Z" fill="#172126"/>
<path fill-rule="evenodd" clip-rule="evenodd" d="M36.4152 12.5858C37.1962 13.3668 37.1962 14.6332 36.4152 15.4142L19.8294 32L36.4152 48.5858C37.1962 49.3668 37.1962 50.6332 36.4152 51.4142C35.6341 52.1953 34.3678 52.1953 33.5868 51.4142L15.5868 33.4142C14.8057 32.6332 14.8057 31.3668 15.5868 30.5858L33.5868 12.5858C34.3678 11.8047 35.6341 11.8047 36.4152 12.5858Z" fill="#172126"/>
<path fill-rule="evenodd" clip-rule="evenodd" d="M10 8C11.1046 8 12 8.89543 12 10V54C12 55.1046 11.1046 56 10 56C8.89543 56 8 55.1046 8 54V10C8 8.89543 8.89543 8 10 8Z" fill="#172126"/>
</svg>
