<svg width="64" height="64" viewBox="0 0 64 64" fill="none" xmlns="http://www.w3.org/2000/svg">
<path d="M50.3458 9.78577C51.1268 9.00472 52.3932 9.00472 53.1742 9.78577L59.4142 16.0258C59.8679 16.4795 60.0581 17.0969 59.9847 17.6878C59.9712 17.7963 59.9489 17.9039 59.9176 18.0094C59.8261 18.3186 59.6583 18.6101 59.4142 18.8542L53.1742 25.0942C52.3932 25.8752 51.1268 25.8752 50.3458 25.0942C49.5647 24.3131 49.5647 23.0468 50.3458 22.2658L53.1716 19.44H49.9231C47.5928 19.44 45.2962 19.9963 43.2241 21.0626C41.1521 22.1289 39.3645 23.6744 38.01 25.5706L37.6996 26.0052C37.0576 26.904 35.8085 27.1122 34.9097 26.4702C34.0109 25.8282 33.8027 24.5791 34.4447 23.6802L34.7551 23.2457C36.4797 20.8313 38.7556 18.8635 41.3938 17.5059C44.032 16.1482 46.9561 15.44 49.9231 15.44H53.1716L50.3458 12.6142C49.5647 11.8331 49.5647 10.5668 50.3458 9.78577Z" fill="#172126"/>
<path d="M4 17.44C4 16.3354 4.89543 15.44 6 15.44H11.9968C14.9638 15.44 17.8879 16.1482 20.5261 17.5059C23.1643 18.8635 25.4402 20.8313 27.1648 23.2457L38.0102 38.4293C39.3647 40.3256 41.1522 41.8711 43.2243 42.9374C45.2963 44.0037 47.5929 44.56 49.9232 44.56H53.1716L50.3458 41.7342C49.5647 40.9531 49.5647 39.6868 50.3458 38.9058C51.1268 38.1247 52.3932 38.1247 53.1742 38.9058L59.4142 45.1458C59.6084 45.3399 59.7543 45.5641 59.8519 45.8033C59.9351 46.0066 59.9857 46.2267 59.9974 46.4571C59.9991 46.4911 60 46.5255 60 46.56C60 46.5705 59.9999 46.5811 59.9998 46.5917C59.9997 46.598 59.9995 46.6044 59.9994 46.6107C59.9869 47.1055 59.7918 47.5966 59.4142 47.9742L53.1742 54.2142C52.3932 54.9952 51.1268 54.9952 50.3458 54.2142C49.5647 53.4331 49.5647 52.1668 50.3458 51.3858L53.1716 48.56H49.9232C46.9562 48.56 44.0321 47.8517 41.3939 46.4941C38.7558 45.1364 36.4798 43.1686 34.7553 40.7543L23.9098 25.5706C22.5554 23.6744 20.7678 22.1289 18.6958 21.0626C16.6237 19.9962 14.3271 19.44 11.9968 19.44H6C4.89543 19.44 4 18.5445 4 17.44Z" fill="#172126"/>
<path d="M27.0102 37.5298C26.1113 36.8877 24.8622 37.0959 24.2202 37.9948L23.9098 38.4293C22.5554 40.3256 20.7678 41.8711 18.6958 42.9374C16.6237 44.0037 14.3271 44.56 11.9968 44.56H6C4.89543 44.56 4 45.4554 4 46.56C4 47.6646 4.89543 48.56 6 48.56H11.9968C14.9638 48.56 17.8879 47.8517 20.5261 46.4941C23.1643 45.1364 25.4402 43.1686 27.1648 40.7543L27.4752 40.3197C28.1172 39.4209 27.909 38.1718 27.0102 37.5298Z" fill="#172126"/>
</svg>
