<svg width="64" height="64" viewBox="0 0 64 64" fill="none" xmlns="http://www.w3.org/2000/svg">
<path fill-rule="evenodd" clip-rule="evenodd" d="M49 32C49 33.1046 48.1046 34 47 34L10 34C8.89543 34 8 33.1046 8 32C8 30.8954 8.89543 30 10 30L47 30C48.1046 30 49 30.8954 49 32Z" fill="#172126"/>
<path fill-rule="evenodd" clip-rule="evenodd" d="M27.5858 51.4142C26.8047 50.6332 26.8047 49.3668 27.5858 48.5858L44.1716 32L27.5858 15.4142C26.8047 14.6332 26.8047 13.3668 27.5858 12.5858C28.3668 11.8047 29.6332 11.8047 30.4142 12.5858L48.4142 30.5858C49.1953 31.3668 49.1953 32.6332 48.4142 33.4142L30.4142 51.4142C29.6332 52.1953 28.3668 52.1953 27.5858 51.4142Z" fill="#172126"/>
<path fill-rule="evenodd" clip-rule="evenodd" d="M54 56C52.8954 56 52 55.1046 52 54L52 10C52 8.89543 52.8954 8 54 8C55.1046 8 56 8.89543 56 10L56 54C56 55.1046 55.1046 56 54 56Z" fill="#172126"/>
</svg>
