<svg width="64" height="64" viewBox="0 0 64 64" fill="none" xmlns="http://www.w3.org/2000/svg">
<path d="M12 8C9.79086 8 8 9.79086 8 12V52C8 54.2091 9.79086 56 12 56H32C33.1046 56 34 55.1046 34 54C34 52.8954 33.1046 52 32 52H12V12H32C33.1046 12 34 11.1046 34 10C34 8.89543 33.1046 8 32 8H12Z" fill="#172126"/>
<path d="M44.1004 22.5858C44.8815 21.8047 46.1478 21.8047 46.9289 22.5858L55.4105 31.0675C55.4252 31.0821 55.4397 31.0969 55.4539 31.112C55.6084 31.2753 55.7301 31.4584 55.819 31.6527C55.9352 31.9062 56 32.1882 56 32.4853C56 32.828 55.9138 33.1506 55.762 33.4325C55.7172 33.5157 55.666 33.5965 55.6086 33.674C55.5446 33.7604 55.4739 33.8415 55.3971 33.9165L46.9289 42.3847C46.1478 43.1658 44.8815 43.1658 44.1004 42.3847C43.3194 41.6037 43.3194 40.3373 44.1004 39.5563L49.1714 34.4853L22 34.4854C20.8954 34.4854 20 33.5899 20 32.4854C20 31.3808 20.8954 30.4854 22 30.4854L49.1716 30.4853L44.1004 25.4142C43.3194 24.6332 43.3194 23.3668 44.1004 22.5858Z" fill="#172126"/>
</svg>
