<svg width="64" height="64" viewBox="0 0 64 64" fill="none" xmlns="http://www.w3.org/2000/svg">
<path d="M30.586 8.5856C31.367 7.8048 32.633 7.8048 33.414 8.5856L43.914 19.0829C44.6952 19.8638 44.6953 21.1301 43.9144 21.9113C43.1335 22.6924 41.8671 22.6926 41.086 21.9116L34 14.8275V38C34 39.1045 33.1046 40 32 40C30.8954 40 30 39.1045 30 38V14.8275L22.914 21.9116C22.1329 22.6926 20.8665 22.6924 20.0856 21.9113C19.3047 21.1301 19.3048 19.8638 20.086 19.0829L30.586 8.5856Z" fill="#172126"/>
<path d="M12 38C12 36.8954 11.1046 36 10 36C8.89543 36 8 36.8954 8 38V52C8 53.0609 8.42143 54.0783 9.17157 54.8284C9.92172 55.5786 10.9391 56 12 56H52C53.0609 56 54.0783 55.5786 54.8284 54.8284C55.5786 54.0783 56 53.0609 56 52V38C56 36.8954 55.1046 36 54 36C52.8954 36 52 36.8954 52 38V52H12V38Z" fill="#172126"/>
</svg>
