<svg width="64" height="64" viewBox="0 0 64 64" fill="none" xmlns="http://www.w3.org/2000/svg">
<path fill-rule="evenodd" clip-rule="evenodd" d="M22 41C22 42.1046 21.1046 43 20 43L12 43L12 51C12 52.1046 11.1046 53 10 53C8.89543 53 8 52.1046 8 51L8 41C8 39.8955 8.89543 39 10 39L20 39C21.1046 39 22 39.8954 22 41Z" fill="#172126"/>
<path fill-rule="evenodd" clip-rule="evenodd" d="M42 23C42 21.8954 42.8954 21 44 21L52 21V13C52 11.8954 52.8954 11 54 11C55.1046 11 56 11.8954 56 13V23C56 24.1045 55.1046 25 54 25L44 25C42.8954 25 42 24.1046 42 23Z" fill="#172126"/>
<path fill-rule="evenodd" clip-rule="evenodd" d="M32 12C20.9543 12 12 20.9543 12 32C12 33.1046 11.1046 34 10 34C8.89543 34 8 33.1046 8 32C8 18.7452 18.7452 8 32 8C41.76 8 50.1549 13.8257 53.9054 22.181C54.3578 23.1887 53.9076 24.3723 52.8999 24.8246C51.8922 25.2769 50.7086 24.8267 50.2562 23.819C47.1272 16.8483 40.1276 12 32 12ZM54 30C55.1046 30 56 30.8954 56 32C56 45.2548 45.2548 56 32 56C22.4538 56 14.2133 50.4264 10.3478 42.3647C9.87024 41.3687 10.2905 40.1742 11.2865 39.6966C12.2825 39.219 13.4771 39.6393 13.9546 40.6353C17.18 47.362 24.0503 52 32 52C43.0457 52 52 43.0457 52 32C52 30.8954 52.8954 30 54 30Z" fill="#172126"/>
</svg>
