<svg width="64" height="64" viewBox="0 0 64 64" fill="none" xmlns="http://www.w3.org/2000/svg">
<path d="M32 52C20.9543 52 12 43.0457 12 32C12 25.0203 15.5754 18.8726 21 15.2936L21 20C21 21.1046 21.8954 22 23 22C24.1046 22 25 21.1046 25 20L25 11.9631C25.0007 11.9331 25.0007 11.903 25 11.873L25 10C25 8.89543 24.1045 8 23 8H13C11.8954 8 11 8.89543 11 10C11 11.1046 11.8954 12 13 12L18.7295 12C12.2647 16.2981 8 23.6494 8 32C8 45.2548 18.7452 56 32 56C33.1046 56 34 55.1046 34 54C34 52.8954 33.1046 52 32 52Z" fill="#172126"/>
<path d="M32 8C30.8954 8 30 8.89543 30 10C30 11.1046 30.8954 12 32 12C43.0457 12 52 20.9543 52 32C52 38.9796 48.4249 45.1271 43 48.7064L43 44C43 42.8954 42.1046 42 41 42C39.8954 42 39 42.8954 39 44L39 54C39 55.1046 39.8955 56 41 56H51C52.1046 56 53 55.1046 53 54C53 52.8954 52.1046 52 51 52H45.2705C51.7351 47.7021 56 40.3506 56 32C56 18.7452 45.2548 8 32 8Z" fill="#172126"/>
</svg>
