<svg width="64" height="64" viewBox="0 0 64 64" fill="none" xmlns="http://www.w3.org/2000/svg">
<path fill-rule="evenodd" clip-rule="evenodd" d="M32 18.9091C33.046 18.9091 33.8939 19.7618 33.8939 20.8136V32.2409H45.2577C46.3036 32.2409 47.1516 33.0936 47.1516 34.1455C47.1516 35.1973 46.3036 36.05 45.2577 36.05H32C30.954 36.05 30.1061 35.1973 30.1061 34.1455V20.8136C30.1061 19.7618 30.954 18.9091 32 18.9091Z" fill="#172126"/>
<path fill-rule="evenodd" clip-rule="evenodd" d="M32 15.1C21.54 15.1 13.0605 23.6269 13.0605 34.1455C13.0605 44.664 21.54 53.1909 32 53.1909C42.46 53.1909 50.9395 44.664 50.9395 34.1455C50.9395 23.6269 42.46 15.1 32 15.1ZM9.2726 34.1455C9.2726 21.5232 19.448 11.2909 32 11.2909C44.552 11.2909 54.7274 21.5232 54.7274 34.1455C54.7274 46.7677 44.552 57 32 57C19.448 57 9.2726 46.7677 9.2726 34.1455Z" fill="#172126"/>
<path fill-rule="evenodd" clip-rule="evenodd" d="M46.7315 8.55783C47.4711 7.81406 48.6703 7.81406 49.4099 8.55783L57.4453 16.6381C58.1849 17.3819 58.1849 18.5878 57.4453 19.3316C56.7056 20.0753 55.5065 20.0753 54.7668 19.3316L46.7315 11.2513C45.9918 10.5075 45.9918 9.3016 46.7315 8.55783Z" fill="#172126"/>
<path fill-rule="evenodd" clip-rule="evenodd" d="M17.2685 8.55783C18.0082 9.3016 18.0082 10.5075 17.2685 11.2513L9.23318 19.3316C8.49354 20.0753 7.29436 20.0753 6.55473 19.3316C5.81509 18.5878 5.81509 17.3819 6.55473 16.6381L14.5901 8.55783C15.3297 7.81406 16.5289 7.81406 17.2685 8.55783Z" fill="#172126"/>
</svg>
