<svg width="64" height="64" viewBox="0 0 64 64" fill="none" xmlns="http://www.w3.org/2000/svg">
<path fill-rule="evenodd" clip-rule="evenodd" d="M46 6C46 4.89543 45.1046 4 44 4C42.8954 4 42 4.89543 42 6V8H22V6C22 4.89543 21.1046 4 20 4C18.8954 4 18 4.89543 18 6V8H12C9.79086 8 8 9.79086 8 12V52C8 54.2091 9.79086 56 12 56H52C54.2091 56 56 54.2091 56 52V12C56 9.79086 54.2091 8 52 8H46V6ZM52 12H46V14C46 15.1046 45.1046 16 44 16C42.8954 16 42 15.1046 42 14V12H22V14C22 15.1046 21.1046 16 20 16C18.8954 16 18 15.1046 18 14V12H12V20H52V12ZM12 24H52V52H12V24ZM21 31.9991C21 30.8946 21.8954 29.9991 23 29.9991H30C30.7688 29.9991 31.4696 30.4398 31.8026 31.1328C32.1356 31.8257 32.042 32.6482 31.5617 33.2485L29.3457 36.0186C29.9938 36.4539 30.5523 37.0127 30.9883 37.665C31.5365 38.4852 31.8741 39.4279 31.971 40.4097C32.0679 41.3915 31.9212 42.382 31.544 43.2936C31.1667 44.2051 30.5705 45.0096 29.8081 45.6358C29.0457 46.2619 28.1407 46.6904 27.1732 46.8833C26.2057 47.0762 25.2056 47.0276 24.2614 46.7417C23.3171 46.4558 22.458 45.9415 21.7599 45.2444C20.9784 44.4638 20.9777 43.1975 21.7582 42.4159C22.5388 41.6344 23.8051 41.6336 24.5866 42.4142C24.8193 42.6466 25.1057 42.818 25.4205 42.9133C25.7352 43.0086 26.0686 43.0248 26.3911 42.9605C26.7136 42.8962 27.0153 42.7534 27.2694 42.5447C27.5235 42.336 27.7222 42.0678 27.848 41.764C27.9737 41.4601 28.0226 41.1299 27.9903 40.8027C27.958 40.4754 27.8455 40.1612 27.6628 39.8878C27.48 39.6143 27.2327 39.3902 26.9427 39.2352C26.6526 39.0802 26.3288 38.9991 26 38.9991C25.2312 38.9991 24.5304 38.5585 24.1974 37.8655C23.8644 37.1726 23.958 36.3501 24.4383 35.7498L25.8388 33.9991H23C21.8954 33.9991 21 33.1037 21 31.9991ZM42 31.9993C42 31.2417 41.572 30.5492 40.8944 30.2104C40.2169 29.8716 39.406 29.9447 38.8 30.3993L34.8 33.3993C33.9163 34.062 33.7373 35.3156 34.4 36.1993C35.0627 37.0829 36.3163 37.262 37.2 36.5993L38 35.9993V44.9993C38 46.1038 38.8954 46.9993 40 46.9993C41.1046 46.9993 42 46.1038 42 44.9993V31.9993Z" fill="#172126"/>
</svg>
