<svg width="64" height="64" viewBox="0 0 64 64" fill="none" xmlns="http://www.w3.org/2000/svg">
<path fill-rule="evenodd" clip-rule="evenodd" d="M32 10C19.8497 10 10 19.8497 10 32C10 44.1503 19.8497 54 32 54C44.1503 54 54 44.1503 54 32C54 19.8497 44.1503 10 32 10ZM6 32C6 17.6406 17.6406 6 32 6C46.3594 6 58 17.6406 58 32C58 46.3594 46.3594 58 32 58C17.6406 58 6 46.3594 6 32Z" fill="#172126"/>
<path fill-rule="evenodd" clip-rule="evenodd" d="M32 16C33.1046 16 34 16.8954 34 18V30H46C47.1046 30 48 30.8954 48 32C48 33.1046 47.1046 34 46 34H32C30.8954 34 30 33.1046 30 32V18C30 16.8954 30.8954 16 32 16Z" fill="#172126"/>
</svg>
