<svg width="64" height="64" viewBox="0 0 64 64" fill="none" xmlns="http://www.w3.org/2000/svg">
<path d="M23.7433 14.4466C27.2199 13.0083 31.0455 12.6319 34.7363 13.3652C38.4271 14.0985 41.817 15.9084 44.4775 18.5658L49.1675 23.2503H44.4436C43.339 23.2503 42.4436 24.1458 42.4436 25.2503C42.4436 26.3549 43.339 27.2503 44.4436 27.2503H53.9954C54.0044 27.2504 54.0133 27.2503 54.0223 27.2502C54.3413 27.2468 54.6424 27.1686 54.909 27.0324C55.0009 26.9855 55.09 26.9309 55.1753 26.8688C55.6752 26.5053 56.0001 25.9157 56.0001 25.2503V15.7049C56.0001 14.6003 55.1047 13.7049 54.0001 13.7049C52.8956 13.7049 52.0001 14.6003 52.0001 15.7049V20.4261L47.3043 15.7357C44.0841 12.5193 39.9816 10.3291 35.5158 9.44186C31.05 8.55458 26.421 9.00995 22.2141 10.7505C18.0072 12.491 14.4111 15.4386 11.8809 19.221C9.35066 23.0034 8 27.4505 8 32C8 36.5495 9.35066 40.9966 11.8809 44.779C14.4111 48.5614 18.0072 51.509 22.2141 53.2495C26.421 54.9901 31.05 55.4454 35.5158 54.5581C39.9816 53.6709 44.0841 51.4807 47.3043 48.2643C48.0858 47.4837 48.0865 46.2174 47.3059 45.4358C46.5253 44.6543 45.259 44.6536 44.4775 45.4342C41.817 48.0916 38.4271 49.9015 34.7363 50.6348C31.0455 51.3681 27.2199 50.9917 23.7433 49.5534C20.2668 48.115 17.2957 45.6794 15.2056 42.5549C13.1155 39.4305 12 35.7573 12 32C12 28.2427 13.1155 24.5695 15.2056 21.4451C17.2957 18.3206 20.2668 15.885 23.7433 14.4466Z" fill="#172126"/>
<path d="M31 20.5455C31 19.4409 30.1046 18.5455 29 18.5455C27.8954 18.5455 27 19.4409 27 20.5455V31.9669C26.999 32.0293 27.001 32.0915 27.0058 32.1535C27.0506 32.7434 27.3512 33.2618 27.7971 33.598C27.8733 33.6554 27.9538 33.7076 28.0379 33.7538L37.9324 39.4598C38.8893 40.0116 40.1123 39.6832 40.6641 38.7264C41.2159 37.7695 40.8875 36.5465 39.9307 35.9947L31 30.8445V20.5455Z" fill="#172126"/>
</svg>
