<svg width="64" height="64" viewBox="0 0 64 64" fill="none" xmlns="http://www.w3.org/2000/svg">
<path d="M21.9621 17C23.3468 17 24.6276 17.1071 25.7977 17.4243C26.8596 17.6172 27.8732 18.0132 28.7817 18.59C29.6355 19.1193 30.2748 19.8629 30.6995 20.8164C31.1264 21.77 31.3388 22.9378 31.3388 24.2086C31.3388 25.6936 31.0203 26.9643 30.2748 27.9178C29.6355 28.8735 28.5694 29.72 27.2908 30.3564C29.1025 30.8878 30.4872 31.8414 31.3388 33.1121C32.1926 34.385 32.7257 35.975 32.7257 37.7771C32.7257 39.2621 32.405 40.5328 31.8719 41.5935C31.3388 42.6542 30.4872 43.6078 29.5272 44.2442C28.4844 44.9264 27.3316 45.4279 26.1185 45.7271C24.8399 46.0464 23.5614 46.2585 22.2828 46.2585H8V17H21.9621ZM21.1083 28.8714C22.2807 28.8714 23.2407 28.5543 23.9861 28.025C24.7316 27.4957 25.0523 26.54 25.0523 25.3743C25.0523 24.7378 24.9439 24.1014 24.7316 23.6793C24.5192 23.255 24.1985 22.9357 23.7737 22.6186C23.3468 22.4064 22.9199 22.1943 22.3869 22.0893C21.8538 21.9821 21.3228 21.9821 20.6814 21.9821H14.5011V28.8735H21.1105L21.1083 28.8714ZM21.429 41.3814C22.0683 41.3814 22.7076 41.2742 23.2407 41.1692C23.7789 41.068 24.2879 40.8507 24.7316 40.5328C25.1658 40.2226 25.5291 39.8254 25.7977 39.3671C26.0101 38.8378 26.2246 38.2014 26.2246 37.46C26.2246 35.975 25.7977 34.9143 24.9461 34.1728C24.0923 33.5364 22.9199 33.2193 21.5352 33.2193H14.5011V41.3835H21.429V41.3814ZM41.9984 41.2742C42.85 42.1228 44.1286 42.5471 45.834 42.5471C47.0064 42.5471 48.0726 42.23 48.9242 41.7007C49.778 41.0642 50.3111 40.4278 50.5235 39.7914H55.746C54.8922 42.335 53.6136 44.1371 51.9103 45.3028C50.2027 46.3635 48.1787 46.9999 45.7278 46.9999C44.1597 47.0046 42.6048 46.7167 41.1446 46.1514C39.8307 45.664 38.6591 44.8631 37.7337 43.8199C36.744 42.844 36.0124 41.6423 35.6035 40.3207C35.0704 38.9428 34.8559 37.46 34.8559 35.7628C34.8559 34.1728 35.0704 32.69 35.6035 31.31C36.1161 29.9816 36.8745 28.7593 37.8399 27.7057C38.7999 26.7521 39.9722 25.9057 41.2508 25.3743C42.6739 24.8087 44.1941 24.5205 45.7278 24.5257C47.5395 24.5257 49.1387 24.845 50.5235 25.5864C51.9103 26.3278 52.9744 27.1764 53.8282 28.4493C54.6991 29.6718 55.3481 31.0351 55.746 32.4778C55.9583 33.9607 56.0645 35.4457 55.9583 37.1407H40.5053C40.5053 38.8378 41.1446 40.4278 41.9984 41.2764V41.2742ZM48.7118 30.1443C47.9664 29.4028 46.794 28.9785 45.4071 28.9785C44.4493 28.9785 43.7017 29.1907 43.0624 29.5078C42.4231 29.8271 41.9984 30.2514 41.5715 30.6757C41.1792 31.0855 40.9196 31.6019 40.826 32.1585C40.7177 32.69 40.6115 33.1121 40.6115 33.5364H50.2027C49.9904 31.9464 49.4573 30.8878 48.7118 30.1443ZM39.333 19.0143H51.2689V21.8771H39.3351V19.0143H39.333Z" fill="#172126"/>
</svg>
