<svg width="64" height="64" viewBox="0 0 64 64" fill="none" xmlns="http://www.w3.org/2000/svg">
<path fill-rule="evenodd" clip-rule="evenodd" d="M12.5 8H51.5C53.975 8 56 10.025 56 12.5V51.5C56 53.975 53.975 56 51.5 56H12.5C10.025 56 8 53.975 8 51.5V12.5C8 10.025 10.025 8 12.5 8ZM26.9465 29.0285C27.5555 28.5875 27.8465 27.857 27.8465 26.8445C27.8465 26.282 27.752 25.823 27.5555 25.466C27.3647 25.1188 27.0825 24.8303 26.7395 24.632C26.3825 24.4185 25.9879 24.2754 25.577 24.2105C25.1289 24.1268 24.6738 24.0861 24.218 24.089H19.277V29.6945H24.6215C25.559 29.7035 26.3375 29.4785 26.9465 29.0285ZM27.782 34.091C27.0875 33.566 26.1695 33.3035 25.025 33.3035H19.2785V39.9125H24.9125C25.4375 39.9125 25.925 39.866 26.3945 39.7625C26.864 39.659 27.2855 39.5 27.641 39.257C27.998 39.023 28.2875 38.7035 28.5035 38.3015C28.7195 37.8995 28.823 37.373 28.823 36.7445C28.823 35.507 28.4765 34.625 27.782 34.091ZM39.4625 20.6285H49.184V23H39.4625V20.6285ZM31.4945 42.35C32.2881 41.7843 32.9367 41.039 33.3875 40.175L33.3905 40.1735C33.8585 39.302 34.0925 38.252 34.0835 37.0235C34.0835 35.5235 33.728 34.238 32.996 33.17C32.2745 32.111 31.187 31.361 29.705 30.9395C30.7925 30.4235 31.598 29.7665 32.1515 28.961C32.705 28.1555 32.9765 27.152 32.9765 25.943C32.9765 24.827 32.789 23.8805 32.423 23.1305C32.048 22.3715 31.523 21.761 30.857 21.302C30.1233 20.8157 29.3012 20.4783 28.4375 20.309C27.4895 20.1125 26.4485 20.009 25.3055 20.009H14V44H25.634C26.6912 44.0032 27.7442 43.8676 28.766 43.5965C29.7428 43.3476 30.6669 42.9254 31.4945 42.35ZM52.9715 36.4625H40.4375C40.4375 37.832 40.907 39.134 41.6195 39.8375C42.332 40.5305 43.364 40.8875 44.7035 40.8875C45.6695 40.8875 46.4945 40.643 47.198 40.1555C47.891 39.668 48.314 39.152 48.473 38.618H52.673C51.998 40.709 50.9765 42.1985 49.5785 43.1C48.2 44 46.5125 44.45 44.5535 44.45C43.184 44.45 41.957 44.225 40.85 43.793C39.7916 43.381 38.8352 42.7443 38.0465 41.927C37.2711 41.0892 36.6717 40.1042 36.284 39.0305C35.8569 37.843 35.6441 36.589 35.6555 35.327C35.6555 34.0235 35.8715 32.8145 36.293 31.6895C36.725 30.5645 37.325 29.5895 38.111 28.7825C38.9121 27.9573 39.8678 27.2978 40.9235 26.8415C42.011 26.372 43.211 26.138 44.543 26.138C46.0145 26.138 47.2985 26.42 48.4055 27.0005C49.502 27.572 50.402 28.3415 51.1145 29.306C51.827 30.2705 52.3235 31.3685 52.643 32.606C52.952 33.8255 53.0555 35.1095 52.9715 36.4595V36.4625ZM42.5105 30.134C43.007 29.873 43.6445 29.741 44.4035 29.741L44.405 29.7395C45.5765 29.7395 46.5335 30.077 47.114 30.7145C47.6765 31.343 48.098 32.2415 48.2105 33.461H40.448C40.4782 33.0732 40.5506 32.69 40.664 32.318C40.7887 31.8686 41.0058 31.4501 41.3015 31.0895C41.6105 30.7145 42.014 30.395 42.5105 30.134Z" fill="#172126"/>
</svg>
