<svg width="64" height="64" viewBox="0 0 64 64" fill="none" xmlns="http://www.w3.org/2000/svg">
<path fill-rule="evenodd" clip-rule="evenodd" d="M56 53.3563C56 54.813 54.813 56 53.3563 56V55.982H41.127V37.4043H47.3676L48.3027 30.1566H41.127V25.5347C41.127 23.4305 41.7025 22.0098 44.7239 22.0098H48.5545V15.5354C47.8891 15.4455 45.6051 15.2477 42.9614 15.2477C37.4223 15.2477 33.6456 18.6287 33.6456 24.8153V30.1566H27.387V37.4043H33.6456V55.982H10.6437C9.18696 55.982 8 54.7951 8 53.3383V10.6437C8 9.18696 9.18696 8 10.6437 8H53.3563C54.813 8 56 9.18696 56 10.6437V53.3563Z" fill="#172126"/>
</svg>
