<svg width="64" height="64" viewBox="0 0 64 64" fill="none" xmlns="http://www.w3.org/2000/svg">
<path d="M32 6C17.635 6 6 17.478 6 31.6347C6 42.9632 13.449 52.5698 23.7775 55.9557C25.0775 56.1971 25.5542 55.4046 25.5542 54.7231C25.5542 54.1143 25.5325 52.5014 25.5217 50.3652C18.2893 51.9118 16.764 46.9259 16.764 46.9259C15.581 43.9672 13.8715 43.1768 13.8715 43.1768C11.5163 41.5874 14.0535 41.6195 14.0535 41.6195C16.6643 41.7989 18.0358 44.2599 18.0358 44.2599C20.3542 48.1798 24.122 47.0476 25.6083 46.3918C25.8423 44.7341 26.5118 43.604 27.255 42.9632C21.4808 42.3223 15.412 40.1177 15.412 30.2953C15.412 27.4969 16.4195 25.2111 18.0878 23.4167C17.7953 22.7694 16.9178 20.1632 18.3153 16.632C18.3153 16.632 20.4928 15.9441 25.4653 19.2596C27.5453 18.6892 29.7553 18.4072 31.9653 18.3944C34.1753 18.4072 36.3853 18.6892 38.4653 19.2596C43.4053 15.9441 45.5828 16.632 45.5828 16.632C46.9803 20.1632 46.1028 22.7694 45.8428 23.4167C47.5003 25.2111 48.5078 27.4969 48.5078 30.2953C48.5078 40.1433 42.4303 42.3116 36.6453 42.9418C37.5553 43.7108 38.4003 45.2831 38.4003 47.6842C38.4003 51.115 38.3678 53.8707 38.3678 54.7039C38.3678 55.3768 38.8228 56.1779 40.1553 55.9215C50.5575 52.5591 58 42.9461 58 31.6347C58 17.478 46.3585 6 32 6" fill="#172126"/>
</svg>
