<svg width="64" height="64" viewBox="0 0 64 64" fill="none" xmlns="http://www.w3.org/2000/svg">
<path d="M12.8 8H51.2C52.473 8 53.6939 8.50571 54.5941 9.40589C55.4943 10.3061 56 11.527 56 12.8V51.2C56 52.473 55.4943 53.6939 54.5941 54.5941C53.6939 55.4943 52.473 56 51.2 56H38.84C38 55.808 38 54.176 38 53.6V47.024C38 44.792 37.208 43.328 36.344 42.584C41.696 41.984 47.312 39.968 47.312 30.8C47.312 28.136 46.4 26 44.84 24.296C45.08 23.696 45.92 21.2 44.6 17.96C44.6 17.96 42.584 17.312 38 20.408C36.104 19.88 34.04 19.616 32 19.616C29.96 19.616 27.896 19.88 26 20.408C21.416 17.312 19.4 17.96 19.4 17.96C18.08 21.2 18.92 23.696 19.16 24.296C17.6 26 16.688 28.136 16.688 30.8C16.688 39.944 22.28 42.008 27.608 42.608C26.936 43.208 26.312 44.264 26.096 45.824C24.728 46.4 21.2 47.48 19.112 43.832C19.112 43.832 17.84 41.528 15.44 41.36C15.44 41.36 13.088 41.312 15.2 42.8C15.2 42.8 16.832 43.544 17.936 46.328C17.936 46.328 19.352 50.984 26 49.544V53.6C26 54.176 26 55.808 25.136 56H12.8C11.527 56 10.3061 55.4943 9.40589 54.5941C8.50571 53.6939 8 52.473 8 51.2V12.8C8 11.527 8.50571 10.3061 9.40589 9.40589C10.3061 8.50571 11.527 8 12.8 8Z" fill="#172126"/>
</svg>
