<svg width="64" height="64" viewBox="0 0 64 64" fill="none" xmlns="http://www.w3.org/2000/svg">
<path fill-rule="evenodd" clip-rule="evenodd" d="M32 19.6719C25.1938 19.6719 19.6719 25.1938 19.6719 32C19.6719 38.8062 25.1938 44.3281 32 44.3281C38.8062 44.3281 44.3281 38.8062 44.3281 32C44.3281 25.1938 38.8062 19.6719 32 19.6719ZM32 39.9969C27.5844 39.9969 24.0031 36.4156 24.0031 32C24.0031 27.5844 27.5844 24.0031 32 24.0031C36.4156 24.0031 39.9969 27.5844 39.9969 32C39.9969 36.4156 36.4156 39.9969 32 39.9969Z" fill="#172126"/>
<path d="M44.8156 22.0627C46.4 22.0627 47.6937 20.7783 47.6937 19.1845C47.6937 17.6001 46.4 16.3064 44.8156 16.3064C43.2313 16.3064 41.9375 17.5908 41.9375 19.1845C41.9375 20.7689 43.2219 22.0627 44.8156 22.0627Z" fill="#172126"/>
<path fill-rule="evenodd" clip-rule="evenodd" d="M32 8C25.4844 8 24.6688 8.02812 22.1094 8.14062C19.5594 8.25313 17.8063 8.66562 16.2875 9.25625C14.7031 9.875 13.3625 10.6906 12.0313 12.0312C10.6906 13.3625 9.875 14.7031 9.25625 16.2781C8.66562 17.8063 8.25313 19.55 8.14063 22.1C8.02813 24.6687 8 25.4844 8 32C8 38.5156 8.02813 39.3312 8.14063 41.8906C8.25313 44.4406 8.66562 46.1938 9.25625 47.7125C9.875 49.2969 10.6906 50.6375 12.0313 51.9688C13.3625 53.3 14.7031 54.125 16.2781 54.7344C17.8063 55.325 19.55 55.7375 22.1 55.85C24.6594 55.9625 25.475 55.9906 31.9906 55.9906C38.5063 55.9906 39.3219 55.9625 41.8813 55.85C44.4313 55.7375 46.1844 55.325 47.7031 54.7344C49.2781 54.125 50.6188 53.3 51.95 51.9688C53.2812 50.6375 54.1063 49.2969 54.7156 47.7219C55.3063 46.1938 55.7188 44.45 55.8313 41.9C55.9438 39.3406 55.9719 38.525 55.9719 32.0094C55.9719 25.4938 55.9438 24.6781 55.8313 22.1188C55.7188 19.5688 55.3063 17.8156 54.7156 16.2969C54.125 14.7031 53.3094 13.3625 51.9688 12.0312C50.6375 10.7 49.2969 9.875 47.7219 9.26562C46.1938 8.675 44.45 8.2625 41.9 8.15C39.3313 8.02813 38.5156 8 32 8ZM32 12.3219C38.4125 12.3219 39.1719 12.35 41.6938 12.4625C44.0375 12.5656 45.3031 12.9594 46.1469 13.2875C47.2625 13.7188 48.0688 14.2438 48.9031 15.0781C49.7469 15.9219 50.2625 16.7188 50.6938 17.8344C51.0219 18.6781 51.4156 19.9531 51.5188 22.2875C51.6313 24.8187 51.6594 25.5781 51.6594 31.9813C51.6594 38.3938 51.6313 39.1531 51.5188 41.675C51.4156 44.0188 51.0219 45.2844 50.6938 46.1281C50.2625 47.2438 49.7375 48.05 48.9031 48.8844C48.0594 49.7281 47.2625 50.2438 46.1469 50.675C45.3031 51.0031 44.0281 51.3969 41.6938 51.5C39.1625 51.6125 38.4031 51.6406 32 51.6406C25.5875 51.6406 24.8281 51.6125 22.3063 51.5C19.9625 51.3969 18.6969 51.0031 17.8531 50.675C16.7375 50.2438 15.9313 49.7188 15.0969 48.8844C14.2531 48.0406 13.7375 47.2438 13.3063 46.1281C12.9781 45.2844 12.5844 44.0094 12.4813 41.675C12.3688 39.1438 12.3406 38.3844 12.3406 31.9813C12.3406 25.5688 12.3688 24.8094 12.4813 22.2875C12.5844 19.9437 12.9781 18.6781 13.3063 17.8344C13.7375 16.7188 14.2625 15.9125 15.0969 15.0781C15.9406 14.2344 16.7375 13.7188 17.8531 13.2875C18.6969 12.9594 19.9719 12.5656 22.3063 12.4625C24.8281 12.35 25.5875 12.3219 32 12.3219Z" fill="#172126"/>
</svg>
