<svg width="64" height="64" viewBox="0 0 64 64" fill="none" xmlns="http://www.w3.org/2000/svg">
<path d="M41.759 32.0076C41.759 26.6178 37.3895 22.2489 32.0003 22.2489C26.6105 22.2489 22.2416 26.6178 22.2416 32.0076C22.2416 37.3969 26.6105 41.7663 32.0003 41.7663C37.3895 41.7663 41.759 37.3969 41.759 32.0076Z" fill="#172126"/>
<path fill-rule="evenodd" clip-rule="evenodd" d="M31.0246 8.00703C30.4325 8.00677 29.884 8.00652 29.374 8.00732V8C23.9177 8.0061 22.871 8.04269 20.1703 8.16468C17.3159 8.29581 15.7661 8.77155 14.7341 9.17409C13.3679 9.70594 12.392 10.3403 11.3674 11.3649C10.3427 12.3896 9.70716 13.3655 9.17653 14.7317C8.77582 15.7637 8.29886 17.3129 8.16834 20.1673C8.02806 23.2535 8 24.1757 8 31.9936C8 39.8115 8.02806 40.7386 8.16834 43.8248C8.29825 46.6792 8.77582 48.2284 9.17653 49.2592C9.70838 50.626 10.3427 51.5994 11.3674 52.6241C12.392 53.6488 13.3679 54.2831 14.7341 54.8137C15.7667 55.2144 17.3159 55.6914 20.1703 55.8231C23.2565 55.9634 24.183 55.9939 32.0003 55.9939C39.817 55.9939 40.7441 55.9634 43.8303 55.8231C46.6847 55.6926 48.2351 55.2169 49.2659 54.8143C50.6327 54.2837 51.6055 53.6494 52.6302 52.6247C53.6549 51.6007 54.2904 50.6278 54.821 49.2616C55.2217 48.2309 55.6987 46.6817 55.8292 43.8272C55.9695 40.7411 56 39.814 56 32.0009C56 24.1879 55.9695 23.2608 55.8292 20.1746C55.6993 17.3202 55.2217 15.771 54.821 14.7402C54.2892 13.374 53.6549 12.3981 52.6302 11.3735C51.6061 10.3488 50.6321 9.71448 49.2659 9.18385C48.2339 8.78314 46.6847 8.30618 43.8303 8.17566C40.7435 8.03538 39.817 8.00732 32.0003 8.00732L31.0246 8.00703ZM44.1145 16.3803C44.1145 14.4401 45.6881 12.8684 47.6276 12.8684V12.8672C49.5672 12.8672 51.1408 14.4407 51.1408 16.3803C51.1408 18.3198 49.5672 19.8934 47.6276 19.8934C45.6881 19.8934 44.1145 18.3198 44.1145 16.3803ZM32.0003 16.9731C23.6975 16.9731 16.9658 23.7048 16.9658 32.0076C16.9658 40.3104 23.6975 47.0391 32.0003 47.0391C40.3031 47.0391 47.0324 40.3104 47.0324 32.0076C47.0324 23.7048 40.3031 16.9731 32.0003 16.9731Z" fill="#172126"/>
</svg>
