<svg width="64" height="64" viewBox="0 0 64 64" fill="none" xmlns="http://www.w3.org/2000/svg">
<path fill-rule="evenodd" clip-rule="evenodd" d="M11.542 8H52.444C54.4 8 56 9.548 56 11.458V52.542C56 54.454 54.4 56 52.444 56H11.542C9.584 56 8 54.454 8 52.542V11.458C8 9.548 9.584 8 11.542 8ZM15.7545 21.6567C16.5285 22.4314 17.5789 22.8665 18.674 22.866C20.9539 22.8671 22.8029 21.0198 22.804 18.74C22.8051 16.4601 20.9578 14.6111 18.678 14.61C16.3982 14.6089 14.5491 16.4561 14.548 18.736C14.5464 19.8311 14.9805 20.8819 15.7545 21.6567ZM41.786 48.904H48.894H48.896V36.332C48.896 30.162 47.564 25.422 40.362 25.422C36.896 25.422 34.576 27.322 33.622 29.122H33.53V26H26.702V48.904H33.81V37.57C33.81 34.582 34.376 31.692 38.082 31.692C41.732 31.692 41.786 35.11 41.786 37.766V48.904ZM22.238 48.904H15.11V26H22.238V48.904Z" fill="#172126"/>
</svg>
