<svg width="64" height="64" viewBox="0 0 64 64" fill="none" xmlns="http://www.w3.org/2000/svg">
<path d="M20 13.4981C19.9308 10.3771 17.6836 8 14.0346 8C10.3856 8 8 10.3771 8 13.4981C8 16.5544 10.3151 19 13.8962 19H13.9643C17.6836 19 20 16.5544 20 13.4981Z" fill="#172126"/>
<path d="M19 23H9V56H19V23Z" fill="#172126"/>
<path d="M44.3085 22C50.9905 22 56 26.7489 56 36.9523L55.9996 55.9991H45.8456V38.2269C45.8456 33.7629 44.3762 30.7168 40.7003 30.7168C37.8949 30.7168 36.2239 32.7703 35.49 34.7537C35.2215 35.4645 35.1556 36.4549 35.1556 37.4477V56H25C25 56 25.1338 25.898 25 22.7809H35.1556V27.4861C36.5034 25.2243 38.9171 22 44.3085 22Z" fill="#172126"/>
</svg>
