<svg width="64" height="64" viewBox="0 0 64 64" fill="none" xmlns="http://www.w3.org/2000/svg">
<path d="M16.7425 21.732C16.7936 21.2244 16.6076 20.7218 16.24 20.3739L12.505 15.6981V15H24.1L33.065 35.4295L40.945 15H52V15.6981L48.8075 18.8838C48.5318 19.1051 48.3959 19.4607 48.4525 19.8129V43.1922C48.395 43.5475 48.5325 43.9029 48.8075 44.1212L51.925 47.3045V48H36.24V47.3019L39.47 44.0425C39.7875 43.7125 39.7875 43.6161 39.7875 43.1109V24.2146L30.805 47.9238H29.59L19.1325 24.2146V40.1054C19.045 40.7707 19.2582 41.4405 19.7125 41.928L23.9125 47.2232V47.9213H12V47.2232L16.2 41.928C16.65 41.4457 16.85 40.7679 16.7425 40.1028V21.732Z" fill="#172126"/>
</svg>
