<svg width="64" height="64" viewBox="0 0 64 64" fill="none" xmlns="http://www.w3.org/2000/svg">
<path fill-rule="evenodd" clip-rule="evenodd" d="M52 8H12C9.33333 8 8 9.33333 8 12V52C8 54.6667 9.33333 56 12 56H52C54.6667 56 56 54.6667 56 52V12C56 9.33333 54.6667 8 52 8ZM19.392 22.234C19.6861 22.5081 19.8349 22.9041 19.794 23.304V37.778C19.88 38.302 19.72 38.836 19.36 39.216L16 43.388V43.938H25.53V43.388L22.17 39.216C21.8066 38.8319 21.636 38.3041 21.706 37.78V25.26L30.072 43.94H31.044L38.23 25.26V40.148C38.23 40.546 38.23 40.622 37.976 40.882L35.392 43.45V44H47.94V43.452L45.446 40.944C45.226 40.772 45.116 40.492 45.162 40.212V21.792C45.1167 21.5145 45.2254 21.2343 45.446 21.06L48 18.55V18H39.156L32.852 34.096L25.68 18H16.404V18.55L19.392 22.234Z" fill="#172126"/>
</svg>
