<svg width="64" height="64" viewBox="0 0 64 64" fill="none" xmlns="http://www.w3.org/2000/svg">
<path fill-rule="evenodd" clip-rule="evenodd" d="M30.708 16.2467C28.42 16.3827 25.372 12.0447 20.226 14.1067C15.3 16.0807 14.906 19.8107 9.55 37.2527C8.298 41.3327 6.906 44.4047 9.356 47.5607C11.414 50.2127 15.09 50.8147 18.09 49.3107C18.866 48.9227 19.448 47.9487 20.226 46.7827C20.858 45.5147 28.572 25.3967 28.572 25.3887C29.472 23.5827 32.96 23.7847 32.454 27.3327C32.454 28.4947 27.018 41.4667 27.018 42.1147C26.364 46.6967 32.38 47.1487 34.2 42.8927C34.394 42.6987 35.17 40.9487 36.724 37.8367C44.346 22.5627 41.474 28.5127 43.712 24.0267C44.488 23.0547 45.264 22.4707 45.848 22.4707C46.818 22.4707 47.4 23.2487 47.206 24.6107C47.206 26.1747 41.462 36.4307 39.83 41.3367C39.012 45.4347 41.14 49.0907 44.682 51.0607C45.782 51.7947 52.466 53.0387 54.582 51.4487C56.788 50.7127 56.168 47.5267 54.388 47.1707C52.452 46.2007 51.5 47.0247 48.952 46.0047C43.35 43.7587 55.894 25.2087 55.166 19.3587C54.584 15.6627 52.642 13.9127 48.76 13.7187C46.448 13.7187 46.198 14.7707 45.074 14.6467C43.95 14.5227 41.616 11.8547 38.282 11.8967C34.948 11.9387 32.508 16.1387 30.708 16.2467Z" fill="#172126"/>
</svg>
