<svg width="64" height="64" viewBox="0 0 64 64" fill="none" xmlns="http://www.w3.org/2000/svg">
<path fill-rule="evenodd" clip-rule="evenodd" d="M31.3067 22.872L31.4108 24.5877L29.6767 24.3776C23.3644 23.5723 17.8499 20.8412 13.1677 16.2543L10.8787 13.9784L10.2891 15.6591C9.04048 19.4056 9.83818 23.3622 12.4394 26.0233C13.8267 27.4939 13.5145 27.704 11.1214 26.8286C10.2891 26.5485 9.56072 26.3384 9.49135 26.4435C9.24858 26.6886 10.081 29.8749 10.7399 31.1354C11.6417 32.8861 13.4799 34.6018 15.4915 35.6172L17.1909 36.4225L15.1793 36.4576C13.2371 36.4576 13.1677 36.4926 13.3758 37.2279C14.0695 39.5038 16.8094 41.9198 19.8615 42.9702L22.0118 43.7055L20.1389 44.826C17.3643 46.4366 14.1041 47.347 10.844 47.417C9.28326 47.4521 8 47.5921 8 47.6972C8 48.0473 12.2313 50.0081 14.6938 50.7784C22.0812 53.0543 30.8559 52.0739 37.4456 48.1874C42.1277 45.4212 46.8099 39.924 48.9949 34.6018C50.1741 31.7656 51.3533 26.5835 51.3533 24.0975C51.3533 22.4868 51.4574 22.2768 53.3996 20.351C54.5441 19.2305 55.6193 18.005 55.8274 17.6549C56.1742 16.9896 56.1395 16.9896 54.3707 17.5848C51.4227 18.6353 51.0065 18.4952 52.4632 16.9196C53.5383 15.7991 54.8216 13.7683 54.8216 13.173C54.8216 13.068 54.3013 13.2431 53.7117 13.5582C53.0874 13.9083 51.7001 14.4336 50.6597 14.7487L48.7868 15.3439L47.0873 14.1885C46.1509 13.5582 44.833 12.8579 44.1393 12.6478C42.3705 12.1576 39.6653 12.2276 38.0699 12.7879C33.7345 14.3635 30.9946 18.4252 31.3067 22.872Z" fill="#172126"/>
</svg>
