<svg width="64" height="64" viewBox="0 0 64 64" fill="none" xmlns="http://www.w3.org/2000/svg">
<path fill-rule="evenodd" clip-rule="evenodd" d="M49.9985 8C53.313 8 56 10.687 56 14.0015V49.9985C56 53.313 53.313 56 49.9985 56H14.0015C10.687 56 8 53.313 8 49.9985V14.0015C8 10.687 10.687 8 14.0015 8H49.9985ZM47.9169 26.4607C47.9169 26.1342 47.9067 25.8102 47.8912 25.4883C48.9111 24.7489 49.3975 23.8808 49.9405 22.9117C50.1741 22.4946 50.4183 22.0588 50.72 21.6065C50.72 21.6065 50.72 21.6065 50.7199 21.6065C50.7199 21.6065 50.7199 21.6064 50.7199 21.6064C50.7208 21.6051 50.4992 21.6038 50.2775 21.6025C50.0564 21.6012 49.8352 21.6 49.8352 21.5986V21.6032C49.8352 21.6038 50.0565 21.6043 50.2778 21.6048C50.496 21.6053 50.7141 21.6058 50.7199 21.6065C50.4334 21.7337 50.1832 21.8523 49.9521 21.9617C49.1035 22.3638 48.5128 22.6436 47.3263 22.7857C48.8703 21.8578 50.0533 20.3826 50.6092 18.6301C49.1655 19.4906 47.5582 20.1144 45.8542 20.454C44.4905 18.9944 42.5373 18.08 40.3861 18.08C36.2551 18.08 32.8845 21.4444 32.8845 25.5933C32.8845 26.1812 32.9062 26.7558 33.0331 27.3056C26.82 26.9903 21.2195 23.9996 17.5313 19.4525C16.8861 20.5636 16.3385 21.8556 16.3385 23.2303C16.3385 25.8369 18.2184 28.1373 20.2251 29.4849C18.9993 29.4448 17.0369 29.1072 17.0369 28.544V28.6377C17.0369 32.2772 19.4175 35.315 22.8368 36.0058C22.2095 36.1779 21.8099 36.2694 21.1271 36.2694C20.644 36.2694 19.9465 36.2202 19.4882 36.1331C20.4405 39.1196 23.0858 41.2902 26.3581 41.3528C23.7999 43.3669 20.5164 44.5696 17.013 44.5696C16.4078 44.5696 15.7852 44.5315 15.2 44.4646C18.5102 46.595 22.4244 47.84 26.6487 47.84C40.4031 47.84 47.9169 36.3902 47.9169 26.4607Z" fill="#172126"/>
</svg>
