<svg width="64" height="64" viewBox="0 0 64 64" fill="none" xmlns="http://www.w3.org/2000/svg">
<path fill-rule="evenodd" clip-rule="evenodd" d="M31.5463 15.2008L32.0594 15.2C33.4069 15.2023 47.1336 15.2505 50.6973 16.2258C52.7492 16.7784 54.3673 18.3961 54.9196 20.4484C55.8843 23.972 55.9075 31.0875 55.9068 31.9287L55.9061 32.1482C55.9005 33.2047 55.8293 40.0782 54.9199 43.5332C54.3673 45.5851 52.7496 47.2031 50.6973 47.7554C47.4358 48.6139 35.6619 48.7255 32.6558 48.7401L31.914 48.7422C31.0717 48.7413 16.8842 48.7117 13.209 47.7163C11.1568 47.1636 9.53908 45.5456 8.98645 43.4937C8.02957 39.8955 8.00086 32.4361 8 31.9918L8.0009 31.7586C8.00943 30.4874 8.09655 23.8299 8.98645 20.4484C9.53872 18.3965 11.1962 16.7389 13.2087 16.1867C16.5906 15.2964 29.1245 15.2093 31.5463 15.2008ZM27.1783 24.7891V39.1531L39.648 31.9711L27.1783 24.7891Z" fill="#172126"/>
</svg>
