<svg width="100" height="100" viewBox="0 0 100 100" xmlns="http://www.w3.org/2000/svg">
<path d="M38.1833 41.2L45.2833 36V50.6667H38.1833V41.2Z" fill="currentColor"/>
<path d="M47.65 36.4667H54.75V50.6667H47.65V36.4667Z" fill="currentColor"/>
<path d="M57.1167 31.7334L64.2167 29.3667V50.6667H57.1167V31.7334Z" fill="currentColor"/>
<path fill-rule="evenodd" clip-rule="evenodd" d="M37 25.5C37.8284 25.5 38.5 26.1716 38.5 27V49.1667H65.4C66.2284 49.1667 66.9 49.8382 66.9 50.6667C66.9 51.4951 66.2284 52.1667 65.4 52.1667H37C36.1716 52.1667 35.5 51.4951 35.5 50.6667V27C35.5 26.1716 36.1716 25.5 37 25.5Z"/>
<path fill-rule="evenodd" clip-rule="evenodd" d="M64.0943 25.9393C64.6801 26.5251 64.6801 27.4749 64.0943 28.0607L52.2609 39.894C51.9796 40.1753 51.5981 40.3333 51.2003 40.3333C50.8025 40.3333 50.4209 40.1753 50.1396 39.894L46.467 36.2213L38.0609 44.6273C37.4752 45.2131 36.5254 45.2131 35.9396 44.6273C35.3538 44.0415 35.3538 43.0918 35.9396 42.506L45.4063 33.0393C45.6876 32.758 46.0691 32.6 46.467 32.6C46.8648 32.6 47.2463 32.758 47.5276 33.0393L51.2003 36.712L61.973 25.9393C62.5587 25.3536 63.5085 25.3536 64.0943 25.9393Z"/>
<path fill-rule="evenodd" clip-rule="evenodd" d="M55.617 27C55.617 26.1716 56.2885 25.5 57.117 25.5H63.0336C63.8621 25.5 64.5336 26.1716 64.5336 27V32.9167C64.5336 33.7451 63.8621 34.4167 63.0336 34.4167C62.2052 34.4167 61.5336 33.7451 61.5336 32.9167V28.5H57.117C56.2885 28.5 55.617 27.8284 55.617 27Z"/>
<path fill-rule="evenodd" clip-rule="evenodd" d="M22.5 35C22.5 24.2305 31.2304 15.5 42 15.5H60.815C67.9761 15.5 74.3197 20.1192 76.5181 26.9345L80.1851 38.3021C80.2925 38.635 80.2802 38.995 80.1503 39.3197L77.6155 45.6566L84.2626 56.9566C84.5024 57.3643 84.5359 57.8611 84.353 58.2972C84.1701 58.7333 83.7923 59.0577 83.3335 59.1724L78.7628 60.3151L77.8128 72.1901C77.5426 75.5681 74.7224 78.1717 71.3335 78.1717H63.4091V86.5C63.4091 87.3284 62.7375 88 61.9091 88H33.8283C32.9999 88 32.3283 87.3284 32.3283 86.5V74.6636C32.3283 72.4027 31.2903 70.267 29.5125 68.8702C25.0851 65.3915 22.5 60.0728 22.5 54.4422V35ZM42 18.5C32.8873 18.5 25.5 25.8873 25.5 35V54.4422C25.5 59.1522 27.6625 63.6013 31.366 66.5112C33.8676 68.4768 35.3283 71.4821 35.3283 74.6636V85H60.4091V76.6717C60.4091 75.8433 61.0807 75.1717 61.9091 75.1717H71.3335C73.1583 75.1717 74.6769 73.7698 74.8224 71.9508L75.8583 59.0016C75.9097 58.3597 76.365 57.8222 76.9897 57.666L80.6596 56.7485L74.6566 46.5434C74.4212 46.1433 74.3844 45.6567 74.5568 45.2257L77.1639 38.708L73.663 27.8555C71.8643 22.2793 66.674 18.5 60.815 18.5H42Z"/>
<path fill-rule="evenodd" clip-rule="evenodd" d="M67.7293 62.4333C68.2263 61.7706 69.1665 61.6363 69.8293 62.1333L70.8817 62.9226C71.843 63.6436 72.9634 64.123 74.1487 64.3206L76.1961 64.6618C77.0132 64.798 77.5653 65.5709 77.4291 66.388C77.2929 67.2052 76.52 67.7572 75.7029 67.621L73.6555 67.2798C71.9961 67.0032 70.4275 66.332 69.0817 65.3226L68.0293 64.5333C67.3665 64.0363 67.2322 63.0961 67.7293 62.4333Z"/>
<path d="M30 82C36.6274 82 42 76.6274 42 70C42 63.3726 36.6274 58 30 58C23.3726 58 18 63.3726 18 70C18 76.6274 23.3726 82 30 82Z" fill="currentColor"/>
<path fill-rule="evenodd" clip-rule="evenodd" d="M16.5 70C16.5 62.5442 22.5442 56.5 30 56.5C37.4558 56.5 43.5 62.5442 43.5 70C43.5 77.4558 37.4558 83.5 30 83.5C22.5442 83.5 16.5 77.4558 16.5 70ZM30 59.5C24.201 59.5 19.5 64.201 19.5 70C19.5 75.799 24.201 80.5 30 80.5C35.799 80.5 40.5 75.799 40.5 70C40.5 64.201 35.799 59.5 30 59.5Z"/>
<path fill-rule="evenodd" clip-rule="evenodd" d="M30 61.5C30.8284 61.5 31.5 62.1716 31.5 63V65C31.5 65.8284 30.8284 66.5 30 66.5C29.1716 66.5 28.5 65.8284 28.5 65V63C28.5 62.1716 29.1716 61.5 30 61.5Z"/>
<path fill-rule="evenodd" clip-rule="evenodd" d="M30 73.5C30.8284 73.5 31.5 74.1716 31.5 75V77C31.5 77.8284 30.8284 78.5 30 78.5C29.1716 78.5 28.5 77.8284 28.5 77V75C28.5 74.1716 29.1716 73.5 30 73.5Z"/>
<path fill-rule="evenodd" clip-rule="evenodd" d="M28.5 66.5C28.2348 66.5 27.9804 66.6054 27.7929 66.7929C27.6054 66.9804 27.5 67.2348 27.5 67.5C27.5 67.7652 27.6054 68.0196 27.7929 68.2071C27.9804 68.3946 28.2348 68.5 28.5 68.5H31.5C32.5609 68.5 33.5783 68.9214 34.3284 69.6716C35.0786 70.4217 35.5 71.4391 35.5 72.5C35.5 73.5609 35.0786 74.5783 34.3284 75.3284C33.5783 76.0786 32.5609 76.5 31.5 76.5H27C26.1716 76.5 25.5 75.8284 25.5 75C25.5 74.1716 26.1716 73.5 27 73.5H31.5C31.7652 73.5 32.0196 73.3946 32.2071 73.2071C32.3946 73.0196 32.5 72.7652 32.5 72.5C32.5 72.2348 32.3946 71.9804 32.2071 71.7929C32.0196 71.6054 31.7652 71.5 31.5 71.5H28.5C27.4391 71.5 26.4217 71.0786 25.6716 70.3284C24.9214 69.5783 24.5 68.5609 24.5 67.5C24.5 66.4391 24.9214 65.4217 25.6716 64.6716C26.4217 63.9214 27.4391 63.5 28.5 63.5H33C33.8284 63.5 34.5 64.1716 34.5 65C34.5 65.8284 33.8284 66.5 33 66.5H28.5Z"/>
<path fill-rule="evenodd" clip-rule="evenodd" d="M12.5 17C12.5 16.1716 13.1716 15.5 14 15.5H22C22.8284 15.5 23.5 16.1716 23.5 17C23.5 17.8284 22.8284 18.5 22 18.5H14C13.1716 18.5 12.5 17.8284 12.5 17Z"/>
<path fill-rule="evenodd" clip-rule="evenodd" d="M18 22.5C17.1716 22.5 16.5 21.8284 16.5 21L16.5 13C16.5 12.1716 17.1716 11.5 18 11.5C18.8284 11.5 19.5 12.1716 19.5 13L19.5 21C19.5 21.8284 18.8284 22.5 18 22.5Z"/>
<path fill-rule="evenodd" clip-rule="evenodd" d="M76.5 81C76.5 80.1716 77.1716 79.5 78 79.5H86C86.8284 79.5 87.5 80.1716 87.5 81C87.5 81.8284 86.8284 82.5 86 82.5H78C77.1716 82.5 76.5 81.8284 76.5 81Z" fill="currentColor"/>
<path fill-rule="evenodd" clip-rule="evenodd" d="M82 86.5C81.1716 86.5 80.5 85.8284 80.5 85L80.5 77C80.5 76.1716 81.1716 75.5 82 75.5C82.8284 75.5 83.5 76.1716 83.5 77L83.5 85C83.5 85.8284 82.8284 86.5 82 86.5Z" fill="currentColor"/>
</svg>
