<svg width="100" height="100" viewBox="0 0 100 100" xmlns="http://www.w3.org/2000/svg">
<path d="M35 37H60V63H35V37Z" fill="currentColor"/>
<path fill-rule="evenodd" clip-rule="evenodd" d="M65.7963 60.0001C65.7963 63.0377 63.3339 65.5001 60.2963 65.5001L39.2593 65.5001C36.2217 65.5001 33.7593 63.0376 33.7593 60.0001L33.7593 54.6667C33.7593 53.8383 34.4309 53.1667 35.2593 53.1667L64.2963 53.1668C65.1247 53.1668 65.7963 53.8383 65.7963 54.6668V60.0001ZM60.2963 62.5001C61.677 62.5001 62.7963 61.3808 62.7963 60.0001V56.1668L36.7593 56.1667L36.7593 60.0001C36.7593 61.3808 37.8786 62.5001 39.2593 62.5001L60.2963 62.5001Z"/>
<path fill-rule="evenodd" clip-rule="evenodd" d="M60.1482 60.8334L47.1852 60.8334C46.3568 60.8334 45.6852 60.1618 45.6852 59.3334C45.6852 58.505 46.3568 57.8334 47.1852 57.8334L60.1482 57.8334C60.9766 57.8334 61.6482 58.505 61.6482 59.3334C61.6482 60.1618 60.9766 60.8334 60.1482 60.8334Z"/>
<path fill-rule="evenodd" clip-rule="evenodd" d="M44.4722 59.3334C44.4722 60.1618 43.8007 60.8334 42.9722 60.8334H40.3472C39.5188 60.8334 38.8472 60.1618 38.8472 59.3334C38.8472 58.505 39.5188 57.8334 40.3472 57.8334H42.9722C43.8007 57.8334 44.4722 58.505 44.4722 59.3334Z"/>
<path fill-rule="evenodd" clip-rule="evenodd" d="M65.7963 54.6666C65.7963 55.495 65.1247 56.1666 64.2963 56.1666L35.2593 56.1666C34.4309 56.1666 33.7593 55.495 33.7593 54.6666L33.7593 45.3333C33.7593 44.5048 34.4309 43.8333 35.2593 43.8333L64.2963 43.8333C65.1247 43.8333 65.7963 44.5048 65.7963 45.3333V54.6666ZM62.7963 53.1666V46.8333L36.7593 46.8333L36.7593 53.1666L62.7963 53.1666Z"/>
<path fill-rule="evenodd" clip-rule="evenodd" d="M60.1482 51.4999L47.1852 51.4999C46.3568 51.4999 45.6852 50.8283 45.6852 49.9999C45.6852 49.1715 46.3568 48.4999 47.1852 48.4999L60.1482 48.4999C60.9766 48.4999 61.6482 49.1715 61.6482 49.9999C61.6482 50.8283 60.9766 51.4999 60.1482 51.4999Z"/>
<path fill-rule="evenodd" clip-rule="evenodd" d="M44.4722 49.9999C44.4722 50.8283 43.8007 51.4999 42.9722 51.4999H40.3472C39.5188 51.4999 38.8472 50.8283 38.8472 49.9999C38.8472 49.1715 39.5188 48.4999 40.3472 48.4999H42.9722C43.8007 48.4999 44.4722 49.1715 44.4722 49.9999Z"/>
<path fill-rule="evenodd" clip-rule="evenodd" d="M65.7963 45.3333C65.7963 46.1618 65.1247 46.8333 64.2963 46.8333L35.2593 46.8333C34.4309 46.8333 33.7593 46.1618 33.7593 45.3333L33.7593 40C33.7593 36.9624 36.2217 34.5 39.2593 34.5L60.2963 34.5C63.3339 34.5 65.7963 36.9624 65.7963 40V45.3333ZM62.7963 43.8333V40C62.7963 38.6193 61.677 37.5 60.2963 37.5L39.2593 37.5C37.8786 37.5 36.7593 38.6193 36.7593 40L36.7593 43.8333L62.7963 43.8333Z"/>
<path fill-rule="evenodd" clip-rule="evenodd" d="M60.1482 42.1667L47.1852 42.1667C46.3568 42.1667 45.6852 41.4951 45.6852 40.6667C45.6852 39.8382 46.3568 39.1667 47.1852 39.1667L60.1482 39.1667C60.9766 39.1667 61.6482 39.8382 61.6482 40.6667C61.6482 41.4951 60.9766 42.1667 60.1482 42.1667Z"/>
<path fill-rule="evenodd" clip-rule="evenodd" d="M44.4722 40.6667C44.4722 41.4951 43.8007 42.1667 42.9722 42.1667H40.3472C39.5188 42.1667 38.8472 41.4951 38.8472 40.6667C38.8472 39.8382 39.5188 39.1667 40.3472 39.1667H42.9722C43.8007 39.1667 44.4722 39.8382 44.4722 40.6667Z"/>
<path fill-rule="evenodd" clip-rule="evenodd" d="M32.7588 79.6405C37.2332 87.1855 43.2009 91.5 49.4999 91.5C55.7989 91.5 61.7665 87.1855 66.2409 79.6405C70.6959 72.1281 73.4999 61.6521 73.4999 50C73.4999 38.3479 70.6959 27.8719 66.2409 20.3595C61.7665 12.8145 55.7989 8.5 49.4999 8.5C43.2009 8.5 37.2332 12.8145 32.7588 20.3595C28.3038 27.8719 25.4999 38.3479 25.4999 50C25.4999 61.6521 28.3038 72.1281 32.7588 79.6405ZM30.1785 81.1707C25.4043 73.1202 22.4999 62.0962 22.4999 50C22.4999 37.9038 25.4043 26.8798 30.1785 18.8293C34.9332 10.8114 41.7156 5.5 49.4999 5.5C57.2841 5.5 64.0665 10.8114 68.8213 18.8293C73.5954 26.8798 76.4999 37.9038 76.4999 50C76.4999 62.0962 73.5954 73.1202 68.8213 81.1707C64.0665 89.1886 57.2841 94.5 49.4999 94.5C41.7156 94.5 34.9332 89.1886 30.1785 81.1707Z"/>
<path fill-rule="evenodd" clip-rule="evenodd" d="M15.5436 49.833C11.2466 57.4805 10.494 64.8058 13.6435 70.2609C16.793 75.716 23.5132 78.7269 32.2846 78.8293C41.0181 78.9313 51.4925 76.1215 61.5835 70.2955C71.6745 64.4695 79.345 56.8032 83.6235 49.1888C87.9205 41.5413 88.6731 34.216 85.5236 28.7609C82.3741 23.3058 75.6538 20.2949 66.8824 20.1925C58.149 20.0905 47.6745 22.9003 37.5835 28.7263C27.4925 34.5523 19.822 42.2186 15.5436 49.833ZM12.9282 48.3634C17.5131 40.2036 25.6079 32.1763 36.0835 26.1282C46.5591 20.0801 57.5584 17.0834 66.9174 17.1927C76.2385 17.3015 84.2295 20.5196 88.1217 27.2609C92.0138 34.0023 90.8051 42.5317 86.2389 50.6584C81.654 58.8182 73.5591 66.8455 63.0835 72.8936C52.6079 78.9417 41.6086 81.9384 32.2496 81.8291C22.9285 81.7203 14.9375 78.5023 11.0454 71.7609C7.15327 65.0196 8.36191 56.4901 12.9282 48.3634Z"/>
<path fill-rule="evenodd" clip-rule="evenodd" d="M83.4562 49.833C87.7532 57.4805 88.5058 64.8058 85.3563 70.2609C82.2068 75.716 75.4865 78.7269 66.7151 78.8293C57.9817 78.9313 47.5072 76.1215 37.4162 70.2955C27.3253 64.4695 19.6547 56.8032 15.3763 49.1888C11.0793 41.5413 10.3267 34.216 13.4762 28.7609C16.6257 23.3058 23.3459 20.2949 32.1173 20.1925C40.8508 20.0905 51.3253 22.9003 61.4162 28.7263C71.5072 34.5523 79.1777 42.2186 83.4562 49.833ZM86.0716 48.3634C81.4867 40.2036 73.3918 32.1763 62.9162 26.1282C52.4406 20.0801 41.4414 17.0834 32.0823 17.1927C22.7613 17.3015 14.7702 20.5195 10.8781 27.2609C6.98598 34.0023 8.19462 42.5317 12.7609 50.6584C17.3458 58.8182 25.4406 66.8455 35.9162 72.8936C46.3918 78.9417 57.3911 81.9384 66.7501 81.8291C76.0712 81.7203 84.0622 78.5023 87.9544 71.7609C91.8465 65.0196 90.6379 56.4901 86.0716 48.3634Z"/>
<path fill-rule="evenodd" clip-rule="evenodd" d="M67.5 10C67.5 9.17157 68.1716 8.5 69 8.5H77C77.8284 8.5 78.5 9.17157 78.5 10C78.5 10.8284 77.8284 11.5 77 11.5H69C68.1716 11.5 67.5 10.8284 67.5 10Z"/>
<path fill-rule="evenodd" clip-rule="evenodd" d="M73 15.5C72.1716 15.5 71.5 14.8284 71.5 14L71.5 6C71.5 5.17157 72.1716 4.5 73 4.5C73.8284 4.5 74.5 5.17157 74.5 6L74.5 14C74.5 14.8284 73.8284 15.5 73 15.5Z"/>
<path fill-rule="evenodd" clip-rule="evenodd" d="M18.5 89C18.5 88.1716 19.1716 87.5 20 87.5H28C28.8284 87.5 29.5 88.1716 29.5 89C29.5 89.8284 28.8284 90.5 28 90.5H20C19.1716 90.5 18.5 89.8284 18.5 89Z" fill="currentColor"/>
<path fill-rule="evenodd" clip-rule="evenodd" d="M24 94.5C23.1716 94.5 22.5 93.8284 22.5 93L22.5 85C22.5 84.1716 23.1716 83.5 24 83.5C24.8284 83.5 25.5 84.1716 25.5 85L25.5 93C25.5 93.8284 24.8284 94.5 24 94.5Z" fill="currentColor"/>
<circle cx="12" cy="27" r="5" fill="currentColor"/>
<circle cx="87" cy="69" r="5" fill="currentColor"/>
</svg>
