<svg width="100" height="100" viewBox="0 0 100 100" xmlns="http://www.w3.org/2000/svg">
<path d="M48 57C48 56.4477 48.4477 56 49 56H61C61.5523 56 62 56.4477 62 57V82C62 82.5523 61.5523 83 61 83H49C48.4477 83 48 82.5523 48 82V57Z" fill="currentColor"/>
<rect x="64" y="38" width="14" height="45" rx="1" fill="currentColor"/>
<path d="M33 75C33 74.4477 33.4477 74 34 74H45C45.5523 74 46 74.4477 46 75V82C46 82.5523 45.5523 83 45 83H34C33.4477 83 33 82.5523 33 82V75Z" fill="currentColor"/>
<path fill-rule="evenodd" clip-rule="evenodd" d="M28 43.5C28.8284 43.5 29.5 44.1716 29.5 45V81.5H82C82.8284 81.5 83.5 82.1716 83.5 83C83.5 83.8284 82.8284 84.5 82 84.5H28C27.1716 84.5 26.5 83.8284 26.5 83V45C26.5 44.1716 27.1716 43.5 28 43.5Z"/>
<path fill-rule="evenodd" clip-rule="evenodd" d="M65.5 27C65.5 26.1716 66.1716 25.5 67 25.5H75C75.8284 25.5 76.5 26.1716 76.5 27C76.5 27.8284 75.8284 28.5 75 28.5H67C66.1716 28.5 65.5 27.8284 65.5 27Z"/>
<path fill-rule="evenodd" clip-rule="evenodd" d="M71 32.5C70.1716 32.5 69.5 31.8284 69.5 31L69.5 23C69.5 22.1716 70.1716 21.5 71 21.5C71.8284 21.5 72.5 22.1716 72.5 23L72.5 31C72.5 31.8284 71.8284 32.5 71 32.5Z"/>
<path fill-rule="evenodd" clip-rule="evenodd" d="M13.5 60C13.5 59.1716 14.1716 58.5 15 58.5H23C23.8284 58.5 24.5 59.1716 24.5 60C24.5 60.8284 23.8284 61.5 23 61.5H15C14.1716 61.5 13.5 60.8284 13.5 60Z" fill="currentColor"/>
<path fill-rule="evenodd" clip-rule="evenodd" d="M19 65.5C18.1716 65.5 17.5 64.8284 17.5 64L17.5 56C17.5 55.1716 18.1716 54.5 19 54.5C19.8284 54.5 20.5 55.1716 20.5 56L20.5 64C20.5 64.8284 19.8284 65.5 19 65.5Z" fill="currentColor"/>
<path d="M14.9999 15H52.3223C52.8746 15 53.3223 15.4477 53.3223 16V38.6908C53.3223 39.2431 52.8746 39.6908 52.3223 39.6908H46.3223H42.8223H40.3223H14.9999C14.4476 39.6908 13.9999 39.2431 13.9999 38.6908V16C13.9999 15.4477 14.4476 15 14.9999 15Z" fill="currentColor"/>
<path fill-rule="evenodd" clip-rule="evenodd" d="M59.8223 20C59.8223 18.6193 58.703 17.5 57.3223 17.5H20C18.6193 17.5 17.5 18.6193 17.5 20V42.6908C17.5 44.0715 18.6193 45.1908 20 45.1908H44.6788L50.2354 51.0337C50.6582 51.4783 51.3092 51.6206 51.8789 51.3929C52.4487 51.1653 52.8223 50.6136 52.8223 50V45.1908H57.3223C58.703 45.1908 59.8223 44.0715 59.8223 42.6908V20ZM56.8223 20.5V42.1908H52.3223C50.9416 42.1908 49.8223 43.3101 49.8223 44.6908V46.246L46.7049 42.968C46.233 42.4717 45.5782 42.1908 44.8933 42.1908H20.5V20.5H56.8223Z"/>
<path fill-rule="evenodd" clip-rule="evenodd" d="M52.5 25C52.5 24.1716 51.8284 23.5 51 23.5L26 23.5C25.1716 23.5 24.5 24.1716 24.5 25C24.5 25.8284 25.1716 26.5 26 26.5L51 26.5C51.8284 26.5 52.5 25.8284 52.5 25Z"/>
<path fill-rule="evenodd" clip-rule="evenodd" d="M52.5 31C52.5 30.1716 51.8284 29.5 51 29.5L26 29.5C25.1716 29.5 24.5 30.1716 24.5 31C24.5 31.8284 25.1716 32.5 26 32.5L51 32.5C51.8284 32.5 52.5 31.8284 52.5 31Z"/>
<path fill-rule="evenodd" clip-rule="evenodd" d="M39.5 37C39.5 36.1716 38.8284 35.5 38 35.5H26C25.1716 35.5 24.5 36.1716 24.5 37C24.5 37.8284 25.1716 38.5 26 38.5H38C38.8284 38.5 39.5 37.8284 39.5 37Z"/>
</svg>
