<svg width="100" height="100" viewBox="0 0 100 100" fill="none" xmlns="http://www.w3.org/2000/svg">
<rect width="100" height="100" fill="white"/>
<path d="M48 57C48 56.4477 48.4477 56 49 56H61C61.5523 56 62 56.4477 62 57V82C62 82.5523 61.5523 83 61 83H49C48.4477 83 48 82.5523 48 82V57Z" fill="currentColor"/>
<rect x="64" y="38" width="14" height="45" rx="1" fill="currentColor"/>
<path d="M33 75C33 74.4477 33.4477 74 34 74H45C45.5523 74 46 74.4477 46 75V82C46 82.5523 45.5523 83 45 83H34C33.4477 83 33 82.5523 33 82V75Z" fill="currentColor"/>
<path d="M82 83H28V45" stroke="#384147" stroke-width="3" stroke-linecap="round" stroke-linejoin="round"/>
<path d="M67 27H75" stroke="#384147" stroke-width="3" stroke-linecap="round" stroke-linejoin="round"/>
<path d="M71 31L71 23" stroke="#384147" stroke-width="3" stroke-linecap="round" stroke-linejoin="round"/>
<path d="M15 60H23" stroke="currentColor" stroke-width="3" stroke-linecap="round" stroke-linejoin="round"/>
<path d="M19 64L19 56" stroke="currentColor" stroke-width="3" stroke-linecap="round" stroke-linejoin="round"/>
<path d="M14.9999 15H52.3223C52.8746 15 53.3223 15.4477 53.3223 16V38.6908C53.3223 39.2431 52.8746 39.6908 52.3223 39.6908H46.3223H42.8223H40.3223H14.9999C14.4476 39.6908 13.9999 39.2431 13.9999 38.6908V16C13.9999 15.4477 14.4476 15 14.9999 15Z" fill="currentColor"/>
<path d="M58.3223 20C58.3223 19.4477 57.8746 19 57.3223 19H19.9999C19.4476 19 18.9999 19.4477 18.9999 20V42.6908C18.9999 43.2431 19.4476 43.6908 19.9999 43.6908H44.8933C45.1672 43.6908 45.4291 43.8031 45.6179 44.0016L51.3223 50V44.6908C51.3223 44.1385 51.77 43.6908 52.3223 43.6908H57.3223C57.8746 43.6908 58.3223 43.2431 58.3223 42.6908V20Z" stroke="#384147" stroke-width="3" stroke-linecap="round" stroke-linejoin="round"/>
<path d="M51 25L26 25" stroke="#384147" stroke-width="3" stroke-linecap="round" stroke-linejoin="round"/>
<path d="M51 31L26 31" stroke="#384147" stroke-width="3" stroke-linecap="round" stroke-linejoin="round"/>
<path d="M38 37H26" stroke="#384147" stroke-width="3" stroke-linecap="round" stroke-linejoin="round"/>
</svg>
