<svg width="100" height="100" viewBox="0 0 100 100" xmlns="http://www.w3.org/2000/svg">
<path d="M38 56C38 55.4477 38.4477 55 39 55H51C51.5523 55 52 55.4477 52 56V81C52 81.5523 51.5523 82 51 82H39C38.4477 82 38 81.5523 38 81V56Z" fill="currentColor"/>
<path d="M54 38C54 37.4477 54.4477 37 55 37H67C67.5523 37 68 37.4477 68 38V81C68 81.5523 67.5523 82 67 82H55C54.4477 82 54 81.5523 54 81V38Z" fill="currentColor"/>
<path d="M23 74C23 73.4477 23.4477 73 24 73H35C35.5523 73 36 73.4477 36 74V81C36 81.5523 35.5523 82 35 82H24C23.4477 82 23 81.5523 23 81V74Z" fill="currentColor"/>
<path fill-rule="evenodd" clip-rule="evenodd" d="M18 35.5C18.8284 35.5 19.5 36.1716 19.5 37V80.5H72C72.8284 80.5 73.5 81.1716 73.5 82C73.5 82.8284 72.8284 83.5 72 83.5H18C17.1716 83.5 16.5 82.8284 16.5 82V37C16.5 36.1716 17.1716 35.5 18 35.5Z"/>
<path fill-rule="evenodd" clip-rule="evenodd" d="M67.4871 34.9099C59.8718 27.2947 47.5251 27.2947 39.9099 34.9099C32.2947 42.5251 32.2947 54.8718 39.9099 62.4871C47.5251 70.1023 59.8718 70.1023 67.4871 62.4871C75.1023 54.8718 75.1023 42.5251 67.4871 34.9099ZM37.7886 32.7886C46.5754 24.0018 60.8216 24.0018 69.6084 32.7886C78.3952 41.5754 78.3952 55.8216 69.6084 64.6084C60.8216 73.3952 46.5754 73.3952 37.7886 64.6084C29.0018 55.8216 29.0018 41.5754 37.7886 32.7886Z"/>
<path fill-rule="evenodd" clip-rule="evenodd" d="M68.1942 62.4871C68.78 61.9013 69.7297 61.9013 70.3155 62.4871L81.6292 73.8008C82.215 74.3866 82.215 75.3363 81.6292 75.9221C81.0434 76.5079 80.0937 76.5079 79.5079 75.9221L68.1942 64.6084C67.6084 64.0226 67.6084 63.0729 68.1942 62.4871Z"/>
<path fill-rule="evenodd" clip-rule="evenodd" d="M21.5 27C21.5 26.1716 22.1716 25.5 23 25.5H31C31.8284 25.5 32.5 26.1716 32.5 27C32.5 27.8284 31.8284 28.5 31 28.5H23C22.1716 28.5 21.5 27.8284 21.5 27Z"/>
<path fill-rule="evenodd" clip-rule="evenodd" d="M27 32.5C26.1716 32.5 25.5 31.8284 25.5 31L25.5 23C25.5 22.1716 26.1716 21.5 27 21.5C27.8284 21.5 28.5 22.1716 28.5 23L28.5 31C28.5 31.8284 27.8284 32.5 27 32.5Z"/>
<path fill-rule="evenodd" clip-rule="evenodd" d="M78.5 60C78.5 59.1716 79.1716 58.5 80 58.5H88C88.8284 58.5 89.5 59.1716 89.5 60C89.5 60.8284 88.8284 61.5 88 61.5H80C79.1716 61.5 78.5 60.8284 78.5 60Z" fill="currentColor"/>
<path fill-rule="evenodd" clip-rule="evenodd" d="M84 65.5C83.1716 65.5 82.5 64.8284 82.5 64L82.5 56C82.5 55.1716 83.1716 54.5 84 54.5C84.8284 54.5 85.5 55.1716 85.5 56L85.5 64C85.5 64.8284 84.8284 65.5 84 65.5Z" fill="currentColor"/>
</svg>
