<svg width="100" height="100" viewBox="0 0 100 100" xmlns="http://www.w3.org/2000/svg">
<path fill-rule="evenodd" clip-rule="evenodd" d="M55.0307 26H38C35.7909 26 34 27.7909 34 30V53L42.5 57.5L47 66H72C74.2091 66 76 64.2091 76 62V42.2032C74.4269 42.7203 72.7461 43 71 43C62.1634 43 55 35.8366 55 27C55 26.6641 55.0103 26.3307 55.0307 26Z" fill="currentColor"/>
<ellipse cx="71" cy="27.5" rx="11.1467" ry="4.69335" transform="rotate(-150 71 27.5)" stroke="#384147" stroke-width="3" stroke-linecap="round" stroke-linejoin="round"/>
<path d="M31 75C34.866 75 38 71.866 38 68C38 64.134 34.866 61 31 61C27.134 61 24 64.134 24 68C24 71.866 27.134 75 31 75Z" fill="white"/>
<path fill-rule="evenodd" clip-rule="evenodd" d="M56.5 27C56.5 18.9919 62.9919 12.5 71 12.5C78.3621 12.5 84.4446 17.988 85.3762 25.0955V28.9045C84.4446 36.012 78.3621 41.5 71 41.5C62.9919 41.5 56.5 35.0081 56.5 27ZM71 9.5C61.335 9.5 53.5 17.335 53.5 27C53.5 27.4203 53.5148 27.8371 53.544 28.25H33C29.9624 28.25 27.5 30.7124 27.5 33.75L27.5 43.25L27.5 43.2517L27.5 51.8501C19.5122 53.4715 13.5 60.5336 13.5 69C13.5 78.665 21.335 86.5 31 86.5C39.7298 86.5 46.9648 80.1091 48.285 71.75L67 71.75C70.0376 71.75 72.5 69.2875 72.5 66.25V56.75V44.4366C80.7388 43.7373 87.349 37.3309 88.3647 29.1856C88.454 28.469 88.5 27.7395 88.5 27C88.5 26.2605 88.454 25.531 88.3647 24.8144C87.288 16.1803 79.9253 9.5 71 9.5ZM48.4982 68.75L67 68.75C68.3807 68.75 69.5 67.6307 69.5 66.25V58.25H44.8097C45.7019 59.3946 46.455 60.6531 47.0435 62H65C65.8284 62 66.5 62.6716 66.5 63.5C66.5 64.3284 65.8284 65 65 65H48.0404C48.1793 65.5937 48.288 66.1991 48.3647 66.8144C48.444 67.4501 48.4891 68.096 48.4982 68.75ZM41.8265 55.25L69.5 55.25V44.75L30.5 44.75L30.5 51.507C30.6661 51.5023 30.8328 51.5 31 51.5C32.2069 51.5 33.3853 51.6222 34.5234 51.8548C34.3468 51.3954 34.25 50.8965 34.25 50.375C34.25 48.0968 36.0968 46.25 38.375 46.25C40.6532 46.25 42.5 48.0968 42.5 50.375C42.5 52.0105 41.5482 53.4237 40.1682 54.0909C40.744 54.4457 41.2976 54.8329 41.8265 55.25ZM61.5786 41.75C59.9878 40.7318 58.5726 39.4633 57.3886 38H46.25C45.4216 38 44.75 37.3284 44.75 36.5C44.75 35.6716 45.4216 35 46.25 35H55.4315C54.8247 33.8215 54.3478 32.5652 54.0196 31.25H33C31.6193 31.25 30.5 32.3693 30.5 33.75L30.5 41.75L61.5786 41.75ZM38.375 51.5C38.9963 51.5 39.5 50.9963 39.5 50.375C39.5 49.7537 38.9963 49.25 38.375 49.25C37.7537 49.25 37.25 49.7537 37.25 50.375C37.25 50.9963 37.7537 51.5 38.375 51.5ZM46.25 51.5H65C65.8284 51.5 66.5 50.8284 66.5 50C66.5 49.1716 65.8284 48.5 65 48.5H46.25C45.4216 48.5 44.75 49.1716 44.75 50C44.75 50.8284 45.4216 51.5 46.25 51.5ZM39.5 36.875C39.5 37.4963 38.9963 38 38.375 38C37.7537 38 37.25 37.4963 37.25 36.875C37.25 36.2537 37.7537 35.75 38.375 35.75C38.9963 35.75 39.5 36.2537 39.5 36.875ZM38.375 41C40.6532 41 42.5 39.1532 42.5 36.875C42.5 34.5968 40.6532 32.75 38.375 32.75C36.0968 32.75 34.25 34.5968 34.25 36.875C34.25 39.1532 36.0968 41 38.375 41ZM70.0997 37.0211C70.5071 37.4174 70.8092 37.5 71 37.5C71.1908 37.5 71.4929 37.4174 71.9003 37.0211C72.2947 36.6374 72.714 36.0243 73.1014 35.1657C72.4148 34.9545 71.7114 34.6992 71 34.402C70.2886 34.6992 69.5852 34.9545 68.8986 35.1657C69.286 36.0243 69.7053 36.6374 70.0997 37.0211ZM76.9559 32.8838C77.1061 32.1818 77.227 31.4472 77.3164 30.6877C77.7199 30.3688 78.1045 30.0441 78.4682 29.7156C78.9488 30.3907 79.2339 30.978 79.3602 31.4448C79.4992 31.9589 79.4199 32.2098 79.3543 32.3234C79.2887 32.437 79.1111 32.6311 78.5964 32.7678C78.1878 32.8763 77.6387 32.9256 76.9559 32.8838ZM80.6806 27.6607C80.64 27.6072 80.5988 27.5536 80.5569 27.5C80.5988 27.4465 80.64 27.3929 80.6806 27.3394C81.4135 26.3727 81.9818 25.353 82.2561 24.3383C82.5326 23.3158 82.5348 22.1855 81.9524 21.1767C81.3699 20.1679 80.39 19.6046 79.3662 19.3328C78.3795 19.0708 77.2502 19.0466 76.0833 19.1841C76.0274 19.0435 75.97 18.9055 75.9111 18.7702C75.4098 17.6171 74.7742 16.5893 73.9922 15.8286C73.2032 15.061 72.1899 14.5 71 14.5C69.8101 14.5 68.7968 15.061 68.0078 15.8286C67.2258 16.5893 66.5902 17.6171 66.0889 18.7702C66.03 18.9055 65.9726 19.0435 65.9167 19.1841C64.7498 19.0466 63.6205 19.0708 62.6338 19.3328C61.61 19.6046 60.6301 20.1679 60.0476 21.1767C59.4652 22.1855 59.4674 23.3158 59.7439 24.3383C60.0182 25.353 60.5865 26.3727 61.3194 27.3394C61.36 27.3929 61.4012 27.4465 61.4431 27.5C61.4012 27.5536 61.36 27.6072 61.3194 27.6607C60.5865 28.6275 60.0182 29.6471 59.7438 30.6618C59.4674 31.6843 59.4652 32.8146 60.0476 33.8234C60.63 34.8322 61.61 35.3955 62.6337 35.6673C63.6205 35.9293 64.7498 35.9535 65.9167 35.816C65.9726 35.9565 66.03 36.0945 66.0889 36.2298C66.5902 37.3829 67.2258 38.4107 68.0078 39.1714C68.7968 39.939 69.8101 40.5 71 40.5C72.1899 40.5 73.2032 39.939 73.9922 39.1714C74.7742 38.4107 75.4098 37.3829 75.9111 36.2298C75.97 36.0945 76.0274 35.9565 76.0833 35.816C77.2502 35.9535 78.3795 35.9293 79.3663 35.6673C80.39 35.3955 81.37 34.8322 81.9524 33.8234C82.5348 32.8146 82.5326 31.6843 82.2562 30.6618C81.9818 29.6471 81.4135 28.6275 80.6806 27.6607ZM69.4033 24.7345C68.747 25.1135 68.1277 25.5099 67.5499 25.9162C67.5171 26.431 67.5 26.9598 67.5 27.5C67.5 28.0403 67.5171 28.5691 67.5499 29.0838C68.1277 29.4902 68.747 29.8867 69.4033 30.2656C69.9394 30.5751 70.4732 30.8573 71 31.1123C71.5268 30.8573 72.0606 30.5751 72.5967 30.2656C73.253 29.8867 73.8723 29.4902 74.4501 29.0838C74.4829 28.5691 74.5 28.0403 74.5 27.5C74.5 26.9598 74.4829 26.431 74.4501 25.9162C73.8723 25.5099 73.253 25.1135 72.5967 24.7345C72.0606 24.425 71.5268 24.1428 71 23.8878C70.4732 24.1428 69.9394 24.425 69.4033 24.7345ZM62.6398 31.4448C62.7661 30.978 63.0512 30.3907 63.5318 29.7156C63.8955 30.0441 64.2801 30.3688 64.6836 30.6877C64.773 31.4472 64.8939 32.1818 65.0441 32.8838C64.3613 32.9256 63.8122 32.8763 63.4036 32.7678C62.8889 32.6311 62.7113 32.437 62.6457 32.3234C62.5801 32.2098 62.5008 31.9589 62.6398 31.4448ZM77.3164 24.3124C77.7199 24.6313 78.1045 24.956 78.4682 25.2845C78.9488 24.6094 79.2339 24.0221 79.3601 23.5553C79.4991 23.0412 79.4199 22.7903 79.3543 22.6767C79.2887 22.5631 79.111 22.369 78.5963 22.2323C78.1877 22.1239 77.6387 22.0745 76.956 22.1163C77.1061 22.8183 77.227 23.5529 77.3164 24.3124ZM71.9003 17.9789C72.2947 18.3626 72.714 18.9758 73.1015 19.8344C72.4149 20.0456 71.7115 20.3009 71 20.5981C70.2885 20.3009 69.5851 20.0456 68.8985 19.8344C69.286 18.9758 69.7053 18.3626 70.0997 17.9789C70.5071 17.5826 70.8092 17.5 71 17.5C71.1908 17.5 71.4929 17.5826 71.9003 17.9789ZM63.5318 25.2845C63.8955 24.956 64.2801 24.6313 64.6836 24.3124C64.773 23.5529 64.8939 22.8183 65.044 22.1163C64.3613 22.0745 63.8123 22.1239 63.4037 22.2323C62.889 22.369 62.7113 22.5631 62.6457 22.6767C62.5801 22.7903 62.5009 23.0412 62.6399 23.5553C62.7661 24.0221 63.0512 24.6094 63.5318 25.2845ZM16.5 69C16.5 60.9919 22.9919 54.5 31 54.5C38.3621 54.5 44.4446 59.988 45.3762 67.0955V70.9045C44.9691 74.0109 43.578 76.8078 41.5263 78.9725C40.5113 77.5048 39.1865 76.2628 37.6372 75.3332C37.2073 75.0753 36.7637 74.8435 36.3089 74.6386C38.2542 73.0809 39.5 70.686 39.5 68C39.5 63.3056 35.6944 59.5 31 59.5C26.3056 59.5 22.5 63.3056 22.5 68C22.5 70.686 23.7458 73.081 25.6912 74.6387C25.2364 74.8436 24.7927 75.0753 24.3629 75.3332C22.8136 76.2628 21.4888 77.5049 20.4739 78.9726C18.0108 76.3737 16.5 72.8633 16.5 69ZM22.7682 80.9384C25.1066 82.5539 27.9428 83.5 31 83.5C34.057 83.5 36.8933 82.5538 39.2319 80.9383C38.4418 79.7111 37.3701 78.6715 36.0937 77.9057C34.5634 76.9875 32.8003 76.5 31.0001 76.5C29.1998 76.5 27.4367 76.9875 25.9064 77.9057C24.63 78.6715 23.5582 79.7112 22.7682 80.9384ZM31 73.5C34.0376 73.5 36.5 71.0376 36.5 68C36.5 64.9624 34.0376 62.5 31 62.5C27.9624 62.5 25.5 64.9624 25.5 68C25.5 71.0376 27.9624 73.5 31 73.5Z"/>
<path fill-rule="evenodd" clip-rule="evenodd" d="M23.5 22C23.5 22.8284 24.1716 23.5 25 23.5C25.8284 23.5 26.5 22.8284 26.5 22L26.5 19.5H29C29.8284 19.5 30.5 18.8284 30.5 18C30.5 17.1716 29.8284 16.5 29 16.5H26.5L26.5 14C26.5 13.1716 25.8284 12.5 25 12.5C24.1716 12.5 23.5 13.1716 23.5 14L23.5 16.5H21C20.1716 16.5 19.5 17.1716 19.5 18C19.5 18.8284 20.1716 19.5 21 19.5H23.5L23.5 22Z"/>
<path fill-rule="evenodd" clip-rule="evenodd" d="M80.5 77C80.5 77.8284 81.1716 78.5 82 78.5C82.8284 78.5 83.5 77.8284 83.5 77L83.5 74.5H86C86.8284 74.5 87.5 73.8284 87.5 73C87.5 72.1716 86.8284 71.5 86 71.5H83.5L83.5 69C83.5 68.1716 82.8284 67.5 82 67.5C81.1716 67.5 80.5 68.1716 80.5 69L80.5 71.5H78C77.1716 71.5 76.5 72.1716 76.5 73C76.5 73.8284 77.1716 74.5 78 74.5H80.5L80.5 77Z" fill="currentColor"/>
</svg>
