<svg width="100" height="100" viewBox="0 0 100 100" fill="none" xmlns="http://www.w3.org/2000/svg">
<rect width="100" height="100" fill="white"/>
<path d="M57 67L15 67C12.7908 67 11 65.2091 11 63L11 49L56 49" stroke="#384147" stroke-width="3" stroke-linecap="round" stroke-linejoin="round"/>
<path d="M34 58H53" stroke="#384147" stroke-width="3" stroke-linecap="round" stroke-linejoin="round"/>
<path d="M55 49L11 49L11 31L67 31L67 44.5" stroke="#384147" stroke-width="3" stroke-linecap="round" stroke-linejoin="round"/>
<path d="M34 40L59 40" stroke="#384147" stroke-width="3" stroke-linecap="round" stroke-linejoin="round"/>
<ellipse cx="26.5" cy="38.5" rx="4.5" ry="4.5" transform="rotate(-180 26.5 38.5)" fill="currentColor"/>
<ellipse cx="26.5" cy="56.5" rx="4.5" ry="4.5" transform="rotate(-180 26.5 56.5)" fill="currentColor"/>
<ellipse cx="26.5" cy="20.5" rx="4.5" ry="4.5" transform="rotate(-180 26.5 20.5)" fill="currentColor"/>
<path d="M67 31L11 31L11 17C11 14.7909 12.7909 13 15 13L63 13C65.2091 13 67 14.7909 67 17L67 31Z" stroke="#384147" stroke-width="3" stroke-linecap="round" stroke-linejoin="round"/>
<circle cx="23.5" cy="22.5" r="3.5" transform="rotate(-180 23.5 22.5)" stroke="#384147" stroke-width="3" stroke-linecap="round" stroke-linejoin="round"/>
<path d="M34 22L59 22" stroke="#384147" stroke-width="3" stroke-linecap="round" stroke-linejoin="round"/>
<path d="M81 35H89" stroke="#384147" stroke-width="3" stroke-linecap="round" stroke-linejoin="round"/>
<path d="M85 39L85 31" stroke="#384147" stroke-width="3" stroke-linecap="round" stroke-linejoin="round"/>
<path d="M45 82H53" stroke="currentColor" stroke-width="3" stroke-linecap="round" stroke-linejoin="round"/>
<path d="M49 86L49 78" stroke="currentColor" stroke-width="3" stroke-linecap="round" stroke-linejoin="round"/>
<path fill-rule="evenodd" clip-rule="evenodd" d="M63.1451 42.2588L66.1762 44.5314C66.4488 44.515 66.7235 44.5067 67.0002 44.5067C67.2768 44.5068 67.5513 44.515 67.8238 44.5314L70.855 42.258C71.0179 42.1355 71.2077 42.0535 71.4085 42.0188C71.6094 41.9841 71.8156 41.9976 72.0102 42.0583C72.9488 42.353 73.8592 42.7306 74.7309 43.1865C74.911 43.2812 75.0661 43.4174 75.1833 43.5838C75.3004 43.7501 75.3764 43.942 75.4049 44.1435L75.9413 47.8939C76.1457 48.075 76.3457 48.2633 76.5413 48.4589C76.7369 48.6546 76.9252 48.8546 77.1062 49.0588L80.8572 49.5946C81.059 49.6232 81.2511 49.6994 81.4177 49.8169C81.5843 49.9344 81.7206 50.0898 81.8153 50.2703C82.2705 51.1423 82.6473 52.0531 82.9413 52.9918C83.0017 53.1862 83.0151 53.3921 82.9803 53.5926C82.9455 53.7931 82.8635 53.9825 82.7412 54.1451L80.4685 57.1763C80.485 57.4489 80.4933 57.7235 80.4933 58.0002C80.4932 58.2768 80.485 58.5514 80.4686 58.8238L82.742 61.855C82.8645 62.0179 82.9465 62.2077 82.9812 62.4085C83.0159 62.6094 83.0024 62.8156 82.9417 63.0102C82.647 63.9488 82.2694 64.8592 81.8135 65.7309C81.7188 65.911 81.5826 66.0661 81.4163 66.1833C81.2499 66.3004 81.058 66.3764 80.8565 66.4049L77.1061 66.9413C76.925 67.1457 76.7367 67.3457 76.5411 67.5413C76.3454 67.7369 76.1454 67.9252 75.9412 68.1062L75.4054 71.8572C75.3768 72.059 75.3006 72.2511 75.1831 72.4177C75.0656 72.5843 74.9102 72.7206 74.7297 72.8153C73.8577 73.2705 72.9469 73.6473 72.0082 73.9413C71.8138 74.0017 71.6079 74.0151 71.4074 73.9803C71.2069 73.9455 71.0175 73.8635 70.8549 73.7412L67.8237 71.4685C67.5511 71.485 67.2765 71.4933 66.9998 71.4933C66.7232 71.4932 66.4486 71.485 66.1762 71.4686L63.145 73.742C62.9821 73.8645 62.7923 73.9465 62.5915 73.9812C62.3906 74.0159 62.1844 74.0024 61.9898 73.9417C61.0512 73.647 60.1408 73.2694 59.2691 72.8135C59.089 72.7188 58.9339 72.5826 58.8167 72.4163C58.6996 72.2499 58.6236 72.058 58.5951 71.8565L58.0587 68.1061C57.8543 67.925 57.6543 67.7367 57.4587 67.5411C57.2631 67.3454 57.0748 67.1454 56.8938 66.9412L53.1428 66.4054C52.941 66.3768 52.7489 66.3006 52.5823 66.1831C52.4157 66.0656 52.2794 65.9102 52.1847 65.7297C51.7295 64.8577 51.3527 63.9469 51.0587 63.0082C50.9983 62.8138 50.9849 62.6079 51.0197 62.4074C51.0545 62.2069 51.1365 62.0175 51.2588 61.8549L53.5315 58.8237C53.515 58.5511 53.5067 58.2765 53.5067 57.9998C53.5068 57.7232 53.515 57.4487 53.5314 57.1762L51.258 54.145C51.1355 53.9821 51.0535 53.7923 51.0188 53.5915C50.9841 53.3906 50.9976 53.1844 51.0583 52.9898C51.353 52.0512 51.7306 51.1408 52.1865 50.2691C52.2812 50.089 52.4174 49.9339 52.5838 49.8167C52.7501 49.6996 52.942 49.6236 53.1435 49.5951L56.8939 49.0587C57.075 48.8543 57.2633 48.6543 57.4589 48.4587C57.6546 48.2631 57.8546 48.0748 58.0588 47.8938L58.5946 44.1428C58.6232 43.941 58.6994 43.7489 58.8169 43.5823C58.9344 43.4157 59.0898 43.2794 59.2703 43.1847C60.1423 42.7295 61.0531 42.3527 61.9918 42.0587C62.1862 41.9983 62.3921 41.9849 62.5926 42.0197C62.7931 42.0545 62.9825 42.1365 63.1451 42.2588ZM67 66C71.4183 66 75 62.4183 75 58C75 53.5817 71.4183 50 67 50C62.5817 50 59 53.5817 59 58C59 62.4183 62.5817 66 67 66Z" fill="currentColor"/>
<path d="M67 66C71.4183 66 75 62.4183 75 58C75 53.5817 71.4183 50 67 50C62.5817 50 59 53.5817 59 58C59 62.4183 62.5817 66 67 66Z" stroke="#384147" stroke-width="3" stroke-linecap="round" stroke-linejoin="round"/>
<path d="M66.1762 44.5314L63.1451 42.2588C62.9825 42.1365 62.7931 42.0545 62.5926 42.0197C62.3921 41.9849 62.1862 41.9983 61.9918 42.0587C61.0531 42.3527 60.1423 42.7295 59.2703 43.1847C59.0898 43.2794 58.9344 43.4157 58.8169 43.5823C58.6994 43.7489 58.6232 43.941 58.5946 44.1428L58.0588 47.8938C57.8546 48.0748 57.6546 48.2631 57.4589 48.4587C57.2633 48.6543 57.075 48.8543 56.8939 49.0587L53.1435 49.5951C52.942 49.6236 52.7501 49.6996 52.5838 49.8167C52.4174 49.9339 52.2812 50.089 52.1865 50.2691C51.7306 51.1408 51.353 52.0512 51.0583 52.9898C50.9976 53.1844 50.9841 53.3906 51.0188 53.5915C51.0535 53.7923 51.1355 53.9821 51.258 54.145L53.5314 57.1762C53.515 57.4487 53.5068 57.7232 53.5067 57.9998C53.5067 58.2765 53.515 58.5511 53.5315 58.8237L51.2588 61.8549C51.1365 62.0175 51.0545 62.2069 51.0197 62.4074C50.9849 62.6079 50.9983 62.8138 51.0587 63.0082C51.3527 63.9469 51.7295 64.8577 52.1847 65.7297C52.2794 65.9102 52.4157 66.0656 52.5823 66.1831C52.7489 66.3006 52.941 66.3768 53.1428 66.4054L56.8938 66.9412C57.0748 67.1454 57.2631 67.3454 57.4587 67.5411C57.6543 67.7367 57.8543 67.925 58.0587 68.1061L58.5951 71.8565C58.6236 72.058 58.6996 72.2499 58.8167 72.4163C58.9339 72.5826 59.089 72.7188 59.2691 72.8135C60.1408 73.2694 61.0512 73.647 61.9898 73.9417C62.1844 74.0024 62.3906 74.0159 62.5915 73.9812C62.7923 73.9465 62.9821 73.8645 63.145 73.742L66.1762 71.4686C66.4486 71.485 66.7232 71.4932 66.9998 71.4933C67.2765 71.4933 67.5511 71.485 67.8237 71.4685L70.8549 73.7412C71.0175 73.8635 71.2069 73.9455 71.4074 73.9803C71.6079 74.0151 71.8138 74.0017 72.0082 73.9413C72.9469 73.6473 73.8577 73.2705 74.7297 72.8153C74.9102 72.7206 75.0656 72.5843 75.1831 72.4177C75.3006 72.2511 75.3768 72.059 75.4054 71.8572L75.9412 68.1062C76.1454 67.9252 76.3454 67.7369 76.5411 67.5413C76.7367 67.3457 76.925 67.1457 77.1061 66.9413L80.8565 66.4049C81.058 66.3764 81.2499 66.3004 81.4163 66.1833C81.5826 66.0661 81.7188 65.911 81.8135 65.7309C82.2694 64.8592 82.647 63.9488 82.9417 63.0102C83.0024 62.8156 83.0159 62.6094 82.9812 62.4085C82.9465 62.2077 82.8645 62.0179 82.742 61.855L80.4686 58.8238C80.485 58.5514 80.4932 58.2768 80.4933 58.0002C80.4933 57.7235 80.485 57.4489 80.4685 57.1763L82.7412 54.1451C82.8635 53.9825 82.9455 53.7931 82.9803 53.5926C83.0151 53.3921 83.0017 53.1862 82.9413 52.9918C82.6473 52.0531 82.2705 51.1423 81.8153 50.2703C81.7206 50.0898 81.5843 49.9344 81.4177 49.8169C81.2511 49.6994 81.059 49.6232 80.8572 49.5946L77.1062 49.0588C76.9252 48.8546 76.7369 48.6546 76.5413 48.4589C76.3457 48.2633 76.1457 48.075 75.9413 47.8939L75.4049 44.1435C75.3764 43.942 75.3004 43.7501 75.1833 43.5838C75.0661 43.4174 74.911 43.2812 74.7309 43.1865C73.8592 42.7306 72.9488 42.353 72.0102 42.0583C71.8156 41.9976 71.6094 41.9841 71.4085 42.0188C71.2077 42.0535 71.0179 42.1355 70.855 42.258L67.8238 44.5314C67.5513 44.515 67.2768 44.5068 67.0002 44.5067C66.7235 44.5067 66.4488 44.515 66.1762 44.5314Z" stroke="#384147" stroke-width="3" stroke-linecap="round" stroke-linejoin="round"/>
<circle cx="23.5" cy="40.5" r="3.5" transform="rotate(-180 23.5 40.5)" stroke="#384147" stroke-width="3" stroke-linecap="round" stroke-linejoin="round"/>
<circle cx="23.5" cy="58.5" r="3.5" transform="rotate(-180 23.5 58.5)" stroke="#384147" stroke-width="3" stroke-linecap="round" stroke-linejoin="round"/>
</svg>
