<svg width="100" height="100" viewBox="0 0 100 100" xmlns="http://www.w3.org/2000/svg">
<path fill-rule="evenodd" clip-rule="evenodd" d="M15 65.5L57 65.5C57.8284 65.5 58.5 66.1716 58.5 67C58.5 67.8284 57.8284 68.5 57 68.5L15 68.5C11.9624 68.5 9.49997 66.0376 9.49997 63L9.49998 49C9.49998 48.1716 10.1715 47.5 11 47.5L56 47.5C56.8284 47.5 57.5 48.1716 57.5 49C57.5 49.8284 56.8284 50.5 56 50.5L12.5 50.5L12.5 63C12.5 64.3807 13.6193 65.5 15 65.5Z"/>
<path fill-rule="evenodd" clip-rule="evenodd" d="M54.5 58C54.5 58.8284 53.8284 59.5 53 59.5H34C33.1716 59.5 32.5 58.8284 32.5 58C32.5 57.1716 33.1716 56.5 34 56.5H53C53.8284 56.5 54.5 57.1716 54.5 58Z"/>
<path fill-rule="evenodd" clip-rule="evenodd" d="M12.5 47.5L55 47.5C55.8284 47.5 56.5 48.1716 56.5 49C56.5 49.8284 55.8284 50.5 55 50.5L11 50.5C10.6022 50.5 10.2206 50.342 9.93934 50.0607C9.65804 49.7794 9.5 49.3978 9.5 49L9.5 31C9.5 30.1716 10.1716 29.5 11 29.5L67 29.5C67.8284 29.5 68.5 30.1716 68.5 31L68.5 44.5C68.5 45.3284 67.8284 46 67 46C66.1716 46 65.5 45.3284 65.5 44.5L65.5 32.5L12.5 32.5L12.5 47.5Z"/>
<path fill-rule="evenodd" clip-rule="evenodd" d="M59 41.5L34 41.5C33.1716 41.5 32.5 40.8284 32.5 40C32.5 39.1716 33.1716 38.5 34 38.5L59 38.5C59.8284 38.5 60.5 39.1716 60.5 40C60.5 40.8284 59.8284 41.5 59 41.5Z"/>
<ellipse cx="26.5" cy="38.5" rx="4.5" ry="4.5" transform="rotate(-180 26.5 38.5)" fill="currentColor"/>
<ellipse cx="26.5" cy="56.5" rx="4.5" ry="4.5" transform="rotate(-180 26.5 56.5)" fill="currentColor"/>
<ellipse cx="26.5" cy="20.5" rx="4.5" ry="4.5" transform="rotate(-180 26.5 20.5)" fill="currentColor"/>
<path fill-rule="evenodd" clip-rule="evenodd" d="M68.5 31C68.5 31.8284 67.8284 32.5 67 32.5L11 32.5C10.1716 32.5 9.5 31.8284 9.5 31L9.5 17C9.5 13.9624 11.9624 11.5 15 11.5L63 11.5C66.0376 11.5 68.5 13.9624 68.5 17L68.5 31ZM65.5 29.5L65.5 17C65.5 15.6193 64.3807 14.5 63 14.5L15 14.5C13.6193 14.5 12.5 15.6193 12.5 17L12.5 29.5L65.5 29.5Z"/>
<path fill-rule="evenodd" clip-rule="evenodd" d="M23.5 24.5C24.6046 24.5 25.5 23.6046 25.5 22.5C25.5 21.3954 24.6046 20.5 23.5 20.5C22.3954 20.5 21.5 21.3954 21.5 22.5C21.5 23.6046 22.3954 24.5 23.5 24.5ZM28.5 22.5C28.5 25.2614 26.2614 27.5 23.5 27.5C20.7386 27.5 18.5 25.2614 18.5 22.5C18.5 19.7386 20.7386 17.5 23.5 17.5C26.2614 17.5 28.5 19.7386 28.5 22.5Z"/>
<path fill-rule="evenodd" clip-rule="evenodd" d="M59 23.5L34 23.5C33.1716 23.5 32.5 22.8284 32.5 22C32.5 21.1716 33.1716 20.5 34 20.5L59 20.5C59.8284 20.5 60.5 21.1716 60.5 22C60.5 22.8284 59.8284 23.5 59 23.5Z"/>
<path fill-rule="evenodd" clip-rule="evenodd" d="M83.5 39C83.5 39.8284 84.1716 40.5 85 40.5C85.8284 40.5 86.5 39.8284 86.5 39L86.5 36.5H89C89.8284 36.5 90.5 35.8284 90.5 35C90.5 34.1716 89.8284 33.5 89 33.5H86.5L86.5 31C86.5 30.1716 85.8284 29.5 85 29.5C84.1716 29.5 83.5 30.1716 83.5 31L83.5 33.5H81C80.1716 33.5 79.5 34.1716 79.5 35C79.5 35.8284 80.1716 36.5 81 36.5H83.5L83.5 39Z"/>
<path fill-rule="evenodd" clip-rule="evenodd" d="M47.5 86C47.5 86.8284 48.1716 87.5 49 87.5C49.8284 87.5 50.5 86.8284 50.5 86L50.5 83.5H53C53.8284 83.5 54.5 82.8284 54.5 82C54.5 81.1716 53.8284 80.5 53 80.5H50.5L50.5 78C50.5 77.1716 49.8284 76.5 49 76.5C48.1716 76.5 47.5 77.1716 47.5 78L47.5 80.5H45C44.1716 80.5 43.5 81.1716 43.5 82C43.5 82.8284 44.1716 83.5 45 83.5H47.5L47.5 86Z" fill="currentColor"/>
<path fill-rule="evenodd" clip-rule="evenodd" d="M63.1451 42.2588L66.1762 44.5314C66.4488 44.515 66.7235 44.5067 67.0002 44.5067C67.2768 44.5068 67.5513 44.515 67.8238 44.5314L70.855 42.258C71.0179 42.1355 71.2077 42.0535 71.4085 42.0188C71.6094 41.9841 71.8156 41.9976 72.0102 42.0583C72.9488 42.353 73.8592 42.7306 74.7309 43.1865C74.911 43.2812 75.0661 43.4174 75.1833 43.5838C75.3004 43.7501 75.3764 43.942 75.4049 44.1435L75.9413 47.8939C76.1457 48.075 76.3457 48.2633 76.5413 48.4589C76.7369 48.6546 76.9252 48.8546 77.1062 49.0588L80.8572 49.5946C81.059 49.6232 81.2511 49.6994 81.4177 49.8169C81.5843 49.9344 81.7206 50.0898 81.8153 50.2703C82.2705 51.1423 82.6473 52.0531 82.9413 52.9918C83.0017 53.1862 83.0151 53.3921 82.9803 53.5926C82.9455 53.7931 82.8635 53.9825 82.7412 54.1451L80.4685 57.1763C80.485 57.4489 80.4933 57.7235 80.4933 58.0002C80.4932 58.2768 80.485 58.5514 80.4686 58.8238L82.742 61.855C82.8645 62.0179 82.9465 62.2077 82.9812 62.4085C83.0159 62.6094 83.0024 62.8156 82.9417 63.0102C82.647 63.9488 82.2694 64.8592 81.8135 65.7309C81.7188 65.911 81.5826 66.0661 81.4163 66.1833C81.2499 66.3004 81.058 66.3764 80.8565 66.4049L77.1061 66.9413C76.925 67.1457 76.7367 67.3457 76.5411 67.5413C76.3454 67.7369 76.1454 67.9252 75.9412 68.1062L75.4054 71.8572C75.3768 72.059 75.3006 72.2511 75.1831 72.4177C75.0656 72.5843 74.9102 72.7206 74.7297 72.8153C73.8577 73.2705 72.9469 73.6473 72.0082 73.9413C71.8138 74.0017 71.6079 74.0151 71.4074 73.9803C71.2069 73.9455 71.0175 73.8635 70.8549 73.7412L67.8237 71.4685C67.5511 71.485 67.2765 71.4933 66.9998 71.4933C66.7232 71.4932 66.4486 71.485 66.1762 71.4686L63.145 73.742C62.9821 73.8645 62.7923 73.9465 62.5915 73.9812C62.3906 74.0159 62.1844 74.0024 61.9898 73.9417C61.0512 73.647 60.1408 73.2694 59.2691 72.8135C59.089 72.7188 58.9339 72.5826 58.8167 72.4163C58.6996 72.2499 58.6236 72.058 58.5951 71.8565L58.0587 68.1061C57.8543 67.925 57.6543 67.7367 57.4587 67.5411C57.2631 67.3454 57.0748 67.1454 56.8938 66.9412L53.1428 66.4054C52.941 66.3768 52.7489 66.3006 52.5823 66.1831C52.4157 66.0656 52.2794 65.9102 52.1847 65.7297C51.7295 64.8577 51.3527 63.9469 51.0587 63.0082C50.9983 62.8138 50.9849 62.6079 51.0197 62.4074C51.0545 62.2069 51.1365 62.0175 51.2588 61.8549L53.5315 58.8237C53.515 58.5511 53.5067 58.2765 53.5067 57.9998C53.5068 57.7232 53.515 57.4487 53.5314 57.1762L51.258 54.145C51.1355 53.9821 51.0535 53.7923 51.0188 53.5915C50.9841 53.3906 50.9976 53.1844 51.0583 52.9898C51.353 52.0512 51.7306 51.1408 52.1865 50.2691C52.2812 50.089 52.4174 49.9339 52.5838 49.8167C52.7501 49.6996 52.942 49.6236 53.1435 49.5951L56.8939 49.0587C57.075 48.8543 57.2633 48.6543 57.4589 48.4587C57.6546 48.2631 57.8546 48.0748 58.0588 47.8938L58.5946 44.1428C58.6232 43.941 58.6994 43.7489 58.8169 43.5823C58.9344 43.4157 59.0898 43.2794 59.2703 43.1847C60.1423 42.7295 61.0531 42.3527 61.9918 42.0587C62.1862 41.9983 62.3921 41.9849 62.5926 42.0197C62.7931 42.0545 62.9825 42.1365 63.1451 42.2588ZM67 66C71.4183 66 75 62.4183 75 58C75 53.5817 71.4183 50 67 50C62.5817 50 59 53.5817 59 58C59 62.4183 62.5817 66 67 66Z" fill="currentColor"/>
<g clip-path="url(#clip0_3574:12861)">
<path d="M61.8701 75.0001C61.5882 75.0017 61.308 74.9578 61.0401 74.8701C60.0049 74.5518 59.0008 74.1401 58.0401 73.6401C57.641 73.4402 57.2975 73.1448 57.0401 72.7801C56.7882 72.4196 56.6239 72.0053 56.5601 71.5701L56.1001 68.3501C56.0201 68.2701 55.9301 68.1901 55.8501 68.1001C55.7701 68.0101 55.6801 67.9401 55.6001 67.8501L52.3801 67.3901C51.9449 67.3263 51.5306 67.162 51.1701 66.9101C50.8054 66.6527 50.51 66.3092 50.3101 65.9101C49.8136 64.9478 49.402 63.944 49.0801 62.9101C48.9693 62.4986 48.955 62.067 49.0382 61.649C49.1215 61.231 49.3001 60.8378 49.5601 60.5001L51.5001 57.8501V57.1501L49.5601 54.5001C49.2949 54.1503 49.1167 53.7424 49.0401 53.3101C48.9695 52.8723 49.0003 52.4242 49.1301 52.0001C49.4484 50.9649 49.8601 49.9608 50.3601 49.0001C50.56 48.601 50.8554 48.2575 51.2201 48.0001C51.5834 47.7465 52.0014 47.582 52.4401 47.5201L55.6501 47.0601C55.7307 47.0027 55.8142 46.9493 55.9001 46.9001C55.9784 46.8119 56.0619 46.7285 56.1501 46.6501L56.6101 43.4301C56.6739 42.995 56.8382 42.5807 57.0901 42.2201C57.3524 41.86 57.6947 41.5656 58.0901 41.3601C59.0508 40.8601 60.0549 40.4484 61.0901 40.1301C61.4985 40.0085 61.9286 39.9778 62.3501 40.0401C62.7848 40.1188 63.1954 40.2967 63.5501 40.5601L66.1501 42.5001H66.8501L69.5001 40.5601C69.8394 40.3024 70.2325 40.1247 70.6501 40.0401C71.0879 39.9696 71.536 40.0003 71.9601 40.1301C72.9953 40.4484 73.9994 40.8601 74.9601 41.3601C75.35 41.5648 75.6857 41.8593 75.9396 42.2192C76.1934 42.5791 76.3581 42.9941 76.4201 43.4301L76.8801 46.6501L77.1301 46.9001L77.3801 47.1501L80.6001 47.6101C81.0352 47.6739 81.4495 47.8383 81.8101 48.0901C82.1703 48.3524 82.4646 48.6947 82.6701 49.0901C83.1701 50.0508 83.5818 51.0549 83.9001 52.0901C84.0297 52.5107 84.0605 52.9556 83.9901 53.3901C83.9112 53.8278 83.7333 54.2416 83.4701 54.6001L81.5001 57.1501V57.8501L83.4401 60.5001C83.7033 60.8511 83.8813 61.2585 83.9601 61.6901C84.0306 62.1279 83.9999 62.5761 83.8701 63.0001C83.5518 64.0353 83.1401 65.0394 82.6401 66.0001C82.4354 66.39 82.1409 66.7257 81.781 66.9796C81.4212 67.2334 81.0061 67.3981 80.5701 67.4601L77.3501 67.9201L77.1001 68.1701L76.8501 68.4201L76.3901 71.6401C76.3263 72.0753 76.1619 72.4896 75.9101 72.8501C75.6478 73.2103 75.3055 73.5047 74.9101 73.7101C73.9478 74.2066 72.944 74.6182 71.9101 74.9401C71.4896 75.0752 71.0426 75.1067 70.6073 75.0318C70.172 74.957 69.7613 74.778 69.4101 74.5101L66.8501 72.5001H66.1501L63.5001 74.4401C63.1502 74.7053 62.7424 74.8835 62.3101 74.9601C62.1648 74.986 62.0176 74.9993 61.8701 75.0001V75.0001ZM59.5601 71.0001C60.301 71.3731 61.07 71.6874 61.8601 71.9401L64.7801 69.7301C65.0651 69.5103 65.4212 69.4034 65.7801 69.4301C66.2663 69.4601 66.7539 69.4601 67.2401 69.4301C67.599 69.4034 67.9551 69.5103 68.2401 69.7301L71.2401 71.9401C72.0197 71.6854 72.7786 71.3712 73.5101 71.0001L74.0301 67.3501C74.0784 67.0027 74.2485 66.6838 74.5101 66.4501C74.7001 66.2801 74.8701 66.1201 75.0501 65.9401C75.2301 65.7601 75.3901 65.5901 75.5601 65.4001C75.7937 65.1385 76.1127 64.9684 76.4601 64.9201L80.1101 64.4001C80.4873 63.6611 80.8018 62.8918 81.0501 62.1001L78.8401 59.1801C78.6244 58.8931 78.518 58.5385 78.5401 58.1801C78.5401 57.9401 78.5401 57.7001 78.5401 57.4501C78.5401 57.2001 78.5401 56.9601 78.5401 56.7201C78.5134 56.3612 78.6203 56.0051 78.8401 55.7201L81.0601 52.7201C80.7799 51.9476 80.4457 51.1958 80.0601 50.4701L76.4101 49.9501C76.0627 49.9018 75.7437 49.7317 75.5101 49.4701C75.3401 49.2801 75.1801 49.1101 75.0001 48.9301C74.8201 48.7501 74.6301 48.6801 74.5001 48.5001C74.2334 48.265 74.0596 47.9422 74.0101 47.5901L73.4901 43.9401C72.7492 43.5671 71.9802 43.2528 71.1901 43.0001L68.2201 45.2301C67.9311 45.442 67.578 45.5479 67.2201 45.5301C66.7272 45.5001 66.233 45.5001 65.7401 45.5301C65.3822 45.5479 65.0291 45.442 64.7401 45.2301L61.7401 43.0201C60.9597 43.2729 60.2007 43.5872 59.4701 43.9601L58.9501 47.6101C58.9006 47.9622 58.7268 48.285 58.4601 48.5201L57.9301 49.0201C57.7601 49.1901 57.5901 49.3701 57.4301 49.5501C57.1949 49.8168 56.8722 49.9906 56.5201 50.0401L52.8701 50.5601C52.4971 51.301 52.1828 52.07 51.9301 52.8601L54.1401 55.7801C54.3566 56.0668 54.4631 56.4216 54.4401 56.7801C54.4401 57.0301 54.4401 57.2701 54.4401 57.5201C54.4401 57.7701 54.4401 58.0101 54.4401 58.2601C54.4631 58.6186 54.3566 58.9735 54.1401 59.2601L51.9301 62.2601C52.1848 63.0398 52.499 63.7987 52.8701 64.5301L56.5201 65.0501C56.8915 65.0725 57.2411 65.233 57.5001 65.5001C57.6601 65.6801 57.8301 65.8601 58.0001 66.0301L58.5401 66.5401C58.8017 66.7738 58.9718 67.0927 59.0201 67.4401L59.5601 71.0001Z"/>
</g>
<path fill-rule="evenodd" clip-rule="evenodd" d="M67 51.5C63.4101 51.5 60.5 54.4101 60.5 58C60.5 61.5899 63.4101 64.5 67 64.5C70.5899 64.5 73.5 61.5899 73.5 58C73.5 54.4101 70.5899 51.5 67 51.5ZM57.5 58C57.5 52.7533 61.7533 48.5 67 48.5C72.2467 48.5 76.5 52.7533 76.5 58C76.5 63.2467 72.2467 67.5 67 67.5C61.7533 67.5 57.5 63.2467 57.5 58Z"/>
<path fill-rule="evenodd" clip-rule="evenodd" d="M23.5 42.5C24.6046 42.5 25.5 41.6046 25.5 40.5C25.5 39.3954 24.6046 38.5 23.5 38.5C22.3954 38.5 21.5 39.3954 21.5 40.5C21.5 41.6046 22.3954 42.5 23.5 42.5ZM28.5 40.5C28.5 43.2614 26.2614 45.5 23.5 45.5C20.7386 45.5 18.5 43.2614 18.5 40.5C18.5 37.7386 20.7386 35.5 23.5 35.5C26.2614 35.5 28.5 37.7386 28.5 40.5Z"/>
<path fill-rule="evenodd" clip-rule="evenodd" d="M23.5 60.5C24.6046 60.5 25.5 59.6046 25.5 58.5C25.5 57.3954 24.6046 56.5 23.5 56.5C22.3954 56.5 21.5 57.3954 21.5 58.5C21.5 59.6046 22.3954 60.5 23.5 60.5ZM28.5 58.5C28.5 61.2614 26.2614 63.5 23.5 63.5C20.7386 63.5 18.5 61.2614 18.5 58.5C18.5 55.7386 20.7386 53.5 23.5 53.5C26.2614 53.5 28.5 55.7386 28.5 58.5Z"/>
</svg>
