<svg width="100" height="100" viewBox="0 0 100 100" xmlns="http://www.w3.org/2000/svg">
<path d="M72 10H25C22.7909 10 21 11.7909 21 14V62C21 64.2091 22.7909 66 25 66H49.2578C51.3636 66 53.1088 64.3673 53.2489 62.2661L53.429 59.5648C53.4755 58.8671 53.7041 58.1938 54.092 57.6121L57.8327 52.0009C58.2679 51.3481 58.8856 50.8377 59.6087 50.5332L66.8921 47.4665C67.6147 47.1622 68.4109 47.077 69.1815 47.2215L71.2628 47.6118C73.7245 48.0733 76 46.1848 76 43.6803V14C76 11.7909 74.2091 10 72 10Z" fill="currentColor"/>
<path fill-rule="evenodd" clip-rule="evenodd" d="M54 62C54 62.8284 53.3284 63.5 52.5 63.5L36 63.5C35.1716 63.5 34.5 62.8284 34.5 62C34.5 61.1716 35.1716 60.5 36 60.5L52.5 60.5C53.3284 60.5 54 61.1716 54 62Z"/>
<path fill-rule="evenodd" clip-rule="evenodd" d="M61 45.5L36 45.5C35.1716 45.5 34.5 44.8284 34.5 44C34.5 43.1716 35.1716 42.5 36 42.5L61 42.5C61.8284 42.5 62.5 43.1716 62.5 44C62.5 44.8284 61.8284 45.5 61 45.5Z"/>
<path d="M69 69C72.866 69 76 65.866 76 62C76 58.134 72.866 55 69 55C65.134 55 62 58.134 62 62C62 65.866 65.134 69 69 69Z" fill="currentColor"/>
<path fill-rule="evenodd" clip-rule="evenodd" d="M70.5 21V35V45.5634C78.7388 46.2627 85.349 52.6691 86.3647 60.8144C86.454 61.531 86.5 62.2605 86.5 63C86.5 63.7395 86.454 64.469 86.3647 65.1856C85.288 73.8197 77.9253 80.5 69 80.5C62.8372 80.5 57.4184 77.3144 54.3006 72.5H17C13.9624 72.5 11.5 70.0376 11.5 67V53V35V21C11.5 17.9624 13.9624 15.5 17 15.5L65 15.5C68.0376 15.5 70.5 17.9624 70.5 21ZM52.7469 69.5C51.9425 67.4904 51.5 65.2969 51.5 63C51.5 59.9152 52.2982 57.0167 53.6993 54.5L14.5 54.5L14.5 67C14.5 68.3807 15.6193 69.5 17 69.5H52.7469ZM55.8088 51.5C58.7088 48.1762 62.8447 45.9586 67.5 45.5634V36.5L14.5 36.5L14.5 51.5L55.8088 51.5ZM69 48.5C60.9919 48.5 54.5 54.9919 54.5 63C54.5 66.8633 56.0108 70.3737 58.4739 72.9726C59.4888 71.5049 60.8136 70.2628 62.3629 69.3332C62.7927 69.0753 63.2364 68.8436 63.6912 68.6387C61.7458 67.081 60.5 64.686 60.5 62C60.5 57.3056 64.3056 53.5 69 53.5C73.6944 53.5 77.5 57.3056 77.5 62C77.5 64.686 76.2542 67.0809 74.3089 68.6386C74.7637 68.8435 75.2073 69.0753 75.6372 69.3332C77.1865 70.2628 78.5113 71.5049 79.5263 72.9725C81.578 70.8078 82.9691 68.0109 83.3762 64.9045V61.0955C82.4446 53.988 76.3621 48.5 69 48.5ZM77.2319 74.9383C76.4418 73.7111 75.3701 72.6715 74.0937 71.9057C72.5634 70.9875 70.8003 70.5 69.0001 70.5C67.1998 70.5 65.4367 70.9875 63.9064 71.9057C62.63 72.6715 61.5582 73.7112 60.7682 74.9384C63.1066 76.5539 65.9428 77.5 69 77.5C72.057 77.5 74.8933 76.5538 77.2319 74.9383ZM67.5 33.5L14.5 33.5L14.5 21C14.5 19.6193 15.6193 18.5 17 18.5L65 18.5C66.3807 18.5 67.5 19.6193 67.5 21V33.5ZM27.5 62.5C27.5 63.6046 26.6046 64.5 25.5 64.5C24.3954 64.5 23.5 63.6046 23.5 62.5C23.5 61.3954 24.3954 60.5 25.5 60.5C26.6046 60.5 27.5 61.3954 27.5 62.5ZM25.5 67.5C28.2614 67.5 30.5 65.2614 30.5 62.5C30.5 59.7386 28.2614 57.5 25.5 57.5C22.7386 57.5 20.5 59.7386 20.5 62.5C20.5 65.2614 22.7386 67.5 25.5 67.5ZM27.5 44.5C27.5 45.6046 26.6046 46.5 25.5 46.5C24.3954 46.5 23.5 45.6046 23.5 44.5C23.5 43.3954 24.3954 42.5 25.5 42.5C26.6046 42.5 27.5 43.3954 27.5 44.5ZM25.5 49.5C28.2614 49.5 30.5 47.2614 30.5 44.5C30.5 41.7386 28.2614 39.5 25.5 39.5C22.7386 39.5 20.5 41.7386 20.5 44.5C20.5 47.2614 22.7386 49.5 25.5 49.5ZM27.5 26.5C27.5 27.6046 26.6046 28.5 25.5 28.5C24.3954 28.5 23.5 27.6046 23.5 26.5C23.5 25.3954 24.3954 24.5 25.5 24.5C26.6046 24.5 27.5 25.3954 27.5 26.5ZM25.5 31.5C28.2614 31.5 30.5 29.2614 30.5 26.5C30.5 23.7386 28.2614 21.5 25.5 21.5C22.7386 21.5 20.5 23.7386 20.5 26.5C20.5 29.2614 22.7386 31.5 25.5 31.5ZM61 27.5L36 27.5C35.1716 27.5 34.5 26.8284 34.5 26C34.5 25.1716 35.1716 24.5 36 24.5L61 24.5C61.8284 24.5 62.5 25.1716 62.5 26C62.5 26.8284 61.8284 27.5 61 27.5ZM69 56.5C65.9624 56.5 63.5 58.9624 63.5 62C63.5 65.0376 65.9624 67.5 69 67.5C72.0376 67.5 74.5 65.0376 74.5 62C74.5 58.9624 72.0376 56.5 69 56.5Z"/>
<path fill-rule="evenodd" clip-rule="evenodd" d="M85.5 43C85.5 43.8284 86.1716 44.5 87 44.5C87.8284 44.5 88.5 43.8284 88.5 43L88.5 40.5H91C91.8284 40.5 92.5 39.8284 92.5 39C92.5 38.1716 91.8284 37.5 91 37.5H88.5L88.5 35C88.5 34.1716 87.8284 33.5 87 33.5C86.1716 33.5 85.5 34.1716 85.5 35L85.5 37.5H83C82.1716 37.5 81.5 38.1716 81.5 39C81.5 39.8284 82.1716 40.5 83 40.5H85.5L85.5 43Z"/>
<path fill-rule="evenodd" clip-rule="evenodd" d="M49.5 90C49.5 90.8284 50.1716 91.5 51 91.5C51.8284 91.5 52.5 90.8284 52.5 90L52.5 87.5H55C55.8284 87.5 56.5 86.8284 56.5 86C56.5 85.1716 55.8284 84.5 55 84.5H52.5L52.5 82C52.5 81.1716 51.8284 80.5 51 80.5C50.1716 80.5 49.5 81.1716 49.5 82L49.5 84.5H47C46.1716 84.5 45.5 85.1716 45.5 86C45.5 86.8284 46.1716 87.5 47 87.5H49.5L49.5 90Z" fill="currentColor"/>
</svg>
