<svg width="100" height="100" viewBox="0 0 100 100" xmlns="http://www.w3.org/2000/svg">
<path d="M52 39H27C26.4477 39 26 39.4477 26 40V56.4505C26 56.754 26.246 57 26.5495 57C26.8115 57 27.037 56.8151 27.0883 56.5583L27.8985 52.5075C27.9622 52.1892 28.1763 51.9216 28.4729 51.7898L32.5 50L36.4689 51.764C36.7973 51.9099 37.0221 52.2208 37.0578 52.5783L37.41 56.0995C37.4611 56.6107 37.8912 57 38.405 57H52C52.5523 57 53 56.5523 53 56V40C53 39.4477 52.5523 39 52 39Z" fill="currentColor"/>
<path fill-rule="evenodd" clip-rule="evenodd" d="M19.616 36C19.616 35.1716 20.2875 34.5 21.116 34.5H39.0001C39.8285 34.5 40.5001 35.1716 40.5001 36C40.5001 36.8284 39.8285 37.5 39.0001 37.5H22.616V64.3159H69.9302V46C69.9302 45.1716 70.6018 44.5 71.4302 44.5C72.2587 44.5 72.9302 45.1716 72.9302 46V65.8159C72.9302 66.6443 72.2587 67.3159 71.4302 67.3159H21.116C20.2875 67.3159 19.616 66.6443 19.616 65.8159V36Z"/>
<path fill-rule="evenodd" clip-rule="evenodd" d="M13.5 77.7319C13.5 76.9035 14.1716 76.2319 15 76.2319H77C77.8284 76.2319 78.5 76.9035 78.5 77.7319V82.5872C78.5 83.4156 77.8284 84.0872 77 84.0872H15C14.1716 84.0872 13.5 83.4156 13.5 82.5872V77.7319ZM16.5 79.2319V81.0872H75.5V79.2319H16.5Z"/>
<path fill-rule="evenodd" clip-rule="evenodd" d="M20.1576 65.0194C20.4195 64.5343 20.9263 64.2319 21.4776 64.2319H71.4478C72.0323 64.2319 72.5636 64.5715 72.8091 65.1021L78.3613 77.1021C78.5762 77.5665 78.5395 78.1085 78.2639 78.5398C77.9883 78.971 77.5118 79.2319 77 79.2319H15C14.4718 79.2319 13.9825 78.9541 13.7118 78.5004C13.4412 78.0468 13.4291 77.4843 13.68 77.0194L20.1576 65.0194ZM22.3725 67.2319L17.5143 76.2319H74.6532L70.489 67.2319H22.3725Z"/>
<path d="M82.3223 17H45C44.4477 17 44 17.4477 44 18V40.6908C44 41.2431 44.4477 41.6908 45 41.6908H51H54.5H57H82.3223C82.8746 41.6908 83.3223 41.2431 83.3223 40.6908V18C83.3223 17.4477 82.8746 17 82.3223 17Z" fill="currentColor"/>
<path fill-rule="evenodd" clip-rule="evenodd" d="M44.5 27C44.5 26.1716 45.1716 25.5 46 25.5L71 25.5C71.8284 25.5 72.5 26.1716 72.5 27C72.5 27.8284 71.8284 28.5 71 28.5L46 28.5C45.1716 28.5 44.5 27.8284 44.5 27Z"/>
<path fill-rule="evenodd" clip-rule="evenodd" d="M44.5 33C44.5 32.1716 45.1716 31.5 46 31.5L71 31.5C71.8284 31.5 72.5 32.1716 72.5 33C72.5 33.8284 71.8284 34.5 71 34.5L46 34.5C45.1716 34.5 44.5 33.8284 44.5 33Z"/>
<path fill-rule="evenodd" clip-rule="evenodd" d="M44.5 39C44.5 38.1716 45.1716 37.5 46 37.5H58C58.8284 37.5 59.5 38.1716 59.5 39C59.5 39.8284 58.8284 40.5 58 40.5H46C45.1716 40.5 44.5 39.8284 44.5 39Z"/>
<path fill-rule="evenodd" clip-rule="evenodd" d="M40 19.5C38.6193 19.5 37.5 20.6193 37.5 22V40.5H32C31.1716 40.5 30.5 41.1716 30.5 42V48.7899C27.6085 49.6504 25.5 52.329 25.5 55.5C25.5 57.6137 26.4368 59.5085 27.9179 60.792L27.9014 60.8022C26.5181 61.6535 25.3971 62.8718 24.6621 64.3218C24.2876 65.0607 24.583 65.9634 25.3219 66.3379C26.0608 66.7125 26.9635 66.4171 27.338 65.6782C27.8232 64.7209 28.5626 63.9178 29.4737 63.3571C30.3847 62.7965 31.4322 62.5 32.5001 62.5C33.568 62.5 34.6154 62.7965 35.5265 63.3571C36.4375 63.9178 37.1769 64.7209 37.6622 65.6782C38.0367 66.4171 38.9394 66.7125 39.6783 66.3379C40.4172 65.9633 40.7126 65.0607 40.338 64.3218C39.785 63.2308 39.0136 62.271 38.0762 61.5H60C60.8284 61.5 61.5 60.8284 61.5 60V47.1908H77.3223C78.703 47.1908 79.8223 46.0715 79.8223 44.6908V22C79.8223 20.6193 78.7031 19.5 77.3223 19.5H40ZM58.5 47.1908H52.6435L47.087 53.0337C46.6641 53.4783 46.0132 53.6206 45.4434 53.3929C44.8737 53.1653 44.5 52.6136 44.5 52V47.1908H40C38.6193 47.1908 37.5 46.0715 37.5 44.6908V43.5H33.5V48.5709C36.8923 49.0561 39.5 51.9735 39.5 55.5C39.5 56.5736 39.2583 57.5907 38.8264 58.5H58.5V47.1908ZM40.5 42V44.1908H45C46.3807 44.1908 47.5 45.3101 47.5 46.6908V48.246L50.6174 44.968C51.0893 44.4717 51.7442 44.1908 52.429 44.1908H76.8223V22.5H40.5V42ZM28.5 55.5C28.5 53.2909 30.2909 51.5 32.5 51.5C34.7091 51.5 36.5 53.2909 36.5 55.5C36.5 57.7091 34.7091 59.5 32.5 59.5C30.2909 59.5 28.5 57.7091 28.5 55.5Z"/>
<path fill-rule="evenodd" clip-rule="evenodd" d="M23.5 29C23.5 29.8284 24.1716 30.5 25 30.5C25.8284 30.5 26.5 29.8284 26.5 29L26.5 26.5H29C29.8284 26.5 30.5 25.8284 30.5 25C30.5 24.1716 29.8284 23.5 29 23.5H26.5L26.5 21C26.5 20.1716 25.8284 19.5 25 19.5C24.1716 19.5 23.5 20.1716 23.5 21L23.5 23.5H21C20.1716 23.5 19.5 24.1716 19.5 25C19.5 25.8284 20.1716 26.5 21 26.5H23.5L23.5 29Z"/>
<path fill-rule="evenodd" clip-rule="evenodd" d="M79.5 66C79.5 66.8284 80.1716 67.5 81 67.5C81.8284 67.5 82.5 66.8284 82.5 66L82.5 63.5H85C85.8284 63.5 86.5 62.8284 86.5 62C86.5 61.1716 85.8284 60.5 85 60.5H82.5L82.5 58C82.5 57.1716 81.8284 56.5 81 56.5C80.1716 56.5 79.5 57.1716 79.5 58L79.5 60.5H77C76.1716 60.5 75.5 61.1716 75.5 62C75.5 62.8284 76.1716 63.5 77 63.5H79.5L79.5 66Z" fill="currentColor"/>
</svg>
