<svg width="100" height="100" viewBox="0 0 100 100" fill="none" xmlns="http://www.w3.org/2000/svg">
<rect width="100" height="100" fill="white"/>
<path d="M52 39H27C26.4477 39 26 39.4477 26 40V56C26 56.5523 26.4477 57 27 57H30.8064H33.2096H34.9262H52C52.5523 57 53 56.5523 53 56V40C53 39.4477 52.5523 39 52 39Z" fill="currentColor"/>
<path d="M71.4305 46V65.8159H21.1162V36H39.0004" stroke-width="3" stroke-linecap="round" stroke-linejoin="round"/>
<rect x="15" y="77.7319" width="62" height="4.85524" stroke="#384147" stroke-width="3" stroke-linecap="round" stroke-linejoin="round"/>
<path d="M21.4776 65.7319H71.4478L77 77.7319H15L21.4776 65.7319Z" stroke="#384147" stroke-width="3" stroke-linecap="round" stroke-linejoin="round"/>
<path d="M60 46V60H37.1852M32 50V42H39" stroke="#384147" stroke-width="3" stroke-linecap="round" stroke-linejoin="round"/>
<path d="M82.3223 17H45C44.4477 17 44 17.4477 44 18V40.6908C44 41.2431 44.4477 41.6908 45 41.6908H51H54.5H57H82.3223C82.8746 41.6908 83.3223 41.2431 83.3223 40.6908V18C83.3223 17.4477 82.8746 17 82.3223 17Z" fill="currentColor"/>
<path d="M39 22C39 21.4477 39.4477 21 40 21H77.3223C77.8746 21 78.3223 21.4477 78.3223 22V44.6908C78.3223 45.2431 77.8746 45.6908 77.3223 45.6908H52.429C52.1551 45.6908 51.8931 45.8031 51.7044 46.0016L46 52V46.6908C46 46.1385 45.5523 45.6908 45 45.6908H40C39.4477 45.6908 39 45.2431 39 44.6908V22Z" stroke="#384147" stroke-width="3" stroke-linecap="round" stroke-linejoin="round"/>
<path d="M46 27L71 27" stroke="#384147" stroke-width="3" stroke-linecap="round" stroke-linejoin="round"/>
<path d="M46 33L71 33" stroke="#384147" stroke-width="3" stroke-linecap="round" stroke-linejoin="round"/>
<path d="M46 39H58" stroke="#384147" stroke-width="3" stroke-linecap="round" stroke-linejoin="round"/>
<path d="M32.5 61C35.5376 61 38 58.5376 38 55.5C38 52.4624 35.5376 50 32.5 50C29.4624 50 27 52.4624 27 55.5C27 58.5376 29.4624 61 32.5 61Z" fill="white" stroke="#384147" stroke-width="3" stroke-miterlimit="10"/>
<path d="M26 65C26.6101 63.7964 27.5403 62.7856 28.6875 62.0797C29.8347 61.3737 31.1542 61 32.5 61C33.8458 61 35.1653 61.3737 36.3125 62.0796C37.4597 62.7856 38.3899 63.7964 39 65" stroke="#384147" stroke-width="3" stroke-linecap="round" stroke-linejoin="round"/>
<path d="M21 25H29" stroke="#384147" stroke-width="3" stroke-linecap="round" stroke-linejoin="round"/>
<path d="M25 29L25 21" stroke="#384147" stroke-width="3" stroke-linecap="round" stroke-linejoin="round"/>
<path d="M77 62H85" stroke="currentColor" stroke-width="3" stroke-linecap="round" stroke-linejoin="round"/>
<path d="M81 66L81 58" stroke="currentColor" stroke-width="3" stroke-linecap="round" stroke-linejoin="round"/>
</svg>
