<svg width="100" height="100" viewBox="0 0 100 100" fill="none" xmlns="http://www.w3.org/2000/svg">
<rect width="100" height="100" fill="white"/>
<rect x="19" y="45" width="62" height="33" rx="2" fill="currentColor"/>
<path d="M57 52H64" stroke="#384147" stroke-width="3" stroke-linecap="round" stroke-linejoin="round"/>
<rect x="23" y="39" width="54" height="35" stroke="#384147" stroke-width="3" stroke-linecap="round" stroke-linejoin="round"/>
<path d="M34 82H66" stroke="#384147" stroke-width="3" stroke-linecap="round" stroke-linejoin="round"/>
<path d="M50 82L50 74" stroke="#384147" stroke-width="3" stroke-linecap="round" stroke-linejoin="round"/>
<rect x="31" y="22" width="38" height="32" fill="white" stroke="#384147" stroke-width="3" stroke-linecap="round" stroke-linejoin="round"/>
<path d="M44.475 61.2827L42 63.909L44.475 66.5352" stroke="#384147" stroke-width="3" stroke-linecap="round" stroke-linejoin="round"/>
<path d="M54.5249 61.2827L56.9999 63.909L54.5249 66.5352" stroke="#384147" stroke-width="3" stroke-linecap="round" stroke-linejoin="round"/>
<path d="M51 59L48 69" stroke="#384147" stroke-width="3" stroke-linecap="round" stroke-linejoin="round"/>
<path d="M15 22H23" stroke="#384147" stroke-width="3" stroke-linecap="round" stroke-linejoin="round"/>
<path d="M19 26L19 18" stroke="#384147" stroke-width="3" stroke-linecap="round" stroke-linejoin="round"/>
<path d="M77 22H85" stroke="currentColor" stroke-width="3" stroke-linecap="round" stroke-linejoin="round"/>
<path d="M81 26L81 18" stroke="currentColor" stroke-width="3" stroke-linecap="round" stroke-linejoin="round"/>
<g clip-path="url(#clip0_634:29897)">
<path d="M37.8749 40.7564C37.8841 37.5089 37.8657 34.2623 37.8841 31.0039C38.5087 31.0237 39.1333 31.0039 39.7579 31.0237C39.7487 34.6584 39.7579 38.3009 39.7487 41.9445C39.7304 42.9643 39.712 44.0336 39.2527 44.9445C38.7475 45.9148 37.8473 46.598 36.8921 46.994C36.5889 46.6386 36.3134 46.2613 36.0103 45.9049C36.7818 45.4197 37.5534 44.7267 37.7371 43.7267C37.9116 42.7465 37.8565 41.7465 37.8749 40.7564Z" fill="#384147" stroke="#384147" stroke-width="0.09375" stroke-miterlimit="10"/>
<path d="M41.4911 34.9149C42.7311 34.3406 44.1089 34.0436 45.4592 34.202C46.1573 34.2911 46.8829 34.5683 47.333 35.1723C47.7096 35.6871 47.8474 36.3505 47.8382 36.9941V43.6376H46.4512C46.4053 43.3109 46.3594 42.9753 46.3226 42.6376C45.799 43.0832 45.2387 43.5089 44.5866 43.6871C43.8314 43.9056 43.0318 43.8644 42.2994 43.5693C42.0187 43.4418 41.7686 43.247 41.5681 42.9998C41.3675 42.7526 41.2218 42.4595 41.142 42.1426C40.9124 41.2218 41.0318 40.1426 41.638 39.4C42.18 38.7178 42.9975 38.3802 43.8058 38.2228C44.5498 38.0634 45.3122 38.0634 46.0746 38.0634C46.0562 37.4396 46.1665 36.7564 45.8358 36.202C45.5694 35.7762 45.0826 35.6079 44.6325 35.5782C43.6497 35.4891 42.676 35.7564 41.7483 36.103C41.6564 35.7069 41.5737 35.3109 41.4911 34.9149V34.9149ZM43.7691 39.5099C43.3649 39.6475 42.9883 39.9644 42.8781 40.4198C42.7495 40.9248 42.7862 41.5188 43.0893 41.9446C43.3925 42.3703 43.916 42.4594 44.3753 42.4C45.0183 42.3208 45.5786 41.9248 46.0746 41.499C46.0746 40.7564 46.0654 40.0238 46.0746 39.2812C45.303 39.2812 44.5131 39.2317 43.7691 39.5099Z" fill="#384147" stroke="#384147" stroke-width="0.09375" stroke-miterlimit="10"/>
<path d="M57.6388 34.9148C58.8881 34.3406 60.2659 34.0336 61.6253 34.2019C62.3041 34.2911 63.0031 34.5594 63.4523 35.1326C63.8758 35.6772 64.0034 36.4 63.9952 37.093C63.986 39.2811 64.0034 41.4594 63.9768 43.6475C63.5175 43.6277 63.0583 43.6574 62.599 43.6277C62.5531 43.291 62.5163 42.9643 62.4612 42.6376C61.8182 43.2316 61.0466 43.7178 60.174 43.796C59.3749 43.8752 58.4747 43.7673 57.8492 43.1524C57.197 42.499 57.0877 41.4406 57.2521 40.5386C57.4092 39.7079 57.987 39.0237 58.686 38.6574C59.7781 38.0831 61.0283 38.0534 62.2224 38.0633C62.2031 37.4594 62.3041 36.8158 62.0194 36.2712C61.7989 35.8356 61.3305 35.6376 60.8905 35.5881C59.87 35.4693 58.8504 35.7475 57.8951 36.1029C57.8134 35.7069 57.7215 35.3109 57.6388 34.9148V34.9148ZM59.8893 39.5188C59.5026 39.6584 59.1452 39.9742 59.0258 40.4099C58.8963 40.9148 58.934 41.5089 59.227 41.9445C59.52 42.3802 60.073 42.4594 60.5414 42.4C61.1752 42.301 61.753 41.9247 62.2316 41.4693C62.2123 40.7475 62.2224 40.0138 62.2224 39.2812C61.4416 39.2812 60.6416 39.2316 59.8893 39.5188Z" fill="#384147" stroke="#384147" stroke-width="0.09375" stroke-miterlimit="10"/>
<path d="M48.8853 34.3208H50.8142C51.1899 35.6277 51.5573 36.9248 51.9348 38.2317C52.1544 39.0337 52.4299 39.8258 52.587 40.6485C52.6697 41.0139 52.7422 41.3911 52.8433 41.7465C53.6341 39.3406 54.2404 36.8555 54.5527 34.3208H56.4283C55.8873 37.5297 55.0331 40.6871 53.7471 43.6376H51.5426C50.6608 40.5287 49.7698 37.4307 48.888 34.3208H48.8853Z" fill="#384147" stroke="#384147" stroke-width="0.09375" stroke-miterlimit="10"/>
</g>
<defs>
<clipPath id="clip0_634:29897">
<rect width="28" height="16" fill="white" transform="translate(36 31)"/>
</clipPath>
</defs>
</svg>
