<svg width="100" height="100" viewBox="0 0 100 100" fill="none" xmlns="http://www.w3.org/2000/svg">
<rect width="100" height="100" fill="white"/>
<path d="M19 47C19 45.8954 19.8954 45 21 45H79C80.1046 45 81 45.8954 81 47V76C81 77.1046 80.1046 78 79 78H21C19.8954 78 19 77.1046 19 76V47Z" fill="currentColor"/>
<path fill-rule="evenodd" clip-rule="evenodd" d="M21.5 39C21.5 38.1716 22.1716 37.5 23 37.5H77C77.8284 37.5 78.5 38.1716 78.5 39V74C78.5 74.8284 77.8284 75.5 77 75.5H51.5V80.5H66C66.8284 80.5 67.5 81.1716 67.5 82C67.5 82.8284 66.8284 83.5 66 83.5H50H34C33.1716 83.5 32.5 82.8284 32.5 82C32.5 81.1716 33.1716 80.5 34 80.5H48.5V75.5H23C22.1716 75.5 21.5 74.8284 21.5 74V39ZM50 72.5H75.5V40.5H24.5V72.5H50Z"/>
<path d="M31.5 21.5H69.5V53.5H31.5V21.5Z" fill="white"/>
<path fill-rule="evenodd" clip-rule="evenodd" d="M45.0001 46.3993L45.0001 46.3993L45 46.3991C45 46.3992 45.0001 46.3992 45.0001 46.3993ZM45.0001 46.3993C45.7089 47.8215 47.1053 49 49.5107 49C52.1743 49 54 47.6589 54 44.7125V35H50.9929V44.6723C50.9929 46.0946 50.3699 46.4602 49.3818 46.4602C48.351 46.4602 47.9213 45.7898 47.4488 44.9974L45.0001 46.3993ZM57.3407 44.802L55 46.1277H55C55.8418 47.7547 57.5667 49 60.2362 49C62.9671 49 65 47.6142 65 45.0832C65 42.7332 63.6242 41.6888 61.1806 40.6644L60.4619 40.3631C59.23 39.8409 58.6961 39.4993 58.6961 38.6557C58.6961 37.9729 59.23 37.4506 60.0719 37.4506C60.8933 37.4506 61.427 37.792 61.9198 38.6557L64.1581 37.2497C63.2136 35.6227 61.8994 35 60.0719 35C57.505 35 55.8623 36.607 55.8623 38.716C55.8623 41.0058 57.2381 42.0905 59.3122 42.954L60.0307 43.2555C61.3449 43.8177 62.1252 44.1592 62.1252 45.1234C62.1252 45.9268 61.3656 46.5094 60.1745 46.5094C58.7577 46.5094 57.9569 45.7863 57.3407 44.802Z"/>
<path fill-rule="evenodd" clip-rule="evenodd" d="M30 21.5C30 20.6716 30.6716 20 31.5 20H69.5C70.3284 20 71 20.6716 71 21.5V53.5C71 54.3284 70.3284 55 69.5 55H31.5C30.6716 55 30 54.3284 30 53.5V21.5ZM33 23V52H68V23H33Z"/>
<path fill-rule="evenodd" clip-rule="evenodd" d="M45.5038 60.1912C46.1067 60.7594 46.1348 61.7087 45.5667 62.3116L44.0612 63.9091L45.5667 65.5066C46.1348 66.1095 46.1067 67.0588 45.5038 67.627C44.9009 68.1952 43.9516 68.167 43.3834 67.5641L40.9084 64.9379C40.3639 64.3601 40.3639 63.4581 40.9084 62.8803L43.3834 60.2541C43.9516 59.6512 44.9009 59.623 45.5038 60.1912Z"/>
<path fill-rule="evenodd" clip-rule="evenodd" d="M53.4961 60.1912C54.099 59.623 55.0484 59.6512 55.6165 60.2541L58.0916 62.8803C58.6361 63.4581 58.6361 64.3601 58.0916 64.9379L55.6165 67.5641C55.0484 68.167 54.099 68.1952 53.4961 67.627C52.8933 67.0588 52.8651 66.1095 53.4333 65.5066L54.9388 63.9091L53.4333 62.3116C52.8651 61.7087 52.8933 60.7594 53.4961 60.1912Z"/>
<path fill-rule="evenodd" clip-rule="evenodd" d="M51.4309 57.5633C52.2244 57.8013 52.6747 58.6376 52.4366 59.4311L49.4366 69.4311C49.1986 70.2245 48.3624 70.6748 47.5689 70.4368C46.7754 70.1987 46.3251 69.3625 46.5632 68.569L49.5632 58.569C49.8012 57.7755 50.6374 57.3252 51.4309 57.5633Z"/>
<path fill-rule="evenodd" clip-rule="evenodd" d="M13.5 22C13.5 21.1716 14.1716 20.5 15 20.5H23C23.8284 20.5 24.5 21.1716 24.5 22C24.5 22.8284 23.8284 23.5 23 23.5H15C14.1716 23.5 13.5 22.8284 13.5 22Z"/>
<path fill-rule="evenodd" clip-rule="evenodd" d="M19 27.5C18.1716 27.5 17.5 26.8284 17.5 26L17.5 18C17.5 17.1716 18.1716 16.5 19 16.5C19.8284 16.5 20.5 17.1716 20.5 18L20.5 26C20.5 26.8284 19.8284 27.5 19 27.5Z"/>
<path fill-rule="evenodd" clip-rule="evenodd" d="M75.5 22C75.5 21.1716 76.1716 20.5 77 20.5H85C85.8284 20.5 86.5 21.1716 86.5 22C86.5 22.8284 85.8284 23.5 85 23.5H77C76.1716 23.5 75.5 22.8284 75.5 22Z" fill="currentColor"/>
<path fill-rule="evenodd" clip-rule="evenodd" d="M81 27.5C80.1716 27.5 79.5 26.8284 79.5 26L79.5 18C79.5 17.1716 80.1716 16.5 81 16.5C81.8284 16.5 82.5 17.1716 82.5 18L82.5 26C82.5 26.8284 81.8284 27.5 81 27.5Z" fill="currentColor"/>
</svg>
