<svg width="100" height="100" viewBox="0 0 100 100" fill="none" xmlns="http://www.w3.org/2000/svg">
<rect width="100" height="100" fill="white"/>
<rect x="11" y="37" width="54" height="35" rx="2" fill="currentColor"/>
<path fill-rule="evenodd" clip-rule="evenodd" d="M22.5 50C22.5 49.1716 23.1716 48.5 24 48.5L31 48.5C31.8284 48.5 32.5 49.1716 32.5 50C32.5 50.8284 31.8284 51.5 31 51.5L24 51.5C23.1716 51.5 22.5 50.8284 22.5 50Z"/>
<path fill-rule="evenodd" clip-rule="evenodd" d="M27.5 56C27.5 55.1716 28.1716 54.5 29 54.5H44C44.8284 54.5 45.5 55.1716 45.5 56C45.5 56.8284 44.8284 57.5 44 57.5H29C28.1716 57.5 27.5 56.8284 27.5 56Z"/>
<path fill-rule="evenodd" clip-rule="evenodd" d="M27.5 68C27.5 67.1716 28.1716 66.5 29 66.5H39C39.8284 66.5 40.5 67.1716 40.5 68C40.5 68.8284 39.8284 69.5 39 69.5H29C28.1716 69.5 27.5 68.8284 27.5 68Z"/>
<path fill-rule="evenodd" clip-rule="evenodd" d="M43.5 68C43.5 67.1716 44.1716 66.5 45 66.5H48C48.8284 66.5 49.5 67.1716 49.5 68C49.5 68.8284 48.8284 69.5 48 69.5H45C44.1716 69.5 43.5 68.8284 43.5 68Z"/>
<path fill-rule="evenodd" clip-rule="evenodd" d="M32.5 62C32.5 61.1716 33.1716 60.5 34 60.5H37C37.8284 60.5 38.5 61.1716 38.5 62C38.5 62.8284 37.8284 63.5 37 63.5H34C33.1716 63.5 32.5 62.8284 32.5 62Z"/>
<path fill-rule="evenodd" clip-rule="evenodd" d="M41.5 62C41.5 61.1716 42.1716 60.5 43 60.5H55C55.8284 60.5 56.5 61.1716 56.5 62C56.5 62.8284 55.8284 63.5 55 63.5H43C42.1716 63.5 41.5 62.8284 41.5 62Z"/>
<path fill-rule="evenodd" clip-rule="evenodd" d="M47.5 56C47.5 55.1716 48.1716 54.5 49 54.5H52C52.8284 54.5 53.5 55.1716 53.5 56C53.5 56.8284 52.8284 57.5 52 57.5H49C48.1716 57.5 47.5 56.8284 47.5 56Z"/>
<path d="M57 56H64" stroke-width="3" stroke-linecap="round" stroke-linejoin="round"/>
<path fill-rule="evenodd" clip-rule="evenodd" d="M35.5 50C35.5 49.1716 36.1716 48.5 37 48.5H39C39.8284 48.5 40.5 49.1716 40.5 50C40.5 50.8284 39.8284 51.5 39 51.5H37C36.1716 51.5 35.5 50.8284 35.5 50Z"/>
<path fill-rule="evenodd" clip-rule="evenodd" d="M43.5 50C43.5 49.1716 44.1716 48.5 45 48.5H57C57.8284 48.5 58.5 49.1716 58.5 50C58.5 50.8284 57.8284 51.5 57 51.5H45C44.1716 51.5 43.5 50.8284 43.5 50Z"/>
<path fill-rule="evenodd" clip-rule="evenodd" d="M15.5 43C15.5 42.1716 16.1716 41.5 17 41.5H71C71.8284 41.5 72.5 42.1716 72.5 43V78C72.5 78.8284 71.8284 79.5 71 79.5H45.5V84.5H60C60.8284 84.5 61.5 85.1716 61.5 86C61.5 86.8284 60.8284 87.5 60 87.5H44H28C27.1716 87.5 26.5 86.8284 26.5 86C26.5 85.1716 27.1716 84.5 28 84.5H42.5V79.5H17C16.1716 79.5 15.5 78.8284 15.5 78V43ZM44 76.5H69.5V44.5H18.5V76.5H44Z"/>
<path d="M53 32H89V68H53V32Z" fill="white"/>
<path fill-rule="evenodd" clip-rule="evenodd" d="M65.0001 61.3993L65.0001 61.3993L65 61.3991C65 61.3992 65.0001 61.3992 65.0001 61.3993ZM65.0001 61.3993C65.7089 62.8215 67.1053 64 69.5107 64C72.1743 64 74 62.6589 74 59.7125V50H70.9929V59.6723C70.9929 61.0946 70.3699 61.4602 69.3818 61.4602C68.351 61.4602 67.9213 60.7898 67.4488 59.9974L65.0001 61.3993ZM77.3407 59.802L75 61.1277H75C75.8418 62.7547 77.5667 64 80.2362 64C82.9671 64 85 62.6142 85 60.0832C85 57.7332 83.6242 56.6888 81.1806 55.6644L80.4619 55.3631C79.23 54.8409 78.6961 54.4993 78.6961 53.6557C78.6961 52.9729 79.23 52.4506 80.0719 52.4506C80.8933 52.4506 81.427 52.792 81.9198 53.6557L84.1581 52.2497C83.2136 50.6227 81.8994 50 80.0719 50C77.505 50 75.8623 51.607 75.8623 53.716C75.8623 56.0058 77.2381 57.0905 79.3122 57.954L80.0307 58.2555C81.3449 58.8177 82.1252 59.1592 82.1252 60.1234C82.1252 60.9268 81.3656 61.5094 80.1745 61.5094C78.7577 61.5094 77.9569 60.7863 77.3407 59.802Z"/>
<path fill-rule="evenodd" clip-rule="evenodd" d="M51.5 32C51.5 31.1716 52.1716 30.5 53 30.5H89C89.8284 30.5 90.5 31.1716 90.5 32V68C90.5 68.8284 89.8284 69.5 89 69.5H53C52.1716 69.5 51.5 68.8284 51.5 68V32ZM54.5 33.5V66.5H87.5V33.5H54.5Z"/>
<path d="M35 14H58V36H35V14Z" fill="white"/>
<path fill-rule="evenodd" clip-rule="evenodd" d="M33.5 14C33.5 13.1716 34.1716 12.5 35 12.5H58C58.8284 12.5 59.5 13.1716 59.5 14V36C59.5 36.8284 58.8284 37.5 58 37.5H35C34.1716 37.5 33.5 36.8284 33.5 36V14ZM36.5 15.5V34.5H56.5V15.5H36.5Z"/>
<path fill-rule="evenodd" clip-rule="evenodd" d="M19.5 31C19.5 31.8284 20.1716 32.5 21 32.5C21.8284 32.5 22.5 31.8284 22.5 31L22.5 28.5H25C25.8284 28.5 26.5 27.8284 26.5 27C26.5 26.1716 25.8284 25.5 25 25.5H22.5L22.5 23C22.5 22.1716 21.8284 21.5 21 21.5C20.1716 21.5 19.5 22.1716 19.5 23L19.5 25.5H17C16.1716 25.5 15.5 26.1716 15.5 27C15.5 27.8284 16.1716 28.5 17 28.5H19.5L19.5 31Z" fill="currentColor"/>
<path fill-rule="evenodd" clip-rule="evenodd" d="M83.5 82C83.5 82.8284 84.1716 83.5 85 83.5C85.8284 83.5 86.5 82.8284 86.5 82L86.5 79.5H89C89.8284 79.5 90.5 78.8284 90.5 78C90.5 77.1716 89.8284 76.5 89 76.5H86.5L86.5 74C86.5 73.1716 85.8284 72.5 85 72.5C84.1716 72.5 83.5 73.1716 83.5 74L83.5 76.5H81C80.1716 76.5 79.5 77.1716 79.5 78C79.5 78.8284 80.1716 79.5 81 79.5H83.5L83.5 82Z"/>
<path fill-rule="evenodd" clip-rule="evenodd" d="M42.5038 21.1912C43.1067 21.7594 43.1348 22.7087 42.5667 23.3116L41.0612 24.9091L42.5667 26.5066C43.1348 27.1095 43.1067 28.0588 42.5038 28.627C41.9009 29.1952 40.9516 29.167 40.3834 28.5641L37.9084 25.9379C37.3639 25.3601 37.3639 24.4581 37.9084 23.8803L40.3834 21.2541C40.9516 20.6512 41.9009 20.623 42.5038 21.1912Z"/>
<path fill-rule="evenodd" clip-rule="evenodd" d="M50.4961 21.1912C51.099 20.623 52.0484 20.6512 52.6165 21.2541L55.0916 23.8803C55.6361 24.4581 55.6361 25.3601 55.0916 25.9379L52.6165 28.5641C52.0484 29.167 51.099 29.1952 50.4961 28.627C49.8933 28.0588 49.8651 27.1095 50.4333 26.5066L51.9388 24.9091L50.4333 23.3116C49.8651 22.7087 49.8933 21.7594 50.4961 21.1912Z"/>
<path fill-rule="evenodd" clip-rule="evenodd" d="M48.5079 17.5452C49.3113 17.7471 49.799 18.5621 49.597 19.3656L46.627 31.1838C46.4251 31.9872 45.6101 32.4749 44.8066 32.2729C44.0032 32.071 43.5156 31.256 43.7175 30.4526L46.6875 18.6344C46.8894 17.8309 47.7044 17.3433 48.5079 17.5452Z"/>
</svg>