<svg width="100" height="100" viewBox="0 0 100 100" fill="none" xmlns="http://www.w3.org/2000/svg">
<rect width="100" height="100" fill="white"/>
<rect x="30" y="27" width="36" height="40" rx="2" fill="currentColor"/>
<path d="M66.6054 22H39.5151C37.0215 22 35 24.0215 35 26.515V76.1806C35 78.6742 37.0215 80.6956 39.5151 80.6956H66.6054C69.0989 80.6956 71.1204 78.6742 71.1204 76.1806V26.515C71.1204 24.0215 69.0989 22 66.6054 22Z" stroke="#384147" stroke-width="3" stroke-linecap="round" stroke-linejoin="round"/>
<path d="M66 39V63.9134C66 64.1786 65.935 64.4397 65.8107 64.6735C65.6864 64.9073 65.5067 65.1067 65.2875 65.2538L63.0891 66.7294C62.8758 66.8726 62.6314 66.9621 62.3765 66.9903C62.1216 67.0186 61.8638 66.9847 61.6246 66.8916C61.3855 66.7985 61.172 66.6489 61.0023 66.4554C60.8326 66.2619 60.7115 66.0302 60.6493 65.7797L58 55.1097" fill="white"/>
<path d="M66 39V63.9134C66 64.1786 65.935 64.4397 65.8107 64.6735C65.6864 64.9073 65.5067 65.1067 65.2875 65.2538L63.0891 66.7294C62.8758 66.8726 62.6314 66.9621 62.3765 66.9903C62.1216 67.0186 61.8638 66.9847 61.6246 66.8916C61.3855 66.7985 61.172 66.6489 61.0023 66.4554C60.8326 66.2619 60.7115 66.0302 60.6493 65.7797L58 55.1097" stroke="#384147" stroke-width="3" stroke-linecap="round" stroke-linejoin="round"/>
<path d="M57.2 54.9229C55.0252 54.9229 52.9395 54.0882 51.4017 52.6024C49.8639 51.1165 49 49.1013 49 47C49 44.8987 49.8639 42.8835 51.4017 41.3976C52.9395 39.9118 55.0252 39.0771 57.2 39.0771H65.4C65.4 39.0771 76.5626 39.0771 87.3045 30.3722C87.5434 30.1779 87.8347 30.0536 88.1443 30.0138C88.4538 29.9741 88.7686 30.0205 89.0518 30.1478C89.3349 30.275 89.5746 30.4777 89.7425 30.732C89.9105 30.9864 89.9998 31.2817 90 31.5835V62.4165C89.9998 62.7183 89.9105 63.0136 89.7425 63.268C89.5746 63.5223 89.3349 63.725 89.0518 63.8522C88.7686 63.9795 88.4538 64.0259 88.1443 63.9862C87.8347 63.9464 87.5434 63.8221 87.3045 63.6278C76.5626 54.9229 65.4 54.9229 65.4 54.9229H57.2Z" fill="white" stroke="#384147" stroke-width="3" stroke-linecap="round" stroke-linejoin="round"/>
<path d="M35 31.03H71.1204" stroke="#384147" stroke-width="3" stroke-linecap="round" stroke-linejoin="round"/>
<path d="M35 71.6655H71.1204" stroke="#384147" stroke-width="3" stroke-linecap="round" stroke-linejoin="round"/>
<circle cx="53.4786" cy="26.3479" r="1.08696"/>
<path d="M80 35V58.5" stroke="#384147" stroke-width="3" stroke-linecap="round" stroke-linejoin="round"/>
<path d="M49.3223 11C49.3223 10.4477 48.8746 10 48.3223 10H10.9999C10.4476 10 9.99993 10.4477 9.99993 11V33.6908C9.99993 34.2431 10.4476 34.6908 10.9999 34.6908H35.8933C36.1672 34.6908 36.4291 34.8031 36.6179 35.0016L42.3223 41V35.6908C42.3223 35.1385 42.77 34.6908 43.3223 34.6908H48.3223C48.8746 34.6908 49.3223 34.2431 49.3223 33.6908V11Z" fill="white" stroke="#384147" stroke-width="3" stroke-linecap="round" stroke-linejoin="round"/>
<path d="M42.3223 16L17.3223 16" stroke="#384147" stroke-width="3" stroke-linecap="round" stroke-linejoin="round"/>
<path d="M42.3223 22L17.3223 22" stroke="#384147" stroke-width="3" stroke-linecap="round" stroke-linejoin="round"/>
<path d="M42.3223 28H30.3223" stroke="#384147" stroke-width="3" stroke-linecap="round" stroke-linejoin="round"/>
<rect x="10" y="59" width="31" height="31" rx="4" fill="white" stroke="#384147" stroke-width="3" stroke-linecap="round" stroke-linejoin="round"/>
<path d="M16.8838 76.6L22.1838 72.7183V83.6666H16.8838V76.6Z" fill="currentColor"/>
<rect x="23.9502" y="73.0667" width="5.3" height="10.6" fill="currentColor"/>
<path d="M31.0166 69.5333L36.3166 67.7666V83.6666H31.0166V69.5333Z" fill="currentColor"/>
<path d="M36 83.6667H16V66" stroke="#384147" stroke-width="3" stroke-linecap="round" stroke-linejoin="round"/>
<path d="M35.4333 66L26.6 74.8333L23.0667 71.3L16 78.3667" stroke="#384147" stroke-width="3" stroke-linecap="round" stroke-linejoin="round"/>
<path d="M35.4333 70.4167V66H31.0166" stroke="#384147" stroke-width="3" stroke-linecap="round" stroke-linejoin="round"/>
<path d="M78 14H86" stroke="#384147" stroke-width="3" stroke-linecap="round" stroke-linejoin="round"/>
<path d="M82 18L82 10" stroke="#384147" stroke-width="3" stroke-linecap="round" stroke-linejoin="round"/>
<path d="M78 86H86" stroke="currentColor" stroke-width="3" stroke-linecap="round" stroke-linejoin="round"/>
<path d="M82 90L82 82" stroke="currentColor" stroke-width="3" stroke-linecap="round" stroke-linejoin="round"/>
</svg>
