<svg width="100" height="100" viewBox="0 0 100 100" xmlns="http://www.w3.org/2000/svg">
<path d="M40.5 62V65C40.5 66.1046 41.3954 67 42.5 67H53.25H54.8485C56.1773 67 57.1366 65.7282 56.7716 64.4506L56.5 63.5L54.3799 56.2918C54.1502 55.5108 53.4702 54.947 52.6602 54.866L49.874 54.5874C49.317 54.5317 48.8089 54.2451 48.473 53.7973L46.3453 50.9604C46.1197 50.6596 45.9834 50.3012 45.9522 49.9265L45.5864 45.5366C45.5322 44.8869 45.7982 44.2515 46.2991 43.8341L50.9437 39.9636C51.3032 39.664 51.7562 39.5 52.2241 39.5H59.8345C59.9446 39.5 60.0546 39.4909 60.1633 39.4728L64.3288 38.7785C65.2932 38.6178 66 37.7834 66 36.8057V29C66 27.8954 65.1046 27 64 27H51C49.8954 27 49 27.8954 49 29V32.5C49 33.6046 48.1046 34.5 47 34.5H44.2574C43.2868 34.5 42.5 35.2868 42.5 36.2574C42.5 37.823 40.6071 38.6071 39.5 37.5L37.0858 35.0858C36.7107 34.7107 36.202 34.5 35.6716 34.5H32C30.8954 34.5 30 35.3954 30 36.5V58C30 59.1046 30.8954 60 32 60H38.5C39.6046 60 40.5 60.8954 40.5 62Z" fill="currentColor"/>
<path fill-rule="evenodd" clip-rule="evenodd" d="M48 22C48 21.1716 48.6716 20.5 49.5 20.5H66.6054C69.9274 20.5 72.6204 23.193 72.6204 26.515V37.5C72.6204 38.3284 71.9488 39 71.1204 39C70.292 39 69.6204 38.3284 69.6204 37.5V26.515C69.6204 24.8499 68.2705 23.5 66.6054 23.5H49.5C48.6716 23.5 48 22.8284 48 22ZM35 33.5C35.8284 33.5 36.5 34.1716 36.5 35V59C36.5 59.8284 35.8284 60.5 35 60.5C34.1716 60.5 33.5 59.8284 33.5 59V35C33.5 34.1716 34.1716 33.5 35 33.5ZM71.1204 56C71.9488 56 72.6204 56.6716 72.6204 57.5V76.1806C72.6204 79.5026 69.9274 82.1956 66.6054 82.1956H41C40.1716 82.1956 39.5 81.5241 39.5 80.6956C39.5 79.8672 40.1716 79.1956 41 79.1956H66.6054C68.2705 79.1956 69.6204 77.8458 69.6204 76.1806V57.5C69.6204 56.6716 70.292 56 71.1204 56Z"/>
<g clip-path="url(#clip0_3574:12863)">
<path fill-rule="evenodd" clip-rule="evenodd" d="M87.5303 30.41C87.2114 29.9114 86.7518 29.5178 86.21 29.2796C85.6711 29.0377 85.0757 28.9511 84.4902 29.0296C83.906 29.0992 83.3538 29.3355 82.8999 29.7098C76.9414 34.6171 69.6003 37.5431 61.8999 38.0799H53.7002C51.1502 38.0666 48.6955 39.0495 46.8599 40.8197C45.9606 41.6852 45.2442 42.7225 44.7529 43.8699C44.2617 45.0174 44.0057 46.2517 44 47.4998C43.9999 48.7489 44.2535 49.9849 44.7451 51.1331C45.2367 52.2813 45.956 53.318 46.8599 54.18C48.5914 55.847 50.8782 56.8154 53.2803 56.8997L55.6899 66.64C55.8125 67.1202 56.0455 67.5652 56.3701 67.9398C56.699 68.3166 57.1141 68.6083 57.5801 68.7899C58.0434 68.9735 58.5451 69.0387 59.04 68.9798C59.5365 68.9257 60.013 68.7543 60.4302 68.4798L62.6201 66.9998C63.0394 66.7132 63.3826 66.3286 63.6201 65.8797C63.8586 65.4265 63.982 64.9221 63.98 64.41V57.0999C67.9684 57.6429 71.8441 58.8209 75.46 60.5897C75.6697 60.7894 75.9346 60.9221 76.2202 60.97C78.5702 62.1775 80.7883 63.6251 82.8398 65.2899C83.2937 65.6642 83.846 65.9004 84.4302 65.97C84.5667 65.98 84.7034 65.98 84.8398 65.97C85.2915 65.9717 85.7384 65.8759 86.1499 65.6898C86.6871 65.4443 87.1449 65.0529 87.4702 64.5599C87.802 64.0661 87.9793 63.4849 87.98 62.89V32.0496C87.9913 31.471 87.8353 30.9018 87.5303 30.41ZM61.04 64.41C61.0447 64.4297 61.0447 64.4503 61.04 64.47L58.8398 65.9398V65.89L56.6099 56.89H61.04V64.41ZM75.04 57.0496C70.9075 55.1964 66.4639 54.1349 61.9399 53.9198H53.7402C51.9685 53.921 50.2639 53.2408 48.98 52.0198C48.3672 51.4372 47.8794 50.7358 47.5459 49.9588C47.2124 49.1818 47.0403 48.3454 47.04 47.4998C47.0403 46.6543 47.2124 45.8178 47.5459 45.0408C47.8794 44.2638 48.3672 43.5625 48.98 42.9798C50.2639 41.7588 51.9685 41.0786 53.7402 41.0799H61.9399C66.4605 40.8796 70.9038 39.8349 75.04 37.9998V57.0496ZM84.98 62.9798C84.98 62.9798 84.91 62.9798 84.79 62.9798C82.6914 61.2758 80.4306 59.782 78.04 58.5198V36.5198C80.4559 35.2387 82.7431 33.7282 84.8701 32.0096C84.8701 32.0096 84.95 32.0097 85.04 32.0897L84.98 62.9798Z"/>
</g>
<path fill-rule="evenodd" clip-rule="evenodd" d="M48.5 31C48.5 30.1716 49.1716 29.5 50 29.5L71 29.5C71.8284 29.5 72.5 30.1716 72.5 31C72.5 31.8284 71.8284 32.5 71 32.5L50 32.5C49.1716 32.5 48.5 31.8284 48.5 31Z"/>
<path fill-rule="evenodd" clip-rule="evenodd" d="M39.5 72C39.5 71.1716 40.1716 70.5 41 70.5L71 70.5C71.8284 70.5 72.5 71.1716 72.5 72C72.5 72.8284 71.8284 73.5 71 73.5L41 73.5C40.1716 73.5 39.5 72.8284 39.5 72Z"/>
<circle cx="53.4783" cy="26.3479" r="1.08696"/>
<path fill-rule="evenodd" clip-rule="evenodd" d="M50.8223 11C50.8223 9.61929 49.703 8.5 48.3223 8.5H10.9999C9.61921 8.5 8.49993 9.61929 8.49993 11V33.6908C8.49993 35.0715 9.61922 36.1908 10.9999 36.1908H35.6788L41.2353 42.0337C41.6581 42.4783 42.3091 42.6206 42.8788 42.3929C43.4486 42.1653 43.8223 41.6136 43.8223 41V36.1908H48.3223C49.703 36.1908 50.8223 35.0715 50.8223 33.6908V11ZM47.8223 11.5V33.1908H43.3223C41.9416 33.1908 40.8223 34.3101 40.8223 35.6908V37.246L37.7049 33.968C37.2329 33.4717 36.5781 33.1908 35.8933 33.1908H11.4999V11.5H47.8223Z"/>
<path fill-rule="evenodd" clip-rule="evenodd" d="M43.8223 16C43.8223 15.1716 43.1507 14.5 42.3223 14.5L17.3223 14.5C16.4938 14.5 15.8223 15.1716 15.8223 16C15.8223 16.8284 16.4938 17.5 17.3223 17.5L42.3223 17.5C43.1507 17.5 43.8223 16.8284 43.8223 16Z"/>
<path fill-rule="evenodd" clip-rule="evenodd" d="M43.8223 22C43.8223 21.1716 43.1507 20.5 42.3223 20.5L17.3223 20.5C16.4938 20.5 15.8223 21.1716 15.8223 22C15.8223 22.8284 16.4938 23.5 17.3223 23.5L42.3223 23.5C43.1507 23.5 43.8223 22.8284 43.8223 22Z"/>
<path fill-rule="evenodd" clip-rule="evenodd" d="M43.8223 28C43.8223 27.1716 43.1507 26.5 42.3223 26.5H30.3223C29.4938 26.5 28.8223 27.1716 28.8223 28C28.8223 28.8284 29.4938 29.5 30.3223 29.5H42.3223C43.1507 29.5 43.8223 28.8284 43.8223 28Z"/>
<path fill-rule="evenodd" clip-rule="evenodd" d="M8.5 63C8.5 59.9624 10.9624 57.5 14 57.5H37C40.0376 57.5 42.5 59.9624 42.5 63V86C42.5 89.0376 40.0376 91.5 37 91.5H14C10.9624 91.5 8.5 89.0376 8.5 86V63ZM14 60.5C12.6193 60.5 11.5 61.6193 11.5 63V86C11.5 87.3807 12.6193 88.5 14 88.5H37C38.3807 88.5 39.5 87.3807 39.5 86V63C39.5 61.6193 38.3807 60.5 37 60.5H14Z"/>
<path d="M16.8833 76.6L22.1833 72.7183V83.6666H16.8833V76.6Z" fill="currentColor"/>
<rect x="23.95" y="73.0667" width="5.3" height="10.6" fill="currentColor"/>
<path d="M31.0166 69.5333L36.3166 67.7666V83.6666H31.0166V69.5333Z" fill="currentColor"/>
<path fill-rule="evenodd" clip-rule="evenodd" d="M33.9335 69.6214L27.6609 75.894C27.3796 76.1753 26.9981 76.3333 26.6002 76.3333C26.2024 76.3333 25.8209 76.1753 25.5396 75.894L23.0669 73.4213L17.5 78.9882V82.1667H36C36.8284 82.1667 37.5 82.8382 37.5 83.6667C37.5 84.4951 36.8284 85.1667 36 85.1667H16C15.1716 85.1667 14.5 84.4951 14.5 83.6667V66C14.5 65.1716 15.1716 64.5 16 64.5C16.8284 64.5 17.5 65.1716 17.5 66V74.7456L22.0063 70.2393C22.2876 69.958 22.6691 69.8 23.0669 69.8C23.4647 69.8 23.8463 69.958 24.1276 70.2393L26.6002 72.712L31.8123 67.5H31.0168C30.1884 67.5 29.5168 66.8284 29.5168 66C29.5168 65.1716 30.1884 64.5 31.0168 64.5H35.4335C35.4335 64.5 35.4335 64.5 35.4335 64.5C35.6256 64.5 35.8092 64.5361 35.978 64.6019C36.1661 64.675 36.3424 64.7875 36.4942 64.9393C36.658 65.1031 36.776 65.2954 36.8482 65.5002C36.8877 65.6119 36.9143 65.7296 36.9263 65.8517C36.9316 65.9056 36.934 65.9598 36.9335 66.014V70.4167C36.9335 71.2451 36.2619 71.9167 35.4335 71.9167C34.6051 71.9167 33.9335 71.2451 33.9335 70.4167V69.6214Z"/>
<path fill-rule="evenodd" clip-rule="evenodd" d="M80.5 18C80.5 18.8284 81.1716 19.5 82 19.5C82.8284 19.5 83.5 18.8284 83.5 18L83.5 15.5H86C86.8284 15.5 87.5 14.8284 87.5 14C87.5 13.1716 86.8284 12.5 86 12.5H83.5L83.5 10C83.5 9.17157 82.8284 8.5 82 8.5C81.1716 8.5 80.5 9.17157 80.5 10L80.5 12.5H78C77.1716 12.5 76.5 13.1716 76.5 14C76.5 14.8284 77.1716 15.5 78 15.5H80.5L80.5 18Z"/>
<path fill-rule="evenodd" clip-rule="evenodd" d="M80.5 90C80.5 90.8284 81.1716 91.5 82 91.5C82.8284 91.5 83.5 90.8284 83.5 90L83.5 87.5H86C86.8284 87.5 87.5 86.8284 87.5 86C87.5 85.1716 86.8284 84.5 86 84.5H83.5L83.5 82C83.5 81.1716 82.8284 80.5 82 80.5C81.1716 80.5 80.5 81.1716 80.5 82L80.5 84.5H78C77.1716 84.5 76.5 85.1716 76.5 86C76.5 86.8284 77.1716 87.5 78 87.5H80.5L80.5 90Z" fill="currentColor"/>
<defs>
<clipPath id="clip0_3574:12863">
<rect width="44" height="40" fill="white" transform="translate(44 29)"/>
</clipPath>
</defs>
</svg>
