<svg width="100" height="100" viewBox="0 0 100 100" fill="none" xmlns="http://www.w3.org/2000/svg">
<rect width="100" height="100" fill="white"/>
<rect x="20.7695" y="32" width="55.4505" height="35.9402" rx="1" fill="currentColor"/>
<path d="M53.7695 43.0002L64.7695 43.0002" stroke="#384147" stroke-width="3" stroke-linecap="round" stroke-linejoin="round"/>
<path d="M30.7695 68.0002L19.7695 68.0002" stroke="#384147" stroke-width="3" stroke-linecap="round" stroke-linejoin="round"/>
<path d="M53.7695 48.0002L64.7695 48.0002" stroke="#384147" stroke-width="3" stroke-linecap="round" stroke-linejoin="round"/>
<path d="M30.7695 63.0002L19.7695 63.0002" stroke="#384147" stroke-width="3" stroke-linecap="round" stroke-linejoin="round"/>
<path d="M53.7695 53.0002L64.7695 53.0002" stroke="#384147" stroke-width="3" stroke-linecap="round" stroke-linejoin="round"/>
<path d="M30.7695 58.0002L19.7695 58.0002" stroke="#384147" stroke-width="3" stroke-linecap="round" stroke-linejoin="round"/>
<rect x="19.7695" y="43.0002" width="12" height="10" stroke="#384147" stroke-width="3" stroke-linecap="round" stroke-linejoin="round"/>
<rect x="63.7695" y="68.0002" width="11" height="10" transform="rotate(-180 63.7695 68.0002)" stroke="#384147" stroke-width="3" stroke-linecap="round" stroke-linejoin="round"/>
<rect x="36.7695" y="43.0002" width="11" height="10" stroke="#384147" stroke-width="3" stroke-linecap="round" stroke-linejoin="round"/>
<rect x="47.7695" y="68.0002" width="11" height="10" transform="rotate(-180 47.7695 68.0002)" stroke="#384147" stroke-width="3" stroke-linecap="round" stroke-linejoin="round"/>
<rect x="15" y="37.7173" width="55.4505" height="35.9402" stroke="#384147" stroke-width="3" stroke-linecap="round" stroke-linejoin="round"/>
<path d="M29.6318 82.5264H55.2371" stroke="#384147" stroke-width="3" stroke-linecap="round" stroke-linejoin="round"/>
<path d="M42.7251 81.8723L42.7251 73.6574" stroke="#384147" stroke-width="3" stroke-linecap="round" stroke-linejoin="round"/>
<rect x="42" y="19" width="44" height="29" rx="2" stroke="#384147" stroke-width="3" stroke-linecap="round" stroke-linejoin="round"/>
<path d="M56.6154 30.3079L52 34.0002L56.6154 37.6925" stroke="white" stroke-width="3" stroke-linecap="round" stroke-linejoin="round"/>
<path d="M71.3848 30.3079L76.0002 34.0002L71.3848 37.6925" stroke="white" stroke-width="3" stroke-linecap="round" stroke-linejoin="round"/>
<path d="M66.7694 25.6924L61.231 42.3078" stroke="white" stroke-width="3" stroke-linecap="round" stroke-linejoin="round"/>
<path d="M21 22H29" stroke="#384147" stroke-width="3" stroke-linecap="round" stroke-linejoin="round"/>
<path d="M25 26L25 18" stroke="#384147" stroke-width="3" stroke-linecap="round" stroke-linejoin="round"/>
<path d="M78 79H86" stroke="currentColor" stroke-width="3" stroke-linecap="round" stroke-linejoin="round"/>
<path d="M82 83L82 75" stroke="currentColor" stroke-width="3" stroke-linecap="round" stroke-linejoin="round"/>
</svg>
