<svg width="100" height="100" viewBox="0 0 100 100" fill="none" xmlns="http://www.w3.org/2000/svg">
<rect width="100" height="100" fill="white"/>
<rect x="19" y="44" width="62" height="33" rx="2" fill="currentColor"/>
<path d="M57 51H64" stroke="#384147" stroke-width="3" stroke-linecap="round" stroke-linejoin="round"/>
<rect x="23" y="38" width="54" height="35" stroke="#384147" stroke-width="3" stroke-linecap="round" stroke-linejoin="round"/>
<path d="M34 82H66" stroke="#384147" stroke-width="3" stroke-linecap="round" stroke-linejoin="round"/>
<path d="M50 82L50 73" stroke="#384147" stroke-width="3" stroke-linecap="round" stroke-linejoin="round"/>
<rect x="31" y="21" width="38" height="32" fill="white" stroke="#384147" stroke-width="3" stroke-linecap="round" stroke-linejoin="round"/>
<path d="M44.475 60.2828L42 62.9091L44.475 65.5354" stroke="#384147" stroke-width="3" stroke-linecap="round" stroke-linejoin="round"/>
<path d="M54.5254 60.2828L57.0004 62.9091L54.5254 65.5354" stroke="#384147" stroke-width="3" stroke-linecap="round" stroke-linejoin="round"/>
<path d="M51 58L48 68" stroke="#384147" stroke-width="3" stroke-linecap="round" stroke-linejoin="round"/>
<path d="M15 21H23" stroke="#384147" stroke-width="3" stroke-linecap="round" stroke-linejoin="round"/>
<path d="M19 25L19 17" stroke="#384147" stroke-width="3" stroke-linecap="round" stroke-linejoin="round"/>
<path d="M77 21H85" stroke="currentColor" stroke-width="3" stroke-linecap="round" stroke-linejoin="round"/>
<path d="M81 25L81 17" stroke="currentColor" stroke-width="3" stroke-linecap="round" stroke-linejoin="round"/>
<path d="M31 53L69 21" stroke="#384147" stroke-width="3" stroke-linecap="round" stroke-linejoin="round"/>
<path d="M48.0968 32.4516H41.6452M41.6452 44.1452V44.1452C38.5274 44.1452 36 41.6177 36 38.5V38.2984V38.0968C36 34.979 38.5274 32.4516 41.6452 32.4516V32.4516M53.3387 34V30C53.3387 27.7909 51.5478 26 49.3387 26H47.6935H45.6452C43.436 26 41.6452 27.7909 41.6452 30V32.4516" stroke="#384147" stroke-width="3" stroke-linecap="round" stroke-linejoin="round"/>
<circle cx="45.2742" cy="29.629" r="0.806452"/>
<path d="M54 44V43C54 41.8954 54.8954 41 56 41H59V46H56C54.8954 46 54 45.1046 54 44Z" fill="white" stroke="#384147" stroke-width="3" stroke-linecap="round" stroke-linejoin="round"/>
<path d="M63 41L63 48.5" stroke="#384147" stroke-width="3" stroke-linecap="round" stroke-linejoin="round"/>
<path d="M63 36L63 37" stroke="#384147" stroke-width="3" stroke-linecap="round" stroke-linejoin="round"/>
<path d="M59 42V36" stroke="#384147" stroke-width="3" stroke-linecap="round" stroke-linejoin="round"/>
</svg>
