<svg width="100" height="100" viewBox="0 0 100 100" fill="none" xmlns="http://www.w3.org/2000/svg">
<rect width="100" height="100" fill="white"/>
<rect x="11" y="37" width="54" height="35" rx="2" fill="currentColor"/>
<rect x="17" y="43" width="54" height="35" stroke="#384147" stroke-width="3" stroke-linecap="round" stroke-linejoin="round"/>
<path d="M28 86H60" stroke="#384147" stroke-width="3" stroke-linecap="round" stroke-linejoin="round"/>
<path d="M24 50L31 50" stroke="#384147" stroke-width="3" stroke-linecap="round" stroke-linejoin="round"/>
<path d="M29 56H44" stroke="#384147" stroke-width="3" stroke-linecap="round" stroke-linejoin="round"/>
<path d="M29 68H39" stroke="#384147" stroke-width="3" stroke-linecap="round" stroke-linejoin="round"/>
<path d="M45 68H48" stroke="#384147" stroke-width="3" stroke-linecap="round" stroke-linejoin="round"/>
<path d="M34 62H37" stroke="#384147" stroke-width="3" stroke-linecap="round" stroke-linejoin="round"/>
<path d="M43 62H55" stroke="#384147" stroke-width="3" stroke-linecap="round" stroke-linejoin="round"/>
<path d="M49 56H52" stroke="#384147" stroke-width="3" stroke-linecap="round" stroke-linejoin="round"/>
<path d="M57 56H64" stroke="#384147" stroke-width="3" stroke-linecap="round" stroke-linejoin="round"/>
<path d="M37 50H39" stroke="#384147" stroke-width="3" stroke-linecap="round" stroke-linejoin="round"/>
<path d="M45 50H57" stroke="#384147" stroke-width="3" stroke-linecap="round" stroke-linejoin="round"/>
<path d="M44 86L44 78" stroke="#384147" stroke-width="3" stroke-linecap="round" stroke-linejoin="round"/>
<rect x="53" y="32" width="36" height="36" fill="white" stroke="#384147" stroke-width="3" stroke-linecap="round" stroke-linejoin="round"/>
<rect x="35" y="14" width="23" height="22" fill="white" stroke="#384147" stroke-width="3" stroke-linecap="round" stroke-linejoin="round"/>
<path d="M17 27H25" stroke="currentColor" stroke-width="3" stroke-linecap="round" stroke-linejoin="round"/>
<path d="M21 31L21 23" stroke="currentColor" stroke-width="3" stroke-linecap="round" stroke-linejoin="round"/>
<path d="M81 78H89" stroke="#384147" stroke-width="3" stroke-linecap="round" stroke-linejoin="round"/>
<path d="M85 82L85 74" stroke="#384147" stroke-width="3" stroke-linecap="round" stroke-linejoin="round"/>
<path d="M41.475 22.2828L39 24.9091L41.475 27.5354" stroke="#384147" stroke-width="3" stroke-linecap="round" stroke-linejoin="round"/>
<path d="M51.5249 22.2828L53.9999 24.9091L51.5249 27.5354" stroke="#384147" stroke-width="3" stroke-linecap="round" stroke-linejoin="round"/>
<path d="M48.1424 19L45.1724 30.8182" stroke="#384147" stroke-width="3" stroke-linecap="round" stroke-linejoin="round"/>
<path d="M71.9034 44.4516H65.4518M65.4518 44.4516V44.4516C62.3341 44.4516 59.8066 46.979 59.8066 50.0968V50.2984V50.5C59.8066 53.6177 62.3341 56.1452 65.4518 56.1452V56.1452V55.5C65.4518 52.7386 67.6904 50.5 70.4518 50.5H71.1453C74.4591 50.5 77.1453 47.8137 77.1453 44.5V42C77.1453 39.7909 75.3545 38 73.1454 38H71.5002H69.4518C67.2427 38 65.4518 39.7909 65.4518 42V44.4516Z" stroke="#384147" stroke-width="3" stroke-linecap="round" stroke-linejoin="round"/>
<path d="M71.0971 56.5484L77.5487 56.5484M77.5487 44.8548V44.8548C80.6664 44.8548 83.1938 47.3823 83.1938 50.5V50.7016V50.9032C83.1938 54.021 80.6664 56.5484 77.5487 56.5484V56.5484M65.4519 55.7419L65.4519 59C65.4519 61.2091 67.2428 63 69.4519 63L71.5003 63L73.5487 63C75.7578 63 77.5487 61.2091 77.5487 59L77.5487 56.5484" stroke="#384147" stroke-width="3" stroke-linecap="round" stroke-linejoin="round"/>
<circle cx="69.0809" cy="41.6291" r="0.806452"/>
<circle cx="73.9197" cy="59.371" r="0.806452"/>
</svg>
