<svg width="100" height="100" viewBox="0 0 100 100" xmlns="http://www.w3.org/2000/svg">
<path d="M44 38V29C44 28.4477 44.4477 28 45 28H59C59.5523 28 60 28.4477 60 29V64C60 64.5523 60.4477 65 61 65H64.8696C65.4218 65 65.8696 65.4477 65.8696 66V68.3043C65.8696 68.8566 65.4218 69.3043 64.8696 69.3043H45C44.4477 69.3043 44 68.8566 44 68.3043V66C44 65.4477 43.5523 65 43 65H31C30.4477 65 30 64.5523 30 64V40C30 39.4477 30.4477 39 31 39H43C43.5523 39 44 38.5523 44 38Z" fill="currentColor"/>
<path fill-rule="evenodd" clip-rule="evenodd" d="M52.4783 28.8697C53.0786 28.8697 53.5653 28.3831 53.5653 27.7828C53.5653 27.1824 53.0786 26.6958 52.4783 26.6958C51.878 26.6958 51.3914 27.1824 51.3914 27.7828C51.3914 28.3831 51.878 28.8697 52.4783 28.8697ZM42.5 32C42.5 31.1716 43.1716 30.5 44 30.5L60 30.5C60.8284 30.5 61.5 31.1716 61.5 32C61.5 32.8284 60.8284 33.5 60 33.5L44 33.5C43.1716 33.5 42.5 32.8284 42.5 32ZM42.5001 72.9941C42.5033 72.1657 43.1774 71.4967 44.0058 71.4999L70.1263 71.6002C70.9547 71.6034 71.6237 72.2776 71.6205 73.106C71.6173 73.9344 70.9431 74.6034 70.1147 74.6002L43.9943 74.4999C43.1659 74.4967 42.4969 73.8226 42.5001 72.9941Z"/>
<path fill-rule="evenodd" clip-rule="evenodd" d="M13.5 15C13.5 14.1716 14.1716 13.5 15 13.5H44C44.8284 13.5 45.5 14.1716 45.5 15V39C45.5 39.8284 44.8284 40.5 44 40.5H15C14.1716 40.5 13.5 39.8284 13.5 39V15ZM16.5 16.5V37.5H42.5V16.5H16.5Z"/>
<path fill-rule="evenodd" clip-rule="evenodd" d="M19.5 22C19.5 21.1716 20.1716 20.5 21 20.5L38 20.5C38.8284 20.5 39.5 21.1716 39.5 22C39.5 22.8284 38.8284 23.5 38 23.5L21 23.5C20.1716 23.5 19.5 22.8284 19.5 22Z"/>
<path fill-rule="evenodd" clip-rule="evenodd" d="M19.5 27C19.5 26.1716 20.1716 25.5 21 25.5L38 25.5C38.8284 25.5 39.5 26.1716 39.5 27C39.5 27.8284 38.8284 28.5 38 28.5L21 28.5C20.1716 28.5 19.5 27.8284 19.5 27Z"/>
<path fill-rule="evenodd" clip-rule="evenodd" d="M19.5 32C19.5 31.1716 20.1716 30.5 21 30.5L28 30.5C28.8284 30.5 29.5 31.1716 29.5 32C29.5 32.8284 28.8284 33.5 28 33.5L21 33.5C20.1716 33.5 19.5 32.8284 19.5 32Z"/>
<path d="M72.5 49C76.6421 49 80 45.6421 80 41.5C80 37.3579 76.6421 34 72.5 34C68.3579 34 65 37.3579 65 41.5C65 45.6421 68.3579 49 72.5 49Z" fill="currentColor"/>
<path fill-rule="evenodd" clip-rule="evenodd" d="M60 26.5C59.1716 26.5 58.5 27.1716 58.5 28V65C58.5 65.8284 59.1716 66.5 60 66.5H85C85.8284 66.5 86.5 65.8284 86.5 65V28C86.5 27.1716 85.8284 26.5 85 26.5H60ZM61.5 63.5V29.5H83.5V63.5H61.5ZM66.5 41.5C66.5 38.1863 69.1863 35.5 72.5 35.5C75.8137 35.5 78.5 38.1863 78.5 41.5C78.5 42.88 78.0341 44.1512 77.2511 45.1648C76.9035 44.5661 76.4382 44.0458 75.8877 43.6278C76.2756 43.0116 76.5 42.282 76.5 41.5C76.5 39.2909 74.7091 37.5 72.5 37.5C70.2909 37.5 68.5 39.2909 68.5 41.5C68.5 42.282 68.7244 43.0116 69.1123 43.6279C68.5619 44.0459 68.0965 44.5662 67.749 45.1649C66.9659 44.1512 66.5 42.88 66.5 41.5ZM70.1128 47.0063C70.8444 47.3239 71.6516 47.5 72.5 47.5C73.3484 47.5 74.1556 47.3239 74.8872 47.0063C74.8098 46.9206 74.7412 46.8245 74.6834 46.7187C74.4932 46.3702 74.1948 46.0628 73.8087 45.8422C73.422 45.6212 72.9687 45.5 72.5 45.5C72.0314 45.5 71.5781 45.6212 71.1913 45.8422C70.8052 46.0628 70.5069 46.3702 70.3166 46.7187C70.2589 46.8245 70.1902 46.9206 70.1128 47.0063ZM72.5 32.5C67.5294 32.5 63.5 36.5294 63.5 41.5C63.5 46.4706 67.5294 50.5 72.5 50.5C77.4706 50.5 81.5 46.4706 81.5 41.5C81.5 36.5294 77.4706 32.5 72.5 32.5ZM72.5 40.5C71.9477 40.5 71.5 40.9477 71.5 41.5C71.5 42.0523 71.9477 42.5 72.5 42.5C73.0523 42.5 73.5 42.0523 73.5 41.5C73.5 40.9477 73.0523 40.5 72.5 40.5ZM64.5 54C64.5 53.1716 65.1716 52.5 66 52.5L79 52.5C79.8284 52.5 80.5 53.1716 80.5 54C80.5 54.8284 79.8284 55.5 79 55.5L66 55.5C65.1716 55.5 64.5 54.8284 64.5 54ZM66 56.5C65.1716 56.5 64.5 57.1716 64.5 58C64.5 58.8284 65.1716 59.5 66 59.5H79C79.8284 59.5 80.5 58.8284 80.5 58C80.5 57.1716 79.8284 56.5 79 56.5L66 56.5Z"/>
<path fill-rule="evenodd" clip-rule="evenodd" d="M44 21.9348C43.1716 21.9348 42.5 22.6064 42.5 23.4348C42.5 24.2632 43.1716 24.9348 44 24.9348H65.6054C67.2705 24.9348 68.6204 26.2847 68.6204 27.9499C68.6204 28.7783 69.292 29.4499 70.1204 29.4499C70.9488 29.4499 71.6204 28.7783 71.6204 27.9499C71.6204 24.6278 68.9274 21.9348 65.6054 21.9348H44ZM35.5 39C35.5 38.1716 34.8284 37.5 34 37.5C33.1716 37.5 32.5 38.1716 32.5 39V63.5H19C18.1716 63.5 17.5 64.1716 17.5 65V89C17.5 89.8284 18.1716 90.5 19 90.5H44C44.8284 90.5 45.5 89.8284 45.5 89V83.6305H65.6054C68.9274 83.6305 71.6204 80.9374 71.6204 77.6154V65C71.6204 64.1716 70.9488 63.5 70.1204 63.5C69.292 63.5 68.6204 64.1716 68.6204 65V77.6154C68.6204 79.2806 67.2705 80.6305 65.6054 80.6305H45.5V65C45.5 64.1716 44.8284 63.5 44 63.5H35.5V39ZM42.5 82.1305V66.5H34H20.5V87.5H42.5V82.1305Z"/>
<path d="M36 77L28 72V82L36 77Z" fill="currentColor"/>
<path fill-rule="evenodd" clip-rule="evenodd" d="M27.2728 70.688C27.7498 70.4237 28.3326 70.439 28.795 70.728L36.795 75.728C37.2336 76.0021 37.5 76.4828 37.5 77C37.5 77.5172 37.2336 77.9979 36.795 78.272L28.795 83.272C28.3326 83.561 27.7498 83.5763 27.2728 83.312C26.7959 83.0476 26.5 82.5453 26.5 82V72C26.5 71.4547 26.7959 70.9524 27.2728 70.688ZM29.5 74.7064V79.2936L33.1698 77L29.5 74.7064Z"/>
<path fill-rule="evenodd" clip-rule="evenodd" d="M78.5 19C78.5 19.8284 79.1716 20.5 80 20.5C80.8284 20.5 81.5 19.8284 81.5 19L81.5 16.5H84C84.8284 16.5 85.5 15.8284 85.5 15C85.5 14.1716 84.8284 13.5 84 13.5H81.5L81.5 11C81.5 10.1716 80.8284 9.5 80 9.5C79.1716 9.5 78.5 10.1716 78.5 11L78.5 13.5H76C75.1716 13.5 74.5 14.1716 74.5 15C74.5 15.8284 75.1716 16.5 76 16.5H78.5L78.5 19Z"/>
<path fill-rule="evenodd" clip-rule="evenodd" d="M78.5 82C78.5 82.8284 79.1716 83.5 80 83.5C80.8284 83.5 81.5 82.8284 81.5 82L81.5 79.5H84C84.8284 79.5 85.5 78.8284 85.5 78C85.5 77.1716 84.8284 76.5 84 76.5H81.5L81.5 74C81.5 73.1716 80.8284 72.5 80 72.5C79.1716 72.5 78.5 73.1716 78.5 74L78.5 76.5H76C75.1716 76.5 74.5 77.1716 74.5 78C74.5 78.8284 75.1716 79.5 76 79.5H78.5L78.5 82Z" fill="currentColor"/>
</svg>
