<svg width="100" height="100" viewBox="0 0 100 100" xmlns="http://www.w3.org/2000/svg">
<path d="M86.9999 72.3043V33C86.9999 32.4477 86.5522 32 85.9999 32H57C56.4477 32 56 32.4477 56 33V65C56 65.5523 55.5523 66 55 66H52.1304C51.5781 66 51.1304 66.4477 51.1304 67V72.3043C51.1304 72.8566 51.5781 73.3043 52.1304 73.3043H85.9999C86.5522 73.3043 86.9999 72.8566 86.9999 72.3043Z" fill="currentColor"/>
<path fill-rule="evenodd" clip-rule="evenodd" d="M54 28.4348C54 27.6064 54.6716 26.9348 55.5 26.9348H77.3009C80.6229 26.9348 83.316 29.6278 83.316 32.9499V82.6154C83.316 85.9374 80.6229 88.6305 77.3009 88.6305H50.2106C46.8886 88.6305 44.1956 85.9374 44.1956 82.6154V66.5C44.1956 65.6716 44.8671 65 45.6956 65C46.524 65 47.1956 65.6716 47.1956 66.5V82.6154C47.1956 84.2806 48.5454 85.6305 50.2106 85.6305H77.3009C78.9661 85.6305 80.316 84.2806 80.316 82.6154V32.9499C80.316 31.2847 78.9661 29.9348 77.3009 29.9348H55.5C54.6716 29.9348 54 29.2632 54 28.4348Z"/>
<path fill-rule="evenodd" clip-rule="evenodd" d="M54 37.4648C54 36.6364 54.6716 35.9648 55.5 35.9648H81.816C82.6444 35.9648 83.316 36.6364 83.316 37.4648C83.316 38.2933 82.6444 38.9648 81.816 38.9648H55.5C54.6716 38.9648 54 38.2933 54 37.4648Z"/>
<path fill-rule="evenodd" clip-rule="evenodd" d="M49.6304 66.4783C49.6304 65.6498 50.3019 64.9783 51.1304 64.9783H76.1304C76.9588 64.9783 77.6304 65.6498 77.6304 66.4783C77.6304 67.3067 76.9588 67.9783 76.1304 67.9783H51.1304C50.3019 67.9783 49.6304 67.3067 49.6304 66.4783Z"/>
<path fill-rule="evenodd" clip-rule="evenodd" d="M49.6304 71.9131C49.6304 71.0847 50.3019 70.4131 51.1304 70.4131H76.1304C76.9588 70.4131 77.6304 71.0847 77.6304 71.9131C77.6304 72.7415 76.9588 73.4131 76.1304 73.4131H51.1304C50.3019 73.4131 49.6304 72.7415 49.6304 71.9131Z"/>
<path fill-rule="evenodd" clip-rule="evenodd" d="M44.1956 78.1003C44.1956 77.2719 44.8671 76.6003 45.6956 76.6003H81.816C82.6444 76.6003 83.316 77.2719 83.316 78.1003C83.316 78.9288 82.6444 79.6003 81.816 79.6003H45.6956C44.8671 79.6003 44.1956 78.9288 44.1956 78.1003Z"/>
<path fill-rule="evenodd" clip-rule="evenodd" d="M54.5002 43.6523C54.5002 42.8239 55.1718 42.1523 56.0002 42.1523H76.1306C76.959 42.1523 77.6306 42.8239 77.6306 43.6523V59.9567C77.6306 60.7851 76.959 61.4567 76.1306 61.4567H56.0002C55.1718 61.4567 54.5002 60.7851 54.5002 59.9567C54.5002 59.1283 55.1718 58.4567 56.0002 58.4567H74.6306V45.1523H56.0002C55.1718 45.1523 54.5002 44.4808 54.5002 43.6523Z"/>
<path fill-rule="evenodd" clip-rule="evenodd" d="M54.7674 45.1455C55.2394 44.4647 56.174 44.2954 56.8548 44.7674L76.9851 58.7239C77.6659 59.1959 77.8352 60.1304 77.3632 60.8112C76.8912 61.492 75.9566 61.6613 75.2758 61.1893L55.1455 47.2328C54.4647 46.7608 54.2954 45.8263 54.7674 45.1455Z"/>
<path fill-rule="evenodd" clip-rule="evenodd" d="M77.3709 42.8088C76.9051 42.1238 75.9721 41.946 75.287 42.4118L55.6567 55.7597C54.9716 56.2255 54.7939 57.1585 55.2597 57.8436C55.7255 58.5286 56.6585 58.7064 57.3435 58.2406L76.9739 44.8927C77.659 44.4268 77.8367 43.4939 77.3709 42.8088Z"/>
<path d="M65.2608 32.7828C65.2608 33.3831 64.7742 33.8697 64.1739 33.8697C63.5736 33.8697 63.0869 33.3831 63.0869 32.7828C63.0869 32.1824 63.5736 31.6958 64.1739 31.6958C64.7742 31.6958 65.2608 32.1824 65.2608 32.7828Z"/>
<path fill-rule="evenodd" clip-rule="evenodd" d="M10.5 23C10.5 22.1716 11.1716 21.5 12 21.5H55.4783C56.3067 21.5 56.9783 22.1716 56.9783 23V66.4783C56.9783 67.3067 56.3067 67.9783 55.4783 67.9783H12C11.1716 67.9783 10.5 67.3067 10.5 66.4783V23ZM13.5 24.5V64.9783H53.9783V24.5H13.5Z"/>
<path d="M25.1606 50.2422H18.8379C18.6633 50.2422 18.5217 50.3837 18.5217 50.5583V56.8811C18.5217 57.0557 18.6633 57.1972 18.8379 57.1972H25.1606C25.3352 57.1972 25.4767 57.0557 25.4767 56.8811V50.5583C25.4767 50.3837 25.3352 50.2422 25.1606 50.2422Z" fill="currentColor"/>
<path d="M36.7521 50.2422H30.4294C30.2548 50.2422 30.1133 50.3837 30.1133 50.5583V56.8811C30.1133 57.0557 30.2548 57.1972 30.4294 57.1972H36.7521C36.9267 57.1972 37.0683 57.0557 37.0683 56.8811V50.5583C37.0683 50.3837 36.9267 50.2422 36.7521 50.2422Z" fill="currentColor"/>
<path d="M48.3439 50.2422H42.0212C41.8466 50.2422 41.7051 50.3837 41.7051 50.5583V56.8811C41.7051 57.0557 41.8466 57.1972 42.0212 57.1972H48.3439C48.5185 57.1972 48.6601 57.0557 48.6601 56.8811V50.5583C48.6601 50.3837 48.5185 50.2422 48.3439 50.2422Z" fill="currentColor"/>
<path fill-rule="evenodd" clip-rule="evenodd" d="M24.6584 33.1956V38.8893H42.5235V33.1956H24.6584ZM22.8593 30.4267C23.2545 30.262 23.6964 30.1956 24.1069 30.1956H43.075C43.4855 30.1956 43.9274 30.262 44.3226 30.4267C44.5169 30.5076 44.7721 30.6422 45.0016 30.8683C45.2364 31.0996 45.5235 31.5136 45.5235 32.0907V39.9941C45.5235 40.5712 45.2364 40.9852 45.0016 41.2165C44.7721 41.4426 44.5169 41.5772 44.3226 41.6582C43.9274 41.8228 43.4855 41.8893 43.075 41.8893H35.0908V43.5259H42.8643C44.9731 43.5259 46.6826 45.2354 46.6826 47.3442V48.7422H48.3439C49.347 48.7422 50.1601 49.5553 50.1601 50.5583V56.8811C50.1601 57.8841 49.347 58.6972 48.3439 58.6972H42.0212C41.0182 58.6972 40.2051 57.8841 40.2051 56.8811V50.5583C40.2051 49.5553 41.0182 48.7422 42.0212 48.7422H43.6826V47.3442C43.6826 46.8923 43.3162 46.5259 42.8643 46.5259H35.0908V48.7422H36.7521C37.7552 48.7422 38.5683 49.5553 38.5683 50.5583V56.8811C38.5683 57.8841 37.7552 58.6972 36.7521 58.6972H30.4294C29.4264 58.6972 28.6133 57.8841 28.6133 56.8811V50.5583C28.6133 49.5553 29.4264 48.7422 30.4294 48.7422H32.0908V46.5259H24.9993C24.1708 46.5259 23.4993 47.1975 23.4993 48.0259V48.7422H25.1606C26.1636 48.7422 26.9767 49.5553 26.9767 50.5583V56.8811C26.9767 57.8841 26.1636 58.6972 25.1606 58.6972H18.8379C17.8348 58.6972 17.0217 57.8841 17.0217 56.8811V50.5583C17.0217 49.5553 17.8348 48.7422 18.8379 48.7422H20.4993V48.0259C20.4993 45.5406 22.514 43.5259 24.9993 43.5259H32.0908V41.8893H24.1069C23.6964 41.8893 23.2545 41.8228 22.8593 41.6582C22.665 41.5772 22.4098 41.4426 22.1803 41.2165C21.9455 40.9852 21.6584 40.5712 21.6584 39.9941V32.0907C21.6584 31.5136 21.9455 31.0996 22.1803 30.8683C22.4098 30.6422 22.665 30.5076 22.8593 30.4267ZM20.0217 51.7422V55.6972H23.9767V51.7422H20.0217ZM31.6133 55.6972V51.7422H35.5683V55.6972H31.6133ZM43.2051 51.7422V55.6972H47.1601V51.7422H43.2051ZM28.0849 37.4914C28.8852 37.4914 29.5339 36.8427 29.5339 36.0425C29.5339 35.2422 28.8852 34.5935 28.0849 34.5935C27.2847 34.5935 26.636 35.2422 26.636 36.0425C26.636 36.8427 27.2847 37.4914 28.0849 37.4914Z"/>
<path fill-rule="evenodd" clip-rule="evenodd" d="M23.5 78C23.5 77.1716 24.1716 76.5 25 76.5H33C33.8284 76.5 34.5 77.1716 34.5 78C34.5 78.8284 33.8284 79.5 33 79.5H25C24.1716 79.5 23.5 78.8284 23.5 78Z"/>
<path fill-rule="evenodd" clip-rule="evenodd" d="M29 83.5C28.1716 83.5 27.5 82.8284 27.5 82L27.5 74C27.5 73.1716 28.1716 72.5 29 72.5C29.8284 72.5 30.5 73.1716 30.5 74L30.5 82C30.5 82.8284 29.8284 83.5 29 83.5Z"/>
<path d="M64 17H72" stroke="currentColor" stroke-width="3" stroke-linecap="round" stroke-linejoin="round"/>
<path d="M68 21L68 13" stroke="currentColor" stroke-width="3" stroke-linecap="round" stroke-linejoin="round"/>
</svg>
