<svg width="100" height="100" viewBox="0 0 100 100" fill="none" xmlns="http://www.w3.org/2000/svg">
<rect width="100" height="100" fill="white"/>
<path d="M84 21H92" stroke="#384147" stroke-width="3" stroke-linecap="round" stroke-linejoin="round"/>
<path d="M88 25L88 17" stroke="#384147" stroke-width="3" stroke-linecap="round" stroke-linejoin="round"/>
<path d="M9 76H17" stroke="#FFA688" stroke-width="3" stroke-linecap="round" stroke-linejoin="round"/>
<path d="M13 80L13 72" stroke="#FFA688" stroke-width="3" stroke-linecap="round" stroke-linejoin="round"/>
<rect x="28" y="26" width="55.4505" height="35.9402" rx="1" fill="#FFA688"/>
<path d="M61 37.0002L72 37.0002" stroke="#384147" stroke-width="3" stroke-linecap="round" stroke-linejoin="round"/>
<path d="M38 62.0002L27 62.0002" stroke="#384147" stroke-width="3" stroke-linecap="round" stroke-linejoin="round"/>
<path d="M61 42.0002L72 42.0002" stroke="#384147" stroke-width="3" stroke-linecap="round" stroke-linejoin="round"/>
<path d="M38 57.0002L27 57.0002" stroke="#384147" stroke-width="3" stroke-linecap="round" stroke-linejoin="round"/>
<path d="M61 47.0002L72 47.0002" stroke="#384147" stroke-width="3" stroke-linecap="round" stroke-linejoin="round"/>
<path d="M38 52.0002L27 52.0002" stroke="#384147" stroke-width="3" stroke-linecap="round" stroke-linejoin="round"/>
<rect x="27" y="37.0002" width="12" height="10" stroke="#384147" stroke-width="3" stroke-linecap="round" stroke-linejoin="round"/>
<rect x="71" y="62.0002" width="11" height="10" transform="rotate(-180 71 62.0002)" stroke="#384147" stroke-width="3" stroke-linecap="round" stroke-linejoin="round"/>
<rect x="44" y="37.0002" width="11" height="10" stroke="#384147" stroke-width="3" stroke-linecap="round" stroke-linejoin="round"/>
<rect x="55" y="62.0002" width="11" height="10" transform="rotate(-180 55 62.0002)" stroke="#384147" stroke-width="3" stroke-linecap="round" stroke-linejoin="round"/>
<rect x="22.2305" y="31.7173" width="55.4505" height="35.9402" stroke="#384147" stroke-width="3" stroke-linecap="round" stroke-linejoin="round"/>
<path d="M36.8623 76.5264H62.4675" stroke="#384147" stroke-width="3" stroke-linecap="round" stroke-linejoin="round"/>
<path d="M49.9561 75.8723L49.9561 67.6574" stroke="#384147" stroke-width="3" stroke-linecap="round" stroke-linejoin="round"/>
<path d="M88.4919 50.6331H73.9442C72.6051 50.6331 71.5195 51.7186 71.5195 53.0577V79.7286C71.5195 81.0677 72.6051 82.1532 73.9442 82.1532H88.4919C89.831 82.1532 90.9166 81.0677 90.9166 79.7286V53.0577C90.9166 51.7186 89.831 50.6331 88.4919 50.6331Z" fill="white" stroke="#384147" stroke-width="3" stroke-linecap="round" stroke-linejoin="round"/>
<path d="M71.5195 55.4824H90.9166" stroke="#384147" stroke-width="3" stroke-linecap="round" stroke-linejoin="round"/>
<path d="M71.5195 77.304H90.9166" stroke="#384147" stroke-width="3" stroke-linecap="round" stroke-linejoin="round"/>
<path d="M81.2529 68.2552C83.6626 68.2552 85.6161 66.3018 85.6161 63.892C85.6161 61.4823 83.6626 59.5288 81.2529 59.5288C78.8431 59.5288 76.8896 61.4823 76.8896 63.892C76.8896 66.3018 78.8431 68.2552 81.2529 68.2552Z" fill="#FFA688" stroke="#384147" stroke-width="3" stroke-miterlimit="10"/>
<path d="M77.2256 72.6604L85.2807 72.6604" stroke="#384147" stroke-width="3" stroke-linecap="round" stroke-linejoin="round"/>
<rect x="9" y="17" width="39.3223" height="24.6908" rx="1" fill="white" stroke="#384147" stroke-width="3" stroke-linecap="round" stroke-linejoin="round"/>
<circle cx="13.6517" cy="20.994" r="0.993992" fill="#384147"/>
<circle cx="17.3094" cy="20.994" r="0.993992" fill="#384147"/>
<circle cx="20.9676" cy="20.994" r="0.993992" fill="#384147"/>
<path d="M9 24.5723L48.3223 24.5723" stroke="#384147" stroke-width="3" stroke-linecap="round" stroke-linejoin="round"/>
</svg>
