<svg width="100" height="100" viewBox="0 0 100 100" xmlns="http://www.w3.org/2000/svg">
<path fill-rule="evenodd" clip-rule="evenodd" d="M86.5 25C86.5 25.8284 87.1716 26.5 88 26.5C88.8284 26.5 89.5 25.8284 89.5 25L89.5 22.5H92C92.8284 22.5 93.5 21.8284 93.5 21C93.5 20.1716 92.8284 19.5 92 19.5H89.5L89.5 17C89.5 16.1716 88.8284 15.5 88 15.5C87.1716 15.5 86.5 16.1716 86.5 17L86.5 19.5H84C83.1716 19.5 82.5 20.1716 82.5 21C82.5 21.8284 83.1716 22.5 84 22.5H86.5L86.5 25Z"/>
<path fill-rule="evenodd" clip-rule="evenodd" d="M11.5 80C11.5 80.8284 12.1716 81.5 13 81.5C13.8284 81.5 14.5 80.8284 14.5 80L14.5 77.5H17C17.8284 77.5 18.5 76.8284 18.5 76C18.5 75.1716 17.8284 74.5 17 74.5H14.5L14.5 72C14.5 71.1716 13.8284 70.5 13 70.5C12.1716 70.5 11.5 71.1716 11.5 72L11.5 74.5H9C8.17157 74.5 7.5 75.1716 7.5 76C7.5 76.8284 8.17157 77.5 9 77.5H11.5L11.5 80Z" fill="currentColor"/>
<path d="M82.4505 26H49.5C48.9477 26 48.5 26.4477 48.5 27V40.5C48.5 41.0523 48.0523 41.5 47.5 41.5H29C28.4477 41.5 28 41.9477 28 42.5V60.9402C28 61.4924 28.4477 61.9402 29 61.9402H70.5C71.0523 61.9402 71.5 61.4924 71.5 60.9402V52C71.5 51.4477 71.9477 51 72.5 51H82.4505C83.0028 51 83.4505 50.5523 83.4505 50V27C83.4505 26.4477 83.0028 26 82.4505 26Z" fill="currentColor"/>
<path fill-rule="evenodd" clip-rule="evenodd" d="M48.5 30.2173C47.6716 30.2173 47 30.8889 47 31.7173C47 32.5457 47.6716 33.2173 48.5 33.2173H76.1808V50.5C76.1808 51.3284 76.8523 52 77.6808 52C78.5092 52 79.1808 51.3284 79.1808 50.5V31.7173C79.1808 30.8889 78.5092 30.2173 77.6808 30.2173H48.5ZM23.7302 42C23.7302 41.1716 23.0587 40.5 22.2302 40.5C21.4018 40.5 20.7302 41.1716 20.7302 42V67.6574C20.7302 68.4859 21.4018 69.1574 22.2302 69.1574H48.4556V75.0264H36.8618C36.0334 75.0264 35.3618 75.6979 35.3618 76.5264C35.3618 77.3548 36.0334 78.0264 36.8618 78.0264H62.4671C63.2955 78.0264 63.9671 77.3548 63.9671 76.5264C63.9671 75.6979 63.2955 75.0264 62.4671 75.0264H51.4556V69.1574H71C71.8284 69.1574 72.5 68.4859 72.5 67.6574C72.5 66.829 71.8284 66.1574 71 66.1574H49.9632C49.9607 66.1574 49.9581 66.1574 49.9556 66.1574C49.953 66.1574 49.9505 66.1574 49.9479 66.1574H23.7302V42ZM59.5 37.0002C59.5 36.1718 60.1716 35.5002 61 35.5002L72 35.5002C72.8284 35.5002 73.5 36.1718 73.5 37.0002C73.5 37.8287 72.8284 38.5002 72 38.5002L61 38.5002C60.1716 38.5002 59.5 37.8287 59.5 37.0002ZM39.5 62.0002C39.5 62.8287 38.8284 63.5002 38 63.5002L27 63.5002C26.1716 63.5002 25.5 62.8287 25.5 62.0002C25.5 61.1718 26.1716 60.5002 27 60.5002L38 60.5002C38.8284 60.5002 39.5 61.1718 39.5 62.0002ZM61 40.5002C60.1716 40.5002 59.5 41.1718 59.5 42.0002C59.5 42.8287 60.1716 43.5002 61 43.5002L72 43.5002C72.8284 43.5002 73.5 42.8287 73.5 42.0002C73.5 41.1718 72.8284 40.5002 72 40.5002L61 40.5002ZM39.5 57.0002C39.5 57.8287 38.8284 58.5002 38 58.5002L27 58.5002C26.1716 58.5002 25.5 57.8287 25.5 57.0002C25.5 56.1718 26.1716 55.5002 27 55.5002L38 55.5002C38.8284 55.5002 39.5 56.1718 39.5 57.0002ZM61 45.5002C60.1716 45.5002 59.5 46.1718 59.5 47.0002C59.5 47.8287 60.1716 48.5002 61 48.5002L72 48.5002C72.8284 48.5002 73.5 47.8287 73.5 47.0002C73.5 46.1718 72.8284 45.5002 72 45.5002L61 45.5002ZM39.5 52.0002C39.5 52.8287 38.8284 53.5002 38 53.5002L27 53.5002C26.1716 53.5002 25.5 52.8287 25.5 52.0002C25.5 51.1718 26.1716 50.5002 27 50.5002L38 50.5002C38.8284 50.5002 39.5 51.1718 39.5 52.0002ZM28.5 42C28.5 41.1716 27.8284 40.5 27 40.5C26.1716 40.5 25.5 41.1716 25.5 42V47.0002C25.5 47.8287 26.1716 48.5002 27 48.5002H39C39.8284 48.5002 40.5 47.8287 40.5 47.0002V42C40.5 41.1716 39.8284 40.5 39 40.5C38.1716 40.5 37.5 41.1716 37.5 42V45.5002H28.5V42ZM72.5 62.0002C72.5 62.8287 71.8284 63.5002 71 63.5002H60C59.1716 63.5002 58.5 62.8287 58.5 62.0002V52.0002C58.5 51.1718 59.1716 50.5002 60 50.5002L71 50.5002C71.8284 50.5002 72.5 51.1718 72.5 52.0002V62.0002ZM69.5 53.5002L61.5 53.5002V60.5002L69.5 60.5002V53.5002ZM48.5 35.5002C47.6716 35.5002 47 36.1718 47 37.0002C47 37.8287 47.6716 38.5002 48.5 38.5002H53.5V45.5002H45.5V42C45.5 41.1716 44.8284 40.5 44 40.5C43.1716 40.5 42.5 41.1716 42.5 42V47.0002C42.5 47.8287 43.1716 48.5002 44 48.5002H55C55.8284 48.5002 56.5 47.8287 56.5 47.0002V37.0002C56.5 36.1718 55.8284 35.5002 55 35.5002H48.5ZM56.5 62.0002C56.5 62.8287 55.8284 63.5002 55 63.5002H44C43.1716 63.5002 42.5 62.8287 42.5 62.0002L42.5 52.0002C42.5 51.1718 43.1716 50.5002 44 50.5002L55 50.5002C55.8284 50.5002 56.5 51.1718 56.5 52.0002V62.0002ZM53.5 53.5002L45.5 53.5002V60.5002L53.5 60.5002V53.5002Z"/>
<path d="M81.2529 68.2552C83.6626 68.2552 85.6161 66.3018 85.6161 63.892C85.6161 61.4823 83.6626 59.5288 81.2529 59.5288C78.8431 59.5288 76.8896 61.4823 76.8896 63.892C76.8896 66.3018 78.8431 68.2552 81.2529 68.2552Z" fill="currentColor"/>
<path fill-rule="evenodd" clip-rule="evenodd" d="M73.9442 52.1331C73.4335 52.1331 73.0195 52.547 73.0195 53.0577V53.9824H89.4166V53.0577C89.4166 52.547 89.0026 52.1331 88.4919 52.1331H73.9442ZM70.0195 53.0577V55.4824V77.304V79.7286C70.0195 81.8961 71.7766 83.6532 73.9442 83.6532H88.4919C90.6595 83.6532 92.4166 81.8961 92.4166 79.7286V77.304V55.4824V53.0577C92.4166 50.8902 90.6595 49.1331 88.4919 49.1331H73.9442C71.7766 49.1331 70.0195 50.8902 70.0195 53.0577ZM89.4166 75.804V56.9824H73.0195V75.804H89.4166ZM73.0195 78.804H89.4166V79.7286C89.4166 80.2393 89.0026 80.6532 88.4919 80.6532H73.9442C73.4335 80.6532 73.0195 80.2393 73.0195 79.7286V78.804ZM81.2529 61.0288C79.6716 61.0288 78.3896 62.3107 78.3896 63.892C78.3896 65.4733 79.6716 66.7552 81.2529 66.7552C82.8342 66.7552 84.1161 65.4733 84.1161 63.892C84.1161 62.3107 82.8342 61.0288 81.2529 61.0288ZM75.3896 63.892C75.3896 60.6539 78.0147 58.0288 81.2529 58.0288C84.491 58.0288 87.1161 60.6539 87.1161 63.892C87.1161 67.1302 84.491 69.7552 81.2529 69.7552C78.0147 69.7552 75.3896 67.1302 75.3896 63.892ZM77.2253 71.1604C76.3969 71.1604 75.7253 71.832 75.7253 72.6604C75.7253 73.4888 76.3969 74.1604 77.2253 74.1604H85.2805C86.1089 74.1604 86.7805 73.4888 86.7805 72.6604C86.7805 71.832 86.1089 71.1604 85.2805 71.1604H77.2253Z"/>
<path fill-rule="evenodd" clip-rule="evenodd" d="M7.5 18C7.5 16.6193 8.61929 15.5 10 15.5H47.3223C48.7031 15.5 49.8223 16.6193 49.8223 18V24.5723V40.6908C49.8223 42.0715 48.703 43.1908 47.3223 43.1908H10C8.61928 43.1908 7.5 42.0715 7.5 40.6908V24.5723V18ZM10.5 26.0723V40.1908H46.8223V26.0723H10.5ZM46.8223 23.0723H10.5V18.5H46.8223V23.0723ZM14.6459 20.994C14.6459 21.543 14.2009 21.988 13.652 21.988C13.103 21.988 12.658 21.543 12.658 20.994C12.658 20.445 13.103 20 13.652 20C14.2009 20 14.6459 20.445 14.6459 20.994ZM17.3099 21.988C17.8589 21.988 18.3039 21.543 18.3039 20.994C18.3039 20.445 17.8589 20 17.3099 20C16.7609 20 16.3159 20.445 16.3159 20.994C16.3159 21.543 16.7609 21.988 17.3099 21.988ZM21.9616 20.994C21.9616 21.543 21.5166 21.988 20.9676 21.988C20.4187 21.988 19.9736 21.543 19.9736 20.994C19.9736 20.445 20.4187 20 20.9676 20C21.5166 20 21.9616 20.445 21.9616 20.994Z"/>
</svg>
