<svg width="64" height="64" viewBox="0 0 64 64" fill="none" xmlns="http://www.w3.org/2000/svg">
<path fill-rule="evenodd" clip-rule="evenodd" d="M49.4079 51.3126C54.6838 46.554 58 39.6643 58 32C58 17.6406 46.3594 6 32 6C17.6406 6 6 17.6406 6 32C6 39.6588 9.31151 46.5442 14.5808 51.3024C14.6002 51.3206 14.62 51.3384 14.6403 51.3559C19.2433 55.487 25.3282 58 32 58C38.6772 58 44.7664 55.483 49.3708 51.346C49.3833 51.335 49.3957 51.3239 49.4079 51.3126ZM32 10C19.8497 10 10 19.8497 10 32C10 37.6088 12.0989 42.7274 15.5542 46.6132C17.1295 44.3393 19.1653 42.4085 21.5401 40.952C22.511 40.3566 23.5268 39.8476 24.5759 39.4284C21.789 37.231 20 33.8244 20 30C20 23.3726 25.3726 18 32 18C38.6274 18 44 23.3726 44 30C44 33.8244 42.2109 37.231 39.424 39.4285C40.473 39.8476 41.4888 40.3566 42.4596 40.9519C44.8345 42.4084 46.8703 44.3394 48.4457 46.6133C51.901 42.7276 54 37.6089 54 32C54 19.8497 44.1503 10 32 10ZM45.4855 49.3835C44.1851 47.35 42.4376 45.6308 40.3684 44.3618C37.8502 42.8174 34.9538 42 31.9999 42C29.0459 42 26.1495 42.8174 23.6313 44.3618C21.5622 45.6308 19.8147 47.3499 18.5144 49.3834C22.239 52.277 26.9183 54 32 54C37.0817 54 41.7609 52.2771 45.4855 49.3835ZM32 38C36.4183 38 40 34.4183 40 30C40 25.5817 36.4183 22 32 22C27.5817 22 24 25.5817 24 30C24 34.4183 27.5817 38 32 38Z" fill="#172126"/>
</svg>
