<svg width="64" height="64" viewBox="0 0 64 64" fill="none" xmlns="http://www.w3.org/2000/svg">
<path d="M43.6 29.8094C43.6 31.0244 42.615 32.0094 41.4 32.0094C40.185 32.0094 39.2 31.0244 39.2 29.8094C39.2 28.5944 40.185 27.6094 41.4 27.6094C42.615 27.6094 43.6 28.5944 43.6 29.8094Z" fill="#172126"/>
<path d="M20.4 29.8094C20.4 31.0244 21.385 32.0094 22.6 32.0094C23.815 32.0094 24.8 31.0244 24.8 29.8094C24.8 28.5944 23.815 27.6094 22.6 27.6094C21.385 27.6094 20.4 28.5944 20.4 29.8094Z" fill="#172126"/>
<path d="M25.9141 33.1973C26.1153 33.0004 26.3881 32.8898 26.6726 32.8898H37.3274C37.9198 32.8898 38.4 33.3598 38.4 33.9395C38.3361 37.3543 35.4895 40.0898 32 40.0898C28.5105 40.0898 25.6639 37.3543 25.6 33.9395C25.6 33.6611 25.713 33.3941 25.9141 33.1973Z" fill="#172126"/>
<path fill-rule="evenodd" clip-rule="evenodd" d="M8 9.92C8 8.85961 8.85961 8 9.92 8H54.08C55.1404 8 56 8.85961 56 9.92V54.08C56 55.1404 55.1404 56 54.08 56H9.92C8.85961 56 8 55.1404 8 54.08V9.92ZM32 49.6898C41.7202 49.6898 49.6 41.81 49.6 32.0898C49.6 22.3696 41.7202 14.4898 32 14.4898C22.2798 14.4898 14.4 22.3696 14.4 32.0898C14.4 41.81 22.2798 49.6898 32 49.6898Z" fill="#172126"/>
</svg>
