<svg width="64" height="64" viewBox="0 0 64 64" fill="none" xmlns="http://www.w3.org/2000/svg">
<path fill-rule="evenodd" clip-rule="evenodd" d="M9.68831 29.1785C8.59336 27.6148 9.09224 25.3763 10.8026 24.1787L15.4479 20.926C17.1582 19.7284 19.4324 20.0252 20.5273 21.589L36.388 44.2403C37.4829 45.8041 36.984 48.0426 35.2737 49.2402L30.6284 52.4928C28.918 53.6904 26.6439 53.3936 25.5489 51.8299L9.68831 29.1785ZM17.4305 23.7574L12.7852 27.0101L28.6458 49.6614L33.2911 46.4088L17.4305 23.7574Z" fill="#172126"/>
<path fill-rule="evenodd" clip-rule="evenodd" d="M29.8179 15.0836C28.723 13.5199 29.2218 11.2814 30.9322 10.0838L35.5775 6.8311C37.2878 5.6335 39.562 5.93032 40.6569 7.49407L56.5176 30.1454C57.6125 31.7092 57.1136 33.9477 55.4033 35.1453L50.758 38.3979C49.0476 39.5955 46.7735 39.2987 45.6785 37.735L29.8179 15.0836ZM37.5601 9.66251L32.9148 12.9152L48.7754 35.5665L53.4207 32.3139L37.5601 9.66251Z" fill="#172126"/>
<path fill-rule="evenodd" clip-rule="evenodd" d="M39.5426 12.4939C38.9952 11.7121 39.2446 10.5928 40.0998 9.994L44.7451 6.74133C45.5664 6.16622 46.563 5.91298 47.5156 6.03731C48.4682 6.16164 49.2987 6.65336 49.8245 7.4043L59.7374 21.5614C60.2632 22.3123 60.4412 23.261 60.2323 24.1986C60.0233 25.1363 59.4445 25.9861 58.6231 26.5612L53.9778 29.8139C53.1227 30.4127 51.9856 30.2643 51.4381 29.4824C50.8906 28.7006 51.1401 27.5813 51.9953 26.9825L56.6406 23.7298L46.7277 9.57275L42.0824 12.8254C41.2272 13.4242 40.0901 13.2758 39.5426 12.4939Z" fill="#172126"/>
<path fill-rule="evenodd" clip-rule="evenodd" d="M5.9736 35.1253C6.18257 34.1877 6.76139 33.3378 7.58273 32.7627L12.228 29.51C13.0832 28.9112 14.2203 29.0596 14.7677 29.8415C15.3152 30.6234 15.0658 31.7426 14.2106 32.3414L9.56531 35.5941L19.4782 49.7512L24.1235 46.4985C24.9787 45.8997 26.1157 46.0481 26.6632 46.83C27.2107 47.6119 26.9613 48.7311 26.1061 49.3299L21.4608 52.5826C20.6395 53.1577 19.6429 53.411 18.6903 53.2866C17.7377 53.1623 16.9072 52.6706 16.3813 51.9196L6.46845 37.7626C5.94264 37.0116 5.76464 36.063 5.9736 35.1253Z" fill="#172126"/>
<path fill-rule="evenodd" clip-rule="evenodd" d="M25.3608 35.0831C24.8133 34.3012 25.0627 33.182 25.9179 32.5832L38.3054 23.9094C39.1605 23.3106 40.2976 23.459 40.8451 24.2409C41.3926 25.0227 41.1431 26.142 40.2879 26.7408L27.9005 35.4146C27.0453 36.0134 25.9083 35.865 25.3608 35.0831Z" fill="#172126"/>
<path fill-rule="evenodd" clip-rule="evenodd" d="M51.6841 16.6513C51.1366 15.8694 51.3861 14.7502 52.2413 14.1514L55.3381 11.9829C56.1933 11.3841 57.3304 11.5325 57.8778 12.3144C58.4253 13.0963 58.1759 14.2155 57.3207 14.8143L54.2238 16.9828C53.3687 17.5816 52.2316 17.4332 51.6841 16.6513Z" fill="#172126"/>
<path fill-rule="evenodd" clip-rule="evenodd" d="M8.32804 47.0095C7.78056 46.2277 8.03 45.1084 8.88518 44.5096L11.982 42.3412C12.8372 41.7424 13.9743 41.8908 14.5218 42.6726C15.0692 43.4545 14.8198 44.5738 13.9646 45.1726L10.8678 47.341C10.0126 47.9398 8.87551 47.7914 8.32804 47.0095Z" fill="#172126"/>
</svg>
