<svg width="64" height="64" viewBox="0 0 64 64" fill="none" xmlns="http://www.w3.org/2000/svg">
<path fill-rule="evenodd" clip-rule="evenodd" d="M22.9999 13C15.268 13 8.99994 19.268 8.99994 27C8.99994 31.7074 11.3232 35.8721 14.8857 38.4101C13.9836 38.755 13.1017 39.1617 12.2458 39.6286C9.08422 41.3531 6.37427 43.8456 4.33798 46.8874C3.72353 47.8053 3.96951 49.0475 4.8874 49.662C5.80529 50.2764 7.0475 50.0305 7.66195 49.1126C9.34783 46.5942 11.5793 44.5485 14.1612 43.1401C16.7425 41.7321 19.6021 41.0001 22.4997 41C25.3973 40.9999 28.257 41.7317 30.8384 43.1395C33.4204 44.5476 35.652 46.5931 37.3381 49.1114C37.9526 50.0292 39.1948 50.2751 40.1127 49.6606C41.0305 49.0461 41.2764 47.8038 40.6619 46.886C38.6254 43.8443 35.9152 41.352 32.7536 39.6278C32.099 39.2708 31.4292 38.949 30.7468 38.6631C34.5161 36.1545 36.9999 31.8673 36.9999 27C36.9999 19.268 30.7319 13 22.9999 13ZM12.9999 27C12.9999 21.4772 17.4771 17 22.9999 17C28.5228 17 32.9999 21.4772 32.9999 27C32.9999 32.5228 28.5228 37 22.9999 37C17.4771 37 12.9999 32.5228 12.9999 27Z" fill="#172126"/>
<path d="M38.5509 17.3723C39.8947 16.9873 41.3033 16.8997 42.6826 17.1151C44.0618 17.3305 45.3816 17.8443 46.5528 18.6236C47.7241 19.4029 48.7202 20.4303 49.4721 21.6382C50.2241 22.8462 50.714 24.206 50.907 25.6261C51.1001 27.0462 50.9916 28.4918 50.5892 29.8648C50.1868 31.2378 49.5005 32.5048 48.5784 33.5812C47.6564 34.6575 46.5203 35.5181 45.2482 36.1069C43.9761 36.6957 42.5962 36.9998 41.2011 37C40.0966 37.0001 39.2012 37.8957 39.2014 39.0002C39.2015 40.1048 40.097 41.0001 41.2016 41C41.3938 41 41.5857 40.9959 41.7773 40.9877C41.8509 40.9959 41.9257 41.0001 42.0015 41C44.7893 40.9978 47.5444 41.7228 50.0355 43.124C52.5276 44.5258 54.6877 46.5669 56.3216 49.0878C56.9224 50.0147 58.1609 50.2791 59.0877 49.6783C60.0146 49.0775 60.279 47.8391 59.6782 46.9122C57.7057 43.869 55.0746 41.3691 51.9965 39.6377C51.115 39.1419 50.2048 38.7135 49.2727 38.3548C50.1316 37.7263 50.9183 36.9982 51.6162 36.1835C52.909 34.6743 53.867 32.9031 54.4277 30.9897C54.9884 29.0765 55.1393 27.064 54.8706 25.0873C54.6019 23.1106 53.9195 21.2136 52.8679 19.5243C51.8162 17.8348 50.419 16.3915 48.7686 15.2934C47.1182 14.1952 45.2534 13.4681 43.2998 13.163C41.3461 12.8579 39.3509 12.9822 37.4491 13.5271C36.3872 13.8313 35.7731 14.9387 36.0773 16.0006C36.3816 17.0624 37.489 17.6766 38.5509 17.3723Z" fill="#172126"/>
</svg>
