<svg width="64" height="64" viewBox="0 0 64 64" fill="none" xmlns="http://www.w3.org/2000/svg">
<path fill-rule="evenodd" clip-rule="evenodd" d="M32 10C19.8497 10 10 19.8497 10 32C10 44.1503 19.8497 54 32 54C44.1503 54 54 44.1503 54 32C54 19.8497 44.1503 10 32 10ZM6 32C6 17.6406 17.6406 6 32 6C46.3594 6 58 17.6406 58 32C58 46.3594 46.3594 58 32 58C17.6406 58 6 46.3594 6 32Z" fill="#172126"/>
<path fill-rule="evenodd" clip-rule="evenodd" d="M43.3956 36.2676C44.3518 36.8205 44.6788 38.0439 44.126 39.0001C42.8961 41.1274 41.1282 42.8937 38.9997 44.1217C36.8713 45.3497 34.4573 45.9962 32.0001 45.9962C29.5428 45.9962 27.1288 45.3498 25.0004 44.1218C22.8719 42.8939 21.104 41.1276 19.874 39.0003C19.3212 38.0441 19.6481 36.8207 20.6044 36.2678C21.5606 35.7149 22.784 36.0419 23.3369 36.9982C24.2156 38.518 25.4787 39.7798 26.9993 40.6571C28.5199 41.5344 30.2445 41.9962 32 41.9962C33.7556 41.9962 35.4802 41.5343 37.0008 40.657C38.5214 39.7797 39.7844 38.5178 40.6631 36.998C41.216 36.0418 42.4393 35.7148 43.3956 36.2676Z" fill="#172126"/>
<path d="M23 30C24.6569 30 26 28.6569 26 27C26 25.3431 24.6569 24 23 24C21.3431 24 20 25.3431 20 27C20 28.6569 21.3431 30 23 30Z" fill="#172126"/>
<path fill-rule="evenodd" clip-rule="evenodd" d="M36 27C36 25.8954 36.8954 25 38 25H44C45.1046 25 46 25.8954 46 27C46 28.1046 45.1046 29 44 29H38C36.8954 29 36 28.1046 36 27Z" fill="#172126"/>
</svg>
