<svg width="64" height="64" viewBox="0 0 64 64" fill="none" xmlns="http://www.w3.org/2000/svg">
<path fill-rule="evenodd" clip-rule="evenodd" d="M32 10C19.8497 10 10 19.8497 10 32C10 44.1503 19.8497 54 32 54C44.1503 54 54 44.1503 54 32C54 19.8497 44.1503 10 32 10ZM6 32C6 17.6406 17.6406 6 32 6C46.3594 6 58 17.6406 58 32C58 46.3594 46.3594 58 32 58C17.6406 58 6 46.3594 6 32Z" fill="#172126"/>
<path d="M32 46C37.8132 46 42.661 42.5553 43.7644 37.9817C44.0234 36.908 43.1046 36 42 36H22C20.8954 36 19.9766 36.908 20.2356 37.9817C21.339 42.5553 26.1868 46 32 46Z" fill="#172126"/>
<path d="M23 30C24.6569 30 26 28.6569 26 27C26 25.3431 24.6569 24 23 24C21.3431 24 20 25.3431 20 27C20 28.6569 21.3431 30 23 30Z" fill="#172126"/>
<path d="M41 30C42.6569 30 44 28.6569 44 27C44 25.3431 42.6569 24 41 24C39.3431 24 38 25.3431 38 27C38 28.6569 39.3431 30 41 30Z" fill="#172126"/>
</svg>
