<svg width="64" height="64" viewBox="0 0 64 64" fill="none" xmlns="http://www.w3.org/2000/svg">
<path d="M44.9209 32.896C44.6922 32.987 44.4427 33.037 44.1817 33.037L44.9209 32.896Z" fill="#172126"/>
<path fill-rule="evenodd" clip-rule="evenodd" d="M39.2726 4C37.4525 4 35.6994 4.70875 34.4008 5.98236C33.101 7.25726 32.3634 8.99475 32.3634 10.8148V17.0721C30.9326 16.1142 29.212 15.5556 27.3614 15.5556H20.4781C17.2339 15.5556 13.7086 18.2403 13.7086 22.3704C13.7086 23.9651 14.203 25.3548 15.0496 26.4558C14.7041 26.4489 14.3578 26.4675 14.0137 26.5119C13.1186 26.6272 12.254 26.9147 11.4691 27.3591C10.6842 27.8036 9.99362 28.3969 9.43838 29.1069C8.88308 29.817 8.47428 30.6295 8.23723 31.4987C8.00015 32.3679 7.93992 33.2752 8.06035 34.168C8.17677 35.0311 8.45958 35.8627 8.89196 36.6185C12.8686 44.8414 16.2036 50.696 20.0401 54.4692C24.0358 58.3992 28.4918 60 34.3633 60C37.1994 60 40.0085 59.4522 42.6307 58.3869C45.253 57.3216 47.6381 55.7592 49.649 53.787C51.6599 51.8147 53.2572 49.4711 54.3477 46.8891C55.4382 44.3069 56 41.538 56 38.7407V18.5185C56 16.6985 55.2625 14.961 53.9626 13.6861C52.664 12.4125 50.9109 11.7037 49.0908 11.7037C48.0782 11.7037 47.0862 11.9231 46.1817 12.3372V10.8148C46.1817 8.99475 45.4442 7.25726 44.1443 5.98236C42.8457 4.70875 41.0926 4 39.2726 4ZM44.9209 32.896C45.6596 32.6021 46.1817 31.8805 46.1817 31.037V18.4981C46.1872 17.7715 46.4836 17.0679 47.02 16.5418C47.5627 16.0095 48.3069 15.7037 49.0908 15.7037C49.8748 15.7037 50.619 16.0095 51.1617 16.5418C51.7031 17.0728 52 17.7846 52 18.5185V38.7407C52 41.0018 51.546 43.2417 50.6628 45.3328C49.7796 47.424 48.4841 49.3267 46.8481 50.9312C45.2121 52.5358 43.2678 53.8106 41.1252 54.681C38.9825 55.5515 36.6847 56 34.3633 56C29.3898 56 25.9911 54.7119 22.8449 51.6174C19.55 48.3767 16.4636 43.0933 12.4605 34.8099C12.4365 34.7602 12.4105 34.7115 12.3824 34.664C12.1943 34.3451 12.0732 33.9949 12.0245 33.6333C11.9757 33.2718 12 32.9043 12.0963 32.5512C12.1926 32.1981 12.3595 31.8648 12.5893 31.571C12.8192 31.277 13.1078 31.0279 13.4401 30.8398C13.7724 30.6516 14.1411 30.5285 14.5251 30.479C14.9091 30.4295 15.2992 30.4548 15.6726 30.5531C16.0459 30.6513 16.3937 30.8203 16.6965 31.0485C16.9992 31.2766 17.2507 31.5591 17.4383 31.8784L22.8214 41.0231C23.2791 41.8005 24.2004 42.1753 25.0708 41.9381C25.9411 41.701 26.545 40.9106 26.545 40.0085V27.1852C26.545 26.0806 25.6496 25.1852 24.545 25.1852H21.0026C19.9943 25.1852 19.1488 24.8723 18.5911 24.403C18.0707 23.9651 17.7086 23.3219 17.7086 22.3704C17.7086 20.7227 19.1596 19.5556 20.4781 19.5556H27.3614C30.1235 19.5556 32.3633 21.7949 32.3633 24.5556V30.8653C32.3633 30.8713 32.3633 30.8773 32.3634 30.8834V31.037C32.3634 32.1416 33.2588 33.037 34.3634 33.037C35.468 33.037 36.3634 32.1416 36.3634 31.037V10.8148C36.3634 10.0809 36.6603 9.3691 37.2017 8.8381C37.7444 8.3058 38.4886 8 39.2726 8C40.0565 8 40.8007 8.3058 41.3435 8.8381C41.8849 9.3691 42.1817 10.0809 42.1817 10.8148V18.4865C42.1817 18.4971 42.1817 18.5078 42.1817 18.5185V31.037C42.1817 31.8655 42.6854 32.5763 43.4033 32.8799C43.6425 32.9811 43.9055 33.037 44.1817 33.037M20.8862 29.8507C20.7464 29.6129 20.5926 29.3843 20.4257 29.1661C20.6177 29.1788 20.8102 29.1852 21.0026 29.1852H22.545V32.6685L20.8862 29.8507Z" fill="#172126"/>
</svg>
