<svg width="64" height="64" viewBox="0 0 64 64" fill="none" xmlns="http://www.w3.org/2000/svg">
<path fill-rule="evenodd" clip-rule="evenodd" d="M9.99988 20.5C9.99988 13.0442 16.044 7 23.4999 7C30.9557 7 36.9999 13.0442 36.9999 20.5C36.9999 24.9183 34.8774 28.8408 31.5964 31.3036C32.9979 31.8076 34.3545 32.4543 35.6458 33.2374C37.0749 34.1042 38.4029 35.1253 39.6105 36.2789L41.6179 31.0217C41.8314 30.4469 42.2112 29.9394 42.7203 29.5739C43.2358 29.204 43.8566 29 44.4999 29C45.1432 29 45.764 29.204 46.2795 29.5739C46.7886 29.9394 47.1684 30.4469 47.3819 31.0217L50.039 37.9805L57.1114 38.4579C58.5866 38.5574 59.542 39.6153 59.8628 40.688C60.1823 41.7565 59.9667 43.1113 58.9035 44.0316L53.411 48.786L55.1898 56.0632C55.5089 57.369 54.9964 58.6141 54.0792 59.338C53.1459 60.0747 51.7357 60.2944 50.519 59.4927L44.4999 55.5267L38.9437 59.1878C37.6432 60.0446 36.1393 59.8114 35.1393 59.0221C34.1555 58.2456 33.6034 56.9087 33.9474 55.5013L35.5888 48.786L30.0963 44.0316C29.0331 43.1113 28.8175 41.7565 29.137 40.688C29.4578 39.6153 30.4132 38.5574 31.8884 38.4579L35.7471 38.1974C35.0582 37.6332 34.3315 37.1185 33.5715 36.6576C30.6962 34.9137 27.443 34 24.1377 34C20.8324 34 17.5792 34.9136 14.7038 36.6574C11.8276 38.4017 9.42687 40.9181 7.75246 43.9636C7.22029 44.9315 6.00422 45.2847 5.0363 44.7526C4.06839 44.2204 3.71514 43.0043 4.24731 42.0364C6.25072 38.3926 9.13826 35.3546 12.6296 33.2372C13.6633 32.6103 14.7389 32.0708 15.8459 31.622C12.3145 29.1872 9.99988 25.1139 9.99988 20.5ZM23.4999 11C18.2532 11 13.9999 15.2533 13.9999 20.5C13.9999 25.7467 18.2532 30 23.4999 30C28.7466 30 32.9999 25.7467 32.9999 20.5C32.9999 15.2533 28.7466 11 23.4999 11ZM45.0725 53.5089L43.9721 55.179L43.9684 55.1766L45.0725 53.5089ZM46.1765 51.8412L46.1744 51.8399C45.6804 51.5134 45.0994 51.3355 44.4999 51.3355C43.9004 51.3355 43.3194 51.5134 42.8254 51.8399L42.8233 51.8412L38.2181 54.8756L39.586 49.2794L39.5867 49.2766C39.7261 48.7104 39.7094 48.1156 39.5379 47.5576C39.366 46.9982 39.0426 46.4902 38.5945 46.0973L34.2188 42.3097L39.8247 41.9313L39.8382 41.9303C40.4392 41.8857 41.008 41.6647 41.4791 41.303C41.9468 40.9439 42.2975 40.4627 42.5012 39.9218L44.4999 34.6873L46.4985 39.9216C46.7022 40.4626 47.0529 40.9438 47.5207 41.303C47.9918 41.6647 48.5606 41.8857 49.1616 41.9304L54.781 42.3097L50.4148 46.0891L50.4053 46.0974C49.9572 46.4902 49.6338 46.9982 49.4619 47.5576C49.2903 48.1156 49.2737 48.7104 49.4131 49.2766L50.7817 54.8756L46.1765 51.8412Z" fill="#172126"/>
</svg>
