<svg width="64" height="64" viewBox="0 0 64 64" fill="none" xmlns="http://www.w3.org/2000/svg">
<path fill-rule="evenodd" clip-rule="evenodd" d="M42.3571 45H54.9822C57.8749 45 60 42.5365 60 39.7778V17.2222C60 14.4635 57.8749 12 54.9822 12H24.8036C21.9109 12 19.7857 14.4635 19.7857 17.2222V19.0021C13.7131 19.1219 9.00003 24.3244 9.00003 30.5C9.00003 34.1312 10.6295 37.426 13.2068 39.5489C12.458 39.8852 11.7286 40.2747 11.0236 40.7155C8.18796 42.4886 5.85221 45.0264 4.23527 48.0586C3.71553 49.0332 4.0843 50.2447 5.05895 50.7644C6.0336 51.2842 7.24504 50.9154 7.76479 49.9408C9.06631 47.5001 10.927 45.4935 13.1442 44.1071C15.3599 42.7217 17.8593 42 20.3929 42C22.9266 42 25.426 42.7218 27.6416 44.1073C29.8588 45.4937 31.7195 47.5003 33.021 49.941C33.0929 50.0759 33.178 50.1991 33.2739 50.31C33.4229 51.2674 34.2509 52 35.25 52H45.9286C47.0332 52 47.9286 51.1046 47.9286 50C47.9286 48.8954 47.0332 48 45.9286 48H42.3571V45ZM54.9822 41C55.4229 41 56 40.5783 56 39.7778V37H29.0731C28.5056 37.8662 27.827 38.6491 27.0572 39.3245C27.9897 39.7082 28.8945 40.173 29.7624 40.7157C29.9106 40.8084 30.0574 40.9032 30.2029 41H54.9822ZM38.3571 45H34.5438C35.2848 45.9306 35.9463 46.9346 36.519 48H38.3571V45ZM56 17.2222V33H30.7375C30.9095 32.1926 31 31.3557 31 30.5C31 25.6046 28.0384 21.3207 23.7857 19.6953V17.2222C23.7857 16.4217 24.3629 16 24.8036 16H54.9822C55.4229 16 56 16.4217 56 17.2222ZM13 30.5C13 26.2546 16.2345 23 20 23C23.7655 23 27 26.2546 27 30.5C27 34.7454 23.7655 38 20 38C16.2345 38 13 34.7454 13 30.5Z" fill="#172126"/>
</svg>
