<svg width="64" height="64" viewBox="0 0 64 64" fill="none" xmlns="http://www.w3.org/2000/svg">
<path fill-rule="evenodd" clip-rule="evenodd" d="M41.9999 14C41.9999 12.8954 42.8953 12 43.9999 12H55.9999C57.1045 12 57.9999 12.8954 57.9999 14C57.9999 15.1046 57.1045 16 55.9999 16H43.9999C42.8953 16 41.9999 15.1046 41.9999 14Z" fill="#172126"/>
<path fill-rule="evenodd" clip-rule="evenodd" d="M49.9999 6.00001C51.1045 6.00001 51.9999 6.89544 51.9999 8.00001V20C51.9999 21.1046 51.1045 22 49.9999 22C48.8953 22 47.9999 21.1046 47.9999 20V8.00001C47.9999 6.89544 48.8953 6.00001 49.9999 6.00001Z" fill="#172126"/>
<path fill-rule="evenodd" clip-rule="evenodd" d="M32.0002 42C27.4358 42 22.9518 43.2011 18.9986 45.4827C15.0454 47.7643 11.7622 51.046 9.47892 54.9982C8.92636 55.9546 7.70309 56.282 6.74666 55.7294C5.79023 55.1769 5.46284 53.9536 6.0154 52.9972C8.64987 48.4372 12.438 44.6507 16.9991 42.0183C21.5603 39.3858 26.7339 38 32.0002 38C37.2665 38.0001 42.4401 39.386 47.0012 42.0186C51.5623 44.6511 55.3503 48.4377 57.9847 52.9977C58.5373 53.9542 58.2098 55.1774 57.2534 55.73C56.297 56.2825 55.0737 55.9551 54.5212 54.9986C52.2379 51.0464 48.9548 47.7646 45.0017 45.4829C41.0485 43.2013 36.5645 42.0001 32.0002 42Z" fill="#172126"/>
<path fill-rule="evenodd" clip-rule="evenodd" d="M35.2346 10.3751C32.6126 9.75543 29.8674 9.90598 27.3289 10.8087C24.7903 11.7113 22.5664 13.3278 20.9242 15.4637C19.2821 17.5997 18.2916 20.1644 18.0717 22.8496C17.8517 25.5349 18.4118 28.2266 19.6846 30.6012C20.9573 32.9759 22.8887 34.9326 25.2465 36.2363C27.6044 37.5399 30.2885 38.1351 32.9764 37.9503C35.6643 37.7655 38.2417 36.8085 40.3989 35.1944C42.5562 33.5803 44.2015 31.3776 45.1372 28.8511C45.5209 27.8153 46.6715 27.2866 47.7073 27.6702C48.7432 28.0538 49.2719 29.2045 48.8882 30.2403C47.685 33.4892 45.5693 36.3215 42.7953 38.3971C40.0214 40.4727 36.7072 41.7032 33.2508 41.9409C29.7945 42.1785 26.343 41.4132 23.3111 39.7369C20.2791 38.0605 17.7957 35.5444 16.159 32.4908C14.5224 29.4373 13.8022 25.9761 14.085 22.5232C14.3678 19.0702 15.6415 15.7723 17.7531 13.0257C19.8647 10.2791 22.7244 8.20058 25.9887 7.03984C29.253 5.8791 32.783 5.68551 36.1546 6.48233C37.2296 6.73638 37.895 7.81375 37.641 8.88871C37.3869 9.96366 36.3096 10.6291 35.2346 10.3751Z" fill="#172126"/>
</svg>
