<svg width="64" height="64" viewBox="0 0 64 64" fill="none" xmlns="http://www.w3.org/2000/svg">
<path fill-rule="evenodd" clip-rule="evenodd" d="M42.357 45H54.9821C57.8748 45 59.9999 42.5365 59.9999 39.7778V17.2222C59.9999 14.4635 57.8748 12 54.9821 12H24.8035C21.9108 12 19.7856 14.4635 19.7856 17.2222V19.0021C13.713 19.1219 8.99991 24.3244 8.99991 30.5C8.99991 34.1312 10.6294 37.426 13.2067 39.5489C12.4579 39.8852 11.7285 40.2747 11.0234 40.7155C8.18784 42.4886 5.85209 45.0264 4.23515 48.0586C3.71541 49.0332 4.08418 50.2447 5.05883 50.7644C6.03348 51.2842 7.24492 50.9154 7.76466 49.9408C9.06619 47.5001 10.9269 45.4935 13.1441 44.1071C15.3598 42.7217 17.8592 42 20.3928 42C22.9264 42 25.4258 42.7218 27.6415 44.1073C29.8587 45.4937 31.7194 47.5003 33.0208 49.941C33.0927 50.0759 33.1779 50.1991 33.2738 50.31C33.4228 51.2674 34.2508 52 35.2499 52H45.9285C47.0331 52 47.9285 51.1046 47.9285 50C47.9285 48.8954 47.0331 48 45.9285 48H42.357V45ZM54.9821 41C55.4228 41 55.9999 40.5783 55.9999 39.7778V37H29.073C28.5054 37.8662 27.8269 38.6491 27.0571 39.3245C27.9895 39.7082 28.8944 40.173 29.7623 40.7157C29.9105 40.8084 30.0573 40.9032 30.2027 41H54.9821ZM38.357 45H34.5437C35.2846 45.9306 35.9462 46.9346 36.5188 48H38.357V45ZM55.9999 17.2222V33H30.7374C30.9094 32.1926 30.9999 31.3557 30.9999 30.5C30.9999 25.6046 28.0383 21.3207 23.7856 19.6953V17.2222C23.7856 16.4217 24.3628 16 24.8035 16H54.9821C55.4228 16 55.9999 16.4217 55.9999 17.2222ZM12.9999 30.5C12.9999 26.2546 16.2344 23 19.9999 23C23.7654 23 26.9999 26.2546 26.9999 30.5C26.9999 34.7454 23.7654 38 19.9999 38C16.2344 38 12.9999 34.7454 12.9999 30.5Z" fill="#172126"/>
</svg>
