<svg width="64" height="64" viewBox="0 0 64 64" fill="none" xmlns="http://www.w3.org/2000/svg">
<path fill-rule="evenodd" clip-rule="evenodd" d="M10 20.5C10 13.0442 16.0442 7 23.5 7C30.9558 7 37 13.0442 37 20.5C37 24.9183 34.8775 28.8408 31.5965 31.3036C32.9981 31.8076 34.3546 32.4543 35.6459 33.2374C37.075 34.1042 38.4031 35.1253 39.6106 36.2789L41.618 31.0217C41.8315 30.4469 42.2113 29.9394 42.7205 29.5739C43.2359 29.204 43.8567 29 44.5 29C45.1434 29 45.7641 29.204 46.2796 29.5739C46.7888 29.9394 47.1685 30.4469 47.3821 31.0217L50.0391 37.9805L57.1116 38.4579C58.5867 38.5574 59.5421 39.6153 59.8629 40.688C60.1824 41.7565 59.9668 43.1113 58.9037 44.0316L53.4111 48.786L55.1899 56.0632C55.5091 57.369 54.9965 58.6141 54.0794 59.338C53.146 60.0747 51.7359 60.2944 50.5191 59.4927L44.5 55.5267L38.9438 59.1878C37.6434 60.0446 36.1394 59.8114 35.1394 59.0221C34.1556 58.2456 33.6035 56.9087 33.9475 55.5013L35.5889 48.786L30.0964 44.0316C29.0333 43.1113 28.8177 41.7565 29.1372 40.688C29.4579 39.6153 30.4133 38.5574 31.8885 38.4579L35.7472 38.1974C35.0583 37.6332 34.3316 37.1185 33.5716 36.6576C30.6963 34.9137 27.4431 34 24.1378 34C20.8325 34 17.5793 34.9136 14.7039 36.6574C11.8277 38.4017 9.42699 40.9181 7.75258 43.9636C7.22041 44.9315 6.00435 45.2847 5.03643 44.7526C4.06851 44.2204 3.71526 43.0043 4.24743 42.0364C6.25084 38.3926 9.13838 35.3546 12.6297 33.2372C13.6635 32.6103 14.739 32.0708 15.846 31.622C12.3146 29.1872 10 25.1139 10 20.5ZM23.5 11C18.2533 11 14 15.2533 14 20.5C14 25.7467 18.2533 30 23.5 30C28.7467 30 33 25.7467 33 20.5C33 15.2533 28.7467 11 23.5 11ZM45.0726 53.5089L43.9722 55.179L43.9686 55.1766L45.0726 53.5089ZM46.1767 51.8412L46.1746 51.8399C45.6806 51.5134 45.0995 51.3355 44.5 51.3355C43.9005 51.3355 43.3195 51.5134 42.8255 51.8399L42.8234 51.8412L38.2182 54.8756L39.5861 49.2794L39.5868 49.2766C39.7262 48.7104 39.7096 48.1156 39.538 47.5576C39.3661 46.9982 39.0427 46.4902 38.5946 46.0973L34.2189 42.3097L39.8248 41.9313L39.8383 41.9303C40.4393 41.8857 41.0081 41.6647 41.4792 41.303C41.9469 40.9439 42.2976 40.4627 42.5014 39.9218L44.5 34.6873L46.4986 39.9216C46.7024 40.4626 47.0531 40.9438 47.5208 41.303C47.992 41.6647 48.5607 41.8857 49.1617 41.9304L54.7811 42.3097L50.4149 46.0891L50.4054 46.0974C49.9573 46.4902 49.6339 46.9982 49.462 47.5576C49.2905 48.1156 49.2738 48.7104 49.4133 49.2766L50.7818 54.8756L46.1767 51.8412Z" fill="#172126"/>
</svg>
