<svg width="64" height="64" viewBox="0 0 64 64" fill="none" xmlns="http://www.w3.org/2000/svg">
<path fill-rule="evenodd" clip-rule="evenodd" d="M17 28C17 19.7157 23.7157 13 32 13C40.2843 13 47 19.7157 47 28C47 36.2843 40.2843 43 32 43C23.7157 43 17 36.2843 17 28ZM32 17C25.9249 17 21 21.9249 21 28C21 30.7782 22.03 33.3159 23.7289 35.252C24.4859 34.1463 25.4791 33.21 26.6376 32.4997C25.6156 31.2829 25 29.7134 25 28C25 24.134 28.134 21 32 21C35.866 21 39 24.134 39 28C39 29.7134 38.3844 31.2829 37.3624 32.4997C38.5209 33.21 39.5141 34.1463 40.2712 35.252C41.9701 33.3159 43 30.7782 43 28C43 21.9249 38.0751 17 32 17ZM32 39C30.1522 39 28.4108 38.5444 26.882 37.7394C27.3544 36.9665 28.0389 36.3005 28.8865 35.8161C29.8139 35.2862 30.892 35 32 35C33.108 35 34.1861 35.2862 35.1135 35.8161C35.9611 36.3005 36.6456 36.9665 37.118 37.7394C35.5892 38.5444 33.8478 39 32 39ZM35 28C35 29.6569 33.6569 31 32 31C30.3431 31 29 29.6569 29 28C29 26.3431 30.3431 25 32 25C33.6569 25 35 26.3431 35 28Z" fill="#172126"/>
<path d="M23 46C21.8954 46 21 46.8954 21 48C21 49.1046 21.8954 50 23 50H42C43.1046 50 44 49.1046 44 48C44 46.8954 43.1046 46 42 46H23Z" fill="#172126"/>
<path fill-rule="evenodd" clip-rule="evenodd" d="M8.90245 5.60898C9.49528 4.76824 10.5019 4 11.8333 4H52.1667C53.4981 4 54.5047 4.76824 55.0975 5.60898C55.6942 6.45509 56 7.51886 56 8.6V55.4C56 56.4811 55.6942 57.5449 55.0975 58.391C54.5047 59.2318 53.4981 60 52.1667 60H11.8333C10.5019 60 9.49528 59.2318 8.90245 58.391C8.30584 57.5449 8 56.4811 8 55.4V8.6C8 7.51886 8.30584 6.45509 8.90245 5.60898ZM12.1219 8C12.0626 8.12202 12 8.32553 12 8.6V55.4C12 55.6745 12.0626 55.878 12.1219 56H51.8781C51.9374 55.878 52 55.6745 52 55.4V8.6C52 8.32553 51.9374 8.12202 51.8781 8H12.1219Z" fill="#172126"/>
</svg>
