<?xml version="1.0" encoding="UTF-8"?>
<svg width="167px" height="45px" viewBox="0 0 167 45" version="1.1" xmlns="http://www.w3.org/2000/svg" xmlns:xlink="http://www.w3.org/1999/xlink">
    <!-- Generator: sketchtool 55.2 (78181) - https://sketchapp.com -->
    <title>C99010EE-5916-4E96-A781-277A4F4607DC@3x</title>
    <desc>Created with sketchtool.</desc>
    <g id="DS-Bedu" stroke="none" stroke-width="1" fill="none" fill-rule="evenodd">
        <g id="Atomos" transform="translate(-135.000000, -2358.000000)" fill="#040201">
            <g id="logo-bedu-black" transform="translate(135.000000, 2358.000000)">
                <path d="M85.8623919,-0.000166666667 L85.8516973,30.8006667 L85.8640372,44.7694167 L109.606008,44.7694167 L118.375564,40.8285833 L121.33385,32.3960833 L121.307114,12.68275 L118.111079,3.79233333 L109.520862,-0.000166666667 L85.8623919,-0.000166666667 Z M94.952786,30.799 L94.9585446,9.219 L107.687976,9.219 L110.911981,10.71025 L112.208493,14.31525 L112.231116,30.8131667 L111.092966,34.0569167 L107.629155,35.65275 L94.9564879,35.65275 L94.952786,30.799 Z" id="Fill-1"></path>
                <path d="M6.70834064,-0.000166666667 L-4.11330049e-05,12.9323333 L-4.11330049e-05,31.8369167 L6.70834064,44.7694167 L23.7509786,44.7694167 L32.5242372,40.7260833 L35.9514392,30.95775 L30.7497594,22.4519167 L35.9353973,13.9131667 L32.258518,3.68983333 L23.691747,-0.000166666667 L6.70834064,-0.000166666667 Z M9.10145887,29.56275 L9.10145887,15.2069167 L12.2070007,9.219 L21.8370599,9.219 L25.0610648,10.6073333 L25.8783776,12.8798333 L20.0551781,22.4685833 L25.911284,32.0460833 L25.24205,33.9544167 L21.7778283,35.55025 L12.2070007,35.55025 L9.10145887,29.56275 Z" id="Fill-2"></path>
                <polygon id="Fill-3" points="157.882746 -0.000166666667 157.882746 32.579 151.971933 35.55025 145.414921 35.55025 139.504108 32.579 139.504108 -0.000166666667 130.402197 -0.000166666667 130.402197 38.1494167 143.168236 44.7694167 154.217384 44.7694167 166.984246 38.1494167 166.984246 -0.000166666667"></polygon>
                <polygon id="Fill-4" points="60.0778798 27.0697917 60.0778798 17.850625 52.8014512 17.850625 49.0052862 11.575625 41.2459562 16.3927083 44.9002123 22.4327083 41.1933059 28.5910417 48.9637419 33.3897917 52.7681335 27.0697917"></polygon>
                <polygon id="Fill-5" points="54.1186946 9.21916667 76.7953202 9.21916667 76.7953202 0 54.1186946 0"></polygon>
                <polygon id="Fill-6" points="54.1186946 44.7695833 76.7953202 44.7695833 76.7953202 35.5504167 54.1186946 35.5504167"></polygon>
            </g>
        </g>
    </g>
</svg>